<?xml version="1.0" encoding="UTF-8" standalone="no"?>
<!-- Created with Inkscape (http://www.inkscape.org/) -->

<svg
   xmlns:dc="http://purl.org/dc/elements/1.1/"
   xmlns:cc="http://creativecommons.org/ns#"
   xmlns:rdf="http://www.w3.org/1999/02/22-rdf-syntax-ns#"
   xmlns:svg="http://www.w3.org/2000/svg"
   xmlns="http://www.w3.org/2000/svg"
   xmlns:xlink="http://www.w3.org/1999/xlink"
   xmlns:sodipodi="http://sodipodi.sourceforge.net/DTD/sodipodi-0.dtd"
   xmlns:inkscape="http://www.inkscape.org/namespaces/inkscape"
   width="24"
   height="24"
   id="svg2"
   sodipodi:version="0.32"
   inkscape:version="0.48.4 r9939"
   version="1.0"
   sodipodi:docname="xfce4-settings.svg"
   inkscape:output_extension="org.inkscape.output.svg.inkscape">
  <defs
     id="defs4">
    <radialGradient
       inkscape:collect="always"
       xlink:href="#linearGradient5060"
       id="radialGradient2646"
       gradientUnits="userSpaceOnUse"
       gradientTransform="matrix(-2.774389,0,0,1.969706,112.7623,-872.8854)"
       cx="605.71429"
       cy="486.64789"
       fx="605.71429"
       fy="486.64789"
       r="117.14286" />
    <linearGradient
       id="linearGradient5060"
       inkscape:collect="always">
      <stop
         style="stop-color:black;stop-opacity:1;"
         id="stop5062"
         offset="0" />
      <stop
         style="stop-color:black;stop-opacity:0;"
         id="stop5064"
         offset="1" />
    </linearGradient>
    <radialGradient
       inkscape:collect="always"
       xlink:href="#linearGradient5060"
       id="radialGradient2644"
       gradientUnits="userSpaceOnUse"
       gradientTransform="matrix(2.774389,0,0,1.969706,-1891.633,-872.8854)"
       cx="605.71429"
       cy="486.64789"
       fx="605.71429"
       fy="486.64789"
       r="117.14286" />
    <linearGradient
       id="linearGradient5048">
      <stop
         style="stop-color:black;stop-opacity:0;"
         id="stop5050"
         offset="0" />
      <stop
         style="stop-color:black;stop-opacity:1;"
         id="stop5056"
         offset="0.5" />
      <stop
         style="stop-color:black;stop-opacity:0;"
         id="stop5052"
         offset="1" />
    </linearGradient>
    <linearGradient
       inkscape:collect="always"
       xlink:href="#linearGradient5048"
       id="linearGradient2642"
       gradientUnits="userSpaceOnUse"
       gradientTransform="matrix(2.774389,0,0,1.969706,-1892.179,-872.8854)"
       x1="302.85715"
       y1="366.64789"
       x2="302.85715"
       y2="609.50507" />
    <linearGradient
       id="linearGradient48779">
      <stop
         style="stop-color:#aaaaaa;stop-opacity:1;"
         offset="0"
         id="stop48781" />
      <stop
         style="stop-color:#7e807a;stop-opacity:1;"
         offset="1"
         id="stop48783" />
    </linearGradient>
    <linearGradient
       inkscape:collect="always"
       xlink:href="#linearGradient48779"
       id="linearGradient2436"
       gradientUnits="userSpaceOnUse"
       gradientTransform="matrix(0.489342,0,0,0.4394995,0.255801,1.9466225)"
       x1="27.9825"
       y1="3.358309"
       x2="27.9825"
       y2="45.060455" />
    <linearGradient
       inkscape:collect="always"
       id="linearGradient3299">
      <stop
         style="stop-color:#cdcdcd;stop-opacity:1"
         offset="0"
         id="stop3301" />
      <stop
         style="stop-color:#f1f1f1;stop-opacity:1"
         offset="1"
         id="stop3303" />
    </linearGradient>
    <linearGradient
       inkscape:collect="always"
       xlink:href="#linearGradient3299"
       id="linearGradient2434"
       gradientUnits="userSpaceOnUse"
       gradientTransform="matrix(0.489342,0,0,0.4394995,0.255801,1.9466225)"
       x1="17.839369"
       y1="43.790993"
       x2="17.839369"
       y2="4.859941" />
    <linearGradient
       id="linearGradient2238"
       inkscape:collect="always">
      <stop
         style="stop-color:#ffffff;stop-opacity:1;"
         id="stop2240"
         offset="0" />
      <stop
         style="stop-color:#ffffff;stop-opacity:0;"
         id="stop2242"
         offset="1" />
    </linearGradient>
    <linearGradient
       inkscape:collect="always"
       xlink:href="#linearGradient2238"
       id="linearGradient2431"
       gradientUnits="userSpaceOnUse"
       gradientTransform="matrix(0.4662131,0,0,0.4098299,0.810318,3.0763612)"
       x1="24.675762"
       y1="4.1577182"
       x2="24.675762"
       y2="46.698467" />
    <linearGradient
       inkscape:collect="always"
       id="linearGradient3373">
      <stop
         style="stop-color:#8e8e8e;stop-opacity:1;"
         offset="0"
         id="stop3375" />
      <stop
         style="stop-color:#cfcfcf;stop-opacity:1"
         offset="1"
         id="stop3377" />
    </linearGradient>
    <linearGradient
       inkscape:collect="always"
       xlink:href="#linearGradient3373"
       id="linearGradient3639"
       gradientUnits="userSpaceOnUse"
       gradientTransform="matrix(0.36052381,0,0,0.33994964,-28.492552,5.2747658)"
       x1="101.24215"
       y1="41.692078"
       x2="101.88018"
       y2="-6.7863059" />
  </defs>
  <sodipodi:namedview
     id="base"
     pagecolor="#ffffff"
     bordercolor="#666666"
     borderopacity="1.0"
     gridtolerance="10000"
     guidetolerance="10"
     objecttolerance="10"
     inkscape:pageopacity="0.0"
     inkscape:pageshadow="2"
     inkscape:zoom="24.208333"
     inkscape:cx="12"
     inkscape:cy="12"
     inkscape:document-units="px"
     inkscape:current-layer="layer1"
     showgrid="false"
     inkscape:window-width="1438"
     inkscape:window-height="794"
     inkscape:window-x="0"
     inkscape:window-y="24"
     inkscape:window-maximized="0" />
  <metadata
     id="metadata7">
    <rdf:RDF>
      <cc:Work
         rdf:about="">
        <dc:format>image/svg+xml</dc:format>
        <dc:type
           rdf:resource="http://purl.org/dc/dcmitype/StillImage" />
      </cc:Work>
    </rdf:RDF>
  </metadata>
  <g
     inkscape:label="Layer 1"
     inkscape:groupmode="layer"
     id="layer1">
    <g
       transform="matrix(1.1820155e-2,0,0,1.0012672e-2,22.513266,19.719245)"
       id="g2544">
      <rect
         id="rect2546"
         x="-1559.2523"
         y="-150.69685"
         width="1339.6335"
         height="478.35718"
         style="opacity:0.40206185;fill:url(#linearGradient2642);fill-opacity:1;fill-rule:nonzero;stroke:none;stroke-width:1;stroke-linecap:round;stroke-linejoin:miter;marker:none;marker-start:none;marker-mid:none;marker-end:none;stroke-miterlimit:4;stroke-dasharray:none;stroke-dashoffset:0;stroke-opacity:1;visibility:visible;display:inline;overflow:visible" />
      <path
         d="M -219.61876,-150.68038 C -219.61876,-150.68038 -219.61876,327.65041 -219.61876,327.65041 C -76.744594,328.55086 125.78146,220.48075 125.78138,88.454235 C 125.78138,-43.572302 -33.655436,-150.68036 -219.61876,-150.68038 z"
         id="path2548"
         style="opacity:0.40206185;fill:url(#radialGradient2644);fill-opacity:1;fill-rule:nonzero;stroke:none;stroke-width:1;stroke-linecap:round;stroke-linejoin:miter;marker:none;marker-start:none;marker-mid:none;marker-end:none;stroke-miterlimit:4;stroke-dasharray:none;stroke-dashoffset:0;stroke-opacity:1;visibility:visible;display:inline;overflow:visible"
         sodipodi:nodetypes="cccc" />
      <path
         id="path2550"
         d="M -1559.2523,-150.68038 C -1559.2523,-150.68038 -1559.2523,327.65041 -1559.2523,327.65041 C -1702.1265,328.55086 -1904.6525,220.48075 -1904.6525,88.454235 C -1904.6525,-43.572302 -1745.2157,-150.68036 -1559.2523,-150.68038 z"
         style="opacity:0.40206185;fill:url(#radialGradient2646);fill-opacity:1;fill-rule:nonzero;stroke:none;stroke-width:1;stroke-linecap:round;stroke-linejoin:miter;marker:none;marker-start:none;marker-mid:none;marker-end:none;stroke-miterlimit:4;stroke-dasharray:none;stroke-dashoffset:0;stroke-opacity:1;visibility:visible;display:inline;overflow:visible"
         sodipodi:nodetypes="cccc" />
    </g>
    <rect
       id="rect1316"
       x="0.50106728"
       y="3.5010667"
       width="22.997868"
       height="17.997868"
       ry="0.69832265"
       rx="0.73712295"
       style="fill:url(#linearGradient2434);fill-opacity:1;fill-rule:evenodd;stroke:url(#linearGradient2436);stroke-width:1.00213301000000010;stroke-linecap:round;stroke-linejoin:round;stroke-miterlimit:4;stroke-dasharray:none;stroke-dashoffset:0;stroke-opacity:1" />
    <rect
       id="rect2232"
       x="1.5010673"
       y="4.5010662"
       width="20.997866"
       height="15.997868"
       ry="0"
       rx="0"
       style="opacity:0.40000000000000002;fill:none;fill-opacity:1;fill-rule:evenodd;stroke:url(#linearGradient2431);stroke-width:1.00213301000000010;stroke-linecap:round;stroke-linejoin:round;stroke-miterlimit:4;stroke-dasharray:none;stroke-dashoffset:0;stroke-opacity:1" />
    <path
       style="opacity:0.4;fill:#000000;fill-opacity:1;fill-rule:nonzero;stroke:none;stroke-width:1;marker:none;visibility:visible;display:inline;overflow:visible"
       d="m 9.2159839,5.8099299 c -0.1281782,0.00741 -0.2506771,0.018591 -0.3830581,0.042494 L 8.3710044,6.24549 9.8018337,7.5203008 9.8806987,8.6357593 8.8103944,9.5493749 7.5372937,9.4218857 6.2303961,8.263933 c 0,0 -0.4506549,0.4249379 -0.4506549,0.4249379 -0.2129859,1.9177641 1.9152828,3.6332101 4.1009575,2.4858821 l 1.6561543,1.604136 -0.07886,0.07437 -0.05633,-0.05312 c -0.133579,-0.139957 -0.360741,-0.205328 -0.608387,-0.201848 -0.412745,0.0058 -0.8952793,0.194062 -1.1491702,0.520547 -1.2109131,1.562474 -3.181644,2.813697 -3.6277705,2.963933 -0.85369,0.287493 -0.7563197,1.464644 -0.1915288,2.029077 l 0.6534503,0.679896 c 0.4746604,0.498105 1.7925212,0.720465 2.3772045,-0.244339 0.2549261,-0.420665 0.7549613,-1.602108 2.9855837,-3.495104 0.37464,-0.317571 0.764549,-1.042293 0.428124,-1.434163 l -0.05633,-0.05312 c 0.01964,-0.01848 0.04637,-0.04371 0.06759,-0.06374 l 4.438947,4.281239 c 0.277058,0.298567 1.159723,0.529324 1.746287,0 0.566427,-0.511152 0.430185,-1.230373 -0.123934,-1.752865 L 14.116841,11.748414 C 15.21168,10.699534 16.32505,9.6343542 16.32505,9.6343542 l 1.104103,-0.074366 1.746287,-2.2840339 -1.453362,-1.2110706 -2.253273,1.8272274 0,1.0410959 -2.10681,2.060947 -1.588558,-1.6147638 C 12.533915,7.3875101 11.138615,5.6986506 9.2159724,5.809932 z"
       id="path2140"
       inkscape:connector-curvature="0" />
    <path
       style="opacity:0.6;fill:#ffffff;fill-opacity:1;fill-rule:nonzero;stroke:none;stroke-width:1;marker:none;visibility:visible;display:inline;overflow:visible"
       d="m 9.2159839,7.0821086 c -0.1281782,0.00741 -0.2506771,0.018591 -0.3830581,0.042494 L 8.3710044,7.517669 9.8018337,8.7924796 9.8806957,9.907941 8.8103913,10.821556 7.5372905,10.69408 6.2303929,9.536126 c 0,0 -0.4506548,0.4249381 -0.4506548,0.4249381 -0.2129859,1.9177609 1.9152828,3.6332099 4.1009576,2.4858799 l 1.6561543,1.604138 -0.07887,0.07437 -0.05633,-0.05312 c -0.133574,-0.139952 -0.360735,-0.205323 -0.608381,-0.201845 -0.412746,0.0058 -0.8952793,0.194064 -1.1491703,0.520549 -1.2109131,1.562473 -3.1816441,2.813697 -3.6277705,2.963932 -0.8536901,0.287492 -0.7563197,1.464645 -0.1915289,2.029075 l 0.6534503,0.679898 c 0.4746605,0.498106 1.7925213,0.720465 2.3772046,-0.244338 0.2549261,-0.420666 0.7549612,-1.602109 2.9855838,-3.495106 0.37464,-0.31757 0.764548,-1.042293 0.428124,-1.434161 l -0.05633,-0.05312 c 0.01964,-0.01848 0.04637,-0.04371 0.06759,-0.06374 l 4.438947,4.281242 c 0.277058,0.298567 1.159723,0.529323 1.746287,0 0.566426,-0.511155 0.430185,-1.230374 -0.123934,-1.752867 l -4.224883,-4.28125 c 1.094839,-1.048883 2.20821,-2.11406 2.20821,-2.11406 l 1.104103,-0.07437 1.746287,-2.2840374 -1.453362,-1.2110696 -2.253274,1.8272284 0,1.0410986 -2.106809,2.060944 -1.588558,-1.614762 C 12.533912,8.6596892 11.138611,6.9708291 9.2159693,7.0821111 z"
       id="path3391"
       inkscape:connector-curvature="0" />
    <path
       style="fill:url(#linearGradient3639);fill-opacity:1;fill-rule:nonzero;stroke:none;stroke-width:1;marker:none;visibility:visible;display:inline;overflow:visible"
       d="m 9.2159839,6.4433424 c -0.1281782,0.00741 -0.2506771,0.018591 -0.3830581,0.042494 L 8.3710044,6.8789027 9.8018337,8.153713 9.8806957,9.2691745 8.8103913,10.18279 7.5372905,10.055301 6.2303929,8.8973476 c 0,0 -0.4506548,0.4249361 -0.4506548,0.4249361 -0.2129859,1.9177633 1.9152828,3.6332113 4.1009576,2.4858813 l 1.6561543,1.604137 -0.07887,0.07437 -0.05633,-0.05312 c -0.133574,-0.139952 -0.360735,-0.205321 -0.608381,-0.201845 -0.412746,0.0058 -0.8952793,0.194065 -1.1491703,0.520547 -1.2109131,1.562473 -3.1816441,2.813695 -3.6277705,2.963935 -0.8536901,0.287488 -0.7563197,1.464643 -0.1915289,2.029072 l 0.6534503,0.6799 c 0.4746605,0.498106 1.7925213,0.720465 2.3772046,-0.244337 0.2549261,-0.420667 0.7549612,-1.60211 2.9855838,-3.495108 0.37464,-0.317571 0.764548,-1.042293 0.428124,-1.434162 l -0.05633,-0.05311 c 0.01964,-0.01848 0.04637,-0.04371 0.06759,-0.06374 l 4.438947,4.281239 c 0.277058,0.298567 1.159723,0.529323 1.746287,0 0.566426,-0.511154 0.430185,-1.230371 -0.123934,-1.752863 l -4.224889,-4.281238 c 1.094839,-1.048884 2.20821,-2.114062 2.20821,-2.114062 l 1.104103,-0.07437 1.746287,-2.2840379 -1.453362,-1.2110712 -2.253274,1.8272287 0,1.0410969 -2.106803,2.0609315 -1.588558,-1.614759 C 12.533912,8.0209192 11.138611,6.3320587 9.2159693,6.4433408 z"
       id="path3381"
       inkscape:connector-curvature="0" />
  </g>
</svg>
