<?xml version="1.0" encoding="UTF-8" standalone="no"?>
<!-- Created with Inkscape (http://www.inkscape.org/) -->

<svg
   xmlns:dc="http://purl.org/dc/elements/1.1/"
   xmlns:cc="http://creativecommons.org/ns#"
   xmlns:rdf="http://www.w3.org/1999/02/22-rdf-syntax-ns#"
   xmlns:svg="http://www.w3.org/2000/svg"
   xmlns="http://www.w3.org/2000/svg"
   xmlns:xlink="http://www.w3.org/1999/xlink"
   xmlns:sodipodi="http://sodipodi.sourceforge.net/DTD/sodipodi-0.dtd"
   xmlns:inkscape="http://www.inkscape.org/namespaces/inkscape"
   version="1.0"
   width="32"
   height="32"
   id="svg3518"
   inkscape:version="0.48.4 r9939"
   sodipodi:docname="applications-office.svg">
  <metadata
     id="metadata60">
    <rdf:RDF>
      <cc:Work
         rdf:about="">
        <dc:format>image/svg+xml</dc:format>
        <dc:type
           rdf:resource="http://purl.org/dc/dcmitype/StillImage" />
        <dc:title />
      </cc:Work>
    </rdf:RDF>
  </metadata>
  <sodipodi:namedview
     pagecolor="#ffffff"
     bordercolor="#666666"
     borderopacity="1"
     objecttolerance="10"
     gridtolerance="10"
     guidetolerance="10"
     inkscape:pageopacity="0"
     inkscape:pageshadow="2"
     inkscape:window-width="811"
     inkscape:window-height="393"
     id="namedview58"
     showgrid="false"
     inkscape:zoom="7.90625"
     inkscape:cx="14.602209"
     inkscape:cy="17.169653"
     inkscape:window-x="625"
     inkscape:window-y="157"
     inkscape:window-maximized="0"
     inkscape:current-layer="layer1-6" />
  <defs
     id="defs3520">
    <linearGradient
       x1="25.132275"
       y1="0.98520643"
       x2="25.132275"
       y2="47.013336"
       id="linearGradient2608"
       xlink:href="#linearGradient3600"
       gradientUnits="userSpaceOnUse"
       gradientTransform="matrix(0.4857154,0,0,0.4780255,-0.65717039,1.2940499)" />
    <linearGradient
       id="linearGradient3600">
      <stop
         id="stop3602"
         style="stop-color:#f4f4f4;stop-opacity:1"
         offset="0" />
      <stop
         id="stop3604"
         style="stop-color:#dbdbdb;stop-opacity:1"
         offset="1" />
    </linearGradient>
    <linearGradient
       x1="-51.786404"
       y1="50.786446"
       x2="-51.786404"
       y2="2.9062471"
       id="linearGradient2610"
       xlink:href="#linearGradient3104"
       gradientUnits="userSpaceOnUse"
       gradientTransform="matrix(0.3922135,0,0,0.4473607,28.199292,0.7613003)" />
    <linearGradient
       id="linearGradient3104">
      <stop
         id="stop3106"
         style="stop-color:#aaaaaa;stop-opacity:1"
         offset="0" />
      <stop
         id="stop3108"
         style="stop-color:#c8c8c8;stop-opacity:1"
         offset="1" />
    </linearGradient>
    <linearGradient
       id="linearGradient3522">
      <stop
         id="stop3524"
         style="stop-color:#a3c0d0;stop-opacity:1"
         offset="0" />
      <stop
         id="stop3526"
         style="stop-color:#5a8caa;stop-opacity:1"
         offset="1" />
    </linearGradient>
    <linearGradient
       id="linearGradient6691">
      <stop
         id="stop6693"
         style="stop-color:#517492;stop-opacity:1"
         offset="0" />
      <stop
         id="stop6695"
         style="stop-color:#85a2bb;stop-opacity:1"
         offset="1" />
    </linearGradient>
    <linearGradient
       x1="24"
       y1="1.42496"
       x2="24"
       y2="46.01725"
       id="linearGradient2604"
       xlink:href="#linearGradient3211-3"
       gradientUnits="userSpaceOnUse"
       gradientTransform="matrix(0.4545444,0,0,0.4651153,0.09093361,2.3372293)" />
    <linearGradient
       id="linearGradient3211-3">
      <stop
         id="stop3213-0"
         style="stop-color:#ffffff;stop-opacity:1"
         offset="0" />
      <stop
         id="stop3215-4"
         style="stop-color:#ffffff;stop-opacity:0"
         offset="1" />
    </linearGradient>
    <linearGradient
       id="linearGradient8589-4">
      <stop
         id="stop8591-4"
         style="stop-color:#fefefe;stop-opacity:1"
         offset="0" />
      <stop
         id="stop8593-4"
         style="stop-color:#cbcbcb;stop-opacity:1"
         offset="1" />
    </linearGradient>
    <linearGradient
       x1="19.51465"
       y1="15.538177"
       x2="19.51465"
       y2="46.562195"
       id="linearGradient2792-1-1"
       xlink:href="#linearGradient3522-4-0-5"
       gradientUnits="userSpaceOnUse"
       gradientTransform="matrix(0.52020163,0,0,0.48046041,-0.79910034,1.7859568)" />
    <linearGradient
       id="linearGradient3522-4-0-5">
      <stop
         id="stop3524-2-7-3"
         style="stop-color:#a3c0d0;stop-opacity:1"
         offset="0" />
      <stop
         id="stop3526-2-4-9"
         style="stop-color:#5a8caa;stop-opacity:1"
         offset="1" />
    </linearGradient>
    <linearGradient
       x1="19.51465"
       y1="12.442631"
       x2="19.51465"
       y2="46.562195"
       id="linearGradient2789-8-5"
       xlink:href="#linearGradient3522-4-0-5"
       gradientUnits="userSpaceOnUse"
       gradientTransform="matrix(0.37640395,0,0,0.60919632,2.11501,0.66083768)" />
    <linearGradient
       inkscape:collect="always"
       xlink:href="#linearGradient3522"
       id="linearGradient4601"
       gradientUnits="userSpaceOnUse"
       gradientTransform="matrix(1.1327827,0,0,1.02989,49.05278,-21.878079)"
       x1="-22.539846"
       y1="11.109024"
       x2="-22.539846"
       y2="46.263954" />
    <linearGradient
       inkscape:collect="always"
       xlink:href="#linearGradient6691"
       id="linearGradient4603"
       gradientUnits="userSpaceOnUse"
       gradientTransform="matrix(1.2910574,0,0,1.0025399,-7.9930137,-21.249274)"
       x1="9.4919996"
       y1="46.314064"
       x2="9.4919996"
       y2="1.7164899" />
    <linearGradient
       inkscape:collect="always"
       xlink:href="#linearGradient8589-4"
       id="linearGradient4738"
       gradientUnits="userSpaceOnUse"
       gradientTransform="matrix(0.96608692,0,0,1.1169838,-5.6366015,-20.60771)"
       x1="32.892288"
       y1="8.0590115"
       x2="36.358372"
       y2="5.4565363" />
    <linearGradient
       inkscape:collect="always"
       xlink:href="#linearGradient3211-3"
       id="linearGradient4740"
       gradientUnits="userSpaceOnUse"
       gradientTransform="matrix(0.91897569,0,0,0.94034741,-4.1836101,-19.772003)"
       x1="24"
       y1="1.42496"
       x2="24"
       y2="46.01725" />
    <linearGradient
       inkscape:collect="always"
       xlink:href="#linearGradient3522"
       id="linearGradient4744"
       gradientUnits="userSpaceOnUse"
       gradientTransform="matrix(0.508146,0,0,0.5017146,24.342472,1.4722935)"
       x1="-22.539846"
       y1="11.109024"
       x2="-22.539846"
       y2="46.263954" />
    <linearGradient
       inkscape:collect="always"
       xlink:href="#linearGradient6691"
       id="linearGradient4746"
       gradientUnits="userSpaceOnUse"
       gradientTransform="matrix(0.5791452,0,0,0.4883909,-1.2472472,1.7786185)"
       x1="9.4919996"
       y1="46.314064"
       x2="9.4919996"
       y2="1.7164899" />
    <linearGradient
       id="linearGradient3155-40">
      <stop
         id="stop2541"
         offset="0"
         style="stop-color:#181818;stop-opacity:1;" />
      <stop
         style="stop-color:#dbdbdb;stop-opacity:1;"
         offset="0.13482948"
         id="stop2543" />
      <stop
         id="stop2545"
         offset="0.20224422"
         style="stop-color:#a4a4a4;stop-opacity:1;" />
      <stop
         style="stop-color:#ffffff;stop-opacity:1;"
         offset="0.26965895"
         id="stop2547" />
      <stop
         id="stop2549"
         offset="0.44650277"
         style="stop-color:#8d8d8d;stop-opacity:1;" />
      <stop
         style="stop-color:#959595;stop-opacity:1;"
         offset="0.57114136"
         id="stop2551" />
      <stop
         id="stop2553"
         offset="0.72038066"
         style="stop-color:#cecece;stop-opacity:1;" />
      <stop
         id="stop2555"
         offset="1"
         style="stop-color:#181818;stop-opacity:1;" />
    </linearGradient>
    <linearGradient
       id="linearGradient3240-279">
      <stop
         style="stop-color:#565656;stop-opacity:1;"
         offset="0"
         id="stop2559" />
      <stop
         id="stop2561"
         offset="0.5"
         style="stop-color:#9a9a9a;stop-opacity:1;" />
      <stop
         style="stop-color:#545454;stop-opacity:1;"
         offset="1"
         id="stop2563" />
    </linearGradient>
    <linearGradient
       id="linearGradient3223-789">
      <stop
         id="stop2567"
         offset="0"
         style="stop-color:#b1b1b1;stop-opacity:1;" />
      <stop
         style="stop-color:#ffffff;stop-opacity:1;"
         offset="0.5"
         id="stop2569" />
      <stop
         id="stop2571"
         offset="1"
         style="stop-color:#8f8f8f;stop-opacity:1;" />
    </linearGradient>
    <linearGradient
       id="linearGradient3240-686">
      <stop
         style="stop-color:#565656;stop-opacity:1;"
         offset="0"
         id="stop2575" />
      <stop
         id="stop2577"
         offset="0.5"
         style="stop-color:#9a9a9a;stop-opacity:1;" />
      <stop
         style="stop-color:#545454;stop-opacity:1;"
         offset="1"
         id="stop2579" />
    </linearGradient>
    <linearGradient
       id="linearGradient3223-768">
      <stop
         id="stop2583"
         offset="0"
         style="stop-color:#b1b1b1;stop-opacity:1;" />
      <stop
         style="stop-color:#ffffff;stop-opacity:1;"
         offset="0.5"
         id="stop2585" />
      <stop
         id="stop2587"
         offset="1"
         style="stop-color:#8f8f8f;stop-opacity:1;" />
    </linearGradient>
    <linearGradient
       id="linearGradient3240-907">
      <stop
         style="stop-color:#565656;stop-opacity:1;"
         offset="0"
         id="stop2591" />
      <stop
         id="stop2593"
         offset="0.5"
         style="stop-color:#9a9a9a;stop-opacity:1;" />
      <stop
         style="stop-color:#545454;stop-opacity:1;"
         offset="1"
         id="stop2595" />
    </linearGradient>
    <linearGradient
       id="linearGradient3223-699">
      <stop
         id="stop2599"
         offset="0"
         style="stop-color:#b1b1b1;stop-opacity:1;" />
      <stop
         style="stop-color:#ffffff;stop-opacity:1;"
         offset="0.5"
         id="stop2601" />
      <stop
         id="stop2603"
         offset="1"
         style="stop-color:#8f8f8f;stop-opacity:1;" />
    </linearGradient>
    <linearGradient
       id="linearGradient3290-678">
      <stop
         id="stop2607"
         offset="0"
         style="stop-color:#ece5a5;stop-opacity:1;" />
      <stop
         id="stop2609"
         offset="1"
         style="stop-color:#fcfbf2;stop-opacity:1;" />
    </linearGradient>
    <linearGradient
       id="linearGradient3191-577">
      <stop
         id="stop2613"
         offset="0"
         style="stop-color:#dbce48;stop-opacity:1;" />
      <stop
         id="stop2615"
         offset="1"
         style="stop-color:#c5b625;stop-opacity:1;" />
    </linearGradient>
    <linearGradient
       inkscape:collect="always"
       xlink:href="#linearGradient3155-40"
       id="linearGradient4875"
       gradientUnits="userSpaceOnUse"
       gradientTransform="matrix(0.415777,-0.4174938,0.518983,0.5146192,-15.747227,2.6503673)"
       spreadMethod="pad"
       x1="23.575972"
       y1="25.356892"
       x2="23.575972"
       y2="31.210939" />
    <linearGradient
       inkscape:collect="always"
       xlink:href="#linearGradient3240-279"
       id="linearGradient4877"
       gradientUnits="userSpaceOnUse"
       gradientTransform="matrix(0.4040235,-0.4056919,0.6073752,0.6022679,-17.867764,0.6930272)"
       x1="30.037716"
       y1="24.989594"
       x2="30.037716"
       y2="30.000141" />
    <linearGradient
       inkscape:collect="always"
       xlink:href="#linearGradient3223-789"
       id="linearGradient4879"
       gradientUnits="userSpaceOnUse"
       gradientTransform="matrix(0.4040235,-0.4056919,0.6073752,0.6022679,-17.983472,0.8092126)"
       x1="30.037716"
       y1="24.989594"
       x2="30.037716"
       y2="30.000141" />
    <linearGradient
       inkscape:collect="always"
       xlink:href="#linearGradient3240-686"
       id="linearGradient4881"
       gradientUnits="userSpaceOnUse"
       gradientTransform="matrix(0.4040235,-0.4056919,0.6073752,0.6022679,-17.465684,0.2892868)"
       x1="30.037716"
       y1="24.989594"
       x2="30.037716"
       y2="30.000141" />
    <linearGradient
       inkscape:collect="always"
       xlink:href="#linearGradient3223-768"
       id="linearGradient4883"
       gradientUnits="userSpaceOnUse"
       gradientTransform="matrix(0.4040235,-0.4056919,0.6073752,0.6022679,-17.581392,0.4054707)"
       x1="30.037716"
       y1="24.989594"
       x2="30.037716"
       y2="30.000141" />
    <linearGradient
       inkscape:collect="always"
       xlink:href="#linearGradient3240-907"
       id="linearGradient4885"
       gradientUnits="userSpaceOnUse"
       gradientTransform="matrix(0.4040235,-0.4056919,0.6073752,0.6022679,-17.061661,-0.1164056)"
       x1="30.037716"
       y1="24.989594"
       x2="30.037716"
       y2="30.000141" />
    <linearGradient
       inkscape:collect="always"
       xlink:href="#linearGradient3223-699"
       id="linearGradient4887"
       gradientUnits="userSpaceOnUse"
       gradientTransform="matrix(0.4040235,-0.4056919,0.6073752,0.6022679,-17.177369,-2.1969969e-4)"
       x1="30.037716"
       y1="24.989594"
       x2="30.037716"
       y2="30.000141" />
    <linearGradient
       inkscape:collect="always"
       xlink:href="#linearGradient3290-678"
       id="linearGradient4889"
       gradientUnits="userSpaceOnUse"
       gradientTransform="matrix(0.4040235,-0.4056919,0.6073752,0.602268,-17.636692,0.462492)"
       x1="9"
       y1="29.056757"
       x2="9"
       y2="26.02973" />
    <linearGradient
       inkscape:collect="always"
       xlink:href="#linearGradient3191-577"
       id="linearGradient4891"
       gradientUnits="userSpaceOnUse"
       gradientTransform="matrix(0.3763801,0.03615261,0.03669995,0.374874,-2.2182805,-1.1331002)"
       x1="5.5178981"
       y1="37.371799"
       x2="9.5220556"
       y2="41.391716" />
  </defs>
  <g
     transform="matrix(1.4538945,0,0,1.4538945,-2.9077889,-2.9077893)"
     id="layer1-7">
    <path
       inkscape:connector-curvature="0"
       d="m 2.3439038,2.3439041 c 3.8955799,0 7.7971502,0 11.6927332,0 C 14.720005,2.581201 18.580424,5.628131 19.539099,7.5 c 0,5.729157 0,10.436788 0,16.165946 l -17.1951952,0 c 0,-7.33336 0,-13.988684 0,-21.3220419 z"
       id="path4160-6"
       style="fill:url(#linearGradient2608);fill-opacity:1;stroke:url(#linearGradient2610);stroke-width:0.6878078;stroke-linecap:butt;stroke-linejoin:round;stroke-miterlimit:4;stroke-opacity:1;stroke-dasharray:none;stroke-dashoffset:0;display:inline"
       sodipodi:nodetypes="cccccc" />
    <path
       inkscape:connector-curvature="0"
       d="m 4.9999991,23.505 c -1.1152858,0 -1.2354179,0 -2.350709,0 -0.27108,-0.260377 -0.064947,-0.787387 -0.1293549,-1.156 0,-6.906001 0,-12.8117945 0,-19.7177935 l 0.037805,-0.089429 0.091549,-0.036927 0,0 c 1.160786,0 1.189929,0 2.3507099,0"
       id="path4530"
       style="fill:url(#linearGradient4744);fill-opacity:1;fill-rule:nonzero;stroke:url(#linearGradient4746);stroke-width:1.00969923;stroke-linecap:butt;stroke-linejoin:round;stroke-miterlimit:4;stroke-opacity:1;stroke-dasharray:none;stroke-dashoffset:0;marker:none;visibility:visible;display:block;overflow:visible" />
    <path
       inkscape:connector-curvature="0"
       d="m 18.5,7.6770357 c 0,5.2083053 0,10.6146573 0,15.8229643 -5,0 -9.9999997,0 -15.0000009,0 0,-6.66667 0,-13.333334 0,-20.0000001 3.4372614,0 6.9564989,0 10.3937609,0"
       id="path2435-3"
       style="opacity:0.23999999;fill:none;stroke:url(#linearGradient2604);stroke-width:0.99999988;stroke-linecap:butt;stroke-linejoin:miter;stroke-miterlimit:4;stroke-opacity:1;stroke-dasharray:none;stroke-dashoffset:0;display:inline" />
  </g>
  <g
     transform="matrix(2.1676418,0,0,2.6361724,-4.6459867,-9.5732706)"
     id="layer1-6">
    <path
       inkscape:connector-curvature="0"
       d="m 5.3726528,8.5628962 2.9986504,0 0,5.3363198 -2.9986504,-0.05118 z"
       id="path6928"
       style="fill:url(#linearGradient2792-1-1);fill-opacity:1;stroke:none;display:inline"
       sodipodi:nodetypes="ccccc" />
    <path
       inkscape:connector-curvature="0"
       d="m 8.832634,5.9075311 2.99865,0 0,2.2760272 -2.99865,0 z"
       id="rect3664"
       style="fill:url(#linearGradient2789-8-5);fill-opacity:1;stroke:none;display:inline"
       sodipodi:nodetypes="ccccc" />
    <rect
       width="2.9986503"
       height="2.2760272"
       x="5.3726525"
       y="5.9075313"
       id="rect3775"
       style="fill:#c0d4df;fill-opacity:1;stroke:none;display:inline" />
    <path
       inkscape:connector-curvature="0"
       d="m 12.292615,8.3732273 -6.9199622,0"
       id="path3605"
       style="fill:none;stroke:#6c6c6c;stroke-width:0.41833031;stroke-linecap:butt;stroke-linejoin:miter;stroke-miterlimit:4;stroke-opacity:1;stroke-dasharray:none;display:inline"
       sodipodi:nodetypes="cc" />
    <path
       inkscape:connector-curvature="0"
       d="M 5.4999991,6.1067195 12.334557,6.0876807"
       id="path4743"
       style="opacity:0.2;fill:#ffffff;fill-rule:evenodd;stroke:#ffffff;stroke-width:0.83666062;stroke-linecap:square;stroke-linejoin:round;stroke-miterlimit:4;stroke-opacity:1;stroke-dasharray:none;display:inline"
       sodipodi:nodetypes="cc" />
    <path
       inkscape:connector-curvature="0"
       d="m 8.6019686,5.5693946 0,8.5854754"
       id="path3593"
       style="fill:none;stroke:#6c6c6c;stroke-width:0.41833031;stroke-linecap:butt;stroke-linejoin:miter;stroke-miterlimit:4;stroke-opacity:1;stroke-dasharray:none;display:inline"
       sodipodi:nodetypes="cc" />
    <path
       style="fill:none;stroke:#6c6c6c;stroke-width:0.41833031;stroke-linecap:square;stroke-linejoin:miter;stroke-miterlimit:4;stroke-opacity:1;stroke-dashoffset:0;display:inline"
       d="m 5.1419873,5.7178622 6.9199627,1e-7 0,8.3454327 -6.9199627,0 z"
       id="rect3580"
       inkscape:connector-curvature="0"
       sodipodi:nodetypes="ccccc" />
    <path
       inkscape:connector-curvature="0"
       d="m 11.831284,10.838923 -6.4586312,0"
       id="path3597"
       style="fill:none;stroke:#6c8d9e;stroke-width:0.83666062;stroke-linecap:butt;stroke-linejoin:miter;stroke-miterlimit:4;stroke-opacity:0.76605506;stroke-dasharray:none;display:inline"
       sodipodi:nodetypes="cc" />
    <rect
       width="2.9986503"
       height="2.2760272"
       x="8.832634"
       y="8.5628958"
       id="rect3775-8"
       style="fill:#c0d4df;fill-opacity:1;stroke:none;display:inline" />
  </g>
  <g
     id="g3209"
     transform="matrix(0.71912632,0,0,0.71912632,0.23296287,14.708864)">
    <path
       style="fill:url(#linearGradient4601);fill-opacity:1;fill-rule:nonzero;stroke:url(#linearGradient4603);stroke-width:1.39057612;stroke-linecap:butt;stroke-linejoin:round;stroke-miterlimit:4;stroke-opacity:1;stroke-dasharray:none;stroke-dashoffset:0;marker:none;visibility:visible;display:block;overflow:visible"
       id="path3213"
       d="m 5.9336374,23.349356 c -2.4862466,0 -2.7540508,0 -5.24030914,0 -0.60430387,-0.534487 -0.14478313,-1.616301 -0.28836324,-2.372968 0,-14.1762296 0,-26.2992938 0,-40.47552 l 0.0842784,-0.183574 0.20408597,-0.0758 0,0 c 2.58767761,0 2.65264461,0 5.24031121,0"
       inkscape:connector-curvature="0" />
    <path
       style="opacity:0.23999999;fill:none;stroke:url(#linearGradient4740);stroke-width:1.39057624;stroke-linecap:butt;stroke-linejoin:miter;stroke-miterlimit:4;stroke-opacity:1;stroke-dasharray:none;stroke-dashoffset:0;display:inline"
       id="path3215"
       d="m 33.745166,-8.9762441 c 0,10.5298976 0,20.4051221 0,30.9350231 -10.108755,0 -21.874495,0 -31.9832542,0 0,-13.4783476 0,-26.8483718 0,-40.326712 6.9492874,0 15.0110712,0 21.9603612,0"
       inkscape:connector-curvature="0"
       sodipodi:nodetypes="ccccc" />
    <path
       style="opacity:0.4;fill:#000000;fill-opacity:1;fill-rule:evenodd;stroke:none;display:inline"
       id="path3217"
       d="m 23.021388,-19.063221 c 2.337756,0.664685 -0.267995,9.9603004 -0.267995,9.9603004 0,0 9.653992,-0.8647762 11.862394,2.4159848 3.010697,4.4726333 -0.137917,-1.28416 -0.350666,-1.6612673 -1.528299,-2.7092389 -7.388291,-9.1930769 -9.772075,-9.9898919 -0.178379,-0.05963 -0.573926,-0.725125 -1.471658,-0.725126 z"
       inkscape:connector-curvature="0"
       sodipodi:nodetypes="ccsccc" />
    <path
       style="fill:url(#linearGradient4738);fill-opacity:1;fill-rule:evenodd;stroke:none;display:inline"
       id="path3219"
       d="m 22.869021,-19.063221 c 3.085528,0 1.06804,8.718179 1.06804,8.718179 0,0 10.617732,-0.916379 10.617732,4.0435025 0,-1.2084854 0.112711,-2.9890253 -0.129534,-3.3478837 -1.696467,-2.5130488 -7.140475,-7.8077748 -9.272015,-8.6886718 -0.17383,-0.07184 -1.386492,-0.725125 -2.284223,-0.725126 z"
       inkscape:connector-curvature="0"
       sodipodi:nodetypes="ccccsc" />
    <g
       id="g8626"
       transform="matrix(2.4096356,-0.32199433,0.32277434,2.4154728,5.4817741,-15.15207)">
      <path
         inkscape:connector-curvature="0"
         inkscape:transform-center-y="-8.5737916"
         inkscape:transform-center-x="-9.3983079"
         id="rect2383"
         d="m 2.0488085,11.037368 c 0.2865424,-0.207707 1.1479509,0.256388 1.9603385,1.061945 0.8104458,0.803629 1.2601996,1.641331 1.0575577,1.930575 -7.708e-4,0.0011 0.01977,0.01774 0.01898,0.01882 L 15.224149,3.8683779 C 15.481557,3.6099071 15.011041,2.7247557 14.172862,1.893626 13.334685,1.0624962 12.444681,0.59856571 12.187272,0.85703737 L 2.0488085,11.037368 z"
         style="fill:url(#linearGradient4875);fill-opacity:1;stroke:#0c0c0c;stroke-width:0.48484433;stroke-linecap:butt;stroke-linejoin:round;stroke-miterlimit:4;stroke-opacity:1;stroke-dasharray:none;stroke-dashoffset:0" />
      <path
         inkscape:connector-curvature="0"
         inkscape:transform-center-y="-12.827689"
         inkscape:transform-center-x="-14.039749"
         sodipodi:nodetypes="csscccccc"
         id="rect3175"
         d="m 10.565423,2.4840909 c 0.286542,-0.2077065 1.147951,0.2563879 1.960338,1.0619443 0.810445,0.8036291 1.260199,1.6413295 1.057557,1.9305744 -7.69e-4,0.0011 0.01977,0.017738 0.01898,0.018821 L 15.154234,3.9383089 C 15.562715,3.5297289 15.124956,2.8454879 14.172862,1.893626 13.360476,1.0880699 12.499066,0.6239749 12.212525,0.83168148 l -0.02525,0.0253559 -1.621849,1.62705352 z"
         style="opacity:0.8;fill:#ffb6ed;fill-opacity:1;stroke:#e28ccd;stroke-width:0.48484433;stroke-linecap:butt;stroke-linejoin:round;stroke-miterlimit:4;stroke-opacity:1;stroke-dasharray:none;stroke-dashoffset:0" />
      <path
         inkscape:connector-curvature="0"
         inkscape:transform-center-y="-6.9998429"
         inkscape:transform-center-x="-7.6735182"
         id="path3208"
         d="m 2.0488079,11.037368 c 0.286543,-0.207708 1.1479512,0.256388 1.960339,1.061943 0.8104449,0.80363 1.2601992,1.641332 1.0575579,1.930577 -7.714e-4,0.0011 0.01977,0.01774 0.01898,0.01882 l 6.9820302,-7.0108637 0.02525,-0.025356 c 7.9e-4,-0.00108 -0.01975,-0.01772 -0.01898,-0.01882 C 12.276628,6.7044221 11.826873,5.8667226 11.01643,5.0630931 10.204041,4.2575368 9.3426319,3.7934425 9.0560897,4.0011493 l -0.025251,0.025355 -6.9820304,7.0108637 z"
         style="opacity:0.6;fill:#0c0c0c;fill-opacity:1;stroke:none" />
      <path
         inkscape:connector-curvature="0"
         inkscape:transform-center-y="-10.684694"
         inkscape:transform-center-x="-11.687278"
         id="path3233"
         d="m 9.1785348,3.8767048 c 0.2865413,-0.2077068 1.1479522,0.2563879 1.9603392,1.0619443 0.810445,0.8036291 1.2602,1.6413294 1.057556,1.9305753 -7.71e-4,0.0011 0.01977,0.017736 0.01898,0.01882 l 0.126256,-0.1267795 c 7.9e-4,-0.00108 -0.01975,-0.01772 -0.01898,-0.01882 C 12.525331,6.4531992 12.075576,5.6154986 11.26513,4.8118704 10.452743,4.0063135 9.5913335,3.542219 9.3047918,3.7499256 l -0.126257,0.1267792 z"
         style="fill:url(#linearGradient4877);fill-opacity:1;stroke:none" />
      <path
         inkscape:connector-curvature="0"
         inkscape:transform-center-y="-10.569171"
         inkscape:transform-center-x="-11.561394"
         id="path3216"
         d="m 9.0628273,3.9928895 c 0.2865436,-0.2077068 1.1479527,0.2563878 1.9603397,1.061944 0.810444,0.8036294 1.2602,1.6413292 1.057556,1.9305742 -7.71e-4,0.0011 0.01977,0.017738 0.01898,0.018822 L 12.22596,6.8774498 c 7.9e-4,-0.00108 -0.01975,-0.017721 -0.01898,-0.018821 C 12.409623,6.569384 11.95987,5.7316836 11.149423,4.9280545 10.337036,4.1224982 9.4756273,3.6584033 9.1890844,3.8661101 L 9.0628273,3.9928895 z"
         style="fill:url(#linearGradient4879);fill-opacity:1;stroke:none" />
      <path
         inkscape:connector-curvature="0"
         inkscape:transform-center-y="-11.086128"
         inkscape:transform-center-x="-12.124723"
         id="path3248"
         d="m 9.5806143,3.4729643 c 0.2865426,-0.2077069 1.1479517,0.2563872 1.9603387,1.0619442 0.810446,0.803629 1.2602,1.6413292 1.057558,1.9305747 -7.73e-4,0.0011 0.01977,0.017737 0.01898,0.01882 l 0.126258,-0.1267784 c 7.91e-4,-0.00108 -0.01975,-0.017721 -0.01898,-0.01882 C 12.927411,6.0494594 12.477656,5.2117588 11.66721,4.4081298 10.854824,3.6025731 9.9934151,3.1384786 9.7068717,3.3461854 L 9.5806143,3.4729643 z"
         style="fill:url(#linearGradient4881);fill-opacity:1;stroke:none" />
      <path
         inkscape:connector-curvature="0"
         inkscape:transform-center-y="-10.970607"
         inkscape:transform-center-x="-11.998839"
         id="path3250"
         d="m 9.4649071,3.5891488 c 0.2865435,-0.207707 1.1479529,0.2563877 1.9603379,1.061944 0.810447,0.8036298 1.260201,1.6413294 1.057558,1.9305748 -7.69e-4,0.0011 0.01977,0.017737 0.01898,0.018821 l 0.126257,-0.12678 c 7.9e-4,-0.00108 -0.01975,-0.01772 -0.01898,-0.01882 C 12.811705,6.1656438 12.361949,5.3279425 11.551504,4.5243147 10.739118,3.718758 9.877708,3.254663 9.5911645,3.46237 L 9.4649071,3.5891488 z"
         style="fill:url(#linearGradient4883);fill-opacity:1;stroke:none" />
      <path
         inkscape:connector-curvature="0"
         inkscape:transform-center-y="-11.489504"
         inkscape:transform-center-x="-12.564281"
         id="path3256"
         d="M 9.9846388,3.0672723 C 10.27118,2.8595657 11.13259,3.3236601 11.944976,4.1292168 c 0.810446,0.8036288 1.260201,1.641329 1.057558,1.9305741 -7.7e-4,0.0011 0.01977,0.017738 0.01898,0.018821 L 13.14777,5.9518328 c 7.92e-4,-0.00108 -0.01975,-0.017721 -0.01898,-0.018821 C 13.331434,5.6437674 12.881679,4.8060668 12.071233,4.0024374 11.258848,3.1968815 10.397438,2.7327869 10.110895,2.9404937 L 9.9846388,3.0672723 z"
         style="fill:url(#linearGradient4885);fill-opacity:1;stroke:none" />
      <path
         inkscape:connector-curvature="0"
         inkscape:transform-center-y="-11.373981"
         inkscape:transform-center-x="-12.438397"
         id="path3258"
         d="m 9.8689318,3.1834569 c 0.2865412,-0.2077072 1.1479512,0.2563879 1.9603392,1.0619447 0.810444,0.8036283 1.260198,1.6413291 1.057556,1.9305739 -7.71e-4,0.0011 0.01977,0.017737 0.01898,0.018821 l 0.126258,-0.1267782 c 7.89e-4,-0.00108 -0.01975,-0.017722 -0.01898,-0.018821 C 13.215727,5.7599515 12.765972,4.9222512 11.955527,4.1186224 11.143141,3.313066 10.281731,2.848971 9.9951884,3.0566783 L 9.8689318,3.1834569 z"
         style="fill:url(#linearGradient4887);fill-opacity:1;stroke:none" />
      <path
         inkscape:connector-curvature="0"
         inkscape:transform-center-y="-2.7057213"
         inkscape:transform-center-x="-2.8267936"
         style="fill:url(#linearGradient4889);fill-opacity:1;fill-rule:evenodd;stroke:url(#linearGradient4891);stroke-width:0.48484433;stroke-linecap:butt;stroke-linejoin:miter;stroke-miterlimit:4;stroke-opacity:1;stroke-dasharray:none"
         d="m 0.25980529,15.79419 4.77185621,-1.725488 0.039308,-0.03926 C 5.2736124,13.740202 4.8185731,12.902156 4.0081274,12.098526 3.1957395,11.29297 2.335449,10.831246 2.0489062,11.038953 L 0.25980529,15.79419 z"
         id="path3270"
         sodipodi:nodetypes="cccscc" />
      <path
         inkscape:connector-curvature="0"
         inkscape:transform-center-y="-0.91293426"
         inkscape:transform-center-x="-0.93674026"
         id="path3281"
         d="M 0.7444326,14.506276 0.25922075,15.788967 1.560593,15.315574 C 1.446907,15.182439 1.3413094,15.047739 1.2062351,14.913801 1.0507282,14.759602 0.89915498,14.633134 0.7444326,14.506276 z"
         style="fill:#0c0c0c;fill-opacity:1;fill-rule:evenodd;stroke:#0c0c0c;stroke-width:0.48484433;stroke-linecap:butt;stroke-linejoin:miter;stroke-miterlimit:4;stroke-opacity:1;stroke-dasharray:none" />
    </g>
  </g>
</svg>
