<?xml version="1.0" encoding="UTF-8" standalone="no"?>
<!-- Created with Inkscape (http://www.inkscape.org/) -->

<svg
   xmlns:dc="http://purl.org/dc/elements/1.1/"
   xmlns:cc="http://creativecommons.org/ns#"
   xmlns:rdf="http://www.w3.org/1999/02/22-rdf-syntax-ns#"
   xmlns:svg="http://www.w3.org/2000/svg"
   xmlns="http://www.w3.org/2000/svg"
   xmlns:xlink="http://www.w3.org/1999/xlink"
   xmlns:sodipodi="http://sodipodi.sourceforge.net/DTD/sodipodi-0.dtd"
   xmlns:inkscape="http://www.inkscape.org/namespaces/inkscape"
   version="1.0"
   width="128"
   height="128"
   id="svg3367"
   inkscape:version="0.48.4 r9939"
   sodipodi:docname="avidemux.svg">
  <metadata
     id="metadata87">
    <rdf:RDF>
      <cc:Work
         rdf:about="">
        <dc:format>image/svg+xml</dc:format>
        <dc:type
           rdf:resource="http://purl.org/dc/dcmitype/StillImage" />
        <dc:title />
      </cc:Work>
    </rdf:RDF>
  </metadata>
  <sodipodi:namedview
     pagecolor="#ffffff"
     bordercolor="#666666"
     borderopacity="1"
     objecttolerance="10"
     gridtolerance="10"
     guidetolerance="10"
     inkscape:pageopacity="0"
     inkscape:pageshadow="2"
     inkscape:window-width="972"
     inkscape:window-height="675"
     id="namedview85"
     showgrid="false"
     inkscape:zoom="3.6875"
     inkscape:cx="56.913002"
     inkscape:cy="66.503671"
     inkscape:window-x="261"
     inkscape:window-y="198"
     inkscape:window-maximized="0"
     inkscape:current-layer="svg3367" />
  <defs
     id="defs3369">
    <linearGradient
       id="linearGradient23419">
      <stop
         id="stop23421"
         style="stop-color:#000000;stop-opacity:1"
         offset="0" />
      <stop
         id="stop23423"
         style="stop-color:#000000;stop-opacity:0"
         offset="1" />
    </linearGradient>
    <linearGradient
       id="linearGradient3772">
      <stop
         id="stop3774"
         style="stop-color:#b4b4b4;stop-opacity:1"
         offset="0" />
      <stop
         id="stop3776"
         style="stop-color:#969696;stop-opacity:1"
         offset="1" />
    </linearGradient>
    <linearGradient
       x1="12.2744"
       y1="32.4165"
       x2="35.391201"
       y2="14.2033"
       id="linearGradient3263"
       gradientUnits="userSpaceOnUse">
      <stop
         id="stop3265"
         style="stop-color:#dedbde;stop-opacity:1"
         offset="0" />
      <stop
         id="stop3267"
         style="stop-color:#e6e6e6;stop-opacity:1"
         offset="0.5" />
      <stop
         id="stop3269"
         style="stop-color:#d2d2d2;stop-opacity:1"
         offset="1" />
    </linearGradient>
    <linearGradient
       id="linearGradient3428">
      <stop
         id="stop3430"
         style="stop-color:#aaaaaa;stop-opacity:1"
         offset="0" />
      <stop
         id="stop3432"
         style="stop-color:#d4d4d4;stop-opacity:1"
         offset="1" />
    </linearGradient>
    <linearGradient
       id="linearGradient6036">
      <stop
         id="stop6038"
         style="stop-color:#ffffff;stop-opacity:1"
         offset="0" />
      <stop
         id="stop6040"
         style="stop-color:#ffffff;stop-opacity:0"
         offset="1" />
    </linearGradient>
    <linearGradient
       id="linearGradient3519">
      <stop
         id="stop3521"
         style="stop-color:#fcd9cd;stop-opacity:1"
         offset="0" />
      <stop
         id="stop3523"
         style="stop-color:#fcd9cd;stop-opacity:0"
         offset="1" />
    </linearGradient>
    <linearGradient
       id="linearGradient3511">
      <stop
         id="stop3513"
         style="stop-color:#ebeec7;stop-opacity:1"
         offset="0" />
      <stop
         id="stop3515"
         style="stop-color:#ebeec7;stop-opacity:0"
         offset="1" />
    </linearGradient>
    <linearGradient
       id="linearGradient3503">
      <stop
         id="stop3505"
         style="stop-color:#c4ebdd;stop-opacity:1"
         offset="0" />
      <stop
         id="stop3507"
         style="stop-color:#c4ebdd;stop-opacity:0"
         offset="1" />
    </linearGradient>
    <linearGradient
       id="linearGradient3495">
      <stop
         id="stop3497"
         style="stop-color:#c1cbe4;stop-opacity:1"
         offset="0" />
      <stop
         id="stop3499"
         style="stop-color:#c1cbe4;stop-opacity:0"
         offset="1" />
    </linearGradient>
    <linearGradient
       id="linearGradient3487">
      <stop
         id="stop3489"
         style="stop-color:#e6cde2;stop-opacity:1"
         offset="0" />
      <stop
         id="stop3491"
         style="stop-color:#e6cde2;stop-opacity:0"
         offset="1" />
    </linearGradient>
    <radialGradient
       cx="23.334524"
       cy="41.63604"
       r="22.627417"
       fx="23.334524"
       fy="41.63604"
       id="radialGradient2584"
       xlink:href="#linearGradient23419"
       gradientUnits="userSpaceOnUse"
       gradientTransform="matrix(2.6516504,0,0,0.7954211,2.1249955,72.881817)" />
    <linearGradient
       x1="10.50172"
       y1="3.6100161"
       x2="48.798885"
       y2="54.698483"
       id="linearGradient2642"
       xlink:href="#linearGradient6036"
       gradientUnits="userSpaceOnUse"
       gradientTransform="matrix(2.7528548,0,0,2.7528545,-3.0237572,-4.8213527)" />
    <linearGradient
       x1="18.775953"
       y1="4.0378027"
       x2="18.203465"
       y2="45.962208"
       id="linearGradient2651"
       xlink:href="#linearGradient6036"
       gradientUnits="userSpaceOnUse"
       gradientTransform="matrix(1.0859888,0,0,1.0859883,37.559418,36.850296)" />
    <linearGradient
       x1="21.448364"
       y1="15.5"
       x2="21.448364"
       y2="32.509201"
       id="linearGradient2654"
       xlink:href="#linearGradient3428"
       gradientUnits="userSpaceOnUse"
       gradientTransform="matrix(2.5381093,0,0,2.5381093,3.0853666,3.0853861)" />
    <linearGradient
       x1="12.2744"
       y1="32.4165"
       x2="35.391201"
       y2="14.2033"
       id="linearGradient2658"
       xlink:href="#linearGradient3263"
       gradientUnits="userSpaceOnUse"
       gradientTransform="matrix(0,3.1714559,-3.1714559,0,137.26064,-12.114951)" />
    <linearGradient
       x1="-21.915663"
       y1="3"
       x2="-21.915663"
       y2="45.032898"
       id="linearGradient2660"
       xlink:href="#linearGradient3772"
       gradientUnits="userSpaceOnUse"
       gradientTransform="matrix(2.7073165,0,0,2.7073165,135.10782,-0.9755887)" />
    <linearGradient
       x1="20.580074"
       y1="10.774516"
       x2="24.27351"
       y2="9.8622112"
       id="linearGradient2672"
       xlink:href="#linearGradient3487"
       gradientUnits="userSpaceOnUse"
       spreadMethod="reflect" />
    <linearGradient
       x1="17.494959"
       y1="11.200086"
       x2="21.047453"
       y2="9.7956104"
       id="linearGradient2674"
       xlink:href="#linearGradient3495"
       gradientUnits="userSpaceOnUse"
       spreadMethod="reflect" />
    <linearGradient
       x1="14.084608"
       y1="13.045606"
       x2="16.994024"
       y2="10.732353"
       id="linearGradient2676"
       xlink:href="#linearGradient3503"
       gradientUnits="userSpaceOnUse"
       spreadMethod="reflect" />
    <linearGradient
       x1="12.371647"
       y1="16.188046"
       x2="14.609327"
       y2="13.461712"
       id="linearGradient2678"
       xlink:href="#linearGradient3511"
       gradientUnits="userSpaceOnUse"
       spreadMethod="reflect" />
    <linearGradient
       x1="10.609375"
       y1="17.886322"
       x2="9.7297754"
       y2="20.612656"
       id="linearGradient2680"
       xlink:href="#linearGradient3519"
       gradientUnits="userSpaceOnUse"
       spreadMethod="reflect" />
    <linearGradient
       x1="20.580074"
       y1="10.774516"
       x2="24.27351"
       y2="9.8622112"
       id="linearGradient2682"
       xlink:href="#linearGradient3487"
       gradientUnits="userSpaceOnUse"
       spreadMethod="reflect" />
    <linearGradient
       x1="17.494959"
       y1="11.200086"
       x2="21.047453"
       y2="9.7956104"
       id="linearGradient2684"
       xlink:href="#linearGradient3495"
       gradientUnits="userSpaceOnUse"
       spreadMethod="reflect" />
    <linearGradient
       x1="14.084608"
       y1="13.045606"
       x2="16.994024"
       y2="10.732353"
       id="linearGradient2686"
       xlink:href="#linearGradient3503"
       gradientUnits="userSpaceOnUse"
       spreadMethod="reflect" />
    <linearGradient
       x1="12.371647"
       y1="16.188046"
       x2="14.609327"
       y2="13.461712"
       id="linearGradient2688"
       xlink:href="#linearGradient3511"
       gradientUnits="userSpaceOnUse"
       spreadMethod="reflect" />
    <linearGradient
       x1="10.609375"
       y1="17.886322"
       x2="9.7297754"
       y2="20.612656"
       id="linearGradient2690"
       xlink:href="#linearGradient3519"
       gradientUnits="userSpaceOnUse"
       spreadMethod="reflect" />
    <linearGradient
       id="linearGradient3211">
      <stop
         id="stop3213"
         style="stop-color:#ffffff;stop-opacity:1"
         offset="0" />
      <stop
         id="stop3215"
         style="stop-color:#ffffff;stop-opacity:0"
         offset="1" />
    </linearGradient>
    <linearGradient
       id="linearGradient3932-1">
      <stop
         id="stop3934-4"
         style="stop-color:#828282;stop-opacity:1"
         offset="0" />
      <stop
         id="stop3936-9"
         style="stop-color:#434343;stop-opacity:1"
         offset="1" />
    </linearGradient>
    <linearGradient
       id="linearGradient3582-0">
      <stop
         id="stop3584-7"
         style="stop-color:#333333;stop-opacity:1"
         offset="0" />
      <stop
         id="stop3586-5"
         style="stop-color:#5a5a5a;stop-opacity:1"
         offset="1" />
    </linearGradient>
    <linearGradient
       id="linearGradient3932">
      <stop
         id="stop3934"
         style="stop-color:#828282;stop-opacity:1"
         offset="0" />
      <stop
         id="stop3936"
         style="stop-color:#434343;stop-opacity:1"
         offset="1" />
    </linearGradient>
    <linearGradient
       id="linearGradient3582">
      <stop
         id="stop3584"
         style="stop-color:#333333;stop-opacity:1"
         offset="0" />
      <stop
         id="stop3586"
         style="stop-color:#5a5a5a;stop-opacity:1"
         offset="1" />
    </linearGradient>
    <radialGradient
       cx="102"
       cy="112.3047"
       r="139.55859"
       id="XMLID_8_"
       gradientUnits="userSpaceOnUse">
      <stop
         id="stop41"
         style="stop-color:#000000;stop-opacity:1"
         offset="0" />
      <stop
         id="stop47"
         style="stop-color:#000000;stop-opacity:1"
         offset="0.18851049" />
      <stop
         id="stop49"
         style="stop-color:#000000;stop-opacity:0"
         offset="0.25718147" />
      <stop
         id="stop51"
         style="stop-color:#000000;stop-opacity:0"
         offset="1" />
    </radialGradient>
    <linearGradient
       id="linearGradient3993">
      <stop
         id="stop3995"
         style="stop-color:#a3c0d0;stop-opacity:1"
         offset="0" />
      <stop
         id="stop4001"
         style="stop-color:#427da1;stop-opacity:1"
         offset="1" />
    </linearGradient>
    <linearGradient
       id="linearGradient2490-5">
      <stop
         id="stop2492-5"
         style="stop-color:#2e4a5a;stop-opacity:1"
         offset="0" />
      <stop
         id="stop2494-2"
         style="stop-color:#6e8796;stop-opacity:1"
         offset="1" />
    </linearGradient>
    <linearGradient
       id="linearGradient5060">
      <stop
         id="stop5062"
         style="stop-color:#000000;stop-opacity:1"
         offset="0" />
      <stop
         id="stop5064"
         style="stop-color:#000000;stop-opacity:0"
         offset="1" />
    </linearGradient>
    <linearGradient
       id="linearGradient5048">
      <stop
         id="stop5050"
         style="stop-color:#000000;stop-opacity:0"
         offset="0" />
      <stop
         id="stop5056"
         style="stop-color:#000000;stop-opacity:1"
         offset="0.5" />
      <stop
         id="stop5052"
         style="stop-color:#000000;stop-opacity:0"
         offset="1" />
    </linearGradient>
    <linearGradient
       inkscape:collect="always"
       xlink:href="#linearGradient5048"
       id="linearGradient3569"
       gradientUnits="userSpaceOnUse"
       gradientTransform="matrix(0.10238422,0,0,0.02235534,58.914731,111.3743)"
       x1="302.85715"
       y1="366.64789"
       x2="302.85715"
       y2="609.50507" />
    <radialGradient
       inkscape:collect="always"
       xlink:href="#linearGradient5060"
       id="radialGradient3571"
       gradientUnits="userSpaceOnUse"
       gradientTransform="matrix(-0.03503796,0,0,0.02235534,92.316831,111.37435)"
       cx="605.71429"
       cy="486.64789"
       fx="605.71429"
       fy="486.64789"
       r="117.14286" />
    <radialGradient
       inkscape:collect="always"
       xlink:href="#linearGradient5060"
       id="radialGradient3573"
       gradientUnits="userSpaceOnUse"
       gradientTransform="matrix(0.03503797,0,0,0.02235534,99.521788,111.37435)"
       cx="605.71429"
       cy="486.64789"
       fx="605.71429"
       fy="486.64789"
       r="117.14286" />
    <radialGradient
       inkscape:collect="always"
       xlink:href="#linearGradient3993"
       id="radialGradient3575"
       gradientUnits="userSpaceOnUse"
       gradientTransform="matrix(-3.4525771e-8,3.2479058,-5.4140717,-5.7552469e-8,142.49775,17.881059)"
       cx="14.76559"
       cy="10.898237"
       fx="14.76559"
       fy="10.898237"
       r="18.000002" />
    <linearGradient
       inkscape:collect="always"
       xlink:href="#linearGradient2490-5"
       id="linearGradient3577"
       gradientUnits="userSpaceOnUse"
       gradientTransform="matrix(1.2279996,0,0,1.3608148,149.78154,50.512883)"
       x1="-51.786404"
       y1="53.623615"
       x2="-51.786404"
       y2="2.9062471" />
    <radialGradient
       inkscape:collect="always"
       xlink:href="#XMLID_8_"
       id="radialGradient3579"
       gradientUnits="userSpaceOnUse"
       gradientTransform="matrix(0.55005812,0,0,-0.59427571,60.727771,127.30697)"
       cx="102"
       cy="112.3047"
       r="139.55859" />
    <linearGradient
       inkscape:collect="always"
       xlink:href="#linearGradient3932"
       id="linearGradient3581"
       gradientUnits="userSpaceOnUse"
       gradientTransform="matrix(1.3343153,0,0,1.5275609,126.64045,52.641865)"
       x1="-22.539846"
       y1="11.109024"
       x2="-22.539846"
       y2="46.263954" />
    <linearGradient
       inkscape:collect="always"
       xlink:href="#linearGradient3582"
       id="linearGradient3583"
       gradientUnits="userSpaceOnUse"
       gradientTransform="matrix(1.4269464,0,0,1.4719916,60.265691,54.042393)"
       x1="16.745687"
       y1="46.132927"
       x2="16.745687"
       y2="1.4097958" />
    <linearGradient
       inkscape:collect="always"
       xlink:href="#linearGradient3932-1"
       id="linearGradient3585"
       gradientUnits="userSpaceOnUse"
       gradientTransform="matrix(-1.3343153,0,0,1.5275609,65.222521,52.641864)"
       x1="-22.539846"
       y1="11.109024"
       x2="-22.539846"
       y2="46.263954" />
    <linearGradient
       inkscape:collect="always"
       xlink:href="#linearGradient3582-0"
       id="linearGradient3587"
       gradientUnits="userSpaceOnUse"
       gradientTransform="matrix(-1.4269464,0,0,1.4719916,131.59727,54.042391)"
       x1="16.745687"
       y1="46.132927"
       x2="16.745687"
       y2="1.4097958" />
    <linearGradient
       inkscape:collect="always"
       xlink:href="#linearGradient3211"
       id="linearGradient3589"
       gradientUnits="userSpaceOnUse"
       gradientTransform="matrix(1.5207486,0,0,1.4869542,59.433521,53.575494)"
       x1="24"
       y1="1.9999999"
       x2="24"
       y2="46.01725" />
  </defs>
  <path
     d="M 124,105.99999 C 124.00309,115.94084 97.139272,124 64,124 C 30.860727,124 3.9969077,115.94084 3.999998,105.99999 C 3.9969077,96.059149 30.860727,88 64,88 C 97.139272,88 124.00309,96.059149 124,105.99999 L 124,105.99999 z"
     id="path23417"
     style="opacity:0.3;fill:url(#radialGradient2584);fill-opacity:1;fill-rule:evenodd;stroke:none;stroke-width:2;marker:none;visibility:visible;display:inline;overflow:visible" />
  <path
     d="M 119.49998,64.000008 C 119.49998,33.236876 94.763115,8.5000192 63.999988,8.5000192 C 33.236854,8.5000192 8.5,33.236878 8.5,64.000008 C 8.4999946,94.763138 33.236857,119.5 63.999988,119.5 C 94.763112,119.49999 119.49998,94.76314 119.49998,64.000008 z M 84.304862,64.000008 C 84.304862,75.176162 75.399768,84.304882 63.999988,84.304882 C 52.376585,84.304882 43.695114,74.950256 43.695114,64.000008 C 43.695114,52.826093 51.929329,43.695134 63.999988,43.695134 C 76.070648,43.695134 84.304862,53.047477 84.304862,64.000008 L 84.304862,64.000008 z"
     id="path2781"
     style="fill:url(#linearGradient2658);fill-rule:nonzero;stroke:url(#linearGradient2660);stroke-width:1;stroke-miterlimit:4;stroke-opacity:1" />
  <path
     d="M 63.999988,43.000008 C 52.407988,43.000008 42.999988,52.408008 42.999988,64.000008 C 42.999988,75.592009 52.407988,85.000008 63.999988,85.000008 C 75.591988,85.000008 84.999988,75.592009 84.999988,64.000008 C 84.999988,52.408008 75.591988,43.000008 63.999988,43.000008 L 63.999988,43.000008 z M 63.999988,53.500009 C 69.795988,53.500009 74.499988,58.204008 74.499988,64.000008 C 74.499988,69.796008 69.795988,74.500008 63.999988,74.500008 C 58.203988,74.500008 53.499988,69.796008 53.499988,64.000008 C 53.499988,58.204008 58.203988,53.500009 63.999988,53.500009 L 63.999988,53.500009 z"
     id="path2474"
     style="opacity:0.5;fill:#ffffff;fill-opacity:1;fill-rule:nonzero;stroke:none;stroke-width:1;marker:none;visibility:visible;display:inline;overflow:visible;enable-background:accumulate" />
  <path
     d="M 63.999988,43.695134 C 52.791698,43.695134 43.695114,52.791718 43.695114,64.000008 C 43.695114,75.208298 52.791698,84.304882 63.999988,84.304882 C 75.208278,84.304882 84.304862,75.208298 84.304862,64.000008 C 84.304862,52.791718 75.208278,43.695134 63.999988,43.695134 L 63.999988,43.695134 z M 63.999988,53.84757 C 69.604133,53.84757 74.152425,58.395863 74.152425,64.000008 C 74.152425,69.604153 69.604133,74.152444 63.999988,74.152444 C 58.395843,74.152444 53.847551,69.604153 53.847551,64.000008 C 53.847551,58.395863 58.395843,53.84757 63.999988,53.84757 L 63.999988,53.84757 z"
     id="path3418"
     style="fill:none;stroke:url(#linearGradient2654);stroke-width:1;stroke-linecap:butt;stroke-linejoin:round;marker:none;stroke-miterlimit:4;stroke-dasharray:none;stroke-dashoffset:0;stroke-opacity:1;visibility:visible;display:inline;overflow:visible;enable-background:accumulate" />
  <g
     transform="matrix(2.7320403,0,0,2.7320403,-1.0900842,-1.0742573)"
     id="g3527">
    <path
       d="M 15.856928,5.7307748 L 20.625,16.34375 C 21.660403,15.885186 22.795334,15.625 24,15.625 C 24.03206,15.625 24.06178,15.62464 24.09375,15.625 L 24.10801,4.0047512 C 21.16586,3.9340642 18.564969,4.6620377 15.856927,5.7307748 L 15.856928,5.7307748 z"
       transform="matrix(0.9996011,2.824295e-2,-2.824295e-2,0.9996011,0.6924114,-0.6708346)"
       id="path3296"
       style="opacity:0.8;fill:url(#linearGradient2672);fill-opacity:1;fill-rule:nonzero;stroke:none" />
    <path
       d="M 12.121471,7.9060109 L 19.052497,17.266115 C 19.965606,16.59636 21.018435,16.099051 22.195126,15.840946 C 22.226446,15.834046 22.255386,15.827356 22.286696,15.820856 L 19.857174,4.426276 C 16.968201,4.9876004 14.537644,6.2818798 12.121471,7.9060109 L 12.121471,7.9060109 z"
       id="path3308"
       style="opacity:0.8;fill:url(#linearGradient2674);fill-opacity:1;fill-rule:nonzero;stroke:none" />
    <path
       d="M 8.2523933,11.646535 L 17.466117,18.802353 C 18.174767,17.919089 19.063008,17.166234 20.132802,16.612373 C 20.161272,16.597633 20.187492,16.583653 20.216052,16.569273 L 14.86585,6.2506132 C 12.220599,7.5405321 10.165881,9.452393 8.2523933,11.646535 z"
       id="path3310"
       style="opacity:0.8;fill:url(#linearGradient2676);fill-opacity:1;fill-rule:nonzero;stroke:none" />
    <path
       d="M 5.6328855,16.073974 C 12.807692,18.316222 13.483148,23.105437 18.409671,17.828101 L 10.499985,9.1321388 C 8.2787249,11.062747 6.9132871,13.459349 5.6328855,16.073974 z"
       id="path3312"
       style="opacity:0.8;fill:url(#linearGradient2678);fill-opacity:1;fill-rule:nonzero;stroke:none" />
    <path
       d="M 7.155289,13.193173 C 5.9722117,14.945185 5.2475768,16.829547 4.6301929,18.837116 L 15.96875,21.8125 C 16.184264,21.049497 16.486796,20.297733 16.9375,19.59375 C 16.95479,19.56675 16.98246,19.52673 17,19.5 L 7.155289,13.193173 z"
       id="path3314"
       style="opacity:0.8;fill:url(#linearGradient2680);fill-opacity:1;fill-rule:nonzero;stroke:none" />
  </g>
  <path
     d="M 64.000005,9.5000009 C 33.791433,9.5000009 9.5,33.791433 9.5,64.000001 C 9.5,94.208571 33.791433,118.5 64.000005,118.5 C 94.208577,118.5 118.5,94.208571 118.5,64.000001 C 118.5,33.791433 94.208577,9.5000009 64.000005,9.5000009 L 64.000005,9.5000009 L 64.000005,9.5000009 z"
     id="path3272"
     style="opacity:0.5;fill:none;stroke:url(#linearGradient2642);stroke-width:0.99999994;stroke-miterlimit:4;stroke-opacity:1" />
  <g
     transform="matrix(-2.7073165,0,0,-2.7073165,131.97534,130.05443)"
     id="g3297">
    <path
       d="M 15.856928,5.7307748 20.625,16.34375 C 21.660403,15.885186 22.795334,15.625 24,15.625 c 0.03206,0 0.06178,-3.6e-4 0.09375,0 L 24.10801,4.0047512 c -2.94215,-0.070687 -5.543041,0.6572865 -8.251083,1.7260236 l 10e-7,0 z"
       transform="matrix(0.9996011,0.02824295,-0.02824295,0.9996011,0.6924114,-0.6708346)"
       id="path3299"
       style="opacity:0.8;fill:url(#linearGradient2682);fill-opacity:1;fill-rule:nonzero;stroke:none"
       inkscape:connector-curvature="0" />
    <path
       d="m 12.121471,7.9060109 6.931026,9.3601041 c 0.913109,-0.669755 1.965938,-1.167064 3.142629,-1.425169 0.03132,-0.0069 0.06026,-0.01359 0.09157,-0.02009 L 19.857174,4.426276 c -2.888973,0.5613244 -5.31953,1.8556038 -7.735703,3.4797349 l 0,0 z"
       id="path3301"
       style="opacity:0.8;fill:url(#linearGradient2684);fill-opacity:1;fill-rule:nonzero;stroke:none"
       inkscape:connector-curvature="0" />
    <path
       d="m 8.2523933,11.646535 9.2137237,7.155818 c 0.70865,-0.883264 1.596891,-1.636119 2.666685,-2.18998 0.02847,-0.01474 0.05469,-0.02872 0.08325,-0.0431 L 14.86585,6.2506132 C 12.220599,7.5405321 10.165881,9.452393 8.2523933,11.646535 z"
       id="path3303"
       style="opacity:0.8;fill:url(#linearGradient2686);fill-opacity:1;fill-rule:nonzero;stroke:none"
       inkscape:connector-curvature="0" />
    <path
       d="m 5.6328855,16.073974 c 7.1748065,2.242248 7.8502625,7.031463 12.7767855,1.754127 L 10.499985,9.1321388 C 8.2787249,11.062747 6.9132871,13.459349 5.6328855,16.073974 z"
       id="path3305"
       style="opacity:0.8;fill:url(#linearGradient2688);fill-opacity:1;fill-rule:nonzero;stroke:none"
       inkscape:connector-curvature="0" />
    <path
       d="M 7.155289,13.193173 C 5.9722117,14.945185 5.2475768,16.829547 4.6301929,18.837116 L 15.96875,21.8125 C 16.184264,21.049497 16.486796,20.297733 16.9375,19.59375 16.95479,19.56675 16.98246,19.52673 17,19.5 L 7.155289,13.193173 z"
       id="path3307"
       style="opacity:0.8;fill:url(#linearGradient2690);fill-opacity:1;fill-rule:nonzero;stroke:none"
       inkscape:connector-curvature="0" />
  </g>
  <path
     d="M 63.99999,42.500008 C 52.082843,42.500008 42.499987,52.082863 42.499987,64.000008 C 42.499987,75.917153 52.082843,85.500008 63.99999,85.500008 C 75.917134,85.500008 85.499989,75.917153 85.499989,64.000008 C 85.499989,52.082863 75.917134,42.500008 63.99999,42.500008 L 63.99999,42.500008 L 63.99999,42.500008 L 63.99999,42.500008 z"
     id="path3281"
     style="opacity:0.8;fill:none;stroke:url(#linearGradient2651);stroke-width:1;stroke-miterlimit:4;stroke-opacity:1" />
  <rect
     width="49.436954"
     height="5.429153"
     x="71.200836"
     y="119.57085"
     id="rect2879"
     style="opacity:0.3;fill:url(#linearGradient3569);fill-opacity:1;fill-rule:nonzero;stroke:none;stroke-width:1;marker:none;visibility:visible;display:inline;overflow:visible" />
  <path
     inkscape:connector-curvature="0"
     d="m 71.200841,119.57107 c 0,0 0,5.42885 0,5.42885 -1.80436,0.0102 -4.36208,-1.21633 -4.36208,-2.71477 0,-1.49845 2.01353,-2.71408 4.36208,-2.71408 z"
     id="path2881"
     style="opacity:0.3;fill:url(#radialGradient3571);fill-opacity:1;fill-rule:nonzero;stroke:none;stroke-width:1;marker:none;visibility:visible;display:inline;overflow:visible" />
  <path
     inkscape:connector-curvature="0"
     d="m 120.6378,119.57107 c 0,0 0,5.42885 0,5.42885 1.80437,0.0102 4.36208,-1.21633 4.36208,-2.71477 0,-1.49845 -2.01355,-2.71408 -4.36208,-2.71408 z"
     id="path2883"
     style="opacity:0.3;fill:url(#radialGradient3573);fill-opacity:1;fill-rule:nonzero;stroke:none;stroke-width:1;marker:none;visibility:visible;display:inline;overflow:visible" />
  <path
     d="m 69.318331,55.801669 53.226319,-0.04136 c 0,0 0,49.535451 0,66.962821 -17.7421,0 -35.484219,0 -53.226319,0 0,-22.30715 0,-66.921458 0,-66.921458 z"
     id="path4160"
     style="fill:url(#radialGradient3575);fill-opacity:1;stroke:url(#linearGradient3577);stroke-width:1.52062976;stroke-linecap:butt;stroke-linejoin:round;stroke-miterlimit:4;stroke-opacity:1;stroke-dasharray:none;stroke-dashoffset:0;display:inline"
     inkscape:connector-curvature="0"
     sodipodi:nodetypes="ccccc" />
  <path
     d="m 70.628821,121.95849 c -0.30309,0 -0.55006,-0.26683 -0.55006,-0.59428 l 0,-64.181746 c 0,-0.328039 0.24697,-0.594273 0.55006,-0.594273 11.69305,0 51.155389,-5.98e-4 51.155389,-5.98e-4 0,0 -0.0541,43.209624 0,64.776617 0,0.32745 -0.24642,0.59428 -0.55005,0.59428 z"
     id="path4191"
     style="opacity:0.05;fill:url(#radialGradient3579);fill-opacity:1"
     inkscape:connector-curvature="0"
     sodipodi:nodetypes="ssscccss" />
  <path
     inkscape:connector-curvature="0"
     d="M 79.935491,89.29053 114.96898,89.23402"
     id="path3460"
     style="fill:none;stroke:#464646;stroke-width:1.46448088;stroke-linecap:square;stroke-linejoin:round;stroke-miterlimit:4;stroke-opacity:1;stroke-dasharray:none" />
  <path
     inkscape:connector-curvature="0"
     d="M 79.935491,90.81128 114.96898,90.75477"
     id="path4720"
     style="opacity:0.3;fill:#ffffff;fill-rule:evenodd;stroke:#ffffff;stroke-width:1.46448088;stroke-linecap:square;stroke-linejoin:round;stroke-miterlimit:4;stroke-opacity:1;stroke-dasharray:none" />
  <path
     inkscape:connector-curvature="0"
     d="m 78.343661,55.785671 c 0,3.969975 0.11954,63.745509 0.11954,66.953449 -2.92859,0 -5.85715,0 -8.78573,0 -0.71182,-0.79276 -0.17054,-2.36672 -0.33968,-3.48903 0,-21.026567 0,-42.053137 0,-63.079704 l 0.0993,-0.272282 0.2404,-0.112429 0,0 c 3.04805,0 5.6182,0 8.66626,0 z"
     id="path3489"
     style="fill:url(#linearGradient3581);fill-opacity:1;fill-rule:nonzero;stroke:url(#linearGradient3583);stroke-width:1.48023295;stroke-linecap:butt;stroke-linejoin:round;stroke-miterlimit:4;stroke-opacity:1;stroke-dasharray:none;stroke-dashoffset:0;marker:none;visibility:visible;display:block;overflow:visible" />
  <rect
     width="4.5622458"
     height="3.0414972"
     x="71.599518"
     y="61.128551"
     id="rect3464"
     style="fill:#ffffff;fill-opacity:1;stroke:none" />
  <rect
     width="4.5622458"
     height="3.0414972"
     x="71.599518"
     y="67.211548"
     id="rect3466"
     style="fill:#ffffff;fill-opacity:1;stroke:none" />
  <rect
     width="4.5622458"
     height="3.0414972"
     x="71.599518"
     y="73.29454"
     id="rect3468"
     style="fill:#ffffff;fill-opacity:1;stroke:none" />
  <rect
     width="4.5622458"
     height="3.0414972"
     x="71.599518"
     y="79.377541"
     id="rect3470"
     style="fill:#ffffff;fill-opacity:1;stroke:none" />
  <rect
     width="4.5622458"
     height="3.0414972"
     x="71.599518"
     y="85.460533"
     id="rect3472"
     style="fill:#ffffff;fill-opacity:1;stroke:none" />
  <rect
     width="4.5622458"
     height="3.0414972"
     x="71.599518"
     y="91.543526"
     id="rect3474"
     style="fill:#ffffff;fill-opacity:1;stroke:none" />
  <rect
     width="4.5622458"
     height="3.0414972"
     x="71.599518"
     y="97.626518"
     id="rect3476"
     style="fill:#ffffff;fill-opacity:1;stroke:none" />
  <rect
     width="4.5622458"
     height="3.0414972"
     x="71.599518"
     y="103.70953"
     id="rect3478"
     style="fill:#ffffff;fill-opacity:1;stroke:none" />
  <rect
     width="4.5622458"
     height="3.0414972"
     x="71.599518"
     y="109.79251"
     id="rect3480"
     style="fill:#ffffff;fill-opacity:1;stroke:none" />
  <rect
     width="4.5622458"
     height="3.0414972"
     x="71.599518"
     y="115.8755"
     id="rect3482"
     style="fill:#ffffff;fill-opacity:1;stroke:none" />
  <path
     inkscape:connector-curvature="0"
     d="m 113.51931,55.785669 c 0,3.969975 -0.11953,63.745511 -0.11953,66.953451 2.92857,0 5.85715,0 8.78571,0 0.71184,-0.79276 0.17056,-2.36672 0.33968,-3.48903 0,-21.026568 0,-42.053138 0,-63.079705 l -0.0993,-0.272282 -0.2404,-0.112429 0,0 c -3.04805,0 -5.61821,0 -8.66624,0 z"
     id="path3489-8"
     style="fill:url(#linearGradient3585);fill-opacity:1;fill-rule:nonzero;stroke:url(#linearGradient3587);stroke-width:1.48023295;stroke-linecap:butt;stroke-linejoin:round;stroke-miterlimit:4;stroke-opacity:1;stroke-dasharray:none;stroke-dashoffset:0;marker:none;visibility:visible;display:block;overflow:visible" />
  <path
     d="m 121.0239,121.23196 -50.184829,0 0,-63.939139 50.184769,0 z"
     id="path2435"
     style="opacity:0.4;fill:none;stroke:url(#linearGradient3589);stroke-width:1.52062964;stroke-linecap:butt;stroke-linejoin:round;stroke-miterlimit:4;stroke-opacity:1;stroke-dasharray:none;stroke-dashoffset:0;display:inline"
     inkscape:connector-curvature="0"
     sodipodi:nodetypes="ccccc" />
  <rect
     width="4.5622458"
     height="3.0414972"
     x="-120.26347"
     y="61.128551"
     id="rect3464-7"
     style="fill:#ffffff;fill-opacity:1;stroke:none"
     transform="scale(-1,1)" />
  <rect
     width="4.5622458"
     height="3.0414972"
     x="-120.26347"
     y="67.211548"
     id="rect3466-0"
     style="fill:#ffffff;fill-opacity:1;stroke:none"
     transform="scale(-1,1)" />
  <rect
     width="4.5622458"
     height="3.0414972"
     x="-120.26347"
     y="73.29454"
     id="rect3468-4"
     style="fill:#ffffff;fill-opacity:1;stroke:none"
     transform="scale(-1,1)" />
  <rect
     width="4.5622458"
     height="3.0414972"
     x="-120.26347"
     y="79.377533"
     id="rect3470-8"
     style="fill:#ffffff;fill-opacity:1;stroke:none"
     transform="scale(-1,1)" />
  <rect
     width="4.5622458"
     height="3.0414972"
     x="-120.26347"
     y="85.460526"
     id="rect3472-0"
     style="fill:#ffffff;fill-opacity:1;stroke:none"
     transform="scale(-1,1)" />
  <rect
     width="4.5622458"
     height="3.0414972"
     x="-120.26347"
     y="91.543526"
     id="rect3474-4"
     style="fill:#ffffff;fill-opacity:1;stroke:none"
     transform="scale(-1,1)" />
  <rect
     width="4.5622458"
     height="3.0414972"
     x="-120.26347"
     y="97.626518"
     id="rect3476-2"
     style="fill:#ffffff;fill-opacity:1;stroke:none"
     transform="scale(-1,1)" />
  <rect
     width="4.5622458"
     height="3.0414972"
     x="-120.26347"
     y="103.70953"
     id="rect3478-9"
     style="fill:#ffffff;fill-opacity:1;stroke:none"
     transform="scale(-1,1)" />
  <rect
     width="4.5622458"
     height="3.0414972"
     x="-120.26347"
     y="109.79251"
     id="rect3480-6"
     style="fill:#ffffff;fill-opacity:1;stroke:none"
     transform="scale(-1,1)" />
  <rect
     width="4.5622458"
     height="3.0414972"
     x="-120.26347"
     y="115.8755"
     id="rect3482-1"
     style="fill:#ffffff;fill-opacity:1;stroke:none"
     transform="scale(-1,1)" />
</svg>
