<?xml version="1.0" encoding="UTF-8" standalone="no"?>
<!-- Created with Inkscape (http://www.inkscape.org/) -->

<svg
   xmlns:dc="http://purl.org/dc/elements/1.1/"
   xmlns:cc="http://creativecommons.org/ns#"
   xmlns:rdf="http://www.w3.org/1999/02/22-rdf-syntax-ns#"
   xmlns:svg="http://www.w3.org/2000/svg"
   xmlns="http://www.w3.org/2000/svg"
   xmlns:xlink="http://www.w3.org/1999/xlink"
   xmlns:sodipodi="http://sodipodi.sourceforge.net/DTD/sodipodi-0.dtd"
   xmlns:inkscape="http://www.inkscape.org/namespaces/inkscape"
   version="1.0"
   width="128"
   height="128"
   id="svg2408"
   inkscape:version="0.48.4 r9939"
   sodipodi:docname="sun-java6.svg">
  <sodipodi:namedview
     pagecolor="#ffffff"
     bordercolor="#666666"
     borderopacity="1"
     objecttolerance="10"
     gridtolerance="10"
     guidetolerance="10"
     inkscape:pageopacity="0"
     inkscape:pageshadow="2"
     inkscape:window-width="880"
     inkscape:window-height="845"
     id="namedview56"
     showgrid="false"
     inkscape:zoom="1.4142136"
     inkscape:cx="114.7856"
     inkscape:cy="-26.901435"
     inkscape:window-x="514"
     inkscape:window-y="23"
     inkscape:window-maximized="0"
     inkscape:current-layer="layer4" />
  <defs
     id="defs2410">
    <linearGradient
       x1="45.447727"
       y1="92.539597"
       x2="45.447727"
       y2="7.0165396"
       id="linearGradient3813"
       gradientUnits="userSpaceOnUse"
       gradientTransform="matrix(1.0058652,0,0,0.994169,100,0)">
      <stop
         id="stop3815"
         style="stop-color:#000000;stop-opacity:1"
         offset="0" />
      <stop
         id="stop3817"
         style="stop-color:#000000;stop-opacity:0.58823532"
         offset="1" />
    </linearGradient>
    <linearGradient
       gradientTransform="matrix(1.0058652,0,0,0.994169,100,0)"
       gradientUnits="userSpaceOnUse"
       id="linearGradient3801"
       y2="7.0165396"
       x2="45.447727"
       y1="92.539597"
       x1="45.447727">
      <stop
         offset="0"
         style="stop-color:#0074bd;stop-opacity:1;"
         id="stop3803" />
      <stop
         offset="1"
         style="stop-color:#0074bd;stop-opacity:1;"
         id="stop3805" />
    </linearGradient>
    <linearGradient
       x1="45.447727"
       y1="92.539597"
       x2="45.447727"
       y2="7.0165396"
       id="ButtonShadow"
       gradientUnits="userSpaceOnUse"
       gradientTransform="scale(1.0058652,0.994169)">
      <stop
         id="stop3750"
         style="stop-color:#000000;stop-opacity:1"
         offset="0" />
      <stop
         id="stop3752"
         style="stop-color:#000000;stop-opacity:0.58823532"
         offset="1" />
    </linearGradient>
    <linearGradient
       id="linearGradient3737">
      <stop
         id="stop3739"
         style="stop-color:#ffffff;stop-opacity:1"
         offset="0" />
      <stop
         id="stop3741"
         style="stop-color:#ffffff;stop-opacity:0"
         offset="1" />
    </linearGradient>
    <linearGradient
       id="linearGradient3700">
      <stop
         id="stop3702"
         style="stop-color:#e1e1e1;stop-opacity:1"
         offset="0" />
      <stop
         id="stop3704"
         style="stop-color:#f0f0f0;stop-opacity:1"
         offset="1" />
    </linearGradient>
    <filter
       color-interpolation-filters="sRGB"
       id="filter3174">
      <feGaussianBlur
         id="feGaussianBlur3176"
         stdDeviation="1.71" />
    </filter>
    <linearGradient
       x1="36.357143"
       y1="6"
       x2="36.357143"
       y2="63.893143"
       id="linearGradient3188"
       xlink:href="#linearGradient3737"
       gradientUnits="userSpaceOnUse"
       gradientTransform="matrix(1,0,0,1.0041091,0,-0.02465557)" />
    <filter
       x="-0.192"
       y="-0.192"
       width="1.3839999"
       height="1.3839999"
       color-interpolation-filters="sRGB"
       id="filter3794">
      <feGaussianBlur
         id="feGaussianBlur3796"
         stdDeviation="5.28" />
    </filter>
    <radialGradient
       cx="48"
       cy="90.171875"
       r="42"
       fx="48"
       fy="90.171875"
       id="radialGradient3619"
       xlink:href="#linearGradient3737"
       gradientUnits="userSpaceOnUse"
       gradientTransform="matrix(1.1573129,0,0,0.99590774,-7.5510206,0.19713193)" />
    <clipPath
       id="clipPath3613">
      <rect
         width="84"
         height="84"
         rx="6"
         ry="6"
         x="6"
         y="6"
         id="rect3615"
         style="fill:#ffffff;fill-opacity:1;fill-rule:nonzero;stroke:none" />
    </clipPath>
    <linearGradient
       x1="48"
       y1="90"
       x2="48"
       y2="5.9877172"
       id="linearGradient3617"
       xlink:href="#linearGradient3700"
       gradientUnits="userSpaceOnUse" />
    <linearGradient
       x1="45.447727"
       y1="92.539597"
       x2="45.447727"
       y2="7.0165396"
       id="ButtonShadow-0-1"
       gradientUnits="userSpaceOnUse"
       gradientTransform="matrix(1.0058652,0,0,0.994169,100,0)">
      <stop
         id="stop3750-8-1"
         style="stop-color:#000000;stop-opacity:1"
         offset="0" />
      <stop
         id="stop3752-5-2"
         style="stop-color:#000000;stop-opacity:0.58823532"
         offset="1" />
    </linearGradient>
    <linearGradient
       x1="32.251034"
       y1="6.1317081"
       x2="32.251034"
       y2="90.238609"
       id="linearGradient3780-1"
       xlink:href="#linearGradient3813"
       gradientUnits="userSpaceOnUse"
       gradientTransform="matrix(0.98284232,0,0,-0.9732255,0.82356892,97.415638)" />
    <linearGradient
       x1="32.251034"
       y1="6.1317081"
       x2="32.251034"
       y2="90.238609"
       id="linearGradient3772-1"
       xlink:href="#ButtonShadow-0-1"
       gradientUnits="userSpaceOnUse"
       gradientTransform="matrix(0.9872503,0,0,-0.97767526,0.611985,97.629223)" />
    <linearGradient
       x1="32.251034"
       y1="6.1317081"
       x2="32.251034"
       y2="90.238609"
       id="linearGradient3725-4"
       xlink:href="#ButtonShadow-0-1"
       gradientUnits="userSpaceOnUse"
       gradientTransform="matrix(0.99114905,0,0,0.97208849,0.42484367,-97.761336)" />
    <linearGradient
       x1="32.251034"
       y1="6.1317081"
       x2="32.251034"
       y2="90.238609"
       id="linearGradient3721-3"
       xlink:href="#linearGradient3801"
       gradientUnits="userSpaceOnUse"
       gradientTransform="matrix(0.9720885,0,0,0.9720885,1.3397522,-96.960796)" />
    <linearGradient
       x1="32.251034"
       y1="6.1317081"
       x2="32.251034"
       y2="90.238609"
       id="linearGradient3071-0"
       xlink:href="#ButtonShadow-0-1"
       gradientUnits="userSpaceOnUse"
       gradientTransform="matrix(0.97929605,0,0,-0.9696422,0.99378903,97.24364)" />
    <linearGradient
       inkscape:collect="always"
       xlink:href="#linearGradient3737"
       id="linearGradient3829"
       gradientUnits="userSpaceOnUse"
       x1="48"
       y1="20.220806"
       x2="48"
       y2="138.66119" />
  </defs>
  <metadata
     id="metadata2413">
    <rdf:RDF>
      <cc:Work
         rdf:about="">
        <dc:format>image/svg+xml</dc:format>
        <dc:type
           rdf:resource="http://purl.org/dc/dcmitype/StillImage" />
      </cc:Work>
    </rdf:RDF>
  </metadata>
  <g
     id="layer2"
     style="display:none"
     transform="translate(0,32)">
    <rect
       width="86"
       height="85"
       rx="6"
       ry="6"
       x="5"
       y="7"
       id="rect3745"
       style="opacity:0.9;fill:url(#ButtonShadow);fill-opacity:1;fill-rule:nonzero;stroke:none;filter:url(#filter3174)" />
  </g>
  <g
     id="layer4"
     style="display:inline"
     transform="matrix(1.2491514,0,0,1.2491514,4.0407328,2.1670057)">
    <path
       d="m 13.565218,94.330434 c -5.271478,0 -9.5951091,-4.331373 -9.5951091,-9.612291 l 0,-68.034656 c 0,-5.280918 4.3236312,-9.6122916 9.5951091,-9.6122916 l 68.869564,0 c 5.271478,0 9.595109,4.3313736 9.595109,9.6122916 l 0,68.034656 c 0,5.280918 -4.323631,9.612291 -9.595109,9.612291 l -68.869564,0 z"
       id="path3786"
       style="opacity:0.07999998;fill:url(#linearGradient3071-0);fill-opacity:1;fill-rule:nonzero;stroke:none;display:inline"
       inkscape:connector-curvature="0" />
    <path
       d="m 13.440521,93.529891 c -4.7726953,0 -8.6698688,-3.904444 -8.6698688,-8.686037 l 0,-68.286077 c 0,-4.781593 3.8971736,-8.6860376 8.6698688,-8.6860376 l 69.118958,0 c 4.772695,0 8.669869,3.9044446 8.669869,8.6860376 l 0,68.286077 c 0,4.781593 -3.897174,8.686037 -8.669869,8.686037 l -69.118958,0 z"
       id="path3778"
       style="opacity:0.1;fill:url(#linearGradient3780-1);fill-opacity:1;fill-rule:nonzero;stroke:none;display:inline"
       inkscape:connector-curvature="0" />
    <path
       d="m 13.285524,92.729348 c -4.2516869,0 -7.7143281,-3.469405 -7.7143281,-7.729385 l 0,-68.598294 c 0,-4.259981 3.4626412,-7.7293857 7.7143281,-7.7293857 l 69.428951,0 c 4.251688,0 7.714329,3.4694047 7.714329,7.7293857 l 0,68.598294 c 0,4.25998 -3.462641,7.729385 -7.714329,7.729385 l -69.428951,0 z"
       id="path3770"
       style="opacity:0.2;fill:url(#linearGradient3772-1);fill-opacity:1;fill-rule:nonzero;stroke:none;display:inline"
       inkscape:connector-curvature="0" />
    <rect
       width="83.256523"
       height="81.655434"
       rx="6"
       ry="5.8285708"
       x="6.3717384"
       y="-91.928802"
       transform="scale(1,-1)"
       id="rect3723"
       style="opacity:0.3;fill:url(#linearGradient3725-4);fill-opacity:1;fill-rule:nonzero;stroke:none;display:inline" />
    <rect
       width="81.655434"
       height="81.655434"
       rx="5.832531"
       ry="5.832531"
       x="7.1722832"
       y="-91.128258"
       transform="scale(1,-1)"
       id="rect3716"
       style="fill:url(#linearGradient3721-3);fill-opacity:1;fill-rule:nonzero;stroke:none;display:inline" />
  </g>
  <g
     id="layer1"
     transform="matrix(1.2142857,0,0,1.2142857,5.7142864,5.7142864)">
    <rect
       width="84"
       height="84"
       rx="6"
       ry="6"
       x="6"
       y="6"
       id="rect2419"
       style="fill:url(#linearGradient3617);fill-opacity:1;fill-rule:nonzero;stroke:none" />
    <path
       d="m 12,5.999999 c -3.324,0 -6,2.686996 -6,6.024654 l 0,2.008218 0,68.279419 0,2.008218 c 0,0.336096 0.04135,0.653374 0.09375,0.972731 0.0487,0.29681 0.09704,0.599367 0.1875,0.878595 0.00988,0.0305 0.020892,0.06386 0.03125,0.09413 0.098865,0.288954 0.2348802,0.549702 0.375,0.815839 0.1445918,0.274631 0.3156161,0.537816 0.5,0.78446 0.1843839,0.246645 0.3737765,0.475418 0.59375,0.690325 0.439947,0.429815 0.94291,0.817873 1.5,1.098244 C 9.559795,89.795023 9.8547231,89.902799 10.15625,90 9.9000482,89.899366 9.6695391,89.762757 9.4375,89.623459 c -0.00741,-0.0044 -0.023866,0.0045 -0.03125,0 C 9.374317,89.60408 9.343957,89.580774 9.3125,89.560702 9.192105,89.483687 9.0814774,89.396517 8.96875,89.309675 8.8625772,89.228543 8.7554691,89.147901 8.65625,89.058648 8.4783201,88.896551 8.3087904,88.71184 8.15625,88.525215 8.0486711,88.394425 7.9378561,88.25884 7.84375,88.117295 7.818661,88.078758 7.805304,88.031073 7.78125,87.991782 7.716487,87.888326 7.6510225,87.786424 7.59375,87.677998 7.4927417,87.482492 7.3880752,87.260589 7.3125,87.05043 7.30454,87.02853 7.288911,87.009713 7.28125,86.987673 7.2494249,86.895345 7.2454455,86.800074 7.21875,86.705267 7.1884177,86.598211 7.1483606,86.501402 7.125,86.391483 7.0521214,86.048568 7,85.690409 7,85.324617 L 7,83.316399 7,15.03698 7,13.028762 C 7,10.235483 9.2181517,8.0082172 12,8.0082172 l 2,0 68,0 2,0 c 2.781848,0 5,2.2272658 5,5.0205448 l 0,2.008218 0,68.279419 0,2.008218 c 0,0.365792 -0.05212,0.723951 -0.125,1.066866 -0.04415,0.207743 -0.08838,0.399292 -0.15625,0.59619 -0.0077,0.02204 -0.0233,0.04086 -0.03125,0.06276 -0.06274,0.174452 -0.138383,0.368958 -0.21875,0.533432 -0.04158,0.08314 -0.07904,0.170653 -0.125,0.251028 -0.0546,0.09761 -0.126774,0.189124 -0.1875,0.282405 -0.09411,0.141545 -0.204921,0.27713 -0.3125,0.40792 -0.143174,0.175167 -0.303141,0.348424 -0.46875,0.502054 -0.01117,0.01024 -0.01998,0.02124 -0.03125,0.03138 -0.138386,0.126072 -0.285091,0.235399 -0.4375,0.345162 -0.102571,0.07345 -0.204318,0.153994 -0.3125,0.219649 -0.0074,0.0045 -0.02384,-0.0044 -0.03125,0 -0.232039,0.139298 -0.462548,0.275907 -0.71875,0.376541 0.301527,-0.0972 0.596455,-0.204977 0.875,-0.345163 0.55709,-0.280371 1.060053,-0.668429 1.5,-1.098244 0.219973,-0.214907 0.409366,-0.44368 0.59375,-0.690325 0.184384,-0.246644 0.355408,-0.509829 0.5,-0.78446 0.14012,-0.266137 0.276135,-0.526885 0.375,-0.815839 0.01041,-0.03091 0.02133,-0.063 0.03125,-0.09413 0.09046,-0.279228 0.1388,-0.581785 0.1875,-0.878595 C 89.95865,84.973882 90,84.656604 90,84.320508 l 0,-2.008218 0,-68.279419 0,-2.008218 C 90,8.686995 87.324,5.999999 84,5.999999 l -72,0 z"
       inkscape:connector-curvature="0"
       id="rect3728"
       style="opacity:0.6;fill:url(#linearGradient3188);fill-opacity:1;fill-rule:nonzero;stroke:none" />
    <path
       d="M 12,90 C 8.676,90 6,87.324 6,84 L 6,82 6,14 6,12 c 0,-0.334721 0.04135,-0.6507 0.09375,-0.96875 0.0487,-0.295596 0.09704,-0.596915 0.1875,-0.875 C 6.29113,10.12587 6.302142,10.09265 6.3125,10.0625 6.411365,9.774729 6.5473802,9.515048 6.6875,9.25 6.8320918,8.976493 7.0031161,8.714385 7.1875,8.46875 7.3718839,8.223115 7.5612765,7.995278 7.78125,7.78125 8.221197,7.353194 8.72416,6.966724 9.28125,6.6875 9.559795,6.547888 9.8547231,6.440553 10.15625,6.34375 9.9000482,6.443972 9.6695391,6.580022 9.4375,6.71875 c -0.00741,0.0044 -0.023866,-0.0045 -0.03125,0 -0.031933,0.0193 -0.062293,0.04251 -0.09375,0.0625 -0.120395,0.0767 -0.2310226,0.163513 -0.34375,0.25 -0.1061728,0.0808 -0.2132809,0.161112 -0.3125,0.25 C 8.4783201,7.442683 8.3087904,7.626638 8.15625,7.8125 8.0486711,7.942755 7.9378561,8.077785 7.84375,8.21875 7.818661,8.25713 7.805304,8.30462 7.78125,8.34375 7.716487,8.446782 7.6510225,8.548267 7.59375,8.65625 7.4927417,8.850956 7.3880752,9.071951 7.3125,9.28125 7.30454,9.30306 7.288911,9.3218 7.28125,9.34375 7.2494249,9.4357 7.2454455,9.530581 7.21875,9.625 7.1884177,9.731618 7.1483606,9.828031 7.125,9.9375 7.0521214,10.279012 7,10.635705 7,11 l 0,2 0,68 0,2 c 0,2.781848 2.2181517,5 5,5 l 2,0 68,0 2,0 c 2.781848,0 5,-2.218152 5,-5 l 0,-2 0,-68 0,-2 C 89,10.635705 88.94788,10.279012 88.875,9.9375 88.83085,9.730607 88.78662,9.539842 88.71875,9.34375 88.71105,9.3218 88.69545,9.30306 88.6875,9.28125 88.62476,9.107511 88.549117,8.913801 88.46875,8.75 88.42717,8.6672 88.38971,8.580046 88.34375,8.5 88.28915,8.40279 88.216976,8.31165 88.15625,8.21875 88.06214,8.077785 87.951329,7.942755 87.84375,7.8125 87.700576,7.63805 87.540609,7.465502 87.375,7.3125 87.36383,7.3023 87.35502,7.29135 87.34375,7.28125 87.205364,7.155694 87.058659,7.046814 86.90625,6.9375 86.803679,6.86435 86.701932,6.784136 86.59375,6.71875 c -0.0074,-0.0045 -0.02384,0.0044 -0.03125,0 -0.232039,-0.138728 -0.462548,-0.274778 -0.71875,-0.375 0.301527,0.0968 0.596455,0.204138 0.875,0.34375 0.55709,0.279224 1.060053,0.665694 1.5,1.09375 0.219973,0.214028 0.409366,0.441865 0.59375,0.6875 0.184384,0.245635 0.355408,0.507743 0.5,0.78125 0.14012,0.265048 0.276135,0.524729 0.375,0.8125 0.01041,0.03078 0.02133,0.06274 0.03125,0.09375 0.09046,0.278085 0.1388,0.579404 0.1875,0.875 C 89.95865,11.3493 90,11.665279 90,12 l 0,2 0,68 0,2 c 0,3.324 -2.676,6 -6,6 l -72,0 z"
       inkscape:connector-curvature="0"
       id="path3615"
       style="opacity:0.2;fill:url(#radialGradient3619);fill-opacity:1;fill-rule:nonzero;stroke:none" />
  </g>
  <g
     id="layer5"
     transform="matrix(1.2142857,0,0,1.2142857,5.7142864,5.7142864)">
    <rect
       width="66"
       height="66"
       rx="12"
       ry="12"
       x="15"
       y="15"
       clip-path="url(#clipPath3613)"
       id="rect3171"
       style="opacity:0.5;fill:url(#linearGradient3829);fill-opacity:1;fill-rule:nonzero;stroke:#ffffff;stroke-width:0.41176468;stroke-linecap:round;stroke-linejoin:miter;stroke-miterlimit:4;stroke-opacity:1;stroke-dasharray:none;stroke-dashoffset:0;filter:url(#filter3794)" />
  </g>
  <g
     id="layer3"
     transform="matrix(1.2491514,0,0,1.2491514,4.0407328,2.1670057)">
    <g
       transform="matrix(1.1301798,0,0,1.1301798,137.30438,-15.095426)"
       id="g3678">
      <path
         d="m -86.682454,70.020561 c 0,0 -2.230343,1.298159 1.589079,1.736219 4.627848,0.528358 6.99267,0.452269 12.091002,-0.511436 0,0 1.343115,0.840206 3.215621,1.567893 -11.432816,4.898228 -25.874818,-0.283815 -16.895702,-2.792676 l 0,0 z"
         inkscape:connector-curvature="0"
         id="path3616"
         style="fill:#0074bd;fill-rule:evenodd" />
      <path
         d="m -88.080213,63.627558 c 0,0 -2.501885,1.852354 1.320378,2.247395 4.943959,0.510402 8.846833,0.552257 15.604261,-0.748227 0,0 0.932442,0.947169 2.400864,1.464804 -13.820761,4.04265 -29.214325,0.318049 -19.325503,-2.963972 l 0,0 z"
         inkscape:connector-curvature="0"
         id="path3618"
         style="fill:#0074bd;fill-rule:evenodd" />
      <path
         d="m -76.303512,53.421748 c 2.818512,2.907299 -0.739056,5.52138 -0.739056,5.52138 0,0 7.15247,-3.308059 3.868382,-7.452595 -3.068352,-3.863241 -5.420773,-5.782301 7.314724,-12.400617 1.29e-4,0 -19.991571,4.473061 -10.44405,14.331832 l 0,0 z"
         inkscape:connector-curvature="0"
         id="path3620"
         style="fill:#e46e1f;fill-opacity:0.94117647;fill-rule:evenodd" />
      <path
         d="m -61.182912,74.749947 c 0,0 1.651086,1.361071 -1.818508,2.413654 -6.5975,1.99833 -27.464801,2.601097 -33.260721,0.07996 -2.082041,-0.906864 1.824192,-2.163814 3.053238,-2.429285 1.281494,-0.277226 2.013186,-0.226586 2.013186,-0.226586 -2.317154,-1.63171 -14.976823,3.20464 -6.429691,4.591677 23.308341,3.778083 42.48761,-1.701727 36.442496,-4.429424 l 0,0 z"
         inkscape:connector-curvature="0"
         id="path3622"
         style="fill:#0074bd;fill-rule:evenodd" />
      <path
         d="m -85.609073,57.002801 c 0,0 -10.613022,2.521521 -3.758189,3.437944 2.895247,0.38742 8.663393,0.298283 14.040243,-0.152823 4.392994,-0.368688 8.801619,-1.157221 8.801619,-1.157221 0,0 -1.54787,0.664 -2.668531,1.428763 -10.779538,2.835177 -31.599689,1.514799 -25.604956,-1.383807 5.067458,-2.451504 9.189814,-2.172856 9.189814,-2.172856 l 0,0 z"
         inkscape:connector-curvature="0"
         id="path3624"
         style="fill:#0074bd;fill-rule:evenodd" />
      <path
         d="m -66.569322,67.644371 c 10.957035,-5.692186 5.890352,-11.162953 2.3541,-10.426093 -0.864751,0.180468 -1.252687,0.336779 -1.252687,0.336779 0,0 0.322182,-0.504717 0.935672,-0.721874 6.9959,-2.45835 12.374946,7.253103 -2.25605,11.099266 -1.3e-4,0 0.168196,-0.152436 0.218965,-0.288078 l 0,0 z"
         inkscape:connector-curvature="0"
         id="path3626"
         style="fill:#0074bd;fill-rule:evenodd" />
      <path
         d="m -73.174057,28.400917 c 0,0 6.066817,5.439537 -5.756002,13.801655 -9.481121,6.71046 -2.161747,10.535153 -0.0034,14.907273 -5.534841,-4.474451 -9.594543,-8.413862 -6.871497,-12.079733 3.998728,-5.380384 15.078099,-7.989834 12.630858,-16.629195 l 0,0 z"
         inkscape:connector-curvature="0"
         id="path3628"
         style="fill:#e46e1f;fill-opacity:0.94117647;fill-rule:evenodd" />
      <path
         style="fill:#0074bd;fill-rule:evenodd"
         id="path3819"
         inkscape:connector-curvature="0"
         d="m -84.041615,56.797693 c 0,0 -10.09141,2.161377 -3.57348,2.946909 2.752951,0.332086 8.237603,0.255681 13.35019,-0.130995 4.177087,-0.316029 8.369035,-0.991938 8.369035,-0.991938 0,0 -1.471795,0.569163 -2.537377,1.224696 -10.249743,2.430234 -30.04662,1.298444 -24.346518,-1.186161 4.818402,-2.10136 8.73815,-1.862511 8.73815,-1.862511 l 0,0 z" />
    </g>
  </g>
</svg>
