<?xml version="1.0" encoding="UTF-8" standalone="no"?>
<!-- Created with Inkscape (http://www.inkscape.org/) -->

<svg
   xmlns:dc="http://purl.org/dc/elements/1.1/"
   xmlns:cc="http://creativecommons.org/ns#"
   xmlns:rdf="http://www.w3.org/1999/02/22-rdf-syntax-ns#"
   xmlns:svg="http://www.w3.org/2000/svg"
   xmlns="http://www.w3.org/2000/svg"
   xmlns:xlink="http://www.w3.org/1999/xlink"
   xmlns:sodipodi="http://sodipodi.sourceforge.net/DTD/sodipodi-0.dtd"
   xmlns:inkscape="http://www.inkscape.org/namespaces/inkscape"
   width="64"
   height="64"
   id="svg2"
   version="1.1"
   inkscape:version="0.48.5 r10040"
   sodipodi:docname="easytag.svg">
  <defs
     id="defs4">
    <linearGradient
       inkscape:collect="always"
       id="linearGradient13613">
      <stop
         style="stop-color:#ffd233;stop-opacity:1"
         offset="0"
         id="stop13615" />
      <stop
         style="stop-color:#f3f76c;stop-opacity:1"
         offset="1"
         id="stop13617" />
    </linearGradient>
    <linearGradient
       inkscape:collect="always"
       xlink:href="#linearGradient3783"
       id="linearGradient5651"
       gradientUnits="userSpaceOnUse"
       gradientTransform="matrix(1.0976756,0,0,1.0502174,-16.649375,-0.49965618)"
       x1="7.2591696"
       y1="6.7927251"
       x2="7.2591696"
       y2="19.085949" />
    <linearGradient
       id="linearGradient3783">
      <stop
         style="stop-color:#d7e866;stop-opacity:1;"
         offset="0"
         id="stop3785" />
      <stop
         style="stop-color:#94b62d;stop-opacity:1;"
         offset="1"
         id="stop3787" />
    </linearGradient>
    <linearGradient
       inkscape:collect="always"
       xlink:href="#linearGradient13613"
       id="linearGradient13619"
       x1="31.798103"
       y1="1031.3236"
       x2="25.406343"
       y2="1007.4692"
       gradientUnits="userSpaceOnUse"
       gradientTransform="matrix(0.85323407,0.25881905,-0.22862338,0.96592583,238.40222,28.131221)" />
  </defs>
  <sodipodi:namedview
     id="base"
     pagecolor="#ffffff"
     bordercolor="#666666"
     borderopacity="1.0"
     inkscape:pageopacity="0.0"
     inkscape:pageshadow="2"
     inkscape:zoom="5.6"
     inkscape:cx="29.907528"
     inkscape:cy="42.88915"
     inkscape:document-units="px"
     inkscape:current-layer="layer1"
     showgrid="false"
     inkscape:window-width="1022"
     inkscape:window-height="636"
     inkscape:window-x="0"
     inkscape:window-y="23"
     inkscape:window-maximized="0" />
  <metadata
     id="metadata7">
    <rdf:RDF>
      <cc:Work
         rdf:about="">
        <dc:format>image/svg+xml</dc:format>
        <dc:type
           rdf:resource="http://purl.org/dc/dcmitype/StillImage" />
        <dc:title></dc:title>
      </cc:Work>
    </rdf:RDF>
  </metadata>
  <g
     inkscape:label="Layer 1"
     inkscape:groupmode="layer"
     id="layer1"
     transform="translate(0,-988.36218)">
    <path
       style="fill:url(#linearGradient13619);fill-opacity:1;stroke:#585858;stroke-width:1;stroke-opacity:1"
       d="m 14.333342,1007.8622 -4.4166488,6.25 -4.4166932,6.25 4.4166843,6.25 4.4166627,6.2499 35.333311,10e-5 4.41667,-6.2501 4.416672,-6.2499 -4.416685,-6.25 -4.416642,-6.25 -35.333331,0 z"
       id="rect2985"
       inkscape:connector-curvature="0" />
    <g
       transform="matrix(0.90661957,-0.24292798,0.24292798,0.90661957,-5.4909146,59.622613)"
       style="font-size:10px;font-style:normal;font-variant:normal;font-weight:bold;font-stretch:normal;line-height:125%;letter-spacing:0px;word-spacing:0px;fill:#333333;fill-opacity:1;stroke:none;font-family:Nimbus Sans L;-inkscape-font-specification:Nimbus Sans L Bold"
       id="text13582">
      <path
         d="m -246.52905,994.73643 3.37108,0.9033 0.32352,-1.2074 -3.37108,-0.9033 0.42705,-1.5938 3.64154,0.97575 0.32352,-1.20741 -5.09042,-1.36398 -1.88681,7.04164 5.2643,1.4106 0.32352,-1.2074 -3.8154,-1.0224 0.48918,-1.8256"
         style="fill:#333333;fill-opacity:1"
         id="path13587"
         inkscape:connector-curvature="0" />
      <path
         d="m -237.99619,1000.0976 c -0.18195,-0.28687 -0.21075,-0.44987 -0.13828,-0.72037 l 0.77647,-2.8978 c 0.2847,-1.0625 -0.2948,-1.7975 -1.70506,-2.1754 -1.41025,-0.3779 -2.30482,0.024 -2.71528,1.2084 l 1.304,0.3494 c 0.21256,-0.5228 0.48131,-0.6371 1.1478,-0.4585 0.5216,0.1397 0.73581,0.3835 0.64263,0.7312 -0.0466,0.1739 -0.17493,0.3051 -0.34052,0.3436 -0.20941,0.047 -0.20941,0.047 -0.90437,-0.025 l -0.5668,-0.048 c -1.08013,-0.1031 -1.72477,0.2936 -1.97582,1.2306 -0.11906,0.4443 -0.0918,0.845 0.0798,1.1705 0.21661,0.3893 0.62142,0.6945 1.08507,0.8187 0.57955,0.1553 1.17811,0.047 1.78341,-0.3193 -0.0725,0.2705 -0.0694,0.3748 0.0148,0.563 l 1.46821,0.39337 0.044,-0.1642 m -1.11478,-2.36917 c -0.20964,0.7824 -0.71507,1.1232 -1.40088,0.9394 -0.45398,-0.1216 -0.66939,-0.4382 -0.56587,-0.8245 0.10871,-0.4057 0.37297,-0.542 0.96427,-0.5078 l 0.48694,0.037 c 0.37551,0.028 0.43864,0.024 0.61389,-0.012 l -0.0984,0.3671"
         style="fill:#333333;fill-opacity:1"
         id="path13589"
         inkscape:connector-curvature="0" />
      <path
         d="m -231.8997,998.11803 c 0.27574,-1.1064 -0.39569,-2.0006 -1.79629,-2.3759 -1.3233,-0.3546 -2.32294,0.092 -2.61023,1.1641 -0.0932,0.3477 -0.0671,0.6756 0.062,0.9277 0.13435,0.2327 0.27527,0.3636 0.73355,0.6624 l 1.47851,0.9345 c 0.3096,0.1969 0.39704,0.3342 0.3401,0.5467 -0.0854,0.31867 -0.51388,0.41097 -1.14173,0.24267 -0.34774,-0.093 -0.60974,-0.23577 -0.75255,-0.39827 -0.11642,-0.1451 -0.1459,-0.2669 -0.1288,-0.5625 l -1.32332,-0.3546 c -0.26677,1.15017 0.41313,1.97417 1.99724,2.39867 0.72444,0.1941 1.31643,0.1871 1.78562,-0.019 0.4692,-0.2056 0.83043,-0.6264 0.9676,-1.1384 0.18118,-0.67607 -0.0404,-1.20137 -0.67187,-1.58797 l -1.5777,-0.9507 c -0.34565,-0.2169 -0.42154,-0.3201 -0.3646,-0.5326 0.0777,-0.2897 0.43851,-0.4001 0.91181,-0.2733 0.64717,0.1734 0.90381,0.4907 0.78665,0.9666 l 1.304,0.3494"
         style="fill:#333333;fill-opacity:1"
         id="path13591"
         inkscape:connector-curvature="0" />
      <path
         d="m -227.14479,997.59073 -2.09901,3.50617 -0.13228,-4.10407 -1.48753,-0.3986 0.48694,5.94877 -0.003,0.01 -0.008,0.029 c -0.132,0.4927 -0.59999,0.771 -1.07329,0.6442 -0.10626,-0.028 -0.18094,-0.059 -0.34187,-0.1537 l -0.27176,1.0142 c 0.19508,0.083 0.3084,0.124 0.47261,0.168 0.33808,0.091 0.76188,0.1317 1.01959,0.097 0.41812,-0.054 0.64185,-0.2317 1.02966,-0.7904 l 3.79822,-5.59767 -1.39093,-0.3727"
         style="fill:#333333;fill-opacity:1"
         id="path13593"
         inkscape:connector-curvature="0" />
      <path
         d="m -220.53546,998.68944 2.05742,0.55128 0.32353,-1.2074 -5.64101,-1.51151 -0.32352,1.20741 2.13469,0.57199 -1.56327,5.83419 1.44889,0.3882 1.56327,-5.83416"
         style="fill:#333333;fill-opacity:1"
         id="path13595"
         inkscape:connector-curvature="0" />
      <path
         d="m -214.69281,1004.9862 0.0832,1.5441 1.48752,0.3986 -0.54734,-7.69381 -1.60344,-0.42964 -4.38854,6.37125 1.47787,0.396 0.85377,-1.2931 2.63698,0.7066 m -0.0725,-1.3135 -1.83526,-0.4918 1.65527,-2.507 0.17999,2.9988"
         style="fill:#333333;fill-opacity:1"
         id="path13597"
         inkscape:connector-curvature="0" />
      <path
         d="m -205.04994,1005.0336 -2.8205,-0.7558 -0.32353,1.2074 1.60344,0.4297 c -0.14475,0.3856 -0.30605,0.6012 -0.58585,0.7954 -0.46161,0.3319 -1.06016,0.4407 -1.6204,0.2905 -1.16877,-0.3131 -1.73478,-1.5622 -1.34655,-3.0111 0.40635,-1.5165 1.39599,-2.2348 2.62271,-1.9061 0.50228,0.1346 0.88847,0.3933 1.13217,0.7589 0.15625,0.2282 0.21851,0.4209 0.24572,0.8216 l 1.36196,0.3649 c 0.21436,-1.4955 -0.71819,-2.7289 -2.41822,-3.1844 -2.02844,-0.5435 -3.81089,0.5836 -4.39841,2.7762 -0.57199,2.1347 0.40225,4.0625 2.30512,4.5724 0.94661,0.2537 1.67471,0.086 2.42786,-0.5607 l -0.0746,0.9739 0.86933,0.2329 1.01975,-3.8057"
         style="fill:#333333;fill-opacity:1"
         id="path13599"
         inkscape:connector-curvature="0" />
    </g>
    <path
       sodipodi:nodetypes="ccssccccssccssc"
       style="fill:#ffffff;fill-opacity:1;stroke:none"
       id="path13609"
       d="m 67.428877,1049.3535 c 0.38379,1.4322 0.351313,1.3111 0.735099,2.7432 -0.706951,0.1897 -1.722162,0.6386 -1.454793,1.9348 0.127037,0.6159 0.733594,1.3059 1.53398,1.2047 0.721516,-0.091 1.632237,-0.793 1.379559,-1.7845 -0.404722,-1.4672 -0.699881,-2.6239 -1.096867,-4.0936 0.187286,-0.05 2.730114,-0.7315 2.967871,-0.7952 0.295107,1.1014 0.365338,1.3635 0.660388,2.4647 -0.610302,0.1636 -1.576221,0.6049 -1.286879,1.9027 0.157795,0.7076 0.843515,1.3157 1.68713,1.1468 0.727183,-0.1452 1.535274,-0.875 1.298349,-1.7583 -0.539599,-1.9568 -0.72025,-2.73 -1.257312,-4.6877 -0.133725,-0.4991 -0.465078,-0.7538 -1.008756,-0.6081 -1.057556,0.2834 -2.622321,0.7027 -3.588308,0.9615 -0.705794,0.1891 -0.717916,0.8144 -0.569469,1.369 z"
       inkscape:connector-curvature="0" />
    <path
       inkscape:connector-curvature="0"
       d="m 75.28602,1047.2106 c 0.38379,1.4322 0.351313,1.3111 0.735099,2.7432 -0.706951,0.1897 -1.722162,0.6386 -1.454793,1.9348 0.127037,0.6159 0.733594,1.3059 1.53398,1.2047 0.721516,-0.091 1.632237,-0.793 1.379559,-1.7845 -0.404722,-1.4672 -0.699881,-2.6239 -1.096867,-4.0936 0.187286,-0.05 2.730114,-0.7315 2.967871,-0.7952 0.295107,1.1014 0.365338,1.3635 0.660388,2.4647 -0.610302,0.1636 -1.576221,0.6049 -1.286879,1.9027 0.157795,0.7076 0.843515,1.3157 1.68713,1.1468 0.727183,-0.1452 1.535274,-0.875 1.298349,-1.7583 -0.539599,-1.9568 -0.72025,-2.73 -1.257312,-4.6877 -0.133725,-0.4991 -0.465078,-0.7538 -1.008756,-0.6081 -1.057556,0.2834 -2.622321,0.7027 -3.588308,0.9615 -0.705794,0.1891 -0.717916,0.8144 -0.569469,1.369 z"
       id="path13611"
       style="fill:#ffffff;fill-opacity:1;stroke:none"
       sodipodi:nodetypes="ccssccccssccssc" />
  </g>
</svg>
