<?xml version="1.0" encoding="UTF-8" standalone="no"?>
<!-- Created with Inkscape (http://www.inkscape.org/) -->

<svg
   xmlns:dc="http://purl.org/dc/elements/1.1/"
   xmlns:cc="http://creativecommons.org/ns#"
   xmlns:rdf="http://www.w3.org/1999/02/22-rdf-syntax-ns#"
   xmlns:svg="http://www.w3.org/2000/svg"
   xmlns="http://www.w3.org/2000/svg"
   xmlns:xlink="http://www.w3.org/1999/xlink"
   xmlns:sodipodi="http://sodipodi.sourceforge.net/DTD/sodipodi-0.dtd"
   xmlns:inkscape="http://www.inkscape.org/namespaces/inkscape"
   width="64"
   height="64"
   id="svg8779"
   version="1.1"
   inkscape:version="0.48.4 r9939"
   sodipodi:docname="gmusicbrowser.svg">
  <defs
     id="defs8781">
    <linearGradient
       inkscape:collect="always"
       id="linearGradient3946">
      <stop
         style="stop-color:#9ec2de;stop-opacity:1"
         offset="0"
         id="stop3948" />
      <stop
         style="stop-color:#355e7b;stop-opacity:1"
         offset="1"
         id="stop3950" />
    </linearGradient>
    <linearGradient
       inkscape:collect="always"
       xlink:href="#linearGradient8098-2"
       id="linearGradient8612"
       gradientUnits="userSpaceOnUse"
       x1="30.756041"
       y1="24.785156"
       x2="32.811714"
       y2="21.470184" />
    <linearGradient
       id="linearGradient8098-2">
      <stop
         style="stop-color:#334f73;stop-opacity:1;"
         offset="0"
         id="stop8100-7" />
      <stop
         style="stop-color:#334f73;stop-opacity:0;"
         offset="1"
         id="stop8102-1" />
    </linearGradient>
    <linearGradient
       inkscape:collect="always"
       xlink:href="#linearGradient8098"
       id="linearGradient8614"
       gradientUnits="userSpaceOnUse"
       x1="30.756041"
       y1="24.785156"
       x2="32.811714"
       y2="21.470184" />
    <linearGradient
       id="linearGradient8098">
      <stop
         style="stop-color:#334f73;stop-opacity:1;"
         offset="0"
         id="stop8100" />
      <stop
         style="stop-color:#334f73;stop-opacity:0;"
         offset="1"
         id="stop8102" />
    </linearGradient>
    <linearGradient
       inkscape:collect="always"
       xlink:href="#linearGradient8106"
       id="linearGradient8610"
       gradientUnits="userSpaceOnUse"
       gradientTransform="matrix(1.3265101,0,0,1.3264497,-1.6702934,-341.65674)"
       x1="38.320412"
       y1="1016.3228"
       x2="37.110966"
       y2="1020.6159" />
    <linearGradient
       id="linearGradient8106">
      <stop
         style="stop-color:#334f73;stop-opacity:1;"
         offset="0"
         id="stop8108" />
      <stop
         style="stop-color:#334f73;stop-opacity:0;"
         offset="1"
         id="stop8110" />
    </linearGradient>
    <linearGradient
       id="linearGradient8088">
      <stop
         id="stop8090"
         offset="0"
         style="stop-color:#7dadcb;stop-opacity:1;" />
      <stop
         id="stop8092"
         offset="1"
         style="stop-color:#dae8f8;stop-opacity:1;" />
    </linearGradient>
    <linearGradient
       id="linearGradient3866">
      <stop
         id="stop3868"
         offset="0"
         style="stop-color:#000000;stop-opacity:1;" />
      <stop
         id="stop3870"
         offset="1"
         style="stop-color:#000000;stop-opacity:0;" />
    </linearGradient>
    <radialGradient
       r="18.063141"
       fy="25.504171"
       fx="-1.1297575"
       cy="25.504171"
       cx="-1.1297575"
       gradientTransform="matrix(1,0,0,0.16666667,0,21.253476)"
       gradientUnits="userSpaceOnUse"
       id="radialGradient8832"
       xlink:href="#linearGradient3866"
       inkscape:collect="always" />
    <linearGradient
       inkscape:collect="always"
       xlink:href="#linearGradient3946"
       id="linearGradient3952"
       x1="25.919283"
       y1="8.9739151"
       x2="25.919283"
       y2="40.93993"
       gradientUnits="userSpaceOnUse" />
    <linearGradient
       inkscape:collect="always"
       xlink:href="#linearGradient8088"
       id="linearGradient3962"
       gradientUnits="userSpaceOnUse"
       gradientTransform="matrix(1.3641668,0,0,1.3641047,79.724125,-390.85883)"
       x1="-28.606602"
       y1="1056.2073"
       x2="-28.606602"
       y2="1022.3986" />
  </defs>
  <sodipodi:namedview
     id="base"
     pagecolor="#ffffff"
     bordercolor="#666666"
     borderopacity="1.0"
     inkscape:pageopacity="0.0"
     inkscape:pageshadow="2"
     inkscape:zoom="4"
     inkscape:cx="-1.4729681"
     inkscape:cy="47.607327"
     inkscape:document-units="px"
     inkscape:current-layer="layer1"
     showgrid="false"
     inkscape:window-width="1211"
     inkscape:window-height="765"
     inkscape:window-x="168"
     inkscape:window-y="23"
     inkscape:window-maximized="0"
     showguides="true"
     inkscape:guide-bbox="true" />
  <metadata
     id="metadata8784">
    <rdf:RDF>
      <cc:Work
         rdf:about="">
        <dc:format>image/svg+xml</dc:format>
        <dc:type
           rdf:resource="http://purl.org/dc/dcmitype/StillImage" />
        <dc:title />
      </cc:Work>
    </rdf:RDF>
  </metadata>
  <g
     inkscape:label="Layer 1"
     inkscape:groupmode="layer"
     id="layer1"
     transform="translate(0,-988.36218)">
    <path
       sodipodi:type="arc"
       style="opacity:0.50684934;fill:url(#radialGradient8832);fill-opacity:1;stroke:none"
       id="path3852"
       sodipodi:cx="-1.1297575"
       sodipodi:cy="25.504171"
       sodipodi:rx="18.063141"
       sodipodi:ry="3.0105236"
       d="m 16.933383,25.504171 c 0,1.662667 -8.0871433,3.010524 -18.0631405,3.010524 -9.9759975,0 -18.0631405,-1.347857 -18.0631405,-3.010524 0,-1.662666 8.087143,-3.010523 18.0631405,-3.010523 9.9759972,0 18.0631405,1.347857 18.0631405,3.010523 z"
       transform="matrix(1.4982263,0,0,1.4981581,33.692632,1009.6427)" />
    <path
       sodipodi:type="arc"
       style="fill:#eeeeee;fill-opacity:1;stroke:#334f73;stroke-width:0.3673282;stroke-miterlimit:4;stroke-opacity:1;stroke-dasharray:none"
       id="path2996"
       sodipodi:cx="26.263966"
       sodipodi:cy="25.524105"
       sodipodi:rx="22.223356"
       sodipodi:ry="22.223356"
       d="m 48.487322,25.524105 a 22.223356,22.223356 0 1 1 -44.4467126,0 22.223356,22.223356 0 1 1 44.4467126,0 z"
       transform="matrix(1.3611805,0,0,1.3611805,-3.7499978,985.61927)" />
    <path
       sodipodi:type="arc"
       style="fill:url(#linearGradient3952);fill-opacity:1;stroke:none"
       id="path7923"
       sodipodi:cx="25.66041"
       sodipodi:cy="26.49015"
       sodipodi:rx="18.321102"
       sodipodi:ry="18.321102"
       d="m 43.981512,26.49015 c 0,10.118466 -8.202637,18.321103 -18.321102,18.321103 -10.118465,0 -18.3211022,-8.202637 -18.3211022,-18.321103 0,-10.118465 8.2026372,-18.3211017 18.3211022,-18.3211017 10.118465,0 18.321102,8.2026367 18.321102,18.3211017 z"
       transform="matrix(1.4191286,0,0,1.4191286,-4.4154216,982.76925)" />
    <path
       sodipodi:nodetypes="ccccccccccccccccccccccccccccccccccccccccccccccccccccccccccccccccccccccccccccccccccccccccccccccccccccccccccccccccccccccccccccccccccccccccccccccccccccccccccccccccccccccccccccccccccccccccccccccccccccccccccccccccccccccccccccccccccccccccccccccccccccccccccccccccccccccccccccsscccccccccccccccccccccccccccccccccccccccccssccccccccccccccccccccccccccccccccccccccccccc"
       inkscape:connector-curvature="0"
       id="path6083"
       d="m 30.91574,998.97259 0,3.72791 4.081415,0 0,-3.72791 z m -10.92662,4.11361 0,3.6958 4.081414,0 0,-3.6958 z m 10.92662,0 0,3.6958 4.081415,0 0,-3.6958 z m 5.431173,0 0,3.6958 4.113552,0 0,-3.6958 z m -21.821103,4.0814 0,3.728 4.113551,0 0,-3.728 z m 5.46331,0 0,3.728 4.081414,0 0,-3.728 z m 10.92662,0 0,3.728 4.081415,0 0,-3.728 z m 5.431173,0 0,3.728 4.113552,0 0,-3.728 z m 5.463311,0 0,3.728 4.081414,0 0,-3.728 z m -27.284414,4.0814 0,3.7279 4.113551,0 0,-3.7279 z m 5.46331,0 0,3.7279 4.081414,0 0,-3.7279 z m 10.92662,0 0,3.7279 4.081415,0 0,-3.7279 z m 5.431173,0 0,3.7279 4.113552,0 0,-3.7279 z m 5.463311,0 0,3.7279 4.081414,0 0,-3.7279 z m -27.284414,4.1136 0,3.6958 4.113551,0 0,-3.6958 z m 5.46331,0 0,3.6958 4.081414,0 0,-3.6958 z m 10.92662,0 0,3.6958 4.081415,0 0,-3.6958 z m 5.431173,0 0,3.6958 4.113552,0 0,-3.6958 z m 5.463311,0 0,3.6958 4.081414,0 0,-3.6958 z m -32.747724,4.0814 0,3.7279 4.113551,0 0,-3.7279 z m 5.46331,0 0,3.7279 4.113551,0 0,-3.7279 z m 5.46331,0 0,3.7279 4.081414,0 0,-3.7279 z m 5.46331,0 0,3.7279 4.081414,0 0,-3.7279 z m 5.46331,0 0,3.7279 4.081415,0 0,-3.7279 z m 5.431173,0 0,3.7279 4.113552,0 0,-3.7279 z m 5.463311,0 0,3.7279 4.081414,0 0,-3.7279 z m 5.46331,0 0,3.7279 4.081414,0 0,-3.7279 z m -38.211034,4.1136 0,3.6957 4.113551,0 0,-3.6957 z m 5.46331,0 0,3.6957 4.113551,0 0,-3.6957 z m 5.46331,0 0,3.6957 4.081414,0 0,-3.6957 z m 5.46331,0 0,3.6957 4.081414,0 0,-3.6957 z m 5.46331,0 0,3.6957 4.081415,0 0,-3.6957 z m 5.431173,0 0,3.6957 4.113552,0 0,-3.6957 z m 5.463311,0 0,3.6957 4.081414,0 0,-3.6957 z m 5.46331,0 0,3.6957 4.081414,0 0,-3.6957 z m -38.211034,4.0813 0,3.6959 4.113551,0 0,-3.6959 z m 5.46331,0 0,3.6959 4.113551,0 0,-3.6959 z m 5.46331,0 0,3.6959 4.081414,0 0,-3.6959 z m 5.46331,0 0,3.6959 4.081414,0 0,-3.6959 z m 5.495448,0 0,3.6959 4.081414,0 0,-3.6959 z m 5.399035,0 0,3.6959 4.113552,0 0,-3.6959 z m 5.463311,0 0,3.6959 4.081414,0 0,-3.6959 z m 5.46331,0 0,3.6959 4.081414,0 0,-3.6959 z m 5.46331,0 0,3.6959 2.828066,0 c 0.48428,-1.0373 0.909054,-2.1068 1.253348,-3.2138 l 0,-0.4821 z m -41.521157,4.0815 c 0.637519,1.3078 -0.291105,2.5559 0.550246,3.7279 l 1.410118,0 0,-3.7279 z m 3.310123,0 0,3.7279 4.113551,0 0,-3.7279 z m 5.46331,0 0,3.7279 4.081414,0 0,-3.7279 z m 5.46331,0 0,3.7279 4.081414,0 0,-3.7279 z m 5.495448,0 0,3.7279 4.081414,0 0,-3.7279 z m 5.399035,0 0,3.7279 4.113552,0 0,-3.7279 z m 5.463311,0 0,3.7279 4.081414,0 0,-3.7279 z m 5.46331,0 0,3.7279 4.081414,0 0,-3.7279 z m 5.46331,0 0,3.7279 0.417782,0 c 0.841351,-1.172 1.579942,-2.4201 2.217462,-3.7279 z m -38.211034,4.1136 0,3.0022 c 0.04902,0.046 0.487499,-0.3936 0.536481,-0.3474 0.04426,0.042 0.267131,0.3269 0.311641,0.3683 0.06677,0.062 -0.206895,0.611 -0.138821,0.6726 l 3.40425,0 0,-3.6957 z m 5.46331,0 0,3.6957 4.081414,0 0,-3.6957 z m 5.46331,0 0,3.6957 4.081414,0 0,-3.6957 z m 5.495448,0 0,3.6957 4.081414,0 0,-3.6957 z m 5.399035,0 0,3.6957 4.113552,0 0,-3.6957 z m 5.463311,0 0,3.6957 4.081414,0 0,-3.6957 z m 5.46331,0 0,3.6957 2.249598,0 c 0.643432,-0.5827 1.250192,-1.1873 1.831816,-1.8318 l 0,-1.8639 z m 5.46331,0 0,0.1928 c 0.05048,-0.067 0.110834,-0.126 0.160685,-0.1928 z m -32.747724,4.0813 0,3.1174 c 0.177743,0.097 0.455041,-0.9739 0.629841,-0.8753 0.08751,0.049 0.97589,0.1496 1.038846,0.4896 0.06296,0.34 -0.435528,0.9198 -0.344179,0.9641 l 2.756906,0 0,-3.6958 z m 5.46331,0 0,3.6958 4.081414,0 0,-3.6958 z m 5.495448,0 0,3.6958 4.081414,0 0,-3.6958 z m 5.399035,0 0,3.6958 4.113552,0 0,-3.6958 z m 5.463311,0 0,3.6958 1.67113,0 c 0,-1.8101 2.410284,-1.366 2.410284,-3.6958 z m 5.46331,0 0,1.414 c 0.619755,-0.4465 1.223012,-0.9153 1.799678,-1.414 z m -21.821104,4.0815 0,1.01 4.081414,0.1285 0,-1.1385 z m 5.495448,0 0,1.9006 4.081414,-0.097 0,-1.8043 z m 5.399035,0 0,1.6344 c 1.414545,-0.2255 2.785913,-0.5821 4.113552,-1.0284 l 0,-0.606 z"
       style="fill:#16273e;fill-opacity:1;stroke:none" />
    <path
       style="fill:url(#linearGradient3962);fill-opacity:1;stroke:none"
       d="m 31.159983,998.71525 0,3.72795 4.081414,0 0,-3.72795 z m -10.926621,4.11355 0,3.6958 4.081414,0 0,-3.6958 z m 10.926621,0 0,3.6958 4.081414,0 0,-3.6958 z m 5.431173,0 0,3.6958 4.113551,0 0,-3.6958 z m -21.821104,4.0814 0,3.7279 4.113551,0 0,-3.7279 z m 5.46331,0 0,3.7279 4.081414,0 0,-3.7279 z m 10.926621,0 0,3.7279 4.081414,0 0,-3.7279 z m 5.431173,0 0,3.7279 4.113551,0 0,-3.7279 z m 5.46331,0 0,3.7279 4.081414,0 0,-3.7279 z m -27.284414,4.0814 0,3.7279 4.113551,0 0,-3.7279 z m 5.46331,0 0,3.7279 4.081414,0 0,-3.7279 z m 10.926621,0 0,3.7279 4.081414,0 0,-3.7279 z m 5.431173,0 0,3.7279 4.113551,0 0,-3.7279 z m 5.46331,0 0,3.7279 4.081414,0 0,-3.7279 z m -27.284414,4.1136 0,3.6958 4.113551,0 0,-3.6958 z m 5.46331,0 0,3.6958 4.081414,0 0,-3.6958 z m 10.926621,0 0,3.6958 4.081414,0 0,-3.6958 z m 5.431173,0 0,3.6958 4.113551,0 0,-3.6958 z m 5.46331,0 0,3.6958 4.081414,0 0,-3.6958 z m -32.7477239,4.0814 0,3.7279 4.1135509,0 0,-3.7279 z m 5.4633099,0 0,3.7279 4.113551,0 0,-3.7279 z m 5.46331,0 0,3.7279 4.081414,0 0,-3.7279 z m 5.46331,0 0,3.7279 4.081415,0 0,-3.7279 z m 5.463311,0 0,3.7279 4.081414,0 0,-3.7279 z m 5.431173,0 0,3.7279 4.113551,0 0,-3.7279 z m 5.46331,0 0,3.7279 4.081414,0 0,-3.7279 z m 5.46331,0 0,3.7279 4.081414,0 0,-3.7279 z m -38.2110339,4.1135 0,3.6958 4.1135509,0 0,-3.6958 z m 5.4633099,0 0,3.6958 4.113551,0 0,-3.6958 z m 5.46331,0 0,3.6958 4.081414,0 0,-3.6958 z m 5.46331,0 0,3.6958 4.081415,0 0,-3.6958 z m 5.463311,0 0,3.6958 4.081414,0 0,-3.6958 z m 5.431173,0 0,3.6958 4.113551,0 0,-3.6958 z m 5.46331,0 0,3.6958 4.081414,0 0,-3.6958 z m 5.46331,0 0,3.6958 4.081414,0 0,-3.6958 z m -38.2110339,4.0815 0,3.6957 4.1135509,0 0,-3.6957 z m 5.4633099,0 0,3.6957 4.113551,0 0,-3.6957 z m 5.46331,0 0,3.6957 4.081414,0 0,-3.6957 z m 5.46331,0 0,3.6957 4.081415,0 0,-3.6957 z m 5.495448,0 0,3.6957 4.081414,0 0,-3.6957 z m 5.399036,0 0,3.6957 4.113551,0 0,-3.6957 z m 5.46331,0 0,3.6957 4.081414,0 0,-3.6957 z m 5.46331,0 0,3.6957 4.081414,0 0,-3.6957 z m 5.46331,0 0,3.6957 2.828066,0 c 0.484281,-1.0372 0.909054,-2.1067 1.253348,-3.2137 l 0,-0.482 z m -43.5779325,4.0814 c 0.6375195,1.3078 1.3761105,2.5559 2.2174615,3.7279 l 1.799678,0 0,-3.7279 z m 5.3668985,0 0,3.7279 4.113551,0 0,-3.7279 z m 5.46331,0 0,3.7279 4.081414,0 0,-3.7279 z m 5.46331,0 0,3.7279 4.081415,0 0,-3.7279 z m 5.495448,0 0,3.7279 4.081414,0 0,-3.7279 z m 5.399036,0 0,3.7279 4.113551,0 0,-3.7279 z m 5.46331,0 0,3.7279 4.081414,0 0,-3.7279 z m 5.46331,0 0,3.7279 4.081414,0 0,-3.7279 z m 5.46331,0 0,3.7279 0.417783,0 c 0.84135,-1.172 1.579941,-2.4201 2.217461,-3.7279 z m -41.103374,4.1135 c 0.483092,0.6483 1.001844,1.2648 1.542581,1.864 l 0,-1.864 z m 2.89234,0 0,3.2459 c 0.159789,0.1523 0.318391,0.3017 0.482057,0.4499 l 3.631494,0 0,-3.6958 z m 5.46331,0 0,3.6958 4.081414,0 0,-3.6958 z m 5.46331,0 0,3.6958 4.081415,0 0,-3.6958 z m 5.495448,0 0,3.6958 4.081414,0 0,-3.6958 z m 5.399036,0 0,3.6958 4.113551,0 0,-3.6958 z m 5.46331,0 0,3.6958 4.081414,0 0,-3.6958 z m 5.46331,0 0,3.6958 2.249598,0 c 0.643433,-0.5828 1.250192,-1.1874 1.831816,-1.8318 l 0,-1.864 z m 5.46331,0 0,0.1929 c 0.05048,-0.066 0.110834,-0.126 0.160686,-0.1929 z m -37.279057,4.0814 c 0.995582,0.8609 2.061272,1.6443 3.181574,2.3461 l 0,-2.3461 z m 4.531333,0 0,3.1173 c 0.355485,0.1939 0.695125,0.4012 1.060525,0.5785 l 3.020889,0 0,-3.6958 z m 5.46331,0 0,3.6958 4.081415,0 0,-3.6958 z m 5.495448,0 0,3.6958 4.081414,0 0,-3.6958 z m 5.399036,0 0,3.6958 4.113551,0 0,-3.6958 z m 5.46331,0 0,3.6958 1.67113,0 c 0.832109,-0.4038 1.631257,-0.8617 2.410284,-1.3497 l 0,-2.3461 z m 5.46331,0 0,1.4141 c 0.619755,-0.4465 1.223012,-0.9154 1.799678,-1.4141 z m -25.356187,4.0815 c 0.704685,0.3106 1.417027,0.588 2.153187,0.8355 l 0,-0.8355 z m 3.535083,0 0,1.2854 c 1.322092,0.3622 2.68339,0.6241 4.081415,0.7713 l 0,-2.0567 z m 5.495448,0 0,2.1531 c 0.438201,0.022 0.873901,0.032 1.317622,0.032 0.931131,0 1.858271,-0.032 2.763792,-0.1286 l 0,-2.0567 z m 5.399036,0 0,1.8639 c 1.414544,-0.2255 2.785912,-0.5821 4.113551,-1.0284 l 0,-0.8355 z m 5.46331,0 0,0.3213 c 0.268354,-0.1076 0.539633,-0.2051 0.803428,-0.3213 z"
       id="rect7666-1"
       inkscape:connector-curvature="0"
       sodipodi:nodetypes="cccccccccccccccccccccccccccccccccccccccccccccccccccccccccccccccccccccccccccccccccccccccccccccccccccccccccccccccccccccccccccccccccccccccccccccccccccccccccccccccccccccccccccccccccccccccccccccccccccccccccccccccccccccccccccccccccccccccccccccccccccccccccccccccccccccccccccccccccccccccccccccccccccccccccccccccccccccccccccccccccccccccccccccccccccccccccccccccccccccscccccccccccc" />
    <path
       sodipodi:type="arc"
       style="fill:none;fill-opacity:1;stroke:#334f73;stroke-width:0.88873994000000001;stroke-linecap:square;stroke-miterlimit:4;stroke-opacity:1;stroke-dasharray:none"
       id="path9436"
       sodipodi:cx="28.41054"
       sodipodi:cy="26.876894"
       sodipodi:rx="23.107239"
       sodipodi:ry="23.107239"
       d="m 51.517778,26.876894 c 0,12.761776 -10.345463,23.107239 -23.107238,23.107239 -12.761776,0 -23.1072391,-10.345463 -23.1072391,-23.107239 0,-12.761776 10.3454631,-23.1072388 23.1072391,-23.1072388 12.761775,0 23.107238,10.3454628 23.107238,23.1072388 z"
       transform="matrix(1.1251885,0,0,1.1251885,0.03278753,990.12061)" />
    <path
       id="path8826"
       style="fill:#eeeeee;fill-opacity:1;stroke:#334f73;stroke-width:0.99999994;stroke-opacity:1"
       d="m 57.079014,1025.5909 -1.35759,-1.328 -3.647905,-3.2748 c 0,0 -0.07666,-2.056 -0.41454,-3.0258 -0.389816,-1.1192 -1.014734,-2.2064 -1.782495,-3.109 -0.718068,-0.8442 -1.584675,-1.5653 -2.570117,-2.0725 -1.000568,-0.515 -3.274813,-0.912 -3.274813,-0.912 l 1.782495,-1.2436 c 0,0 -2.567735,0.3891 -3.813718,0.7048 -0.562784,0.1426 -1.124255,0.3107 -1.65814,0.5388 -0.495476,0.2117 -0.900556,0.6105 -1.409413,0.7876 -0.757075,0.2634 -1.616408,0.1221 -2.362846,0.4145 -0.67814,0.2655 -1.211956,0.766 -1.823953,1.1606 -0.552648,0.3564 -1.044644,0.8411 -1.658141,1.0778 -1.306645,0.5042 -2.751467,0.5677 -4.145341,0.7047 -2.476555,0.2431 -4.986088,-0.046 -7.461613,0.2073 -0.916878,0.094 -1.845843,0.2582 -2.735929,0.4974 -0.406295,0.1087 -0.863323,0.1651 -1.202152,0.4145 -1.984265,1.4602 -3.398001,3.6713 -4.476976,5.8861 -0.258874,0.5314 -0.381728,1.113 -0.455988,1.6995 -0.07931,0.6266 0,1.9067 0,1.9067 0,0 0.675738,-0.061 0.994883,0 0.20877,0.04 0.403001,0.1313 0.580352,0.2487 0.503847,0.3331 0.848353,0.8678 1.285058,1.2851 0.407286,0.3892 0.688404,1.0237 1.243601,1.1191 0.512886,0.089 0.961325,-0.4038 1.45087,-0.5803 0.426598,-0.1538 0.850716,-0.2965 1.285059,-0.4145 0.368798,-0.1 0.739115,-0.2884 1.119246,-0.2487 0.498171,0.052 0.909741,0.4196 1.367955,0.6218 0.770152,0.34 1.566529,0.6221 2.321398,0.9948 0.45489,0.2246 0.835737,0.6177 1.326507,0.7462 0.641612,0.168 1.333653,-0.097 1.989764,0 3.25609,0.4819 6.285498,1.9593 9.451388,2.8601 0.825276,0.2349 1.732478,0.2378 2.48721,0.6632 0.620242,0.3496 1.066858,0.9523 1.575225,1.4508 0.298979,0.2933 0.870528,0.912 0.870528,0.912 l 4.63274,5.0095 c 0,0 8.2903,-7.5105 10.377646,-10.5027 0.677209,-0.9355 0.109746,-5.1997 0.109745,-5.1997 z"
       inkscape:connector-curvature="0"
       sodipodi:nodetypes="cccsssccsssssssssssscccscsaaaaaaasscccc" />
    <path
       style="fill:#eeeeee;fill-opacity:1;stroke:url(#linearGradient8610);stroke-width:0.60000002;stroke-miterlimit:4;stroke-opacity:1;stroke-dasharray:none"
       d="m 42.455506,1019.1852 3.095777,-14.7968 c 0,0 0.207838,-0.3507 0.382904,-0.4283 0.859569,-0.3807 1.90182,-0.1801 2.820531,0.02 0.898448,0.2015 1.908133,0.4425 2.520444,1.1298 0.10466,0.1168 0.141785,0.4493 0.141785,0.4493 l -3.058505,14.619 c 0,0 -0.795063,0.488 -1.24215,0.5869 -0.673728,0.149 -1.393678,0.1274 -2.070161,-0.013 -0.521042,-0.1088 -1.022125,-0.3318 -1.475428,-0.6112 -0.417618,-0.2567 -1.115207,-0.9592 -1.115207,-0.9592 z"
       id="path3774"
       inkscape:connector-curvature="0"
       sodipodi:nodetypes="ccaaaccaaacc" />
    <path
       sodipodi:type="arc"
       style="fill:#eeeeee;fill-opacity:1;stroke:url(#linearGradient8614);stroke-width:0.46209267;stroke-miterlimit:4;stroke-opacity:1;stroke-dasharray:none"
       id="path3772"
       sodipodi:cx="33.660713"
       sodipodi:cy="21.973215"
       sodipodi:rx="5.5803571"
       sodipodi:ry="5.5803571"
       d="m 39.24107,21.973215 c 0,3.081946 -2.498411,5.580357 -5.580357,5.580357 -3.081946,0 -5.580357,-2.498411 -5.580357,-5.580357 0,-3.081946 2.498411,-5.580357 5.580357,-5.580357 3.081946,0 5.580357,2.498411 5.580357,5.580357 z"
       transform="matrix(1.2984704,0,0,1.2984113,1.6550851,989.03205)" />
    <path
       style="fill:#eeeeee;fill-opacity:1;stroke:none"
       d="m 46.556108,1040.5174 1.433769,1.5423 c 0,0 0.719229,-0.6537 1.123924,-0.9192 0.959414,-0.6293 2.164625,-0.8586 3.060279,-1.5759 0.939857,-0.7526 1.604037,-1.8009 2.315792,-2.772 0.687795,-0.9384 1.316458,-1.9229 1.880595,-2.9406 0.565932,-1.0207 1.147799,-2.0508 1.502308,-3.1628 0.33646,-1.0554 0.574616,-3.2731 0.574616,-3.2731 l -2.00353,-1.7412 -3.122468,7.7101 -5.238246,5.1689 z"
       id="path3848"
       inkscape:connector-curvature="0"
       sodipodi:nodetypes="ccaaaaaccccc" />
    <path
       sodipodi:type="arc"
       style="fill:#eeeeee;fill-opacity:1;stroke:url(#linearGradient8612);stroke-width:1.1473341;stroke-miterlimit:4;stroke-opacity:1;stroke-dasharray:none"
       id="path3772-0"
       sodipodi:cx="33.660713"
       sodipodi:cy="21.973215"
       sodipodi:rx="5.5803571"
       sodipodi:ry="5.5803571"
       d="m 39.24107,21.973215 c 0,3.081946 -2.498411,5.580357 -5.580357,5.580357 -3.081946,0 -5.580357,-2.498411 -5.580357,-5.580357 0,-3.081946 2.498411,-5.580357 5.580357,-5.580357 3.081946,0 5.580357,2.498411 5.580357,5.580357 z"
       transform="matrix(-0.50514379,0.1353467,-0.13535287,-0.50512077,65.340162,1024.1057)" />
  </g>
</svg>
