<?xml version="1.0" encoding="UTF-8" standalone="no"?>
<!-- Created with Inkscape (http://www.inkscape.org/) -->

<svg
   xmlns:dc="http://purl.org/dc/elements/1.1/"
   xmlns:cc="http://creativecommons.org/ns#"
   xmlns:rdf="http://www.w3.org/1999/02/22-rdf-syntax-ns#"
   xmlns:svg="http://www.w3.org/2000/svg"
   xmlns="http://www.w3.org/2000/svg"
   xmlns:xlink="http://www.w3.org/1999/xlink"
   xmlns:sodipodi="http://sodipodi.sourceforge.net/DTD/sodipodi-0.dtd"
   xmlns:inkscape="http://www.inkscape.org/namespaces/inkscape"
   version="1.0"
   width="64"
   height="64"
   id="svg4569"
   inkscape:version="0.48.4 r9939"
   sodipodi:docname="gnome-screenshot.svg">
  <metadata
     id="metadata54">
    <rdf:RDF>
      <cc:Work
         rdf:about="">
        <dc:format>image/svg+xml</dc:format>
        <dc:type
           rdf:resource="http://purl.org/dc/dcmitype/StillImage" />
        <dc:title />
      </cc:Work>
    </rdf:RDF>
  </metadata>
  <sodipodi:namedview
     pagecolor="#ffffff"
     bordercolor="#666666"
     borderopacity="1"
     objecttolerance="10"
     gridtolerance="10"
     guidetolerance="10"
     inkscape:pageopacity="0"
     inkscape:pageshadow="2"
     inkscape:window-width="1181"
     inkscape:window-height="726"
     id="namedview52"
     showgrid="false"
     inkscape:zoom="4.984375"
     inkscape:cx="33.766224"
     inkscape:cy="38.173327"
     inkscape:window-x="65"
     inkscape:window-y="23"
     inkscape:window-maximized="0"
     inkscape:current-layer="svg4569" />
  <defs
     id="defs4571">
    <linearGradient
       id="linearGradient5044">
      <stop
         style="stop-color:#000000;stop-opacity:1;"
         offset="0"
         id="stop5046" />
      <stop
         style="stop-color:#000000;stop-opacity:0;"
         offset="1"
         id="stop5048" />
    </linearGradient>
    <linearGradient
       id="linearGradient5016">
      <stop
         style="stop-color:#fafafa;stop-opacity:1;"
         offset="0"
         id="stop5018" />
      <stop
         id="stop5024"
         offset="0.94462717"
         style="stop-color:#f5f5f5;stop-opacity:1;" />
      <stop
         style="stop-color:#b8b8b8;stop-opacity:1;"
         offset="1"
         id="stop5020" />
    </linearGradient>
    <linearGradient
       id="linearGradient3924">
      <stop
         id="stop3926"
         style="stop-color:#5a5a5a;stop-opacity:1;"
         offset="0" />
      <stop
         id="stop3928"
         style="stop-color:#8c8c8c;stop-opacity:1"
         offset="0.35046947" />
      <stop
         id="stop3930"
         style="stop-color:#969696;stop-opacity:1"
         offset="0.50989443" />
      <stop
         id="stop3932"
         style="stop-color:#aaaaaa;stop-opacity:1"
         offset="0.61998242" />
      <stop
         id="stop3934"
         style="stop-color:#6e6e6e;stop-opacity:1;"
         offset="1" />
    </linearGradient>
    <linearGradient
       id="linearGradient3912">
      <stop
         id="stop3914"
         style="stop-color:#c4c4c4;stop-opacity:1;"
         offset="0" />
      <stop
         id="stop3916"
         style="stop-color:#f8f8f8;stop-opacity:1;"
         offset="0.35046947" />
      <stop
         id="stop3918"
         style="stop-color:#ffffff;stop-opacity:1;"
         offset="0.49417919" />
      <stop
         id="stop3920"
         style="stop-color:#ffffff;stop-opacity:1;"
         offset="0.58907253" />
      <stop
         id="stop3922"
         style="stop-color:#c7c7c7;stop-opacity:1;"
         offset="1" />
    </linearGradient>
    <linearGradient
       id="linearGradient3342">
      <stop
         id="stop3344"
         style="stop-color:#ffffff;stop-opacity:0"
         offset="0" />
      <stop
         id="stop3346"
         style="stop-color:#ffffff;stop-opacity:1"
         offset="1" />
    </linearGradient>
    <linearGradient
       x1="15.573899"
       y1="46.971004"
       x2="23.578077"
       y2="46.971004"
       id="linearGradient2448"
       xlink:href="#linearGradient3342"
       gradientUnits="userSpaceOnUse"
       gradientTransform="matrix(1.6645081,0,0,1.4524593,-7.2459,-10.181359)"
       spreadMethod="reflect" />
    <linearGradient
       x1="361.10583"
       y1="87.050117"
       x2="361.10583"
       y2="94.396416"
       id="linearGradient2451"
       xlink:href="#linearGradient3912"
       gradientUnits="userSpaceOnUse"
       gradientTransform="matrix(1.425799,0,0,1.4528618,-478.67595,-78.161779)" />
    <linearGradient
       x1="61.968769"
       y1="35.944077"
       x2="61.968769"
       y2="43.378311"
       id="linearGradient2453"
       xlink:href="#linearGradient3924"
       gradientUnits="userSpaceOnUse"
       gradientTransform="matrix(1.4309376,0,0,1.4526529,-56.718186,-4.0580066)" />
    <linearGradient
       inkscape:collect="always"
       xlink:href="#linearGradient5016"
       id="linearGradient5022"
       x1="31.075314"
       y1="6.0645385"
       x2="31.075314"
       y2="45.38065"
       gradientUnits="userSpaceOnUse"
       gradientTransform="matrix(0.93971561,0,0,1.0049021,1.9760877,-0.12500423)" />
    <radialGradient
       inkscape:collect="always"
       xlink:href="#linearGradient5044"
       id="radialGradient5050"
       cx="32.802509"
       cy="61.712757"
       fx="32.802509"
       fy="61.712757"
       r="23.133492"
       gradientTransform="matrix(1,0,0,0.24114963,0,44.455786)"
       gradientUnits="userSpaceOnUse" />
    <filter
       inkscape:collect="always"
       id="filter5056"
       x="-0.039170169"
       width="1.0783403"
       y="-0.18818712"
       height="1.3763742">
      <feGaussianBlur
         inkscape:collect="always"
         stdDeviation="0.72364534"
         id="feGaussianBlur5058" />
    </filter>
    <radialGradient
       inkscape:collect="always"
       xlink:href="#linearGradient3995-6"
       id="radialGradient3306-3"
       gradientUnits="userSpaceOnUse"
       gradientTransform="matrix(0.25991104,0,1.8824434e-8,0.10918036,29.018869,-74.835751)"
       cx="251.5094"
       cy="938.44238"
       fx="251.5094"
       fy="938.44238"
       r="192.44753" />
    <linearGradient
       id="linearGradient3995-6">
      <stop
         style="stop-color:#ffffff;stop-opacity:1;"
         offset="0"
         id="stop3997-2" />
      <stop
         style="stop-color:#8d8d8d;stop-opacity:0;"
         offset="1"
         id="stop3999-1" />
    </linearGradient>
    <linearGradient
       id="linearGradient4507">
      <stop
         style="stop-color:#7f7f7f;stop-opacity:0.09677419;"
         offset="0"
         id="stop4509" />
      <stop
         style="stop-color:#353535;stop-opacity:0.60645163;"
         offset="1"
         id="stop4511" />
    </linearGradient>
    <radialGradient
       inkscape:collect="always"
       xlink:href="#linearGradient4507"
       id="radialGradient4850"
       gradientUnits="userSpaceOnUse"
       gradientTransform="matrix(0.96428602,0,0,0.66488519,3.3754207,2.6498789)"
       cx="94.512329"
       cy="7.9073763"
       fx="94.512329"
       fy="7.9073763"
       r="26.126562" />
    <radialGradient
       inkscape:collect="always"
       xlink:href="#linearGradient10695-4"
       id="radialGradient6891-0"
       gradientUnits="userSpaceOnUse"
       gradientTransform="matrix(0.44780208,0,0,0.44744087,-48.483529,-63.026721)"
       cx="171.25"
       cy="188.5"
       fx="171.25"
       fy="188.5"
       r="19" />
    <linearGradient
       id="linearGradient10695-4">
      <stop
         id="stop10697-3"
         style="stop-color:#b100cb;stop-opacity:1"
         offset="0" />
      <stop
         id="stop10699-9"
         style="stop-color:#204a87;stop-opacity:0"
         offset="1" />
    </linearGradient>
    <radialGradient
       cx="258.76035"
       cy="183.6442"
       r="18.578125"
       fx="258.76035"
       fy="183.6442"
       id="radialGradient5891-8"
       xlink:href="#linearGradient9688-8"
       gradientUnits="userSpaceOnUse"
       gradientTransform="matrix(0.33419833,-0.00451324,0.0034335,0.25392129,-50.524859,-18.910854)" />
    <linearGradient
       id="linearGradient9688-8">
      <stop
         id="stop9690-0"
         style="stop-color:#eeeeec;stop-opacity:1"
         offset="0" />
      <stop
         id="stop9692-9"
         style="stop-color:#ffffff;stop-opacity:0"
         offset="1" />
    </linearGradient>
    <radialGradient
       inkscape:collect="always"
       xlink:href="#linearGradient9785-6"
       id="radialGradient6889-1"
       gradientUnits="userSpaceOnUse"
       gradientTransform="matrix(0.0782,-0.31602747,0.48589317,0.1229661,-64.760977,87.655936)"
       cx="251.69016"
       cy="171.7894"
       fx="251.69016"
       fy="171.7894"
       r="21.53125" />
    <linearGradient
       id="linearGradient9785-6">
      <stop
         id="stop9787-1"
         style="stop-color:#eeeeec;stop-opacity:1"
         offset="0" />
      <stop
         id="stop9789-6"
         style="stop-color:#090908;stop-opacity:0.96621621"
         offset="1" />
    </linearGradient>
    <linearGradient
       x1="236.75015"
       y1="171.61981"
       x2="222.73204"
       y2="179.03932"
       id="linearGradient5898-4"
       xlink:href="#linearGradient9688-8"
       gradientUnits="userSpaceOnUse"
       gradientTransform="matrix(0.20854108,0,0,0.20063692,-18.585399,-9.9670949)" />
    <radialGradient
       cx="434.12521"
       cy="98.974625"
       r="74.907745"
       fx="434.12521"
       fy="98.974625"
       id="radialGradient5837-0"
       xlink:href="#linearGradient8660-4"
       gradientUnits="userSpaceOnUse"
       gradientTransform="matrix(-0.2256601,0.23140329,-0.29848764,-0.30608529,159.22763,-50.886864)" />
    <linearGradient
       id="linearGradient8660-4">
      <stop
         id="stop8662-8"
         style="stop-color:#2e3436;stop-opacity:1"
         offset="0" />
      <stop
         id="stop8664-4"
         style="stop-color:#555753;stop-opacity:0"
         offset="1" />
    </linearGradient>
    <radialGradient
       cx="441.3573"
       cy="130.89047"
       r="75.756241"
       fx="441.3573"
       fy="130.89047"
       id="radialGradient5839-7"
       xlink:href="#linearGradient8690-7"
       gradientUnits="userSpaceOnUse"
       gradientTransform="matrix(-0.01932792,-0.13351335,0.43815059,-0.06669848,-17.099041,86.186966)" />
    <linearGradient
       id="linearGradient8690-7">
      <stop
         id="stop8692-2"
         style="stop-color:#3a3a3a;stop-opacity:1"
         offset="0" />
      <stop
         id="stop8694-5"
         style="stop-color:#3a3a3a;stop-opacity:0"
         offset="1" />
    </linearGradient>
    <radialGradient
       r="74.907745"
       fy="131.83463"
       fx="469.91165"
       cy="131.83463"
       cx="469.91165"
       gradientTransform="matrix(-0.21106705,-0.20632529,0.18485701,-0.1957629,111.96208,136.31727)"
       gradientUnits="userSpaceOnUse"
       id="radialGradient4905"
       xlink:href="#linearGradient8660-4"
       inkscape:collect="always" />
  </defs>
  <path
     sodipodi:type="arc"
     style="opacity:0.4;fill:url(#radialGradient5050);fill-opacity:1;stroke:none;filter:url(#filter5056)"
     id="path5038"
     sodipodi:cx="33.003136"
     sodipodi:cy="58.583073"
     sodipodi:rx="20.363636"
     sodipodi:ry="4.6144199"
     d="m 53.366772,58.583073 a 20.363636,4.6144199 0 1 1 -40.727272,0 20.363636,4.6144199 0 1 1 40.727272,0 z"
     transform="matrix(1.0874376,0,0,0.86873726,-3.8888507,7.6227094)" />
  <path
     d="m 23.21322,42.776689 c 0,0 0.202867,11.100414 -0.808972,12.542061 -1.011839,1.441649 -5.199975,1.634017 -5.199975,1.634017 -1.291976,0.151456 -1.302664,2.179628 0,2.179628 l 29.591352,0 c 1.302664,0 1.292246,-2.030105 0,-2.179628 0,0 -4.188153,-0.192372 -5.199978,-1.634017 -1.011824,-1.441644 -0.809072,-12.542061 -0.809072,-12.542061 z"
     id="rect1789"
     style="fill:url(#linearGradient2451);fill-opacity:1;fill-rule:nonzero;stroke:url(#linearGradient2453);stroke-width:0.5;stroke-linecap:round;stroke-linejoin:round;stroke-miterlimit:4;stroke-opacity:1;stroke-dasharray:none;stroke-dashoffset:0.50000001;marker:none;visibility:visible;display:inline;overflow:visible;enable-background:new"
     inkscape:connector-curvature="0"
     sodipodi:nodetypes="cscsscscc" />
  <path
     d="m 19.509234,58.042111 24.981532,0"
     id="path3340"
     style="fill:none;stroke:url(#linearGradient2448);stroke-width:1px;stroke-linecap:square;stroke-linejoin:miter;stroke-opacity:1"
     inkscape:connector-curvature="0" />
  <rect
     width="57.698536"
     height="40.698536"
     rx="3.0145864"
     ry="3.0147061"
     x="3.1507323"
     y="5.1507325"
     id="rect2722"
     style="fill:url(#linearGradient5022);fill-opacity:1;stroke:#5b5b5b;stroke-width:0.30146465;stroke-linecap:round;stroke-linejoin:round;stroke-miterlimit:4;stroke-opacity:1;stroke-dasharray:none;stroke-dashoffset:0.50000001" />
  <rect
     style="fill:#69ff75;fill-opacity:1;stroke:none"
     id="rect3853"
     width="2"
     height="1"
     x="31"
     y="43.400002" />
  <g
     id="g4811"
     transform="matrix(1.0717053,0,0,0.97614998,-69.289387,17.324353)">
    <rect
       ry="2.0909734"
       rx="1.9503173"
       y="-9.5521727"
       x="68.385811"
       height="34.742329"
       width="52.253124"
       id="rect2996-6-4"
       style="opacity:0.5;fill:url(#radialGradient3306-3);fill-opacity:1;stroke:none" />
    <rect
       ry="2.0909734"
       rx="1.9503173"
       y="-9.5521727"
       x="69.318886"
       height="34.742329"
       width="50.386955"
       id="rect2996-6"
       style="fill:#838383;fill-opacity:1;stroke:none" />
    <rect
       ry="2.0909734"
       rx="1.9503173"
       y="-9.463788"
       x="69.318855"
       height="34.742329"
       width="50.386955"
       id="rect2996-6-5"
       style="fill:url(#radialGradient4850);fill-opacity:1;stroke:none" />
    <path
       style="font-size:medium;font-style:normal;font-variant:normal;font-weight:normal;font-stretch:normal;text-indent:0;text-align:start;text-decoration:none;line-height:normal;letter-spacing:normal;word-spacing:normal;text-transform:none;direction:ltr;block-progression:tb;writing-mode:lr-tb;text-anchor:start;baseline-shift:baseline;color:#000000;fill:#ffffff;fill-opacity:1;stroke:none;stroke-width:0.97769648;marker:none;visibility:visible;display:inline;overflow:visible;enable-background:accumulate;font-family:Sans;-inkscape-font-specification:Sans"
       d="m 8,12 0,0.5 0,3.5 0.9999999,0 0,-3 L 12,13 12,12 8.53125,12 z m 44,0 0,1 3,0 0,3 1,0 0,-3.5 0,-0.5 -0.53125,0 z M 8,34 8,37.5 8,38 8.53125,38 12,38 l 0,-0.999999 -3.0000001,0 0,-3.000001 z m 47,0 0,3.000001 -3,0 L 52,38 55.46875,38 56,38 56,37.5 56,34 z"
       transform="matrix(0.93309233,0,0,1.0244327,64.653396,-17.747634)"
       id="rect4729"
       inkscape:connector-curvature="0"
       sodipodi:nodetypes="cccccccccccccccccccccccccccccccccccc" />
  </g>
  <path
     inkscape:connector-curvature="0"
     d="m 40.333338,25.957312 a 8.6619055,9.005755 0 0 1 -17.323809,0 8.6619055,9.005755 0 1 1 17.323809,0 z"
     id="path5479-1"
     style="opacity:0.53960422;fill:url(#radialGradient4905);fill-opacity:1;fill-rule:nonzero;stroke:none" />
  <path
     inkscape:connector-curvature="0"
     d="m 40.246128,26.786416 a 8.5259483,8.1438338 0 0 1 -17.051894,0 8.5259483,8.1438338 0 1 1 17.051894,0 z"
     id="path5481-6"
     style="fill:url(#radialGradient5837-0);fill-opacity:1;fill-rule:nonzero;stroke:url(#radialGradient5839-7);stroke-width:0.14849521;stroke-linecap:round;stroke-linejoin:round;stroke-miterlimit:4;stroke-opacity:1;stroke-dasharray:none" />
  <path
     inkscape:connector-curvature="0"
     d="m 40.316586,25.169918 a 8.6582931,8.651308 0 0 1 -17.316586,0 8.6582931,8.651308 0 1 1 17.316586,0 z"
     id="path5485-5"
     style="fill:#2e3436;fill-opacity:1;fill-rule:nonzero;stroke:none" />
  <path
     inkscape:connector-curvature="0"
     d="m 30.554839,21.869474 c -0.127637,0.03982 -0.249951,0.08633 -0.371463,0.137941 0.121369,-0.05196 0.243947,-0.09782 0.371463,-0.137941 z m 2.658898,0.07523 c 0.05257,0.01973 0.104982,0.04078 0.156412,0.06271 -0.05163,-0.02195 -0.103625,-0.04286 -0.156412,-0.06271 z m -3.466996,0.282149 c -0.08504,0.04905 -0.16695,0.101864 -0.247641,0.156754 0.08008,-0.05489 0.163273,-0.10756 0.247641,-0.156754 z M 29.4991,22.383607 c -0.09706,0.06601 -0.19,0.13296 -0.280227,0.206911 0.08906,-0.07324 0.18457,-0.141343 0.280227,-0.206911 z m 4.920261,0.282144 c 0.05575,0.04863 0.110165,0.09891 0.162928,0.150492 -0.05274,-0.05139 -0.107204,-0.102038 -0.162928,-0.150492 z m -5.298242,0.01258 c -0.07154,0.06273 -0.14205,0.12677 -0.208534,0.194359 0.06666,-0.06776 0.136916,-0.131381 0.208534,-0.194359 z m -0.208534,0.194359 c -0.506788,0.515104 -0.865599,1.16347 -1.003604,1.887252 -3.85e-4,0.0021 3.88e-4,0.0042 0,0.0064 l 0,1.335486 c 0.209077,1.106959 0.927547,2.042339 1.915969,2.583199 l 3.903628,0 c 0.947035,-0.518221 1.642557,-1.39856 1.883385,-2.445266 l 0,-0.01258 0,-1.586289 c -0.107154,-0.473171 -0.304881,-0.915835 -0.580002,-1.304144 -0.214012,-0.275437 -0.461614,-0.475112 -0.729894,-0.5831 l -5.239592,0 c -0.05276,0.03923 -0.10133,0.07861 -0.149897,0.119126 z m -1.003604,3.229006 c -0.02024,-0.107463 -0.03475,-0.214974 -0.04563,-0.326034 0.01061,0.110692 0.02527,0.218303 0.04563,0.326034 z m 0,-1.335486 c -0.02048,0.107955 -0.03514,0.215097 -0.04563,0.326034 0.01086,-0.109534 0.02532,-0.218648 0.04563,-0.326034 z m 6.849266,-1.774384 c 0.03818,0.04246 0.0746,0.08759 0.110782,0.131677 -0.03672,-0.04463 -0.07204,-0.08867 -0.110782,-0.131677 z m -4.249021,5.987754 c 0.07937,0.02584 0.159571,0.04794 0.241134,0.06897 -0.08159,-0.02121 -0.161719,-0.04303 -0.241134,-0.06897 z m 2.535076,0 c -0.07979,0.02594 -0.159127,0.04784 -0.241134,0.06897 0.08156,-0.02096 0.161768,-0.04313 0.241134,-0.06897 z"
     id="path5487-6"
     style="opacity:0.23267326;fill:url(#linearGradient5898-4);fill-opacity:1;fill-rule:nonzero;stroke:none" />
  <path
     inkscape:connector-curvature="0"
     d="m 27.299121,19.402381 c -1.030027,0.739645 -1.856964,1.737014 -2.375058,2.886241 l 0,5.663749 c 0.542486,1.204144 1.422383,2.235384 2.521668,2.985087 l 8.522856,0 c 1.037557,-0.708518 1.877418,-1.66846 2.423929,-2.787396 l 0,-6.049243 c -0.52221,-1.069858 -1.312157,-1.999897 -2.287096,-2.698438 l -8.806299,0 z"
     id="path5489-3"
     style="opacity:0.37556559;fill:url(#radialGradient6889-1);fill-opacity:1;fill-rule:nonzero;stroke:none" />
  <path
     inkscape:connector-curvature="0"
     d="m 30.569172,21.775666 c -0.126082,0.04034 -0.246925,0.08746 -0.366964,0.13974 0.119888,-0.05262 0.24101,-0.0991 0.366964,-0.13974 z m 2.62668,0.07622 c 0.05192,0.01997 0.1037,0.04133 0.154513,0.06352 -0.05101,-0.02219 -0.102367,-0.04342 -0.154513,-0.06352 z m -3.424988,0.285832 c -0.084,0.04969 -0.164926,0.103197 -0.244638,0.158802 0.07909,-0.0556 0.161299,-0.108991 0.244638,-0.158802 z m -0.244638,0.158802 c -0.09588,0.06687 -0.187705,0.134685 -0.276831,0.209623 0.088,-0.0742 0.18235,-0.143193 0.276831,-0.209623 z m 4.860649,0.285827 c 0.05508,0.04927 0.108832,0.100188 0.160953,0.15244 -0.0521,-0.05205 -0.105896,-0.103394 -0.160953,-0.15244 z m -5.234047,0.01282 c -0.07068,0.06357 -0.140322,0.128447 -0.206016,0.196899 0.06587,-0.06865 0.135263,-0.133083 0.206016,-0.196899 z m -0.206016,0.196899 c -0.500648,0.521825 -0.855113,1.178667 -0.991445,1.9119 -3.8e-4,0.0021 3.8e-4,0.0044 0,0.0064 l 0,1.352938 c 0.206535,1.121425 0.916309,2.069025 1.892753,2.616955 l 3.856329,0 c 0.935561,-0.524985 1.622657,-1.416827 1.860568,-2.477212 l 0,-0.01282 0,-1.607017 C 35.459146,24.103865 35.263828,23.655419 34.992041,23.262035 34.78062,22.982998 34.536022,22.780716 34.270992,22.671316 l -5.176109,0 c -0.05212,0.03975 -0.100121,0.07965 -0.148071,0.120679 z m -0.991445,3.271191 c -0.01999,-0.108843 -0.03433,-0.217785 -0.04506,-0.330294 0.01036,0.112147 0.02497,0.221163 0.04506,0.330294 z m 0,-1.352939 c -0.02024,0.109361 -0.03472,0.217908 -0.04506,0.330297 0.01061,-0.110963 0.025,-0.221508 0.04506,-0.330297 z m 6.766277,-1.797568 c 0.03771,0.04301 0.07369,0.08875 0.109449,0.133379 -0.03625,-0.04522 -0.07117,-0.08983 -0.109449,-0.133379 z m -4.197537,6.066006 c 0.0784,0.02619 0.157646,0.04855 0.238197,0.06986 -0.08063,-0.02145 -0.159744,-0.0436 -0.238197,-0.06986 z m 2.504358,0 c -0.07882,0.02629 -0.157177,0.04848 -0.238197,0.06986 0.08055,-0.02121 0.159794,-0.04369 0.238197,-0.06986 z"
     id="path5491-8"
     style="fill:#2e3436;fill-opacity:1;fill-rule:nonzero;stroke:none" />
  <path
     inkscape:connector-curvature="0"
     d="m 30.184012,20.057513 c -0.161496,0.05235 -0.316272,0.113479 -0.470027,0.18129 0.15355,-0.06826 0.308687,-0.12857 0.470027,-0.18129 z m 3.364403,0.09891 c 0.06651,0.02604 0.132819,0.05361 0.197897,0.08241 -0.06535,-0.02883 -0.131117,-0.05632 -0.197897,-0.08241 z m -4.386917,0.370833 c -0.107623,0.06446 -0.211273,0.133896 -0.313351,0.206023 0.10133,-0.07215 0.206584,-0.141368 0.313351,-0.206023 z m -0.313351,0.206023 c -0.122825,0.08677 -0.240418,0.174755 -0.354583,0.271947 0.112706,-0.09624 0.233557,-0.185778 0.354583,-0.271947 z m 6.22579,0.370831 c 0.07056,0.06392 0.139409,0.129975 0.206164,0.197787 -0.06673,-0.06752 -0.135633,-0.134143 -0.206164,-0.197787 z m -6.704065,0.01652 c -0.09052,0.08248 -0.179733,0.166618 -0.263872,0.255463 0.08435,-0.08904 0.173243,-0.172684 0.263872,-0.255463 z M 28.106,21.376088 c -0.641259,0.677 -1.095275,1.529169 -1.269897,2.480457 -4.89e-4,0.0027 4.86e-4,0.0057 0,0.0081 l 0,1.755274 c 0.264539,1.454909 1.173656,2.684306 2.424346,3.395177 l 4.939402,0 c 1.198317,-0.681074 2.078387,-1.83813 2.383118,-3.213848 l 0,-0.01652 0,-2.084908 c -0.135584,-0.621772 -0.385777,-1.203582 -0.7339,-1.713946 -0.2708,-0.362016 -0.584093,-0.624452 -0.923559,-0.766385 l -6.629851,0 c -0.06673,0.05156 -0.128229,0.10332 -0.189654,0.156558 z M 26.836103,25.62 c -0.02569,-0.14122 -0.04398,-0.282543 -0.05772,-0.428515 0.01333,0.145511 0.03198,0.28693 0.05772,0.428515 z m 0,-1.755274 c -0.02581,0.141886 -0.04447,0.282711 -0.05772,0.42852 0.01357,-0.143957 0.03203,-0.287366 0.05772,-0.42852 z m 8.666628,-2.332125 c 0.04832,0.0558 0.09437,0.115131 0.140174,0.173055 -0.04645,-0.05866 -0.09116,-0.116562 -0.140174,-0.173055 z m -5.376442,7.869889 c 0.100417,0.03398 0.20192,0.063 0.305106,0.09065 -0.103255,-0.02777 -0.20461,-0.05654 -0.305106,-0.09065 z m 3.207724,0 c -0.100985,0.0341 -0.201328,0.06288 -0.305106,0.09065 0.103181,-0.02764 0.204684,-0.05669 0.305106,-0.09065 z"
     id="path5493-1"
     style="opacity:0.23267326;fill:url(#radialGradient5891-8);fill-opacity:1;fill-rule:nonzero;stroke:none" />
  <path
     inkscape:connector-curvature="0"
     d="m 31.680703,21.312636 c -1.98149,-2e-6 -3.608056,1.486004 -3.819455,3.389822 -0.0089,0.08024 -0.0153,0.160478 -0.019,0.242123 -0.0027,0.05844 -0.0096,0.115229 -0.0096,0.174336 0,0.01282 -1.31e-4,0.02592 0,0.03874 -1.31e-4,0.01282 0,0.02587 0,0.03874 0.0012,0.0577 0.0057,0.117326 0.0096,0.174337 0.0039,0.08164 0.01012,0.161883 0.019,0.242123 0.211396,1.903822 1.837965,3.389821 3.819455,3.389821 1.981485,0 3.608058,-1.485999 3.819452,-3.389821 0.0089,-0.08024 0.0153,-0.160479 0.019,-0.242123 0.0047,-0.06969 0.0089,-0.142404 0.0096,-0.213075 -7.14e-4,-0.07065 -0.0049,-0.143415 -0.0096,-0.213075 -0.0039,-0.08165 -0.01012,-0.161884 -0.019,-0.242123 -0.211397,-1.903828 -1.837967,-3.389825 -3.819452,-3.389825 z"
     id="path5495-3"
     style="fill:#000000;fill-opacity:0.50543482;fill-rule:nonzero;stroke:none" />
  <path
     inkscape:connector-curvature="0"
     d="m 38.392516,25.742708 c 0,3.716213 -3.015016,6.728797 -6.734226,6.728797 -3.719211,0 -6.734227,-3.012584 -6.734227,-6.728797 0,-3.71621 3.015016,-6.728794 6.734227,-6.728794 3.71921,0 6.734226,3.012584 6.734226,6.728794 z"
     id="path10013-4"
     style="opacity:0.8;fill:url(#radialGradient6891-0);fill-opacity:1;fill-rule:evenodd;stroke:none;stroke-width:0.94462639;marker:none;visibility:visible;display:inline;overflow:visible;enable-background:accumulate" />
</svg>
