<?xml version="1.0" encoding="UTF-8" standalone="no"?>
<!-- Created with Inkscape (http://www.inkscape.org/) -->

<svg
   xmlns:dc="http://purl.org/dc/elements/1.1/"
   xmlns:cc="http://creativecommons.org/ns#"
   xmlns:rdf="http://www.w3.org/1999/02/22-rdf-syntax-ns#"
   xmlns:svg="http://www.w3.org/2000/svg"
   xmlns="http://www.w3.org/2000/svg"
   xmlns:xlink="http://www.w3.org/1999/xlink"
   xmlns:sodipodi="http://sodipodi.sourceforge.net/DTD/sodipodi-0.dtd"
   xmlns:inkscape="http://www.inkscape.org/namespaces/inkscape"
   width="64"
   height="64"
   id="svg2"
   version="1.1"
   inkscape:version="0.48.4 r9939"
   sodipodi:docname="system-monitor.svg">
  <defs
     id="defs4">
    <linearGradient
       id="linearGradient3885"
       inkscape:collect="always">
      <stop
         id="stop3887"
         offset="0"
         style="stop-color:#86b6ec;stop-opacity:0.872549" />
      <stop
         id="stop3889"
         offset="1"
         style="stop-color:#6fa8f9;stop-opacity:0" />
    </linearGradient>
    <linearGradient
       inkscape:collect="always"
       id="linearGradient3847">
      <stop
         style="stop-color:#2058ab;stop-opacity:1"
         offset="0"
         id="stop3849" />
      <stop
         style="stop-color:#4a84dc;stop-opacity:1"
         offset="1"
         id="stop3851" />
    </linearGradient>
    <linearGradient
       inkscape:collect="always"
       xlink:href="#linearGradient3847"
       id="linearGradient3853"
       x1="34.705223"
       y1="35.287804"
       x2="34.705223"
       y2="10.134609"
       gradientUnits="userSpaceOnUse" />
    <radialGradient
       inkscape:collect="always"
       xlink:href="#linearGradient3885"
       id="radialGradient3883"
       gradientUnits="userSpaceOnUse"
       gradientTransform="matrix(0.91055956,0,0,0.75793285,3.0345863,8.1125886)"
       cx="33.92857"
       cy="45.767639"
       fx="33.92857"
       fy="45.767639"
       r="27.678572" />
  </defs>
  <sodipodi:namedview
     id="base"
     pagecolor="#ffffff"
     bordercolor="#666666"
     borderopacity="1.0"
     inkscape:pageopacity="0.0"
     inkscape:pageshadow="2"
     inkscape:zoom="1.979899"
     inkscape:cx="-30.857753"
     inkscape:cy="72.86472"
     inkscape:document-units="px"
     inkscape:current-layer="layer1"
     showgrid="false"
     inkscape:window-width="1195"
     inkscape:window-height="767"
     inkscape:window-x="0"
     inkscape:window-y="27"
     inkscape:window-maximized="0"
     inkscape:object-nodes="true"
     inkscape:snap-global="false"
     showguides="true"
     inkscape:guide-bbox="true" />
  <metadata
     id="metadata7">
    <rdf:RDF>
      <cc:Work
         rdf:about="">
        <dc:format>image/svg+xml</dc:format>
        <dc:type
           rdf:resource="http://purl.org/dc/dcmitype/StillImage" />
        <dc:title />
      </cc:Work>
    </rdf:RDF>
  </metadata>
  <g
     inkscape:label="Layer 1"
     inkscape:groupmode="layer"
     id="layer1"
     transform="translate(0,-988.36218)">
    <path
       transform="matrix(0.93935483,0,0,0.93935483,0.12903409,988.92734)"
       d="m 61.607141,33.464287 c 0,15.286453 -12.392118,27.678572 -27.678571,27.678572 -15.286453,0 -27.6785719,-12.392119 -27.6785719,-27.678572 0,-15.286453 12.3921189,-27.6785719 27.6785719,-27.6785719 15.286453,0 27.678571,12.3921189 27.678571,27.6785719 z"
       sodipodi:ry="27.678572"
       sodipodi:rx="27.678572"
       sodipodi:cy="33.464287"
       sodipodi:cx="33.92857"
       id="path3881"
       style="fill:none;stroke:#253b4e;stroke-width:2.12912083;stroke-miterlimit:4;stroke-opacity:1;stroke-dasharray:none"
       sodipodi:type="arc" />
    <path
       transform="matrix(0.93935483,0,0,0.93935483,0.12903409,988.92734)"
       d="m 61.607141,33.464287 c 0,15.286453 -12.392118,27.678572 -27.678571,27.678572 -15.286453,0 -27.6785719,-12.392119 -27.6785719,-27.678572 0,-15.286453 12.3921189,-27.6785719 27.6785719,-27.6785719 15.286453,0 27.678571,12.3921189 27.678571,27.6785719 z"
       sodipodi:ry="27.678572"
       sodipodi:rx="27.678572"
       sodipodi:cy="33.464287"
       sodipodi:cx="33.92857"
       id="path3845"
       style="fill:url(#linearGradient3853);fill-opacity:1;stroke:none"
       sodipodi:type="arc" />
    <path
       sodipodi:type="arc"
       style="fill:url(#radialGradient3883);fill-opacity:1;stroke:none"
       id="path3855"
       sodipodi:cx="33.92857"
       sodipodi:cy="33.464287"
       sodipodi:rx="27.678572"
       sodipodi:ry="27.678572"
       d="m 61.607141,33.464287 c 0,15.286453 -12.392118,27.678572 -27.678571,27.678572 -15.286453,0 -27.6785719,-12.392119 -27.6785719,-27.678572 0,-15.286453 12.3921189,-27.6785719 27.6785719,-27.6785719 15.286453,0 27.678571,12.3921189 27.678571,27.6785719 z"
       transform="matrix(0.93935483,0,0,0.93935483,0.12903409,988.92734)" />
    <path
       sodipodi:type="arc"
       style="fill:none;stroke:#385975;stroke-width:5.33234121;stroke-miterlimit:4;stroke-opacity:1;stroke-dasharray:none"
       id="path3873"
       sodipodi:cx="-40.982143"
       sodipodi:cy="36.410713"
       sodipodi:rx="19.196428"
       sodipodi:ry="19.196428"
       d="m -21.785715,36.410713 c 0,10.601895 -8.594534,19.196428 -19.196428,19.196428 -10.601895,0 -19.196429,-8.594533 -19.196429,-19.196428 0,-10.601894 8.594534,-19.196428 19.196429,-19.196428 10.601894,0 19.196428,8.594534 19.196428,19.196428 z"
       transform="matrix(0.93767443,0,0,0.93767443,70.427908,986.00875)" />
    <path
       id="path3875"
       style="fill:none;stroke:#385975;stroke-width:5;stroke-linecap:round;stroke-linejoin:round;stroke-miterlimit:4;stroke-opacity:1;stroke-dasharray:none"
       d="m 27.930046,1027.5214 11.225796,-10.8998 m -6.418261,21.1003 -4.807535,-10.2005 -8.885403,-19.3713 20.111199,8.4715 10.045051,4.3633"
       inkscape:connector-curvature="0"
       sodipodi:nodetypes="ccccccc" />
    <path
       style="fill:none;stroke:#385975;stroke-width:5;stroke-linecap:butt;stroke-linejoin:miter;stroke-miterlimit:4;stroke-opacity:1;stroke-dasharray:none"
       d="m 40.576853,1029.7434 8.565041,8.2867"
       id="path3877"
       inkscape:connector-curvature="0"
       sodipodi:nodetypes="cc" />
    <path
       transform="matrix(0.93767443,0,0,0.93767443,70.427908,986.00875)"
       d="m -21.785715,36.410713 c 0,10.601895 -8.594534,19.196428 -19.196428,19.196428 -10.601895,0 -19.196429,-8.594533 -19.196429,-19.196428 0,-10.601894 8.594534,-19.196428 19.196429,-19.196428 10.601894,0 19.196428,8.594534 19.196428,19.196428 z"
       sodipodi:ry="19.196428"
       sodipodi:rx="19.196428"
       sodipodi:cy="36.410713"
       sodipodi:cx="-40.982143"
       id="path3839"
       style="fill:none;stroke:#90bfe7;stroke-width:4.26587296;stroke-miterlimit:4;stroke-opacity:1;stroke-dasharray:none"
       sodipodi:type="arc" />
    <path
       sodipodi:nodetypes="ccccccc"
       inkscape:connector-curvature="0"
       d="m 27.930046,1027.5214 11.225796,-10.8998 m -6.418261,21.1003 -4.807535,-10.2005 -8.885403,-19.3713 20.111199,8.4715 10.045051,4.3633"
       style="fill:none;stroke:#90bfe7;stroke-width:4;stroke-linecap:round;stroke-linejoin:round;stroke-miterlimit:4;stroke-opacity:1;stroke-dasharray:none"
       id="path3841" />
    <path
       inkscape:connector-curvature="0"
       id="path3843"
       d="m 40.89748,1030.0246 7.898935,7.6357"
       style="fill:none;stroke:#90bfe7;stroke-width:4;stroke-linecap:butt;stroke-linejoin:miter;stroke-miterlimit:4;stroke-opacity:1;stroke-dasharray:none" />
  </g>
</svg>
