<?xml version="1.0" encoding="UTF-8" standalone="no"?>
<!-- Created with Inkscape (http://www.inkscape.org/) -->

<svg
   xmlns:dc="http://purl.org/dc/elements/1.1/"
   xmlns:cc="http://creativecommons.org/ns#"
   xmlns:rdf="http://www.w3.org/1999/02/22-rdf-syntax-ns#"
   xmlns:svg="http://www.w3.org/2000/svg"
   xmlns="http://www.w3.org/2000/svg"
   xmlns:xlink="http://www.w3.org/1999/xlink"
   xmlns:sodipodi="http://sodipodi.sourceforge.net/DTD/sodipodi-0.dtd"
   xmlns:inkscape="http://www.inkscape.org/namespaces/inkscape"
   width="64"
   height="64"
   id="svg2"
   version="1.1"
   inkscape:version="0.48.4 r9939"
   sodipodi:docname="teamfortress2.svg">
  <defs
     id="defs4">
    <linearGradient
       inkscape:collect="always"
       id="linearGradient3948">
      <stop
         style="stop-color:#7dbf0e;stop-opacity:1;"
         offset="0"
         id="stop3950" />
      <stop
         style="stop-color:#a0d64b;stop-opacity:1"
         offset="1"
         id="stop3952" />
    </linearGradient>
    <linearGradient
       inkscape:collect="always"
       xlink:href="#linearGradient3948"
       id="linearGradient3954"
       x1="-13.622471"
       y1="1027.521"
       x2="-13.622471"
       y2="1001.0969"
       gradientUnits="userSpaceOnUse"
       gradientTransform="translate(48.27412,-83.666758)" />
    <linearGradient
       inkscape:collect="always"
       xlink:href="#linearGradient3948"
       id="linearGradient4058"
       gradientUnits="userSpaceOnUse"
       gradientTransform="translate(157.36105,0.26181341)"
       x1="-13.622471"
       y1="1027.521"
       x2="-13.622471"
       y2="1001.0969" />
    <linearGradient
       inkscape:collect="always"
       xlink:href="#linearGradient3948"
       id="linearGradient4070"
       gradientUnits="userSpaceOnUse"
       gradientTransform="translate(48.274117,-988.10042)"
       x1="-13.622471"
       y1="1027.521"
       x2="-13.622471"
       y2="1001.0969" />
  </defs>
  <sodipodi:namedview
     id="base"
     pagecolor="#ffffff"
     bordercolor="#666666"
     borderopacity="1.0"
     inkscape:pageopacity="0.0"
     inkscape:pageshadow="2"
     inkscape:zoom="1.979899"
     inkscape:cx="53.141733"
     inkscape:cy="79.883544"
     inkscape:document-units="px"
     inkscape:current-layer="layer1"
     showgrid="false"
     inkscape:window-width="1195"
     inkscape:window-height="767"
     inkscape:window-x="0"
     inkscape:window-y="27"
     inkscape:window-maximized="0"
     inkscape:object-nodes="true"
     inkscape:snap-global="false"
     showguides="true"
     inkscape:guide-bbox="true" />
  <metadata
     id="metadata7">
    <rdf:RDF>
      <cc:Work
         rdf:about="">
        <dc:format>image/svg+xml</dc:format>
        <dc:type
           rdf:resource="http://purl.org/dc/dcmitype/StillImage" />
        <dc:title />
      </cc:Work>
    </rdf:RDF>
  </metadata>
  <g
     inkscape:label="Layer 1"
     inkscape:groupmode="layer"
     id="layer1"
     transform="translate(0,-988.36218)">
    <rect
       style="fill:#7dbf0e;fill-opacity:1;stroke:none"
       id="rect4060"
       width="7"
       height="23.233509"
       x="10.913067"
       y="1019.0363"
       rx="2"
       ry="2" />
    <path
       style="fill:url(#linearGradient4070);fill-opacity:1;stroke:none"
       d="M 20.90625 10.09375 C 15.36625 10.09375 10.90625 14.55375 10.90625 20.09375 L 10.90625 34.1875 C 10.90625 39.7275 15.36625 44.1875 20.90625 44.1875 L 43.09375 44.1875 C 48.63375 44.1875 53.09375 39.7275 53.09375 34.1875 L 53.09375 20.09375 C 53.09375 14.55375 48.63375 10.09375 43.09375 10.09375 L 20.90625 10.09375 z M 22.90625 16.59375 L 41.09375 16.59375 C 43.86375 16.59375 46.09375 18.82375 46.09375 21.59375 L 46.09375 32.6875 C 46.09375 35.4575 43.86375 37.6875 41.09375 37.6875 L 22.90625 37.6875 C 20.13625 37.6875 17.90625 35.4575 17.90625 32.6875 L 17.90625 21.59375 C 17.90625 18.82375 20.13625 16.59375 22.90625 16.59375 z "
       transform="translate(0,988.36218)"
       id="rect4062" />
    <rect
       style="fill:#8cc929;fill-opacity:1;stroke:none"
       id="rect4066"
       width="3"
       height="3"
       x="30.499996"
       y="1014.0009"
       rx="5"
       ry="5" />
    <rect
       style="fill:#7dbf0e;fill-opacity:1;stroke:none"
       id="rect3944"
       width="7"
       height="23.233509"
       x="10.913067"
       y="935.10773"
       rx="2"
       ry="2" />
    <rect
       style="fill:url(#linearGradient3954);fill-opacity:1;stroke:none"
       id="rect3940"
       width="42.173866"
       height="34.092648"
       x="10.913067"
       y="914.526"
       rx="10"
       ry="10" />
    <rect
       ry="5"
       rx="5"
       y="921.1507"
       x="17.91312"
       height="21.09804"
       width="29.116417"
       id="rect3946"
       style="fill:#ffffff;fill-opacity:1;stroke:none" />
    <path
       sodipodi:type="star"
       style="fill:#ffffff;fill-opacity:1;stroke:#a6a6a6;stroke-width:0.45469657;stroke-linecap:butt;stroke-linejoin:round;stroke-miterlimit:4;stroke-opacity:1;stroke-dasharray:none"
       id="path3962"
       sodipodi:sides="3"
       sodipodi:cx="-12.142857"
       sodipodi:cy="31.5"
       sodipodi:r1="4.4678559"
       sodipodi:r2="2.2339282"
       sodipodi:arg1="-3.1415927"
       sodipodi:arg2="-2.0943951"
       inkscape:flatsided="false"
       inkscape:rounded="0.03"
       inkscape:randomized="0"
       d="m -16.610713,31.5 c 0,-0.116078 3.250366,-1.876599 3.350892,-1.934639 0.100527,-0.05804 3.250365,-1.992677 3.3508922,-1.934638 0.1005267,0.05804 4e-7,3.753199 4e-7,3.869277 0,0.116078 0.1005267,3.811237 -10e-8,3.869277 -0.1005265,0.05804 -3.2503655,-1.876599 -3.3508925,-1.934638 -0.100526,-0.05804 -3.350892,-1.81856 -3.350892,-1.934639 z"
       transform="matrix(0.85442106,0,0,1.4152226,44.735788,978.57384)"
       inkscape:transform-center-x="0.93527069" />
    <rect
       style="fill:#8cc929;fill-opacity:1;stroke:none"
       id="rect3956"
       width="3"
       height="3"
       x="30.918835"
       y="930.03864"
       rx="5"
       ry="5" />
    <path
       sodipodi:nodetypes="caaaaaccaaaaacc"
       inkscape:connector-curvature="0"
       id="path3960"
       d="m 33.403298,1006.2264 c 0,0 7.072539,-4.1931 10.86494,-3.6934 1.242509,0.1637 2.495315,1.0071 3.124775,2.0908 1.869046,3.2179 1.245256,7.4414 0.795527,11.1354 -0.294738,2.4209 -0.768089,5.028 -2.257139,6.9595 -0.878581,1.1396 -2.25805,1.9062 -3.632367,2.3326 -2.217334,0.688 -6.961544,0.215 -6.961544,0.215 l -0.06313,-4.1465 c 0,0 3.216577,0.441 4.686345,-0.089 1.081211,-0.3899 2.075774,-1.182 2.695909,-2.1497 0.923345,-1.4408 1.191956,-3.2733 1.231123,-4.9841 0.04838,-2.1135 0.416851,-4.904 -1.237469,-6.2202 -1.043413,-0.8301 -2.707968,-0.215 -3.998211,0.1213 -2.192145,0.5714 -6.029346,3.136 -6.029346,3.136 z"
       style="fill:#ffffff;fill-opacity:1;stroke:#a6a6a6;stroke-width:0.5;stroke-linecap:butt;stroke-linejoin:miter;stroke-miterlimit:4;stroke-opacity:1;stroke-dasharray:none" />
    <path
       inkscape:transform-center-x="0.83027285"
       transform="matrix(0.75849983,0,0,1.276575,43.552842,982.97281)"
       d="m -16.610713,31.5 c 0,-0.116078 3.250366,-1.876599 3.350892,-1.934639 0.100527,-0.05804 3.250365,-1.992677 3.3508922,-1.934638 0.1005267,0.05804 4e-7,3.753199 4e-7,3.869277 0,0.116078 0.1005267,3.811237 -10e-8,3.869277 -0.1005265,0.05804 -3.2503655,-1.876599 -3.3508925,-1.934638 -0.100526,-0.05804 -3.350892,-1.81856 -3.350892,-1.934639 z"
       inkscape:randomized="0"
       inkscape:rounded="0.03"
       inkscape:flatsided="false"
       sodipodi:arg2="-2.0943951"
       sodipodi:arg1="-3.1415927"
       sodipodi:r2="2.2339282"
       sodipodi:r1="4.4678559"
       sodipodi:cy="31.5"
       sodipodi:cx="-12.142857"
       sodipodi:sides="3"
       id="path3964"
       style="fill:#ffffff;fill-opacity:1;stroke:none"
       sodipodi:type="star" />
    <path
       inkscape:transform-center-x="-0.18330204"
       transform="matrix(-0.4850955,0.11268486,-0.18501677,-0.8120587,-18.482779,1036.7297)"
       d="m -16.610713,31.5 c 0,-0.116078 3.250366,-1.876599 3.350892,-1.934639 0.100527,-0.05804 3.250365,-1.992677 3.3508922,-1.934638 0.1005267,0.05804 4e-7,3.753199 4e-7,3.869277 0,0.116078 0.1005267,3.811237 -10e-8,3.869277 -0.1005265,0.05804 -3.2503655,-1.876599 -3.3508925,-1.934638 -0.100526,-0.05804 -3.350892,-1.81856 -3.350892,-1.934639 z"
       inkscape:randomized="0"
       inkscape:rounded="0.03"
       inkscape:flatsided="false"
       sodipodi:arg2="-2.0943951"
       sodipodi:arg1="-3.1415927"
       sodipodi:r2="2.2339282"
       sodipodi:r1="4.4678559"
       sodipodi:cy="31.5"
       sodipodi:cx="-12.142857"
       sodipodi:sides="3"
       id="path3966"
       style="fill:#ffffff;fill-opacity:1;stroke:#a6a6a6;stroke-width:0.77636141;stroke-linecap:butt;stroke-linejoin:round;stroke-miterlimit:4;stroke-opacity:1;stroke-dasharray:none"
       sodipodi:type="star"
       inkscape:transform-center-y="0.25095171" />
    <path
       style="fill:#ffffff;fill-opacity:1;stroke:#a6a6a6;stroke-width:0.49999997;stroke-linecap:butt;stroke-linejoin:miter;stroke-miterlimit:4;stroke-opacity:1;stroke-dasharray:none"
       d="m -17.30727,1025.4177 c 0,0 -4.586444,0.6429 -6.804812,0.1665 -1.137014,-0.2442 -2.464001,-0.5673 -3.145191,-1.5098 -1.672396,-2.3141 -1.715354,-5.7077 -1.096512,-8.495 0.287323,-1.2941 1.132975,-2.485 2.130373,-3.3581 1.984622,-1.7375 7.183765,-3.3183 7.183765,-3.3183 l 0.529983,1.8335 c 0,0 -2.297404,0.8626 -3.371464,1.4475 -1.33849,0.729 -2.925759,1.2988 -3.794605,2.551 -0.883231,1.273 -1.171437,2.9746 -1.078833,4.5212 0.07949,1.3276 0.311704,2.9541 1.382585,3.7429 1.410474,1.0389 3.505685,0.4584 5.248062,0.277 1.170122,-0.1218 3.410548,-0.9079 3.410548,-0.9079 z"
       id="path3968"
       inkscape:connector-curvature="0"
       sodipodi:nodetypes="caaaaccaaaaacc" />
    <path
       sodipodi:type="star"
       style="fill:#ffffff;fill-opacity:1;stroke:none"
       id="path3970"
       sodipodi:sides="3"
       sodipodi:cx="-12.142857"
       sodipodi:cy="31.5"
       sodipodi:r1="4.4678559"
       sodipodi:r2="2.2339282"
       sodipodi:arg1="-3.1415927"
       sodipodi:arg2="-2.0943951"
       inkscape:flatsided="false"
       inkscape:rounded="0.03"
       inkscape:randomized="0"
       d="m -16.610713,31.5 c 0,-0.116078 3.250366,-1.876599 3.350892,-1.934639 0.100527,-0.05804 3.250365,-1.992677 3.3508922,-1.934638 0.1005267,0.05804 4e-7,3.753199 4e-7,3.869277 0,0.116078 0.1005267,3.811237 -10e-8,3.869277 -0.1005265,0.05804 -3.2503655,-1.876599 -3.3508925,-1.934638 -0.100526,-0.05804 -3.350892,-1.81856 -3.350892,-1.934639 z"
       transform="matrix(-0.43063647,0.10003434,-0.16689091,-0.73250235,-18.386232,1034.0496)"
       inkscape:transform-center-x="-0.15764969"
       inkscape:transform-center-y="0.22283519" />
    <rect
       ry="2"
       rx="2"
       y="1019.0363"
       x="120"
       height="23.233509"
       width="7"
       id="rect4050"
       style="fill:#7dbf0e;fill-opacity:1;stroke:none" />
    <rect
       ry="10"
       rx="10"
       y="998.45459"
       x="120"
       height="34.092648"
       width="42.173866"
       id="rect4052"
       style="fill:url(#linearGradient4058);fill-opacity:1;stroke:none" />
    <rect
       style="fill:#ffffff;fill-opacity:1;stroke:none"
       id="rect4054"
       width="28.174"
       height="21.09804"
       x="126.99993"
       y="1004.9519"
       rx="5"
       ry="5" />
    <rect
       ry="5"
       rx="5"
       y="1014.0009"
       x="139.58693"
       height="3"
       width="3"
       id="rect4056"
       style="fill:#8cc929;fill-opacity:1;stroke:none" />
  </g>
</svg>
