<?xml version="1.0" encoding="UTF-8" standalone="no"?>
<!-- Created with Inkscape (http://www.inkscape.org/) -->

<svg
   xmlns:dc="http://purl.org/dc/elements/1.1/"
   xmlns:cc="http://creativecommons.org/ns#"
   xmlns:rdf="http://www.w3.org/1999/02/22-rdf-syntax-ns#"
   xmlns:svg="http://www.w3.org/2000/svg"
   xmlns="http://www.w3.org/2000/svg"
   xmlns:xlink="http://www.w3.org/1999/xlink"
   xmlns:sodipodi="http://sodipodi.sourceforge.net/DTD/sodipodi-0.dtd"
   xmlns:inkscape="http://www.inkscape.org/namespaces/inkscape"
   width="48"
   height="48"
   id="svg2"
   version="1.1"
   inkscape:version="0.48.4 r9939"
   sodipodi:docname="user-trash.svg">
  <metadata
     id="metadata7">
    <rdf:RDF>
      <cc:Work
         rdf:about="">
        <dc:format>image/svg+xml</dc:format>
        <dc:type
           rdf:resource="http://purl.org/dc/dcmitype/StillImage" />
        <dc:title />
      </cc:Work>
    </rdf:RDF>
  </metadata>
  <sodipodi:namedview
     id="base"
     pagecolor="#ffffff"
     bordercolor="#44cc00"
     borderopacity="1"
     inkscape:pageopacity="0.0"
     inkscape:pageshadow="2"
     inkscape:zoom="2.8"
     inkscape:cx="76.14249"
     inkscape:cy="105.99822"
     inkscape:document-units="px"
     showgrid="false"
     inkscape:showpageshadow="false"
     objecttolerance="5"
     gridtolerance="3"
     guidetolerance="5"
     inkscape:window-width="1440"
     inkscape:window-height="830"
     inkscape:window-x="0"
     inkscape:window-y="24"
     inkscape:window-maximized="1"
     showguides="true"
     inkscape:guide-bbox="true"
     inkscape:current-layer="layer1" />
  <defs
     id="defs4">
    <linearGradient
       id="linearGradient4245">
      <stop
         style="stop-color:#677484;stop-opacity:1;"
         offset="0"
         id="stop4247" />
      <stop
         id="stop4249"
         offset="0.01467601"
         style="stop-color:#4c5762;stop-opacity:1;" />
      <stop
         id="stop4251"
         offset="0.13164333"
         style="stop-color:#8f9cab;stop-opacity:1;" />
      <stop
         id="stop4253"
         offset="0.25156742"
         style="stop-color:#b0bac5;stop-opacity:1;" />
      <stop
         id="stop4255"
         offset="0.47500879"
         style="stop-color:#cbd2d8;stop-opacity:1;" />
      <stop
         id="stop4257"
         offset="0.63242704"
         style="stop-color:#ffffff;stop-opacity:1;" />
      <stop
         style="stop-color:#ffffff;stop-opacity:1;"
         offset="0.7398482"
         id="stop4259" />
      <stop
         style="stop-color:#c2cad2;stop-opacity:1;"
         offset="0.84821433"
         id="stop4261" />
      <stop
         id="stop4263"
         offset="0.89441282"
         style="stop-color:#b7bfc6;stop-opacity:1;" />
      <stop
         style="stop-color:#5d6c7b;stop-opacity:1;"
         offset="1"
         id="stop4265" />
    </linearGradient>
    <linearGradient
       id="linearGradient3853">
      <stop
         style="stop-color:#393f42;stop-opacity:1;"
         offset="0"
         id="stop3855" />
      <stop
         style="stop-color:#404648;stop-opacity:1;"
         offset="1"
         id="stop3857" />
    </linearGradient>
    <linearGradient
       id="linearGradient3829">
      <stop
         style="stop-color:#2e3436;stop-opacity:1;"
         offset="0"
         id="stop3831" />
      <stop
         style="stop-color:#303739;stop-opacity:1;"
         offset="1"
         id="stop3833" />
    </linearGradient>
    <linearGradient
       inkscape:collect="always"
       xlink:href="#linearGradient4245"
       id="linearGradient3794"
       x1="111.10714"
       y1="109.40729"
       x2="420.85715"
       y2="109.40729"
       gradientUnits="userSpaceOnUse"
       gradientTransform="matrix(0.37481204,0,0,0.37481204,2.5910888,858.05635)" />
    <linearGradient
       inkscape:collect="always"
       xlink:href="#linearGradient3829"
       id="linearGradient3835"
       x1="86.907646"
       y1="128.83484"
       x2="417.96683"
       y2="128.83484"
       gradientUnits="userSpaceOnUse"
       gradientTransform="matrix(0.37481204,0,0,0.37481204,2.5910888,858.05635)" />
    <linearGradient
       inkscape:collect="always"
       xlink:href="#linearGradient4245"
       id="linearGradient3843"
       x1="111.64286"
       y1="308.18103"
       x2="415.5"
       y2="308.18103"
       gradientUnits="userSpaceOnUse"
       gradientTransform="matrix(0.37481204,0,0,0.37481204,2.5910888,858.05635)" />
    <linearGradient
       inkscape:collect="always"
       xlink:href="#linearGradient3829"
       id="linearGradient3851"
       x1="367"
       y1="464.23215"
       x2="438"
       y2="464.23215"
       gradientUnits="userSpaceOnUse"
       gradientTransform="matrix(0.37481204,0,0,0.37481204,2.5910888,858.05635)" />
    <linearGradient
       inkscape:collect="always"
       xlink:href="#linearGradient3853"
       id="linearGradient3859"
       x1="380.62653"
       y1="477.55722"
       x2="374.86365"
       y2="485.00708"
       gradientUnits="userSpaceOnUse"
       gradientTransform="matrix(0.37481204,0,0,0.37481204,2.5910888,858.05635)" />
    <linearGradient
       inkscape:collect="always"
       xlink:href="#linearGradient3829"
       id="linearGradient3867"
       x1="113.875"
       y1="466.23593"
       x2="414.96429"
       y2="466.23593"
       gradientUnits="userSpaceOnUse"
       gradientTransform="matrix(0.37481204,0,0,0.37481204,2.5910888,858.05635)" />
    <linearGradient
       id="linearGradient4014">
      <stop
         style="stop-color:#000000;stop-opacity:1;"
         offset="0"
         id="stop4016" />
      <stop
         style="stop-color:#434343;stop-opacity:0;"
         offset="1"
         id="stop4018" />
    </linearGradient>
    <radialGradient
       inkscape:collect="always"
       xlink:href="#linearGradient4014"
       id="radialGradient3928"
       gradientUnits="userSpaceOnUse"
       gradientTransform="matrix(0.92933631,-0.00955121,-0.0359355,0.25912257,35.576681,329.23482)"
       cx="279.30719"
       cy="440.78424"
       fx="279.30719"
       fy="440.78424"
       r="202.02544" />
    <linearGradient
       id="linearGradient3927">
      <stop
         style="stop-color:#c7ced6;stop-opacity:1;"
         offset="0"
         id="stop3929" />
      <stop
         id="stop3931"
         offset="0.39771599"
         style="stop-color:#b7c0ca;stop-opacity:1;" />
      <stop
         style="stop-color:#9faab5;stop-opacity:1;"
         offset="1"
         id="stop3933" />
    </linearGradient>
    <linearGradient
       y2="73.443436"
       x2="263.68088"
       y1="37.433083"
       x1="257.71649"
       gradientUnits="userSpaceOnUse"
       id="linearGradient3125"
       xlink:href="#linearGradient3927"
       inkscape:collect="always" />
    <linearGradient
       id="linearGradient4167-1">
      <stop
         style="stop-color:#ffffff;stop-opacity:0;"
         offset="0"
         id="stop4169-1" />
      <stop
         id="stop4171-0"
         offset="0.51920968"
         style="stop-color:#ffffff;stop-opacity:0.63492066;" />
      <stop
         style="stop-color:#ffffff;stop-opacity:0;"
         offset="1"
         id="stop4173-3" />
    </linearGradient>
    <linearGradient
       gradientTransform="matrix(0.37481206,0,0,0.37481206,1.9978344,857.31539)"
       y2="91.398506"
       x2="397.64285"
       y1="91.398506"
       x1="137.35715"
       gradientUnits="userSpaceOnUse"
       id="linearGradient3346"
       xlink:href="#linearGradient4167-1"
       inkscape:collect="always" />
  </defs>
  <g
     id="layer1"
     transform="matrix(0.25513035,0,0,0.25513035,-1.2540149,-219.50928)">
    <path
       sodipodi:type="arc"
       style="opacity:0.72454541;fill:url(#radialGradient3928);fill-opacity:1;stroke:none"
       id="path4012"
       sodipodi:cx="279.30719"
       sodipodi:cy="440.78424"
       sodipodi:rx="201.52544"
       sodipodi:ry="55.053314"
       d="m 480.83263,440.78424 a 201.52544,55.053314 0 1 1 -403.050876,0 201.52544,55.053314 0 1 1 403.050876,0 z"
       transform="matrix(0.37756339,0,0.48143452,0.33423954,-216.47674,882.7915)" />
    <path
       style="fill:url(#linearGradient3867);fill-opacity:1;stroke:none"
       d="m 158.13809,1022.184 -3.88988,3.2261 c 0,0 -8.01842,5.3715 -12.28145,7.6134 -1.99641,1.0501 -4.0625,1.9891 -6.19698,2.7185 -3.02189,1.0326 -6.15038,1.7627 -9.29385,2.3255 -4.60532,0.8243 -9.27588,1.382 -13.95211,1.5279 -8.18133,0.2551 -16.391134,-0.2685 -24.52913,-1.1474 -6.682395,-0.7217 -13.436471,-1.4626 -19.878423,-3.38 -4.675811,-1.3917 -9.134189,-3.5086 -13.421665,-5.8361 -3.688182,-2.0023 -10.499375,-6.9476 -10.499375,-6.9476 l 0.112444,7.5842 c 0,0 9.313126,4.9997 14.304436,6.6566 9.570865,3.1771 19.602051,4.9899 29.616853,6.173 7.835656,0.9256 15.78136,1.1287 23.66001,0.7028 6.00498,-0.3246 11.99096,-1.2131 17.8705,-2.4765 3.2508,-0.6986 6.59851,-1.3203 9.57085,-2.8104 3.80343,-1.9071 6.6434,-5.3403 10.20858,-7.6623 2.16053,-1.4072 6.748,-3.7812 6.748,-3.7812 0,0 0.69443,-0.5827 1.03081,-0.8863 0.27963,-0.2525 0.82038,-0.7774 0.82038,-0.7774 z"
       id="path3000"
       inkscape:connector-curvature="0"
       sodipodi:nodetypes="ccaaaaaaaccaaaaaacacc" />
    <path
       style="fill:url(#linearGradient3859);fill-opacity:1;stroke:none"
       d="m 139.20628,1038.33 0.37862,-5.8923 1.32568,-0.4685 13.10459,8.6206 z"
       id="path2996"
       inkscape:connector-curvature="0"
       sodipodi:nodetypes="ccccc" />
    <path
       style="fill:url(#linearGradient3851);fill-opacity:1;stroke:none"
       d="m 139.70106,1031.974 13.58357,-7.2339 13.90199,8.2703 -13.17145,7.5794 z"
       id="path2998"
       inkscape:connector-curvature="0"
       sodipodi:nodetypes="ccccc" />
    <path
       style="fill:url(#linearGradient3843);fill-opacity:1;stroke:none"
       d="m 139.33056,1034.207 c -5.09547,2.3963 -9.24036,2.9196 -13.99426,3.7888 -4.75577,0.8693 -9.60385,1.2333 -14.43528,1.4083 -7.31592,0.2648 -14.664429,0.1136 -21.955322,-0.5464 -5.964908,-0.54 -11.929152,-1.3777 -17.750611,-2.7857 -5.948708,-1.4386 -11.946399,-3.0486 -17.434835,-5.7568 -3.459206,-1.7067 -6.512381,-3.8622 -9.565025,-6.5134 l 0,-117.82185 c 0,0 9.09009,4.24412 13.886829,5.64283 6.423457,1.87303 13.098091,2.84131 19.743227,3.62302 8.642887,1.01672 17.36871,1.37799 26.071197,1.37542 7.57008,-0.003 15.171,-0.23471 22.67805,-1.20978 4.58927,-0.59609 9.14172,-1.55946 13.59267,-2.82664 4.03874,-1.14983 8.01174,-2.57985 11.83525,-4.31605 2.12525,-0.96503 6.13564,-3.37425 6.13564,-3.37425 l 0,117.2354 c 0,0 -1.3631,1.4623 -2.13792,2.0889 -0.56133,0.4537 -1.80426,1.1973 -1.80426,1.1973 l -0.65503,-0.2189 -12.92241,6.772 -1.15405,0.87 z"
       id="path3002"
       inkscape:connector-curvature="0"
       sodipodi:nodetypes="caaaaaccaaaaaaccaccccc" />
    <path
       style="fill:url(#linearGradient3835);fill-opacity:1;stroke:none"
       d="m 158.13809,903.85034 c 0,0 -3.13327,1.65698 -4.83081,2.11168 -19.65875,5.26562 -40.32779,7.0824 -60.677305,6.78256 -13.618838,-0.20065 -27.255828,-2.37941 -40.456673,-5.73365 -2.737841,-0.69565 -7.940593,-2.96049 -7.940593,-2.96049 0,0 -0.03748,-5.31899 -0.03748,-7.94852 -4.468035,0.0682 -5.205453,1.0105 -6.811638,2.88069 -1.585549,1.84616 -1.981502,4.64999 -1.795646,7.07645 0.137967,1.80122 0.841646,3.70974 2.117425,4.98872 1.661446,1.66562 3.060984,2.53843 6.489859,2.77385 l 0.01184,-6.71999 c 0,0 3.761238,1.74301 5.71161,2.43586 3.982309,1.41466 8.042649,2.66686 12.186189,3.49825 8.934119,1.79262 18.055228,2.6353 27.151288,3.17717 8.992761,0.53573 18.033914,0.6147 27.026014,0.068 7.34383,-0.4465 14.72181,-1.12774 21.90282,-2.72914 5.70736,-1.27275 11.30941,-3.12014 16.68024,-5.43271 1.14073,-0.49118 3.27285,-1.78081 3.27285,-1.78081 z"
       id="path3004"
       inkscape:connector-curvature="0"
       sodipodi:nodetypes="caaaccaaaccaaaaaacc" />
    <path
       style="fill:url(#linearGradient3794);fill-opacity:1;stroke:none"
       d="m 158.13809,903.91726 0,-20.43956 c 0,0 -6.4111,4.09476 -9.99118,5.25218 -11.37979,3.67907 -23.58629,4.28488 -35.52112,5.05651 -9.59809,0.62056 -19.250779,0.21178 -28.852257,-0.35411 -12.070399,-1.67511 -24.622165,-0.77189 -34.982932,-5.54152 -1.724885,-0.81888 -4.595374,-4.33794 -4.595374,-4.33794 l 0,20.55852 c 0,0 6.410949,2.73567 9.738691,3.74812 4.930044,1.49996 9.978693,2.66453 15.075656,3.42357 11.694321,1.7415 23.554776,2.71975 35.377036,2.56435 12.81932,-0.1685 25.74808,-1.05701 38.27426,-3.78794 3.13995,-0.68458 6.14219,-1.9188 9.11881,-3.13029 2.1722,-0.88408 6.35841,-3.01189 6.35841,-3.01189 z"
       id="path3006"
       inkscape:connector-curvature="0"
       sodipodi:nodetypes="ccaaccccaaaaac" />
    <path
       sodipodi:type="arc"
       style="fill:url(#linearGradient3125);fill-opacity:1;stroke:none"
       id="path3096-7"
       sodipodi:cx="261.07144"
       sodipodi:cy="56.642857"
       sodipodi:rx="152.5"
       sodipodi:ry="31.071428"
       d="m 413.57144,56.642857 a 152.5,31.071428 0 1 1 -305,0 152.5,31.071428 0 1 1 305,0 z"
       transform="matrix(0.37363146,0,0,0.36701895,3.6087885,862.75439)" />
    <path
       sodipodi:nodetypes="caaaaac"
       inkscape:connector-curvature="0"
       id="path4067-2"
       d="m 53.431712,890.12957 c 0,0 8.117056,2.1345 12.250785,2.82226 4.662404,0.77572 9.385362,1.18794 14.103871,1.4623 8.939452,0.51977 17.910578,0.60244 26.861422,0.34515 8.88005,-0.25526 17.77194,-0.75675 26.58528,-1.87266 3.97501,-0.50332 7.96834,-1.07576 11.82259,-2.17056 2.15781,-0.61291 6.26938,-2.4457 6.26938,-2.4457"
       style="fill:none;stroke:url(#linearGradient3346);stroke-width:0.37481201px;stroke-linecap:butt;stroke-linejoin:miter;stroke-opacity:1" />
  </g>
</svg>
