<?xml version="1.0" encoding="UTF-8" standalone="no"?>
<!-- Created with Inkscape (http://www.inkscape.org/) -->

<svg
   xmlns:dc="http://purl.org/dc/elements/1.1/"
   xmlns:cc="http://creativecommons.org/ns#"
   xmlns:rdf="http://www.w3.org/1999/02/22-rdf-syntax-ns#"
   xmlns:svg="http://www.w3.org/2000/svg"
   xmlns="http://www.w3.org/2000/svg"
   xmlns:xlink="http://www.w3.org/1999/xlink"
   xmlns:sodipodi="http://sodipodi.sourceforge.net/DTD/sodipodi-0.dtd"
   xmlns:inkscape="http://www.inkscape.org/namespaces/inkscape"
   version="1.0"
   width="16"
   height="16"
   id="svg2557"
   inkscape:version="0.48.4 r9939"
   sodipodi:docname="audio-x-playlist.svg">
  <metadata
     id="metadata30">
    <rdf:RDF>
      <cc:Work
         rdf:about="">
        <dc:format>image/svg+xml</dc:format>
        <dc:type
           rdf:resource="http://purl.org/dc/dcmitype/StillImage" />
        <dc:title />
      </cc:Work>
    </rdf:RDF>
  </metadata>
  <sodipodi:namedview
     pagecolor="#ffffff"
     bordercolor="#666666"
     borderopacity="1"
     objecttolerance="10"
     gridtolerance="10"
     guidetolerance="10"
     inkscape:pageopacity="0"
     inkscape:pageshadow="2"
     inkscape:window-width="1373"
     inkscape:window-height="777"
     id="namedview28"
     showgrid="false"
     inkscape:zoom="19.9375"
     inkscape:cx="0.35109718"
     inkscape:cy="8.7523511"
     inkscape:window-x="0"
     inkscape:window-y="24"
     inkscape:window-maximized="0"
     inkscape:current-layer="svg2557" />
  <defs
     id="defs2559">
    <linearGradient
       id="linearGradient8589">
      <stop
         id="stop8591"
         style="stop-color:#fefefe;stop-opacity:1"
         offset="0" />
      <stop
         id="stop8593"
         style="stop-color:#cbcbcb;stop-opacity:1"
         offset="1" />
    </linearGradient>
    <linearGradient
       x1="32.892288"
       y1="8.0590115"
       x2="36.358372"
       y2="5.4565363"
       id="linearGradient2507"
       xlink:href="#linearGradient8589"
       gradientUnits="userSpaceOnUse"
       gradientTransform="matrix(0.3091956,0,0,0.3766935,0.4761461,0.1071779)" />
    <linearGradient
       id="linearGradient3211">
      <stop
         id="stop3213"
         style="stop-color:#ffffff;stop-opacity:1"
         offset="0" />
      <stop
         id="stop3215"
         style="stop-color:#ffffff;stop-opacity:0"
         offset="1" />
    </linearGradient>
    <linearGradient
       x1="24"
       y1="1.9999999"
       x2="24"
       y2="46.01725"
       id="linearGradient2511"
       xlink:href="#linearGradient3211"
       gradientUnits="userSpaceOnUse"
       gradientTransform="matrix(0.2727267,0,0,0.302325,1.4545607,0.7441991)" />
    <linearGradient
       x1="-51.786404"
       y1="50.786446"
       x2="-51.786404"
       y2="2.9062471"
       id="linearGradient2519"
       xlink:href="#linearGradient3104"
       gradientUnits="userSpaceOnUse"
       gradientTransform="matrix(0.2537858,0,0,0.3050189,19.128982,-0.6854851)" />
    <linearGradient
       id="linearGradient3600">
      <stop
         id="stop3602"
         style="stop-color:#f4f4f4;stop-opacity:1"
         offset="0" />
      <stop
         id="stop3604"
         style="stop-color:#dbdbdb;stop-opacity:1"
         offset="1" />
    </linearGradient>
    <linearGradient
       x1="25.132275"
       y1="0.98520643"
       x2="25.132275"
       y2="47.013336"
       id="linearGradient2517"
       xlink:href="#linearGradient3600"
       gradientUnits="userSpaceOnUse"
       gradientTransform="matrix(0.3142872,0,0,0.3259268,0.4571068,-0.3222465)" />
    <linearGradient
       id="linearGradient3104">
      <stop
         id="stop3106"
         style="stop-color:#aaaaaa;stop-opacity:1"
         offset="0" />
      <stop
         id="stop3108"
         style="stop-color:#c8c8c8;stop-opacity:1"
         offset="1" />
    </linearGradient>
    <linearGradient
       x1="21.982096"
       y1="28.717724"
       x2="21.982096"
       y2="7.4760718"
       id="linearGradient2553"
       xlink:href="#linearGradient3104"
       gradientUnits="userSpaceOnUse"
       gradientTransform="translate(-7.982096,-8.042067)" />
    <linearGradient
       inkscape:collect="always"
       xlink:href="#linearGradient3783"
       id="linearGradient3789"
       x1="7.2591696"
       y1="6.7927251"
       x2="7.2591696"
       y2="19.085949"
       gradientUnits="userSpaceOnUse"
       gradientTransform="matrix(1.0976756,0,0,1.0502174,-1.1551998,-0.75754239)" />
    <linearGradient
       id="linearGradient3783">
      <stop
         style="stop-color:#d7e866;stop-opacity:1;"
         offset="0"
         id="stop3785" />
      <stop
         style="stop-color:#94b62d;stop-opacity:1;"
         offset="1"
         id="stop3787" />
    </linearGradient>
    <radialGradient
       cx="14.270205"
       cy="36.985195"
       r="5.7384715"
       fx="14.270205"
       fy="36.985195"
       id="radialGradient3538-3"
       xlink:href="#linearGradient3791"
       gradientUnits="userSpaceOnUse"
       gradientTransform="matrix(0.67744776,-0.14923998,-0.10647048,0.72716988,-4.4290276,-13.198218)" />
    <linearGradient
       id="linearGradient3791">
      <stop
         id="stop3793"
         offset="0"
         style="stop-color:#ffffff;stop-opacity:1;" />
      <stop
         id="stop3795"
         offset="1"
         style="stop-color:#badf4a;stop-opacity:0.10416666;" />
    </linearGradient>
    <linearGradient
       x1="28.256302"
       y1="129.73555"
       x2="57.507824"
       y2="181.79546"
       id="linearGradient3542-4"
       xlink:href="#linearGradient2372-7-3"
       gradientUnits="userSpaceOnUse"
       gradientTransform="matrix(0.13863734,0,0,0.13519235,0.924999,-15.474496)" />
    <linearGradient
       id="linearGradient2372-7-3">
      <stop
         id="stop2374-5-9"
         style="stop-color:#ffffff;stop-opacity:1"
         offset="0" />
      <stop
         id="stop2376-3-7"
         style="stop-color:#ffffff;stop-opacity:0.37931034"
         offset="1" />
    </linearGradient>
    <linearGradient
       inkscape:collect="always"
       xlink:href="#linearGradient2372-7-3"
       id="linearGradient3976"
       gradientUnits="userSpaceOnUse"
       gradientTransform="matrix(0.23748834,0,0,0.12407777,6.8155403,-14.055734)"
       x1="28.739122"
       y1="144.11652"
       x2="26.256771"
       y2="125.39074" />
    <linearGradient
       id="linearGradient3791-2">
      <stop
         id="stop3793-3"
         offset="0"
         style="stop-color:#ffffff;stop-opacity:1;" />
      <stop
         id="stop3795-6"
         offset="1"
         style="stop-color:#badf4a;stop-opacity:0.10416666;" />
    </linearGradient>
    <radialGradient
       r="5.7384715"
       fy="36.985195"
       fx="14.270205"
       cy="36.985195"
       cx="14.270205"
       gradientTransform="matrix(0.67744776,-0.14923998,-0.10647048,0.72716988,3.8281406,-13.229727)"
       gradientUnits="userSpaceOnUse"
       id="radialGradient3080"
       xlink:href="#linearGradient3791-2"
       inkscape:collect="always" />
  </defs>
  <g
     id="layer1">
    <g
       id="g2584">
      <path
         d="M 2.4999615,0.4999664 C 5.0206371,0.4999664 7.4205035,0.4999664 9.9411815,0.4999664 C 10.383361,0.6617599 12.879694,2.6328115 13.500013,3.9090875 C 13.500013,7.8153335 13.500039,11.593785 13.500039,15.500034 C 9.8333455,15.500034 6.1666541,15.500034 2.4999615,15.500034 C 2.4999615,10.500011 2.4999615,5.4999875 2.4999615,0.4999664 z"
         id="path4160"
         style="fill:url(#linearGradient2517);fill-opacity:1;stroke:url(#linearGradient2519);stroke-width:0.99992162;stroke-linecap:butt;stroke-linejoin:round;stroke-miterlimit:4;stroke-dasharray:none;stroke-dashoffset:0;stroke-opacity:1;display:inline" />
      <path
         d="M 12.5,4.2150736 C 12.5,7.6004717 12.5,11.114602 12.5,14.500001 C 9.500001,14.500001 6.500001,14.500001 3.5000001,14.500001 C 3.5000001,10.166664 3.5000001,5.8333326 3.5000001,1.5 C 5.562357,1.5 7.6738997,1.5 9.7362577,1.5"
         id="path2435"
         style="opacity:0.6;fill:none;fill-opacity:1;stroke:url(#linearGradient2511);stroke-width:0.99999994;stroke-linecap:butt;stroke-linejoin:miter;stroke-miterlimit:4;stroke-dasharray:none;stroke-dashoffset:0;stroke-opacity:1;display:inline" />
      <path
         d="M 9.2941205,0.8409023 C 10.142028,3.6448055 9,5.0341186 9,5.0341186 C 9,5.0341186 10.892807,3.7827125 13.171354,4.9318145 C 15.11421,5.9116229 13.207429,3.9237905 13.129895,3.8027685 C 12.586944,2.9552643 10.707454,1.1696619 10.025256,0.8725867 C 9.9696235,0.8483603 9.5814385,0.8409023 9.2941205,0.8409023 z"
         id="path3330"
         style="fill:#c1c1c1;fill-opacity:1;fill-rule:evenodd;stroke:none;stroke-width:1px;stroke-linecap:butt;stroke-linejoin:miter;stroke-opacity:1;display:inline" />
      <path
         d="M 9.2941205,0.8409023 C 10.281641,0.8409023 10,4.0219212 10,4.0219212 C 10,4.0219212 12.272472,3.5211898 13.171354,4.9318145 C 13.334236,5.1874273 13.207429,3.9237905 13.129895,3.8027685 C 12.586944,2.9552643 10.707454,1.1696619 10.025256,0.8725867 C 9.9696235,0.8483603 9.5814385,0.8409023 9.2941205,0.8409023 z"
         id="path4474"
         style="fill:url(#linearGradient2507);fill-opacity:1;fill-rule:evenodd;stroke:none;stroke-width:1px;stroke-linecap:butt;stroke-linejoin:miter;stroke-opacity:1;display:inline" />
    </g>
    <path
       d="M 5,3.5050064 L 7.34375,3.5050064 L 5,3.5050064 z M 7.6875,3.5050064 L 9.875,3.5050064 L 7.6875,3.5050064 z M 5,5.5050064 L 8.65625,5.5050064 L 5,5.5050064 z M 9.0625,5.5050064 L 10.8125,5.5050064 L 9.0625,5.5050064 z M 5,8.5080331 L 8.09375,8.5080331 L 5,8.5080331 z M 8.40625,8.5080331 L 11.09124,8.5080331 L 8.40625,8.5080331 z M 5,12.5 L 7.34375,12.5 L 5,12.5 z M 7.6875,12.5 L 9.84375,12.5 L 7.6875,12.5 z M 5,10.5 L 8.875,10.5 L 5,10.5 z M 9.21875,10.5 L 10.96875,10.5 L 9.21875,10.5 z"
       id="path2551"
       style="fill:none;fill-rule:evenodd;stroke:url(#linearGradient2553);stroke-width:1px;stroke-linecap:butt;stroke-linejoin:miter;stroke-opacity:1" />
  </g>
  <g
     transform="matrix(1.0322581,0,0,1.0322581,0.56865181,0.82149993)"
     id="layer1-8">
    <path
       inkscape:connector-curvature="0"
       d="M 12.9907,11.049673 12.588205,7.9462293"
       id="path2931-3"
       style="fill:none;stroke:none"
       sodipodi:nodetypes="cc" />
    <path
       inkscape:connector-curvature="0"
       d="m 4.4316799,3.4296786 c 0,2.6590902 0,3.0875824 0,5.7466733 -1.4438187,0 -3.65948881,0.3266564 -3.75971326,2.6986481 -0.12431415,1.122093 0.72993156,2.762523 2.30780666,2.799172 1.5778749,0.03665 3.7672562,-0.847621 3.78922,-2.473123 -0.022112,-2.7299467 0.0062,-5.5392811 0,-8.2696442 0.3820013,0 4.6516907,0 5.1372567,0 0,2.0449276 0,3.2000193 0,5.2449471 -1.129073,0 -3.6867709,0.099811 -3.6867709,2.6986481 -0.1816406,1.289746 1.0056376,2.799172 2.5122239,2.799172 1.506586,0 3.27904,-1.078161 3.3009,-2.472703 -0.02905,-3.6402374 0.02155,-6.1346258 -0.0022,-9.77525 -0.01674,-0.3514531 -0.712397,-1.1038014 -1.458519,-1.1038014 -2.159757,0 -4.6897871,0 -6.6624786,0 -0.9053153,0 -1.4777146,1.0772599 -1.4777146,2.107261 z"
       id="path4031-1"
       style="fill:url(#linearGradient3789);fill-opacity:1;stroke:#507f16;stroke-width:0.48437497;stroke-linecap:butt;stroke-linejoin:round;stroke-miterlimit:4;stroke-opacity:1;stroke-dasharray:none"
       sodipodi:nodetypes="ccczccccczccsscc" />
    <path
       inkscape:connector-curvature="0"
       d="M 5.7088054,11.202009 C 5.7085779,12.370408 4.6387131,14.092533 3.3190468,14.308534 1.9993805,14.524536 0.92929007,13.402567 0.92929074,11.984303 0.9292914,10.566039 2.2298138,9.4777544 3.319049,9.4777544 c 1.3346539,0 2.3895301,0.5559306 2.3897564,1.7242546 z"
       id="path2937-4"
       style="fill:url(#radialGradient3538-3);fill-opacity:1;stroke:none"
       sodipodi:nodetypes="czzsc" />
    <path
       d="M 4.7661427,9.615686 4.7428009,3.3789782 c 0,0 0.3365835,-1.4644934 1.6908026,-1.6622697 0.1941164,-0.028484 5.2584465,-0.1069259 5.2584465,-0.1069259 0,0 1.724797,-0.1864628 -5.0730387,0.7797262 C 5.8732007,2.5767386 5.268485,3.270694 5.268485,3.3471927 c 0,1.3877134 0.056808,1.4330125 0.056808,6.4858759 0,0.036155 -0.3566763,-0.167436 -0.5591509,-0.2173941 z"
       id="path2945-9"
       style="opacity:0.4;fill:url(#linearGradient3542-4);fill-opacity:1;fill-rule:evenodd;stroke:none"
       inkscape:connector-curvature="0"
       sodipodi:nodetypes="ccsccsscc" />
    <path
       d="m 12.120026,9.5899829 0.262413,-5.5990032 0.501012,0 c 0,0 2.54e-4,1.3627109 2.54e-4,5.8216907 0,0.033236 -0.416827,-0.1768497 -0.763679,-0.2226875 z"
       id="path2947-4"
       style="opacity:0.4;fill:url(#linearGradient3976);fill-opacity:1;fill-rule:evenodd;stroke:none"
       inkscape:connector-curvature="0"
       sodipodi:nodetypes="cccsc" />
    <path
       inkscape:connector-curvature="0"
       d="m 13.206163,11.1705 c -2.27e-4,1.168399 -1.070092,2.890524 -2.389758,3.106525 -1.3196667,0.216002 -2.3897571,-0.905967 -2.3897564,-2.324231 6e-7,-1.418264 1.3005229,-2.5065484 2.3897584,-2.5065484 1.334654,0 2.38953,0.5559304 2.389756,1.7242544 z"
       id="path2937-4-0"
       style="fill:url(#radialGradient3080);fill-opacity:1;stroke:none"
       sodipodi:nodetypes="czzsc" />
  </g>
</svg>
