<?xml version="1.0" encoding="UTF-8" standalone="no"?>
<!-- Created with Inkscape (http://www.inkscape.org/) -->

<svg
   xmlns:dc="http://purl.org/dc/elements/1.1/"
   xmlns:cc="http://creativecommons.org/ns#"
   xmlns:rdf="http://www.w3.org/1999/02/22-rdf-syntax-ns#"
   xmlns:svg="http://www.w3.org/2000/svg"
   xmlns="http://www.w3.org/2000/svg"
   xmlns:xlink="http://www.w3.org/1999/xlink"
   xmlns:sodipodi="http://sodipodi.sourceforge.net/DTD/sodipodi-0.dtd"
   xmlns:inkscape="http://www.inkscape.org/namespaces/inkscape"
   version="1.0"
   width="16"
   height="16"
   id="svg2"
   inkscape:version="0.48.4 r9939"
   sodipodi:docname="xfce-multimedia.svg">
  <metadata
     id="metadata81">
    <rdf:RDF>
      <cc:Work
         rdf:about="">
        <dc:format>image/svg+xml</dc:format>
        <dc:type
           rdf:resource="http://purl.org/dc/dcmitype/StillImage" />
        <dc:title />
      </cc:Work>
    </rdf:RDF>
  </metadata>
  <sodipodi:namedview
     pagecolor="#ffffff"
     bordercolor="#666666"
     borderopacity="1"
     objecttolerance="10"
     gridtolerance="10"
     guidetolerance="10"
     inkscape:pageopacity="0"
     inkscape:pageshadow="2"
     inkscape:window-width="1156"
     inkscape:window-height="825"
     id="namedview79"
     showgrid="true"
     inkscape:zoom="32"
     inkscape:cx="11.07455"
     inkscape:cy="9.4528128"
     inkscape:window-x="220"
     inkscape:window-y="24"
     inkscape:window-maximized="0"
     inkscape:current-layer="svg2"
     showguides="true">
    <inkscape:grid
       empspacing="5"
       visible="true"
       enabled="true"
       snapvisiblegridlinesonly="true"
       type="xygrid"
       id="grid3126" />
  </sodipodi:namedview>
  <defs
     id="defs4">
    <linearGradient
       x1="12.872127"
       y1="5.0561161"
       x2="12.872127"
       y2="21.467987"
       id="linearGradient2926"
       xlink:href="#linearGradient3522"
       gradientUnits="userSpaceOnUse"
       gradientTransform="matrix(0.8074178,0,0,0.7546417,-0.4469554,0.78020858)" />
    <linearGradient
       id="linearGradient3522">
      <stop
         id="stop3524"
         style="stop-color:#a3c0d0;stop-opacity:1"
         offset="0" />
      <stop
         id="stop3526"
         style="stop-color:#5a8caa;stop-opacity:1"
         offset="1" />
    </linearGradient>
    <linearGradient
       x1="5.6597543"
       y1="18.299864"
       x2="5.6597543"
       y2="1"
       id="linearGradient2928"
       xlink:href="#linearGradient3582"
       gradientUnits="userSpaceOnUse"
       gradientTransform="matrix(1.027427,0,0,0.9688625,-0.337368,0.25515478)" />
    <linearGradient
       id="linearGradient3582">
      <stop
         id="stop3584"
         style="stop-color:#333333;stop-opacity:1"
         offset="0" />
      <stop
         id="stop3586"
         style="stop-color:#5a5a5a;stop-opacity:1"
         offset="1" />
    </linearGradient>
    <linearGradient
       x1="2.6708329"
       y1="18.300243"
       x2="2.6708329"
       y2="0.7810511"
       id="linearGradient2933"
       xlink:href="#linearGradient3582"
       gradientUnits="userSpaceOnUse"
       gradientTransform="matrix(0.9846423,0,0,0.9700961,0.09316947,0.24338418)" />
    <linearGradient
       id="linearGradient5060">
      <stop
         id="stop5062"
         style="stop-color:#000000;stop-opacity:1"
         offset="0" />
      <stop
         id="stop5064"
         style="stop-color:#000000;stop-opacity:0"
         offset="1" />
    </linearGradient>
    <linearGradient
       x1="302.85715"
       y1="366.64789"
       x2="302.85715"
       y2="609.50507"
       id="linearGradient4329"
       xlink:href="#linearGradient5048"
       gradientUnits="userSpaceOnUse"
       gradientTransform="matrix(0.02274695,0,0,0.01180411,1.286836,11.799198)" />
    <linearGradient
       id="linearGradient5048">
      <stop
         id="stop5050"
         style="stop-color:#000000;stop-opacity:0"
         offset="0" />
      <stop
         id="stop5056"
         style="stop-color:#000000;stop-opacity:1"
         offset="0.5" />
      <stop
         id="stop5052"
         style="stop-color:#000000;stop-opacity:0"
         offset="1" />
    </linearGradient>
    <radialGradient
       cx="605.71429"
       cy="486.64789"
       r="117.14286"
       fx="605.71429"
       fy="486.64789"
       id="radialGradient4021"
       xlink:href="#linearGradient5060"
       gradientUnits="userSpaceOnUse"
       gradientTransform="matrix(-0.01506768,0,0,0.01180411,13.069191,11.799198)" />
    <linearGradient
       id="linearGradient3783">
      <stop
         style="stop-color:#d7e866;stop-opacity:1;"
         offset="0"
         id="stop3785" />
      <stop
         style="stop-color:#94b62d;stop-opacity:1;"
         offset="1"
         id="stop3787" />
    </linearGradient>
    <linearGradient
       id="linearGradient3791">
      <stop
         id="stop3793"
         offset="0"
         style="stop-color:#ffffff;stop-opacity:0.88235295;" />
      <stop
         style="stop-color:#dcefa4;stop-opacity:0.55294118;"
         offset="0.63087368"
         id="stop4084" />
      <stop
         id="stop3795"
         offset="1"
         style="stop-color:#badf4a;stop-opacity:0.10416666;" />
    </linearGradient>
    <linearGradient
       id="linearGradient2372-7-3-2">
      <stop
         id="stop2374-5-9-1"
         style="stop-color:#ffffff;stop-opacity:1"
         offset="0" />
      <stop
         id="stop2376-3-7-7"
         style="stop-color:#ffffff;stop-opacity:0.37931034"
         offset="1" />
    </linearGradient>
    <linearGradient
       id="linearGradient4088">
      <stop
         style="stop-color:#ffffff;stop-opacity:0.88235295;"
         offset="0"
         id="stop4090" />
      <stop
         id="stop4092"
         offset="0.5824635"
         style="stop-color:#dcefa4;stop-opacity:0.55294118;" />
      <stop
         style="stop-color:#badf4a;stop-opacity:0.10416666;"
         offset="1"
         id="stop4094" />
    </linearGradient>
    <linearGradient
       inkscape:collect="always"
       xlink:href="#linearGradient3783"
       id="linearGradient3900"
       gradientUnits="userSpaceOnUse"
       gradientTransform="matrix(1.0976756,0,0,1.0502174,-1.1551998,-0.75754239)"
       x1="7.2591696"
       y1="6.7927251"
       x2="7.2591696"
       y2="19.085949" />
    <radialGradient
       inkscape:collect="always"
       xlink:href="#linearGradient3791"
       id="radialGradient3902"
       gradientUnits="userSpaceOnUse"
       gradientTransform="matrix(0.81806541,-0.10877094,-0.20825234,0.68759637,-3.1593553,-12.577598)"
       cx="14.270205"
       cy="36.985195"
       fx="14.270205"
       fy="36.985195"
       r="5.7384715" />
    <linearGradient
       inkscape:collect="always"
       xlink:href="#linearGradient2372-7-3-2"
       id="linearGradient3904"
       gradientUnits="userSpaceOnUse"
       gradientTransform="matrix(0.13863734,0,0,0.13519235,-0.62747266,-15.576559)"
       x1="28.256302"
       y1="129.73555"
       x2="57.507824"
       y2="181.79546" />
    <linearGradient
       inkscape:collect="always"
       xlink:href="#linearGradient2372-7-3-2"
       id="linearGradient3906"
       gradientUnits="userSpaceOnUse"
       gradientTransform="matrix(0.23748834,0,0,0.12755256,6.5903768,-14.711494)"
       x1="28.739122"
       y1="144.11652"
       x2="26.256771"
       y2="125.39074" />
    <radialGradient
       inkscape:collect="always"
       xlink:href="#linearGradient4088"
       id="radialGradient3908"
       gradientUnits="userSpaceOnUse"
       gradientTransform="matrix(0.73175313,-0.14013174,-0.15130676,0.72790625,4.3891735,-13.49679)"
       cx="13.935157"
       cy="36.6506"
       fx="13.935157"
       fy="36.6506"
       r="5.7384715" />
  </defs>
  <g
     id="layer1"
     transform="matrix(0.65647116,0,0,0.66045762,-1.2484414,-0.58142241)">
    <g
       transform="translate(0.01283355,-1.0582085e-7)"
       id="g4322"
       style="display:inline">
      <rect
         width="10.98353"
         height="2.8667126"
         x="4.0164704"
         y="16.127151"
         id="rect4173"
         style="opacity:0.40206185;fill:url(#linearGradient4329);fill-opacity:1;fill-rule:nonzero;stroke:none;stroke-width:0.75;marker:none;visibility:visible;display:inline;overflow:visible" />
      <path
         d="m 4.0164708,16.127249 0,2.866554 c -4.01211814,-0.14816 -2.9186428,-2.823378 0,-2.866554 z"
         id="path5018"
         style="opacity:0.40206185;fill:url(#radialGradient4021);fill-opacity:1;fill-rule:nonzero;stroke:none;stroke-width:0.75;marker:none;visibility:visible;display:inline;overflow:visible"
         inkscape:connector-curvature="0"
         sodipodi:nodetypes="ccc" />
    </g>
    <path
       d="m 5.0374533,17.511112 c -0.8143479,0 -1.6286962,0 -2.4430441,0 -0.1979362,-0.189711 -0.047423,-0.566366 -0.094453,-0.83494 0,-5.031738 0,-10.0634785 0,-15.0952182 l 0.027604,-0.065158 0.066849,-0.026906 0,0 c 0.8475705,0 1.5622515,0 2.4098219,0 m 8.9834929,-2.197e-4 c 0.81372,0 1.718272,0 2.522432,0 0,1.665525 5e-6,3.7035151 0,7.0622638 -1.82655,0 -3.603541,8.5610101 -4.009152,8.4801331 -0.548493,0 2.05565,0.469541 1.507158,0.469541"
       id="path3385"
       style="fill:#ffffff;fill-opacity:1;fill-rule:nonzero;stroke:url(#linearGradient2933);stroke-width:0.97734219;stroke-linecap:butt;stroke-linejoin:round;stroke-miterlimit:4;stroke-opacity:1;stroke-dasharray:none;stroke-dashoffset:0;marker:none;visibility:visible;display:block;overflow:visible"
       inkscape:connector-curvature="0"
       sodipodi:nodetypes="ccccccccccccc" />
    <rect
       width="10.002285"
       height="16.001337"
       rx="0"
       ry="0"
       x="4.4988575"
       y="1.4993321"
       id="rect3457"
       style="fill:url(#linearGradient2926);fill-opacity:1;stroke:url(#linearGradient2928);stroke-width:0.99771523;stroke-linecap:butt;stroke-linejoin:miter;stroke-miterlimit:4;stroke-opacity:1;stroke-dasharray:none;stroke-dashoffset:0;display:inline" />
    <path
       d="m 5.4813648,2.5081265 c 2.6790905,0 5.3581812,0 8.0372722,0"
       id="rect15660"
       style="opacity:0.36637932;fill:none;stroke:#ffffff;stroke-width:0.97318149;stroke-linecap:square;stroke-linejoin:round;stroke-miterlimit:4;stroke-opacity:1;stroke-dasharray:none;stroke-dashoffset:0;marker:none;visibility:visible;display:block;overflow:visible"
       inkscape:connector-curvature="0" />
    <path
       d="m 5.4865907,9.5134092 c 2.6790905,0 5.3581813,0 8.0372723,0"
       id="path4320"
       style="fill:none;stroke:#464646;stroke-width:0.97318149;stroke-linecap:square;stroke-linejoin:round;stroke-miterlimit:4;stroke-opacity:1;stroke-dasharray:none;stroke-dashoffset:0;marker:none;visibility:visible;display:block;overflow:visible"
       inkscape:connector-curvature="0" />
    <path
       d="m 5.4865907,10.513409 c 2.6790905,0 5.3581813,0 8.0372723,0"
       id="path4318"
       style="opacity:0.36637932000000001;fill:none;stroke:#ffffff;stroke-width:0.97348155000000003;stroke-linecap:square;stroke-linejoin:round;stroke-miterlimit:4;stroke-opacity:1;stroke-dasharray:none;stroke-dashoffset:0;marker:none;visibility:visible;display:block;overflow:visible"
       inkscape:connector-curvature="0" />
    <rect
       width="1.0262951"
       height="1.2664751"
       x="14.996013"
       y="2.9599047"
       id="rect3466-7"
       style="fill:#787878;fill-opacity:1;stroke:none;display:inline" />
  </g>
  <g
     id="layer1-8"
     transform="matrix(0.7743228,0,0,0.85166917,5.728651,3.7370003)">
    <path
       sodipodi:nodetypes="cc"
       style="fill:none;stroke:none"
       id="path2931-3"
       d="M 12.9907,11.049673 12.588205,7.9462293"
       inkscape:connector-curvature="0" />
    <path
       sodipodi:nodetypes="ccscccccssccssc"
       style="fill:url(#linearGradient3900);fill-opacity:1;stroke:#507f16;stroke-width:0.46778479;stroke-linecap:butt;stroke-linejoin:round;stroke-miterlimit:4;stroke-opacity:1;stroke-dasharray:none"
       id="path4031-1"
       d="m 2.7717493,3.2234868 c 0,2.6590902 0,2.9458245 0,5.6049154 -1.4438187,0 -3.30977019,0.2678914 -3.46205303,2.6375918 -0.07235,1.125851 0.57238166,2.529497 2.39285243,2.775153 1.4212769,0.177049 3.8550349,-0.553686 3.8798208,-2.388048 -0.022112,-2.7299464 0.0062,-4.7219664 0,-7.4523295 0.3820013,0 4.3702244,0 4.8557905,0 0,2.0449276 0,2.2667217 0,4.3116495 -1.2464856,0 -3.3121949,0.3161727 -3.4234833,2.698648 -0.060683,1.299105 0.9355147,2.670707 2.6291847,2.769801 1.4596206,0.0854 3.3714266,-0.805015 3.3714266,-2.443332 -0.02905,-3.6402373 0.02155,-5.4590756 -0.0022,-9.0996998 0,-0.9266441 -0.501313,-1.5216104 -1.611616,-1.5216104 -2.1597566,0 -4.1501297,0 -6.1228212,0 -1.4414163,0 -2.5068906,1.0772599 -2.5069015,2.107261 z"
       inkscape:connector-curvature="0" />
    <path
       sodipodi:nodetypes="ccssc"
       style="fill:url(#radialGradient3902);fill-opacity:1;stroke:none"
       id="path2937-4"
       d="m 5.2366626,10.625474 c -2.275e-4,1.168399 -0.1656813,3.023653 -3.0829017,3.325817 -1.35146564,-0.06243 -2.55261688,-0.575639 -2.55261688,-2.403025 0,-1.4675 0.89238414,-2.1519638 2.04064488,-2.3549473 C 3.86999,8.7994289 5.2364363,9.6171686 5.2366626,10.625474 z"
       inkscape:connector-curvature="0" />
    <path
       sodipodi:nodetypes="csssccaccc"
       inkscape:connector-curvature="0"
       style="opacity:0.6;fill:url(#linearGradient3904);fill-opacity:1;fill-rule:evenodd;stroke:none"
       id="path2945-9"
       d="m 3.0132767,9.0493184 c 0,0 0.00549,-3.8887884 0.00549,-5.852198 0,-0.2641802 0.3264932,-0.7180426 0.6229126,-1.0432098 0.2510258,-0.2753712 1.0436516,-0.6580888 1.4798297,-0.6580888 0.1966284,0 4.7681277,-0.028983 4.7681277,-0.028983 0,0 2.5882083,-0.074065 -4.9948678,0.6213244 C 4.6022379,2.1616005 4.1860991,2.3323533 3.9743966,2.5957586 3.7183609,2.9143242 3.6824913,3.2983932 3.6692841,3.7464525 3.6540482,5.0793216 3.6372889,4.3106464 3.634004,9.2034924 3.4962006,9.1383665 3.2471275,9.092067 3.0132767,9.0493184 z" />
    <path
       sodipodi:nodetypes="cccsc"
       inkscape:connector-curvature="0"
       style="opacity:0.4;fill:url(#linearGradient3906);fill-opacity:1;fill-rule:evenodd;stroke:none"
       id="path2947-4-1"
       d="m 10.710201,8.856263 -1.72e-4,-5.0156465 0.575268,0 c 0,0 2.54e-4,0.5882191 2.54e-4,5.1720726 0,0.034171 -0.228498,-0.1093046 -0.57535,-0.1564261 z" />
    <path
       sodipodi:nodetypes="csssc"
       style="fill:url(#radialGradient3908);fill-opacity:1;stroke:none"
       id="path2937-4-0"
       d="m 12.873943,10.923049 c -2.27e-4,1.168399 -0.839777,3.320135 -3.4350756,2.94396 -1.351733,-0.195927 -2.0854745,-0.881549 -2.0854737,-2.439074 7e-7,-1.426968 0.6161351,-2.0300539 1.9801697,-2.3278902 2.2253356,-0.485901 3.5403796,0.4130166 3.5403796,1.8230042 z"
       inkscape:connector-curvature="0" />
  </g>
</svg>
