<?xml version="1.0" encoding="UTF-8" standalone="no"?>
<!-- Created with Inkscape (http://www.inkscape.org/) -->

<svg
   xmlns:dc="http://purl.org/dc/elements/1.1/"
   xmlns:cc="http://creativecommons.org/ns#"
   xmlns:rdf="http://www.w3.org/1999/02/22-rdf-syntax-ns#"
   xmlns:svg="http://www.w3.org/2000/svg"
   xmlns="http://www.w3.org/2000/svg"
   xmlns:sodipodi="http://sodipodi.sourceforge.net/DTD/sodipodi-0.dtd"
   xmlns:inkscape="http://www.inkscape.org/namespaces/inkscape"
   version="1.0"
   width="48"
   height="48"
   id="svg3196"
   inkscape:version="0.48.4 r9939"
   sodipodi:docname="dropboxstatus-logo.svg">
  <metadata
     id="metadata15">
    <rdf:RDF>
      <cc:Work
         rdf:about="">
        <dc:format>image/svg+xml</dc:format>
        <dc:type
           rdf:resource="http://purl.org/dc/dcmitype/StillImage" />
        <dc:title />
      </cc:Work>
    </rdf:RDF>
  </metadata>
  <sodipodi:namedview
     pagecolor="#ffffff"
     bordercolor="#666666"
     borderopacity="1"
     objecttolerance="10"
     gridtolerance="10"
     guidetolerance="10"
     inkscape:pageopacity="0"
     inkscape:pageshadow="2"
     inkscape:window-width="1326"
     inkscape:window-height="801"
     id="namedview13"
     showgrid="false"
     inkscape:zoom="2.828427"
     inkscape:cx="9.4289508"
     inkscape:cy="-42.954499"
     inkscape:window-x="96"
     inkscape:window-y="76"
     inkscape:window-maximized="0"
     inkscape:current-layer="svg3196" />
  <defs
     id="defs3198" />
  <path
     style="fill:#c8c8c8;fill-opacity:1;fill-rule:nonzero;stroke:none"
     d="M 8 10 L 8 38 L 40 38 L 40 10 L 8 10 z M 24.09375 13.3125 C 25.81621 13.312521 27.21088 13.779475 28.25 14.6875 C 29.29845 15.59556 29.81248 16.79283 29.8125 18.28125 C 29.81248 18.99272 29.64949 19.66659 29.3125 20.3125 C 28.97548 20.94908 28.37375 21.6637 27.53125 22.46875 L 26.3125 23.6875 C 25.87251 24.12749 25.56221 24.46601 25.375 24.71875 C 25.19712 24.96215 25.04365 25.20348 24.96875 25.4375 C 24.91255 25.6341 24.87185 25.87542 24.84375 26.15625 C 24.81545 26.4371 24.81248 26.82572 24.8125 27.3125 L 24.8125 29.03125 L 22.125 29.03125 L 22.125 26.875 C 22.12499 25.92952 22.26913 25.13974 22.53125 24.53125 C 22.79336 23.92278 23.34497 23.21133 24.1875 22.40625 L 25.4375 21.15625 C 25.97108 20.66012 26.3597 20.19 26.59375 19.75 C 26.83713 19.31004 26.96874 18.86497 26.96875 18.40625 C 26.96874 17.57311 26.64908 16.88989 26.03125 16.375 C 25.42275 15.86015 24.60476 15.62502 23.59375 15.625 C 22.8542 15.62502 22.061257 15.76613 21.21875 16.09375 C 20.38559 16.42141 19.53304 16.90406 18.625 17.53125 L 18.625 14.90625 C 19.50495 14.372677 20.38256 13.980886 21.28125 13.71875 C 22.189287 13.456655 23.12953 13.312521 24.09375 13.3125 z M 22.0625 31.09375 L 24.90625 31.09375 L 24.90625 34.15625 L 22.0625 34.15625 L 22.0625 31.09375 z "
     id="rect3770" />
</svg>
