<?xml version="1.0" encoding="UTF-8" standalone="no"?>
<!-- Created with Inkscape (http://www.inkscape.org/) -->

<svg
   xmlns:dc="http://purl.org/dc/elements/1.1/"
   xmlns:cc="http://creativecommons.org/ns#"
   xmlns:rdf="http://www.w3.org/1999/02/22-rdf-syntax-ns#"
   xmlns:svg="http://www.w3.org/2000/svg"
   xmlns="http://www.w3.org/2000/svg"
   xmlns:sodipodi="http://sodipodi.sourceforge.net/DTD/sodipodi-0.dtd"
   xmlns:inkscape="http://www.inkscape.org/namespaces/inkscape"
   width="48"
   height="48"
   id="svg2"
   version="1.1"
   inkscape:version="0.48.4 r9939"
   sodipodi:docname="nm-no-connection.svg">
  <defs
     id="defs4" />
  <sodipodi:namedview
     id="base"
     pagecolor="#ffffff"
     bordercolor="#666666"
     borderopacity="1.0"
     inkscape:pageopacity="0.0"
     inkscape:pageshadow="2"
     inkscape:zoom="16"
     inkscape:cx="22.489674"
     inkscape:cy="31.380234"
     inkscape:document-units="px"
     inkscape:current-layer="layer1"
     showgrid="false"
     inkscape:window-width="1440"
     inkscape:window-height="830"
     inkscape:window-x="0"
     inkscape:window-y="24"
     inkscape:window-maximized="1" />
  <metadata
     id="metadata7">
    <rdf:RDF>
      <cc:Work
         rdf:about="">
        <dc:format>image/svg+xml</dc:format>
        <dc:type
           rdf:resource="http://purl.org/dc/dcmitype/StillImage" />
        <dc:title />
      </cc:Work>
    </rdf:RDF>
  </metadata>
  <g
     inkscape:label="Livello 1"
     inkscape:groupmode="layer"
     id="layer1"
     transform="translate(0,-1004.3622)">
    <path
       inkscape:connector-curvature="0"
       style="fill:#e00000;fill-opacity:1;stroke:none;opacity:0.2"
       d="m 24.01017,1012.6672 c -8.034557,0 -16.079014,3.0524 -22.20917,9.1826 l 2.562595,2.5626 c 10.84503,-10.8451 28.426755,-10.8451 39.271785,0 l 2.56259,-2.5626 c -6.13015,-6.1302 -14.15325,-9.1827 -22.1878,-9.1826 z"
       id="path2830" />
    <path
       inkscape:connector-curvature="0"
       style="fill:#e00000;fill-opacity:1;stroke:none;opacity:0.2"
       d="m 24.01017,1020.3976 c -6.053068,0 -12.123967,2.3221 -16.742299,6.9404 l 2.88292,2.8615 c 7.652894,-7.6529 20.044499,-7.6529 27.697389,0 l 2.88292,-2.8615 c -4.61833,-4.6183 -10.66787,-6.9404 -16.72094,-6.9404 z"
       id="path2823" />
    <path
       inkscape:connector-curvature="0"
       style="fill:#e00000;fill-opacity:1;stroke:none;opacity:0.2"
       d="m 24.01017,1028.1709 c -4.063935,0 -8.132043,1.5547 -11.232717,4.6553 l 2.690725,2.6908 c 4.722143,-4.71 12.366502,-4.7175 17.083972,0 l 2.66937,-2.6908 c -3.10067,-3.1006 -7.14743,-4.6553 -11.21135,-4.6553 z"
       id="path2818" />
    <path
       style="fill:#e00000;fill-opacity:1;fill-rule:nonzero;stroke:none;opacity:0.2"
       d="m 28,1036.3622 -8,0 0,4 -6,0 0,2 6,0 8,0 6,0 0,-2 -6,0 z"
       id="rect2823"
       sodipodi:nodetypes="ccccccccccc"
       inkscape:connector-curvature="0" />
  </g>
</svg>
