<?xml version="1.0" encoding="UTF-8" standalone="no"?>
<!-- Created with Inkscape (http://www.inkscape.org/) -->

<svg
   xmlns:dc="http://purl.org/dc/elements/1.1/"
   xmlns:cc="http://creativecommons.org/ns#"
   xmlns:rdf="http://www.w3.org/1999/02/22-rdf-syntax-ns#"
   xmlns:svg="http://www.w3.org/2000/svg"
   xmlns="http://www.w3.org/2000/svg"
   xmlns:xlink="http://www.w3.org/1999/xlink"
   xmlns:sodipodi="http://sodipodi.sourceforge.net/DTD/sodipodi-0.dtd"
   xmlns:inkscape="http://www.inkscape.org/namespaces/inkscape"
   width="48"
   height="48"
   id="svg2"
   version="1.1"
   inkscape:version="0.48.4 r9939"
   sodipodi:docname="weather-clouds-night.svg">
  <defs
     id="defs4">
    <linearGradient
       id="linearGradient3950">
      <stop
         style="stop-color:#646464;stop-opacity:1;"
         offset="0"
         id="stop3952" />
      <stop
         style="stop-color:#969696;stop-opacity:0;"
         offset="1"
         id="stop3954" />
    </linearGradient>
    <linearGradient
       id="linearGradient3942">
      <stop
         style="stop-color:#646464;stop-opacity:1;"
         offset="0"
         id="stop3944" />
      <stop
         style="stop-color:#969696;stop-opacity:0;"
         offset="1"
         id="stop3946" />
    </linearGradient>
    <linearGradient
       id="linearGradient3934">
      <stop
         style="stop-color:#646464;stop-opacity:1;"
         offset="0"
         id="stop3936" />
      <stop
         style="stop-color:#7d7d7d;stop-opacity:0;"
         offset="1"
         id="stop3938" />
    </linearGradient>
    <radialGradient
       inkscape:collect="always"
       xlink:href="#linearGradient3934"
       id="radialGradient3940"
       cx="17.867073"
       cy="19.273787"
       fx="17.867073"
       fy="19.273787"
       r="2.4622469"
       gradientUnits="userSpaceOnUse"
       gradientTransform="matrix(2.5129479,1.7904468e-7,-1.3650756e-7,1.9159261,-27.031948,-17.653368)" />
    <radialGradient
       inkscape:collect="always"
       xlink:href="#linearGradient3942"
       id="radialGradient3948"
       cx="17.777328"
       cy="19.78919"
       fx="17.777328"
       fy="19.78919"
       r="2.4622469"
       gradientUnits="userSpaceOnUse"
       gradientTransform="matrix(3.3843175,8.3461603e-8,-6.5500255e-8,2.6559957,-42.522575,-32.271361)" />
    <linearGradient
       inkscape:collect="always"
       xlink:href="#linearGradient3950"
       id="linearGradient3958"
       x1="27.077826"
       y1="24.962351"
       x2="39.767433"
       y2="20.460863"
       gradientUnits="userSpaceOnUse" />
  </defs>
  <sodipodi:namedview
     id="base"
     pagecolor="#ffffff"
     bordercolor="#666666"
     borderopacity="1.0"
     inkscape:pageopacity="0.0"
     inkscape:pageshadow="2"
     inkscape:zoom="5.6"
     inkscape:cx="13.022196"
     inkscape:cy="26.744631"
     inkscape:document-units="px"
     inkscape:current-layer="layer1"
     showgrid="false"
     inkscape:window-width="941"
     inkscape:window-height="650"
     inkscape:window-x="199"
     inkscape:window-y="34"
     inkscape:window-maximized="0" />
  <metadata
     id="metadata7">
    <rdf:RDF>
      <cc:Work
         rdf:about="">
        <dc:format>image/svg+xml</dc:format>
        <dc:type
           rdf:resource="http://purl.org/dc/dcmitype/StillImage" />
        <dc:title />
      </cc:Work>
    </rdf:RDF>
  </metadata>
  <g
     inkscape:label="Layer 1"
     inkscape:groupmode="layer"
     id="layer1"
     transform="translate(0,-1004.3622)">
    <path
       style="fill:#969696;fill-opacity:1;stroke:#e1e1e1;stroke-width:0.76527029;stroke-miterlimit:4;stroke-opacity:1"
       d="M 43.75,25.678572 C 43.75,35.935288 35.435288,44.25 25.178572,44.25 22.462797,44.25 20.556293,42.395621 18.231119,41.348056 11.774765,38.439261 6.6071434,33.219514 6.6071434,25.678572 6.6071434,15.421855 14.921855,7.1071434 25.178572,7.1071434 35.435288,7.1071434 43.75,15.421855 43.75,25.678572 z"
       id="path2985"
       inkscape:connector-curvature="0"
       sodipodi:nodetypes="ssssss"
       transform="matrix(0.84414617,0,0,0.84414617,2.4226052,1007.0087)" />
    <path
       sodipodi:type="arc"
       style="opacity:0.8;fill:url(#radialGradient3940);fill-opacity:1;stroke:none"
       id="path3761"
       sodipodi:cx="17.867073"
       sodipodi:cy="19.273787"
       sodipodi:rx="2.4622469"
       sodipodi:ry="2.4622469"
       d="m 20.32932,19.273787 a 2.4622469,2.4622469 0 1 1 -4.924494,0 2.4622469,2.4622469 0 1 1 4.924494,0 z"
       transform="matrix(1.4214659,0,0,1.4214659,-8.2239952,994.7479)" />
    <path
       sodipodi:type="arc"
       style="fill:url(#linearGradient3958);fill-opacity:1;stroke:none"
       id="path3763"
       sodipodi:cx="29.483828"
       sodipodi:cy="24.450819"
       sodipodi:rx="4.8613591"
       sodipodi:ry="4.8613591"
       d="m 34.345187,24.450819 a 4.8613591,4.8613591 0 1 1 -9.722719,0 4.8613591,4.8613591 0 1 1 9.722719,0 z"
       transform="matrix(1.2342227,0,0,1.2342227,-4.4247234,996.06737)" />
    <path
       transform="matrix(1.1197857,0,0,1.1197857,0.9732751,1016.0204)"
       sodipodi:type="arc"
       style="fill:url(#radialGradient3948);fill-opacity:1;stroke:none;opacity:0.80000000000000004"
       id="path3761-2"
       sodipodi:cx="17.867073"
       sodipodi:cy="19.273787"
       sodipodi:rx="2.4622469"
       sodipodi:ry="2.4622469"
       d="m 20.32932,19.273787 a 2.4622469,2.4622469 0 1 1 -4.924494,0 2.4622469,2.4622469 0 1 1 4.924494,0 z" />
    <path
       style="fill:#afafaf;fill-opacity:1;stroke:none"
       d="m 6.9069765,1041.8762 20.1111785,-0.1212 2.469794,-2.4238 0.470437,-3.999 -2.352184,-3.0298 -4.085312,2.7379 -1.860426,-1.1817 -0.288492,-2.464 -1.658533,-2.3207 -3.021828,-1.5398 -1.645588,-0.2009 -2.270588,0.8278 -1.752134,1.5965 0,0.3636 -1.9993585,-0.6061 -1.176092,0.6061 -0.823264,1.3331 0.235218,1.2118 0,1.2117 -1.176093,0.3637 -2.116965,0.9694 -0.823265,2.0603 0.352828,2.7873 2.116966,1.6966 z"
       id="path4018-6"
       inkscape:connector-curvature="0"
       sodipodi:nodetypes="ccccccccccccccccccccccccc" />
    <path
       id="path16154-1-2"
       style="color:#000000;fill:none;stroke:#515151;stroke-width:1;stroke-linecap:round;stroke-linejoin:miter;stroke-miterlimit:4;stroke-opacity:1;stroke-dasharray:none;stroke-dashoffset:0;marker:none;visibility:visible;display:inline;overflow:visible;enable-background:accumulate"
       d="m 25.509305,1041.8622 -18.3208115,0 m 0.179305,0 c -2.1479488,0 -4.301775,-1.654 -4.366322,-3.9188 -0.06455,-2.2648 1.997726,-4.3331 4.13748,-4.1497 m 17.4579725,1.9455 c 0.999532,-1.1999 -0.05453,-3.7683 1.444948,-3.549 1.499476,0.2191 2.86624,1.2737 3.519176,2.7151 0.652935,1.4415 0.57231,3.2262 -0.207615,4.5956 -0.779925,1.3694 -2.235575,2.2819 -3.748014,2.3493 m -13.680971,-9.5683 c -3.2789115,-2.8543 1.823619,-5.4659 4.594526,-4.8672 4.606711,0.9953 5.301057,5.0168 5.023718,8.2573 m -14.1036475,-2.388 c -0.455164,-0.8798 -0.32202,-2.0571 0.316534,-2.799 0.638552,-0.7419 1.736155,-0.9946 2.6094075,-0.6006"
       inkscape:connector-curvature="0"
       sodipodi:nodetypes="cccsccsssccsccsc" />
    <path
       style="fill:#afafaf;fill-opacity:1;stroke:none"
       d="m 40.093,1044.0763 -20.111155,-0.122 -2.469794,-2.4407 -0.470437,-4.027 2.541588,-2.9245 2.633218,-0.1263 2.587403,1.3424 -0.470437,-3.1728 1.881747,-3.2949 2.352186,-1.0265 2.813961,-0.055 3.003365,1.519 1.592055,2.125 0,0.3662 1.999357,-0.6103 1.176092,0.6103 0.823264,1.3424 -0.235218,1.2201 0,1.2203 1.176093,0.3661 2.116965,0.9762 0.823266,2.0747 -0.352828,2.8067 -2.116967,1.7084 z"
       id="path4018"
       inkscape:connector-curvature="0"
       sodipodi:nodetypes="ccccccccccccccccccccccccc" />
    <path
       id="path16154-1"
       style="color:#000000;fill:none;stroke:#4b4b4b;stroke-width:0.99999994000000003;stroke-linecap:round;stroke-linejoin:miter;stroke-miterlimit:4;stroke-opacity:1;stroke-dasharray:none;stroke-dashoffset:0;marker:none;visibility:visible;display:inline;overflow:visible;enable-background:accumulate"
       d="m 21.490696,1044.0622 18.32081,0 m -0.179305,0 c 2.127691,0 4.301776,-1.6662 4.366323,-3.9467 0.06455,-2.2806 -1.997727,-4.3633 -4.137481,-4.1786 m -14.81704,0 c -0.999532,-1.2083 -2.586402,-1.8354 -4.085879,-1.6147 -1.499476,0.2207 -2.866241,1.2827 -3.519177,2.7341 -0.652935,1.4515 -0.57231,3.2487 0.207615,4.6277 0.779925,1.3788 2.235576,2.2976 3.748015,2.3656 m 13.680971,-9.6349 c 3.27891,-2.8743 -2.776801,-6.7644 -5.576669,-6.3174 -3.091482,0.4937 -5.253786,3.6924 -5.228985,6.7012 m 15.291056,0.6252 c 0.455164,-0.8858 0.32202,-2.0713 -0.316534,-2.8184 -0.638552,-0.747 -1.736155,-1.0016 -2.609406,-0.6049"
       inkscape:connector-curvature="0"
       sodipodi:nodetypes="cccsccsssccsccsc" />
  </g>
</svg>
