<?xml version="1.0" encoding="UTF-8" standalone="no"?>
<!-- Created with Inkscape (http://www.inkscape.org/) -->

<svg
   xmlns:dc="http://purl.org/dc/elements/1.1/"
   xmlns:cc="http://creativecommons.org/ns#"
   xmlns:rdf="http://www.w3.org/1999/02/22-rdf-syntax-ns#"
   xmlns:svg="http://www.w3.org/2000/svg"
   xmlns="http://www.w3.org/2000/svg"
   xmlns:xlink="http://www.w3.org/1999/xlink"
   xmlns:sodipodi="http://sodipodi.sourceforge.net/DTD/sodipodi-0.dtd"
   xmlns:inkscape="http://www.inkscape.org/namespaces/inkscape"
   width="64"
   height="64"
   id="svg2"
   version="1.1"
   inkscape:version="0.48.4 r9939"
   sodipodi:docname="user-trash.svg">
  <metadata
     id="metadata7">
    <rdf:RDF>
      <cc:Work
         rdf:about="">
        <dc:format>image/svg+xml</dc:format>
        <dc:type
           rdf:resource="http://purl.org/dc/dcmitype/StillImage" />
        <dc:title />
      </cc:Work>
    </rdf:RDF>
  </metadata>
  <sodipodi:namedview
     id="base"
     pagecolor="#ffffff"
     bordercolor="#44cc00"
     borderopacity="1"
     inkscape:pageopacity="0.0"
     inkscape:pageshadow="2"
     inkscape:zoom="2.8"
     inkscape:cx="76.14249"
     inkscape:cy="105.99822"
     inkscape:document-units="px"
     showgrid="false"
     inkscape:showpageshadow="false"
     objecttolerance="5"
     gridtolerance="3"
     guidetolerance="5"
     inkscape:window-width="1440"
     inkscape:window-height="830"
     inkscape:window-x="0"
     inkscape:window-y="24"
     inkscape:window-maximized="1"
     showguides="true"
     inkscape:guide-bbox="true"
     inkscape:current-layer="layer1" />
  <defs
     id="defs4">
    <linearGradient
       id="linearGradient4245">
      <stop
         style="stop-color:#677484;stop-opacity:1;"
         offset="0"
         id="stop4247" />
      <stop
         id="stop4249"
         offset="0.01467601"
         style="stop-color:#4c5762;stop-opacity:1;" />
      <stop
         id="stop4251"
         offset="0.13164333"
         style="stop-color:#8f9cab;stop-opacity:1;" />
      <stop
         id="stop4253"
         offset="0.25156742"
         style="stop-color:#b0bac5;stop-opacity:1;" />
      <stop
         id="stop4255"
         offset="0.47500879"
         style="stop-color:#cbd2d8;stop-opacity:1;" />
      <stop
         id="stop4257"
         offset="0.63242704"
         style="stop-color:#ffffff;stop-opacity:1;" />
      <stop
         style="stop-color:#ffffff;stop-opacity:1;"
         offset="0.7398482"
         id="stop4259" />
      <stop
         style="stop-color:#c2cad2;stop-opacity:1;"
         offset="0.84821433"
         id="stop4261" />
      <stop
         id="stop4263"
         offset="0.89441282"
         style="stop-color:#b7bfc6;stop-opacity:1;" />
      <stop
         style="stop-color:#5d6c7b;stop-opacity:1;"
         offset="1"
         id="stop4265" />
    </linearGradient>
    <linearGradient
       id="linearGradient3853">
      <stop
         style="stop-color:#393f42;stop-opacity:1;"
         offset="0"
         id="stop3855" />
      <stop
         style="stop-color:#404648;stop-opacity:1;"
         offset="1"
         id="stop3857" />
    </linearGradient>
    <linearGradient
       id="linearGradient3829">
      <stop
         style="stop-color:#2e3436;stop-opacity:1;"
         offset="0"
         id="stop3831" />
      <stop
         style="stop-color:#303739;stop-opacity:1;"
         offset="1"
         id="stop3833" />
    </linearGradient>
    <linearGradient
       inkscape:collect="always"
       xlink:href="#linearGradient4245"
       id="linearGradient3794"
       x1="111.10714"
       y1="109.40729"
       x2="420.85715"
       y2="109.40729"
       gradientUnits="userSpaceOnUse"
       gradientTransform="matrix(0.49974938,0,0,0.49974938,0.5098532,794.56846)" />
    <linearGradient
       inkscape:collect="always"
       xlink:href="#linearGradient3829"
       id="linearGradient3835"
       x1="86.907646"
       y1="128.83484"
       x2="417.96683"
       y2="128.83484"
       gradientUnits="userSpaceOnUse"
       gradientTransform="matrix(0.49974938,0,0,0.49974938,0.5098532,794.56846)" />
    <linearGradient
       inkscape:collect="always"
       xlink:href="#linearGradient4245"
       id="linearGradient3843"
       x1="111.64286"
       y1="308.18103"
       x2="415.5"
       y2="308.18103"
       gradientUnits="userSpaceOnUse"
       gradientTransform="matrix(0.49974938,0,0,0.49974938,0.5098532,794.56846)" />
    <linearGradient
       inkscape:collect="always"
       xlink:href="#linearGradient3829"
       id="linearGradient3851"
       x1="367"
       y1="464.23215"
       x2="438"
       y2="464.23215"
       gradientUnits="userSpaceOnUse"
       gradientTransform="matrix(0.49974938,0,0,0.49974938,0.5098532,794.56846)" />
    <linearGradient
       inkscape:collect="always"
       xlink:href="#linearGradient3853"
       id="linearGradient3859"
       x1="380.62653"
       y1="477.55722"
       x2="374.86365"
       y2="485.00708"
       gradientUnits="userSpaceOnUse"
       gradientTransform="matrix(0.49974938,0,0,0.49974938,0.5098532,794.56846)" />
    <linearGradient
       inkscape:collect="always"
       xlink:href="#linearGradient3829"
       id="linearGradient3867"
       x1="113.875"
       y1="466.23593"
       x2="414.96429"
       y2="466.23593"
       gradientUnits="userSpaceOnUse"
       gradientTransform="matrix(0.49974938,0,0,0.49974938,0.5098532,794.56846)" />
    <linearGradient
       id="linearGradient4014">
      <stop
         style="stop-color:#000000;stop-opacity:1;"
         offset="0"
         id="stop4016" />
      <stop
         style="stop-color:#434343;stop-opacity:0;"
         offset="1"
         id="stop4018" />
    </linearGradient>
    <radialGradient
       inkscape:collect="always"
       xlink:href="#linearGradient4014"
       id="radialGradient3928"
       gradientUnits="userSpaceOnUse"
       gradientTransform="matrix(0.92933631,-0.00955121,-0.0359355,0.25912257,35.576681,329.23482)"
       cx="279.30719"
       cy="440.78424"
       fx="279.30719"
       fy="440.78424"
       r="202.02544" />
    <linearGradient
       id="linearGradient3927">
      <stop
         style="stop-color:#c7ced6;stop-opacity:1;"
         offset="0"
         id="stop3929" />
      <stop
         id="stop3931"
         offset="0.39771599"
         style="stop-color:#b7c0ca;stop-opacity:1;" />
      <stop
         style="stop-color:#9faab5;stop-opacity:1;"
         offset="1"
         id="stop3933" />
    </linearGradient>
    <linearGradient
       y2="73.443436"
       x2="263.68088"
       y1="37.433083"
       x1="257.71649"
       gradientUnits="userSpaceOnUse"
       id="linearGradient3125"
       xlink:href="#linearGradient3927"
       inkscape:collect="always" />
    <linearGradient
       id="linearGradient4167-1">
      <stop
         style="stop-color:#ffffff;stop-opacity:0;"
         offset="0"
         id="stop4169-1" />
      <stop
         id="stop4171-0"
         offset="0.51920968"
         style="stop-color:#ffffff;stop-opacity:0.63492066;" />
      <stop
         style="stop-color:#ffffff;stop-opacity:0;"
         offset="1"
         id="stop4173-3" />
    </linearGradient>
    <linearGradient
       gradientTransform="matrix(0.4997494,0,0,0.4997494,-0.2811526,793.5805)"
       y2="91.398506"
       x2="397.64285"
       y1="91.398506"
       x1="137.35715"
       gradientUnits="userSpaceOnUse"
       id="linearGradient3346"
       xlink:href="#linearGradient4167-1"
       inkscape:collect="always" />
  </defs>
  <g
     id="layer1"
     transform="matrix(0.25513035,0,0,0.25513035,-1.2540149,-203.50928)">
    <path
       sodipodi:type="arc"
       style="opacity:0.72454541;fill:url(#radialGradient3928);fill-opacity:1;stroke:none"
       id="path4012"
       sodipodi:cx="279.30719"
       sodipodi:cy="440.78424"
       sodipodi:rx="201.52544"
       sodipodi:ry="55.053314"
       d="m 480.83263,440.78424 a 201.52544,55.053314 0 1 1 -403.050876,0 201.52544,55.053314 0 1 1 403.050876,0 z"
       transform="matrix(0.50341785,0,0.64191269,0.44565271,-291.58058,827.54867)" />
    <path
       style="fill:url(#linearGradient3867);fill-opacity:1;stroke:none"
       d="m 207.90585,1013.4052 -5.18652,4.3016 c 0,0 -10.69122,7.162 -16.37526,10.1513 -2.66188,1.4 -5.41667,2.6521 -8.26265,3.6246 -4.02917,1.3768 -8.2005,2.3503 -12.3918,3.1006 -6.14041,1.0991 -12.36782,1.8427 -18.6028,2.0372 -10.90844,0.3402 -21.85484,-0.3579 -32.7055,-1.5299 -8.90986,-0.9622 -17.915295,-1.9501 -26.504564,-4.5067 -6.234415,-1.8555 -12.178919,-4.678 -17.895553,-7.7814 -4.917576,-2.6698 -13.999167,-9.2635 -13.999167,-9.2635 l 0.149926,10.1124 c 0,0 12.417501,6.6662 19.072581,8.8755 12.761154,4.2361 26.136067,6.6532 39.489137,8.2306 10.44754,1.2341 21.0418,1.5049 31.54667,0.9371 8.00665,-0.4329 15.98795,-1.6176 23.82734,-3.302 4.3344,-0.9315 8.79801,-1.7605 12.76113,-3.7474 5.07124,-2.5427 8.85787,-7.1203 13.61143,-10.2163 2.88071,-1.8762 8.99735,-5.0417 8.99735,-5.0417 0,0 0.9259,-0.7768 1.37441,-1.1817 0.37284,-0.3365 1.09384,-1.0364 1.09384,-1.0364 z"
       id="path3000"
       inkscape:connector-curvature="0"
       sodipodi:nodetypes="ccaaaaaaaccaaaaaacacc" />
    <path
       style="fill:url(#linearGradient3859);fill-opacity:1;stroke:none"
       d="m 182.66343,1034.9333 0.50483,-7.8564 1.76756,-0.6247 17.4728,11.4942 z"
       id="path2996"
       inkscape:connector-curvature="0"
       sodipodi:nodetypes="ccccc" />
    <path
       style="fill:url(#linearGradient3851);fill-opacity:1;stroke:none"
       d="m 183.32314,1026.4587 18.11143,-9.6453 18.53598,11.0272 -17.56193,10.1058 z"
       id="path2998"
       inkscape:connector-curvature="0"
       sodipodi:nodetypes="ccccc" />
    <path
       style="fill:url(#linearGradient3843);fill-opacity:1;stroke:none"
       d="m 182.82914,1029.4361 c -6.79396,3.1949 -12.32048,3.8927 -18.65902,5.0516 -6.34103,1.1592 -12.80512,1.6445 -19.24704,1.8778 -9.75455,0.3531 -19.55256,0.1515 -29.27375,-0.7286 -7.95321,-0.72 -15.905535,-1.837 -23.66748,-3.7143 -7.931612,-1.9181 -15.928533,-4.0647 -23.246447,-7.6756 -4.612275,-2.2757 -8.683175,-5.1496 -12.753367,-8.6846 l 0,-157.0958 c 0,0 12.12012,5.65883 18.515773,7.52377 8.564608,2.49737 17.464121,3.78841 26.324301,4.83069 11.52385,1.35563 23.15828,1.83733 34.76159,1.8339 10.09345,-0.004 20.22801,-0.31296 30.23739,-1.61305 6.11903,-0.79478 12.18896,-2.07928 18.12357,-3.76885 5.38498,-1.5331 10.68233,-3.43981 15.78034,-5.75473 2.83366,-1.28671 8.18085,-4.499 8.18085,-4.499 l 0,156.31377 c 0,0 -1.81748,1.9499 -2.85056,2.7852 -0.74845,0.605 -2.40569,1.5964 -2.40569,1.5964 l -0.87337,-0.2918 -17.22987,9.0293 -1.53874,1.1601 z"
       id="path3002"
       inkscape:connector-curvature="0"
       sodipodi:nodetypes="caaaaaccaaaaaaccaccccc" />
    <path
       style="fill:url(#linearGradient3835);fill-opacity:1;stroke:none"
       d="m 207.90585,855.62711 c 0,0 -4.17769,2.20931 -6.44109,2.81558 -26.21166,7.02082 -53.77037,9.4432 -80.90306,9.04341 -18.15845,-0.26754 -36.341104,-3.17255 -53.942231,-7.64486 -3.650455,-0.92754 -10.587457,-3.94732 -10.587457,-3.94732 0,0 -0.04998,-7.09198 -0.04998,-10.59803 -5.957379,0.091 -6.940603,1.34734 -9.082183,3.84092 -2.114066,2.46155 -2.642003,6.19998 -2.394195,9.43526 0.183955,2.40163 1.122195,4.94632 2.823233,6.65163 2.215261,2.22083 4.081312,3.38457 8.653145,3.69847 l 0.01579,-8.95999 c 0,0 5.014984,2.32402 7.615479,3.24781 5.309746,1.88622 10.723532,3.55582 16.248253,4.66434 11.912159,2.39016 24.073636,3.51373 36.201716,4.23622 11.99035,0.7143 24.04522,0.8196 36.03468,0.0907 9.79178,-0.59533 19.62908,-1.50365 29.20376,-3.63885 7.60981,-1.697 15.07921,-4.16019 22.24032,-7.24362 1.52098,-0.6549 4.3638,-2.37441 4.3638,-2.37441 z"
       id="path3004"
       inkscape:connector-curvature="0"
       sodipodi:nodetypes="caaaccaaaccaaaaaacc" />
    <path
       style="fill:url(#linearGradient3794);fill-opacity:1;stroke:none"
       d="m 207.90585,855.71635 0,-27.25275 c 0,0 -8.54814,5.45967 -13.32157,7.0029 -15.17306,4.90543 -31.44839,5.71317 -47.36149,6.74202 -12.79746,0.82742 -25.66771,0.28237 -38.46968,-0.47215 -16.093865,-2.23348 -32.829553,-1.02918 -46.643909,-7.3887 -2.299847,-1.09183 -6.127165,-5.78391 -6.127165,-5.78391 l 0,27.41135 c 0,0 8.547932,3.64756 12.984921,4.9975 6.573393,1.99994 13.304925,3.5527 20.100875,4.56475 15.592428,2.322 31.406368,3.62634 47.169378,3.41914 17.09241,-0.22467 34.33077,-1.40934 51.03234,-5.05059 4.1866,-0.91276 8.18959,-2.5584 12.15842,-4.17371 2.89627,-1.17878 8.47788,-4.01585 8.47788,-4.01585 z"
       id="path3006"
       inkscape:connector-curvature="0"
       sodipodi:nodetypes="ccaaccccaaaaac" />
    <path
       sodipodi:type="arc"
       style="fill:url(#linearGradient3125);fill-opacity:1;stroke:none"
       id="path3096-7"
       sodipodi:cx="261.07144"
       sodipodi:cy="56.642857"
       sodipodi:rx="152.5"
       sodipodi:ry="31.071428"
       d="m 413.57144,56.642857 a 152.5,31.071428 0 1 1 -305,0 152.5,31.071428 0 1 1 305,0 z"
       transform="matrix(0.49817527,0,0,0.48935859,1.8667861,800.83252)" />
    <path
       sodipodi:nodetypes="caaaaac"
       inkscape:connector-curvature="0"
       id="path4067-2"
       d="m 68.29735,837.33276 c 0,0 10.82274,2.846 16.334379,3.76301 6.216539,1.03429 12.513816,1.58391 18.805161,1.94973 11.91927,0.69303 23.88077,0.80326 35.81522,0.4602 11.84008,-0.34035 23.69592,-1.009 35.44705,-2.49688 5.3,-0.67109 10.62444,-1.43434 15.76345,-2.89407 2.87708,-0.81722 8.35916,-3.26094 8.35916,-3.26094"
       style="fill:none;stroke:url(#linearGradient3346);stroke-width:0.49974936px;stroke-linecap:butt;stroke-linejoin:miter;stroke-opacity:1" />
  </g>
</svg>
