<?xml version="1.0" encoding="UTF-8" standalone="no"?>
<!-- Created with Inkscape (http://www.inkscape.org/) -->

<svg
   xmlns:dc="http://purl.org/dc/elements/1.1/"
   xmlns:cc="http://creativecommons.org/ns#"
   xmlns:rdf="http://www.w3.org/1999/02/22-rdf-syntax-ns#"
   xmlns:svg="http://www.w3.org/2000/svg"
   xmlns="http://www.w3.org/2000/svg"
   xmlns:xlink="http://www.w3.org/1999/xlink"
   xmlns:sodipodi="http://sodipodi.sourceforge.net/DTD/sodipodi-0.dtd"
   xmlns:inkscape="http://www.inkscape.org/namespaces/inkscape"
   version="1.0"
   width="48"
   height="48"
   id="svg3459"
   sodipodi:version="0.32"
   inkscape:version="0.48.4 r9939"
   sodipodi:docname="stock_playlist.svg"
   inkscape:output_extension="org.inkscape.output.svg.inkscape">
  <metadata
     id="metadata55">
    <rdf:RDF>
      <cc:Work
         rdf:about="">
        <dc:format>image/svg+xml</dc:format>
        <dc:type
           rdf:resource="http://purl.org/dc/dcmitype/StillImage" />
        <dc:title />
      </cc:Work>
    </rdf:RDF>
  </metadata>
  <sodipodi:namedview
     inkscape:window-height="706"
     inkscape:window-width="1136"
     inkscape:pageshadow="2"
     inkscape:pageopacity="0.0"
     guidetolerance="10.0"
     gridtolerance="10.0"
     objecttolerance="10.0"
     borderopacity="1.0"
     bordercolor="#666666"
     pagecolor="#ffffff"
     id="base"
     showgrid="false"
     inkscape:zoom="7.336233"
     inkscape:cx="27.302317"
     inkscape:cy="14.891386"
     inkscape:window-x="163"
     inkscape:window-y="167"
     inkscape:current-layer="svg3459"
     inkscape:window-maximized="0" />
  <defs
     id="defs3461">
    <linearGradient
       id="linearGradient3104">
      <stop
         id="stop3106"
         style="stop-color:#aaaaaa;stop-opacity:1"
         offset="0" />
      <stop
         id="stop3108"
         style="stop-color:#c8c8c8;stop-opacity:1"
         offset="1" />
    </linearGradient>
    <linearGradient
       y2="3.3638515"
       x2="22.004084"
       y1="47.813133"
       x1="22.004084"
       gradientTransform="matrix(1.0710968,0,0,1.0710968,-5.819747,-4.6860338)"
       gradientUnits="userSpaceOnUse"
       id="linearGradient3063"
       xlink:href="#linearGradient3104"
       inkscape:collect="always" />
    <linearGradient
       x1="302.85715"
       y1="366.64789"
       x2="302.85715"
       y2="609.50507"
       id="linearGradient3406"
       xlink:href="#linearGradient5048-3"
       gradientUnits="userSpaceOnUse"
       gradientTransform="matrix(0.06732488,0,0,0.01470022,-0.3411391,37.040146)" />
    <linearGradient
       id="linearGradient5048-3">
      <stop
         id="stop5050-4"
         style="stop-color:#000000;stop-opacity:0"
         offset="0" />
      <stop
         id="stop5056-6"
         style="stop-color:#000000;stop-opacity:1"
         offset="0.5" />
      <stop
         id="stop5052-5"
         style="stop-color:#000000;stop-opacity:0"
         offset="1" />
    </linearGradient>
    <radialGradient
       cx="605.71429"
       cy="486.64789"
       r="117.14286"
       fx="605.71429"
       fy="486.64789"
       id="radialGradient3403"
       xlink:href="#linearGradient5060-5"
       gradientUnits="userSpaceOnUse"
       gradientTransform="matrix(-0.02303994,0,0,0.01470022,21.62311,37.040176)" />
    <linearGradient
       id="linearGradient5060-5">
      <stop
         id="stop5062-5"
         style="stop-color:#000000;stop-opacity:1"
         offset="0" />
      <stop
         id="stop5064-8"
         style="stop-color:#000000;stop-opacity:0"
         offset="1" />
    </linearGradient>
    <radialGradient
       cx="605.71429"
       cy="486.64789"
       r="117.14286"
       fx="605.71429"
       fy="486.64789"
       id="radialGradient3400"
       xlink:href="#linearGradient5060-5"
       gradientUnits="userSpaceOnUse"
       gradientTransform="matrix(0.02303995,0,0,0.01470022,26.360882,37.040176)" />
    <linearGradient
       x1="25.132275"
       y1="0.98520643"
       x2="25.132275"
       y2="47.013336"
       id="linearGradient3395"
       xlink:href="#linearGradient3600"
       gradientUnits="userSpaceOnUse"
       gradientTransform="matrix(1,0,0,0.9561695,-1.0064697e-7,-1.914922)" />
    <linearGradient
       id="linearGradient3600">
      <stop
         id="stop3602"
         style="stop-color:#f4f4f4;stop-opacity:1"
         offset="0" />
      <stop
         id="stop3604"
         style="stop-color:#dbdbdb;stop-opacity:1"
         offset="1" />
    </linearGradient>
    <linearGradient
       x1="-51.786404"
       y1="50.786446"
       x2="-51.786404"
       y2="2.9062471"
       id="linearGradient3397"
       xlink:href="#linearGradient3104-9"
       gradientUnits="userSpaceOnUse"
       gradientTransform="matrix(0.8074968,0,0,0.8948322,59.410232,-2.9805533)" />
    <linearGradient
       id="linearGradient3104-9">
      <stop
         id="stop3106-3"
         style="stop-color:#aaaaaa;stop-opacity:1"
         offset="0" />
      <stop
         id="stop3108-9"
         style="stop-color:#c8c8c8;stop-opacity:1"
         offset="1" />
    </linearGradient>
    <radialGradient
       cx="102"
       cy="112.3047"
       r="139.55859"
       id="radialGradient3392"
       xlink:href="#XMLID_8_-6"
       gradientUnits="userSpaceOnUse"
       gradientTransform="matrix(0.3617022,0,0,-0.3907784,0.8510637,47.517004)" />
    <radialGradient
       cx="102"
       cy="112.3047"
       r="139.55859"
       id="XMLID_8_-6"
       gradientUnits="userSpaceOnUse">
      <stop
         id="stop41-6"
         style="stop-color:#b7b8b9;stop-opacity:1"
         offset="0" />
      <stop
         id="stop47-4"
         style="stop-color:#ececec;stop-opacity:1"
         offset="0.18851049" />
      <stop
         id="stop49-1"
         style="stop-color:#fafafa;stop-opacity:0"
         offset="0.25718147" />
      <stop
         id="stop51-5"
         style="stop-color:#ffffff;stop-opacity:0"
         offset="0.30111277" />
      <stop
         id="stop53"
         style="stop-color:#fafafa;stop-opacity:0"
         offset="0.53130001" />
      <stop
         id="stop55"
         style="stop-color:#ebecec;stop-opacity:0"
         offset="0.84490001" />
      <stop
         id="stop57"
         style="stop-color:#e1e2e3;stop-opacity:0"
         offset="1" />
    </radialGradient>
    <linearGradient
       id="linearGradient3211-0">
      <stop
         id="stop3213-7"
         style="stop-color:#ffffff;stop-opacity:1"
         offset="0" />
      <stop
         id="stop3215-6"
         style="stop-color:#ffffff;stop-opacity:0"
         offset="1" />
    </linearGradient>
    <filter
       color-interpolation-filters="sRGB"
       id="filter3212-6"
       x="-0.14846256"
       width="1.2969251"
       y="-0.16434373"
       height="1.3286875">
      <feGaussianBlur
         inkscape:collect="always"
         stdDeviation="0.77391625"
         id="feGaussianBlur3214-8" />
    </filter>
    <linearGradient
       id="linearGradient8589-1">
      <stop
         id="stop8591-6"
         style="stop-color:#fefefe;stop-opacity:1"
         offset="0" />
      <stop
         id="stop8593-8"
         style="stop-color:#cbcbcb;stop-opacity:1"
         offset="1" />
    </linearGradient>
    <linearGradient
       y2="5.4565363"
       x2="36.358372"
       y1="8.0590115"
       x1="32.892288"
       gradientTransform="matrix(0.9976985,0,0,1.0406866,0.1638029,-1.1057939)"
       gradientUnits="userSpaceOnUse"
       id="linearGradient3183"
       xlink:href="#linearGradient8589-1"
       inkscape:collect="always" />
    <linearGradient
       inkscape:collect="always"
       xlink:href="#linearGradient3211-0"
       id="linearGradient4002"
       gradientUnits="userSpaceOnUse"
       gradientTransform="matrix(1,0,0,0.9777778,0,-0.9666693)"
       x1="24"
       y1="1.9999999"
       x2="24"
       y2="46.01725" />
    <radialGradient
       inkscape:collect="always"
       xlink:href="#linearGradient4018"
       id="radialGradient5733"
       gradientUnits="userSpaceOnUse"
       gradientTransform="matrix(1,0,0,0.27141213,0,80.121919)"
       cx="35.355339"
       cy="134.61098"
       fx="35.355339"
       fy="134.61098"
       r="36.565598" />
    <filter
       height="1.4832972"
       y="-0.24164858"
       width="1.1610991"
       x="-0.080549531"
       id="filter4889-7"
       inkscape:collect="always"
       color-interpolation-filters="sRGB">
      <feGaussianBlur
         id="feGaussianBlur4891-9"
         stdDeviation="2.0646957"
         inkscape:collect="always" />
    </filter>
    <filter
       height="1.4832972"
       y="-0.24164858"
       width="1.1610991"
       x="-0.080549531"
       id="filter4889"
       inkscape:collect="always"
       color-interpolation-filters="sRGB">
      <feGaussianBlur
         id="feGaussianBlur4891"
         stdDeviation="2.0646957"
         inkscape:collect="always" />
    </filter>
    <linearGradient
       id="linearGradient4018">
      <stop
         id="stop4020"
         offset="0"
         style="stop-color:#000000;stop-opacity:0.88235295;" />
      <stop
         id="stop4022"
         offset="1"
         style="stop-color:#000000;stop-opacity:0;" />
    </linearGradient>
    <radialGradient
       gradientUnits="userSpaceOnUse"
       gradientTransform="matrix(1,0,0,0.27141213,0,80.121919)"
       r="36.565598"
       fy="134.61098"
       fx="35.355339"
       cy="134.61098"
       cx="35.355339"
       id="radialGradient4024"
       xlink:href="#linearGradient4018"
       inkscape:collect="always" />
    <radialGradient
       r="5.7384715"
       fy="36.985195"
       fx="14.270205"
       cy="36.985195"
       cx="14.270205"
       gradientTransform="matrix(0.67161152,-0.14795427,-0.10555323,0.72090528,3.5894633,-12.254385)"
       gradientUnits="userSpaceOnUse"
       id="radialGradient5659"
       xlink:href="#linearGradient3791-2-0"
       inkscape:collect="always" />
    <linearGradient
       y2="125.39074"
       x2="26.256771"
       y1="144.11652"
       x1="28.739122"
       gradientTransform="matrix(0.23748834,0,0,0.12407777,6.4561387,-13.294623)"
       gradientUnits="userSpaceOnUse"
       id="linearGradient5657"
       xlink:href="#linearGradient2372-7-3-2-7"
       inkscape:collect="always" />
    <linearGradient
       y2="181.79546"
       x2="57.507824"
       y1="129.73555"
       x1="28.256302"
       gradientTransform="matrix(0.13863734,0,0,0.13519235,-0.01056616,-14.807907)"
       gradientUnits="userSpaceOnUse"
       id="linearGradient5655"
       xlink:href="#linearGradient2372-7-3-2-7"
       inkscape:collect="always" />
    <radialGradient
       r="5.7384715"
       fy="36.985195"
       fx="14.270205"
       cy="36.985195"
       cx="14.270205"
       gradientTransform="matrix(0.67057018,-0.14772487,-0.10538957,0.71978751,-4.4295571,-12.288795)"
       gradientUnits="userSpaceOnUse"
       id="radialGradient5653"
       xlink:href="#linearGradient3791-9"
       inkscape:collect="always" />
    <linearGradient
       y2="19.085949"
       x2="7.2591696"
       y1="6.7927251"
       x1="7.2591696"
       gradientTransform="matrix(1.0976756,0,0,1.0502174,-1.1551998,0.13630204)"
       gradientUnits="userSpaceOnUse"
       id="linearGradient5651"
       xlink:href="#linearGradient3783-9"
       inkscape:collect="always" />
    <linearGradient
       id="linearGradient3791-2-0">
      <stop
         style="stop-color:#ffffff;stop-opacity:1;"
         offset="0"
         id="stop3793-3-4" />
      <stop
         style="stop-color:#badf4a;stop-opacity:0.10416666;"
         offset="1"
         id="stop3795-6-2" />
    </linearGradient>
    <linearGradient
       id="linearGradient2372-7-3-2-7">
      <stop
         offset="0"
         style="stop-color:#ffffff;stop-opacity:1"
         id="stop2374-5-9-1-5" />
      <stop
         offset="1"
         style="stop-color:#ffffff;stop-opacity:0.37931034"
         id="stop2376-3-7-7-8" />
    </linearGradient>
    <linearGradient
       id="linearGradient3791-9">
      <stop
         style="stop-color:#ffffff;stop-opacity:1;"
         offset="0"
         id="stop3793-1" />
      <stop
         style="stop-color:#badf4a;stop-opacity:0.10416666;"
         offset="1"
         id="stop3795-0" />
    </linearGradient>
    <linearGradient
       id="linearGradient3783-9">
      <stop
         id="stop3785-9"
         offset="0"
         style="stop-color:#d7e866;stop-opacity:1;" />
      <stop
         id="stop3787-1"
         offset="1"
         style="stop-color:#94b62d;stop-opacity:1;" />
    </linearGradient>
  </defs>
  <g
     transform="translate(-1.869468,1.0000002)"
     id="layer1">
    <rect
       width="32.508301"
       height="3.5700529"
       x="7.7378473"
       y="42.429947"
       id="rect2879"
       style="opacity:0.3;fill:url(#linearGradient3406);fill-opacity:1;fill-rule:nonzero;stroke:none;stroke-width:1;marker:none;visibility:visible;display:inline;overflow:visible" />
    <path
       inkscape:connector-curvature="0"
       d="m 7.7378475,42.430102 c 0,0 0,3.569856 0,3.569856 -1.1865002,0.0067 -2.8683795,-0.799823 -2.8683795,-1.785158 0,-0.985333 1.3240446,-1.784697 2.8683795,-1.784698 z"
       id="path2881"
       style="opacity:0.3;fill:url(#radialGradient3403);fill-opacity:1;fill-rule:nonzero;stroke:none;stroke-width:1;marker:none;visibility:visible;display:inline;overflow:visible" />
    <path
       inkscape:connector-curvature="0"
       d="m 40.246148,42.430102 c 0,0 0,3.569856 0,3.569856 1.1865,0.0067 2.86838,-0.799823 2.86838,-1.785158 0,-0.985333 -1.324045,-1.784697 -2.86838,-1.784698 z"
       id="path2883"
       style="opacity:0.3;fill:url(#radialGradient3400);fill-opacity:1;fill-rule:nonzero;stroke:none;stroke-width:1;marker:none;visibility:visible;display:inline;overflow:visible" />
    <path
       inkscape:connector-curvature="0"
       d="m 6.4999609,0.49719878 c 8.0202951,0 16.0405901,0 24.0608861,0 1.406933,0.4746531 8.965454,5.88220462 10.939195,9.62640622 0,11.459733 0,22.919465 0,34.379198 -11.666694,0 -23.333387,0 -35.0000811,0 0,-14.668535 0,-29.33707 0,-44.00560422 z"
       id="path4160"
       style="fill:url(#linearGradient3395);fill-opacity:1;stroke:url(#linearGradient3397);stroke-width:0.99992186;stroke-linecap:butt;stroke-linejoin:round;stroke-miterlimit:4;stroke-opacity:1;stroke-dasharray:none;stroke-dashoffset:0;display:inline" />
    <path
       inkscape:connector-curvature="0"
       d="m 7.3617017,44 c -0.199297,0 -0.361702,-0.175459 -0.361702,-0.39078 l 0,-42.2040499 c 0,-0.2157088 0.162405,-0.3907775 0.361702,-0.3907775 C 14.844793,1.1224073 23.137385,0.85281757 30.611384,1.0412872 L 40.894021,9.9073127 41,43.60922 C 41,43.824541 40.837957,44 40.638297,44 L 7.3617017,44 z"
       id="path4191"
       style="fill:url(#radialGradient3392);fill-opacity:1" />
    <path
       inkscape:connector-curvature="0"
       d="m 40.500039,10.258811 c 0,10.949037 0,22.31441 0,33.263447 -11.000026,0 -22.000052,0 -33.0000781,0 0,-14.014841 0,-28.029681 0,-42.0445213 7.5619931,0 15.3043341,0 22.8663281,0"
       id="path2435"
       style="opacity:0.6;fill:none;stroke:url(#linearGradient4002);stroke-width:0.9999218;stroke-linecap:butt;stroke-linejoin:round;stroke-miterlimit:4;stroke-opacity:1;stroke-dasharray:none;stroke-dashoffset:0;display:inline" />
  </g>
  <path
     inkscape:connector-curvature="0"
     d="m 8.0853356,7.6820016 2.5103834,0 -2.5103834,0 z m 2.8785724,0 2.343026,0 -2.343026,0 z m 2.711215,0 2.07525,0 -2.07525,0 z m 2.409968,0 0.903738,0 -0.903738,0 z m 1.271927,0 2.008308,0 -2.008308,0 z m 2.409969,0 5.28854,0 -5.28854,0 z m 5.623258,0 4.050085,0 -4.050085,0 z m 4.384803,0 1.238456,0 -1.238456,0 z m -21.6897124,2.1421939 3.9161984,0 -3.9161984,0 z m 4.3513314,0 1.87442,0 -1.87442,0 z m 2.209138,0 0.937209,0 -0.937209,0 z m 1.305399,0 1.70706,0 -1.70706,0 z m 2.07525,0 1.740533,0 -1.740533,0 z m 2.075251,0 2.778157,0 -2.778157,0 z m 3.146346,0 3.614953,0 -3.614953,0 z m 3.949671,0 2.409967,0 -2.409967,0 z m 2.744685,0 0.602492,0 -0.602492,0 z m -21.8570714,2.1087235 3.3137054,0 -3.3137054,0 z m 3.6484234,0 5.422429,0 -5.422429,0 z m 5.757147,0 2.644271,0 -2.644271,0 z m 2.978988,0 2.476912,0 -2.476912,0 z m 2.811629,0 2.108722,0 -2.108722,0 z m 2.443441,0 3.313705,0.03347 -3.313705,-0.03347 z m 3.614951,0.03347 5.388957,0 -5.388957,0 z m -21.2545794,2.142194 4.5856334,0 -4.5856334,0 z m 4.9538234,0 4.953823,0 -4.953823,0 z m 5.288541,0 1.974835,0 -1.974835,0 z m 2.309553,0 4.652577,0 -4.652577,0 z m 4.953824,0 3.179818,0 -3.179818,0 z m 3.548008,0 1.271927,0 -1.271927,0 z m 1.606645,0 0.702907,0 -0.702907,0 z m 1.071096,0 1.974836,0 -1.974836,0 z m -23.7314904,2.142193 1.7070604,0 -1.7070604,0 z m 2.2426094,0 6.326166,0 -6.326166,0 z m -2.2426094,4.250917 3.3137064,0 -3.3137064,0 z m 3.6484234,0 5.422429,0 -5.422429,0 z m 5.757147,0 2.644271,0 -2.644271,0 z m 2.978988,0 2.476912,0 -2.476912,0 z m 2.811629,0 2.108722,0 -2.108722,0 z m 2.443441,0 3.313705,0.03347 -3.313705,-0.03347 z m 3.614951,0.03347 5.388957,0 -5.388957,0 z m -21.2545794,2.142194 2.5103834,0 -2.5103834,0 z m 2.8785724,0 2.309554,0 -2.309554,0 z m 2.711215,0 2.07525,0 -2.07525,0 z m 2.409968,0 0.903738,0 -0.903738,0 z m 1.271927,0 2.008308,0 -2.008308,0 z m 2.409969,0 5.255068,0 -5.255068,0 z m 5.623258,0 4.016614,0 -4.016614,0 z m 4.351331,0 1.271928,0 -1.271928,0 z m 1.606646,0 3.01246,0 -3.01246,0 z m -23.2628864,2.142193 4.2174444,0 -4.2174444,0 z m 4.5521614,0 4.518691,0 -4.518691,0 z m 4.853409,0 1.740533,0 -1.740533,0 z m 2.07525,0 4.250916,0 -4.250916,0 z m 4.585633,0 5.355485,0 -5.355485,0 z m 5.723675,0 1.974834,0 -1.974834,0 z m -21.7901284,2.142195 4.5856334,0 -4.5856334,0 z m 4.9538234,0 4.953823,0 -4.953823,0 z m 5.288541,0 1.974835,0 -1.974835,0 z m 2.309553,0 4.652577,0 -4.652577,0 z m 4.953824,0 3.179818,0 -3.179818,0 z m 3.548008,0 1.271927,0 -1.271927,0 z m 1.606645,0 0.702907,0 -0.702907,0 z m 1.071096,0 1.974836,0 -1.974836,0 z m -23.7314904,2.142194 3.9161984,0 -3.9161984,0 z m 4.3513314,0 1.87442,0 -1.87442,0 z m 2.209138,0 0.937209,0 -0.937209,0 z m 1.305399,0 1.70706,0 -1.70706,0 z m 2.07525,0 1.740533,0 -1.740533,0 z m 2.075251,0 2.778157,0 -2.778157,0 z m 3.146346,0 3.614953,0 -3.614953,0 z m 3.949671,0 2.409967,0 -2.409967,0 z m 2.744685,0 0.602492,0 -0.602492,0 z m -21.8570714,4.250916 3.3137064,0 -3.3137064,0 z m 3.6484234,0 5.422429,0 -5.422429,0 z m 5.757147,0 2.644271,0 -2.644271,0 z m 2.978988,0 2.476912,0 -2.476912,0 z m 2.811629,0 2.108722,0 -2.108722,0 z m 2.443441,0 3.313705,0.03347 -3.313705,-0.03347 z m 3.614951,0.03347 5.388957,0 -5.388957,0 z m -21.2545794,2.142194 3.9161984,0 -3.9161984,0 z m 4.3513314,0 1.87442,0 -1.87442,0 z m 2.209138,0 0.937209,0 -0.937209,0 z m 1.305399,0 1.70706,0 -1.70706,0 z m 2.07525,0 1.740533,0 -1.740533,0 z m 2.075251,0 2.778157,0 -2.778157,0 z m 3.146346,0 3.614953,0 -3.614953,0 z m 3.949671,0 2.409967,0 -2.409967,0 z m 2.744685,0 0.602492,0 -0.602492,0 z m -21.8570714,2.142194 4.1505004,0 -4.1505004,0 z m 4.5186904,0 1.3054,0 -1.3054,0 z m 1.640118,0 2.978987,0 -2.978987,0 z m 3.313705,0 4.384803,0 -4.384803,0 z m 4.752993,0 2.978988,0 -2.978988,0 z m 3.280235,0 0.635963,0 -0.635963,0 z m 0.970681,0 3.78231,0 -3.78231,0 z m 4.183972,0 1.974835,0 -1.974835,0 z m -22.6603944,2.142194 4.1505004,0 -4.1505004,0 z m 4.5186904,0 1.87442,0 -1.87442,0 z m 2.209138,0 2.945516,0 -2.945516,0 z m 3.280233,0 3.17982,0 -3.17982,0 z m 3.548009,0 1.271928,0 -1.271928,0 z m 1.606645,0 0.702908,0 -0.702908,0 z m 1.071097,0 1.974836,0 -1.974836,0 z"
     id="path3475"
     style="fill:none;stroke:url(#linearGradient3063);stroke-width:0.69999999;stroke-linecap:butt;stroke-linejoin:miter;stroke-miterlimit:4;stroke-opacity:1;stroke-dasharray:none" />
  <g
     id="g4038"
     transform="translate(-1.869468,1.0000002)">
    <path
       style="opacity:0.4;fill:#000000;fill-opacity:1;fill-rule:evenodd;stroke:none;display:inline;filter:url(#filter3212-6)"
       id="path4052"
       d="m 28.617256,0.92125832 c 4.282522,0 2.15325,8.48317128 2.15325,8.48317128 0,0 10.357642,-1.8023467 10.357642,2.8187444 0,-2.6097233 -11.302304,-10.7285956 -12.510892,-11.30191568 z"
       inkscape:connector-curvature="0" />
    <path
       style="fill:url(#linearGradient3183);fill-opacity:1;fill-rule:evenodd;stroke:none;display:inline"
       id="path4054"
       d="m 28.617256,0.92125832 c 3.186493,0 2.33576,7.66187848 2.33576,7.66187848 0,0 10.175132,-0.9810539 10.175132,3.6400372 0,-1.125939 0.08591,-1.932245 -0.133777,-2.2835928 C 39.416058,7.4154025 32.598855,1.7511811 30.137071,1.008793 29.952849,0.95323837 29.544367,0.92125832 28.617256,0.92125832 z"
       inkscape:connector-curvature="0" />
  </g>
  <g
     id="layer1-8-9-9"
     transform="matrix(2.1711284,0,0,2.3880003,14.219747,9.5206852)">
    <path
       sodipodi:nodetypes="cc"
       style="fill:none;stroke:none"
       id="path2931-3-6"
       d="M 12.9907,11.943517 12.588205,8.8400737"
       inkscape:connector-curvature="0" />
    <path
       transform="matrix(0.11333856,0,0,0.0725442,7.1240309,7.0327414)"
       d="m 66.114485,109.96878 c 0,5.6626 -13.771339,10.25305 -30.759146,10.25305 -16.987807,0 -30.7591457,-4.59045 -30.7591457,-10.25305 0,-5.6626 13.7713387,-10.253048 30.7591457,-10.253048 16.987807,0 30.759146,4.590448 30.759146,10.253048 z"
       sodipodi:ry="10.253049"
       sodipodi:rx="30.759146"
       sodipodi:cy="109.96878"
       sodipodi:cx="35.355339"
       id="path3102-2"
       style="opacity:0.4;fill:url(#radialGradient5733);fill-opacity:1;stroke:none;filter:url(#filter4889-7)"
       sodipodi:type="arc" />
    <path
       transform="matrix(0.11333856,0,0,0.0725442,-1.4422859,7.0327414)"
       d="m 66.114485,109.96878 c 0,5.6626 -13.771339,10.25305 -30.759146,10.25305 -16.987807,0 -30.7591457,-4.59045 -30.7591457,-10.25305 0,-5.6626 13.7713387,-10.253048 30.7591457,-10.253048 16.987807,0 30.759146,4.590448 30.759146,10.253048 z"
       sodipodi:ry="10.253049"
       sodipodi:rx="30.759146"
       sodipodi:cy="109.96878"
       sodipodi:cx="35.355339"
       id="path3102"
       style="opacity:0.4;fill:url(#radialGradient4024);fill-opacity:1;stroke:none;filter:url(#filter4889)"
       sodipodi:type="arc" />
    <path
       sodipodi:nodetypes="ccssccccssccssc"
       style="fill:url(#linearGradient5651);fill-opacity:1;stroke:#507f16;stroke-width:0.26231483;stroke-linecap:butt;stroke-linejoin:round;stroke-miterlimit:4;stroke-opacity:1;stroke-dasharray:none"
       id="path4031-1-1"
       d="m 3.4946128,4.9767454 c 0,2.6590902 2.57e-5,2.43436 2.57e-5,5.0934506 -1.4438187,0 -3.60743043,0.306553 -3.75971327,2.676253 -0.07235,1.125851 0.73103056,2.602752 2.30780667,2.799172 1.4212769,0.177049 3.5148517,-0.616366 3.5396376,-2.450728 -0.022112,-2.729946 0.0062,-4.8705913 0,-7.6009544 0.3820013,0 5.5754445,0 6.0610105,0 0,2.0449276 0,2.5313299 0,4.5762574 -1.246486,0 -3.3121953,0.316173 -3.4234837,2.698648 -0.060683,1.299105 0.9355147,2.670707 2.6291847,2.769801 1.459621,0.0854 3.144859,-0.805015 3.144859,-2.443332 -0.02905,-3.640237 0.02155,-5.063594 -0.0022,-8.7042182 0,-0.9266441 -0.274745,-1.5216104 -1.385048,-1.5216104 -2.159757,0 -5.3553497,0 -7.3280412,0 -1.4414163,0 -1.7840271,1.0772599 -1.784038,2.107261 z"
       inkscape:connector-curvature="0" />
    <path
       sodipodi:nodetypes="ccssc"
       style="fill:url(#radialGradient5653);fill-opacity:1;stroke:none"
       id="path2937-4-04"
       d="m 4.7589976,11.863716 c -2.252e-4,1.156537 -1.0360239,3.361036 -2.3422927,3.574844 -0.9712295,0.158971 -2.54660182,-0.810924 -2.54660097,-2.624868 6.9e-7,-1.452602 1.05607166,-2.287176 2.19267507,-2.488099 2.2055799,-0.3898909 2.6959946,0.38166 2.6962186,1.538123 z"
       inkscape:connector-curvature="0" />
    <path
       sodipodi:nodetypes="csssccscc"
       inkscape:connector-curvature="0"
       style="opacity:0.4;fill:url(#linearGradient5655);fill-opacity:1;fill-rule:evenodd;stroke:none"
       id="path2945-9-2"
       d="m 3.6301832,10.247002 c 0,0 0.00549,-3.5760992 0.00549,-5.5395088 0,-0.2641802 0.1460838,-0.9367427 0.4425032,-1.2619099 0.2510258,-0.2753712 0.6410655,-0.480395 1.0772436,-0.480395 0.1966284,0 5.336089,-0.00848 5.336089,-0.00848 0,0 2.224161,-0.041253 -4.9256792,0.752609 C 4.8200172,3.8965473 4.1094173,4.3689387 4.0811753,4.6536816 3.944092,6.035787 3.9530887,5.2991156 3.9530887,10.351979 3.7526693,10.283776 3.8488031,10.31283 3.6301832,10.247002 z" />
    <path
       sodipodi:nodetypes="cccsc"
       inkscape:connector-curvature="0"
       style="opacity:0.4;fill:url(#linearGradient5657);fill-opacity:1;fill-rule:evenodd;stroke:none"
       id="path2947-4-2"
       d="m 11.759922,10.196519 -1.72e-4,-4.7757387 0.596529,0 c 0,0 2.54e-4,0.6139026 2.54e-4,5.0728827 0,0.03324 -0.249759,-0.251306 -0.596611,-0.297144 z" />
    <path
       sodipodi:nodetypes="csssc"
       style="fill:url(#radialGradient5659);fill-opacity:1;stroke:none"
       id="path2937-4-0-2"
       d="m 13.579519,12.013292 c -2.25e-4,1.158334 -0.337203,3.713758 -2.910143,3.340824 -1.3400879,-0.194239 -2.2981954,-1.047048 -2.2981946,-2.591155 7e-7,-1.414675 0.8415143,-2.204824 2.1937976,-2.500094 2.206165,-0.4817152 3.014316,0.592166 3.01454,1.750425 z"
       inkscape:connector-curvature="0" />
  </g>
</svg>
