<?xml version="1.0" encoding="UTF-8" standalone="no"?>
<!-- Created with Inkscape (http://www.inkscape.org/) -->

<svg
   xmlns:dc="http://purl.org/dc/elements/1.1/"
   xmlns:cc="http://creativecommons.org/ns#"
   xmlns:rdf="http://www.w3.org/1999/02/22-rdf-syntax-ns#"
   xmlns:svg="http://www.w3.org/2000/svg"
   xmlns="http://www.w3.org/2000/svg"
   xmlns:xlink="http://www.w3.org/1999/xlink"
   xmlns:sodipodi="http://sodipodi.sourceforge.net/DTD/sodipodi-0.dtd"
   xmlns:inkscape="http://www.inkscape.org/namespaces/inkscape"
   width="48px"
   height="48px"
   id="svg3867"
   version="1.1"
   inkscape:version="0.48.4 r9939"
   sodipodi:docname="www.svg">
  <defs
     id="defs3869">
    <linearGradient
       inkscape:collect="always"
       xlink:href="#linearGradient8589"
       id="linearGradient3720"
       gradientUnits="userSpaceOnUse"
       gradientTransform="matrix(0.9976985,0,0,1.0406866,0.1638029,-1.1057942)"
       x1="32.892288"
       y1="8.0590115"
       x2="36.358372"
       y2="5.4565363" />
    <linearGradient
       id="linearGradient8589">
      <stop
         id="stop8591"
         style="stop-color:#fefefe;stop-opacity:1"
         offset="0" />
      <stop
         id="stop8593"
         style="stop-color:#cbcbcb;stop-opacity:1"
         offset="1" />
    </linearGradient>
    <filter
       color-interpolation-filters="sRGB"
       id="filter3212"
       x="-0.14846256"
       width="1.2969251"
       y="-0.16434373"
       height="1.3286875">
      <feGaussianBlur
         inkscape:collect="always"
         stdDeviation="0.77391625"
         id="feGaussianBlur3214" />
    </filter>
    <linearGradient
       inkscape:collect="always"
       xlink:href="#linearGradient3211"
       id="linearGradient3724"
       gradientUnits="userSpaceOnUse"
       gradientTransform="matrix(1,0,0,0.9777778,0,-0.96666964)"
       x1="24"
       y1="1.9999999"
       x2="24"
       y2="46.01725" />
    <linearGradient
       id="linearGradient3211">
      <stop
         id="stop3213"
         style="stop-color:#ffffff;stop-opacity:1"
         offset="0" />
      <stop
         id="stop3215"
         style="stop-color:#ffffff;stop-opacity:0"
         offset="1" />
    </linearGradient>
    <radialGradient
       inkscape:collect="always"
       xlink:href="#XMLID_8_"
       id="radialGradient3727"
       gradientUnits="userSpaceOnUse"
       gradientTransform="matrix(0.3617022,0,0,-0.3907784,0.8510637,47.517004)"
       cx="102"
       cy="112.3047"
       r="139.55859" />
    <radialGradient
       cx="102"
       cy="112.3047"
       r="139.55859"
       id="XMLID_8_"
       gradientUnits="userSpaceOnUse">
      <stop
         id="stop41"
         style="stop-color:#b7b8b9;stop-opacity:1"
         offset="0" />
      <stop
         id="stop47"
         style="stop-color:#ececec;stop-opacity:1"
         offset="0.18851049" />
      <stop
         id="stop49"
         style="stop-color:#fafafa;stop-opacity:0"
         offset="0.25718147" />
      <stop
         id="stop51"
         style="stop-color:#ffffff;stop-opacity:0"
         offset="0.30111277" />
      <stop
         id="stop53"
         style="stop-color:#fafafa;stop-opacity:0"
         offset="0.53130001" />
      <stop
         id="stop55"
         style="stop-color:#ebecec;stop-opacity:0"
         offset="0.84490001" />
      <stop
         id="stop57"
         style="stop-color:#e1e2e3;stop-opacity:0"
         offset="1" />
    </radialGradient>
    <linearGradient
       inkscape:collect="always"
       xlink:href="#linearGradient3600"
       id="linearGradient3730"
       gradientUnits="userSpaceOnUse"
       gradientTransform="matrix(1,0,0,0.9561695,-9.9999999e-8,-1.9149223)"
       x1="25.132275"
       y1="0.98520643"
       x2="25.132275"
       y2="47.013336" />
    <linearGradient
       id="linearGradient3600">
      <stop
         id="stop3602"
         style="stop-color:#f4f4f4;stop-opacity:1"
         offset="0" />
      <stop
         id="stop3604"
         style="stop-color:#dbdbdb;stop-opacity:1"
         offset="1" />
    </linearGradient>
    <linearGradient
       inkscape:collect="always"
       xlink:href="#linearGradient3104"
       id="linearGradient3732"
       gradientUnits="userSpaceOnUse"
       gradientTransform="matrix(0.8074968,0,0,0.8948322,59.410232,-2.9805536)"
       x1="-51.786404"
       y1="50.786446"
       x2="-51.786404"
       y2="2.9062471" />
    <linearGradient
       id="linearGradient3104">
      <stop
         id="stop3106"
         style="stop-color:#aaaaaa;stop-opacity:1"
         offset="0" />
      <stop
         id="stop3108"
         style="stop-color:#c8c8c8;stop-opacity:1"
         offset="1" />
    </linearGradient>
    <radialGradient
       inkscape:collect="always"
       xlink:href="#linearGradient5060"
       id="radialGradient3735"
       gradientUnits="userSpaceOnUse"
       gradientTransform="matrix(0.02303995,0,0,0.01470022,26.360882,37.040176)"
       cx="605.71429"
       cy="486.64789"
       fx="605.71429"
       fy="486.64789"
       r="117.14286" />
    <linearGradient
       id="linearGradient5060">
      <stop
         id="stop5062"
         style="stop-color:#000000;stop-opacity:1"
         offset="0" />
      <stop
         id="stop5064"
         style="stop-color:#000000;stop-opacity:0"
         offset="1" />
    </linearGradient>
    <radialGradient
       inkscape:collect="always"
       xlink:href="#linearGradient5060"
       id="radialGradient3738"
       gradientUnits="userSpaceOnUse"
       gradientTransform="matrix(-0.02303994,0,0,0.01470022,21.62311,37.040176)"
       cx="605.71429"
       cy="486.64789"
       fx="605.71429"
       fy="486.64789"
       r="117.14286" />
    <linearGradient
       id="linearGradient5048">
      <stop
         id="stop5050"
         style="stop-color:#000000;stop-opacity:0"
         offset="0" />
      <stop
         id="stop5056"
         style="stop-color:#000000;stop-opacity:1"
         offset="0.5" />
      <stop
         id="stop5052"
         style="stop-color:#000000;stop-opacity:0"
         offset="1" />
    </linearGradient>
    <linearGradient
       y2="609.50507"
       x2="302.85715"
       y1="366.64789"
       x1="302.85715"
       gradientTransform="matrix(0.06732488,0,0,0.01470022,-0.3411391,37.040146)"
       gradientUnits="userSpaceOnUse"
       id="linearGradient3865"
       xlink:href="#linearGradient5048"
       inkscape:collect="always" />
    <radialGradient
       inkscape:collect="always"
       xlink:href="#linearGradient5214"
       id="radialGradient3809"
       cx="6.4161592"
       cy="7.924839"
       fx="6.4161592"
       fy="7.924839"
       r="7.3255992"
       gradientUnits="userSpaceOnUse"
       gradientTransform="matrix(0.78402478,-1.3579708,1.2685948,0.73242353,-8.6676777,10.833458)" />
    <linearGradient
       id="linearGradient5214">
      <stop
         offset="0"
         style="stop-color:#b7d3da;stop-opacity:1;"
         id="stop5216" />
      <stop
         offset="0.38886222"
         style="stop-color:#a7bcc6;stop-opacity:1;"
         id="stop5218" />
      <stop
         offset="0.704952"
         style="stop-color:#94a1af;stop-opacity:1;"
         id="stop5220" />
      <stop
         offset="1"
         style="stop-color:#434751;stop-opacity:1;"
         id="stop5222" />
    </linearGradient>
    <linearGradient
       inkscape:collect="always"
       xlink:href="#linearGradient4873"
       id="linearGradient3778"
       gradientUnits="userSpaceOnUse"
       gradientTransform="matrix(0.36816361,0,0,0.36815521,-1.1056551,-0.76431259)"
       x1="20"
       y1="43"
       x2="20"
       y2="2.6887112" />
    <linearGradient
       id="linearGradient4873">
      <stop
         id="stop4875"
         style="stop-color:#ffffff;stop-opacity:1"
         offset="0" />
      <stop
         id="stop4877"
         style="stop-color:#ffffff;stop-opacity:0"
         offset="1" />
    </linearGradient>
    <linearGradient
       id="linearGradient3853">
      <stop
         style="stop-color:#f5f5f5;stop-opacity:1;"
         offset="0"
         id="stop3855" />
      <stop
         id="stop3861"
         offset="0.5"
         style="stop-color:#f5f5f5;stop-opacity:1;" />
      <stop
         style="stop-color:#d4d4d4;stop-opacity:0.31612903;"
         offset="1"
         id="stop3857" />
    </linearGradient>
    <radialGradient
       r="6.9656196"
       fy="7.4253736"
       fx="6.6978221"
       cy="7.4253736"
       cx="6.6978221"
       gradientTransform="matrix(1.0592947,0.95625973,-1.2124475,1.3430862,7.9470328,-8.7572294)"
       gradientUnits="userSpaceOnUse"
       id="radialGradient3084"
       xlink:href="#linearGradient3853"
       inkscape:collect="always" />
  </defs>
  <sodipodi:namedview
     id="base"
     pagecolor="#ffffff"
     bordercolor="#666666"
     borderopacity="1.0"
     inkscape:pageopacity="0.0"
     inkscape:pageshadow="2"
     inkscape:zoom="3.5"
     inkscape:cx="65.638885"
     inkscape:cy="58.777165"
     inkscape:current-layer="layer1"
     showgrid="true"
     inkscape:grid-bbox="true"
     inkscape:document-units="px"
     inkscape:window-width="916"
     inkscape:window-height="562"
     inkscape:window-x="417"
     inkscape:window-y="162"
     inkscape:window-maximized="0"
     showguides="true"
     inkscape:guide-bbox="true">
    <sodipodi:guide
       orientation="1,0"
       position="24,22.714286"
       id="guide3076" />
  </sodipodi:namedview>
  <metadata
     id="metadata3872">
    <rdf:RDF>
      <cc:Work
         rdf:about="">
        <dc:format>image/svg+xml</dc:format>
        <dc:type
           rdf:resource="http://purl.org/dc/dcmitype/StillImage" />
        <dc:title />
      </cc:Work>
    </rdf:RDF>
  </metadata>
  <g
     id="layer1"
     inkscape:label="Layer 1"
     inkscape:groupmode="layer">
    <rect
       style="opacity:0.3;fill:url(#linearGradient3865);fill-opacity:1;fill-rule:nonzero;stroke:none;stroke-width:1;marker:none;visibility:visible;display:inline;overflow:visible"
       id="rect2879"
       y="42.429947"
       x="7.7378473"
       height="3.5700529"
       width="32.508301" />
    <path
       style="opacity:0.3;fill:url(#radialGradient3738);fill-opacity:1;fill-rule:nonzero;stroke:none;stroke-width:1;marker:none;visibility:visible;display:inline;overflow:visible"
       id="path2881"
       d="m 7.7378475,42.430102 c 0,0 0,3.569856 0,3.569856 -1.1865002,0.0067 -2.8683795,-0.799823 -2.8683795,-1.785158 0,-0.985333 1.3240446,-1.784697 2.8683795,-1.784698 z" />
    <path
       style="opacity:0.3;fill:url(#radialGradient3735);fill-opacity:1;fill-rule:nonzero;stroke:none;stroke-width:1;marker:none;visibility:visible;display:inline;overflow:visible"
       id="path2883"
       d="m 40.246148,42.430102 c 0,0 0,3.569856 0,3.569856 1.1865,0.0067 2.86838,-0.799823 2.86838,-1.785158 0,-0.985333 -1.324045,-1.784697 -2.86838,-1.784698 z" />
    <path
       style="fill:url(#linearGradient3730);fill-opacity:1;stroke:url(#linearGradient3732);stroke-width:0.99992186;stroke-linecap:butt;stroke-linejoin:round;stroke-miterlimit:4;stroke-opacity:1;stroke-dasharray:none;stroke-dashoffset:0;display:inline"
       id="path4160"
       d="m 6.4999609,0.49719839 c 8.0202951,0 16.0405901,0 24.0608861,0 1.406933,0.4746531 8.965454,5.88220471 10.939195,9.62640661 0,11.459733 0,22.919465 0,34.379198 -11.666694,0 -23.333387,0 -35.0000811,0 0,-14.668535 0,-29.33707 0,-44.00560461 z" />
    <path
       style="fill:url(#radialGradient3727);fill-opacity:1"
       id="path4191"
       d="m 7.3617017,44 c -0.199297,0 -0.361702,-0.175459 -0.361702,-0.39078 l 0,-42.2040502 c 0,-0.2157088 0.162405,-0.3907775 0.361702,-0.3907775 C 14.844793,1.122407 23.137385,0.85281719 30.611384,1.0412869 L 40.894021,9.907312 41,43.60922 C 41,43.824541 40.837957,44 40.638297,44 L 7.3617017,44 z" />
    <path
       style="opacity:0.6;fill:none;stroke:url(#linearGradient3724);stroke-width:0.9999218;stroke-linecap:butt;stroke-linejoin:round;stroke-miterlimit:4;stroke-opacity:1;stroke-dasharray:none;stroke-dashoffset:0;display:inline"
       id="path2435"
       d="m 40.500039,10.258811 c 0,10.949037 0,22.31441 0,33.263447 -11.000026,0 -22.000052,0 -33.0000781,0 0,-14.014841 0,-28.029681 0,-42.0445216 7.5619931,0 15.3043341,0 22.8663281,0" />
    <path
       style="opacity:0.4;fill:#000000;fill-opacity:1;fill-rule:evenodd;stroke:none;display:inline;filter:url(#filter3212)"
       id="path12038"
       d="m 28.617256,0.92125799 c 4.282522,0 2.15325,8.48317101 2.15325,8.48317101 0,0 10.357642,-1.8023464 10.357642,2.818745 0,-2.609724 -11.302304,-10.7285959 -12.510892,-11.30191601 z" />
    <path
       style="fill:url(#linearGradient3720);fill-opacity:1;fill-rule:evenodd;stroke:none;display:inline"
       id="path4474"
       d="m 28.617256,0.92125799 c 3.186493,0 2.33576,7.66187851 2.33576,7.66187851 0,0 10.175132,-0.9810539 10.175132,3.6400375 0,-1.125939 0.08591,-1.932245 -0.133777,-2.283593 -1.578313,-2.5241788 -8.395516,-8.1884002 -10.8573,-8.9307883 -0.184222,-0.0555547 -0.592704,-0.0875347 -1.519815,-0.0875347 z" />
    <g
       id="layer1-2"
       transform="matrix(1.6942816,0.20114118,-0.20114118,1.6942816,12.232525,10.820184)">
      <path
         d="m 15.202279,7.9245802 c 0,4.0459458 -3.280024,7.3258578 -7.3255073,7.3258578 -4.0458522,0 -7.32569083,-3.279949 -7.32569083,-7.3258578 0,-4.0457621 3.27983863,-7.32534036 7.32569083,-7.32534036 4.0454833,0 7.3255073,3.27957826 7.3255073,7.32534036 l 0,0 z"
         id="path6495"
         style="opacity:0.75;fill:url(#radialGradient3809);fill-opacity:1;fill-rule:nonzero;stroke:url(#linearGradient3778);stroke-width:0;stroke-miterlimit:4;stroke-dasharray:none"
         inkscape:connector-curvature="0" />
      <path
         d="M 8.8886835,1.0193753 8.0168045,1.0147094 7.0391999,1.1619496 C 7.123245,1.1430753 7.2086605,1.1217032 7.2954716,1.1044034 L 7.2092442,0.89112391 6.8331952,0.90875085 6.6276971,1.0611943 6.3406576,1.0643002 6.0675476,1.1578213 5.9371332,1.2053287 5.8942098,1.2508048 5.7054261,1.2658631 5.5660237,1.4897187 5.4551048,1.1720405 5.3907838,1.2909602 5.3743283,1.6311668 5.1166661,1.8026134 4.9375058,2.1483765 5.2199876,2.1827394 5.3593899,1.9588838 5.4068714,1.8759395 C 5.5419408,1.8017274 5.6717879,1.7165772 5.8087496,1.6459895 L 6.0913582,1.7817629 C 6.267141,1.9376986 6.4440172,2.095895 6.619984,2.2516488 L 6.9343674,2.0237302 6.6317539,1.8475 6.5208369,1.5298219 5.9880347,1.4016366 5.983349,1.3376948 6.2106239,1.4160395 6.3624375,1.2950886 6.6647962,1.2684974 c 0.073952,-0.026014 0.1455934,-0.042515 0.2194256,-0.062028 L 6.6787247,1.3589127 7.2857266,1.9017048 7.2523018,2.1764754 6.9624784,2.4073815 7.2212873,3.1486312 7.4713542,3.0396316 7.8223317,2.6133749 C 8.252596,2.5334944 8.6445367,2.427316 9.0575995,2.2946881 L 9.0117633,2.4665536 9.1915581,2.6278435 9.5643156,2.4323745 9.4166802,2.2116251 9.1666126,2.3206236 9.0959609,2.2866807 c 0.017884,-0.0058 0.034193,-0.013076 0.052167,-0.019003 L 9.6014091,1.4102613 8.8886835,1.0193753 z M 5.3593882,1.9588836 5.6175599,2.1930795 5.8509141,2.2214662 5.879781,1.9841642 5.6124934,1.824906 5.3593882,1.9588836 l 0,0 z m 6.5413808,0.6309684 -0.518748,0.06364 -0.345151,0.1734784 -0.02279,0.1873432 -0.543058,0.2634729 0.039,0.4990466 0.320591,-0.1764666 0.1584,0.2347341 0.193598,0.1502945 0.179159,-0.3457642 -0.04786,-0.2212861 0.09192,-0.1409117 0.328188,-0.2389131 0.1351,0.016434 -0.171564,0.2833161 -0.03342,0.2747698 c 0.125584,-0.018851 0.249808,-0.017031 0.37605,-0.017628 l -0.374276,0.2079594 -0.04279,0.1468868 -0.434039,0.28941 -0.393145,-0.1492206 0.02887,-0.2373018 -0.19942,0.1024853 0.06015,0.222782 -0.294774,-0.035858 -0.193088,0.2553481 -0.223856,0.2009078 -0.3652877,0.03161 0.1829621,0.2377214 0.023299,0.218299 -0.257917,-0.031375 -0.3666802,0.1455102 -0.06685,0.5495406 0.159662,0.019422 0.1276324,0.1802934 0.3513647,-0.1220252 0.1638384,-0.3222784 0.2638673,-0.119994 0.06432,-0.1189192 0.405176,-0.052107 0.190685,0.276684 0.218162,0.1532819 -0.168525,0.2583366 0.216387,-0.037049 0.14396,-0.2613248 -0.232214,-0.3451076 0.110535,0.013446 0.242853,0.2576808 0.01266,0.3057269 0.199927,0.3031568 0.110025,-0.3921961 0.130414,-0.047508 c 0.113943,0.1539155 0.196461,0.3352301 0.287675,0.5039478 l 0.40226,0.074284 0.215122,0.1782619 L 12.608838,6.605048 12.349657,6.7889849 12.005763,6.7471514 11.569565,6.541999 11.333173,6.5385933 11.136918,6.7175101 10.706419,6.1581654 10.374684,6.0164156 9.8635342,6.0176083 9.4061963,6.0887187 C 9.1185974,6.3488194 8.824601,6.611393 8.5491361,6.8843428 L 8.181573,7.5493962 8.2984423,7.715705 8.0087458,8.0480223 8.2014602,8.7178592 c 0.1933724,0.2859885 0.3882792,0.5703922 0.5813007,0.8565241 l 0.3665533,-0.2469205 0.1138286,0.19129 0.38504,-0.1939753 0.1061032,0.1523244 0.356172,0.043327 0.179926,0.2627005 -0.174475,0.4097056 0.210691,0.317142 -0.07305,0.498087 0.140168,0.38461 -0.173082,0.295805 c -0.04042,0.222339 -0.07785,0.434983 -0.105092,0.658957 0.07145,0.316616 0.143268,0.632522 0.208416,0.950586 l 0.01443,0.496055 -0.03039,0.249793 0.196509,0.0239 0.305269,-0.152982 0.343892,0.04183 0.587242,-0.524259 -0.0371,-0.207305 0.381874,-0.270403 -0.222975,-0.318636 0.33743,-0.212441 0.317553,-0.151487 0.153332,-0.133441 -0.04495,-0.347677 c 0.03454,-0.283903 0.06877,-0.565351 0.103314,-0.849292 l 0.297164,-0.496174 0.334267,-0.288873 0.41656,-0.760487 0.02583,-0.2123232 c -0.161383,0.00103 -0.315929,8.519e-4 -0.472785,-0.00681 l 0.358829,-0.2858839 0.478607,-0.2459652 0.26678,-0.246383 0.03646,-0.2997494 C 14.430533,7.9910913 14.390372,7.875352 14.34943,7.7673693 L 14.110254,7.9917609 13.97338,7.7849961 13.762814,7.5692669 l 0.0471,-0.3871774 0.232218,0.3451072 0.311604,-1.178e-4 c 0.12296,0.144727 0.242136,0.2746125 0.345917,0.4349873 L 14.923514,7.761152 C 14.952956,7.5191225 14.830242,6.2916874 14.373856,5.2101073 13.917427,4.1288602 13.012717,3.0799992 13.012718,3.0799993 l -0.0904,0.1284216 -0.306664,0.2668809 -0.299831,-0.4040307 0.343891,0.041833 0.18093,-0.155432 L 12.217186,2.7550866 11.900769,2.589852 z M 4.4996627,1.8543011 4.3373428,2.1640896 c 0,0 -0.2194149,0.00994 -0.2762765,0.01709 -0.7849646,0.5745925 -2.3801386,1.8339791 -3.0382532,4.4846998 0.00551,0.063983 0.1816968,0.4530316 0.1816968,0.4530316 l 0.5008976,0.3904656 0.5221658,0.2156127 0.19841,0.3156471 0.3227472,0.3180978 0.2133483,-0.01207 0.1382667,0.092866 -0.00608,0.049958 -0.2648789,0.5381256 -0.1885299,0.2178801 0.035453,0.1183825 -0.1775121,0.4346845 0.3511128,0.9045691 0.4165702,0.46893 0.1723257,0.325149 -0.1005303,0.621489 0.1048406,0.367638 -0.2294244,0.656509 c 0,0 -0.01899,-0.008 -0.0076,0.06245 0.011566,0.07044 0.7570555,0.625519 0.8127539,0.593169 0.055611,-0.03309 0.1073706,-0.06298 0.1073706,-0.06298 l -0.030895,-0.155853 0.2330984,-0.174433 0.099519,-0.203358 0.3452811,-0.07207 0.3369223,-0.618085 -0.052419,-0.183818 0.20537,-0.253854 0.4036522,-0.03962 0.2542428,-0.450699 0.022279,-0.592987 0.3602212,-0.399784 0.103822,-0.443648 C 6.0118808,9.883581 5.6251103,9.6150162 5.2335789,9.3454236 L 5.0749267,8.9078697 4.704826,8.7741284 4.5644047,8.1866984 4.0532546,8.1878907 3.6506131,7.8093767 3.1337675,8.1647585 l -0.0076,0.062449 C 2.9913726,8.1691714 2.8265077,8.1429883 2.7115037,8.0500208 L 2.6497134,7.7383192 2.6892156,7.4135894 2.3653318,7.4122133 C 2.4161913,7.2084944 2.4762367,7.0018544 2.5272685,6.7981931 L 2.3430408,6.7757825 2.1299472,6.9906744 1.9473677,7.0571855 1.7076816,6.8759347 1.7226199,6.5482168 1.8142883,6.204486 2.2314866,5.9510506 2.5385319,5.9884015 2.6212125,5.8210185 2.9913122,5.9547601 3.2297324,6.3513199 3.3517859,5.7577965 3.8931952,5.4054035 4.1183156,4.9891839 4.5050015,4.8841306 4.7379731,4.6082851 5.2153167,4.5776311 5.4912117,4.2563097 C 5.260238,4.2282126 5.0221237,4.1992468 4.7911491,4.1711496 L 5.2591229,4.0126123 5.5661664,4.049963 5.975896,3.9603871 6.0024887,4.3565281 6.2078587,4.1026738 6.0280622,3.941384 6.0969416,3.7849965 5.9555095,3.6156982 5.7896404,3.5448235 5.8615586,3.3634565 5.7583639,3.0847413 5.4361254,3.1722858 5.5141197,2.9409604 5.1837762,2.6853103 4.8405239,3.1505304 4.8438183,3.3283728 4.5461445,3.4189058 4.3271005,3.7851661 4.285188,3.4125096 3.8305071,3.1544093 3.7779594,2.8691806 4.4744737,2.5736776 4.7903793,2.3332694 4.854447,2.011529 4.7054183,1.9046792 4.4996665,1.8543021 l -3.8e-6,-10e-7 z M 9.695623,3.0947426 9.6713141,3.2945744 9.7666582,3.4329169 9.7301947,3.7326669 9.6201671,4.1248627 9.9470905,4.1012596 10.209311,3.8923448 10.02483,3.6671125 C 9.9794245,3.4755219 9.9309193,3.3018285 9.8675682,3.1156591 L 9.695623,3.0947426 z m -0.3188181,0.3667962 -0.2041038,0.038544 0.00507,0.3681736 0.2746305,-0.1060117 -0.075594,-0.3007062 0,0 z m 3.1989851,3.7225109 0.252224,0.3855632 0.261975,0.8176826 0.190684,0.2766827 -0.142441,0.2488367 0.167643,0.2612052 c -0.09091,-0.0049 -0.179031,-0.0091 -0.27172,-0.020377 C 12.909544,8.7733538 12.820424,8.3942824 12.737993,8.0022686 l -0.190688,-0.2766841 -0.06812,-0.4645649 0.09661,-0.076968 0,-1.3e-6 z"
         id="path6534"
         style="opacity:0.95;fill:url(#radialGradient3084);fill-opacity:1;fill-rule:nonzero;stroke:none"
         inkscape:connector-curvature="0" />
    </g>
  </g>
</svg>
