<?xml version="1.0" encoding="UTF-8" standalone="no"?>
<!-- Created with Inkscape (http://www.inkscape.org/) -->

<svg
   xmlns:dc="http://purl.org/dc/elements/1.1/"
   xmlns:cc="http://creativecommons.org/ns#"
   xmlns:rdf="http://www.w3.org/1999/02/22-rdf-syntax-ns#"
   xmlns:svg="http://www.w3.org/2000/svg"
   xmlns="http://www.w3.org/2000/svg"
   xmlns:xlink="http://www.w3.org/1999/xlink"
   xmlns:sodipodi="http://sodipodi.sourceforge.net/DTD/sodipodi-0.dtd"
   xmlns:inkscape="http://www.inkscape.org/namespaces/inkscape"
   width="32"
   height="32"
   id="svg2"
   version="1.1"
   inkscape:version="0.48.4 r9939"
   sodipodi:docname="jdownloader.svg">
  <defs
     id="defs4">
    <linearGradient
       id="linearGradient3957">
      <stop
         offset="0"
         style="stop-color:#e5d36d;stop-opacity:1"
         id="stop3959" />
      <stop
         offset="0.26238"
         style="stop-color:#dcbf1a;stop-opacity:1"
         id="stop3961" />
      <stop
         offset="0.66093999"
         style="stop-color:#c9ae18;stop-opacity:1"
         id="stop3963" />
      <stop
         offset="1"
         style="stop-color:#7e6d0d;stop-opacity:1;"
         id="stop3965" />
    </linearGradient>
    <linearGradient
       id="linearGradient3946">
      <stop
         style="stop-color:#345e67;stop-opacity:1"
         offset="0"
         id="stop3948" />
      <stop
         style="stop-color:#102b26;stop-opacity:1"
         offset="1"
         id="stop3950" />
    </linearGradient>
    <linearGradient
       id="linearGradient7088">
      <stop
         style="stop-color:#2b5b95;stop-opacity:1;"
         offset="0"
         id="stop7090" />
      <stop
         style="stop-color:#28548a;stop-opacity:1;"
         offset="1"
         id="stop7092" />
    </linearGradient>
    <linearGradient
       inkscape:collect="always"
       id="linearGradient7059">
      <stop
         style="stop-color:#000000;stop-opacity:0.74576271"
         offset="0"
         id="stop7061" />
      <stop
         style="stop-color:#000000;stop-opacity:0;"
         offset="1"
         id="stop7063" />
    </linearGradient>
    <linearGradient
       id="linearGradient7041">
      <stop
         id="stop7043"
         offset="0"
         style="stop-color:#cfff51;stop-opacity:1" />
      <stop
         style="stop-color:#b0ff43;stop-opacity:1"
         offset="0.5"
         id="stop7045" />
      <stop
         id="stop7047"
         offset="1"
         style="stop-color:#000000;stop-opacity:1" />
    </linearGradient>
    <radialGradient
       inkscape:collect="always"
       xlink:href="#linearGradient5214"
       id="radialGradient3809"
       cx="6.9477224"
       cy="8.2798262"
       fx="6.9477224"
       fy="8.2798262"
       r="7.3255992"
       gradientUnits="userSpaceOnUse"
       gradientTransform="matrix(0.0788378,-0.41063808,0.38350035,0.07369919,-2.3985158,17.87212)" />
    <linearGradient
       id="linearGradient5214">
      <stop
         offset="0"
         style="stop-color:#3b8783;stop-opacity:1"
         id="stop5216" />
      <stop
         offset="0.38886222"
         style="stop-color:#2f7372;stop-opacity:1"
         id="stop5218" />
      <stop
         offset="0.704952"
         style="stop-color:#122d2f;stop-opacity:1"
         id="stop5220" />
      <stop
         offset="1"
         style="stop-color:#01060b;stop-opacity:1;"
         id="stop5222" />
    </linearGradient>
    <radialGradient
       r="6.9656196"
       fy="7.5335512"
       fx="7.7823763"
       cy="7.5335512"
       cx="7.7823763"
       gradientTransform="matrix(0.32498657,-0.11273341,0.12684255,0.36582549,-2.0195535,13.719824)"
       gradientUnits="userSpaceOnUse"
       id="radialGradient4838"
       xlink:href="#linearGradient7041"
       inkscape:collect="always" />
    <linearGradient
       id="linearGradient2490">
      <stop
         id="stop2492"
         style="stop-color:#5f530e;stop-opacity:1;"
         offset="0" />
      <stop
         id="stop2494"
         style="stop-color:#a79118;stop-opacity:1;"
         offset="1" />
    </linearGradient>
    <linearGradient
       x1="83.216866"
       y1="54.000008"
       x2="83.216866"
       y2="122.16803"
       id="linearGradient2887"
       xlink:href="#linearGradient3607"
       gradientUnits="userSpaceOnUse"
       gradientTransform="matrix(0.04258406,-0.00505549,0.00499111,0.04204179,-1.3690861,13.046769)" />
    <linearGradient
       id="linearGradient3607">
      <stop
         id="stop3609"
         style="stop-color:#ffffff;stop-opacity:1"
         offset="0" />
      <stop
         id="stop3611"
         style="stop-color:#ffffff;stop-opacity:0"
         offset="1" />
    </linearGradient>
    <radialGradient
       r="31.000002"
       fy="51.694645"
       fx="69.447609"
       cy="51.694645"
       cx="69.447609"
       gradientTransform="matrix(0.01199108,0.10100493,-0.11088632,0.01316418,7.2445165,7.5692484)"
       gradientUnits="userSpaceOnUse"
       id="radialGradient6996"
       xlink:href="#linearGradient3957"
       inkscape:collect="always" />
    <linearGradient
       y2="53.997635"
       x2="72.421684"
       y1="122.00002"
       x1="72.421684"
       gradientTransform="matrix(0.04233978,-0.00502649,0.00502164,0.04229902,-1.349247,13.030249)"
       gradientUnits="userSpaceOnUse"
       id="linearGradient6998"
       xlink:href="#linearGradient2490"
       inkscape:collect="always" />
    <radialGradient
       inkscape:collect="always"
       xlink:href="#linearGradient7059"
       id="radialGradient7067"
       cx="68"
       cy="115"
       fx="68"
       fy="115"
       r="42"
       gradientTransform="matrix(1,0,0,0.16666667,0,95.833333)"
       gradientUnits="userSpaceOnUse" />
    <radialGradient
       inkscape:collect="always"
       xlink:href="#linearGradient7088"
       id="radialGradient7094"
       cx="7.5917654"
       cy="7.9267821"
       fx="7.5917654"
       fy="7.9267821"
       r="6.7889385"
       gradientTransform="matrix(0.26138631,0.07006868,-0.07356485,0.27466705,0.10463238,12.974131)"
       gradientUnits="userSpaceOnUse" />
    <radialGradient
       inkscape:collect="always"
       xlink:href="#linearGradient7059"
       id="radialGradient7136"
       gradientUnits="userSpaceOnUse"
       gradientTransform="matrix(1,0,0,0.16666667,0,95.833333)"
       cx="68"
       cy="115"
       fx="68"
       fy="115"
       r="42" />
    <linearGradient
       inkscape:collect="always"
       xlink:href="#linearGradient3946"
       id="linearGradient3952"
       x1="-0.53832227"
       y1="13.130755"
       x2="8.0842743"
       y2="13.130755"
       gradientUnits="userSpaceOnUse"
       gradientTransform="matrix(0.44402269,0.11902496,-0.11895626,0.44413532,1.4010324,9.4129266)" />
  </defs>
  <sodipodi:namedview
     id="base"
     pagecolor="#ffffff"
     bordercolor="#27cc00"
     borderopacity="1"
     inkscape:pageopacity="0.0"
     inkscape:pageshadow="2"
     inkscape:zoom="5.6568543"
     inkscape:cx="7.941946"
     inkscape:cy="10.927898"
     inkscape:document-units="px"
     inkscape:current-layer="layer1-2"
     showgrid="false"
     borderlayer="false"
     inkscape:showpageshadow="false"
     showborder="true"
     inkscape:snap-from-guide="false"
     objecttolerance="1"
     gridtolerance="1"
     guidetolerance="5"
     inkscape:window-width="895"
     inkscape:window-height="454"
     inkscape:window-x="494"
     inkscape:window-y="255"
     inkscape:window-maximized="0"
     inkscape:object-nodes="true"
     inkscape:snap-smooth-nodes="true"
     inkscape:snap-object-midpoints="false"
     inkscape:snap-center="true"
     inkscape:snap-nodes="true">
    <inkscape:grid
       type="xygrid"
       id="grid2985"
       empspacing="5"
       visible="true"
       enabled="true"
       snapvisiblegridlinesonly="true" />
  </sodipodi:namedview>
  <metadata
     id="metadata7">
    <rdf:RDF>
      <cc:Work
         rdf:about="">
        <dc:format>image/svg+xml</dc:format>
        <dc:type
           rdf:resource="http://purl.org/dc/dcmitype/StillImage" />
        <dc:title />
      </cc:Work>
    </rdf:RDF>
  </metadata>
  <g
     inkscape:label="Layer 1"
     inkscape:groupmode="layer"
     id="layer1"
     transform="translate(0,-1020.3622)">
    <g
       transform="matrix(1.8188509,0,0,1.8188509,56.252584,967.22209)"
       style="display:inline"
       id="g10559">
      <g
         id="layer1-2"
         transform="matrix(3.7260479,0.44234774,-0.44234774,3.7260479,-21.583942,-21.389804)">
        <path
           transform="matrix(0.02425074,-0.002879,0.0024677,0.02078635,1.0664474,15.605198)"
           d="m 110,115 a 42,7 0 1 1 -84,0 42,7 0 1 1 84,0 z"
           sodipodi:ry="7"
           sodipodi:rx="42"
           sodipodi:cy="115"
           sodipodi:cx="68"
           id="path7134"
           style="opacity:0.1;fill:url(#radialGradient7136);fill-opacity:1;fill-rule:nonzero;stroke:none"
           sodipodi:type="arc" />
        <path
           sodipodi:type="arc"
           style="opacity:0.5;fill:url(#radialGradient7067);fill-opacity:1;fill-rule:nonzero;stroke:none"
           id="path7049"
           sodipodi:cx="68"
           sodipodi:cy="115"
           sodipodi:rx="42"
           sodipodi:ry="7"
           d="m 110,115 a 42,7 0 1 1 -84,0 42,7 0 1 1 84,0 z"
           transform="matrix(0.04463308,-0.00529873,0.00629439,0.05301986,-1.9686492,11.697593)" />
        <path
           d="m 3.3594039,15.053765 c 0.3534514,1.019375 -0.1861447,2.132314 -1.2050654,2.485758 -1.0190142,0.353479 -2.13162936,-0.186351 -2.4850776,-1.205715 -0.35343575,-1.019326 0.18614276,-2.132164 1.2051564,-2.485643 1.0189208,-0.353443 2.1315511,0.186275 2.4849865,1.2056 l 0,0 z"
           id="path6495"
           style="fill:url(#radialGradient3809);fill-opacity:1;fill-rule:nonzero;stroke:url(#linearGradient3952);stroke-width:0.08791575;stroke-miterlimit:4;stroke-opacity:1;stroke-dasharray:none"
           inkscape:connector-curvature="0" />
        <path
           d="M 1.0040357,13.889598 0.7911431,13.99234 0.57059765,14.144685 c 0.0182213,-0.01462 0.0364754,-0.02999 0.0555568,-0.04455 l -0.0464033,-0.04169 -0.0894825,0.04909 -0.0318877,0.06161 -0.0695352,0.03496 -0.0553728,0.05532 -0.0261029,0.02711 -0.005034,0.01619 -0.0441832,0.02616 -0.007285,0.07115 -0.0537562,-0.0045 0.0239194,0.06176 -0.0423274,0.07246 -0.002447,0.105581 0.0728881,-0.02529 -0.006724,-0.07215 0.001682,-0.02585 c 0.0240538,-0.03416 0.0595429,-0.06938 0.0844895,-0.102895 l 0.0850005,-6.23e-4 c 0.0613772,0.01708 0.12332255,0.03444 0.18470453,0.05153 l 0.0494114,-0.09293 -0.0946927,-0.0068 -0.0648553,-0.06418 -0.14502791,0.03225 -0.00876,-0.01503 0.0646824,-0.0079 0.0225651,-0.04756 0.0704692,-0.04249 c 0.0149123,-0.01516 0.0303906,-0.02769 0.0460482,-0.04125 l -0.0318868,0.06162 0.21248109,0.05994 0.0245919,0.07092 -0.0430774,0.09078 0.15132955,0.149753 0.047917,-0.05635 0.034704,-0.145662 c 0.095288,-0.07077 0.17809249,-0.143334 0.26289069,-0.22486 l 0.00931,0.04733 0.063006,0.01786 0.067496,-0.09203 -0.062251,-0.03618 -0.047917,0.05635 -0.021249,1.46e-4 c 0.00365,-0.0035 0.00677,-0.0073 0.010441,-0.01084 l 0.00825,-0.262868 z m -0.76161389,0.648371 0.10478966,0.02727 0.0462042,-0.02189 -0.007229,-0.06024 -0.0840647,-0.007 z m 1.66112319,-0.67429 -0.1187545,0.07731 -0.063394,0.08338 0.016766,0.04836 -0.1008706,0.12889 0.068946,0.116933 0.057055,-0.08118 0.066536,0.03833 0.065041,0.01359 0.00245,-0.105582 -0.038015,-0.04821 0.00559,-0.04528 0.051467,-0.09731 0.03486,-0.01208 -0.00803,0.08947 0.024592,0.07092 c 0.028347,-0.01958 0.058816,-0.03393 0.089489,-0.04912 l -0.066378,0.09526 0.00708,0.04089 -0.071231,0.12222 -0.113521,0.01049 -0.021238,-0.06126 -0.03636,0.04874 0.041187,0.0471 -0.07606,0.02639 -0.016607,0.08522 -0.030585,0.07561 -0.085197,0.05123 0.072876,0.03611 0.031681,0.05039 -0.06655,0.02308 -0.071967,0.07913 0.049183,0.141846 0.041196,-0.01428 0.052561,0.02871 0.071034,-0.07159 0.00151,-0.09803 0.049967,-0.06068 0.00149,-0.03662 0.09247,-0.06097 0.079398,0.04469 0.071392,0.01134 -0.010269,0.08301 0.048285,-0.03481 0.00393,-0.08081 -0.097662,-0.05641 0.02852,-0.0099 0.08984,0.03385 0.039502,0.07297 0.084804,0.05003 -0.019924,-0.108656 0.026102,-0.02711 c 0.046085,0.02392 0.087778,0.05827 0.1300916,0.0885 l 0.1068155,-0.02983 0.073622,0.01781 -0.01399,0.05181 -0.041208,0.07569 -0.088735,0.03078 -0.1306669,0.0021 -0.057978,0.02734 -0.026482,0.06697 -0.1714721,-0.08498 -0.097674,0.0049 -0.1243427,0.0612 -0.1029089,0.07181 c -0.039058,0.09763 -0.079379,0.196628 -0.1139505,0.295945 l -0.010294,0.205815 0.048275,0.02659 -0.030966,0.115475 0.1267262,0.140228 c 0.081161,0.04663 0.1625078,0.09271 0.2436008,0.139411 l 0.059857,-0.103828 0.050509,0.03304 0.070665,-0.09314 0.043985,0.02447 0.091904,-0.03188 0.075114,0.04256 0.00631,0.1206 0.089091,0.05217 0.041542,0.130048 0.079953,0.077 -0.00692,0.09269 c 0.016643,0.05898 0.032858,0.115248 0.052903,0.173059 0.055117,0.06863 0.1102389,0.137027 0.1639941,0.206753 l 0.062607,0.119132 0.022356,0.06448 0.050705,-0.01759 0.056122,-0.07364 0.088735,-0.03078 0.080565,-0.197687 -0.03373,-0.04607 0.06079,-0.111373 -0.092262,-0.05105 0.056871,-0.09196 0.059291,-0.07474 0.021447,-0.05078 -0.052365,-0.07934 c -0.025403,-0.07329 -0.05059,-0.14593 -0.076003,-0.219219 l 0.013267,-0.156284 0.046996,-0.110202 0.010857,-0.234904 -0.019002,-0.0548 c -0.039181,0.01948 -0.07684,0.03785 -0.1159535,0.05468 l 0.053334,-0.112415 0.087259,-0.116947 0.035619,-0.09181 -0.026826,-0.07737 c -0.022738,-0.02146 -0.046305,-0.04488 -0.069141,-0.0663 l -0.031518,0.08316 -0.057965,-0.03406 -0.076979,-0.02747 -0.034651,-0.09994 0.097663,0.05641 0.075874,-0.03715 c 0.047187,0.02062 0.091682,0.03806 0.1360607,0.06476 l 0.030587,-0.07562 C 3.2340595,14.70092 3.0579588,14.416508 2.8179698,14.207385 2.5780109,13.998348 2.2327353,13.850609 2.2327356,13.850609 l -0.00671,0.04205 -0.042895,0.101553 -0.1211496,-0.06271 0.088735,-0.03078 0.025548,-0.05942 -0.1759689,0.02492 z m -1.89696714,0.750237 -0.002625,0.09481 c 0,0 -0.0522525,0.02856 -0.0652484,0.03708 -0.12272277,0.233508 -0.36118866,0.730378 -0.20570459,1.454567 0.008964,0.01493 0.0982164,0.08873 0.0982164,0.08873 l 0.16850026,0.03545 0.15285152,-0.0097 0.0859204,0.05327 0.11649381,0.03904 0.0505191,-0.02835 0.0447361,0.0062 0.004483,0.01289 -4.0528e-4,0.16266 -0.0199603,0.07553 0.0227342,0.02462 0.008555,0.127048 0.19326446,0.178541 0.15731193,0.06461 0.0807007,0.05869 0.049551,0.163388 0.069327,0.07708 0.022331,0.187276 c 0,0 -0.00558,3.78e-4 0.0056,0.01612 0.011209,0.01578 0.258886,0.06219 0.268596,0.04767 0.0096,-0.01469 0.018648,-0.02815 0.018648,-0.02815 l -0.026093,-0.03428 0.03599,-0.07027 1.23e-5,-0.0614 0.075504,-0.0587 0.00842,-0.190722 -0.034662,-0.03854 0.01978,-0.08632 0.093586,-0.05774 0.00823,-0.140094 -0.065211,-0.147121 0.040097,-0.140316 -0.027564,-0.120455 c -0.1277169,-0.01713 -0.2539018,-0.0365 -0.3813693,-0.05553 l -0.090757,-0.0877 -0.1060663,0.01151 -0.10417446,-0.126381 -0.12434308,0.0612 -0.14314907,-0.04424 -0.0835378,0.148157 0.005594,0.01611 c -0.0397423,0.002 -0.083013,0.01519 -0.12209558,0.0063 l -0.0521723,-0.0686 -0.0290626,-0.08382 -0.0790428,0.03825 c -0.0118836,-0.05569 -0.021876,-0.113192 -0.0337082,-0.168888 l -0.047537,0.01649 -0.026298,0.07774 -0.0365426,0.03796 -0.0799637,-0.0156 -0.0354005,-0.08161 -0.0186211,-0.09466 0.0714143,-0.111451 0.0792286,-0.02749 1.9637e-4,-0.05063 0.10606633,-0.01151 0.10530391,0.06821 -0.0409771,-0.159139 0.0898765,-0.150357 0.005249,-0.128222 0.0816588,-0.07166 0.0238754,-0.09496 0.11260008,-0.06434 0.0289103,-0.111156 c -0.0595952,0.02067 -0.12103589,0.04199 -0.18063418,0.06267 l 0.0950845,-0.09438 0.0792258,-0.02748 0.0891145,-0.07063 0.0536666,0.09334 0.01978,-0.08632 -0.063006,-0.01785 -0.00185,-0.0463 -0.0546126,-0.02439 -0.0488371,0.0025 -0.004081,-0.05275 -0.0583325,-0.05561 -0.0680483,0.05972 -0.008564,-0.06565 -0.11090309,-0.02293 -0.0281771,0.154235 0.021988,0.04292 -0.0617106,0.05753 -0.009717,0.115327 -0.0545987,-0.0858 -0.14147904,-0.0087 -0.0467741,-0.06323 0.13442759,-0.154978 0.0482971,-0.09621 -0.022723,-0.08602 -0.0490322,-0.0082 -0.0561097,0.01224 -1.22e-6,0 z m 1.42007104,-0.364504 0.017885,0.05159 0.039699,0.02234 0.026827,0.07737 0.019923,0.108655 0.076807,-0.0447 0.038976,-0.08215 -0.071757,-0.0329 c -0.033883,-0.04126 -0.066387,-0.07779 -0.1039917,-0.115608 z m -0.033951,0.127343 -0.031104,0.03471 0.045092,0.08909 0.040246,-0.05955 z m 1.2225135,0.525756 0.1073554,0.06388 0.1612056,0.167993 0.079398,0.04469 -0.00504,0.07759 0.071943,0.04366 c -0.022726,0.0096 -0.044688,0.01911 -0.068604,0.0274 -0.07565,-0.0778 -0.1425102,-0.159538 -0.2092828,-0.24522 l -0.0794,-0.04469 -0.07193,-0.105065 0.014361,-0.03027 -10e-8,0 z"
           id="path6534"
           style="opacity:0.8;fill:url(#radialGradient4838);fill-opacity:1;fill-rule:nonzero;stroke:url(#radialGradient7094);stroke-width:0.03663157;stroke-miterlimit:4;stroke-opacity:1;stroke-dasharray:none"
           inkscape:connector-curvature="0"
           sodipodi:nodetypes="ccccccccccccccccccccccccccccccccccccccccccccccccccccccccccccccccccccccccccccccccccccccccccccccccccccccccccccccccccccccccccccccccccccccccccccccccccccccccccccccccccccccccccccccccccccccccccccccccccccccccccccccccccccccccccccccccccccccccccccccccccccccccccccccccccccccccccccccccccccccccccccccccccccccccccccccccc" />
        <path
           d="M 4.0546944,16.125225 2.9906465,17.727103 1.5811192,16.418887 2.1631365,16.349787 2.0076721,15.04025 3.317212,14.884786 3.4726774,16.194325 z"
           id="path3288"
           style="fill:url(#radialGradient6996);fill-opacity:1;fill-rule:nonzero;stroke:url(#linearGradient6998);stroke-width:0.14652622;stroke-linecap:round;stroke-linejoin:round;stroke-miterlimit:4;stroke-opacity:1;stroke-dasharray:none;stroke-dashoffset:0;marker:none;visibility:visible;display:inline;overflow:visible"
           inkscape:connector-curvature="0"
           sodipodi:nodetypes="cccccccc" />
        <path
           d="m 2.1704531,15.168512 0.1554624,1.30951 -0.4074127,0.04837 1.0462327,0.982457 0.7871237,-1.200107 -0.4074132,0.04836 -0.1554683,-1.309568 z"
           id="path4188"
           style="opacity:0.4;fill:none;stroke:url(#linearGradient2887);stroke-width:0.14652622;stroke-linecap:round;stroke-linejoin:miter;stroke-miterlimit:4;stroke-opacity:1;stroke-dasharray:none;stroke-dashoffset:0;marker:none;visibility:visible;display:inline;overflow:visible"
           inkscape:connector-curvature="0"
           sodipodi:nodetypes="cccccccc" />
      </g>
    </g>
  </g>
</svg>
