<?xml version="1.0" encoding="UTF-8" standalone="no"?>
<!-- Created with Inkscape (http://www.inkscape.org/) -->

<svg
   xmlns:dc="http://purl.org/dc/elements/1.1/"
   xmlns:cc="http://creativecommons.org/ns#"
   xmlns:rdf="http://www.w3.org/1999/02/22-rdf-syntax-ns#"
   xmlns:svg="http://www.w3.org/2000/svg"
   xmlns="http://www.w3.org/2000/svg"
   xmlns:sodipodi="http://sodipodi.sourceforge.net/DTD/sodipodi-0.dtd"
   xmlns:inkscape="http://www.inkscape.org/namespaces/inkscape"
   id="svg2"
   version="1.1"
   inkscape:version="0.91 r13725"
   width="2813"
   height="1875"
   viewBox="0 0 2813 1875"
   sodipodi:docname="jwm-joewing-light-final.svg"
   inkscape:export-filename="/home/meto/jwm-joewing-light.png"
   inkscape:export-xdpi="96"
   inkscape:export-ydpi="96">
  <metadata
     id="metadata8">
    <rdf:RDF>
      <cc:Work
         rdf:about="">
        <dc:format>image/svg+xml</dc:format>
        <dc:type
           rdf:resource="http://purl.org/dc/dcmitype/StillImage" />
        <dc:title />
        <cc:license
           rdf:resource="" />
      </cc:Work>
    </rdf:RDF>
  </metadata>
  <defs
     id="defs6">
    <inkscape:path-effect
       effect="skeletal"
       id="path-effect4185"
       is_visible="true"
       pattern="M 0,0 1,0"
       copytype="single_stretched"
       prop_scale="1"
       scale_y_rel="false"
       spacing="0"
       normal_offset="0"
       tang_offset="0"
       prop_units="false"
       vertical_pattern="false"
       fuse_tolerance="0" />
    <inkscape:path-effect
       effect="skeletal"
       id="path-effect4176"
       is_visible="true"
       pattern="m -71.8033,0 1,0"
       copytype="single_stretched"
       prop_scale="1"
       scale_y_rel="false"
       spacing="0"
       normal_offset="0"
       tang_offset="0"
       prop_units="false"
       vertical_pattern="false"
       fuse_tolerance="0" />
    <inkscape:path-effect
       effect="skeletal"
       id="path-effect4167"
       is_visible="true"
       pattern="m 0,300.05105 1,0"
       copytype="single_stretched"
       prop_scale="1"
       scale_y_rel="false"
       spacing="0"
       normal_offset="0"
       tang_offset="0"
       prop_units="false"
       vertical_pattern="false"
       fuse_tolerance="0" />
    <inkscape:path-effect
       fuse_tolerance="0"
       vertical_pattern="false"
       prop_units="false"
       tang_offset="0"
       normal_offset="0"
       spacing="0"
       scale_y_rel="false"
       prop_scale="1"
       copytype="single_stretched"
       pattern="M 0,0 1,0"
       is_visible="true"
       id="path-effect4214"
       effect="skeletal" />
    <inkscape:path-effect
       fuse_tolerance="0"
       vertical_pattern="false"
       prop_units="false"
       tang_offset="0"
       normal_offset="0"
       spacing="0"
       scale_y_rel="false"
       prop_scale="1"
       copytype="single_stretched"
       pattern="M 0,0 1,0"
       is_visible="true"
       id="path-effect4205"
       effect="skeletal" />
    <inkscape:path-effect
       fuse_tolerance="0"
       vertical_pattern="false"
       prop_units="false"
       tang_offset="0"
       normal_offset="0"
       spacing="0"
       scale_y_rel="false"
       prop_scale="1"
       copytype="single_stretched"
       pattern="M 0,0 1,0"
       is_visible="true"
       id="path-effect4196"
       effect="skeletal" />
    <inkscape:path-effect
       fuse_tolerance="0"
       vertical_pattern="false"
       prop_units="false"
       tang_offset="0"
       normal_offset="0"
       spacing="0"
       scale_y_rel="false"
       prop_scale="1"
       copytype="single_stretched"
       pattern="M 0,0 1,0"
       is_visible="true"
       id="path-effect4196-3"
       effect="skeletal" />
    <inkscape:path-effect
       fuse_tolerance="0"
       vertical_pattern="false"
       prop_units="false"
       tang_offset="0"
       normal_offset="0"
       spacing="0"
       scale_y_rel="false"
       prop_scale="1"
       copytype="single_stretched"
       pattern="M 0,0 1,0"
       is_visible="true"
       id="path-effect4205-6"
       effect="skeletal" />
    <inkscape:path-effect
       fuse_tolerance="0"
       vertical_pattern="false"
       prop_units="false"
       tang_offset="0"
       normal_offset="0"
       spacing="0"
       scale_y_rel="false"
       prop_scale="1"
       copytype="single_stretched"
       pattern="M 0,0 1,0"
       is_visible="true"
       id="path-effect4214-7"
       effect="skeletal" />
  </defs>
  <sodipodi:namedview
     pagecolor="#939393"
     bordercolor="#ff0000"
     borderopacity="1"
     objecttolerance="10"
     gridtolerance="10"
     guidetolerance="10"
     inkscape:pageopacity="0"
     inkscape:pageshadow="2"
     inkscape:window-width="1280"
     inkscape:window-height="972"
     id="namedview4"
     showgrid="false"
     inkscape:showpageshadow="false"
     inkscape:zoom="0.66965252"
     inkscape:cx="1461.757"
     inkscape:cy="1455.1834"
     inkscape:window-x="0"
     inkscape:window-y="0"
     inkscape:window-maximized="1"
     inkscape:current-layer="layer1"
     showguides="false"
     inkscape:guide-bbox="true">
    <sodipodi:guide
       position="0,0"
       orientation="0,2813"
       id="guide3338" />
    <sodipodi:guide
       position="2813,0"
       orientation="-1875,0"
       id="guide3340" />
    <sodipodi:guide
       position="2813,1875"
       orientation="0,-2813"
       id="guide3342" />
    <sodipodi:guide
       position="0,1875"
       orientation="1875,0"
       id="guide3344" />
    <sodipodi:guide
       position="519.51802,-684.24324"
       orientation="1,0"
       id="guide4856" />
    <sodipodi:guide
       position="832.07357,937.66667"
       orientation="0,1"
       id="guide4861" />
    <sodipodi:guide
       position="2289.2583,937.66667"
       orientation="1,0"
       id="guide4921" />
  </sodipodi:namedview>
  <g
     inkscape:groupmode="layer"
     id="layer6"
     inkscape:label="All"
     style="display:inline">
    <g
       inkscape:groupmode="layer"
       id="layer5"
       inkscape:label="Land"
       style="display:inline"
       sodipodi:insensitive="true">
      <rect
         style="color:#0d1426;clip-rule:nonzero;display:inline;overflow:visible;visibility:visible;opacity:1;isolation:auto;mix-blend-mode:normal;color-interpolation:sRGB;color-interpolation-filters:linearRGB;solid-color:#0d1426;solid-opacity:1;fill:#b6855e;fill-opacity:1;fill-rule:nonzero;stroke:none;stroke-width:2.70d14265;stroke-linecap:butt;stroke-linejoin:miter;stroke-miterlimit:4;stroke-dasharray:none;stroke-dashoffset:0;stroke-opacity:1;color-rendering:auto;image-rendering:auto;shape-rendering:auto;text-rendering:auto;enable-background:accumulate"
         id="rect4926"
         width="1782.4114"
         height="937.66669"
         x="513.18243"
         y="937.33331" />
    </g>
    <g
       inkscape:groupmode="layer"
       id="layer4"
       inkscape:label="Sky"
       style="display:inline"
       sodipodi:insensitive="true">
      <rect
         style="color:#0d1426;clip-rule:nonzero;display:inline;overflow:visible;visibility:visible;opacity:1;isolation:auto;mix-blend-mode:normal;color-interpolation:sRGB;color-interpolation-filters:linearRGB;solid-color:#0d1426;solid-opacity:1;fill:#d9cdb3;fill-opacity:1;fill-rule:nonzero;stroke:none;stroke-width:2.70d14265;stroke-linecap:butt;stroke-linejoin:miter;stroke-miterlimit:4;stroke-dasharray:none;stroke-dashoffset:0;stroke-opacity:1;color-rendering:auto;image-rendering:auto;shape-rendering:auto;text-rendering:auto;enable-background:accumulate"
         id="rect4923"
         width="1788.7469"
         height="937.33331"
         x="513.18243"
         y="2.2737368e-13" />
    </g>
    <g
       inkscape:groupmode="layer"
       id="layer7"
       inkscape:label="Manjaro-Logo"
       style="display:inline;opacity:1"
       sodipodi:insensitive="true">
      <g
         transform="matrix(3.9350095,-4.4653037,4.4653037,3.9350095,291.45606,1848.4902)"
         style="display:inline;fill:#c59a7a;fill-opacity:1"
         inkscape:label="Logo-SVG"
         id="layer2-3">
        <g
           id="g4221"
           style="fill:#c59a7a;fill-opacity:1">
          <path
             style="fill:#c59a7a;fill-opacity:1;fill-rule:evenodd;stroke:none;stroke-width:1px;stroke-linecap:butt;stroke-linejoin:miter;stroke-opacity:1"
             d="m 1410.3223,936.83594 -227.209,257.82616 772.0215,680.3379 205.4472,0 137.4024,-155.9199 -887.6621,-782.24416 z m -282.3868,320.44136 -503.10347,570.9043 53.12695,46.8184 519.78122,0 -87.873,-77.4375 275.8945,-313.0762 -257.8262,-227.209 z m 316.7598,279.1426 -223.9629,254.1426 95.8164,84.4375 512.3535,0 -384.207,-338.5801 z"
             transform="matrix(0.11108554,0.12605578,-0.12605578,0.11108554,200.63632,-242.08026)"
             id="path4194"
             inkscape:connector-curvature="0" />
        </g>
      </g>
    </g>
    <g
       inkscape:groupmode="layer"
       id="layer3"
       inkscape:label="Asides-Squares"
       style="display:inline"
       sodipodi:insensitive="true">
      <g
         id="g4895">
        <rect
           y="0"
           x="0"
           height="937.33331"
           width="519.51801"
           id="rect4863"
           style="color:#0d1426;clip-rule:nonzero;display:inline;overflow:visible;visibility:visible;opacity:1;isolation:auto;mix-blend-mode:normal;color-interpolation:sRGB;color-interpolation-filters:linearRGB;solid-color:#0d1426;solid-opacity:1;fill:#b68760;fill-opacity:1;fill-rule:nonzero;stroke:none;stroke-width:2.70d14265;stroke-linecap:butt;stroke-linejoin:miter;stroke-miterlimit:4;stroke-dasharray:none;stroke-dashoffset:0;stroke-opacity:1;color-rendering:auto;image-rendering:auto;shape-rendering:auto;text-rendering:auto;enable-background:accumulate" />
        <rect
           y="0"
           x="2289.2583"
           height="937.33331"
           width="523.7417"
           id="rect4863-6"
           style="color:#0d1426;clip-rule:nonzero;display:inline;overflow:visible;visibility:visible;opacity:1;isolation:auto;mix-blend-mode:normal;color-interpolation:sRGB;color-interpolation-filters:linearRGB;solid-color:#0d1426;solid-opacity:1;fill:#b68760;fill-opacity:1;fill-rule:nonzero;stroke:none;stroke-width:2.70d14265;stroke-linecap:butt;stroke-linejoin:miter;stroke-miterlimit:4;stroke-dasharray:none;stroke-dashoffset:0;stroke-opacity:1;color-rendering:auto;image-rendering:auto;shape-rendering:auto;text-rendering:auto;enable-background:accumulate" />
      </g>
      <rect
         style="color:#0d1426;clip-rule:nonzero;display:inline;overflow:visible;visibility:visible;opacity:1;isolation:auto;mix-blend-mode:normal;color-interpolation:sRGB;color-interpolation-filters:linearRGB;solid-color:#0d1426;solid-opacity:1;fill:#a86a3e;fill-opacity:1;fill-rule:nonzero;stroke:none;stroke-width:2.70d14265;stroke-linecap:butt;stroke-linejoin:miter;stroke-miterlimit:4;stroke-dasharray:none;stroke-dashoffset:0;stroke-opacity:1;color-rendering:auto;image-rendering:auto;shape-rendering:auto;text-rendering:auto;enable-background:accumulate"
         id="rect4899"
         width="519.51801"
         height="937.66669"
         x="0"
         y="937.33331" />
      <rect
         style="color:#0d1426;clip-rule:nonzero;display:inline;overflow:visible;visibility:visible;opacity:1;isolation:auto;mix-blend-mode:normal;color-interpolation:sRGB;color-interpolation-filters:linearRGB;solid-color:#0d1426;solid-opacity:1;fill:#a86a3e;fill-opacity:1;fill-rule:nonzero;stroke:none;stroke-width:2.70d14265;stroke-linecap:butt;stroke-linejoin:miter;stroke-miterlimit:4;stroke-dasharray:none;stroke-dashoffset:0;stroke-opacity:1;color-rendering:auto;image-rendering:auto;shape-rendering:auto;text-rendering:auto;enable-background:accumulate"
         id="rect4899-7"
         width="523.7417"
         height="937.66669"
         x="2289.2581"
         y="-1875"
         transform="scale(1,-1)" />
    </g>
    <g
       inkscape:groupmode="layer"
       id="layer9"
       inkscape:label="JWM-Logo"
       style="display:inline">
      <g
         style="display:inline;opacity:1;enable-background:new"
         id="g3304"
         transform="matrix(0.6106963,0,0,0.6106963,337.89228,1659.6297)">
        <g
           id="g3407"
           transform="translate(321.003,-164.72523)">
          <g
             id="g3298"
             transform="translate(13.832485,17.290604)">
            <g
               id="g3354"
               transform="translate(-6.9162425,200.57103)">
              <g
                 id="layer3-3"
                 inkscape:label="Bottom-Bars"
                 style="display:inline;opacity:0.656;fill:#404249;fill-opacity:1"
                 transform="translate(-27.66497,-200.57103)">
                <g
                   style="fill:#404249;fill-opacity:1"
                   id="g3249">
                  <path
                     inkscape:connector-curvature="0"
                     id="path3207"
                     d="M 271.91923,275.625 313.81965,146.45614 275.09789,4.2837 234.64231,146.16717 Z"
                     style="display:inline;fill:#404249;fill-opacity:1;stroke:none" />
                  <path
                     inkscape:connector-curvature="0"
                     id="path3207-6"
                     d="M 422.78614,275.33603 464.68656,146.16717 425.9648,3.9947316 385.50922,145.8782 Z"
                     style="display:inline;fill:#404249;fill-opacity:1;stroke:none" />
                  <path
                     inkscape:connector-curvature="0"
                     id="path3247"
                     d="m 43.726939,174.68524 c 0,0 38.005658,60.07346 80.506611,6.53861 0,-35.55368 0,-176.5424091 0,-176.5424091 L 188.8023,241.70597 c 0,0 -99.222106,76.68635 -188.8023,-0.17924 32.942394,-49.70256 43.726939,-66.84149 43.726939,-66.84149 z"
                     style="fill:#404249;fill-opacity:1;stroke:none" />
                </g>
              </g>
              <g
                 id="layer2-5"
                 inkscape:label="Top-Bars"
                 style="display:inline;fill:#cfb396;fill-opacity:1"
                 transform="translate(-27.66497,-200.57103)">
                <g
                   id="g3302"
                   style="fill:#cfb396;fill-opacity:1">
                  <path
                     inkscape:connector-curvature="0"
                     id="path3226"
                     d="m 121.37291,0 74.78533,275.625 76.01131,0 L 195.74957,0 Z"
                     style="fill:#cfb396;fill-opacity:1;fill-rule:evenodd;stroke:none;stroke-width:1px;stroke-linecap:butt;stroke-linejoin:miter;stroke-opacity:1" />
                  <path
                     inkscape:connector-curvature="0"
                     id="path3226-6"
                     d="m 272.37385,0.28896837 74.78533,275.62500163 76.01131,0 L 346.75051,0.28896837 Z"
                     style="fill:#cfb396;fill-opacity:1;fill-rule:evenodd;stroke:none;stroke-width:1px;stroke-linecap:butt;stroke-linejoin:miter;stroke-opacity:1" />
                  <path
                     inkscape:connector-curvature="0"
                     id="path3226-6-7"
                     d="m 424.22322,0.28897 74.78533,275.625 76.01131,0 -76.41998,-275.625 z"
                     style="fill:#cfb396;fill-opacity:1;fill-rule:evenodd;stroke:none;stroke-width:1px;stroke-linecap:butt;stroke-linejoin:miter;stroke-opacity:1" />
                </g>
              </g>
            </g>
          </g>
        </g>
      </g>
    </g>
    <g
       inkscape:groupmode="layer"
       id="layer1"
       inkscape:label="Sun">
      <path
         style="opacity:0.37000002;fill:#a86a3e;fill-opacity:1;stroke:none"
         d="m 1414.9473,789.50391 a 88.698204,84.474472 0 0 0 -88.6973,84.47265 88.698204,84.474472 0 0 0 29.9922,63.22266 l 117.3672,0 a 88.698204,84.474472 0 0 0 30.0371,-63.22266 88.698204,84.474472 0 0 0 -88.6992,-84.47265 z"
         id="path3311"
         inkscape:connector-curvature="0" />
      <circle
         style="opacity:0.21100003;fill:#d9cdb3;fill-opacity:1;stroke:none"
         id="path3316"
         cx="1414.9474"
         cy="873.97748"
         r="253.42342" />
      <circle
         style="display:inline;opacity:0.19299999;fill:none;fill-opacity:1;stroke:#d9cdb3;stroke-width:13.67288589;stroke-miterlimit:4;stroke-dasharray:none;stroke-opacity:1"
         id="path3316-1"
         cx="1414.9474"
         cy="873.97754"
         r="386.12241" />
    </g>
    <g
       inkscape:groupmode="layer"
       id="layer10"
       inkscape:label="Plane"
       style="display:inline;opacity:1">
      <g
         id="g3552">
        <path
           inkscape:connector-curvature="0"
           id="path3546"
           d="m 1648.189,457.84706 c 0,0 20.1597,-29.86624 35.8395,-17.91974 11.1999,14.93312 -14.9331,27.62627 -26.8796,30.61289 9.7065,20.90637 26.8796,67.94569 26.8796,67.94569 0,0 -14.9331,12.69315 -32.1062,-2.23997 -17.1731,-24.63964 -24.6396,-38.82611 -24.6396,-38.82611 l -46.2927,29.11959 8.2132,25.3863 c 0,0 -10.4532,11.94649 -26.1329,-3.73328 -4.48,-13.43981 -5.2266,-14.93312 -5.2266,-14.93312 0,0 -23.1464,-12.69315 -8.9599,-31.35955 11.1998,2.98662 25.3863,13.43981 25.3863,13.43981 0,0 35.8395,-35.09283 39.5728,-35.09283 -11.9465,-14.18646 -30.6129,-37.3328 -30.6129,-37.3328 0,0 -7.4666,-25.3863 7.4665,-27.62627 14.9332,8.21322 57.4925,42.55939 57.4925,42.55939 z"
           style="fill:#404249;fill-opacity:1;stroke:none" />
        <path
           inkscape:connector-curvature="0"
           id="path3550"
           d="m 1518.4908,557.1982 c 0,0 -912.32427,368.13063 -984.12758,-557.1982 C 327.40076,3.8903927 327.40076,0 327.40076,0 l 0,937.33333 114.04054,0 0,-553.3078 c 0,0 80.25075,857.41587 1077.0495,173.17267 z"
           style="fill:#b6855e;fill-opacity:1;stroke:none" />
      </g>
    </g>
    <g
       inkscape:groupmode="layer"
       id="layer8"
       inkscape:label="Cloud">
      <path
         style="opacity:0.50700001;fill:#c59a7a;fill-opacity:1;stroke:none;stroke-width:17.20000076;stroke-miterlimit:4;stroke-dasharray:none;stroke-opacity:1"
         d="m 1944.0331,745.15327 a 40.797328,11.519535 0 0 0 -27.0504,2.91646 43.517151,5.7597673 0 0 0 -4.6803,-0.0364 43.517151,5.7597673 0 0 0 -43.5179,5.7601 43.517151,5.7597673 0 0 0 4.2745,2.47697 54.396437,14.137604 0 0 0 -10.2108,1.5945 23.571791,6.2833795 0 0 0 -23.0745,-5.03122 23.571791,6.2833795 0 0 0 -23.5726,6.28302 23.571791,6.2833795 0 0 0 23.5726,6.28389 23.571791,6.2833795 0 0 0 3.8233,-0.0861 54.396437,14.137604 0 0 0 -2.0106,3.75096 54.396437,14.137604 0 0 0 54.3961,14.13745 54.396437,14.137604 0 0 0 11.6748,-0.34715 81.594657,12.566759 0 0 0 62.6666,4.53671 81.594657,12.566759 0 0 0 67.0872,-5.41919 112.41931,6.8069945 0 0 0 25.3869,0.18287 112.41931,6.8069945 0 0 0 112.4195,-6.80767 112.41931,6.8069945 0 0 0 -112.4195,-6.8068 112.41931,6.8069945 0 0 0 -21.4411,0.1305 81.594657,12.566759 0 0 0 -5.009,-1.20476 54.396437,7.8542243 0 0 0 0.3655,-0.35069 94.287163,6.2833795 0 0 0 62.3498,-5.90569 94.287163,6.2833795 0 0 0 -45.8991,-5.38455 23.571791,6.239748 0 0 0 -23.0041,-4.91312 23.571791,6.239748 0 0 0 -22.0046,4.02265 94.287163,6.2833795 0 0 0 -3.3807,-0.008 94.287163,6.2833795 0 0 0 -20.3796,0.15446 40.797328,11.519535 0 0 0 -40.362,-9.92923 z"
         id="path3334"
         inkscape:connector-curvature="0" />
    </g>
  </g>
</svg>
