<?xml version="1.0" encoding="UTF-8" standalone="no"?>
<!-- Created with Inkscape (http://www.inkscape.org/) -->

<svg
   xmlns:dc="http://purl.org/dc/elements/1.1/"
   xmlns:cc="http://creativecommons.org/ns#"
   xmlns:rdf="http://www.w3.org/1999/02/22-rdf-syntax-ns#"
   xmlns:svg="http://www.w3.org/2000/svg"
   xmlns="http://www.w3.org/2000/svg"
   xmlns:sodipodi="http://sodipodi.sourceforge.net/DTD/sodipodi-0.dtd"
   xmlns:inkscape="http://www.inkscape.org/namespaces/inkscape"
   width="16"
   height="16"
   id="svg3017"
   version="1.1"
   inkscape:version="0.48.4 r9939"
   sodipodi:docname="user-offline-symbolic.svg">
  <defs
     id="defs3019" />
  <sodipodi:namedview
     id="base"
     pagecolor="#ffffff"
     bordercolor="#666666"
     borderopacity="1.0"
     inkscape:pageopacity="0.0"
     inkscape:pageshadow="2"
     inkscape:zoom="7.9195959"
     inkscape:cx="8.5117821"
     inkscape:cy="4.9332154"
     inkscape:document-units="px"
     inkscape:current-layer="layer1-5"
     showgrid="false"
     inkscape:window-width="1274"
     inkscape:window-height="757"
     inkscape:window-x="95"
     inkscape:window-y="55"
     inkscape:window-maximized="0"
     showguides="true"
     inkscape:guide-bbox="true" />
  <metadata
     id="metadata3022">
    <rdf:RDF>
      <cc:Work
         rdf:about="">
        <dc:format>image/svg+xml</dc:format>
        <dc:type
           rdf:resource="http://purl.org/dc/dcmitype/StillImage" />
        <dc:title />
      </cc:Work>
    </rdf:RDF>
  </metadata>
  <g
     inkscape:label="Layer 1"
     inkscape:groupmode="layer"
     id="layer1"
     transform="translate(0,-1036.3622)">
    <g
       transform="translate(3.9218905e-7,1020.3622)"
       id="layer1-5"
       inkscape:label="Livello 1">
      <path
         inkscape:connector-curvature="0"
         id="path2555"
         d="m 7.999999,17 c -3.8579306,0 -6.99999962,3.142068 -6.99999962,7 0,3.857932 3.14206862,7.000002 6.99999962,7 3.85793,0 7.000003,-3.142068 7.000001,-7 0,-3.857931 -3.142071,-7 -7.000001,-7 z m 0,0.875 c 3.384049,0 6.125,2.74095 6.125,6.125 3e-6,3.38405 -2.740951,6.125 -6.125,6.125 -3.3840495,2e-6 -6.1249997,-2.740949 -6.1249997,-6.125 0,-3.38405 2.7409498,-6.125 6.1249997,-6.125 z"
         style="font-size:medium;font-style:normal;font-variant:normal;font-weight:normal;font-stretch:normal;text-indent:0;text-align:start;text-decoration:none;line-height:normal;letter-spacing:normal;word-spacing:normal;text-transform:none;direction:ltr;block-progression:tb;writing-mode:lr-tb;text-anchor:start;baseline-shift:baseline;color:#000000;fill:#000000;fill-opacity:1;stroke:none;stroke-width:1.37500525000000007;marker:none;visibility:visible;display:inline;overflow:visible;enable-background:accumulate;font-family:Sans;-inkscape-font-specification:Sans;opacity:0.3" />
      <g
         id="g4577"
         transform="matrix(0.47230344,0,0,0.47230344,1.1710723,18.301019)"
         style="opacity:0.3">
        <path
           inkscape:connector-curvature="0"
           id="path4579"
           transform="matrix(2.4701829,0,0,2.4701829,-5.3025765,-7.6952248)"
           style="fill:#000000;fill-opacity:1;stroke:none"
           d="m 8.03125,3.75 c -0.884881,0 -1.625,0.661545 -1.625,1.5 0.00693,0.3102959 0.038135,0.6920082 0.21875,1.53125 0.046778,0.1424675 0.2478486,0.3838543 0.46875,0.625 0.069365,0.3634988 0.1288821,0.6750645 0.0625,1.0625 C 6.5480752,8.9738531 4.9976687,9.1958434 5,9.71875 l -0.21875,0.875 c 0,0.519829 1.4613438,1.4375 3.25,1.4375 1.7886558,0 3.21875,-0.823921 3.21875,-1.34375 L 11.03125,9.71875 C 11.028781,9.2712131 9.4757167,8.9916582 8.875,8.46875 8.8326579,8.1200446 8.8791614,7.7831682 8.9375,7.4375 9.1464653,7.1857422 9.3572627,6.9304482 9.40625,6.78125 9.6094924,5.9090273 9.6140984,5.5753195 9.625,5.25 9.625,4.411545 8.916131,3.75 8.03125,3.75 z" />
      </g>
      <path
         inkscape:connector-curvature="0"
         style="fill:none;stroke:#000000;stroke-width:0.7499969;stroke-linecap:round;stroke-linejoin:round;stroke-miterlimit:4;stroke-opacity:1;stroke-dasharray:none;stroke-dashoffset:0"
         id="path4591"
         d="m 29.741072,12.214285 c -3.103682,0 -5.625003,2.521319 -5.625003,5.625001 0,3.103682 2.521321,5.625004 5.625003,5.625002 3.10368,0 5.625003,-2.52132 5.625,-5.625002 0,-3.103682 -2.52132,-5.625001 -5.625,-5.625001 z" />
      <path
         id="path4595"
         style="fill:#000000;fill-opacity:1;stroke:none"
         d="m 29.772321,13.589286 c -0.884881,0 -1.625,0.661545 -1.625,1.5 0.0069,0.310296 0.03813,0.692008 0.21875,1.53125 0.04678,0.142467 0.247849,0.383854 0.46875,0.625 0.06936,0.363499 0.128882,0.675064 0.0625,1.0625 -0.608175,0.505103 -2.158581,0.727093 -2.15625,1.25 l -0.21875,0.875 c 0,0.519829 1.461344,1.4375 3.25,1.4375 1.788656,0 3.21875,-0.823921 3.21875,-1.34375 l -0.21875,-0.96875 c -0.0025,-0.447537 -1.555533,-0.727092 -2.15625,-1.25 -0.04234,-0.348705 0.0042,-0.685582 0.0625,-1.03125 0.208965,-0.251758 0.419763,-0.507052 0.46875,-0.65625 0.203242,-0.872223 0.207848,-1.20593 0.21875,-1.53125 0,-0.838455 -0.708869,-1.5 -1.59375,-1.5 z"
         inkscape:connector-curvature="0" />
    </g>
  </g>
</svg>
