<?xml version="1.0" encoding="UTF-8" standalone="no"?>
<!-- Created with Inkscape (http://www.inkscape.org/) -->

<svg
   xmlns:dc="http://purl.org/dc/elements/1.1/"
   xmlns:cc="http://creativecommons.org/ns#"
   xmlns:rdf="http://www.w3.org/1999/02/22-rdf-syntax-ns#"
   xmlns:svg="http://www.w3.org/2000/svg"
   xmlns="http://www.w3.org/2000/svg"
   xmlns:xlink="http://www.w3.org/1999/xlink"
   xmlns:sodipodi="http://sodipodi.sourceforge.net/DTD/sodipodi-0.dtd"
   xmlns:inkscape="http://www.inkscape.org/namespaces/inkscape"
   width="16"
   height="16"
   id="svg2"
   version="1.1"
   inkscape:version="0.48.4 r9939"
   sodipodi:docname="gmusicbrowser.svg">
  <defs
     id="defs4">
    <linearGradient
       id="linearGradient8106">
      <stop
         style="stop-color:#456b9d;stop-opacity:1;"
         offset="0"
         id="stop8108" />
      <stop
         style="stop-color:#456b9d;stop-opacity:0;"
         offset="1"
         id="stop8110" />
    </linearGradient>
    <linearGradient
       id="linearGradient8098">
      <stop
         style="stop-color:#456b9d;stop-opacity:1;"
         offset="0"
         id="stop8100" />
      <stop
         style="stop-color:#456b9d;stop-opacity:0;"
         offset="1"
         id="stop8102" />
    </linearGradient>
    <linearGradient
       id="linearGradient7925">
      <stop
         style="stop-color:#9fd0e9;stop-opacity:1;"
         offset="0"
         id="stop7927" />
      <stop
         style="stop-color:#4b6f98;stop-opacity:1;"
         offset="1"
         id="stop7929" />
    </linearGradient>
    <linearGradient
       id="linearGradient3866">
      <stop
         id="stop3868"
         offset="0"
         style="stop-color:#000000;stop-opacity:1;" />
      <stop
         id="stop3870"
         offset="1"
         style="stop-color:#000000;stop-opacity:0;" />
    </linearGradient>
    <radialGradient
       inkscape:collect="always"
       xlink:href="#linearGradient3866"
       id="radialGradient3860"
       cx="-1.1297575"
       cy="25.504171"
       fx="-1.1297575"
       fy="25.504171"
       r="18.063141"
       gradientTransform="matrix(1,0,0,0.16666667,0,21.253476)"
       gradientUnits="userSpaceOnUse" />
    <linearGradient
       id="linearGradient8098-2">
      <stop
         style="stop-color:#456b9d;stop-opacity:1;"
         offset="0"
         id="stop8100-7" />
      <stop
         style="stop-color:#456b9d;stop-opacity:0;"
         offset="1"
         id="stop8102-1" />
    </linearGradient>
    <linearGradient
       inkscape:collect="always"
       xlink:href="#linearGradient8106"
       id="linearGradient8610"
       gradientUnits="userSpaceOnUse"
       gradientTransform="matrix(0.32221789,0,0,0.32216599,-0.62763681,713.82297)"
       x1="38.320412"
       y1="1016.3228"
       x2="37.110966"
       y2="1020.6159" />
    <linearGradient
       inkscape:collect="always"
       xlink:href="#linearGradient8098-2"
       id="linearGradient8612"
       gradientUnits="userSpaceOnUse"
       x1="30.756041"
       y1="24.785156"
       x2="32.811714"
       y2="21.470184" />
    <linearGradient
       inkscape:collect="always"
       xlink:href="#linearGradient8098"
       id="linearGradient8614"
       gradientUnits="userSpaceOnUse"
       x1="30.756041"
       y1="24.785156"
       x2="32.811714"
       y2="21.470184" />
    <linearGradient
       inkscape:collect="always"
       xlink:href="#linearGradient7925"
       id="linearGradient9209"
       gradientUnits="userSpaceOnUse"
       x1="28.768591"
       y1="4.5451441"
       x2="28.768591"
       y2="35.701744" />
  </defs>
  <sodipodi:namedview
     id="base"
     pagecolor="#ffffff"
     bordercolor="#666666"
     borderopacity="1.0"
     inkscape:pageopacity="0.0"
     inkscape:pageshadow="2"
     inkscape:zoom="64"
     inkscape:cx="7.8981378"
     inkscape:cy="7.0550484"
     inkscape:document-units="px"
     inkscape:current-layer="layer1"
     showgrid="false"
     inkscape:object-paths="true"
     inkscape:window-width="1429"
     inkscape:window-height="785"
     inkscape:window-x="102"
     inkscape:window-y="486"
     inkscape:window-maximized="0"
     inkscape:snap-global="false"
     inkscape:snap-bbox="false"
     inkscape:snap-bbox-midpoints="true"
     inkscape:snap-nodes="true" />
  <metadata
     id="metadata7">
    <rdf:RDF>
      <cc:Work
         rdf:about="">
        <dc:format>image/svg+xml</dc:format>
        <dc:type
           rdf:resource="http://purl.org/dc/dcmitype/StillImage" />
        <dc:title />
      </cc:Work>
    </rdf:RDF>
  </metadata>
  <g
     inkscape:label="Layer 1"
     inkscape:groupmode="layer"
     id="layer1"
     transform="translate(0,-1036.3622)">
    <path
       sodipodi:type="arc"
       style="opacity:0.50684934;fill:url(#radialGradient3860);fill-opacity:1;stroke:none"
       id="path3852"
       sodipodi:cx="-1.1297575"
       sodipodi:cy="25.504171"
       sodipodi:rx="18.063141"
       sodipodi:ry="3.0105236"
       d="m 16.933383,25.504171 c 0,1.662667 -8.0871433,3.010524 -18.0631405,3.010524 -9.9759975,0 -18.0631405,-1.347857 -18.0631405,-3.010524 0,-1.662666 8.087143,-3.010523 18.0631405,-3.010523 9.9759972,0 18.0631405,1.347857 18.0631405,3.010523 z"
       transform="matrix(0.3769284,0,0,0.3769284,8.4258376,1041.6142)" />
    <path
       sodipodi:type="arc"
       style="fill:#f6f6f6;fill-opacity:1;stroke:#456b9d;stroke-width:1.73167896;stroke-miterlimit:4;stroke-opacity:1;stroke-dasharray:none"
       id="path2996"
       sodipodi:cx="26.263966"
       sodipodi:cy="25.524105"
       sodipodi:rx="22.223356"
       sodipodi:ry="22.223356"
       d="m 48.487322,25.524105 a 22.223356,22.223356 0 1 1 -44.4467126,0 22.223356,22.223356 0 1 1 44.4467126,0 z"
       transform="matrix(0.34648455,0,0,0.34648455,-1.1000087,1035.5184)" />
    <path
       sodipodi:type="arc"
       style="fill:url(#linearGradient9209);fill-opacity:1;stroke:none"
       id="path7923"
       sodipodi:cx="25.66041"
       sodipodi:cy="26.49015"
       sodipodi:rx="18.321102"
       sodipodi:ry="18.321102"
       d="m 43.981512,26.49015 a 18.321102,18.321102 0 1 1 -36.6422042,0 18.321102,18.321102 0 1 1 36.6422042,0 z"
       transform="matrix(0.34719038,0,0,0.34719038,-0.90899781,1035.165)" />
    <path
       style="fill:#f6f6f6;fill-opacity:1;stroke:#456b9d;stroke-width:0.31914896;stroke-opacity:1"
       d="m 13.996922,1046.2512 -0.683744,-0.6758 -0.886097,-0.7956 c 0,0 -0.01862,-0.4991 -0.100695,-0.7348 -0.09469,-0.2718 -0.246484,-0.5358 -0.432979,-0.7551 -0.174423,-0.2049 -0.384927,-0.3802 -0.624298,-0.5034 -0.243045,-0.125 -0.795475,-0.2215 -0.795475,-0.2215 l 0.432981,-0.302 c 0,0 -0.623721,0.094 -0.9263761,0.1712 -0.1367022,0.034 -0.2730872,0.076 -0.4027725,0.1308 -0.1203543,0.051 -0.2187489,0.1484 -0.3423565,0.1914 -0.1838976,0.064 -0.3926356,0.029 -0.5739505,0.1006 -0.1647223,0.065 -0.2943901,0.1859 -0.4430496,0.2818 -0.1342417,0.087 -0.2537481,0.2044 -0.4027721,0.2618 -0.3173943,0.1225 -0.6683493,0.1379 -1.0069312,0.1712 -0.6015698,0.059 -1.211152,-0.012 -1.8124754,0.05 -0.2227139,0.024 -0.4483665,0.063 -0.6645746,0.1208 -0.098691,0.026 -0.2097038,0.04 -0.2920098,0.1008 -0.4819898,0.3545 -0.8253948,0.8916 -1.0874854,1.4295 -0.062885,0.1291 -0.092724,0.2702 -0.1107622,0.4128 -0.019275,0.1521 0,0.463 0,0.463 0,0 0.1641422,-0.015 0.2416631,0 0.050711,0.011 0.097889,0.032 0.1409703,0.06 0.1223899,0.081 0.206073,0.2108 0.3121486,0.3122 0.098937,0.094 0.1672191,0.2486 0.3020794,0.2718 0.124582,0.022 0.2335117,-0.099 0.352426,-0.1409 0.1036236,-0.037 0.2066458,-0.073 0.3121482,-0.1008 0.089586,-0.024 0.1795384,-0.071 0.2718713,-0.06 0.121011,0.013 0.2209844,0.1018 0.3322872,0.1511 0.1870741,0.082 0.3805201,0.151 0.5638815,0.2415 0.1104966,0.054 0.2030083,0.1501 0.3222177,0.1812 0.1558508,0.04 0.3239543,-0.024 0.4833268,0 0.7909285,0.1171 1.5267889,0.476 2.2958027,0.6948 0.2004649,0.057 0.420831,0.058 0.6041586,0.1608 0.1506643,0.085 0.2591471,0.2316 0.3826337,0.3525 0.072626,0.072 0.2114542,0.2216 0.2114542,0.2216 l 1.1147556,1.1744 c 0,0 1.749707,-1.8379 2.256735,-2.5645 0.164501,-0.2273 0.655263,-0.8532 0.655263,-0.8532 z"
       inkscape:connector-curvature="0"
       sodipodi:nodetypes="cccsssccsssssssssssscccscsaaaaaaassccccc"
       id="path3159" />
    <path
       style="fill:#eeeeee;fill-opacity:1;stroke:url(#linearGradient8610);stroke-width:0.19148937;stroke-miterlimit:4;stroke-opacity:1;stroke-dasharray:none"
       d="m 10.090805,1044.3421 0.751982,-3.5938 c 0,0 0.05047,-0.086 0.09302,-0.1038 0.208796,-0.092 0.461965,-0.043 0.685128,0 0.218237,0.049 0.463497,0.1074 0.61223,0.2743 0.0254,0.029 0.03444,0.1092 0.03444,0.1092 l -0.742933,3.5505 c 0,0 -0.193124,0.1185 -0.301723,0.1426 -0.163655,0.036 -0.338536,0.03 -0.502857,0 -0.126565,-0.026 -0.248282,-0.081 -0.35839,-0.1484 -0.101448,-0.062 -0.270891,-0.233 -0.270891,-0.233 z"
       id="path3774"
       inkscape:connector-curvature="0"
       sodipodi:nodetypes="ccaaaccaaacc" />
    <path
       sodipodi:type="arc"
       style="fill:#eeeeee;fill-opacity:1;stroke:url(#linearGradient8614);stroke-width:0.60716742;stroke-miterlimit:4;stroke-opacity:1;stroke-dasharray:none"
       id="path3772"
       sodipodi:cx="33.660713"
       sodipodi:cy="21.973215"
       sodipodi:rx="5.5803571"
       sodipodi:ry="5.5803571"
       d="m 39.24107,21.973215 a 5.5803571,5.5803571 0 1 1 -11.160714,0 5.5803571,5.5803571 0 1 1 11.160714,0 z"
       transform="matrix(0.31540688,0,0,0.31535607,0.18011732,1037.0185)" />
    <path
       style="fill:#f6f6f6;fill-opacity:1;stroke:none"
       d="m 11.026799,1049.367 0.575374,0.6084 c 0,0 0.326704,0.038 0.482608,0 0.337113,-0.085 0.660075,-0.2625 0.918599,-0.4953 0.260844,-0.2347 0.401468,-0.5759 0.593906,-0.8693 0.14516,-0.2214 0.278262,-0.4506 0.422809,-0.6726 0.141677,-0.2172 0.40471,-0.3873 0.435541,-0.6451 0.0251,-0.2096 -0.220622,-0.5941 -0.220622,-0.5941 l -0.06284,-0.7924 c 0,0 -0.05467,0.1474 -0.0878,0.2186 -0.04452,0.096 -0.148742,0.2795 -0.148742,0.2795 l -0.497371,-0.4557 -1.053893,1.7295 -1.041648,1.4523 z"
       id="path3848"
       inkscape:connector-curvature="0"
       sodipodi:nodetypes="ccaaaaaccaccccc" />
    <path
       sodipodi:type="arc"
       style="fill:#eeeeee;fill-opacity:1;stroke:url(#linearGradient8612);stroke-width:1.50754142;stroke-miterlimit:4;stroke-opacity:1;stroke-dasharray:none"
       id="path3772-0"
       sodipodi:cx="33.660713"
       sodipodi:cy="21.973215"
       sodipodi:rx="5.5803571"
       sodipodi:ry="5.5803571"
       d="m 39.24107,21.973215 a 5.5803571,5.5803571 0 1 1 -11.160714,0 5.5803571,5.5803571 0 1 1 11.160714,0 z"
       transform="matrix(-0.12270271,0.03287279,-0.03287809,-0.12268293,15.649634,1045.5371)" />
  </g>
</svg>
