<?xml version="1.0" encoding="UTF-8" standalone="no"?>
<!-- Created with Inkscape (http://www.inkscape.org/) -->

<svg
   xmlns:dc="http://purl.org/dc/elements/1.1/"
   xmlns:cc="http://creativecommons.org/ns#"
   xmlns:rdf="http://www.w3.org/1999/02/22-rdf-syntax-ns#"
   xmlns:svg="http://www.w3.org/2000/svg"
   xmlns="http://www.w3.org/2000/svg"
   xmlns:sodipodi="http://sodipodi.sourceforge.net/DTD/sodipodi-0.dtd"
   xmlns:inkscape="http://www.inkscape.org/namespaces/inkscape"
   id="svg7384"
   height="16"
   width="16"
   version="1.1"
   inkscape:version="0.48.4 r9939"
   sodipodi:docname="document-open-recent-symbolic.svg">
  <defs
     id="defs10" />
  <sodipodi:namedview
     pagecolor="#ffffff"
     bordercolor="#666666"
     borderopacity="1"
     objecttolerance="10"
     gridtolerance="10"
     guidetolerance="10"
     inkscape:pageopacity="0"
     inkscape:pageshadow="2"
     inkscape:window-width="884"
     inkscape:window-height="480"
     id="namedview8"
     showgrid="false"
     inkscape:zoom="29.5"
     inkscape:cx="6.2669442"
     inkscape:cy="7.5905458"
     inkscape:window-x="347"
     inkscape:window-y="199"
     inkscape:window-maximized="0"
     inkscape:current-layer="layer12" />
  <metadata
     id="metadata90">
    <rdf:RDF>
      <cc:Work
         rdf:about="">
        <dc:format>image/svg+xml</dc:format>
        <dc:type
           rdf:resource="http://purl.org/dc/dcmitype/StillImage" />
        <dc:title>Gnome Symbolic Icon Theme</dc:title>
      </cc:Work>
    </rdf:RDF>
  </metadata>
  <title
     id="title9167">Gnome Symbolic Icon Theme</title>
  <g
     id="layer12"
     transform="matrix(0.86821788,0,0,0.86821788,-32.74035,-595.34258)">
    <path
       id="path3869"
       style="text-indent:0;text-transform:none;block-progression:tb;color:#000000;fill:#bebebe"
       d="m 47.5,688.01 c -4.1303,0 -7.4866,3.3563 -7.4866,7.4866 0,4.1303 3.3563,7.4866 7.4866,7.4866 4.1303,0 7.4866,-3.3563 7.4866,-7.4866 0,-4.1303 -3.3563,-7.4866 -7.4866,-7.4866 z m 0,1.9732 c 3.0494,0 5.5134,2.464 5.5134,5.5134 0,3.0494 -2.464,5.5134 -5.5134,5.5134 -3.0494,0 -5.5134,-2.464 -5.5134,-5.5134 0,-3.0494 2.464,-5.5134 5.5134,-5.5134 z"
       inkscape:connector-curvature="0" />
    <path
       id="path4639"
       style="text-indent:0;text-transform:none;block-progression:tb;color:#000000;fill:#bebebe"
       d="m 50.406,692 a 0.50005,0.50005 0 0 0 -0.25,0.15625 l -2.656,2.65 -1.656,-1.65 a 0.50005,0.50005 0 1 0 -0.6875,0.6875 l 2,2 a 0.50005,0.50005 0 0 0 0.6875,0 l 3,-3 a 0.50005,0.50005 0 0 0 -0.438,-0.85 z"
       inkscape:connector-curvature="0" />
  </g>
</svg>
