<?xml version="1.0" encoding="UTF-8" standalone="no"?>
<!-- Created with Inkscape (http://www.inkscape.org/) -->

<svg
   xmlns:dc="http://purl.org/dc/elements/1.1/"
   xmlns:cc="http://creativecommons.org/ns#"
   xmlns:rdf="http://www.w3.org/1999/02/22-rdf-syntax-ns#"
   xmlns:svg="http://www.w3.org/2000/svg"
   xmlns="http://www.w3.org/2000/svg"
   xmlns:sodipodi="http://sodipodi.sourceforge.net/DTD/sodipodi-0.dtd"
   xmlns:inkscape="http://www.inkscape.org/namespaces/inkscape"
   id="svg7384"
   height="16"
   width="16"
   version="1.1"
   inkscape:version="0.48.2 r9819"
   sodipodi:docname="folder-download-symbolic1.svg">
  <defs
     id="defs10" />
  <sodipodi:namedview
     pagecolor="#ffffff"
     bordercolor="#666666"
     borderopacity="1"
     objecttolerance="10"
     gridtolerance="10"
     guidetolerance="10"
     inkscape:pageopacity="0"
     inkscape:pageshadow="2"
     inkscape:window-width="1116"
     inkscape:window-height="609"
     id="namedview8"
     showgrid="false"
     inkscape:zoom="20.85965"
     inkscape:cx="2.9277069"
     inkscape:cy="11.301511"
     inkscape:window-x="322"
     inkscape:window-y="113"
     inkscape:window-maximized="0"
     inkscape:current-layer="g14154" />
  <metadata
     id="metadata90">
    <rdf:RDF>
      <cc:Work
         rdf:about="">
        <dc:format>image/svg+xml</dc:format>
        <dc:type
           rdf:resource="http://purl.org/dc/dcmitype/StillImage" />
        <dc:title>Gnome Symbolic Icon Theme</dc:title>
      </cc:Work>
    </rdf:RDF>
  </metadata>
  <title
     id="title9167">Gnome Symbolic Icon Theme</title>
  <g
     id="layer13"
     transform="matrix(0,-0.87497266,0.87497266,0,-153.3896,401.63133)">
    <g
       id="g14154"
       transform="matrix(1.0343423,0,0,1,226.18678,-820)">
      <path
         style="fill:#bebebe"
         d="M 5.90625 1 C 5.6532954 1.0000181 5.46875 1.2070812 5.46875 1.46875 L 5.46875 14.625 L 5.46875 14.875 L 4.96875 14.875 L 4.96875 9.53125 L 4.96875 1.0625 L 3.9375 1.0625 C 3.6512089 1.0625 3.4409999 1.2977447 3.4375 1.59375 L 3.4375 8.53125 L 2.34375 8.53125 C 2.0025107 8.53125 1.875 8.7375438 1.875 9 L 1.875 15 L 14.59375 15 L 14.59375 1.46875 C 14.59375 1.1985107 14.417517 0.9999819 14.15625 1 L 5.90625 1 z M 10.59375 4 L 11.4375 4.8125 C 11.654143 5.0301938 11.8125 5.3721001 11.8125 5.6875 L 11.8125 8.84375 L 9.375 8.84375 L 9.375 5.6875 C 9.374825 5.3705163 9.5127074 5.046982 9.75 4.8125 L 10.59375 4 z M 7 9.1875 L 8.09375 9.1875 C 8.4508263 9.1577248 8.8175077 9.3006321 9.0625 9.5625 L 10.625 11.09375 L 12.09375 9.53125 C 12.317918 9.3070762 12.635123 9.1854637 12.96875 9.1875 L 14.15625 9.21875 L 14.15625 10.40625 C 14.15555 10.713333 14.035531 10.995771 13.8125 11.21875 L 11.46875 13.65625 C 11.025226 14.114734 10.193611 14.114734 9.75 13.65625 L 7.375 11.21875 C 7.1462821 11.007572 6.9988625 10.728229 7 10.40625 L 7 9.1875 z "
         transform="matrix(0,1.1428929,-1.1049465,0,225.1042,995.30788)"
         id="path8982" />
    </g>
  </g>
</svg>
