<?xml version="1.0" encoding="UTF-8" standalone="no"?>
<!-- Created with Inkscape (http://www.inkscape.org/) -->

<svg
   xmlns:dc="http://purl.org/dc/elements/1.1/"
   xmlns:cc="http://creativecommons.org/ns#"
   xmlns:rdf="http://www.w3.org/1999/02/22-rdf-syntax-ns#"
   xmlns:svg="http://www.w3.org/2000/svg"
   xmlns="http://www.w3.org/2000/svg"
   xmlns:sodipodi="http://sodipodi.sourceforge.net/DTD/sodipodi-0.dtd"
   xmlns:inkscape="http://www.inkscape.org/namespaces/inkscape"
   id="svg7384"
   height="16"
   width="16"
   version="1.1"
   inkscape:version="0.48.4 r9939"
   sodipodi:docname="folder-music-symbolic.svg">
  <defs
     id="defs10" />
  <sodipodi:namedview
     pagecolor="#ffffff"
     bordercolor="#666666"
     borderopacity="1"
     objecttolerance="10"
     gridtolerance="10"
     guidetolerance="10"
     inkscape:pageopacity="0"
     inkscape:pageshadow="2"
     inkscape:window-width="1116"
     inkscape:window-height="609"
     id="namedview8"
     showgrid="false"
     inkscape:zoom="20.85965"
     inkscape:cx="3.6006775"
     inkscape:cy="10.959222"
     inkscape:window-x="105"
     inkscape:window-y="99"
     inkscape:window-maximized="0"
     inkscape:current-layer="layer13" />
  <metadata
     id="metadata90">
    <rdf:RDF>
      <cc:Work
         rdf:about="">
        <dc:format>image/svg+xml</dc:format>
        <dc:type
           rdf:resource="http://purl.org/dc/dcmitype/StillImage" />
        <dc:title>Gnome Symbolic Icon Theme</dc:title>
      </cc:Work>
    </rdf:RDF>
  </metadata>
  <title
     id="title9167">Gnome Symbolic Icon Theme</title>
  <g
     id="layer13"
     transform="matrix(0,-0.87497266,0.87497266,0,-153.3896,401.63133)">
    <g
       id="g14154"
       transform="matrix(1.0343423,0,0,1,226.18678,-820)" />
    <path
       style="fill:#bebebe;fill-opacity:1"
       d="M 5.90625 1 C 5.6532954 1.0000175 5.46875 1.2070807 5.46875 1.46875 L 5.46875 14.625 L 5.46875 14.875 L 4.96875 14.875 L 4.96875 9.53125 L 4.96875 1.0625 L 3.9375 1.0625 C 3.6512089 1.0625 3.4409999 1.2977467 3.4375 1.59375 L 3.4375 8.53125 L 2.34375 8.53125 C 2.0025107 8.53125 1.875 8.7375432 1.875 9 L 1.875 15 L 14.59375 15 L 14.59375 13.75 C 14.334177 13.861443 14.050168 13.9375 13.75 13.9375 C 12.528503 13.9375 11.53125 12.908979 11.53125 11.6875 C 11.53125 10.466126 12.528547 9.46875 13.75 9.46875 C 13.7612 9.46875 13.801038 9.4686363 13.8125 9.46875 L 13.8125 7 L 10.46875 7 L 10.46875 11.53125 C 10.474 11.590048 10.474 11.628614 10.46875 11.6875 C 10.46875 12.908979 9.4402118 13.9375 8.21875 13.9375 C 6.9972794 13.9375 6 12.908979 6 11.6875 C 6 10.466108 6.9972794 9.46875 8.21875 9.46875 L 8.21875 4.96875 L 8.21875 4 L 9.34375 4 L 14.59375 4 L 14.59375 1.46875 C 14.59375 1.1985059 14.417517 0.9999825 14.15625 1 L 5.90625 1 z "
       transform="matrix(0,1.1428929,-1.1428929,0,459.02158,175.30788)"
       id="path9382" />
  </g>
</svg>
