<?xml version="1.0" encoding="UTF-8" standalone="no"?>
<!-- Created with Inkscape (http://www.inkscape.org/) -->

<svg
   xmlns:dc="http://purl.org/dc/elements/1.1/"
   xmlns:cc="http://creativecommons.org/ns#"
   xmlns:rdf="http://www.w3.org/1999/02/22-rdf-syntax-ns#"
   xmlns:svg="http://www.w3.org/2000/svg"
   xmlns="http://www.w3.org/2000/svg"
   xmlns:sodipodi="http://sodipodi.sourceforge.net/DTD/sodipodi-0.dtd"
   xmlns:inkscape="http://www.inkscape.org/namespaces/inkscape"
   id="svg7384"
   height="16"
   width="16"
   version="1.1"
   inkscape:version="0.48.4 r9939"
   sodipodi:docname="folder-videos-symbolic.svg">
  <defs
     id="defs10" />
  <sodipodi:namedview
     pagecolor="#ffffff"
     bordercolor="#666666"
     borderopacity="1"
     objecttolerance="10"
     gridtolerance="10"
     guidetolerance="10"
     inkscape:pageopacity="0"
     inkscape:pageshadow="2"
     inkscape:window-width="1116"
     inkscape:window-height="609"
     id="namedview8"
     showgrid="false"
     inkscape:zoom="20.85965"
     inkscape:cx="15.452544"
     inkscape:cy="3.1243172"
     inkscape:window-x="178"
     inkscape:window-y="288"
     inkscape:window-maximized="0"
     inkscape:current-layer="svg7384" />
  <metadata
     id="metadata90">
    <rdf:RDF>
      <cc:Work
         rdf:about="">
        <dc:format>image/svg+xml</dc:format>
        <dc:type
           rdf:resource="http://purl.org/dc/dcmitype/StillImage" />
        <dc:title>Gnome Symbolic Icon Theme</dc:title>
      </cc:Work>
    </rdf:RDF>
  </metadata>
  <title
     id="title9167">Gnome Symbolic Icon Theme</title>
  <g
     id="layer13"
     transform="matrix(0,-0.87497266,0.87497266,0,-153.3896,401.63133)">
    <g
       id="g14154"
       transform="matrix(1.0343423,0,0,1,226.18678,-820)" />
    <path
       id="path4925"
       style="fill:#bebebe"
       d="m 446.3377,185.59391 -1.3894,0 0,1.1429 1.3894,0 z m 2.82539,0 -1.38939,0 0,1.1429 1.38939,0 z m 2.86841,2.28579 -4.25787,0 0,4.10756 4.25787,0 z m 0,-2.28579 -1.38939,0 0,1.1429 1.38939,0 z m 5.84719,-3.53582 c -2e-5,-0.2891 -0.23667,-0.50001 -0.53573,-0.50001 l -15.03619,0 -0.28572,0 0,-0.57145 6.10733,0 9.67888,0 0,-1.17861 c 0,-0.3272 -0.26887,-0.56745 -0.60717,-0.57145 l -7.92882,0 0,-1.25003 c 0,-0.39 -0.23577,-0.53574 -0.53573,-0.53574 l -6.85735,0 0,14.53617 4.46442,0 0,-4.10727 -3.89298,0 0,-1.14289 0.96432,0 0,-1.14289 -0.96432,0 0,-1.1429 10.85749,0 0,7.53595 4.03584,0 c 0.30886,0 0.53575,-0.20141 0.53573,-0.50001 l 0,-9.42887 z" />
  </g>
</svg>
