<?xml version="1.0" encoding="UTF-8" standalone="no"?>
<!-- Created with Inkscape (http://www.inkscape.org/) -->

<svg
   xmlns:dc="http://purl.org/dc/elements/1.1/"
   xmlns:cc="http://creativecommons.org/ns#"
   xmlns:rdf="http://www.w3.org/1999/02/22-rdf-syntax-ns#"
   xmlns:svg="http://www.w3.org/2000/svg"
   xmlns="http://www.w3.org/2000/svg"
   xmlns:sodipodi="http://sodipodi.sourceforge.net/DTD/sodipodi-0.dtd"
   xmlns:inkscape="http://www.inkscape.org/namespaces/inkscape"
   id="svg7384"
   height="16"
   width="16"
   version="1.1"
   inkscape:version="0.48.2 r9819"
   sodipodi:docname="folder-templates-symbolic1.svg">
  <defs
     id="defs10" />
  <sodipodi:namedview
     pagecolor="#ffffff"
     bordercolor="#666666"
     borderopacity="1"
     objecttolerance="10"
     gridtolerance="10"
     guidetolerance="10"
     inkscape:pageopacity="1"
     inkscape:pageshadow="2"
     inkscape:window-width="1116"
     inkscape:window-height="609"
     id="namedview8"
     showgrid="false"
     inkscape:zoom="32"
     inkscape:cx="11.485244"
     inkscape:cy="6.9726055"
     inkscape:window-x="322"
     inkscape:window-y="113"
     inkscape:window-maximized="0"
     inkscape:current-layer="layer13" />
  <metadata
     id="metadata90">
    <rdf:RDF>
      <cc:Work
         rdf:about="">
        <dc:format>image/svg+xml</dc:format>
        <dc:type
           rdf:resource="http://purl.org/dc/dcmitype/StillImage" />
        <dc:title>Gnome Symbolic Icon Theme</dc:title>
      </cc:Work>
    </rdf:RDF>
  </metadata>
  <title
     id="title9167">Gnome Symbolic Icon Theme</title>
  <g
     id="layer13"
     transform="matrix(0,-0.87497266,0.87497266,0,-153.3896,401.63133)">
    <g
       id="g14154"
       transform="matrix(1.0343423,0,0,1,226.18678,-820)" />
    <path
       id="rect6970-4"
       transform="matrix(0,1,-1,0,0,0)"
       style="fill:#bebebe;fill-opacity:1;stroke:none"
       d="m 184.45102,-445.30685 1.14289,0 0,1.14289 -1.14289,0 z m 2.28578,0 1.14289,0 0,1.14289 -1.14289,0 z m 1.1429,-1.14292 1.14289,0 0,1.14289 -1.14289,0 z m 0,-2.28576 1.14289,0 0,1.14289 -1.14289,0 z m 0,-2.2858 1.14289,0 0,1.14289 -1.14289,0 z m 0,-2.28577 1.14289,0 0,1.14289 -1.14289,0 z m -5.82161,-4.57158 c -0.2891,2e-5 -0.50001,0.23667 -0.50001,0.53573 l 0,15.03618 0,0.28573 -0.57145,0 0,-6.10734 0,-9.67887 -1.17861,0 c -0.3272,0 -0.56745,0.26886 -0.57145,0.60716 l 0,7.92882 -1.25003,0 c -0.39,0 -0.53574,0.23577 -0.53574,0.53573 l 0,6.85736 14.53617,0 0,-15.46477 c 0,-0.30886 -0.20141,-0.53575 -0.50001,-0.53573 l -9.42887,0 z m 5.82161,3.42868 2.28579,0 0,2.28578 0,2.28579 0,2.28578 0,2.28579 0,2.28578 -2.28579,0 -2.28578,0 -2.28579,0 0,-2.28578 c 0,0 1.94817,0.003 2.28579,0 l 2.28578,0 0,-2.28579 0,-2.28578 0,-2.28579 0,-2.28578 z" />
  </g>
</svg>
