<?xml version="1.0" encoding="UTF-8" standalone="no"?>
<!-- Created with Inkscape (http://www.inkscape.org/) -->

<svg
   xmlns:dc="http://purl.org/dc/elements/1.1/"
   xmlns:cc="http://creativecommons.org/ns#"
   xmlns:rdf="http://www.w3.org/1999/02/22-rdf-syntax-ns#"
   xmlns:svg="http://www.w3.org/2000/svg"
   xmlns="http://www.w3.org/2000/svg"
   xmlns:xlink="http://www.w3.org/1999/xlink"
   xmlns:sodipodi="http://sodipodi.sourceforge.net/DTD/sodipodi-0.dtd"
   xmlns:inkscape="http://www.inkscape.org/namespaces/inkscape"
   version="1.0"
   width="72"
   height="72"
   id="svg4486"
   sodipodi:version="0.32"
   inkscape:version="0.48.4 r9939"
   sodipodi:docname="audio-x-wav.svg"
   inkscape:output_extension="org.inkscape.output.svg.inkscape">
  <metadata
     id="metadata51">
    <rdf:RDF>
      <cc:Work
         rdf:about="">
        <dc:format>image/svg+xml</dc:format>
        <dc:type
           rdf:resource="http://purl.org/dc/dcmitype/StillImage" />
        <dc:title />
      </cc:Work>
    </rdf:RDF>
  </metadata>
  <sodipodi:namedview
     inkscape:window-height="781"
     inkscape:window-width="1438"
     inkscape:pageshadow="2"
     inkscape:pageopacity="0.0"
     guidetolerance="10.0"
     gridtolerance="10.0"
     objecttolerance="10.0"
     borderopacity="1.0"
     bordercolor="#666666"
     pagecolor="#ffffff"
     id="base"
     showgrid="false"
     inkscape:zoom="7.9999999"
     inkscape:cx="25.123626"
     inkscape:cy="35.837769"
     inkscape:window-x="30"
     inkscape:window-y="68"
     inkscape:current-layer="svg4486"
     inkscape:window-maximized="0" />
  <defs
     id="defs4488">
    <linearGradient
       inkscape:collect="always"
       xlink:href="#linearGradient3783"
       id="linearGradient3789"
       x1="7.2591696"
       y1="6.7927251"
       x2="7.2591696"
       y2="19.085949"
       gradientUnits="userSpaceOnUse"
       gradientTransform="matrix(1.0976756,0,0,1.0502174,-1.1551998,-0.75754239)" />
    <linearGradient
       id="linearGradient3783">
      <stop
         style="stop-color:#d7e866;stop-opacity:1;"
         offset="0"
         id="stop3785" />
      <stop
         style="stop-color:#94b62d;stop-opacity:1;"
         offset="1"
         id="stop3787" />
    </linearGradient>
    <radialGradient
       cx="14.270205"
       cy="36.985195"
       r="5.7384715"
       fx="14.270205"
       fy="36.985195"
       id="radialGradient3538-3-9"
       xlink:href="#linearGradient3791"
       gradientUnits="userSpaceOnUse"
       gradientTransform="matrix(0.67744776,-0.14923998,-0.10647048,0.72716988,-4.5237978,-13.444399)" />
    <linearGradient
       id="linearGradient3791">
      <stop
         id="stop3793"
         offset="0"
         style="stop-color:#ffffff;stop-opacity:1;" />
      <stop
         id="stop3795"
         offset="1"
         style="stop-color:#badf4a;stop-opacity:0.10416666;" />
    </linearGradient>
    <linearGradient
       id="linearGradient2372-7-3-2">
      <stop
         id="stop2374-5-9-1"
         style="stop-color:#ffffff;stop-opacity:1"
         offset="0" />
      <stop
         id="stop2376-3-7-7"
         style="stop-color:#ffffff;stop-opacity:0.37931034"
         offset="1" />
    </linearGradient>
    <linearGradient
       inkscape:collect="always"
       xlink:href="#linearGradient2372-7-3-2"
       id="linearGradient3976"
       gradientUnits="userSpaceOnUse"
       gradientTransform="matrix(0.23748834,0,0,0.12407777,6.4158579,-14.188467)"
       x1="28.739122"
       y1="144.11652"
       x2="26.256771"
       y2="125.39074" />
    <linearGradient
       id="linearGradient3791-2">
      <stop
         id="stop3793-3"
         offset="0"
         style="stop-color:#ffffff;stop-opacity:1;" />
      <stop
         id="stop3795-6"
         offset="1"
         style="stop-color:#badf4a;stop-opacity:0.10416666;" />
    </linearGradient>
    <radialGradient
       r="5.7384715"
       fy="36.985195"
       fx="14.270205"
       cy="36.985195"
       cx="14.270205"
       gradientTransform="matrix(0.67744776,-0.14923998,-0.10647048,0.72716988,3.5026507,-13.342876)"
       gradientUnits="userSpaceOnUse"
       id="radialGradient3183"
       xlink:href="#linearGradient3791-2"
       inkscape:collect="always" />
    <linearGradient
       inkscape:collect="always"
       xlink:href="#linearGradient2372-7-3-2"
       id="linearGradient3881"
       gradientUnits="userSpaceOnUse"
       gradientTransform="matrix(0.13863734,0,0,0.13519235,0.05265392,-15.717599)"
       x1="28.256302"
       y1="129.73555"
       x2="57.507824"
       y2="181.79546" />
    <filter
       color-interpolation-filters="sRGB"
       inkscape:collect="always"
       id="filter4889-7"
       x="-0.080549531"
       width="1.1610991"
       y="-0.24164858"
       height="1.4832972">
      <feGaussianBlur
         inkscape:collect="always"
         stdDeviation="2.0646957"
         id="feGaussianBlur4891-9" />
    </filter>
    <radialGradient
       inkscape:collect="always"
       xlink:href="#linearGradient4018"
       id="radialGradient4024"
       cx="35.355339"
       cy="109.96878"
       fx="35.355339"
       fy="109.96878"
       r="36.565598"
       gradientTransform="matrix(1,0,0,0.27141213,0,80.121919)"
       gradientUnits="userSpaceOnUse" />
    <linearGradient
       id="linearGradient4018">
      <stop
         style="stop-color:#000000;stop-opacity:0.88235295;"
         offset="0"
         id="stop4020" />
      <stop
         style="stop-color:#000000;stop-opacity:0;"
         offset="1"
         id="stop4022" />
    </linearGradient>
    <filter
       color-interpolation-filters="sRGB"
       inkscape:collect="always"
       id="filter4889"
       x="-0.080549531"
       width="1.1610991"
       y="-0.24164858"
       height="1.4832972">
      <feGaussianBlur
         inkscape:collect="always"
         stdDeviation="2.0646957"
         id="feGaussianBlur4891" />
    </filter>
    <radialGradient
       r="36.565598"
       fy="109.96878"
       fx="35.355339"
       cy="109.96878"
       cx="35.355339"
       gradientTransform="matrix(1,0,0,0.27141213,0,80.121919)"
       gradientUnits="userSpaceOnUse"
       id="radialGradient4957"
       xlink:href="#linearGradient4018"
       inkscape:collect="always" />
  </defs>
  <path
     sodipodi:type="arc"
     style="opacity:0.4;fill:url(#radialGradient4957);fill-opacity:1;stroke:none;filter:url(#filter4889-7)"
     id="path3102-2"
     sodipodi:cx="35.355339"
     sodipodi:cy="109.96878"
     sodipodi:rx="30.759146"
     sodipodi:ry="10.253049"
     d="m 66.114485,109.96878 a 30.759146,10.253049 0 1 1 -61.5182917,0 30.759146,10.253049 0 1 1 61.5182917,0 z"
     transform="matrix(0.44984452,0,0,0.54047923,37.161528,4.344378)" />
  <path
     sodipodi:type="arc"
     style="opacity:0.4;fill:url(#radialGradient4024);fill-opacity:1;stroke:none;filter:url(#filter4889)"
     id="path3102"
     sodipodi:cx="35.355339"
     sodipodi:cy="109.96878"
     sodipodi:rx="30.759146"
     sodipodi:ry="10.253049"
     d="m 66.114485,109.96878 a 30.759146,10.253049 0 1 1 -61.5182917,0 30.759146,10.253049 0 1 1 61.5182917,0 z"
     transform="matrix(0.44984452,0,0,0.54047923,3.1615284,4.344378)" />
  <g
     transform="matrix(3.959257,0,0,4.3547433,8.3768672,0.89793385)"
     id="layer1-8">
    <path
       inkscape:connector-curvature="0"
       d="M 12.9907,11.049673 12.588205,7.9462293"
       id="path2931-3"
       style="fill:none;stroke:none"
       sodipodi:nodetypes="cc" />
    <path
       inkscape:connector-curvature="0"
       d="m 3.567117,3.7485173 c 0,2.6590902 0,2.7687437 0,5.4278346 -1.5543193,0 -3.67990893,0.3065525 -3.83219177,2.6762531 -0.07235,1.125851 0.48733587,2.490836 2.30780667,2.736492 1.4212769,0.177049 3.5148517,-0.553686 3.5396376,-2.388048 -0.022112,-2.7299467 0.0062,-5.1990068 0,-7.9293699 0.3820013,0 5.5754445,0 6.0610105,0 0,2.0449276 0,2.859745 0,4.9046728 -1.246486,0 -3.3121953,0.3161727 -3.4234837,2.6986481 -0.060683,1.299105 0.9355147,2.670707 2.6291847,2.769801 1.459621,0.0854 3.371427,-0.805015 3.371427,-2.443332 -0.02905,-3.6402374 0.02155,-5.3979781 -0.0022,-9.0386023 0,-0.9266441 -0.501313,-1.6468035 -1.611616,-1.6468035 -2.159757,0 -5.3553497,0 -7.3280412,0 -1.4414163,0 -1.7115229,1.202453 -1.7115338,2.2324541 z"
       id="path4031-1"
       style="fill:url(#linearGradient3789);fill-opacity:1;stroke:#507f16;stroke-width:0.19266456;stroke-linecap:butt;stroke-linejoin:round;stroke-miterlimit:4;stroke-opacity:1;stroke-dasharray:none"
       sodipodi:nodetypes="ccscccccssccssc" />
    <path
       inkscape:connector-curvature="0"
       d="m 5.1516168,10.992755 c -2.275e-4,1.168399 0.1447466,3.173946 -2.7724738,3.47611 -1.3196556,-0.06096 -2.55918111,-0.609949 -2.55918111,-2.553318 0,-1.4675 1.06690306,-2.3106342 2.21516381,-2.5136177 2.2282011,-0.3938898 3.1162648,0.5825195 3.1164911,1.5908257 z"
       id="path2937-4"
       style="fill:url(#radialGradient3538-3-9);fill-opacity:1;stroke:none"
       sodipodi:nodetypes="ccssc" />
    <path
       d="m 3.6934033,9.3528812 c 0,0 0.00549,-3.9260548 0.00549,-5.8894644 0,-0.2641802 0.1460838,-0.9367427 0.4425032,-1.2619099 0.2510258,-0.2753712 0.6410655,-0.480395 1.0772436,-0.480395 0.1966284,0 5.3360889,-0.00848 5.3360889,-0.00848 0,0 2.603242,-0.053562 -4.9798335,0.6418275 C 5.2823645,2.4278969 4.8057964,2.5587798 4.5854235,2.8330592 4.3261126,3.1558014 4.3626179,3.5646896 4.3494107,4.0127489 4.3341748,5.345618 4.3174155,4.6480376 4.3141306,9.5408836 4.1763272,9.4757577 3.9272541,9.3956298 3.6934033,9.3528812 z"
       id="path2945-9"
       style="opacity:0.4;fill:url(#linearGradient3881);fill-opacity:1;fill-rule:evenodd;stroke:none"
       inkscape:connector-curvature="0"
       sodipodi:nodetypes="csssccaccc" />
    <path
       d="m 11.719641,9.3026748 -1.72e-4,-5.0309957 0.596529,0 c 0,0 2.54e-4,0.8691594 2.54e-4,5.3281394 0,0.03324 -0.249759,-0.2513059 -0.596611,-0.2971437 z"
       id="path2947-4"
       style="opacity:0.4;fill:url(#linearGradient3976);fill-opacity:1;fill-rule:evenodd;stroke:none"
       inkscape:connector-curvature="0"
       sodipodi:nodetypes="cccsc" />
    <path
       inkscape:connector-curvature="0"
       d="m 13.579519,11.135685 c -2.27e-4,1.168399 -0.340133,3.74603 -2.935432,3.369855 -1.351733,-0.195927 -2.3181664,-1.056147 -2.3181656,-2.613672 7e-7,-1.426968 0.848827,-2.2239835 2.2128616,-2.5218198 2.225336,-0.485901 3.04051,0.5973125 3.040736,1.7656368 z"
       id="path2937-4-0"
       style="fill:url(#radialGradient3183);fill-opacity:1;stroke:none"
       sodipodi:nodetypes="csssc" />
  </g>
</svg>
