<?xml version="1.0" encoding="UTF-8" standalone="no"?>
<!-- Created with Inkscape (http://www.inkscape.org/) -->

<svg
   xmlns:dc="http://purl.org/dc/elements/1.1/"
   xmlns:cc="http://creativecommons.org/ns#"
   xmlns:rdf="http://www.w3.org/1999/02/22-rdf-syntax-ns#"
   xmlns:svg="http://www.w3.org/2000/svg"
   xmlns="http://www.w3.org/2000/svg"
   xmlns:sodipodi="http://sodipodi.sourceforge.net/DTD/sodipodi-0.dtd"
   xmlns:inkscape="http://www.inkscape.org/namespaces/inkscape"
   id="svg7384"
   height="16"
   width="16"
   version="1.1"
   inkscape:version="0.48.2 r9819"
   sodipodi:docname="folder-videos-symbolic.svg">
  <defs
     id="defs10" />
  <sodipodi:namedview
     pagecolor="#ffffff"
     bordercolor="#666666"
     borderopacity="1"
     objecttolerance="10"
     gridtolerance="10"
     guidetolerance="10"
     inkscape:pageopacity="0"
     inkscape:pageshadow="2"
     inkscape:window-width="1116"
     inkscape:window-height="609"
     id="namedview8"
     showgrid="false"
     inkscape:zoom="20.85965"
     inkscape:cx="15.452544"
     inkscape:cy="3.1243172"
     inkscape:window-x="458"
     inkscape:window-y="85"
     inkscape:window-maximized="0"
     inkscape:current-layer="layer13" />
  <metadata
     id="metadata90">
    <rdf:RDF>
      <cc:Work
         rdf:about="">
        <dc:format>image/svg+xml</dc:format>
        <dc:type
           rdf:resource="http://purl.org/dc/dcmitype/StillImage" />
        <dc:title>Gnome Symbolic Icon Theme</dc:title>
      </cc:Work>
    </rdf:RDF>
  </metadata>
  <title
     id="title9167">Gnome Symbolic Icon Theme</title>
  <g
     id="layer13"
     transform="matrix(0,-0.87497266,0.87497266,0,-153.3896,401.63133)">
    <g
       id="g14154"
       transform="matrix(1.0343423,0,0,1,226.18678,-820)" />
    <path
       id="path4710"
       transform="matrix(0,1.1428929,-1.1428929,0,459.02158,175.30788)"
       style="fill:#bebebe"
       d="m 11.96875,7.84375 c -1.538298,0 -2.78125,1.2429518 -2.78125,2.78125 0,1.538421 1.242952,2.8125 2.78125,2.8125 1.538289,0 2.8125,-1.274079 2.8125,-2.8125 0,-1.5382982 -1.274211,-2.78125 -2.8125,-2.78125 z m 0,1.125 c 0.926832,0 1.6875,0.7294965 1.6875,1.65625 0,0.926885 -0.760703,1.6875 -1.6875,1.6875 -0.92685,0 -1.65625,-0.760676 -1.65625,-1.6875 0,-0.9267535 0.7294,-1.65625 1.65625,-1.65625 z M 5.90625,1 c -0.2529546,1.75e-5 -0.4375,0.2070807 -0.4375,0.46875 l 0,13.15625 0,0.25 -0.5,0 0,-5.34375 0,-8.46875 -1.03125,0 c -0.2862911,0 -0.4965001,0.2352467 -0.5,0.53125 l 0,6.9375 -1.09375,0 C 2.0025107,8.53125 1.875,8.7375432 1.875,9 l 0,6 12.71875,0 0,-0.5 -7.5625,0 L 6.96875,7.96875 9.1875,8.03125 10.375,6 l 3.34375,0 0.875,1.59375 0,-6.125 C 14.59375,1.1985059 14.417517,0.9999825 14.15625,1 l -8.25,0 z" />
  </g>
</svg>
