<?xml version="1.0" encoding="UTF-8" standalone="no"?>
<!-- Created with Inkscape (http://www.inkscape.org/) -->

<svg
   xmlns:dc="http://purl.org/dc/elements/1.1/"
   xmlns:cc="http://creativecommons.org/ns#"
   xmlns:rdf="http://www.w3.org/1999/02/22-rdf-syntax-ns#"
   xmlns:svg="http://www.w3.org/2000/svg"
   xmlns="http://www.w3.org/2000/svg"
   xmlns:sodipodi="http://sodipodi.sourceforge.net/DTD/sodipodi-0.dtd"
   xmlns:inkscape="http://www.inkscape.org/namespaces/inkscape"
   id="svg7384"
   height="16"
   width="16"
   version="1.1"
   inkscape:version="0.48.2 r9819"
   sodipodi:docname="folder-symbolic.svg">
  <defs
     id="defs10" />
  <sodipodi:namedview
     pagecolor="#ffffff"
     bordercolor="#666666"
     borderopacity="1"
     objecttolerance="10"
     gridtolerance="10"
     guidetolerance="10"
     inkscape:pageopacity="0"
     inkscape:pageshadow="2"
     inkscape:window-width="1116"
     inkscape:window-height="609"
     id="namedview8"
     showgrid="false"
     inkscape:zoom="20.85965"
     inkscape:cx="9.7479475"
     inkscape:cy="5.3451605"
     inkscape:window-x="322"
     inkscape:window-y="113"
     inkscape:window-maximized="0"
     inkscape:current-layer="layer13" />
  <metadata
     id="metadata90">
    <rdf:RDF>
      <cc:Work
         rdf:about="">
        <dc:format>image/svg+xml</dc:format>
        <dc:type
           rdf:resource="http://purl.org/dc/dcmitype/StillImage" />
        <dc:title>Gnome Symbolic Icon Theme</dc:title>
      </cc:Work>
    </rdf:RDF>
  </metadata>
  <title
     id="title9167">Gnome Symbolic Icon Theme</title>
  <g
     id="layer13"
     transform="matrix(0,-0.87497266,0.87497266,0,-153.3896,401.63133)">
    <g
       id="g14154"
       transform="matrix(1.0343423,0,0,1,226.18678,-820)">
      <path
         id="rect3845"
         style="fill:#bebebe"
         d="m 208.53,997.45724 0,14.54316 14.938,0 c 0.2986,0 0.53127,-0.2326 0.53125,-0.5312 l -5.6e-4,-9.3949 c -2e-5,-0.2891 -0.24212,-0.5313 -0.53125,-0.5313 l -14.51837,0 -0.29372,5e-4 0,-0.5431 5.91747,0 9.36959,2e-4 0,-1.17732 c 0,-0.3272 -0.26668,-0.5898 -0.59375,-0.5938 l -7.67283,-1.7e-4 0,-1.24042 c 0,-0.39 -0.24,-0.53215 -0.53,-0.53215 z"
         inkscape:connector-curvature="0"
         sodipodi:nodetypes="ccsssscccccsscscc" />
    </g>
  </g>
</svg>
