<?xml version="1.0" encoding="UTF-8" standalone="no"?>
<!-- Created with Inkscape (http://www.inkscape.org/) -->

<svg
   xmlns:dc="http://purl.org/dc/elements/1.1/"
   xmlns:cc="http://creativecommons.org/ns#"
   xmlns:rdf="http://www.w3.org/1999/02/22-rdf-syntax-ns#"
   xmlns:svg="http://www.w3.org/2000/svg"
   xmlns="http://www.w3.org/2000/svg"
   xmlns:sodipodi="http://sodipodi.sourceforge.net/DTD/sodipodi-0.dtd"
   xmlns:inkscape="http://www.inkscape.org/namespaces/inkscape"
   id="svg7384"
   height="16"
   width="16"
   version="1.1"
   inkscape:version="0.48.4 r9939"
   sodipodi:docname="user-desktop-symbolic.svg">
  <defs
     id="defs10" />
  <sodipodi:namedview
     pagecolor="#ffffff"
     bordercolor="#666666"
     borderopacity="1"
     objecttolerance="10"
     gridtolerance="10"
     guidetolerance="10"
     inkscape:pageopacity="0"
     inkscape:pageshadow="2"
     inkscape:window-width="1116"
     inkscape:window-height="609"
     id="namedview8"
     showgrid="false"
     inkscape:zoom="41.7193"
     inkscape:cx="8.7544467"
     inkscape:cy="10.388277"
     inkscape:window-x="79"
     inkscape:window-y="92"
     inkscape:window-maximized="0"
     inkscape:current-layer="layer13"
     inkscape:snap-bbox="true"
     inkscape:bbox-nodes="true"
     inkscape:bbox-paths="true"
     inkscape:snap-bbox-midpoints="true"
     inkscape:snap-bbox-edge-midpoints="true"
     inkscape:object-nodes="true"
     inkscape:snap-smooth-nodes="true"
     inkscape:snap-object-midpoints="true" />
  <metadata
     id="metadata90">
    <rdf:RDF>
      <cc:Work
         rdf:about="">
        <dc:format>image/svg+xml</dc:format>
        <dc:type
           rdf:resource="http://purl.org/dc/dcmitype/StillImage" />
        <dc:title>Gnome Symbolic Icon Theme</dc:title>
      </cc:Work>
    </rdf:RDF>
  </metadata>
  <title
     id="title9167">Gnome Symbolic Icon Theme</title>
  <g
     id="layer13"
     transform="matrix(0,-0.87497266,0.87497266,0,-153.3896,401.63133)">
    <g
       id="g14154"
       transform="matrix(1.0343423,0,0,1,226.18678,-820)">
      <path
         style="fill:#bebebe"
         d="m 5.90625,1 c -0.2529546,1.81e-5 -0.4375,0.2070812 -0.4375,0.46875 l 0,13.15625 0,0.25 -0.5,0 0,-5.34375 0,-8.46875 -1.03125,0 c -0.2862911,0 -0.4965001,0.2352447 -0.5,0.53125 l 0,6.9375 -1.09375,0 C 2.0025107,8.53125 1.875,8.7375438 1.875,9 l 0,6 12.71875,0 0,-1 L 8,14 l 0,-1 3,0 0,-2 -4,0 0,-7.0000009 7.59375,0 0,-2.5312491 C 14.59375,1.1985107 14.417517,0.9999819 14.15625,1 z M 8,4.9999991 8,10 l 6.59375,0 2.47e-4,-5.0000009 z m 1,1 5.299997,0 L 14.299997,9 9,9 z m 3.999997,4.9999999 0,2 1.593753,10e-7 0,-2 z"
         transform="matrix(0,1.1428929,-1.1049465,0,225.1042,995.30788)"
         id="rect3845"
         inkscape:connector-curvature="0"
         sodipodi:nodetypes="cscccccsccssccccccccccsccccccccccccccccc" />
    </g>
    <rect
       style="fill:none;stroke:#ffffff;stroke-width:1.14289284;stroke-miterlimit:4;stroke-opacity:1;stroke-dasharray:none"
       id="rect2987-4"
       width="9.1431427"
       height="5.7144642"
       x="202.50485"
       y="-460.5593"
       transform="matrix(0,1,-1,0,0,0)" />
    <path
       style="fill:none;stroke:#ffffff;stroke-width:1.14289296px;stroke-linecap:square;stroke-linejoin:miter;stroke-opacity:1"
       d="m 454.22826,207.07643 -2.32326,0"
       id="path3757-6"
       inkscape:connector-curvature="0" />
    <path
       style="fill:none;stroke:#ffffff;stroke-width:1.14289284px;stroke-linecap:square;stroke-linejoin:miter;stroke-opacity:1"
       d="m 451.92374,203.64775 0,5.71395"
       id="path3759-2"
       inkscape:connector-curvature="0" />
  </g>
</svg>
