<?xml version="1.0" encoding="UTF-8" standalone="no"?>
<!-- Created with Inkscape (http://www.inkscape.org/) -->

<svg
   xmlns:dc="http://purl.org/dc/elements/1.1/"
   xmlns:cc="http://creativecommons.org/ns#"
   xmlns:rdf="http://www.w3.org/1999/02/22-rdf-syntax-ns#"
   xmlns:svg="http://www.w3.org/2000/svg"
   xmlns="http://www.w3.org/2000/svg"
   xmlns:xlink="http://www.w3.org/1999/xlink"
   xmlns:sodipodi="http://sodipodi.sourceforge.net/DTD/sodipodi-0.dtd"
   xmlns:inkscape="http://www.inkscape.org/namespaces/inkscape"
   version="1.0"
   width="48"
   height="48"
   id="svg4569"
   inkscape:version="0.48.4 r9939"
   sodipodi:docname="unison-gtk.svg">
  <metadata
     id="metadata54">
    <rdf:RDF>
      <cc:Work
         rdf:about="">
        <dc:format>image/svg+xml</dc:format>
        <dc:type
           rdf:resource="http://purl.org/dc/dcmitype/StillImage" />
        <dc:title />
      </cc:Work>
    </rdf:RDF>
  </metadata>
  <sodipodi:namedview
     pagecolor="#ffffff"
     bordercolor="#666666"
     borderopacity="1"
     objecttolerance="10"
     gridtolerance="10"
     guidetolerance="10"
     inkscape:pageopacity="0"
     inkscape:pageshadow="2"
     inkscape:window-width="1181"
     inkscape:window-height="726"
     id="namedview52"
     showgrid="false"
     inkscape:zoom="2"
     inkscape:cx="59.955799"
     inkscape:cy="60.266957"
     inkscape:window-x="54"
     inkscape:window-y="141"
     inkscape:window-maximized="0"
     inkscape:current-layer="text4753" />
  <defs
     id="defs4571">
    <linearGradient
       inkscape:collect="always"
       id="linearGradient4815">
      <stop
         style="stop-color:#ffa21e;stop-opacity:1"
         offset="0"
         id="stop4817" />
      <stop
         style="stop-color:#fff05a;stop-opacity:1"
         offset="1"
         id="stop4819" />
    </linearGradient>
    <linearGradient
       inkscape:collect="always"
       xlink:href="#linearGradient4815"
       id="linearGradient4821"
       x1="34.748573"
       y1="62.27462"
       x2="34.748573"
       y2="4.4944682"
       gradientUnits="userSpaceOnUse"
       gradientTransform="matrix(0.6677086,0,0,0.67566187,2.5174036,17.897748)" />
  </defs>
  <g
     transform="matrix(1.0048535,0,0,0.99516994,0,-16)"
     style="font-size:66.25158691px;font-style:normal;font-variant:normal;font-weight:500;font-stretch:normal;line-height:125%;letter-spacing:0px;word-spacing:0px;fill:#000000;fill-opacity:1;stroke:none;font-family:ori1Uni;-inkscape-font-specification:ori1Uni Medium"
     id="text4753">
    <path
       style="font-weight:bold;fill:url(#linearGradient4821);fill-opacity:1;stroke:#8d8d8d;stroke-width:1;stroke-opacity:1;font-family:Arial;-inkscape-font-specification:Arial Bold"
       d="m 14.494427,20.600395 c -0.360449,0.01441 -0.718272,0.209199 -0.897234,0.485632 l -2.462175,3.75837 -2.4830416,3.779483 c -0.3855089,0.575207 0.1815982,1.441146 0.9389654,1.435782 l 1.6066742,0 0,14.315586 c -4e-6,3.567288 0.206346,6.259695 0.625976,8.086828 0.289394,1.232601 0.903727,2.416141 1.815333,3.547224 0.911596,1.116589 2.130509,2.034323 3.693263,2.744877 1.577206,0.696054 3.88879,1.034606 6.927477,1.034607 2.51774,-10e-7 4.571806,-0.3121 6.134573,-0.95015 1.562722,-0.65255 2.788032,-1.530603 3.714129,-2.618189 0.940514,-1.087581 1.593224,-2.431114 1.940528,-4.011743 0.347249,-1.580614 0.521619,-4.279633 0.521647,-8.107942 l 0,-14.041098 1.606674,0 c 0.757367,0.0053 1.324474,-0.860575 0.938965,-1.435782 l -2.483041,-3.779483 -2.462175,-3.75837 c -0.195216,-0.301573 -0.587496,-0.501666 -0.980697,-0.485632 -0.36045,0.01441 -0.718272,0.209199 -0.897234,0.485632 l -2.462175,3.75837 -2.483042,3.779483 c -0.385508,0.575207 0.181598,1.441146 0.938966,1.435782 l 1.857064,0 0,14.927904 c -2.2e-5,2.523207 -0.08317,4.338835 -0.271256,5.426409 -0.188131,1.087592 -0.764087,2.01194 -1.690138,2.765991 -0.926091,0.739563 -2.287394,1.097956 -4.110581,1.097951 -1.794279,5e-6 -3.214824,-0.378228 -4.256642,-1.161294 -1.027372,-0.797555 -1.686477,-1.862056 -1.961394,-3.167165 -0.159179,-0.812054 -0.229534,-2.580113 -0.229525,-5.320837 l 0,-14.568959 1.857064,0 c 0.757368,0.0053 1.324475,-0.860575 0.938966,-1.435782 l -2.483042,-3.779483 -2.462175,-3.75837 c -0.195215,-0.301573 -0.587496,-0.501666 -0.980697,-0.485632 z"
       id="path4803"
       inkscape:connector-curvature="0" />
  </g>
</svg>
