<?xml version="1.0" encoding="UTF-8" standalone="no"?>
<!-- Created with Inkscape (http://www.inkscape.org/) -->

<svg
   xmlns:dc="http://purl.org/dc/elements/1.1/"
   xmlns:cc="http://creativecommons.org/ns#"
   xmlns:rdf="http://www.w3.org/1999/02/22-rdf-syntax-ns#"
   xmlns:svg="http://www.w3.org/2000/svg"
   xmlns="http://www.w3.org/2000/svg"
   xmlns:xlink="http://www.w3.org/1999/xlink"
   xmlns:sodipodi="http://sodipodi.sourceforge.net/DTD/sodipodi-0.dtd"
   xmlns:inkscape="http://www.inkscape.org/namespaces/inkscape"
   version="1.0"
   width="24"
   height="24"
   id="svg3721"
   inkscape:version="0.48.4 r9939"
   sodipodi:docname="kcalc.svg">
  <metadata
     id="metadata57">
    <rdf:RDF>
      <cc:Work
         rdf:about="">
        <dc:format>image/svg+xml</dc:format>
        <dc:type
           rdf:resource="http://purl.org/dc/dcmitype/StillImage" />
        <dc:title />
      </cc:Work>
    </rdf:RDF>
  </metadata>
  <sodipodi:namedview
     pagecolor="#ffffff"
     bordercolor="#666666"
     borderopacity="1"
     objecttolerance="10"
     gridtolerance="10"
     guidetolerance="10"
     inkscape:pageopacity="0"
     inkscape:pageshadow="2"
     inkscape:window-width="1263"
     inkscape:window-height="803"
     id="namedview55"
     showgrid="false"
     inkscape:zoom="25.938317"
     inkscape:cx="-0.30272613"
     inkscape:cy="11.054071"
     inkscape:window-x="25"
     inkscape:window-y="0"
     inkscape:window-maximized="0"
     inkscape:current-layer="layer1" />
  <defs
     id="defs3723">
    <linearGradient
       inkscape:collect="always"
       id="linearGradient3889">
      <stop
         style="stop-color:#0fde21;stop-opacity:1;"
         offset="0"
         id="stop3891" />
      <stop
         style="stop-color:#0fde21;stop-opacity:0;"
         offset="1"
         id="stop3893" />
    </linearGradient>
    <linearGradient
       inkscape:collect="always"
       id="linearGradient3881">
      <stop
         style="stop-color:#626262;stop-opacity:1;"
         offset="0"
         id="stop3883" />
      <stop
         style="stop-color:#626262;stop-opacity:0;"
         offset="1"
         id="stop3885" />
    </linearGradient>
    <linearGradient
       id="linearGradient3848">
      <stop
         style="stop-color:#ff6c6c;stop-opacity:0;"
         offset="0"
         id="stop3850" />
      <stop
         id="stop3879"
         offset="0.27694091"
         style="stop-color:#ff7a7a;stop-opacity:1;" />
      <stop
         id="stop3877"
         offset="0.73185498"
         style="stop-color:#ff7373;stop-opacity:1;" />
      <stop
         style="stop-color:#ff6c6c;stop-opacity:0;"
         offset="1"
         id="stop3852" />
    </linearGradient>
    <linearGradient
       inkscape:collect="always"
       id="linearGradient3818">
      <stop
         style="stop-color:#a46ffb;stop-opacity:1;"
         offset="0"
         id="stop3820" />
      <stop
         style="stop-color:#a46ffb;stop-opacity:0;"
         offset="1"
         id="stop3822" />
    </linearGradient>
    <linearGradient
       inkscape:collect="always"
       id="linearGradient3805">
      <stop
         style="stop-color:#a46ffb;stop-opacity:1;"
         offset="0"
         id="stop3807" />
      <stop
         style="stop-color:#a46ffb;stop-opacity:0;"
         offset="1"
         id="stop3809" />
    </linearGradient>
    <linearGradient
       id="linearGradient3817">
      <stop
         style="stop-color:#484848;stop-opacity:1;"
         offset="0"
         id="stop3819" />
      <stop
         style="stop-color:#434343;stop-opacity:1;"
         offset="1"
         id="stop3821" />
    </linearGradient>
    <linearGradient
       id="linearGradient2556">
      <stop
         id="stop2558"
         style="stop-color:#f5f5f5;stop-opacity:1;"
         offset="0" />
      <stop
         offset="0.5"
         style="stop-color:#d7d7d7;stop-opacity:1;"
         id="stop3815" />
      <stop
         id="stop2564"
         style="stop-color:#828282;stop-opacity:1;"
         offset="1" />
    </linearGradient>
    <linearGradient
       x1="22.505953"
       y1="7.5892501"
       x2="22.505953"
       y2="62.539955"
       id="linearGradient3527"
       xlink:href="#linearGradient2556"
       gradientUnits="userSpaceOnUse"
       gradientTransform="matrix(0.53878743,0,0,0.53422458,-2.1990401,-2.8443733)" />
    <linearGradient
       inkscape:collect="always"
       xlink:href="#linearGradient3817"
       id="linearGradient3823"
       x1="12.02167"
       y1="21.005844"
       x2="12.02167"
       y2="1.7039149"
       gradientUnits="userSpaceOnUse"
       gradientTransform="matrix(1.0024237,0,0,1.011313,0.00110834,-0.07339893)" />
    <linearGradient
       inkscape:collect="always"
       xlink:href="#linearGradient3805"
       id="linearGradient3812"
       x1="8.5044107"
       y1="12.186817"
       x2="8.5044107"
       y2="9.5035038"
       gradientUnits="userSpaceOnUse" />
    <linearGradient
       inkscape:collect="always"
       xlink:href="#linearGradient3818"
       id="linearGradient3824"
       x1="8.570857"
       y1="15.945212"
       x2="8.570857"
       y2="18.720003"
       gradientUnits="userSpaceOnUse" />
    <linearGradient
       inkscape:collect="always"
       xlink:href="#linearGradient3848"
       id="linearGradient3840"
       x1="14.246271"
       y1="18.632824"
       x2="14.246271"
       y2="9.5258675"
       gradientUnits="userSpaceOnUse" />
    <linearGradient
       inkscape:collect="always"
       xlink:href="#linearGradient3881"
       id="linearGradient3887"
       x1="17.72191"
       y1="12.023978"
       x2="17.72191"
       y2="9.7544746"
       gradientUnits="userSpaceOnUse" />
    <linearGradient
       inkscape:collect="always"
       xlink:href="#linearGradient3889"
       id="linearGradient3895"
       x1="17.702984"
       y1="16.144165"
       x2="17.702984"
       y2="18.518414"
       gradientUnits="userSpaceOnUse" />
  </defs>
  <g
     id="layer1"
     transform="matrix(1.2631577,0,0,1,-3.1578943,0)">
    <rect
       width="17.240511"
       height="19.477484"
       rx="2.0404723"
       ry="2.193012"
       x="3.4589126"
       y="1.4511851"
       id="rect2157"
       style="fill:url(#linearGradient3527);fill-opacity:1;fill-rule:nonzero;stroke:url(#linearGradient3823);stroke-width:0.19798487;stroke-linecap:round;stroke-linejoin:miter;stroke-miterlimit:6;stroke-opacity:1;stroke-dasharray:none;stroke-dashoffset:1.4;marker:none;visibility:visible;display:inline;overflow:visible" />
    <rect
       width="14.09388"
       height="4.052793"
       rx="0.64826697"
       ry="0.93050474"
       x="4.9530616"
       y="3.1486034"
       id="rect2662"
       style="fill:#ffffff;fill-opacity:1;fill-rule:nonzero;stroke:#3a3a3a;stroke-width:0.17546628;stroke-miterlimit:4;stroke-opacity:1;stroke-dasharray:none;marker:none;visibility:visible;display:inline;overflow:visible" />
    <path
       d="m 10.503688,9.7992908 1.140781,0 c 0.241113,0 0.435222,0.2824612 0.435222,0.6333212 l 0,1.088219 c 0,0.35086 -0.194109,0.633321 -0.435222,0.633321 l -1.140781,0 c -0.241143,0 -0.435252,-0.282461 -0.435252,-0.633321 l 0,-1.088219 c 0,-0.35086 0.194109,-0.6333212 0.435222,-0.6333212 z m -2.5362267,0 1.1357239,0 c 0.2425132,0 0.4377497,0.2823222 0.4377497,0.6330092 l 0,1.088843 c 0,0.350686 -0.1952365,0.633008 -0.4377497,0.633008 l -1.1357239,0 c -0.2425131,0 -0.4377497,-0.282322 -0.4377497,-0.633008 l 0,-1.088843 c 0,-0.350687 0.1952366,-0.6330092 0.4377497,-0.6330092 z m -2.556432,0 1.1688819,0 c 0.2333283,0 0.4211704,0.2793252 0.4211704,0.6262902 l 0,1.10228 c 0,0.346965 -0.1878421,0.62629 -0.4211704,0.62629 l -1.1688819,0 c -0.2333285,0 -0.4211707,-0.279325 -0.4211707,-0.62629 l 0,-1.10228 c 0,-0.346965 0.1878422,-0.6262902 0.4211707,-0.6262902 z"
       id="rect4008-6-8"
       style="fill:url(#linearGradient3812);fill-opacity:1;fill-rule:nonzero;stroke:#ffffff;stroke-width:0;stroke-miterlimit:5.14285706999999981;stroke-opacity:1;stroke-dasharray:none;marker:none;visibility:visible;display:inline;overflow:visible;enable-background:accumulate"
       inkscape:connector-curvature="0"
       sodipodi:nodetypes="csssssssscssssssssssssssssss" />
    <path
       d="m 10.567844,12.984041 1.154293,0 c 0.243967,0 0.440375,0.266514 0.440375,0.597566 l 0,1.026783 c 0,0.331052 -0.196408,0.597566 -0.440375,0.597566 l -1.154293,0 c -0.243997,0 -0.440405,-0.266514 -0.440405,-0.597566 l 0,-1.026783 c 0,-0.331052 0.196408,-0.597566 0.440376,-0.597566 z m -2.5663126,0 1.1491738,0 c 0.2453851,0 0.4429337,0.266383 0.4429337,0.597271 l 0,1.027371 c 0,0.330889 -0.1975486,0.597272 -0.4429337,0.597272 l -1.1491738,0 c -0.2453852,0 -0.4429338,-0.266383 -0.4429338,-0.597272 l 0,-1.027371 c 0,-0.330888 0.1975486,-0.597271 0.4429338,-0.597271 z m -2.5867068,0 1.1827244,0 c 0.2360916,0 0.4261583,0.263556 0.4261583,0.590931 l 0,1.040051 c 0,0.327377 -0.1900667,0.590932 -0.4261583,0.590932 l -1.1827244,0 c -0.2360918,0 -0.4261585,-0.263555 -0.4261585,-0.590932 l 0,-1.040051 c 0,-0.327375 0.1900667,-0.590931 0.4261585,-0.590931 z"
       id="rect4008-6-8-0"
       style="fill:#a46ffb;fill-opacity:0.7323232;fill-rule:nonzero;stroke:#ffffff;stroke-width:0;stroke-miterlimit:5.14285707;stroke-opacity:1;stroke-dasharray:none;marker:none;visibility:visible;display:inline;overflow:visible;enable-background:accumulate"
       inkscape:connector-curvature="0"
       sodipodi:nodetypes="csssssssscssssssssssssssssss" />
    <path
       d="m 10.571419,16.005789 1.154815,0 c 0.244078,0 0.440575,0.277443 0.440575,0.622071 l 0,1.06889 c 0,0.344628 -0.196497,0.622071 -0.440575,0.622071 l -1.154815,0 c -0.244109,0 -0.440606,-0.277443 -0.440606,-0.622071 l 0,-1.06889 c 0,-0.344628 0.196497,-0.622071 0.440576,-0.622071 z m -2.5674778,0 1.1496947,0 c 0.2454964,0 0.4431344,0.277307 0.4431344,0.621765 l 0,1.069501 c 0,0.344458 -0.197638,0.621766 -0.4431344,0.621766 l -1.1496947,0 c -0.2454963,0 -0.4431346,-0.277308 -0.4431346,-0.621766 l 0,-1.069501 c 0,-0.344458 0.1976383,-0.621765 0.4431346,-0.621765 z m -2.5878791,0 1.1832605,0 c 0.2361985,0 0.4263514,0.274363 0.4263514,0.615164 l 0,1.082702 c 0,0.340801 -0.1901529,0.615166 -0.4263514,0.615166 l -1.1832605,0 c -0.2361987,0 -0.4263515,-0.274365 -0.4263515,-0.615166 l 0,-1.082702 c 0,-0.340801 0.1901528,-0.615164 0.4263515,-0.615164 z"
       id="rect4008-6-8-00"
       style="fill:url(#linearGradient3824);fill-opacity:1;fill-rule:nonzero;stroke:#ffffff;stroke-width:0;stroke-miterlimit:5.14285706999999981;stroke-opacity:1;stroke-dasharray:none;marker:none;visibility:visible;display:inline;overflow:visible;enable-background:accumulate"
       inkscape:connector-curvature="0"
       sodipodi:nodetypes="csssssssscssssssssssssssssss" />
    <path
       d="m 13.790458,16.08818 1.148188,0 c 0.242586,0 0.437878,0.268886 0.437878,0.602887 l 0,1.025201 c 0,0.333999 -0.195292,0.602889 -0.437878,0.602889 l -1.148188,0 c -0.242585,0 -0.437878,-0.26889 -0.437878,-0.602889 l 0,-1.025201 c 0,-0.334001 0.195293,-0.602887 0.437878,-0.602887 z m 9.7e-5,-3.125858 1.147996,0 c 0.242635,0 0.437973,0.267603 0.437973,0.600005 l 0,1.030967 c 0,0.332403 -0.195338,0.600005 -0.437973,0.600005 l -1.147996,0 c -0.242639,0 -0.437975,-0.267602 -0.437975,-0.600005 l 0,-1.030967 c 0,-0.332402 0.195336,-0.600005 0.437975,-0.600005 z m 0,-3.1491161 1.147998,0 c 0.242638,0 0.437974,0.2676031 0.437974,0.6000061 l 0,1.030971 c 0,0.332401 -0.195336,0.600003 -0.437974,0.600003 l -1.147998,0 c -0.242639,0 -0.437975,-0.267602 -0.437975,-0.600003 l 0,-1.030971 c 0,-0.332403 0.195336,-0.6000061 0.437975,-0.6000061 z"
       id="rect4008"
       style="fill:url(#linearGradient3840);fill-opacity:1;fill-rule:nonzero;stroke:none;stroke-width:0;stroke-miterlimit:5.14285706999999981;stroke-opacity:1;stroke-dasharray:none;marker:none;visibility:visible;display:inline;overflow:visible;enable-background:accumulate"
       inkscape:connector-curvature="0"
       sodipodi:nodetypes="sssssssssssssssssssssssssss" />
    <path
       d="m 16.972129,9.8104575 1.367792,0 c 0.19439,0 0.350884,0.2729395 0.350884,0.6119745 l 0,1.022203 c 0,0.339037 -0.156494,0.611978 -0.350884,0.611978 l -1.367792,0 c -0.194389,0 -0.350884,-0.272941 -0.350884,-0.611978 l 0,-1.022203 c 0,-0.339035 0.156495,-0.6119745 0.350884,-0.6119745 z"
       id="rect4008-6"
       style="fill:url(#linearGradient3887);fill-opacity:1;fill-rule:nonzero;stroke:#ffffff;stroke-width:0;stroke-miterlimit:5.14285706999999981;stroke-opacity:1;stroke-dasharray:none;marker:none;visibility:visible;display:inline;overflow:visible;enable-background:accumulate"
       inkscape:connector-curvature="0"
       sodipodi:nodetypes="sssssssss" />
    <path
       d="m 17.070155,12.991232 1.197178,0 c 0.238978,0 0.431368,0.250434 0.431368,0.561512 l 0,0.98827 c 0,0.311077 -0.19239,0.561514 -0.431368,0.561514 l -1.197178,0 c -0.238977,0 -0.431367,-0.250437 -0.431367,-0.561514 l 0,-0.98827 c 0,-0.311078 0.19239,-0.561512 0.431367,-0.561512 z"
       id="rect4008-9"
       style="fill:#6472ff;fill-opacity:0.67171715;fill-rule:nonzero;stroke:#ffffff;stroke-width:0;stroke-miterlimit:5.14285707;stroke-opacity:1;stroke-dasharray:none;marker:none;visibility:visible;display:inline;overflow:visible;enable-background:accumulate"
       inkscape:connector-curvature="0"
       sodipodi:nodetypes="sssssssss" />
    <path
       d="m 17.057958,16.06089 1.241726,0 c 0.228511,0 0.412475,0.259043 0.412475,0.580814 l 0,1.022243 c 0,0.321771 -0.183964,0.580814 -0.412475,0.580814 l -1.241726,0 c -0.228513,0 -0.412476,-0.259043 -0.412476,-0.580814 l 0,-1.022243 c 0,-0.321771 0.183963,-0.580814 0.412476,-0.580814 z"
       id="rect4008-7"
       style="fill:url(#linearGradient3895);fill-opacity:1;fill-rule:nonzero;stroke:#ffffff;stroke-width:0;stroke-miterlimit:5.14285706999999981;stroke-opacity:1;stroke-dasharray:none;marker:none;visibility:visible;display:inline;overflow:visible;enable-background:accumulate"
       inkscape:connector-curvature="0"
       sodipodi:nodetypes="sssssssss" />
  </g>
</svg>
