<?xml version="1.0" encoding="UTF-8" standalone="no"?>
<!-- Created with Inkscape (http://www.inkscape.org/) -->

<svg
   xmlns:dc="http://purl.org/dc/elements/1.1/"
   xmlns:cc="http://creativecommons.org/ns#"
   xmlns:rdf="http://www.w3.org/1999/02/22-rdf-syntax-ns#"
   xmlns:svg="http://www.w3.org/2000/svg"
   xmlns="http://www.w3.org/2000/svg"
   xmlns:xlink="http://www.w3.org/1999/xlink"
   xmlns:sodipodi="http://sodipodi.sourceforge.net/DTD/sodipodi-0.dtd"
   xmlns:inkscape="http://www.inkscape.org/namespaces/inkscape"
   version="1.1"
   width="24"
   height="24"
   id="svg2868"
   inkscape:version="0.48.4 r9939"
   sodipodi:docname="edit-cut.svg">
  <metadata
     id="metadata18">
    <rdf:RDF>
      <cc:Work
         rdf:about="">
        <dc:format>image/svg+xml</dc:format>
        <dc:type
           rdf:resource="http://purl.org/dc/dcmitype/StillImage" />
        <dc:title />
      </cc:Work>
    </rdf:RDF>
  </metadata>
  <sodipodi:namedview
     pagecolor="#ffffff"
     bordercolor="#666666"
     borderopacity="1"
     objecttolerance="10"
     gridtolerance="10"
     guidetolerance="10"
     inkscape:pageopacity="0"
     inkscape:pageshadow="2"
     inkscape:window-width="1140"
     inkscape:window-height="689"
     id="namedview16"
     showgrid="false"
     inkscape:zoom="12.860505"
     inkscape:cx="1.8120781"
     inkscape:cy="10.978024"
     inkscape:window-x="8"
     inkscape:window-y="0"
     inkscape:window-maximized="0"
     inkscape:current-layer="layer1" />
  <defs
     id="defs2870">
    <linearGradient
       x1="292.97168"
       y1="4.7592773"
       x2="296.93979"
       y2="10.711433"
       id="XMLID_897_"
       gradientUnits="userSpaceOnUse">
      <stop
         id="stop45093"
         style="stop-color:#e8e8e5;stop-opacity:1"
         offset="0" />
      <stop
         id="stop45095"
         style="stop-color:#f0f0f0;stop-opacity:1"
         offset="1" />
    </linearGradient>
    <linearGradient
       inkscape:collect="always"
       xlink:href="#XMLID_897_"
       id="linearGradient3995"
       gradientUnits="userSpaceOnUse"
       gradientTransform="matrix(1.1451394,-0.14248265,0.19138715,1.4250005,-332.2483,37.513844)"
       x1="295.10086"
       y1="7.7640672"
       x2="296.93979"
       y2="10.711433" />
    <linearGradient
       x1="292.97168"
       y1="4.7592773"
       x2="296.93979"
       y2="10.711433"
       id="XMLID_897_-8"
       gradientUnits="userSpaceOnUse">
      <stop
         id="stop45093-0"
         style="stop-color:#e8e8e5;stop-opacity:1"
         offset="0" />
      <stop
         id="stop45095-7"
         style="stop-color:#f0f0f0;stop-opacity:1"
         offset="1" />
    </linearGradient>
    <linearGradient
       y2="10.711433"
       x2="296.93979"
       y1="7.7640672"
       x1="295.10086"
       gradientTransform="matrix(-1.147926,-0.11794664,-0.16085155,1.4287695,349.09812,30.336466)"
       gradientUnits="userSpaceOnUse"
       id="linearGradient3853"
       xlink:href="#XMLID_897_-8"
       inkscape:collect="always" />
  </defs>
  <g
     id="layer1"
     transform="matrix(1.5057702,0,0,1.5057702,-0.06970002,-0.05502237)">
    <path
       d="m 12.159293,0.50866248 0.165072,0.0929516 0.20952,2.54319712 C 11.253966,6.6941391 10.119695,7.7226739 8.1865523,9.7732154 7.1047373,11.182908 6.876687,11.495156 5.4541277,10.622559 7.1913163,7.8132907 10.398921,3.293943 12.159293,0.50866248 z"
       id="path12632-7"
       style="fill:url(#linearGradient3853);stroke:#aaaaaa;stroke-width:0.53128958000000004;stroke-linecap:round;stroke-linejoin:round;stroke-miterlimit:4;stroke-opacity:1;stroke-dasharray:none"
       inkscape:connector-curvature="0"
       sodipodi:nodetypes="cccccc" />
    <path
       d="M 3.9751268,0.48314305 3.8120811,0.57960558 3.6570277,3.1267036 C 5.0126007,6.6478314 6.1686206,7.6518601 8.1451994,9.6605672 9.2569312,11.046786 9.4916105,11.354083 10.895172,10.451248 9.0982696,7.6797954 5.7946948,3.2301178 3.9751268,0.48314305 z"
       id="path12632"
       style="fill:url(#linearGradient3995);stroke:#aaaaaa;stroke-width:0.53128958000000004;stroke-linecap:round;stroke-linejoin:round;stroke-miterlimit:4;stroke-opacity:1;stroke-dasharray:none"
       inkscape:connector-curvature="0"
       sodipodi:nodetypes="cccccc" />
    <path
       style="fill:#d1524c;fill-opacity:1;stroke:#a50505;stroke-width:0.31057581;stroke-linecap:round;stroke-linejoin:round;stroke-miterlimit:4;stroke-opacity:1;stroke-dasharray:none;stroke-dashoffset:0"
       d="m 5.9678866,9.412187 c -1.0031268,-0.037798 -2.21203,0.65777 -3.0475253,1.863455 -1.1139936,1.60758 -1.1500375,3.512896 -0.077644,4.251006 1.0723935,0.738111 2.8458481,0.03529 3.9598417,-1.57229 C 7.9165529,12.346778 7.9525964,10.441462 6.880203,9.7033518 6.6121047,9.5188245 6.3022621,9.4247865 5.9678866,9.412187 z m -1.0287824,2.271086 c 0.1656804,-0.03159 0.320118,-0.0093 0.4464527,0.07764 0.3368926,0.231877 0.3305503,0.834337 -0.019411,1.339358 -0.3499612,0.505025 -0.9054107,0.736567 -1.2423033,0.50469 C 3.78695,13.373083 3.7932924,12.770623 4.1432536,12.265602 4.3619794,11.949964 4.6629702,11.73592 4.9391042,11.683273 z"
       id="path2993"
       inkscape:connector-curvature="0" />
    <path
       inkscape:connector-curvature="0"
       style="fill:#d1524c;fill-opacity:1;stroke:#a50505;stroke-width:0.3103511;stroke-linecap:round;stroke-linejoin:round;stroke-miterlimit:4;stroke-opacity:1;stroke-dasharray:none;stroke-dashoffset:0"
       d="m 10.793283,9.4169351 c 1.002402,-0.037769 2.210431,0.6572939 3.045321,1.8621069 1.113188,1.606417 1.149206,3.510355 0.07758,4.247931 -1.071618,0.737576 -2.843789,0.03526 -3.9569772,-1.571153 C 8.8460273,12.349403 8.8100099,10.445466 9.8816266,9.7078893 10.14953,9.5234955 10.459149,9.4295255 10.793282,9.4169351 z m 1.028039,2.2694429 c -0.165561,-0.03156 -0.319887,-0.0093 -0.44613,0.07758 -0.336649,0.231709 -0.330312,0.833733 0.01939,1.338389 0.349709,0.504656 0.904756,0.73603 1.241405,0.50432 0.336653,-0.231705 0.330315,-0.833729 -0.01939,-1.338385 -0.218567,-0.315409 -0.51934,-0.529299 -0.795274,-0.581908 z"
       id="path2993-8" />
  </g>
</svg>
