<?xml version="1.0" encoding="UTF-8" standalone="no"?>
<!-- Created with Inkscape (http://www.inkscape.org/) -->

<svg
   xmlns:dc="http://purl.org/dc/elements/1.1/"
   xmlns:cc="http://creativecommons.org/ns#"
   xmlns:rdf="http://www.w3.org/1999/02/22-rdf-syntax-ns#"
   xmlns:svg="http://www.w3.org/2000/svg"
   xmlns="http://www.w3.org/2000/svg"
   xmlns:xlink="http://www.w3.org/1999/xlink"
   xmlns:sodipodi="http://sodipodi.sourceforge.net/DTD/sodipodi-0.dtd"
   xmlns:inkscape="http://www.inkscape.org/namespaces/inkscape"
   width="24"
   height="24"
   id="svg2"
   version="1.1"
   inkscape:version="0.48.4 r9939"
   sodipodi:docname="view-fullscreen.svg">
  <defs
     id="defs4">
    <linearGradient
       id="linearGradient3675">
      <stop
         style="stop-color:#d7e866;stop-opacity:1;"
         offset="0"
         id="stop3677" />
      <stop
         style="stop-color:#8cab2a;stop-opacity:1;"
         offset="1"
         id="stop3679" />
    </linearGradient>
    <linearGradient
       id="linearGradient3606">
      <stop
         style="stop-color:#c8c8c8;stop-opacity:1;"
         offset="0"
         id="stop3608" />
      <stop
         style="stop-color:#787878;stop-opacity:1;"
         offset="1"
         id="stop3610" />
    </linearGradient>
    <linearGradient
       id="linearGradient3596">
      <stop
         style="stop-color:#ffffff;stop-opacity:1;"
         offset="0"
         id="stop3598" />
      <stop
         style="stop-color:#c8c8c8;stop-opacity:1;"
         offset="1"
         id="stop3600" />
    </linearGradient>
    <linearGradient
       inkscape:collect="always"
       xlink:href="#linearGradient3596"
       id="linearGradient3834"
       gradientUnits="userSpaceOnUse"
       gradientTransform="translate(0,1002.6747)"
       x1="18.793785"
       y1="15.026335"
       x2="24"
       y2="51.500954" />
    <linearGradient
       inkscape:collect="always"
       xlink:href="#linearGradient3606"
       id="linearGradient3836"
       gradientUnits="userSpaceOnUse"
       gradientTransform="translate(0,1002.6747)"
       x1="28.663462"
       y1="12.1875"
       x2="28.663462"
       y2="5.9759502" />
    <linearGradient
       inkscape:collect="always"
       xlink:href="#linearGradient3675"
       id="linearGradient3891"
       gradientUnits="userSpaceOnUse"
       x1="21.542574"
       y1="-4.6617665"
       x2="21.542574"
       y2="12.916146" />
    <linearGradient
       id="linearGradient3675-9">
      <stop
         style="stop-color:#d7e866;stop-opacity:1;"
         offset="0"
         id="stop3677-2" />
      <stop
         style="stop-color:#8cab2a;stop-opacity:1;"
         offset="1"
         id="stop3679-9" />
    </linearGradient>
    <linearGradient
       y2="12.916146"
       x2="21.542574"
       y1="-4.6617665"
       x1="21.542574"
       gradientUnits="userSpaceOnUse"
       id="linearGradient3908"
       xlink:href="#linearGradient3675-9"
       inkscape:collect="always" />
    <linearGradient
       id="linearGradient3675-2">
      <stop
         style="stop-color:#d7e866;stop-opacity:1;"
         offset="0"
         id="stop3677-0" />
      <stop
         style="stop-color:#8cab2a;stop-opacity:1;"
         offset="1"
         id="stop3679-0" />
    </linearGradient>
    <linearGradient
       y2="12.916146"
       x2="21.542574"
       y1="-4.6617665"
       x1="21.542574"
       gradientUnits="userSpaceOnUse"
       id="linearGradient3942"
       xlink:href="#linearGradient3675-2"
       inkscape:collect="always" />
  </defs>
  <sodipodi:namedview
     id="base"
     pagecolor="#ffffff"
     bordercolor="#666666"
     borderopacity="1.0"
     inkscape:pageopacity="0.0"
     inkscape:pageshadow="2"
     inkscape:zoom="15.839192"
     inkscape:cx="3.0543766"
     inkscape:cy="12.01772"
     inkscape:document-units="px"
     inkscape:current-layer="g3682"
     showgrid="false"
     inkscape:window-width="1251"
     inkscape:window-height="719"
     inkscape:window-x="83"
     inkscape:window-y="119"
     inkscape:window-maximized="0" />
  <metadata
     id="metadata7">
    <rdf:RDF>
      <cc:Work
         rdf:about="">
        <dc:format>image/svg+xml</dc:format>
        <dc:type
           rdf:resource="http://purl.org/dc/dcmitype/StillImage" />
        <dc:title />
      </cc:Work>
    </rdf:RDF>
  </metadata>
  <g
     inkscape:label="Livello 1"
     inkscape:groupmode="layer"
     id="layer1"
     transform="translate(0,-1028.3622)">
    <g
       id="g3682"
       transform="translate(1e-7,-0.18945)">
      <g
         transform="matrix(0.34497956,0,0,0.34497956,3.7204901,684.7822)"
         id="g2885">
        <path
           id="path3594"
           d="M 5.5909091,1008.3622 C 3.3245455,1008.3622 1.5,1010.1919 1.5,1012.4648 l 0,2.0512 0,25.6411 0,6.1538 c 0,1.1364 0.9122727,2.0513 2.0454545,2.0513 l 40.9090905,0 c 1.133182,0 2.045455,-0.9149 2.045455,-2.0513 l 0,-6.1538 0,-25.6411 0,-2.0512 c 0,-2.2729 -1.824545,-4.1026 -4.090909,-4.1026 l -36.8181819,0 z"
           style="fill:#646464;fill-opacity:0.58823529;fill-rule:nonzero;stroke:none"
           inkscape:connector-curvature="0" />
        <path
           style="fill:url(#linearGradient3834);fill-opacity:1;fill-rule:nonzero;stroke:none"
           d="m 6,1008.8622 c -2.216,0 -4,1.784 -4,4 l 0,2 0,25 0,6 c 0,1.108 0.892,2 2,2 l 40,0 c 1.108,0 2,-0.892 2,-2 l 0,-6 0,-25 0,-2 c 0,-2.216 -1.784,-4 -4,-4 l -36,0 z"
           id="rect2816"
           inkscape:connector-curvature="0" />
        <path
           sodipodi:nodetypes="ccccccc"
           style="fill:#505050;fill-opacity:1;fill-rule:nonzero;stroke:none"
           d="m 6,1009.2411 c -2.216,0 -4,1.784 -4,4 l 0,2 44,0 0,-2 c 0,-2.216 -1.784,-4 -4,-4 l -36,0 z"
           id="path3614"
           inkscape:connector-curvature="0" />
        <path
           id="path3604"
           d="m 6,1008.0872 c -2.216,0 -4,1.784 -4,4 l 0,4.6961 44,0 0,-4.6961 c 0,-2.216 -1.784,-4 -4,-4 z"
           style="fill:url(#linearGradient3836);fill-opacity:1;fill-rule:nonzero;stroke:none"
           sodipodi:nodetypes="ccccccc"
           inkscape:connector-curvature="0" />
      </g>
      <path
         transform="matrix(0,0.61157994,0.45398033,0,3.0320843,1027.7731)"
         d="m 26.944241,5.8767195 -6.867459,9e-7 -6.867458,-1e-6 3.433728,-5.94739397 3.43373,-5.94739323 3.43373,5.94739305 z"
         inkscape:randomized="0"
         inkscape:rounded="0"
         inkscape:flatsided="false"
         sodipodi:arg2="1.5707963"
         sodipodi:arg1="0.52359878"
         sodipodi:r2="3.9649301"
         sodipodi:r1="7.9298582"
         sodipodi:cy="1.9117904"
         sodipodi:cx="20.076782"
         sodipodi:sides="3"
         id="path3671"
         style="fill:url(#linearGradient3891);fill-opacity:1;fill-rule:nonzero;stroke:#689536;stroke-width:1.13869166;stroke-miterlimit:4;stroke-opacity:1;stroke-dasharray:none"
         sodipodi:type="star" />
      <path
         transform="matrix(0.61157994,0,0,-0.45398034,-0.22498558,1047.5196)"
         d="m 26.944241,5.8767195 -6.867459,9e-7 -6.867458,-1e-6 3.433728,-5.94739397 3.43373,-5.94739323 3.43373,5.94739305 z"
         inkscape:randomized="0"
         inkscape:rounded="0"
         inkscape:flatsided="false"
         sodipodi:arg2="1.5707963"
         sodipodi:arg1="0.52359878"
         sodipodi:r2="3.9649301"
         sodipodi:r1="7.9298582"
         sodipodi:cy="1.9117904"
         sodipodi:cx="20.076782"
         sodipodi:sides="3"
         id="path3671-0"
         style="fill:url(#linearGradient3908);fill-opacity:1;fill-rule:nonzero;stroke:#689536;stroke-width:1.13869166;stroke-miterlimit:4;stroke-opacity:1;stroke-dasharray:none"
         sodipodi:type="star" />
      <path
         transform="matrix(0,0.61157994,-0.45398033,0,20.967915,1027.7731)"
         d="m 26.944241,5.8767195 -6.867459,9e-7 -6.867458,-1e-6 3.433728,-5.94739397 3.43373,-5.94739323 3.43373,5.94739305 z"
         inkscape:randomized="0"
         inkscape:rounded="0"
         inkscape:flatsided="false"
         sodipodi:arg2="1.5707963"
         sodipodi:arg1="0.52359878"
         sodipodi:r2="3.9649301"
         sodipodi:r1="7.9298582"
         sodipodi:cy="1.9117904"
         sodipodi:cx="20.076782"
         sodipodi:sides="3"
         id="path3671-3"
         style="fill:url(#linearGradient3942);fill-opacity:1;fill-rule:nonzero;stroke:#689536;stroke-width:1.13869166;stroke-miterlimit:4;stroke-opacity:1;stroke-dasharray:none"
         sodipodi:type="star" />
    </g>
  </g>
</svg>
