<?xml version="1.0" encoding="UTF-8" standalone="no"?>
<!-- Created with Inkscape (http://www.inkscape.org/) -->

<svg
   xmlns:dc="http://purl.org/dc/elements/1.1/"
   xmlns:cc="http://creativecommons.org/ns#"
   xmlns:rdf="http://www.w3.org/1999/02/22-rdf-syntax-ns#"
   xmlns:svg="http://www.w3.org/2000/svg"
   xmlns="http://www.w3.org/2000/svg"
   xmlns:xlink="http://www.w3.org/1999/xlink"
   xmlns:sodipodi="http://sodipodi.sourceforge.net/DTD/sodipodi-0.dtd"
   xmlns:inkscape="http://www.inkscape.org/namespaces/inkscape"
   width="512"
   height="512"
   id="svg2"
   version="1.1"
   inkscape:version="0.48.5 r10040"
   sodipodi:docname="catfish.svg"
   inkscape:export-filename="/home/alecive/Scrivania/firefoxTest1.png"
   inkscape:export-xdpi="100"
   inkscape:export-ydpi="100">
  <sodipodi:namedview
     id="base"
     pagecolor="#ffffff"
     bordercolor="#666666"
     borderopacity="1.0"
     inkscape:pageopacity="0.0"
     inkscape:pageshadow="2"
     inkscape:zoom="0.9172469"
     inkscape:cx="318.35394"
     inkscape:cy="258.73767"
     inkscape:document-units="px"
     inkscape:current-layer="svg2"
     showgrid="false"
     inkscape:window-width="879"
     inkscape:window-height="690"
     inkscape:window-x="344"
     inkscape:window-y="39"
     inkscape:window-maximized="0"
     inkscape:object-paths="false"
     inkscape:snap-intersection-paths="false"
     inkscape:object-nodes="true"
     inkscape:snap-smooth-nodes="true"
     inkscape:snap-nodes="true" />
  <defs
     id="defs4">
    <linearGradient
       x1="19.244999"
       y1="21.030804"
       x2="19.360001"
       gradientUnits="userSpaceOnUse"
       y2="44.984001"
       id="linearGradient2460">
      <stop
         offset="0"
         style="stop-color:#00bdf0;stop-opacity:1;"
         id="stop3602" />
      <stop
         offset="1"
         style="stop-color:#0093dc;stop-opacity:1;"
         id="stop3604" />
    </linearGradient>
    <linearGradient
       inkscape:collect="always"
       xlink:href="#ButtonShadow-0-1-1-5-9"
       id="linearGradient4114-2-6"
       gradientUnits="userSpaceOnUse"
       gradientTransform="matrix(1.0317796,0,0,1.0317796,-830.86406,592.67791)"
       x1="1012.5133"
       y1="484.41721"
       x2="1006.8082"
       y2="20.625916" />
    <linearGradient
       x1="45.447727"
       y1="92.539597"
       x2="45.447727"
       y2="7.0165396"
       id="ButtonShadow-0-1-1-5-9"
       gradientUnits="userSpaceOnUse"
       gradientTransform="matrix(1.0058652,0,0,0.994169,100,0)">
      <stop
         id="stop3750-8-9-3-6-4"
         style="stop-color:#000000;stop-opacity:1"
         offset="0" />
      <stop
         id="stop3752-5-6-4-2-9"
         style="stop-color:#000000;stop-opacity:0.58823532"
         offset="1" />
    </linearGradient>
    <linearGradient
       inkscape:collect="always"
       xlink:href="#ButtonShadow-0-1-1-5-9"
       id="linearGradient4112-2-6"
       gradientUnits="userSpaceOnUse"
       gradientTransform="matrix(1.0402541,0,0,1.0402541,-837.95116,592.51825)"
       x1="1012.5133"
       y1="484.41721"
       x2="1006.8082"
       y2="20.625916" />
    <linearGradient
       inkscape:collect="always"
       xlink:href="#ButtonShadow-0-1-1-5-9"
       id="linearGradient4110-6-7"
       gradientUnits="userSpaceOnUse"
       gradientTransform="matrix(1.023305,0,0,1.023305,-823.77704,592.83757)"
       x1="1012.5133"
       y1="484.41721"
       x2="1006.8082"
       y2="20.625916" />
    <linearGradient
       inkscape:collect="always"
       xlink:href="#ButtonShadow-0-1-1-5-9"
       id="linearGradient4116-6-3"
       gradientUnits="userSpaceOnUse"
       gradientTransform="matrix(1.0148305,0,0,1.0148305,-816.68996,592.99723)"
       x1="1012.5133"
       y1="484.41721"
       x2="1006.8082"
       y2="20.625916" />
    <linearGradient
       y2="20.625916"
       x2="1006.8082"
       y1="484.41721"
       x1="1012.5133"
       gradientTransform="matrix(1.0074153,0,0,1.0074153,-810.48879,593.1369)"
       gradientUnits="userSpaceOnUse"
       id="linearGradient5342-3"
       xlink:href="#ButtonShadow-0-1-1-5-9"
       inkscape:collect="always" />
    <linearGradient
       inkscape:collect="always"
       xlink:href="#linearGradient3737-9"
       id="linearGradient4084-8"
       gradientUnits="userSpaceOnUse"
       gradientTransform="translate(778.59979,-360.55963)"
       x1="993.43896"
       y1="51.511765"
       x2="988.78552"
       y2="363.73825" />
    <linearGradient
       id="linearGradient3737-9">
      <stop
         id="stop3739-7"
         style="stop-color:#ffffff;stop-opacity:1"
         offset="0" />
      <stop
         id="stop3741-4"
         style="stop-color:#ffffff;stop-opacity:0"
         offset="1" />
    </linearGradient>
    <linearGradient
       inkscape:collect="always"
       xlink:href="#linearGradient4046-3"
       id="linearGradient4086-12"
       gradientUnits="userSpaceOnUse"
       x1="1764.6487"
       y1="155.59685"
       x2="1763.6903"
       y2="-55.941216" />
    <linearGradient
       id="linearGradient4046-3">
      <stop
         id="stop4048-7"
         style="stop-color:#000000;stop-opacity:1;"
         offset="0" />
      <stop
         id="stop4050-73"
         style="stop-color:#ffffff;stop-opacity:0.2"
         offset="1" />
    </linearGradient>
    <linearGradient
       y2="32"
       x2="272"
       y1="288"
       x1="272"
       gradientTransform="translate(0,-4)"
       gradientUnits="userSpaceOnUse"
       id="linearGradient3876"
       xlink:href="#outerBackgroundGradient"
       inkscape:collect="always" />
    <linearGradient
       id="outerBackgroundGradient">
      <stop
         id="stop3864-8-6"
         offset="0"
         style="stop-color:#007dbb;stop-opacity:1;" />
      <stop
         id="stop3866-9-1"
         offset="1"
         style="stop-color:#00abd7;stop-opacity:1;" />
    </linearGradient>
    <linearGradient
       inkscape:collect="always"
       xlink:href="#outerBackgroundGradient"
       id="linearGradient5589"
       gradientUnits="userSpaceOnUse"
       gradientTransform="translate(571.12383,-178.05409)"
       x1="272"
       y1="288"
       x2="272"
       y2="32" />
    <linearGradient
       y2="32"
       x2="272"
       y1="288"
       x1="272"
       gradientTransform="translate(571.12383,-178.05409)"
       gradientUnits="userSpaceOnUse"
       id="linearGradient5614"
       xlink:href="#outerBackgroundGradient"
       inkscape:collect="always" />
    <radialGradient
       gradientUnits="userSpaceOnUse"
       r="236"
       fy="151.78598"
       fx="256"
       cy="151.78598"
       cx="256"
       id="radialGradient6124"
       xlink:href="#linearGradient2460"
       inkscape:collect="always" />
    <linearGradient
       inkscape:collect="always"
       xlink:href="#linearGradient3737-9"
       id="linearGradient7749"
       gradientUnits="userSpaceOnUse"
       gradientTransform="translate(778.59979,-360.55963)"
       x1="993.43896"
       y1="51.511765"
       x2="988.78552"
       y2="363.73825" />
    <linearGradient
       inkscape:collect="always"
       xlink:href="#linearGradient4046-3"
       id="linearGradient7751"
       gradientUnits="userSpaceOnUse"
       x1="1764.6487"
       y1="155.59685"
       x2="1763.6903"
       y2="-55.941216" />
    <linearGradient
       inkscape:collect="always"
       xlink:href="#linearGradient2460-9"
       id="linearGradient3157"
       gradientUnits="userSpaceOnUse"
       gradientTransform="matrix(12.102564,0,0,12.102564,-34.468255,-46.187105)"
       x1="18.930269"
       y1="6.2951212"
       x2="19.360001"
       y2="36.643665" />
    <linearGradient
       id="linearGradient2460-9"
       y2="44.984001"
       gradientUnits="userSpaceOnUse"
       x2="19.360001"
       y1="21.030804"
       x1="19.244999">
      <stop
         id="stop3602-6"
         style="stop-color:#fafafa;stop-opacity:1;"
         offset="0" />
      <stop
         id="stop3604-4"
         style="stop-color:#f0f0f0;stop-opacity:1;"
         offset="1" />
    </linearGradient>
    <radialGradient
       gradientUnits="userSpaceOnUse"
       r="236"
       fy="151.78598"
       fx="256"
       cy="151.78598"
       cx="256"
       id="radialGradient6124-5"
       xlink:href="#linearGradient2460-7"
       inkscape:collect="always" />
    <linearGradient
       x1="19.244999"
       y1="21.030804"
       x2="19.360001"
       gradientUnits="userSpaceOnUse"
       y2="44.984001"
       id="linearGradient2460-7">
      <stop
         offset="0"
         style="stop-color:#00bdf0;stop-opacity:1;"
         id="stop3602-2" />
      <stop
         offset="1"
         style="stop-color:#0093dc;stop-opacity:1;"
         id="stop3604-5" />
    </linearGradient>
    <radialGradient
       gradientTransform="translate(-20,-20)"
       r="236"
       fy="151.78598"
       fx="256"
       cy="151.78598"
       cx="256"
       gradientUnits="userSpaceOnUse"
       id="radialGradient8295"
       xlink:href="#linearGradient2460-7"
       inkscape:collect="always" />
    <linearGradient
       y2="363.73825"
       x2="988.78552"
       y1="51.511765"
       x1="993.43896"
       gradientTransform="translate(778.59979,-360.55963)"
       gradientUnits="userSpaceOnUse"
       id="linearGradient4084-8-0"
       xlink:href="#linearGradient3737-9-9"
       inkscape:collect="always" />
    <linearGradient
       id="linearGradient3737-9-9">
      <stop
         offset="0"
         style="stop-color:#ffffff;stop-opacity:1"
         id="stop3739-7-4" />
      <stop
         offset="1"
         style="stop-color:#ffffff;stop-opacity:0"
         id="stop3741-4-1" />
    </linearGradient>
    <linearGradient
       y2="-55.941216"
       x2="1763.6903"
       y1="155.59685"
       x1="1764.6487"
       gradientUnits="userSpaceOnUse"
       id="linearGradient4086-12-7"
       xlink:href="#linearGradient4046-3-0"
       inkscape:collect="always" />
    <linearGradient
       id="linearGradient4046-3-0">
      <stop
         offset="0"
         style="stop-color:#000000;stop-opacity:1;"
         id="stop4048-7-4" />
      <stop
         offset="1"
         style="stop-color:#ffffff;stop-opacity:0.2"
         id="stop4050-73-8" />
    </linearGradient>
  </defs>
  <metadata
     id="metadata7">
    <rdf:RDF>
      <cc:Work
         rdf:about="">
        <dc:format>image/svg+xml</dc:format>
        <dc:type
           rdf:resource="http://purl.org/dc/dcmitype/StillImage" />
        <dc:title />
      </cc:Work>
    </rdf:RDF>
  </metadata>
  <g
     id="layer1"
     inkscape:groupmode="layer"
     inkscape:label="Livello 1"
     transform="translate(0,-540.36218)" />
  <g
     id="g2036"
     transform="matrix(1.1,0,0,0.44444,95.081063,256.39254)">
    <g
       id="g3712"
       style="opacity:0.4"
       transform="matrix(1.0526,0,0,1.2857,-1.2632,-13.429)" />
  </g>
  <g
     transform="translate(97.481063,231.28154)"
     id="g3541" />
  <g
     transform="translate(97.481063,231.28154)"
     id="g3536" />
  <g
     id="g4103"
     transform="translate(-11.985071,-592.11719)" />
  <g
     id="g4076"
     transform="translate(-605.51932,-353.96833)">
    <g
       transform="translate(-926.66758,684.38448)"
       id="g4038" />
  </g>
  <rect
     style="fill:#ffff3e;fill-opacity:1;stroke:none"
     id="rect3069"
     width="453.28995"
     height="443.18472"
     x="29.294252"
     y="35.521004"
     ry="46.815289" />
  <path
     inkscape:connector-curvature="0"
     id="path3061"
     d="m 293.42367,395.7505 c -4.32469,-0.85812 -11.79509,-4.50626 -14.8685,-7.26098 -0.68781,-0.6165 -1.35246,-1.1209 -1.47701,-1.1209 -0.33091,0 -5.81065,-4.85217 -9.49665,-8.40906 -1.7537,-1.69228 -4.11585,-3.92073 -5.24922,-4.95212 -1.13336,-1.03139 -2.2619,-2.08756 -2.50786,-2.34704 -1.26099,-1.33033 -7.53136,-5.52435 -9.74768,-6.51986 -3.11243,-1.39803 -8.02697,-2.25922 -10.70132,-1.87524 -5.95716,0.85533 -13.72495,5.30791 -19.04929,10.91925 -1.12929,1.19017 -1.93789,1.27217 -2.27285,0.2305 -0.41734,-1.29786 0.98014,-3.6387 4.45859,-7.46834 7.44363,-8.19516 15.11384,-12.37799 22.72252,-12.3914 2.36351,-0.004 7.23678,1.04999 10.99998,2.37944 2.60764,0.92123 16.27915,8.55416 16.69638,9.32176 0.32066,0.58991 11.39124,6.86174 13.9464,7.90106 7.78089,3.16491 13.89673,2.25979 19.88121,-2.94233 2.07092,-1.80019 5.22242,-6.53255 6.31724,-9.48609 1.17885,-3.18026 1.68314,-3.26798 6.034,-1.04969 3.49512,1.78201 11.86911,4.65494 13.56814,4.65494 1.08261,0 2.07556,2.06142 1.74845,3.62988 -0.14827,0.71096 -1.22641,3.08587 -2.39587,5.27757 -8.2019,15.37135 -24.30989,24.34548 -38.60666,21.50865 z m 39.22123,-39.03605 c -1.40447,-0.32973 -3.39948,-0.95124 -4.43337,-1.38114 -1.03388,-0.42989 -2.19121,-0.78162 -2.57183,-0.78162 -1.19569,0 -11.12959,-6.25539 -14.17967,-8.92896 -8.99841,-7.88763 -19.74946,-21.48231 -30.47572,-38.53646 -0.69748,-1.10896 -9.25287,-13.72931 -11.36303,-16.762 -0.44853,-0.64462 -3.19126,-3.99 -6.09496,-7.43419 -9.29931,-11.03023 -18.54029,-17.19074 -31.64902,-21.09883 -7.84135,-2.33773 -22.10702,-2.5442 -35.94634,-0.52024 -1.8366,0.2686 -6.87498,1.0081 -11.1964,1.64333 -27.16382,3.99303 -42.25381,3.32603 -58.78428,-2.59834 -10.35504,-3.71116 -22.16508,-10.83633 -30.959177,-18.67813 -1.633669,-1.45677 -3.439086,-3.00209 -4.012031,-3.43406 -1.060893,-0.79984 -2.342511,-2.00126 -3.323819,-3.1158 -0.726587,-0.82524 -0.690912,-2.1689 0.0778,-2.93023 0.525288,-0.52025 1.31256,-0.3446 5.008916,1.11751 19.832306,7.84474 38.996056,5.25481 68.617646,-9.2735 3.99731,-1.96054 7.79819,-3.80331 8.44641,-4.09505 0.64821,-0.29174 1.36063,-0.69333 1.58316,-0.89244 0.22253,-0.1991 1.72521,-0.98448 3.33928,-1.74529 4.50939,-2.12555 7.86611,-3.84601 9.80966,-5.02788 0.97232,-0.59126 3.27053,-1.80246 5.10713,-2.69155 1.8366,-0.88909 3.95803,-1.94314 4.71427,-2.34233 4.86025,-2.56547 10.95853,-5.4887 11.45023,-5.4887 0.3194,0 1.31254,-0.42193 2.20697,-0.93763 0.89443,-0.51569 1.8646,-0.93763 2.15593,-0.93763 0.29133,0 0.69764,-0.18779 0.9029,-0.41732 0.34183,-0.38223 8.7552,-4.03423 10.58748,-4.59571 0.43214,-0.13243 2.73035,-0.93337 5.10713,-1.77986 2.37678,-0.8465 4.76338,-1.67807 5.30355,-1.84793 0.54018,-0.16986 2.57321,-0.81248 4.51785,-1.42805 6.59914,-2.08894 10.59155,-2.93638 25.53565,-5.42028 4.63151,-0.76981 21.89787,-1.089 27.3035,-0.50474 10.74481,1.16135 19.499,2.83416 26.32136,5.02965 4.95466,1.59444 11.94765,4.28937 14.14282,5.45028 3.77875,1.99839 4.25275,2.23227 4.52418,2.23227 1.11487,0 12.87994,7.5485 19.24521,12.34777 6.06436,4.57239 15.48117,13.94136 21.40907,21.3003 13.06431,16.21812 22.04246,36.51303 24.15723,54.6069 0.94833,8.11379 0.81858,12.47003 -0.64575,21.68175 -0.48787,3.06906 -2.87726,10.82849 -3.68127,11.95474 -0.27611,0.38678 -0.78275,1.51425 -1.12586,2.50551 -0.68511,1.97926 -3.91562,7.45726 -6.1102,10.36109 -8.59478,11.37251 -22.42118,20.91117 -34.98695,24.13706 -1.18839,0.30508 -2.95624,0.7832 -3.92856,1.06249 -2.68574,0.77145 -13.11432,0.89786 -16.1071,0.19524 z m -0.29465,-28.87623 c 0.84709,-1.12134 1.08036,-1.89403 1.08036,-3.5787 0,-2.91182 -1.63959,-4.86883 -4.07913,-4.86883 -3.86348,0 -5.70393,4.57993 -3.30372,8.22128 1.67277,2.53775 4.48018,2.63853 6.30249,0.22625 z m 47.66512,-36.52263 c 3.69242,-2.68698 2.00017,-9.42996 -2.3666,-9.42996 -1.91113,0 -4.14684,2.46454 -4.14684,4.57129 0,4.73711 3.29889,7.1979 6.51344,4.85867 z m -178.388,43.22524 c -11.60398,-0.89612 -22.14203,-7.03292 -29.98753,-17.46314 -4.73352,-6.293 -4.51094,-7.07466 2.16141,-7.59048 4.83416,-0.37371 12.06613,-2.09988 15.4333,-3.68371 7.06197,-3.32176 13.64292,-9.62355 18.37852,-17.59891 0.91536,-1.54157 3.15971,-5.33446 4.98744,-8.42862 5.62364,-9.52023 6.76792,-11.01789 8.41658,-11.0158 2.51036,0.003 8.41071,1.08826 11.84235,2.17778 3.79772,1.20576 9.14673,3.61333 10.21426,4.5974 0.3241,0.29877 1.08737,0.79693 1.69614,1.10704 1.69745,0.86466 6.25726,4.5194 8.79422,7.04866 3.94538,3.93339 12.26362,14.23189 14.86904,18.40878 0.42104,0.67501 1.95786,2.99563 3.41516,5.15695 8.90736,13.21054 9.13434,13.68976 7.20046,15.20188 -0.77349,0.6048 -1.23694,0.65158 -2.45535,0.24783 -1.90262,-0.63048 -11.33271,-0.64619 -14.54404,-0.0242 -1.33927,0.25938 -2.93033,0.54371 -3.5357,0.63185 -1.06571,0.15515 -5.90054,1.20058 -10.3328,2.23423 -1.18839,0.27715 -2.51428,0.68196 -2.94643,0.89958 -0.43214,0.21762 -2.90713,0.95187 -5.49998,1.63167 -2.59285,0.6798 -6.21695,1.66025 -8.05355,2.17878 -5.52226,1.55909 -6.30752,1.75764 -10.80355,2.7316 -3.49963,0.75812 -16.32341,2.09598 -17.08924,1.78287 -0.10803,-0.0442 -1.08035,-0.14857 -2.16071,-0.232 z m 202.14825,-11.60385 -0.89891,-1.14185 1.78254,-6.47637 c 1.74677,-6.3464 3.02117,-12.59893 3.02117,-14.82258 0,-2.07505 1.09298,-2.6709 4.89928,-2.6709 7.83531,0 14.62936,-4.51279 17.70757,-11.76184 2.54929,-6.00346 3.25532,-11.11908 3.5206,-25.50882 0.30169,-16.36446 0.55342,-20.63382 1.54797,-26.25355 1.72343,-9.73815 5.21088,-16.56714 11.21734,-21.96534 2.23873,-2.01202 2.66042,-2.31662 6.30872,-4.55702 3.05842,-1.87816 9.26312,-4.24693 11.36981,-4.34066 1.61919,-0.072 1.76785,0.0153 1.76785,1.03877 0,0.95325 -0.49064,1.37307 -3.33928,2.85738 -3.2204,1.67801 -6.55755,4.09132 -10.16476,7.3507 -4.04752,3.65727 -7.82125,11.55212 -8.67945,18.1578 -0.68011,5.2352 0.0141,15.73823 1.55324,23.4926 2.93357,14.78157 2.94909,32.41772 0.0338,38.45663 -0.37714,0.7812 -0.8039,1.98247 -0.94839,2.66948 -0.62319,2.96311 -6.1203,11.31148 -9.74815,14.80438 -3.91495,3.76933 -4.37204,4.13549 -7.59986,6.08811 -5.81816,3.51961 -13.13424,5.71272 -19.08326,5.72051 -3.06439,0.004 -3.45028,-0.0988 -4.26792,-1.13743 z M 393.2403,243.79454 c -3.47153,-6.21926 -4.58684,-7.99316 -8.14911,-12.96117 -8.14004,-11.35223 -17.73933,-21.53508 -27.3035,-28.96334 -6.80682,-5.28669 -6.7402,-5.22044 -6.6051,-6.56875 0.29391,-2.93304 8.06226,-5.63993 23.29649,-8.11768 11.02858,-1.79373 18.04505,-4.85635 22.96648,-10.02464 3.23408,-3.3963 4.8158,-6.02104 6.81243,-11.30463 0.77951,-2.06278 1.79194,-4.04936 2.24984,-4.41463 0.73592,-0.58704 1.02892,-0.55027 2.52448,0.31681 5.51492,3.19739 11.6418,9.52956 14.27121,14.74935 2.46025,4.88399 3.04756,12.70341 1.43595,19.11811 -1.24342,4.94917 -5.72672,15.05143 -8.77216,19.76643 -0.77655,1.20225 -2.11905,3.38898 -2.98333,4.85938 -0.86429,1.4704 -2.5479,4.17863 -3.74135,6.0183 -4.24545,6.5442 -9.10428,14.96947 -10.2361,17.74953 -0.82263,2.02059 -2.02756,3.17583 -3.31246,3.17583 -0.30609,0 -1.41029,-1.5295 -2.45377,-3.3989 z M 110.09189,229.06576 c -15.636407,-1.54393 -28.638822,-8.89367 -36.939327,-20.88034 -4.119944,-5.94956 -5.963207,-9.67031 -9.677846,-19.53538 -1.20665,-3.20453 -3.366991,-13.80638 -4.024138,-19.74842 -0.672516,-6.08102 -0.603247,-17.32655 0.126346,-20.51184 0.820481,-3.58209 3.157368,-4.23438 4.468849,-1.24737 0.831795,1.89448 5.57964,6.51172 8.399232,8.16818 2.404324,1.41249 2.864806,1.51848 6.562784,1.51044 3.314074,-0.007 4.423339,-0.21076 6.654406,-1.22113 5.020646,-2.27365 7.540642,-3.99599 19.296494,-13.18852 6.01691,-4.70496 13.11743,-9.01695 18.09745,-10.99021 3.75002,-1.48589 4.26209,-1.56697 11.26692,-1.78396 6.71522,-0.20801 7.57546,-0.14138 10.13049,0.78474 3.42493,1.24143 8.95426,4.58596 10.82876,6.55 0.7647,0.80124 1.53956,1.4568 1.7219,1.4568 0.18234,0 0.54456,0.61376 0.80494,1.3639 0.77682,2.23801 0.0797,3.11646 -3.01877,3.80373 -5.59337,1.24067 -12.65438,4.80726 -19.7756,9.98886 -6.2997,4.58383 -15.22926,14.75859 -19.01918,21.67134 -2.96825,5.41405 -5.81991,12.6383 -6.74431,17.0857 -0.95174,4.57896 -0.9424,12.76262 0.0187,16.42473 1.45507,5.544 4.49273,12.0207 7.33497,15.63908 1.31448,1.67344 1.45879,3.08459 0.42916,4.19656 -0.70764,0.76423 -2.60839,0.89103 -6.94226,0.46311 z"
     style="fill:#808080" />
  <path
     inkscape:connector-curvature="0"
     id="path3059"
     d="m 294.42513,395.32743 c -5.32521,-1.00346 -12.81059,-4.80958 -17.36938,-8.83186 -1.08035,-0.95322 -2.40624,-2.06697 -2.94642,-2.47501 -0.54018,-0.40804 -3.8107,-3.42121 -7.26784,-6.69593 -11.83151,-11.20721 -18.06148,-14.80311 -25.6467,-14.80311 -5.50434,0 -12.51378,3.29517 -19.01759,8.94026 -2.74918,2.3862 -3.46059,2.73895 -3.46059,1.71598 0,-0.84254 6.85721,-8.80636 9.34646,-10.85479 7.57758,-6.23565 15.52976,-8.2008 23.92223,-5.91169 5.52291,1.50641 11.56942,4.51652 18.98118,9.44933 4.86371,3.23698 12.32757,7.48042 15.58513,8.86063 4.09829,1.73643 9.23421,2.30894 12.78674,1.42537 5.44579,-1.35447 11.16061,-6.71584 13.65761,-12.81291 1.56286,-3.81614 2.25917,-4.174 4.96757,-2.55302 2.73843,1.63894 8.55635,3.94316 11.53852,4.56989 3.5722,0.75073 4.53554,1.3916 4.44285,2.95566 -0.22071,3.7245 -8.44459,15.30877 -13.8008,19.44 -3.17367,2.44784 -9.08925,5.51032 -12.87691,6.66634 -3.58124,1.09302 -9.61535,1.52288 -12.84206,0.91486 z m 39.98762,-38.97419 c -14.4324,-2.82489 -25.9455,-11.76215 -40.39912,-31.3606 -3.75798,-5.09564 -6.12448,-8.55319 -16.82971,-24.58889 -9.94624,-14.89879 -15.93787,-22.16184 -22.7174,-27.53801 -9.79817,-7.76996 -18.66306,-11.59694 -30.64278,-13.22851 -9.83187,-1.33905 -16.0586,-0.84698 -47.14273,3.72552 -9.01763,1.32649 -19.75341,1.82017 -26.12494,1.20134 -3.24106,-0.31479 -6.86516,-0.66188 -8.05355,-0.77131 -2.71813,-0.25028 -11.28293,-2.23555 -14.14282,-3.27822 -14.09765,-5.13975 -23.57584,-10.89082 -35.553478,-21.57275 -4.326533,-3.85849 -5.463926,-5.12383 -5.150218,-5.72956 0.421424,-0.81372 1.367108,-0.68379 4.395757,0.60395 2.932106,1.24669 5.737531,2.16728 10.379439,3.40596 3.84281,1.02545 19.51596,1.15288 23.96422,0.19484 12.78838,-2.75426 23.93209,-7.02767 41.44632,-15.89389 12.92789,-6.54448 15.13346,-7.67774 18.07139,-9.28542 2.85527,-1.56244 14.88693,-7.49375 18.66066,-9.19924 1.18839,-0.53707 2.51428,-1.15095 2.94642,-1.36417 8.15072,-4.02155 21.93211,-9.24273 31.4285,-11.90691 21.56507,-6.05002 44.8197,-7.31885 63.44626,-3.46179 2.48482,0.51454 5.40177,1.12015 6.48213,1.34581 4.8263,1.00808 18.54921,5.97237 21.43872,7.7555 0.59916,0.36974 1.94287,1.01388 2.98602,1.4314 2.90341,1.16211 13.71553,7.85068 18.26417,11.29854 20.36424,15.43605 35.694,36.50568 43.25437,59.44999 5.35041,16.2375 5.84479,31.98584 1.43688,45.77129 -0.6899,2.1576 -1.38843,4.13389 -1.55229,4.39173 -0.16386,0.25785 -0.86802,1.73461 -1.56481,3.2817 -2.66117,5.90864 -8.65863,13.84096 -14.51929,19.2034 -7.86049,7.19227 -20.2708,13.66305 -29.86887,15.57373 -4.33457,0.86289 -11.35151,1.12937 -14.33925,0.54457 z M 332.4297,328.788 c 2.14417,-2.40381 2.25101,-6.10238 0.24541,-8.49574 -2.12049,-2.53049 -5.2993,-2.24429 -7.34827,0.66159 -0.87571,1.24193 -0.9904,1.76502 -0.82833,3.77782 0.15765,1.95785 0.42618,2.59664 1.65783,3.94359 1.34889,1.47518 1.62861,1.58909 3.40267,1.38566 1.27334,-0.146 2.25296,-0.58039 2.87069,-1.27292 z m 49.00461,-38.02323 c 0.88059,-1.25874 1.10332,-2.04273 1.10332,-3.88354 0,-2.03736 -0.16367,-2.49062 -1.40297,-3.88542 -1.19577,-1.3458 -1.68449,-1.579 -3.30914,-1.579 -1.47283,0 -2.17834,0.2733 -3.10338,1.20217 -1.88976,1.89757 -2.20724,4.3413 -1.01811,7.83664 0.50024,1.47042 2.18452,2.24242 4.48922,2.05765 1.86226,-0.1493 2.27992,-0.37462 3.24106,-1.7485 z m -181.57479,42.86807 c -2.90716,-0.44407 -7.76002,-1.72091 -10.01783,-2.63581 -6.02531,-2.44154 -12.60207,-7.58015 -17.08669,-13.35032 -4.72883,-6.08437 -4.72131,-6.91634 0.0667,-7.36872 10.56173,-0.9979 17.20871,-3.30429 23.50215,-8.15486 5.71293,-4.40314 8.85271,-8.57947 17.51095,-23.29187 3.10181,-5.27072 5.00752,-8.03815 6.06042,-8.80082 1.96844,-1.42584 11.90156,0.62957 18.6941,3.86827 8.83798,4.21397 15.30279,9.93306 24.13167,21.3481 3.02909,3.91636 16.88837,24.46574 16.88837,25.04066 0,0.18175 -0.22593,0.69917 -0.50207,1.14982 -0.46028,0.75118 -0.86077,0.77563 -4.81248,0.2939 -7.85689,-0.95778 -16.62967,0.4142 -32.98893,5.15916 -5.44899,1.58047 -8.61469,2.43249 -17.4821,4.70517 -6.02741,1.54479 -19.62222,2.70056 -23.96422,2.03732 z m 204.3295,-11.09511 c -0.66483,-0.79337 -0.543,-1.75621 0.76214,-6.02355 0.65961,-2.15671 1.7134,-6.84323 2.34174,-10.4145 0.62835,-3.57127 1.34781,-6.7885 1.5988,-7.1494 0.32953,-0.47383 1.45286,-0.65774 4.04216,-0.66175 10.23387,-0.0159 17.52772,-6.77713 20.03536,-18.57238 0.93231,-4.38535 1.42542,-12.24138 1.42542,-22.70938 0,-14.68234 0.83749,-22.46096 3.16912,-29.43475 3.61484,-10.81175 10.65121,-17.87657 22.1701,-22.25969 4.57371,-1.74037 5.69641,-1.9513 5.69641,-1.07026 0,0.45088 -1.36698,1.49612 -3.63391,2.77863 -5.28031,2.98729 -7.95082,5.17815 -11.5011,9.4353 -7.17945,8.60897 -8.66779,17.88535 -5.87183,36.59761 2.20986,14.78962 2.61756,18.73172 2.64259,25.55032 0.0208,5.62542 -0.13094,7.52547 -0.8787,11.01712 -0.49697,2.32062 -1.09438,4.64125 -1.32754,5.15694 -0.23316,0.5157 -0.61926,1.58818 -0.85796,2.38331 -0.75146,2.50326 -4.16106,8.13552 -7.03594,11.62256 -5.63435,6.83411 -12.42377,11.29934 -20.4462,13.44693 -2.77585,0.7431 -11.77741,0.96716 -12.33066,0.30694 z M 393.53116,243.1147 c -3.67254,-6.83608 -11.65967,-18.34539 -16.54635,-23.84298 -6.25719,-7.03944 -14.21352,-14.50376 -20.67215,-19.39383 -3.30741,-2.50416 -4.24716,-3.44881 -4.34042,-4.36305 -0.0945,-0.92642 0.14837,-1.31573 1.17857,-1.88915 3.96911,-2.20927 10.95575,-4.10024 22.00634,-5.95613 16.84037,-2.82827 24.08133,-7.99059 29.44847,-20.99481 2.15356,-5.21794 2.44003,-5.46046 4.76395,-4.03312 2.75825,1.69412 7.16281,5.56961 9.36922,8.24382 3.80237,4.60854 4.99598,7.14711 6.17928,13.14212 1.21685,6.16493 -0.6195,14.01578 -5.58202,23.86462 -2.67247,5.30391 -3.16148,6.13651 -9.49492,16.16611 -3.81587,6.0428 -9.5068,15.88923 -11.79099,20.40076 -0.50965,1.00659 -1.14947,1.61236 -1.7987,1.70293 -0.86256,0.12034 -1.2543,-0.31849 -2.72028,-3.04729 z m -285.7964,-15.16615 c -11.204234,-1.27488 -21.210292,-6.18136 -29.344943,-14.38932 -8.501036,-8.57765 -14.886976,-22.64034 -17.624608,-38.81172 -1.225746,-7.24057 -1.505556,-22.74909 -0.473387,-26.23753 0.414354,-1.4004 0.962637,-2.4024 1.363435,-2.49171 0.418895,-0.0934 1.671589,1.12208 3.339277,3.23994 5.110367,6.48984 9.161637,8.67753 15.284615,8.2537 5.68345,-0.39341 9.854037,-2.70134 22.018701,-12.18479 10.65939,-8.30996 17.19593,-12.22741 23.70472,-14.20664 4.34395,-1.32093 15.16869,-1.17109 19.13016,0.26482 4.76482,1.72709 12.29833,7.47698 12.29833,9.38659 0,1.26157 -0.71295,1.68737 -4.12499,2.4636 -4.12246,0.93785 -10.55687,3.99658 -14.81512,7.04266 -4.22266,3.02062 -5.48442,4.01663 -8.36339,6.60195 -8.37375,7.5196 -15.6805,18.04057 -19.09722,27.49803 -2.04422,5.65836 -2.70687,8.84764 -2.97373,14.3123 -0.4727,9.67972 1.79626,16.82325 8.58643,27.03315 1.76007,2.6465 -0.41949,3.19088 -8.90828,2.22497 z"
     style="fill:#808080" />
  <path
     inkscape:connector-curvature="0"
     id="path3057"
     d="m 293.16285,394.66602 c -8.18139,-1.94098 -13.52553,-5.67084 -29.26778,-20.42703 -5.04836,-4.73213 -10.48019,-8.7565 -13.78135,-10.21038 -8.87388,-3.90823 -17.86768,-1.60672 -28.19295,7.21456 -1.37075,1.17108 -2.59905,2.0018 -2.72956,1.84606 -0.40322,-0.48119 6.57717,-8.51094 9.39858,-10.81145 2.88874,-2.35542 7.02012,-4.59834 10.41182,-5.65257 2.48734,-0.77313 10.12911,-0.95228 12.00902,-0.28153 8.63211,3.07992 12.69317,5.05248 18.97371,9.21602 5.92272,3.92633 13.52408,8.21944 17.17222,9.69855 3.15248,1.27815 4.2106,1.48282 7.77415,1.50372 4.75048,0.0278 7.48803,-0.78598 10.46387,-3.11077 3.02898,-2.3663 6.13872,-6.38701 7.62241,-9.85534 0.8412,-1.96641 1.66344,-3.27237 2.15519,-3.42312 0.43731,-0.13405 2.02838,0.37913 3.53571,1.1404 4.21201,2.12725 8.34613,3.6847 11.48648,4.3273 4.425,0.90547 4.546,1.66752 1.22784,7.73319 -5.53295,10.11435 -14.00317,17.35076 -23.91979,20.43551 -3.86897,1.20351 -10.7138,1.51707 -14.33957,0.65688 z m 42.03561,-38.69428 c -0.43214,-0.22909 -1.47379,-0.43135 -2.31478,-0.44947 -3.357,-0.0723 -10.72225,-3.31939 -16.18119,-7.13365 -7.11999,-4.97485 -14.72114,-12.96906 -22.70726,-23.88145 -4.05492,-5.54072 -5.84163,-8.14497 -14.55413,-21.2135 -2.72216,-4.08319 -6.63498,-9.82399 -8.69513,-12.75734 -13.1515,-18.7257 -27.52737,-28.44194 -46.13651,-31.18236 -5.45753,-0.80368 -13.04416,-1.00814 -17.08925,-0.46056 -1.94463,0.26324 -5.48034,0.69979 -7.85712,0.97011 -2.37678,0.27031 -7.14998,0.89749 -10.60711,1.39372 -3.45714,0.49623 -6.99284,0.99774 -7.85713,1.11446 -0.86428,0.11673 -4.04641,0.54667 -7.07141,0.95543 -7.7856,1.05206 -18.34253,1.39831 -24.35708,0.79888 -2.80892,-0.27995 -6.34462,-0.63225 -7.85712,-0.78289 -6.58769,-0.65611 -19.69529,-5.01433 -26.98563,-8.97259 -8.71432,-4.7314 -19.4712,-12.75673 -25.853521,-19.28839 -2.394019,-2.45004 -1.135783,-2.62182 3.935467,-0.5373 2.481017,1.01981 4.873349,1.85684 5.316295,1.86005 0.442945,0.003 0.973301,0.19636 1.178568,0.42921 1.008211,1.14367 13.839491,2.07205 20.661291,1.49489 9.44346,-0.79897 11.97417,-1.45653 28.03323,-7.28396 0.86428,-0.31362 1.92499,-0.73736 2.35713,-0.94165 3.17411,-1.50044 7.6872,-3.53773 7.83694,-3.53773 0.0998,0 2.08983,-0.96115 4.42225,-2.13589 9.32675,-4.69749 11.75457,-5.9323 12.88361,-6.55276 3.60344,-1.98023 7.62167,-3.96931 8.0186,-3.96931 0.2505,0 0.84699,-0.30419 1.32555,-0.67598 0.98468,-0.765 6.58874,-3.64335 17.29388,-8.88244 1.90273,-0.9312 3.70046,-1.6931 3.99494,-1.6931 0.29448,0 1.0359,-0.31668 1.64761,-0.70375 2.61585,-1.65519 16.16201,-7.21241 22.52285,-9.23983 7.18933,-2.29149 13.23279,-3.98455 16.49996,-4.6224 1.18839,-0.23201 3.04463,-0.63982 4.12499,-0.90623 12.48956,-3.07993 38.36344,-3.43206 50.67844,-0.6897 1.72857,0.38492 4.11517,0.91797 5.30356,1.18455 16.6432,3.73342 32.97561,11.67319 46.84642,22.77373 5.93109,4.74653 5.93387,4.74905 12.082,10.90564 12.29927,12.31623 22.65838,28.93078 28.0852,45.04471 7.80017,23.16111 6.18215,43.69616 -4.79561,60.8635 -5.67611,8.87645 -16.11369,18.19573 -25.10245,22.41291 -1.48774,0.698 -2.88177,1.42174 -3.09784,1.60832 -0.3166,0.27339 -6.06008,2.46855 -9.35433,3.57523 -3.05775,1.02722 -15.19625,1.83934 -16.57418,1.10889 z m -3.97434,-25.97971 c 2.61502,-1.30388 3.8267,-5.55837 2.48461,-8.724 -0.73837,-1.74159 -3.55689,-3.44565 -5.12023,-3.09566 -3.09825,0.69362 -5.02633,4.31667 -4.17728,7.84954 0.90298,3.75729 3.82488,5.45998 6.8129,3.97012 z m 49.23194,-37.77353 c 1.80337,-1.31218 2.61942,-3.43684 2.32031,-6.04109 -0.85201,-7.41793 -10.06015,-6.65468 -10.06015,0.83387 0,0.80731 0.25856,2.20631 0.57458,3.10889 0.99251,2.83468 4.67227,3.91229 7.16526,2.09833 z m -179.6144,41.18086 c -2.16071,-0.23484 -4.33464,-0.63483 -4.83097,-0.88885 -0.49633,-0.25402 -1.32774,-0.46186 -1.84758,-0.46186 -0.51985,0 -1.35126,-0.18438 -1.84759,-0.40974 -0.49632,-0.22535 -1.87473,-0.78488 -3.06312,-1.2434 -3.18202,-1.22772 -5.66216,-2.79672 -9.66335,-6.11328 -3.24151,-2.68688 -8.36663,-8.57714 -9.91439,-11.39456 -0.56307,-1.02496 -0.55292,-1.16208 0.13006,-1.75805 0.42569,-0.37145 1.69932,-0.64638 2.99439,-0.64638 2.79281,0 7.61614,-0.7441 10.82482,-1.66996 12.43004,-3.58666 19.6747,-10.60594 29.9697,-29.03731 1.15218,-2.06278 2.7762,-4.67682 3.60893,-5.80897 0.83273,-1.13215 1.51405,-2.19424 1.51405,-2.36019 0,-0.16595 0.48616,-0.64424 1.08036,-1.06286 0.80113,-0.56441 1.79913,-0.71711 3.86139,-0.59079 3.71342,0.22746 12.12294,2.64985 15.29035,4.40443 0.43214,0.23939 1.58124,0.86333 2.55356,1.38654 6.77783,3.64722 13.14483,9.53108 20.05509,18.53329 5.66774,7.38353 17.6591,25.26068 17.6591,26.32679 0,1.11931 -0.89883,1.24092 -5.49752,0.74381 -5.43675,-0.5877 -13.14393,0.10797 -19.8417,1.79097 -0.86428,0.21717 -2.63214,0.65188 -3.92856,0.966 -1.29643,0.31412 -4.39017,1.17321 -6.87498,1.90908 -6.50544,1.92656 -7.7564,2.28458 -10.60712,3.03576 -10.72827,2.82698 -15.57879,3.7718 -21.33148,4.15512 -2.33324,0.15546 -4.71984,0.35889 -5.30356,0.45204 -0.58373,0.0931 -2.82917,-0.0228 -4.98988,-0.25763 z m 203.56496,-11.03952 c -0.50058,-0.59736 -0.25422,-2.16027 1.08628,-6.89142 0.7415,-2.61707 1.71664,-6.97175 2.16697,-9.67707 1.2363,-7.42696 0.95111,-7.02744 5.02104,-7.03401 8.26266,-0.0134 14.92025,-4.54981 18.52644,-12.62387 2.58589,-5.78968 3.1465,-10.59896 3.58276,-30.7358 0.27767,-12.81617 0.49396,-16.76764 1.10376,-20.16505 2.70214,-15.05441 9.90232,-24.14222 23.19174,-29.27179 6.83821,-2.63947 7.85626,-2.24445 2.31789,0.89936 -4.37606,2.48404 -7.26517,4.74316 -10.30309,8.05648 -8.57762,9.35519 -9.905,18.9484 -6.1201,44.23151 0.42459,2.83632 1.00088,6.73919 1.28067,8.67305 0.27975,1.93385 0.50863,6.78607 0.50863,10.7827 0,6.17834 -0.13731,7.85485 -0.91681,11.19443 -1.25282,5.36744 -3.19325,10.27758 -5.44259,13.7722 -6.31522,9.81141 -14.4001,15.94194 -24.28338,18.41339 -2.75898,0.68991 -11.22942,0.96158 -11.72021,0.37589 z M 394.03,243.40048 c -1.91008,-3.69873 -6.54257,-10.91389 -10.05627,-15.66279 -8.47828,-11.45872 -17.61128,-20.66596 -29.23068,-29.46831 -1.56651,-1.18673 -2.8482,-2.35783 -2.8482,-2.60246 0,-2.35153 8.50174,-5.06464 24.94636,-7.961 13.88725,-2.44593 20.92128,-6.98798 26.21713,-16.92905 1.43831,-2.69991 3.05065,-6.64206 3.05065,-7.4588 0,-0.26292 0.32521,-0.68573 0.72268,-0.93958 0.56587,-0.3614 1.41365,0.004 3.90731,1.68485 5.09824,3.43613 10.39976,9.38774 12.27992,13.78572 2.07966,4.86464 2.44592,11.79835 0.93893,17.77491 -1.56265,6.19736 -6.22771,15.50939 -13.58832,27.12402 -5.68446,8.96975 -7.55077,12.11308 -10.19972,17.17884 -3.97106,7.59411 -4.00267,7.612 -6.13979,3.47365 z M 112.10838,228.11253 c -0.2278,-0.27184 -2.33859,-0.53847 -8.89147,-1.12313 -0.91385,-0.0815 -5.211673,-1.34696 -6.089271,-1.79289 -0.432141,-0.21958 -1.581245,-0.67913 -2.553564,-1.02122 -5.818019,-2.04697 -13.61304,-7.80664 -18.48205,-13.65622 -6.601525,-7.931 -11.91102,-19.80542 -14.349966,-32.09298 -1.429848,-7.20365 -1.843331,-11.96373 -1.788256,-20.58664 0.04935,-7.72691 0.539217,-11.07304 1.659444,-11.33525 0.302609,-0.0708 2.0577,1.64228 3.900202,3.80691 4.945985,5.8107 8.532894,7.73964 13.935666,7.49424 4.017052,-0.18245 6.437984,-0.86458 9.624974,-2.71195 2.590014,-1.50131 8.623557,-5.65358 10.540126,-7.25367 8.545455,-7.13439 17.110835,-12.73532 23.441925,-15.32878 l 4.32142,-1.77022 7.6607,2.7e-4 c 6.89586,2.5e-4 7.93164,0.10621 10.37454,1.06126 3.34376,1.30724 8.15681,4.57241 10.42747,7.07397 1.41848,1.56273 1.6207,1.99191 1.21405,2.57663 -0.26836,0.38587 -1.13311,0.82348 -1.92166,0.97247 -12.12671,2.29115 -27.89138,14.19164 -37.24699,28.11713 -6.74697,10.04264 -10.03036,19.64653 -10.0975,29.53524 -0.0583,8.58942 1.96127,15.47364 6.64952,22.66634 2.90508,4.45695 2.8265,4.25595 1.96303,5.02111 -0.78151,0.69253 -3.7985,0.9367 -4.29234,0.34738 z"
     style="fill:#808080" />
  <path
     inkscape:connector-curvature="0"
     id="path3055"
     d="m 296.10927,394.83618 c -1.8366,-0.19447 -4.57677,-0.78699 -6.08927,-1.31672 -3.13395,-1.09761 -9.41707,-4.76128 -11.77134,-6.86384 -0.87217,-0.77893 -2.73487,-2.34004 -4.13933,-3.46915 -1.40446,-1.12911 -3.87945,-3.34881 -5.49999,-4.93266 -8.36553,-8.17619 -14.97771,-13.25641 -19.42933,-14.9278 -2.31415,-0.86886 -3.66722,-1.0373 -8.26702,-1.02911 -3.96056,0.007 -5.88275,0.20388 -6.86749,0.70322 -3.72472,1.88872 -9.41145,5.46051 -10.81104,6.79034 -2.05895,1.95632 -2.55356,2.27295 -2.55356,1.63466 0,-0.67835 4.326,-5.65859 6.87498,-7.9147 2.32744,-2.06004 5.46698,-4.2706 6.06529,-4.2706 0.23397,0 1.17481,-0.3988 2.09076,-0.88622 0.91594,-0.48743 2.54928,-1.17307 3.62963,-1.52365 2.37975,-0.77223 10.13874,-0.83928 11.78569,-0.10184 0.64821,0.29025 1.9741,0.78115 2.94642,1.09091 5.06113,1.61234 9.57666,3.94944 16.89281,8.74321 6.40221,4.19492 13.14039,7.97462 16.22206,9.09957 5.25834,1.91954 10.65133,2.0002 15.01,0.22449 4.09454,-1.6681 9.74369,-8.04228 11.62461,-13.11655 0.88549,-2.38882 1.80417,-2.70941 3.95704,-1.38087 2.73668,1.68882 8.99114,4.11602 12.07752,4.68701 1.81616,0.33599 3.43922,0.87565 3.60681,1.19924 1.08519,2.09538 -6.39118,13.72834 -12.00207,18.67476 -3.62827,3.1986 -10.61974,6.95453 -15.1965,8.16381 -3.52813,0.93221 -6.30826,1.12997 -10.15668,0.72249 z m 40.46419,-38.93028 c -0.97232,-0.25511 -2.82857,-0.62778 -4.12499,-0.82816 -4.87432,-0.7534 -10.92493,-3.54356 -17.08924,-7.88049 -4.47547,-3.14873 -12.43209,-11.20398 -17.11844,-17.33064 -5.31248,-6.94522 -6.30796,-8.37854 -20.30003,-29.22845 -8.93073,-13.30788 -12.32051,-17.72341 -18.37843,-23.93971 -8.05936,-8.27006 -18.8385,-14.26195 -30.2386,-16.809 -10.29127,-2.2993 -19.37548,-2.09854 -38.69633,0.85521 -16.75753,2.56186 -25.10481,3.36486 -34.37491,3.30683 -4.42945,-0.0277 -9.02587,-0.24752 -10.21426,-0.48842 -1.18839,-0.2409 -4.19374,-0.73923 -6.67856,-1.1074 -5.16704,-0.76558 -10.23627,-2.00705 -10.7839,-2.64102 -0.20526,-0.23764 -0.85777,-0.43206 -1.45002,-0.43206 -0.59225,0 -1.17597,-0.19146 -1.29716,-0.42546 -0.12118,-0.234 -1.23653,-0.77854 -2.47853,-1.21008 -4.4806,-1.55684 -7.85658,-3.22805 -13.39374,-6.6303 -8.49579,-5.22016 -22.463705,-16.71352 -21.590091,-17.7652 0.230626,-0.27763 5.71962,1.73105 8.368554,3.06246 0.960518,0.48277 2.627815,0.92813 4.714277,1.25925 0.86428,0.13715 1.75913,0.4295 1.98856,0.64964 0.22942,0.22014 1.20174,0.38869 2.16071,0.37455 0.95896,-0.0142 5.76017,0.004 10.66934,0.0398 5.98185,0.0439 9.19922,-0.10915 9.75488,-0.46402 0.45601,-0.29124 1.56619,-0.62158 2.46706,-0.7341 2.01937,-0.25221 6.81824,-1.65629 13.03077,-3.81261 2.59285,-0.89995 5.42142,-1.85592 6.2857,-2.12438 0.86429,-0.26845 2.28301,-0.85736 3.15272,-1.30869 0.86971,-0.45133 3.34471,-1.60849 5.49999,-2.57147 2.15527,-0.96298 6.9615,-3.30482 10.68049,-5.2041 3.71899,-1.89928 6.90112,-3.45265 7.07141,-3.45193 0.17028,9.4e-4 1.01675,-0.41159 1.88103,-0.91623 4.89314,-2.85701 6.68948,-3.77321 7.39787,-3.77321 0.43464,0 1.06934,-0.29761 1.41046,-0.66134 0.52449,-0.55926 11.47725,-6.37086 12.00677,-6.37086 0.0987,0 1.19894,-0.55651 2.44502,-1.23668 1.24608,-0.68016 2.7098,-1.40799 3.25271,-1.61737 1.21665,-0.46924 5.3604,-2.33283 8.25494,-3.71255 15.31413,-7.29963 40.20854,-14.47682 53.03558,-15.29046 1.8366,-0.11649 6.16131,-0.41562 9.61047,-0.66471 4.12395,-0.29782 8.15933,-0.29122 11.78568,0.0193 3.03297,0.25971 6.92878,0.57245 8.65735,0.69499 1.72856,0.12255 4.55713,0.55219 6.28569,0.95477 1.72857,0.40258 3.67321,0.79545 4.32142,0.87304 1.72569,0.2066 4.05442,0.74366 6.2857,1.44966 1.08035,0.34183 2.9366,0.88101 4.12499,1.19818 2.09799,0.55993 8.43011,2.9049 10.01783,3.7099 0.43214,0.2191 1.93482,0.86757 3.33928,1.44105 1.40446,0.57347 2.73035,1.19906 2.94642,1.39019 0.21607,0.19114 0.8882,0.48886 1.49361,0.66161 1.35209,0.38581 9.17367,4.89168 13.43492,7.73963 3.33706,2.23026 11.92888,9.0318 14.29756,11.31836 6.66505,6.43398 9.10165,9.03449 13.20237,14.09056 23.82988,29.38151 31.35397,64.5157 19.26619,89.96455 -2.84169,5.98271 -7.2725,12.0774 -12.97056,17.84135 -2.20034,2.2258 -10.06405,8.41221 -10.69296,8.41221 -0.15723,0 -1.44197,0.6707 -2.85498,1.49044 -1.413,0.81974 -3.01105,1.6893 -3.55123,1.93237 -0.54018,0.24306 -1.43856,0.72364 -1.99641,1.06795 -0.55785,0.34432 -1.70695,0.8315 -2.55357,1.08264 -0.84661,0.25114 -2.31523,0.79667 -3.26361,1.21229 -2.61367,1.14543 -7.19602,2.1957 -8.23288,1.88697 -0.50682,-0.15091 -1.13966,-0.0583 -1.40629,0.20574 -0.6948,0.68812 -6.77915,0.99386 -8.8686,0.44564 z m -4.43871,-26.18234 c 4.04451,-2.94288 2.9506,-9.84983 -1.86007,-11.74446 -1.38456,-0.5453 -1.63921,-0.49621 -3.24258,0.62511 -2.19267,1.53343 -3.03004,3.04826 -3.03004,5.4814 0,2.27615 0.77418,4.2337 2.20584,5.57758 1.36865,1.28473 4.20448,1.31362 5.92685,0.0604 z m 47.96448,-37.05166 c 1.32435,-0.71728 1.85555,-1.36931 2.47332,-3.03589 1.0687,-2.88309 0.70268,-5.12493 -1.17605,-7.20314 -1.33879,-1.48095 -1.53982,-1.55318 -3.8551,-1.38519 -1.8934,0.13738 -2.6638,0.42515 -3.42609,1.27975 -1.26813,1.42169 -1.93732,3.87782 -1.61506,5.92776 0.32543,2.07006 2.30003,4.76738 3.67289,5.01722 1.96319,0.35726 2.23426,0.31579 3.92609,-0.60051 z M 200.4488,332.96576 c -3.7324,-0.48563 -6.75846,-1.30976 -11.94608,-3.25344 -2.82,-1.05657 -4.41038,-2.09267 -8.98705,-5.85486 -3.50604,-2.88208 -10.00456,-10.77688 -9.81873,-11.9284 0.0943,-0.58457 1.09265,-0.84622 4.82828,-1.26548 6.5312,-0.733 7.37659,-0.9034 11.37536,-2.29292 6.86541,-2.38565 12.20705,-6.1628 17.28483,-12.22234 2.45621,-2.93112 7.5232,-10.63239 10.15514,-15.43473 0.56526,-1.03139 1.51995,-2.64325 2.12155,-3.58192 0.60159,-0.93868 1.69507,-2.66675 2.42995,-3.84018 0.73488,-1.17343 1.8488,-2.38691 2.47537,-2.69662 3.36591,-1.66378 18.11283,2.70461 23.68842,7.01706 0.86428,0.66848 2.07902,1.48218 2.69942,1.80821 3.96162,2.0819 13.76914,13.15433 20.87036,23.56209 9.13043,13.38183 11.20615,16.66785 11.10523,17.58049 -0.0947,0.85681 -0.32379,0.91743 -2.65724,0.70322 -8.32638,-0.76433 -19.96716,0.3764 -26.51779,2.59859 -1.08035,0.36649 -3.99731,1.20753 -6.48212,1.86899 -2.48482,0.66145 -5.04821,1.39468 -5.69642,1.62939 -1.28432,0.46503 -9.65046,2.70961 -12.17854,3.26741 -5.86951,1.29506 -9.44383,1.9161 -12.17854,2.11604 -7.8148,0.57136 -9.62376,0.60293 -12.5714,0.2194 z m 203.95732,-11.43238 c -0.11853,-0.36861 0.32341,-2.53101 0.98208,-4.80534 1.23863,-4.27685 3.05408,-12.80284 3.07665,-14.44903 0.007,-0.5157 0.23556,-1.46289 0.50775,-2.10488 0.46921,-1.10671 0.67776,-1.16988 4.02098,-1.21803 9.94046,-0.14314 16.92934,-6.18376 20.02142,-17.30488 1.19411,-4.2948 1.45824,-7.78448 1.77417,-23.44067 0.23061,-11.42851 0.52259,-17.68902 0.96203,-20.62778 2.03164,-13.58655 7.20366,-22.35276 16.40274,-27.80161 3.6842,-2.18223 6.83338,-3.72826 9.29603,-4.56368 1.32538,-0.44962 0.90731,0.75728 -0.56905,1.64282 -8.05673,4.83254 -13.32729,10.55875 -15.98889,17.37113 -1.52306,3.8983 -1.87302,5.83373 -2.11745,11.71049 -0.253,6.08187 0.34799,13.02726 2.00804,23.20626 0.3364,2.06278 0.68982,4.69985 0.78536,5.86017 0.0955,1.16031 0.35027,3.16449 0.56603,4.45372 0.49087,2.93288 0.52564,14.83205 0.0507,17.3461 -0.75059,3.97303 -1.48287,7.10803 -1.86622,7.9893 -0.21965,0.50498 -0.70274,1.75807 -1.07356,2.78463 -1.10718,3.06502 -4.72089,8.81896 -7.45687,11.87318 -5.53568,6.17957 -11.51986,9.91456 -19.56863,12.21365 -2.84549,0.8128 -11.54041,0.71303 -11.81328,-0.13555 z m -10.68881,-79.1186 c -3.62304,-6.703 -8.99678,-14.46123 -15.36165,-22.17811 -3.02383,-3.66613 -9.98736,-11.05967 -11.59623,-12.3123 -0.57534,-0.44796 -2.32335,-1.97478 -3.88445,-3.39294 -1.5611,-1.41816 -4.53767,-3.84633 -6.61461,-5.39593 -4.8764,-3.63827 -4.93515,-4.19301 -0.63339,-5.98008 1.72857,-0.7181 4.38035,-1.61666 5.89284,-1.99679 1.5125,-0.38014 3.49556,-0.89958 4.4068,-1.1543 0.91124,-0.25473 2.6791,-0.58516 3.92856,-0.7343 1.24947,-0.14914 3.06729,-0.4701 4.03961,-0.71324 0.97232,-0.24314 3.09374,-0.63193 4.71427,-0.86398 4.17243,-0.59747 9.46134,-2.41104 13.37332,-4.58571 5.35402,-2.97632 10.49601,-9.35252 13.15709,-16.31514 0.59129,-1.54709 1.20707,-3.12933 1.36841,-3.5161 0.48469,-1.162 1.71873,-0.75761 5.10654,1.67338 4.00936,2.877 9.77647,9.60215 11.18921,13.04801 1.57636,3.8449 2.14361,8.80067 1.54501,13.49781 -0.27297,2.14198 -0.77994,4.83072 -1.12659,5.97497 -1.76396,5.82256 -7.36216,16.48919 -14.24656,27.14492 -1.68461,2.60746 -3.86383,6.06449 -4.84272,7.68229 -1.63617,2.70409 -2.49677,4.26301 -6.02029,10.90541 -0.68217,1.286 -1.53356,2.40558 -1.89196,2.48794 -0.44294,0.1018 -1.24469,-0.94741 -2.50321,-3.27581 z M 111.30695,227.57373 c -0.11348,-0.2191 -2.20113,-0.52863 -4.63925,-0.68783 -4.92349,-0.32151 -9.273319,-1.46227 -12.186508,-3.19597 -0.37519,-0.22328 -0.916538,-0.40597 -1.202993,-0.40597 -0.286451,0 -1.305366,-0.42469 -2.264254,-0.94376 -12.878517,-6.97143 -21.881266,-18.92246 -27.012,-35.85808 -1.131306,-3.73424 -1.478806,-5.21906 -2.578388,-11.01712 -1.50456,-7.93349 -1.799739,-23.6729 -0.512145,-27.30837 0.342461,-0.96693 0.687823,-1.75805 0.767471,-1.75805 0.07965,0 1.725523,1.84595 3.6575,4.10211 2.423099,2.8297 4.303669,4.56479 6.062715,5.5937 3.254268,1.9035 4.213807,2.14777 8.050017,2.04926 3.686447,-0.0947 5.913009,-0.65404 8.716722,-2.18992 1.120991,-0.61408 2.123505,-1.11651 2.227804,-1.11651 0.364139,0 7.472666,-5.32556 15.376829,-11.51998 7.59578,-5.95275 15.12843,-10.19557 20.82138,-11.72779 4.28923,-1.15442 16.08143,-0.86973 19.04756,0.45986 2.54175,1.13935 7.45401,4.41764 8.95711,5.97771 0.70975,0.73665 1.44917,1.33936 1.64317,1.33936 0.44249,0 0.95644,1.84306 0.62443,2.23926 -0.13521,0.16135 -1.16786,0.44737 -2.2948,0.63561 -3.04386,0.50845 -4.23535,0.87799 -6.00334,1.86195 -0.87849,0.48892 -1.80099,0.88894 -2.05002,0.88894 -1.58209,0 -12.36126,7.34989 -16.35311,11.15054 -1.27701,1.21585 -2.77968,2.62101 -3.33927,3.12257 -1.71721,1.53913 -7.70437,8.94696 -9.56193,11.83083 -6.71274,10.42156 -9.72332,19.61424 -9.72332,29.68974 0,8.48715 1.99917,14.85581 7.18347,22.884 1.07279,1.66129 1.81969,3.2584 1.69914,3.63331 -0.23966,0.74528 -4.7447,0.98366 -5.11399,0.2706 z"
     style="fill:#808080" />
  <path
     inkscape:connector-curvature="0"
     id="path3053"
     d="m 294.6616,394.39725 c -1.12033,-0.19547 -3.33015,-0.81836 -4.91071,-1.3842 -3.11973,-1.11686 -10.52407,-5.5699 -12.10585,-7.28057 -0.54018,-0.58419 -1.38076,-1.30688 -1.86794,-1.60596 -1.21232,-0.74423 -5.80049,-4.85248 -7.95347,-7.12154 -3.91915,-4.13045 -12.50024,-11.00943 -16.33215,-13.09258 -3.73095,-2.02827 -9.75342,-2.77905 -14.6713,-1.82898 -2.85751,0.55204 -2.59931,0.43993 -8.02725,3.48523 -2.12853,1.1942 -3.97074,2.05113 -4.0938,1.90429 -0.32362,-0.38619 1.43688,-2.50175 3.04647,-3.66088 0.75994,-0.54726 1.84306,-1.44491 2.40694,-1.99479 0.89106,-0.86894 3.354,-2.13445 8.59974,-4.41874 0.75625,-0.32931 3.25786,-0.70887 5.55913,-0.84346 4.25021,-0.24859 4.66603,-0.1674 10.46349,2.04295 0.92585,0.35299 1.90483,0.6418 2.17552,0.6418 0.43174,0 2.5723,1.02233 8.31965,3.97344 0.86428,0.44379 2.10178,1.2616 2.74999,1.81736 0.97965,0.83993 13.48122,8.40475 16.1071,9.74657 5.02897,2.5698 11.83514,3.45592 16.2138,2.11094 2.64911,-0.81372 5.82976,-2.39618 6.04605,-3.00808 0.0731,-0.20688 0.90251,-1.10671 1.84307,-1.99962 1.9824,-1.88198 4.80961,-6.20771 5.78953,-8.85818 0.37352,-1.0103 0.98153,-1.93127 1.35114,-2.04661 0.36961,-0.11534 1.52847,0.28287 2.57524,0.88491 3.493,2.00897 11.38843,4.88029 13.4196,4.88029 1.84576,0 2.2641,0.98591 1.32756,3.12876 -3.21201,7.34933 -9.67981,15.27005 -15.17322,18.58171 -9.24689,5.57443 -15.56632,7.21825 -22.85833,5.94594 z m -71.85732,-25.24413 c 0.41161,-0.55321 0.9082,-1.00584 1.10354,-1.00584 0.55304,0 -0.035,0.87445 -0.98988,1.47213 -0.85606,0.53581 -0.85685,0.53257 -0.11366,-0.46629 z m 112.59061,-13.94773 c -0.75625,-0.39382 -1.85245,-0.60388 -2.436,-0.4668 -0.58356,0.13708 -1.55588,0.0702 -2.16071,-0.14855 -0.60484,-0.21878 -1.89524,-0.67076 -2.86756,-1.0044 -13.33302,-4.57509 -25.03702,-16.15224 -41.84008,-41.3866 -15.17223,-22.78523 -19.07512,-28.12144 -26.04637,-35.61181 -3.69738,-3.97271 -10.47863,-8.86794 -16.38119,-11.82523 -2.37678,-1.19081 -4.67499,-2.34955 -5.10713,-2.57499 -1.00038,-0.52188 -6.74654,-2.14646 -9.8214,-2.77676 -7.51125,-1.53968 -17.45949,-2.13234 -20.85482,-1.24242 -0.6617,0.17344 -3.22308,0.49651 -5.69196,0.71794 -3.91509,0.35115 -14.02601,1.74046 -24.13167,3.31586 -6.66096,1.0384 -15.70168,1.67562 -21.99994,1.55062 -2.59285,-0.0514 -5.65168,-0.0936 -6.79739,-0.0937 -1.1457,-9e-5 -2.64838,-0.21593 -3.33927,-0.47966 -0.69089,-0.26372 -2.49366,-0.57214 -4.00616,-0.68537 -4.44666,-0.33289 -12.95522,-2.33493 -13.37596,-3.14733 -0.12317,-0.23782 -0.73344,-0.43241 -1.35615,-0.43241 -0.6227,0 -1.24145,-0.21096 -1.37499,-0.46881 -0.13354,-0.25785 -0.57161,-0.46881 -0.97349,-0.46881 -0.40188,0 -1.23118,-0.29081 -1.84288,-0.64623 -0.61171,-0.35543 -2.34969,-1.13082 -3.86219,-1.7231 -5.22108,-2.04452 -16.58276,-9.17612 -21.0178,-13.19266 -0.540177,-0.4892 -2.396423,-2.13027 -4.12499,-3.64681 -4.248142,-3.72709 -5.741682,-5.31092 -4.714273,-4.99929 1.636112,0.49626 5.934677,2.31521 6.935596,2.93481 0.573515,0.35502 1.491207,0.64549 2.039312,0.64549 0.548105,0 1.11682,0.23222 1.263811,0.51604 0.154435,0.2982 0.758264,0.39886 1.430344,0.23845 0.63969,-0.15267 1.54638,-0.0273 2.01485,0.27852 0.74399,0.48574 7.21064,1.02079 11.85174,0.9806 6.19113,-0.0536 10.72454,-0.36273 11.39282,-0.77684 0.43215,-0.26779 1.66964,-0.64089 2.75,-0.82912 1.08035,-0.18823 2.67142,-0.54718 3.5357,-0.79767 0.86429,-0.25049 2.36696,-0.6683 3.33928,-0.92848 2.82684,-0.75641 9.10904,-2.92802 10.60875,-3.6672 0.75715,-0.37318 1.81786,-0.7353 2.35714,-0.8047 0.53927,-0.0694 2.03027,-0.69958 3.31332,-1.40041 1.28305,-0.70083 2.78573,-1.40287 3.33928,-1.56008 0.55355,-0.15722 1.18324,-0.44191 1.39931,-0.63264 0.21607,-0.19074 0.83482,-0.49947 1.375,-0.68608 0.96937,-0.33488 5.13073,-2.40463 11.9335,-5.93542 1.91791,-0.99543 3.74627,-1.80988 4.06303,-1.80988 0.31676,0 1.02542,-0.42193 1.5748,-0.93762 0.54937,-0.5157 1.24524,-0.93763 1.54638,-0.93763 0.30113,0 1.59813,-0.6329 2.88223,-1.40644 1.2841,-0.77354 2.76009,-1.40644 3.27997,-1.40644 0.51989,0 1.15583,-0.3028 1.41321,-0.67289 0.25738,-0.37009 1.82591,-1.33751 3.4856,-2.14982 1.65969,-0.81232 4.16673,-2.07545 5.57119,-2.80695 6.53303,-3.40269 12.16921,-6.09067 12.77096,-6.09067 0.36374,0 1.13059,-0.31358 1.7041,-0.69685 4.34862,-2.90606 28.32712,-11.52095 37.85097,-13.59893 6.64605,-1.45008 13.57719,-2.61601 17.01308,-2.86188 1.94463,-0.13916 6.19653,-0.48171 9.44865,-0.76123 4.28232,-0.36807 7.58665,-0.36512 11.98211,0.0107 3.33804,0.2854 7.66023,0.62561 9.60487,0.756 1.94464,0.1304 4.7732,0.57386 6.2857,0.98548 1.5125,0.41161 3.36874,0.81568 4.12499,0.89793 1.81579,0.19747 5.81887,1.09448 6.22673,1.39529 0.17737,0.13082 1.66208,0.56805 3.29935,0.97162 1.63726,0.40358 4.00876,1.16316 5.27,1.68796 1.26124,0.52481 2.82352,1.14078 3.47173,1.36882 2.39081,0.84111 5.60075,2.26703 7.27018,3.22956 0.94416,0.54437 2.01062,0.98976 2.3699,0.98976 1.09777,0 14.06134,8.03167 18.56313,11.50091 9.10152,7.01397 15.21953,12.92438 21.88595,21.1433 11.57567,14.27147 19.11226,29.01425 22.97584,44.9444 2.61464,10.78062 3.09678,20.06114 1.52223,29.30083 -2.59212,15.21101 -10.67117,28.44197 -23.3195,38.19011 -3.59047,2.76719 -8.51111,5.81758 -11.39283,7.06262 -0.75625,0.32674 -1.90535,0.93102 -2.55357,1.34285 -0.64821,0.41184 -1.50542,0.75009 -1.90491,0.75168 -0.39948,0.001 -1.28341,0.30449 -1.96428,0.67311 -2.13804,1.15755 -8.15922,2.71762 -9.37181,2.42822 -0.68631,-0.16381 -1.61213,0.007 -2.28507,0.42275 -1.53974,0.95018 -7.5578,0.91529 -9.42029,-0.0546 z m -3.2378,-25.02922 c 0.72201,-0.52534 1.65618,-1.85524 2.14284,-3.0506 0.78527,-1.92882 0.81842,-2.31724 0.36894,-4.3227 -0.62853,-2.80438 -0.86964,-3.128 -3.45519,-4.63757 l -2.1357,-1.24693 -1.7823,1.09391 c -2.59414,1.59217 -3.68648,3.33785 -3.68648,5.89139 0,2.50721 0.71878,4.31825 2.37317,5.97948 1.54619,1.55257 4.26619,1.68165 6.17472,0.29302 z m 48.39784,-37.26207 c 2.29271,-1.41483 3.4287,-5.61325 2.39592,-8.85487 -0.58149,-1.82514 -3.05292,-3.58004 -5.04177,-3.58004 -1.78367,0 -3.89689,1.0393 -4.66827,2.29589 -1.75368,2.85677 -1.33822,7.06837 0.93191,9.44695 1.08725,1.13918 1.66925,1.38393 3.29096,1.38393 1.08356,0 2.47462,-0.31134 3.09125,-0.69186 z m -181.08827,39.56518 c -2.70216,-0.37244 -5.72913,-1.13725 -7.26783,-1.83633 -0.64822,-0.29451 -1.17857,-0.49033 -1.17857,-0.43517 0,0.0552 -0.97232,-0.24755 -2.16071,-0.6727 -4.52783,-1.61982 -10.91279,-6.79386 -15.53191,-12.58625 -1.82885,-2.29338 -3.32519,-4.45059 -3.32519,-4.7938 0,-0.43904 0.90246,-0.71616 3.04464,-0.93491 11.23302,-1.14707 17.80867,-3.5313 24.65172,-8.93836 4.41711,-3.49018 10.6292,-11.95829 16.6819,-22.7402 0.94087,-1.67601 2.38974,-3.9736 3.21971,-5.10575 0.82998,-1.13215 1.50905,-2.21413 1.50905,-2.40439 0,-0.19027 0.53826,-0.612 1.19613,-0.93718 2.77211,-1.37026 12.244,0.68766 18.83953,4.09318 7.91671,4.08769 12.78829,8.20876 19.77191,16.72583 5.53611,6.75173 19.51371,27.2096 19.51371,28.56063 0,0.77613 -0.24396,0.81629 -2.84821,0.46884 -4.39934,-0.58694 -15.67354,-0.26918 -16.6758,0.47001 -0.19563,0.14429 -1.93766,0.49979 -3.87117,0.79002 -1.93351,0.29021 -4.311,0.81417 -5.28332,1.16435 -2.10266,0.75726 -13.58561,4.0742 -18.85709,5.44702 -7.89009,2.05478 -16.11692,3.63532 -19.24996,3.69832 -0.97231,0.0195 -3.62409,0.0871 -5.89284,0.15009 -2.26874,0.063 -5.09731,-0.0195 -6.2857,-0.18325 z m 209.07961,-10.62734 c -4.14375,-0.17353 -4.40714,-0.42214 -3.41879,-3.22695 1.26283,-3.5838 2.1002,-7.05627 2.92425,-12.12667 1.25875,-7.74505 0.91486,-7.26595 5.21847,-7.27018 3.54694,-0.003 6.50434,-0.75086 9.53518,-2.40966 6.15577,-3.36909 10.11748,-10.43664 11.60884,-20.70975 0.23123,-1.59288 0.5808,-10.17448 0.77681,-19.07021 0.41166,-18.68251 0.97936,-23.44422 3.70739,-31.09631 1.67628,-4.70196 6.2316,-10.81765 10.44994,-14.02945 3.25948,-2.48172 10.85858,-6.25552 11.82355,-5.87168 0.28246,0.11236 -0.36752,0.6013 -1.44437,1.08652 -3.58969,1.61744 -9.59123,7.31167 -12.50847,11.86788 -3.70636,5.78874 -4.78734,10.36162 -4.72633,19.99373 0.0361,5.724 0.28187,8.60204 1.32039,15.47084 0.70172,4.64125 1.34066,9.2825 1.4199,10.31389 0.0792,1.03139 0.33436,3.03557 0.56697,4.45373 0.23261,1.41816 0.44039,5.53199 0.46176,9.14186 0.0322,5.40828 -0.11958,7.30595 -0.86149,10.7827 -0.49524,2.32063 -1.12196,4.74674 -1.39279,5.39136 -0.27084,0.64461 -0.82088,2.11625 -1.2223,3.2703 -1.6516,4.74818 -6.98419,11.87221 -12.0171,16.05413 -3.72528,3.0954 -7.90941,5.38459 -12.16486,6.65556 -4.64731,1.38801 -5.60666,1.51473 -10.05695,1.32836 z m -13.60892,-77.88306 c -1.17839,-2.71934 -8.81357,-14.41021 -12.74365,-19.51289 -2.18454,-2.83632 -5.6968,-6.99656 -7.80503,-9.24497 -4.81415,-5.13425 -14.71361,-14.11446 -18.47414,-16.75865 -3.23683,-2.27595 -3.54305,-2.66541 -2.78938,-3.54761 0.59303,-0.69418 7.09486,-3.25228 9.57324,-3.76653 0.86428,-0.17934 1.925,-0.41234 2.35714,-0.51779 2.09038,-0.51008 6.74472,-1.4402 7.26784,-1.45241 0.3241,-0.008 1.91517,-0.26471 3.5357,-0.57145 1.62053,-0.30674 3.56517,-0.64108 4.32142,-0.74298 1.36343,-0.18371 7.3294,-2.05676 8.83926,-2.77514 5.69041,-2.70743 9.06125,-5.57801 12.42712,-10.58285 2.04293,-3.03771 5.05498,-9.27739 5.05498,-10.47176 0,-1.93468 1.91751,-1.20295 6.62433,2.52787 3.14353,2.4917 7.86553,8.22526 9.22012,11.19528 1.0168,2.22942 1.60641,4.70231 2.08569,8.74771 0.31335,2.64483 -1.09772,10.15883 -2.64572,14.0886 -2.39287,6.07453 -7.89812,15.99086 -14.16436,25.51353 -1.27254,1.93386 -2.58935,3.93803 -2.92624,4.45373 -0.3369,0.51569 -0.95177,1.57052 -1.36639,2.34406 -5.3902,10.05644 -6.64175,12.21064 -7.16668,12.33551 -0.361,0.0859 -0.86736,-0.43537 -1.22525,-1.26126 z M 111.2546,227.00385 c -0.14661,-0.28309 -1.30537,-0.46007 -2.67496,-0.40856 -3.75086,0.14106 -10.100807,-1.07774 -11.441201,-2.19602 -0.426198,-0.35557 -1.167101,-0.6465 -1.646448,-0.6465 -0.479351,0 -0.980805,-0.21096 -1.114344,-0.46881 -0.133536,-0.25785 -0.561482,-0.46881 -0.950987,-0.46881 -1.276637,0 -6.047278,-2.851 -9.933789,-5.93656 -12.107138,-9.61206 -19.916198,-25.8298 -22.512384,-46.75339 -0.817425,-6.58792 -0.677516,-19.99482 0.229395,-21.98208 l 0.594522,-1.30274 2.629602,3.17799 c 3.338602,4.03486 3.279643,3.97777 6.026661,5.83534 3.007771,2.03389 5.156319,2.68798 8.912697,2.71332 3.630706,0.0245 5.974114,-0.55537 8.915012,-2.20596 3.304832,-1.85485 10.946198,-7.3243 15.910674,-11.38836 6.0957,-4.9901 13.78832,-9.78401 19.07818,-11.88921 3.97529,-1.58204 8.13442,-2.30386 11.09608,-1.92572 1.33804,0.17084 3.75869,0.29739 5.37922,0.28122 1.94164,-0.0194 3.79754,0.29556 5.44223,0.92349 2.68381,1.02468 8.2164,4.65073 9.32355,6.11067 0.37256,0.49127 0.89625,0.89322 1.16375,0.89322 0.56546,0 1.06804,1.2937 0.74495,1.91756 -0.12149,0.23458 -0.99556,0.4265 -1.94237,0.4265 -0.94682,0 -1.83075,0.21097 -1.96428,0.46882 -0.13354,0.25784 -0.84069,0.46881 -1.57143,0.46881 -0.73074,0 -1.42991,0.19557 -1.55371,0.43461 -0.1238,0.23904 -0.88557,0.68467 -1.69282,0.9903 -2.03551,0.77063 -10.98741,5.96229 -11.29079,6.54809 -0.13645,0.26347 -0.9819,0.92578 -1.87877,1.47179 -0.89687,0.54602 -2.85014,2.17799 -4.34061,3.62661 -1.49046,1.44862 -3.26385,3.08246 -3.94086,3.63076 -1.14125,0.92427 -6.25429,7.30021 -9.35132,11.66105 -1.53646,2.16345 -3.90249,6.42973 -5.30019,9.55699 -4.90754,10.9803 -5.79519,24.01379 -2.26306,33.22885 0.52334,1.36533 0.95152,2.60423 0.95152,2.7531 0,0.41815 5.06731,8.99311 5.50532,9.31615 0.21314,0.15719 0.38752,0.58981 0.38752,0.96136 0,0.51238 -0.56371,0.67555 -2.33395,0.67555 -1.28367,0 -2.45035,-0.22474 -2.59261,-0.49943 z"
     style="fill:#808080" />
  <path
     inkscape:connector-curvature="0"
     id="path3051"
     d="m 294.02347,393.91175 c -2.72518,-0.54635 -6.03721,-1.81583 -8.52131,-3.26618 -4.01641,-2.34499 -6.87037,-4.29825 -7.85712,-5.37745 -0.54018,-0.59078 -1.5567,-1.4201 -2.25893,-1.84293 -0.70223,-0.42283 -1.27678,-1.07981 -1.27678,-1.45996 0,-0.38015 -0.31823,-0.69118 -0.70718,-0.69118 -0.74058,0 -5.40234,-4.2315 -6.28829,-5.70792 -0.28234,-0.47051 -0.75848,-0.85547 -1.05808,-0.85547 -0.2996,0 -0.77574,-0.38845 -1.05808,-0.86322 -0.28234,-0.47478 -0.95531,-1.13345 -1.49549,-1.46373 -0.54017,-0.33027 -1.4241,-1.07642 -1.96428,-1.65811 -0.8423,-0.90704 -6.15262,-4.79821 -10.01783,-7.34062 -1.30438,-0.85799 -7.54977,-2.2699 -10.04054,-2.2699 -2.68606,0 -7.15074,0.98555 -9.01298,1.98956 -0.97232,0.52422 -2.91696,1.60048 -4.32142,2.39169 -3.4872,1.96454 -3.44089,1.9496 -2.5305,0.81607 1.75013,-2.17908 5.66779,-5.00947 10.10731,-7.3022 2.84143,-1.46742 5.83974,-2.11444 9.79835,-2.11444 3.83249,0 5.30724,0.3094 8.06768,1.69258 0.70521,0.35336 2.0311,0.77878 2.94642,0.94538 0.91533,0.16661 1.84102,0.45927 2.05709,0.65035 0.21607,0.19109 0.83482,0.5031 1.375,0.69335 1.21233,0.42697 7.23357,3.95082 10.41069,6.09271 2.49197,1.67999 12.4176,7.59553 13.74996,8.1948 0.43214,0.19437 1.4748,0.71055 2.31702,1.14708 2.10692,1.09201 7.72551,1.84843 11.04009,1.4863 1.5125,-0.16524 4.03099,-0.8422 5.59665,-1.50433 2.47755,-1.0478 3.26882,-1.6996 6.10254,-5.02691 2.10974,-2.47722 3.71378,-4.86565 4.55662,-6.78485 0.71541,-1.62902 1.53202,-3.06776 1.81471,-3.19721 0.28268,-0.12945 1.28245,0.24018 2.2217,0.82141 3.64003,2.25253 8.72694,4.17077 13.2925,5.01252 1.10254,0.20328 1.80315,0.58865 1.86951,1.02834 0.31374,2.07872 -7.46514,13.45095 -11.68643,17.08482 -1.78077,1.53296 -2.6327,2.09637 -7.6607,5.06624 -5.85175,3.45642 -13.39917,4.85014 -19.5679,3.61341 z m 41.6118,-38.96504 c -0.40798,-0.28275 -1.64547,-0.57946 -2.75,-0.65935 -2.76806,-0.20021 -4.92027,-0.69646 -5.1779,-1.19391 -0.11879,-0.22936 -0.56104,-0.41701 -0.98279,-0.41701 -0.42174,0 -1.51621,-0.40439 -2.43216,-0.89864 -0.91594,-0.49425 -2.54928,-1.34921 -3.62964,-1.89991 -1.08035,-0.55069 -2.9366,-1.76368 -4.12499,-2.69551 -6.50864,-5.10352 -6.01817,-4.64455 -12.91571,-12.08644 -4.84208,-5.22423 -13.42513,-16.9192 -20.64218,-28.12635 -1.49527,-2.32198 -3.67898,-5.57776 -4.85268,-7.23508 -1.17371,-1.65731 -2.32108,-3.50327 -2.54972,-4.10212 -0.22865,-0.59884 -0.54469,-1.0888 -0.70232,-1.0888 -0.15763,0 -1.87309,-2.26977 -3.81213,-5.04393 -4.08013,-5.83741 -12.34176,-15.31524 -14.74825,-16.91936 -0.90852,-0.60561 -2.01681,-1.50221 -2.46288,-1.99246 -0.44607,-0.49025 -0.9533,-0.89136 -1.12718,-0.89136 -0.17388,0 -1.31159,-0.71808 -2.52824,-1.59574 -1.21666,-0.87765 -4.15674,-2.57146 -6.53352,-3.76402 -2.37678,-1.19256 -4.67499,-2.36417 -5.10713,-2.60358 -1.28834,-0.71374 -10.046,-2.9246 -12.37497,-3.12403 -1.18839,-0.10177 -3.00914,-0.3913 -4.04611,-0.6434 -2.43801,-0.59272 -13.03717,-0.5934 -15.47915,-9.4e-4 -1.03697,0.25156 -3.38807,0.55029 -5.22468,0.66383 -1.8366,0.11355 -5.3723,0.52305 -7.85712,0.91002 -2.48481,0.38696 -6.37409,0.93629 -8.64283,1.22074 -2.26875,0.28445 -5.1857,0.73192 -6.48213,0.99437 -7.85073,1.58936 -29.13785,2.18428 -32.80089,0.9167 -0.75483,-0.26125 -2.42173,-0.47496 -3.70424,-0.47496 -1.28252,0 -2.87475,-0.19513 -3.5383,-0.43361 -0.66356,-0.23849 -2.76186,-0.75553 -4.6629,-1.14898 -1.90103,-0.39345 -4.00542,-1.04219 -4.67641,-1.44164 -0.67099,-0.39945 -1.62436,-0.72628 -2.11859,-0.72628 -0.49422,0 -1.00785,-0.21097 -1.14139,-0.46881 -0.13354,-0.25785 -0.6639,-0.46882 -1.17857,-0.46882 -0.51467,0 -1.04503,-0.21096 -1.17857,-0.46881 -0.13354,-0.25785 -0.63496,-0.46881 -1.11428,-0.46881 -1.02101,0 -8.16767,-3.46745 -11.20172,-5.4349 -1.15596,-0.7496 -3.1006,-2.00982 -4.32142,-2.80051 -3.06287,-1.98373 -7.672882,-5.41003 -7.942672,-5.90324 -0.122658,-0.22423 -1.124374,-1.09038 -2.226033,-1.92477 -3.432699,-2.59992 -4.989077,-3.93904 -5.734624,-4.93416 -0.717799,-0.95808 -0.71589,-0.95898 0.857853,-0.40446 0.867493,0.30566 1.706846,0.71039 1.865234,0.8994 0.158388,0.18902 0.618304,0.34366 1.022035,0.34366 0.403734,0 1.162029,0.33464 1.685101,0.74364 0.523072,0.40899 1.130609,0.61119 1.350078,0.44932 0.219469,-0.16186 0.827272,0.0406 1.350674,0.4498 0.609894,0.47688 1.321104,0.63344 1.980474,0.43594 0.60572,-0.18141 1.26682,-0.0725 1.6075,0.26494 0.51771,0.51274 7.32445,1.08381 12.17897,1.02179 6.45935,-0.0825 11.19968,-0.43974 11.64918,-0.87784 0.29115,-0.28377 1.41328,-0.6161 2.49364,-0.73852 2.90536,-0.32923 9.67568,-2.41763 17.13686,-5.28612 1.64672,-0.6331 3.37038,-1.15108 3.83035,-1.15108 0.45997,0 0.8363,-0.21097 0.8363,-0.46881 0,-0.25785 0.3493,-0.46882 0.77622,-0.46882 0.42692,0 1.35504,-0.42114 2.06249,-0.93587 0.70746,-0.51473 1.64869,-0.93667 2.09164,-0.93763 0.44294,-9.3e-4 0.9733,-0.17785 1.17857,-0.39308 0.20526,-0.21522 1.22794,-0.76692 2.27262,-1.226 1.397,-0.6139 2.01529,-0.6964 2.3375,-0.31189 0.65023,0.77595 1.06665,0.63543 1.06665,-0.35996 0,-0.61 0.67092,-1.26183 2.17145,-2.10966 1.19429,-0.67481 2.3185,-1.22692 2.49823,-1.22692 0.17974,0 1.66599,-0.73838 3.30279,-1.64085 3.36525,-1.85546 3.47569,-1.88962 3.18481,-0.98504 -0.11598,0.36069 -0.0217,0.79531 0.2095,0.96583 0.23323,0.17202 0.58713,-0.21336 0.79496,-0.86569 0.43247,-1.35743 1.67063,-2.42615 3.35607,-2.89682 0.64822,-0.18101 1.44375,-0.58249 1.76786,-0.89216 0.70583,-0.67441 2.5876,-1.58578 3.88415,-1.88117 0.51575,-0.1175 1.23681,-0.53663 1.60236,-0.93141 0.36554,-0.39477 0.78522,-0.71777 0.93261,-0.71777 0.1474,0 1.0174,-0.39564 1.93335,-0.8792 0.91595,-0.48356 2.63768,-1.3528 3.82607,-1.93164 1.18839,-0.57884 3.57499,-1.77872 5.30356,-2.66641 5.69482,-2.92453 8.84979,-4.36783 9.54779,-4.36783 0.37843,0 1.03678,-0.28643 1.46298,-0.63651 0.4262,-0.35008 1.48205,-0.90499 2.34633,-1.23313 0.86429,-0.32814 1.74821,-0.75748 1.96428,-0.95408 0.77221,-0.70265 13.11084,-5.41623 20.62495,-7.87912 5.05992,-1.65848 11.09045,-3.33343 13.74997,-3.81899 1.40446,-0.25642 3.41043,-0.67778 4.45771,-0.93635 2.70367,-0.66753 12.0773,-1.92688 13.87271,-1.8638 0.82985,0.0292 2.8347,-0.16604 4.45523,-0.43378 3.54816,-0.5862 12.99486,-0.61559 17.87496,-0.0556 1.94464,0.22315 5.13482,0.51404 7.0893,0.64644 1.95448,0.13239 4.42948,0.48335 5.49999,0.77991 1.07051,0.29655 2.9187,0.72057 4.10709,0.94226 5.57198,1.03944 6.75867,1.3429 7.28332,1.8625 0.31009,0.30712 0.81014,0.44558 1.11123,0.3077 0.55284,-0.25316 8.35999,2.27363 9.08755,2.9412 0.21607,0.19825 0.83482,0.47023 1.375,0.60439 0.54018,0.13417 2.39642,0.8853 4.12499,1.66919 1.72856,0.78388 4.35262,1.96411 5.83122,2.62273 4.11788,1.83423 16.53298,9.65585 17.54372,11.0527 0.10803,0.1493 1.43392,1.15535 2.94642,2.23566 1.5125,1.08032 3.98749,3.11818 5.49998,4.5286 1.5125,1.41042 3.72232,3.46453 4.91071,4.5647 3.24384,3.00304 13.19885,15.10317 16.14714,19.62654 7.72636,11.85407 12.08013,21.7401 15.79195,35.85851 0.82801,3.14942 1.28128,6.05749 1.88597,12.09978 0.95584,9.55107 -0.52499,19.70039 -4.19274,28.7362 -2.28186,5.62156 -4.4723,9.40237 -8.21715,14.18317 -2.86378,3.656 -9.036,9.86358 -11.04632,11.10961 -0.80888,0.50135 -2.34144,1.59718 -3.40568,2.43519 -1.06425,0.838 -2.26037,1.52364 -2.65805,1.52364 -0.39767,0 -0.83311,0.21252 -0.96764,0.47227 -0.2887,0.55746 -3.28574,2.34061 -3.93398,2.34061 -0.2469,0 -1.3186,0.5267 -2.38156,1.17044 -1.06295,0.64375 -2.55139,1.30415 -3.30764,1.46757 -0.75625,0.16342 -1.55178,0.45078 -1.76785,0.63858 -1.02761,0.89314 -7.14411,2.4326 -8.67211,2.18267 -1.10287,-0.18039 -1.86923,-0.0499 -2.3715,0.40389 -0.90821,0.82051 -8.20682,0.94367 -9.34096,0.15763 z m -3.46216,-24.49118 c 1.58322,-0.95739 1.96328,-1.46958 2.56008,-3.45013 1.31474,-4.36307 -0.11627,-7.69395 -4.17486,-9.71761 -1.35608,-0.67616 -1.55804,-0.66274 -2.97103,0.19749 -2.84253,1.73053 -3.88194,3.11728 -4.16275,5.5538 -0.30121,2.61348 0.18974,4.46969 1.68286,6.3626 1.95568,2.47934 4.16379,2.80868 7.0657,1.05385 z m 48.40848,-37.08906 c 1.7308,-1.06809 3.1346,-3.83028 3.1346,-6.1678 0,-2.73914 -0.51294,-4.07942 -2.1216,-5.54364 -2.90422,-2.64345 -7.40847,-1.80128 -8.88904,1.662 -1.54703,3.61873 -0.59594,8.40397 1.97495,9.93659 1.69072,1.00791 4.3677,1.0591 5.90109,0.11285 z m -182.09707,38.57635 c -1.08035,-0.21816 -2.67142,-0.51616 -3.5357,-0.66224 -0.86429,-0.14607 -1.73937,-0.45495 -1.94464,-0.68639 -0.20527,-0.23143 -0.85778,-0.42079 -1.45002,-0.42079 -0.59225,0 -1.18608,-0.21097 -1.31962,-0.46882 -0.13353,-0.25784 -0.59034,-0.46881 -1.01513,-0.46881 -1.09892,0 -5.68153,-2.84029 -8.84809,-5.48403 -2.59587,-2.16728 -9.97601,-10.60469 -9.97601,-11.40516 0,-0.21419 1.01651,-0.52081 2.25892,-0.68138 9.86345,-1.2748 12.57726,-1.92144 17.18746,-4.0954 9.22496,-4.35007 15.14245,-10.95178 24.53909,-27.37649 3.61399,-6.31702 5.21981,-8.52209 6.4626,-8.87424 2.02248,-0.57309 4.80852,-0.3496 8.75432,0.70224 3.4239,0.91271 5.10051,1.53597 9.33865,3.47154 1.16475,0.53193 3.37694,1.86703 7.08377,4.27513 6.38737,4.14951 14.17995,13.26559 24.45256,28.6056 3.79875,5.67264 7.17172,10.68438 7.49551,11.13719 0.32378,0.45281 0.48715,0.94447 0.36305,1.09257 -0.12411,0.1481 -2.22971,0.0334 -4.67913,-0.25488 -3.67517,-0.43254 -5.44902,-0.39157 -10.1499,0.23448 -3.13302,0.41724 -6.58034,0.86654 -7.66069,0.99844 -1.08035,0.1319 -2.13223,0.43133 -2.33749,0.66541 -0.20527,0.23407 -1.12296,0.42559 -2.03931,0.42559 -0.91636,0 -1.77536,0.21097 -1.9089,0.46882 -0.13354,0.25785 -0.78786,0.46881 -1.45404,0.46881 -0.66618,0 -2.44333,0.43788 -3.94921,0.97306 -1.50588,0.53518 -3.91154,1.28891 -5.34591,1.67497 -1.43437,0.38605 -3.31509,0.89879 -4.17937,1.13942 -2.25028,0.62649 -4.7032,1.25249 -7.85712,2.00515 -1.5125,0.36095 -3.54553,0.87508 -4.51785,1.14251 -2.86876,0.78905 -7.90506,1.56453 -10.01783,1.54255 -1.08036,-0.0113 -4.1741,0.0408 -6.87498,0.11567 -2.70089,0.0749 -5.79463,-0.0424 -6.87499,-0.26052 z M 405.06644,321.1481 c -0.10068,-0.19374 0.29023,-1.98695 0.86868,-3.98491 1.17932,-4.07335 1.84166,-6.99786 2.52153,-11.13368 0.25432,-1.54708 0.63248,-3.604 0.84036,-4.57093 l 0.37797,-1.75805 3.57215,0 c 2.97756,0 4.16844,-0.24432 7.15444,-1.4678 4.00406,-1.64061 4.95614,-2.35306 7.98232,-5.97323 5.57654,-6.67111 6.65981,-12.11889 7.18998,-36.15861 0.39219,-17.78299 0.78784,-21.42122 3.0687,-28.21872 1.59687,-4.75907 3.81128,-8.53343 7.12455,-12.14346 2.34252,-2.55237 7.1028,-6.06925 10.13639,-7.48877 1.4408,-0.67419 1.00791,0.17105 -0.78642,1.53553 -2.67499,2.03417 -6.84225,6.78372 -8.74725,9.96949 -0.96851,1.61967 -1.76094,3.13215 -1.76094,3.36107 0,0.22892 -0.3256,1.15148 -0.72356,2.05013 -1.69746,3.83309 -2.24023,11.94398 -1.37995,20.62084 0.56285,5.67653 0.58029,5.81543 1.7068,13.59559 1.5618,10.78631 1.77041,13.15009 1.73784,19.69016 -0.0381,7.62438 -0.68797,11.27327 -3.16198,17.75187 -4.38034,11.47041 -15.02527,21.23237 -26.23863,24.06217 -2.30517,0.58173 -11.21114,0.7844 -11.48298,0.26131 z m -10.37615,-78.22846 c -2.61737,-5.28181 -7.9113,-13.15883 -14.58008,-21.6942 -1.2578,-1.60985 -1.73111,-2.56847 -1.5888,-3.21787 0.1644,-0.75023 0.0555,-0.86919 -0.57653,-0.6298 -0.51665,0.19568 -1.10337,-0.0628 -1.74119,-0.76705 -0.52908,-0.5842 -1.68772,-1.74734 -2.57476,-2.58475 -0.88704,-0.83742 -1.72382,-2.05047 -1.85952,-2.69568 -0.14456,-0.68734 -0.52879,-1.1731 -0.92789,-1.1731 -0.64129,0 -4.02697,-2.81 -7.96521,-6.61086 -0.96214,-0.92857 -3.56887,-3.01146 -5.79274,-4.62863 -2.22387,-1.61717 -3.97846,-3.17805 -3.89908,-3.46863 0.40969,-1.49986 11.06171,-4.7027 20.51387,-6.1681 7.86115,-1.21874 12.81322,-2.47815 15.71425,-3.99645 0.86428,-0.45234 2.43915,-1.26744 3.49971,-1.81135 2.04824,-1.05045 5.48268,-4.21968 7.60586,-7.01855 2.36557,-3.11838 5.60948,-9.43226 6.13202,-11.93523 0.24352,-1.16643 0.41292,-1.29715 1.34196,-1.03558 0.58479,0.16465 1.81976,0.9236 2.74438,1.68655 0.92462,0.76295 1.81722,1.38719 1.98356,1.38719 0.42781,0 3.78181,3.51732 6.25863,6.56339 4.98689,6.13301 6.3208,13.74258 3.9897,22.76 -1.22699,4.74636 -4.7629,12.56128 -8.26238,18.26116 -2.13268,3.47365 -5.7944,9.36893 -6.40627,10.31389 -0.33391,0.5157 -1.12641,1.78149 -1.76112,2.81288 -0.63471,1.03139 -1.52139,2.31939 -1.97041,2.86222 -0.44902,0.54283 -0.81639,1.15582 -0.81639,1.36219 0,0.20637 -0.48616,1.12901 -1.08036,2.05031 -1.11235,1.7247 -4.10085,7.2996 -5.28528,9.85942 -0.89747,1.93965 -1.5535,1.82203 -2.69593,-0.48337 z M 112.05617,226.91572 c -0.43278,-0.32194 -2.19742,-0.61341 -3.92856,-0.64891 -4.36547,-0.0895 -8.649167,-0.89563 -10.350442,-1.94781 -0.789381,-0.48821 -1.640021,-0.80419 -1.890306,-0.70219 -0.250288,0.102 -0.570097,-0.0367 -0.710684,-0.3081 -0.140588,-0.27146 -0.593516,-0.49356 -1.006502,-0.49356 -1.397613,0 -8.975686,-4.61533 -10.499683,-6.39471 -0.271368,-0.31684 -0.829588,-0.7034 -1.24049,-0.85903 -0.410902,-0.15563 -0.84627,-0.59138 -0.967485,-0.96834 -0.121215,-0.37696 -0.432189,-0.68538 -0.691053,-0.68538 -0.953431,0 -6.344169,-6.55871 -8.862522,-10.7827 -2.048295,-3.43558 -5.350568,-10.67869 -6.501982,-14.26127 -1.241115,-3.86168 -2.683057,-9.25701 -3.07973,-11.52346 -1.88025,-10.74311 -2.121829,-29.53524 -0.379686,-29.53524 0.540099,0 5.323491,6.31619 5.325641,7.0322 0.0012,0.38677 0.354732,0.7164 0.785713,0.73251 1.268416,0.0474 4.829513,2.18896 4.024663,2.42031 -0.826892,0.23769 -0.9264,1.53531 -0.117735,1.53531 0.31337,0 0.732175,-0.34633 0.930679,-0.76961 0.271343,-0.57861 0.641807,-0.68462 1.492731,-0.42714 3.623638,1.09649 11.999335,0.24626 13.495905,-1.36998 0.364119,-0.39323 0.94705,-0.71496 1.295412,-0.71496 0.348357,0 0.742639,-0.21097 0.876175,-0.46882 0.13354,-0.25784 0.492374,-0.46881 0.797415,-0.46881 0.305038,0 1.311119,-0.61148 2.235737,-1.35884 0.924618,-0.74736 3.448974,-2.67441 5.609683,-4.28234 2.160706,-1.60792 4.370526,-3.31616 4.910706,-3.79609 0.54017,-0.47993 1.68928,-1.32378 2.55356,-1.87522 0.86428,-0.55144 1.65982,-1.16449 1.76785,-1.36234 0.29113,-0.53316 8.56622,-6.0777 9.07082,-6.0777 0.23811,0 0.90217,-0.30776 1.47569,-0.68391 4.53577,-2.97486 8.65886,-4.18105 14.007,-4.09768 2.37678,0.037 5.77247,0.0717 7.54599,0.077 4.43387,0.0133 7.1214,1.21367 13.16417,5.87973 3.14598,2.42923 3.68013,3.34164 2.17371,3.71303 -1.16983,0.28841 -3.3386,0.70482 -4.8698,0.93501 -0.67973,0.10218 -1.65205,0.49953 -2.16071,0.88298 -0.50865,0.38346 -1.36679,0.83809 -1.90696,1.01029 -0.89088,0.28399 -5.23094,2.62833 -6.67856,3.60751 -0.32411,0.21922 -1.03125,0.62311 -1.57142,0.89751 -0.54018,0.27441 -1.33571,0.87616 -1.76786,1.33722 -0.43214,0.46106 -1.57362,1.34361 -2.53664,1.96122 -0.96301,0.61762 -2.03753,1.43939 -2.38782,1.82616 -0.35029,0.38677 -1.75349,1.75805 -3.11822,3.04729 -1.36473,1.28923 -3.24352,3.15342 -4.17508,4.14264 -1.02657,1.0901 -1.88167,1.65998 -2.17081,1.44674 -0.32052,-0.23639 -0.40129,-0.11623 -0.24616,0.36619 0.14605,0.45419 -0.44292,1.57587 -1.60288,3.05264 -6.29117,8.00944 -10.14219,15.8013 -12.23758,24.76059 -1.64473,7.03242 -1.06135,18.71307 1.16635,23.35321 0.39071,0.8138 0.83462,1.97608 0.98648,2.58282 0.37751,1.50839 3.18976,6.37248 5.25755,9.09352 l 0.97972,1.28924 -0.95742,0.006 c -0.52659,0.004 -1.311,0.10831 -1.74314,0.23286 -0.43214,0.12456 -1.13929,-0.0366 -1.57143,-0.35801 z"
     style="fill:#808080" />
</svg>
