<?xml version="1.0" encoding="UTF-8" standalone="no"?>
<!-- Generator: flash2svg, http://dissentgraphics.com/tools/flash2svg -->

<svg
   xmlns:dc="http://purl.org/dc/elements/1.1/"
   xmlns:cc="http://creativecommons.org/ns#"
   xmlns:rdf="http://www.w3.org/1999/02/22-rdf-syntax-ns#"
   xmlns:svg="http://www.w3.org/2000/svg"
   xmlns="http://www.w3.org/2000/svg"
   xmlns:sodipodi="http://sodipodi.sourceforge.net/DTD/sodipodi-0.dtd"
   xmlns:inkscape="http://www.inkscape.org/namespaces/inkscape"
   id="VMWare-Fusion-app"
   image-rendering="optimizeSpeed"
   version="1.1"
   style="background-color:#ffffff"
   x="0px"
   y="0px"
   width="1024px"
   height="1024px"
   viewBox="0 0 1024 1024"
   enable-background="new 0 0 1024 1024"
   inkscape:version="0.48.5 r10040"
   sodipodi:docname="VMWare-Fusion-app.svg">
  <metadata
     id="metadata20">
    <rdf:RDF>
      <cc:Work
         rdf:about="">
        <dc:format>image/svg+xml</dc:format>
        <dc:type
           rdf:resource="http://purl.org/dc/dcmitype/StillImage" />
        <dc:title></dc:title>
      </cc:Work>
    </rdf:RDF>
  </metadata>
  <sodipodi:namedview
     pagecolor="#ffffff"
     bordercolor="#666666"
     borderopacity="1"
     objecttolerance="10"
     gridtolerance="10"
     guidetolerance="10"
     inkscape:pageopacity="0"
     inkscape:pageshadow="2"
     inkscape:window-width="640"
     inkscape:window-height="480"
     id="namedview18"
     showgrid="false"
     inkscape:zoom="0.23046875"
     inkscape:cx="512"
     inkscape:cy="512"
     inkscape:window-x="15"
     inkscape:window-y="39"
     inkscape:window-maximized="0"
     inkscape:current-layer="VMWare-Fusion-app" />
  <defs
     transform="matrix(1 0 0 1 0 0) "
     id="defs3" />
  <g
     id="Logo"
     transform="matrix(1.653267,0,0,1.653267,-334.67485,-332.97992)">
    <g
       id="shape6">
      <path
         id="path3"
         d="M 770.9,432.55 Q 760.75,422.4 746.45,422.4 l -144.75,0 0,179.3 -179.3,-179.3 0,179.3 0,144.75 c 0,9.5 3.4,17.7 10.15,24.45 6.75,6.75 14.9,10.15 24.45,10.15 l 289.45,0 c 9.5,0 17.7,-3.4 24.45,-10.15 6.75,-6.75 10.15,-14.95 10.15,-24.45 l 0,-289.45 c 0,-9.55 -3.4,-17.7 -10.15,-24.45 z"
         inkscape:connector-curvature="0"
         style="fill:#c42f41;fill-opacity:1" />
      <path
         id="path4"
         d="m 601.7,277.65 c 0,-9.5 -3.4,-17.7 -10.15,-24.45 -6.75,-6.75 -14.9,-10.15 -24.45,-10.15 l -289.45,0 c -9.5,0 -17.7,3.4 -24.45,10.15 -6.75,6.75 -10.15,14.95 -10.15,24.45 l 0,289.45 c 0,9.55 3.4,17.7 10.15,24.45 6.75,6.75 14.95,10.15 24.45,10.15 l 144.75,0 0,-179.3 179.3,179.3 0,-179.3 0,-144.75 z"
         inkscape:connector-curvature="0"
         style="fill:#6b9bd8;fill-opacity:1" />
    </g>
  </g>
</svg>
