<?xml version="1.0" encoding="UTF-8" standalone="no"?>
<!-- Created with Inkscape (http://www.inkscape.org/) -->

<svg
   xmlns:dc="http://purl.org/dc/elements/1.1/"
   xmlns:cc="http://creativecommons.org/ns#"
   xmlns:rdf="http://www.w3.org/1999/02/22-rdf-syntax-ns#"
   xmlns:svg="http://www.w3.org/2000/svg"
   xmlns="http://www.w3.org/2000/svg"
   xmlns:xlink="http://www.w3.org/1999/xlink"
   xmlns:sodipodi="http://sodipodi.sourceforge.net/DTD/sodipodi-0.dtd"
   xmlns:inkscape="http://www.inkscape.org/namespaces/inkscape"
   width="96"
   height="96"
   id="svg2"
   version="1.1"
   inkscape:version="0.48.4 r9939"
   sodipodi:docname="user-trash.svg">
  <metadata
     id="metadata7">
    <rdf:RDF>
      <cc:Work
         rdf:about="">
        <dc:format>image/svg+xml</dc:format>
        <dc:type
           rdf:resource="http://purl.org/dc/dcmitype/StillImage" />
        <dc:title />
      </cc:Work>
    </rdf:RDF>
  </metadata>
  <sodipodi:namedview
     id="base"
     pagecolor="#ffffff"
     bordercolor="#44cc00"
     borderopacity="1"
     inkscape:pageopacity="0.0"
     inkscape:pageshadow="2"
     inkscape:zoom="2.8"
     inkscape:cx="76.14249"
     inkscape:cy="105.99822"
     inkscape:document-units="px"
     showgrid="false"
     inkscape:showpageshadow="false"
     objecttolerance="5"
     gridtolerance="3"
     guidetolerance="5"
     inkscape:window-width="1440"
     inkscape:window-height="830"
     inkscape:window-x="0"
     inkscape:window-y="24"
     inkscape:window-maximized="1"
     showguides="true"
     inkscape:guide-bbox="true"
     inkscape:current-layer="layer1" />
  <defs
     id="defs4">
    <linearGradient
       id="linearGradient4245">
      <stop
         style="stop-color:#677484;stop-opacity:1;"
         offset="0"
         id="stop4247" />
      <stop
         id="stop4249"
         offset="0.01467601"
         style="stop-color:#4c5762;stop-opacity:1;" />
      <stop
         id="stop4251"
         offset="0.13164333"
         style="stop-color:#8f9cab;stop-opacity:1;" />
      <stop
         id="stop4253"
         offset="0.25156742"
         style="stop-color:#b0bac5;stop-opacity:1;" />
      <stop
         id="stop4255"
         offset="0.47500879"
         style="stop-color:#cbd2d8;stop-opacity:1;" />
      <stop
         id="stop4257"
         offset="0.63242704"
         style="stop-color:#ffffff;stop-opacity:1;" />
      <stop
         style="stop-color:#ffffff;stop-opacity:1;"
         offset="0.7398482"
         id="stop4259" />
      <stop
         style="stop-color:#c2cad2;stop-opacity:1;"
         offset="0.84821433"
         id="stop4261" />
      <stop
         id="stop4263"
         offset="0.89441282"
         style="stop-color:#b7bfc6;stop-opacity:1;" />
      <stop
         style="stop-color:#5d6c7b;stop-opacity:1;"
         offset="1"
         id="stop4265" />
    </linearGradient>
    <linearGradient
       id="linearGradient3853">
      <stop
         style="stop-color:#393f42;stop-opacity:1;"
         offset="0"
         id="stop3855" />
      <stop
         style="stop-color:#404648;stop-opacity:1;"
         offset="1"
         id="stop3857" />
    </linearGradient>
    <linearGradient
       id="linearGradient3829">
      <stop
         style="stop-color:#2e3436;stop-opacity:1;"
         offset="0"
         id="stop3831" />
      <stop
         style="stop-color:#303739;stop-opacity:1;"
         offset="1"
         id="stop3833" />
    </linearGradient>
    <linearGradient
       inkscape:collect="always"
       xlink:href="#linearGradient4245"
       id="linearGradient3794"
       x1="111.10714"
       y1="109.40729"
       x2="420.85715"
       y2="109.40729"
       gradientUnits="userSpaceOnUse"
       gradientTransform="matrix(0.74962409,0,0,0.74962409,0.26695354,667.59267)" />
    <linearGradient
       inkscape:collect="always"
       xlink:href="#linearGradient3829"
       id="linearGradient3835"
       x1="86.907646"
       y1="128.83484"
       x2="417.96683"
       y2="128.83484"
       gradientUnits="userSpaceOnUse"
       gradientTransform="matrix(0.74962409,0,0,0.74962409,0.26695354,667.59267)" />
    <linearGradient
       inkscape:collect="always"
       xlink:href="#linearGradient4245"
       id="linearGradient3843"
       x1="111.64286"
       y1="308.18103"
       x2="415.5"
       y2="308.18103"
       gradientUnits="userSpaceOnUse"
       gradientTransform="matrix(0.74962409,0,0,0.74962409,0.26695354,667.59267)" />
    <linearGradient
       inkscape:collect="always"
       xlink:href="#linearGradient3829"
       id="linearGradient3851"
       x1="367"
       y1="464.23215"
       x2="438"
       y2="464.23215"
       gradientUnits="userSpaceOnUse"
       gradientTransform="matrix(0.74962409,0,0,0.74962409,0.26695354,667.59267)" />
    <linearGradient
       inkscape:collect="always"
       xlink:href="#linearGradient3853"
       id="linearGradient3859"
       x1="380.62653"
       y1="477.55722"
       x2="374.86365"
       y2="485.00708"
       gradientUnits="userSpaceOnUse"
       gradientTransform="matrix(0.74962409,0,0,0.74962409,0.26695354,667.59267)" />
    <linearGradient
       inkscape:collect="always"
       xlink:href="#linearGradient3829"
       id="linearGradient3867"
       x1="113.875"
       y1="466.23593"
       x2="414.96429"
       y2="466.23593"
       gradientUnits="userSpaceOnUse"
       gradientTransform="matrix(0.74962409,0,0,0.74962409,0.26695354,667.59267)" />
    <linearGradient
       id="linearGradient4014">
      <stop
         style="stop-color:#000000;stop-opacity:1;"
         offset="0"
         id="stop4016" />
      <stop
         style="stop-color:#434343;stop-opacity:0;"
         offset="1"
         id="stop4018" />
    </linearGradient>
    <radialGradient
       inkscape:collect="always"
       xlink:href="#linearGradient4014"
       id="radialGradient3928"
       gradientUnits="userSpaceOnUse"
       gradientTransform="matrix(0.92933631,-0.00955121,-0.0359355,0.25912257,35.576681,329.23482)"
       cx="279.30719"
       cy="440.78424"
       fx="279.30719"
       fy="440.78424"
       r="202.02544" />
    <linearGradient
       id="linearGradient3927">
      <stop
         style="stop-color:#c7ced6;stop-opacity:1;"
         offset="0"
         id="stop3929" />
      <stop
         id="stop3931"
         offset="0.39771599"
         style="stop-color:#b7c0ca;stop-opacity:1;" />
      <stop
         style="stop-color:#9faab5;stop-opacity:1;"
         offset="1"
         id="stop3933" />
    </linearGradient>
    <linearGradient
       y2="73.443436"
       x2="263.68088"
       y1="37.433083"
       x1="257.71649"
       gradientUnits="userSpaceOnUse"
       id="linearGradient3125"
       xlink:href="#linearGradient3927"
       inkscape:collect="always" />
    <linearGradient
       id="linearGradient4167-1">
      <stop
         style="stop-color:#ffffff;stop-opacity:0;"
         offset="0"
         id="stop4169-1" />
      <stop
         id="stop4171-0"
         offset="0.51920968"
         style="stop-color:#ffffff;stop-opacity:0.63492066;" />
      <stop
         style="stop-color:#ffffff;stop-opacity:0;"
         offset="1"
         id="stop4173-3" />
    </linearGradient>
    <linearGradient
       gradientTransform="matrix(0.74962411,0,0,0.74962411,-0.91955543,666.11075)"
       y2="91.398506"
       x2="397.64285"
       y1="91.398506"
       x1="137.35715"
       gradientUnits="userSpaceOnUse"
       id="linearGradient3346"
       xlink:href="#linearGradient4167-1"
       inkscape:collect="always" />
  </defs>
  <g
     id="layer1"
     transform="matrix(0.25513035,0,0,0.25513035,-1.2540149,-171.50928)">
    <path
       sodipodi:type="arc"
       style="opacity:0.72454541;fill:url(#radialGradient3928);fill-opacity:1;stroke:none"
       id="path4012"
       sodipodi:cx="279.30719"
       sodipodi:cy="440.78424"
       sodipodi:rx="201.52544"
       sodipodi:ry="55.053314"
       d="m 480.83263,440.78424 a 201.52544,55.053314 0 1 1 -403.050876,0 201.52544,55.053314 0 1 1 403.050876,0 z"
       transform="matrix(0.75512679,0,0.96286906,0.66847908,-437.86869,717.06299)" />
    <path
       style="fill:url(#linearGradient3867);fill-opacity:1;stroke:none"
       d="m 311.36096,995.8477 -7.77977,6.4525 c 0,0 -16.03682,10.743 -24.56289,15.227 -3.99283,2.0999 -8.12502,3.9781 -12.39399,5.4369 -6.04375,2.0652 -12.30073,3.5254 -18.5877,4.6508 -9.21061,1.6487 -18.55174,2.7642 -27.9042,3.0558 -16.36267,0.5102 -32.78227,-0.5369 -49.05824,-2.2947 -13.36478,-1.4434 -26.87296,-2.9251 -39.75686,-6.76 -9.35162,-2.7835 -18.26838,-7.0171 -26.84333,-11.6723 -7.376364,-4.0046 -20.998752,-13.89521 -20.998752,-13.89521 l 0.224888,15.16851 c 0,0 18.626254,9.9994 28.608874,13.3133 19.14173,6.3543 39.2041,9.9797 59.2337,12.3459 15.67131,1.8513 31.56272,2.2573 47.32002,1.4056 12.00998,-0.6492 23.98191,-2.4261 35.741,-4.9529 6.50159,-1.3971 13.19703,-2.6407 19.14171,-5.6212 7.60687,-3.814 13.2868,-10.6801 20.41713,-15.3243 4.32108,-2.8144 13.49603,-7.5625 13.49603,-7.5625 0,0 1.38885,-1.1654 2.06161,-1.7726 0.55926,-0.5049 1.64077,-1.5545 1.64077,-1.5545 z"
       id="path3000"
       inkscape:connector-curvature="0"
       sodipodi:nodetypes="ccaaaaaaaccaaaaaacacc" />
    <path
       style="fill:url(#linearGradient3859);fill-opacity:1;stroke:none"
       d="m 273.49734,1028.14 0.75723,-11.7847 2.65134,-0.9371 26.20919,17.2414 z"
       id="path2996"
       inkscape:connector-curvature="0"
       sodipodi:nodetypes="ccccc" />
    <path
       style="fill:url(#linearGradient3851);fill-opacity:1;stroke:none"
       d="m 274.4869,1015.4279 27.16714,-14.4677 27.80397,16.5406 -26.34291,15.1588 z"
       id="path2998"
       inkscape:connector-curvature="0"
       sodipodi:nodetypes="ccccc" />
    <path
       style="fill:url(#linearGradient3843);fill-opacity:1;stroke:none"
       d="m 273.74589,1019.894 c -10.19093,4.7925 -18.48072,5.8392 -27.98852,7.5775 -9.51156,1.7389 -19.20768,2.4668 -28.87057,2.8166 -14.63182,0.5297 -29.32884,0.2273 -43.91062,-1.0926 -11.92981,-1.0799 -23.8583,-2.7557 -35.50123,-5.5715 -11.89742,-2.8774 -23.8928,-6.0971 -34.86967,-11.5134 -6.918414,-3.4138 -13.024764,-7.7246 -19.130052,-13.02709 l 0,-235.64363 c 0,0 18.180182,8.48826 27.773662,11.28566 12.84691,3.74605 26.19617,5.68261 39.48646,7.24603 17.28577,2.03344 34.73742,2.756 52.14239,2.75087 15.14018,-0.005 30.342,-0.46946 45.35607,-2.41959 9.17855,-1.19218 18.28344,-3.11891 27.18536,-5.65327 8.07748,-2.29965 16.02351,-5.15972 23.67051,-8.6321 4.25049,-1.93007 12.27128,-6.74852 12.27128,-6.74852 l 0,234.47063 c 0,0 -2.72622,2.92501 -4.27583,4.17775 -1.12267,0.90766 -3.60854,2.39486 -3.60854,2.39486 l -1.31007,-0.438 -25.84478,13.544 -2.30812,1.7402 z"
       id="path3002"
       inkscape:connector-curvature="0"
       sodipodi:nodetypes="caaaaaccaaaaaaccaccccc" />
    <path
       style="fill:url(#linearGradient3835);fill-opacity:1;stroke:none"
       d="m 311.36096,759.18066 c 0,0 -6.26653,3.31396 -9.66164,4.22336 -39.3175,10.53122 -80.65555,14.1648 -121.35459,13.56513 -27.23768,-0.40133 -54.51166,-4.75885 -80.913354,-11.4673 -5.47568,-1.39132 -15.881185,-5.92099 -15.881185,-5.92099 0,0 -0.07496,-10.63796 -0.07496,-15.89704 -8.936068,0.1364 -10.410905,2.02101 -13.623274,5.76138 -3.1711,3.69231 -3.963005,9.29997 -3.591292,14.15289 0.275932,3.60244 1.683293,7.41947 4.234848,9.97744 3.322891,3.33126 6.12197,5.07686 12.979718,5.5477 l 0.02369,-13.43997 c 0,0 7.522479,3.48601 11.423219,4.8717 7.964619,2.82934 16.085299,5.33373 24.372379,6.99652 17.86825,3.58523 36.11048,5.27059 54.30261,6.35433 17.98551,1.07144 36.06783,1.2294 54.05202,0.13601 14.68766,-0.893 29.44361,-2.25549 43.80562,-5.45827 11.41473,-2.54552 22.61883,-6.24028 33.3605,-10.86544 2.28146,-0.98235 6.54569,-3.56161 6.54569,-3.56161 z"
       id="path3004"
       inkscape:connector-curvature="0"
       sodipodi:nodetypes="caaaccaaaccaaaaaacc" />
    <path
       style="fill:url(#linearGradient3794);fill-opacity:1;stroke:none"
       d="m 311.36096,759.31452 0,-40.87912 c 0,0 -12.82221,8.18948 -19.98236,10.50434 -22.75959,7.35813 -47.17258,8.56974 -71.04222,10.11303 -19.19621,1.24113 -38.50157,0.42354 -57.70454,-0.70822 -24.1408,-3.35024 -49.24433,-1.54379 -69.965864,-11.08306 -3.44977,-1.63775 -9.190748,-8.67587 -9.190748,-8.67587 l 0,41.11704 c 0,0 12.821898,5.47132 19.477382,7.49624 9.86009,2.99991 19.95739,5.32904 30.15131,6.84712 23.38866,3.483 47.10955,5.43952 70.75408,5.12872 25.63861,-0.33701 51.49616,-2.11401 76.5485,-7.57589 6.27991,-1.36914 12.28439,-3.8376 18.23763,-6.26056 4.34442,-1.76817 12.71683,-6.02377 12.71683,-6.02377 z"
       id="path3006"
       inkscape:connector-curvature="0"
       sodipodi:nodetypes="ccaaccccaaaaac" />
    <path
       sodipodi:type="arc"
       style="fill:url(#linearGradient3125);fill-opacity:1;stroke:none"
       id="path3096-7"
       sodipodi:cx="261.07144"
       sodipodi:cy="56.642857"
       sodipodi:rx="152.5"
       sodipodi:ry="31.071428"
       d="m 413.57144,56.642857 a 152.5,31.071428 0 1 1 -305,0 152.5,31.071428 0 1 1 305,0 z"
       transform="matrix(0.74726291,0,0,0.73403791,2.3023525,676.98877)" />
    <path
       sodipodi:nodetypes="caaaaac"
       inkscape:connector-curvature="0"
       id="path4067-2"
       d="m 101.9482,731.73912 c 0,0 16.23411,4.269 24.50157,5.64452 9.32481,1.55143 18.77071,2.37587 28.20775,2.92459 17.8789,1.03956 35.82114,1.20489 53.72283,0.69031 17.76011,-0.51054 35.54388,-1.51349 53.17058,-3.74533 7.94999,-1.00662 15.93665,-2.15151 23.64516,-4.3411 4.31563,-1.22584 12.53875,-4.89141 12.53875,-4.89141"
       style="fill:none;stroke:url(#linearGradient3346);stroke-width:0.74962413px;stroke-linecap:butt;stroke-linejoin:miter;stroke-opacity:1" />
  </g>
</svg>
