<?xml version="1.0" encoding="UTF-8" standalone="no"?>
<!-- Created with Inkscape (http://www.inkscape.org/) -->

<svg
   xmlns:dc="http://purl.org/dc/elements/1.1/"
   xmlns:cc="http://creativecommons.org/ns#"
   xmlns:rdf="http://www.w3.org/1999/02/22-rdf-syntax-ns#"
   xmlns:svg="http://www.w3.org/2000/svg"
   xmlns="http://www.w3.org/2000/svg"
   xmlns:xlink="http://www.w3.org/1999/xlink"
   xmlns:sodipodi="http://sodipodi.sourceforge.net/DTD/sodipodi-0.dtd"
   xmlns:inkscape="http://www.inkscape.org/namespaces/inkscape"
   width="128"
   height="128"
   id="svg2"
   version="1.1"
   inkscape:version="0.48.4 r9939"
   sodipodi:docname="xfce-trash_empty.svg">
  <metadata
     id="metadata7">
    <rdf:RDF>
      <cc:Work
         rdf:about="">
        <dc:format>image/svg+xml</dc:format>
        <dc:type
           rdf:resource="http://purl.org/dc/dcmitype/StillImage" />
        <dc:title />
      </cc:Work>
    </rdf:RDF>
  </metadata>
  <sodipodi:namedview
     id="base"
     pagecolor="#ffffff"
     bordercolor="#44cc00"
     borderopacity="1"
     inkscape:pageopacity="0.0"
     inkscape:pageshadow="2"
     inkscape:zoom="7.919596"
     inkscape:cx="3.6788873"
     inkscape:cy="128.54564"
     inkscape:document-units="px"
     showgrid="false"
     inkscape:showpageshadow="false"
     objecttolerance="5"
     gridtolerance="3"
     guidetolerance="5"
     inkscape:window-width="1440"
     inkscape:window-height="830"
     inkscape:window-x="0"
     inkscape:window-y="24"
     inkscape:window-maximized="1"
     showguides="true"
     inkscape:guide-bbox="true"
     inkscape:current-layer="layer1" />
  <defs
     id="defs4">
    <linearGradient
       id="linearGradient4245">
      <stop
         style="stop-color:#677484;stop-opacity:1;"
         offset="0"
         id="stop4247" />
      <stop
         id="stop4249"
         offset="0.01467601"
         style="stop-color:#4c5762;stop-opacity:1;" />
      <stop
         id="stop4251"
         offset="0.13164333"
         style="stop-color:#8f9cab;stop-opacity:1;" />
      <stop
         id="stop4253"
         offset="0.25156742"
         style="stop-color:#b0bac5;stop-opacity:1;" />
      <stop
         id="stop4255"
         offset="0.47500879"
         style="stop-color:#cbd2d8;stop-opacity:1;" />
      <stop
         id="stop4257"
         offset="0.63242704"
         style="stop-color:#ffffff;stop-opacity:1;" />
      <stop
         style="stop-color:#ffffff;stop-opacity:1;"
         offset="0.7398482"
         id="stop4259" />
      <stop
         style="stop-color:#c2cad2;stop-opacity:1;"
         offset="0.84821433"
         id="stop4261" />
      <stop
         id="stop4263"
         offset="0.89441282"
         style="stop-color:#b7bfc6;stop-opacity:1;" />
      <stop
         style="stop-color:#5d6c7b;stop-opacity:1;"
         offset="1"
         id="stop4265" />
    </linearGradient>
    <linearGradient
       id="linearGradient3853">
      <stop
         style="stop-color:#393f42;stop-opacity:1;"
         offset="0"
         id="stop3855" />
      <stop
         style="stop-color:#404648;stop-opacity:1;"
         offset="1"
         id="stop3857" />
    </linearGradient>
    <linearGradient
       id="linearGradient3829">
      <stop
         style="stop-color:#2e3436;stop-opacity:1;"
         offset="0"
         id="stop3831" />
      <stop
         style="stop-color:#303739;stop-opacity:1;"
         offset="1"
         id="stop3833" />
    </linearGradient>
    <linearGradient
       inkscape:collect="always"
       xlink:href="#linearGradient4245"
       id="linearGradient3794"
       x1="111.10714"
       y1="109.40729"
       x2="420.85715"
       y2="109.40729"
       gradientUnits="userSpaceOnUse" />
    <linearGradient
       inkscape:collect="always"
       xlink:href="#linearGradient3829"
       id="linearGradient3835"
       x1="86.907646"
       y1="128.83484"
       x2="417.96683"
       y2="128.83484"
       gradientUnits="userSpaceOnUse" />
    <linearGradient
       inkscape:collect="always"
       xlink:href="#linearGradient4245"
       id="linearGradient3843"
       x1="111.64286"
       y1="308.18103"
       x2="415.5"
       y2="308.18103"
       gradientUnits="userSpaceOnUse" />
    <linearGradient
       inkscape:collect="always"
       xlink:href="#linearGradient3829"
       id="linearGradient3851"
       x1="367"
       y1="464.23215"
       x2="438"
       y2="464.23215"
       gradientUnits="userSpaceOnUse" />
    <linearGradient
       inkscape:collect="always"
       xlink:href="#linearGradient3853"
       id="linearGradient3859"
       x1="380.62653"
       y1="477.55722"
       x2="374.86365"
       y2="485.00708"
       gradientUnits="userSpaceOnUse" />
    <linearGradient
       inkscape:collect="always"
       xlink:href="#linearGradient3829"
       id="linearGradient3867"
       x1="113.875"
       y1="466.23593"
       x2="414.96429"
       y2="466.23593"
       gradientUnits="userSpaceOnUse" />
    <linearGradient
       id="linearGradient4014">
      <stop
         style="stop-color:#000000;stop-opacity:1;"
         offset="0"
         id="stop4016" />
      <stop
         style="stop-color:#434343;stop-opacity:0;"
         offset="1"
         id="stop4018" />
    </linearGradient>
    <radialGradient
       inkscape:collect="always"
       xlink:href="#linearGradient4014"
       id="radialGradient3928"
       gradientUnits="userSpaceOnUse"
       gradientTransform="matrix(0.92933631,-0.00955121,-0.0359355,0.25912257,35.576681,329.23482)"
       cx="279.30719"
       cy="440.78424"
       fx="279.30719"
       fy="440.78424"
       r="202.02544" />
    <linearGradient
       id="linearGradient3927">
      <stop
         style="stop-color:#c7ced6;stop-opacity:1;"
         offset="0"
         id="stop3929" />
      <stop
         id="stop3931"
         offset="0.39771599"
         style="stop-color:#b7c0ca;stop-opacity:1;" />
      <stop
         style="stop-color:#9faab5;stop-opacity:1;"
         offset="1"
         id="stop3933" />
    </linearGradient>
    <linearGradient
       y2="73.443436"
       x2="263.68088"
       y1="37.433083"
       x1="257.71649"
       gradientUnits="userSpaceOnUse"
       id="linearGradient3125"
       xlink:href="#linearGradient3927"
       inkscape:collect="always" />
    <linearGradient
       id="linearGradient4167-1">
      <stop
         style="stop-color:#ffffff;stop-opacity:0;"
         offset="0"
         id="stop4169-1" />
      <stop
         id="stop4171-0"
         offset="0.51920968"
         style="stop-color:#ffffff;stop-opacity:0.63492066;" />
      <stop
         style="stop-color:#ffffff;stop-opacity:0;"
         offset="1"
         id="stop4173-3" />
    </linearGradient>
    <linearGradient
       gradientTransform="translate(-1.582805,538.38528)"
       y2="91.398506"
       x2="397.64285"
       y1="91.398506"
       x1="137.35715"
       gradientUnits="userSpaceOnUse"
       id="linearGradient3346"
       xlink:href="#linearGradient4167-1"
       inkscape:collect="always" />
  </defs>
  <g
     id="layer1"
     transform="matrix(0.25513035,0,0,0.25513035,-1.2540149,-139.50928)">
    <path
       sodipodi:type="arc"
       style="opacity:0.72454541;fill:url(#radialGradient3928);fill-opacity:1;stroke:none"
       id="path4012"
       sodipodi:cx="279.30719"
       sodipodi:cy="440.78424"
       sodipodi:rx="201.52544"
       sodipodi:ry="55.053314"
       d="m 480.83263,440.78424 c 0,30.40511 -90.22601,55.05331 -201.52544,55.05331 -111.29943,0 -201.525436,-24.6482 -201.525436,-55.05331 0,-30.40511 90.226006,-55.05331 201.525436,-55.05331 111.29943,0 201.52544,24.6482 201.52544,55.05331 z"
       transform="matrix(1.0073406,0,1.2844692,0.89175239,-584.47381,606.35568)" />
    <path
       style="fill:url(#linearGradient3867);fill-opacity:1;stroke:none"
       d="m 415,437.89286 -10.37824,8.60759 c 0,0 -21.39314,14.33131 -32.76693,20.31296 -5.32644,2.80126 -10.8388,5.30668 -16.53361,7.25273 -8.06239,2.7551 -16.40919,4.70292 -24.79602,6.20418 -12.28698,2.19938 -24.74806,3.68749 -37.22426,4.07648 -21.82784,0.68056 -43.73161,-0.71619 -65.4438,-3.06108 -17.82863,-1.92547 -35.84858,-3.90218 -53.03571,-9.01787 -12.4751,-3.71317 -24.37007,-9.36083 -35.80906,-15.57094 C 129.17229,451.35484 111,438.16071 111,438.16071 l 0.3,20.23489 c 0,0 24.84745,13.33919 38.16429,17.75989 25.5351,8.47672 52.29834,13.31299 79.01786,16.4695 20.90557,2.46968 42.10474,3.01128 63.125,1.87502 16.02134,-0.86604 31.99192,-3.23633 47.67857,-6.60716 8.67313,-1.86373 17.60486,-3.52271 25.53507,-7.4987 10.14758,-5.08772 17.72462,-14.2472 27.2365,-20.44256 5.76433,-3.75447 18.00373,-10.08849 18.00373,-10.08849 0,0 1.85273,-1.55457 2.75019,-2.36466 C 413.55726,446.82501 415,445.42478 415,445.42478 z"
       id="path3000"
       inkscape:connector-curvature="0"
       sodipodi:nodetypes="ccaaaaaaaccaaaaaacacc"
       transform="translate(0,540.36218)" />
    <path
       style="fill:url(#linearGradient3859);fill-opacity:1;stroke:none"
       d="M 364.48985,480.97091 365.5,465.25 369.03689,464 404,487 z"
       id="path2996"
       inkscape:connector-curvature="0"
       transform="translate(0,540.36218)"
       sodipodi:nodetypes="ccccc" />
    <path
       style="fill:url(#linearGradient3851);fill-opacity:1;stroke:none"
       d="M 365.80992,464.01288 402.05095,444.71293 439.1415,466.7781 404,487 z"
       id="path2998"
       inkscape:connector-curvature="0"
       transform="translate(0,540.36218)"
       sodipodi:nodetypes="ccccc" />
    <path
       style="fill:url(#linearGradient3843);fill-opacity:1;stroke:none"
       d="m 364.82143,469.97073 c -13.59472,6.39315 -24.65333,7.78952 -37.33674,10.10831 -12.68845,2.31971 -25.62309,3.2907 -38.5134,3.75737 -19.51888,0.70664 -39.12473,0.30324 -58.57686,-1.45756 -15.9144,-1.44056 -31.82703,-3.67611 -47.35872,-7.43241 -15.87118,-3.8384 -31.87303,-8.13349 -46.51617,-15.35887 C 127.29035,455.0336 119.14446,449.28296 111,442.20936 l 0,-314.349 c 0,0 24.25239,11.32337 37.05011,15.05509 17.13781,4.99725 34.94574,7.58062 52.67501,9.66623 23.05926,2.7126 46.33979,3.6765 69.55805,3.66967 20.19704,-0.006 40.47629,-0.62627 60.50509,-3.22774 12.2442,-1.59036 24.39015,-4.16063 36.26532,-7.54147 10.77537,-3.06773 21.3754,-6.88307 31.57651,-11.51523 C 404.30025,131.39218 415,124.96437 415,124.96437 l 0,312.78427 c 0,0 -3.63678,3.90196 -5.70397,5.57315 -1.49764,1.21074 -4.81379,3.1948 -4.81379,3.1948 L 402.7346,445.93229 368.25761,464 l -3.07903,2.32143 z"
       id="path3002"
       inkscape:connector-curvature="0"
       sodipodi:nodetypes="caaaaaccaaaaaaccaccccc"
       transform="translate(0,540.36218)" />
    <path
       style="fill:url(#linearGradient3835);fill-opacity:1;stroke:none"
       d="m 415,122.17856 c 0,0 -8.35956,4.42084 -12.88865,5.63396 -52.44962,14.04867 -107.59466,18.89589 -161.88727,18.09592 -36.33511,-0.53538 -72.71866,-6.34831 -107.93855,-15.2974 -7.30457,-1.85603 -21.18553,-7.8986 -21.18553,-7.8986 0,0 -0.1,-14.19106 -0.1,-21.20668 -11.920734,0.18195 -13.888169,2.69602 -18.173475,7.68568 -4.230254,4.92556 -5.286657,12.40617 -4.790789,18.87999 0.368094,4.80565 2.245514,9.89757 5.649293,13.30992 4.432745,4.44391 8.166721,6.77254 17.314971,7.40065 l 0.0316,-17.92896 c 0,0 10.035,4.65034 15.2386,6.49886 10.62482,3.77435 21.45782,7.1152 32.51279,9.33336 23.83627,4.78271 48.17146,7.031 72.4398,8.47671 23.9927,1.4293 48.11455,1.64002 72.10549,0.18142 19.59337,-1.19125 39.27783,-3.00882 58.43677,-7.28133 15.22727,-3.39573 30.17356,-8.32456 44.50298,-14.49453 C 409.31151,132.25707 415,128.81635 415,128.81635 z"
       id="path3004"
       inkscape:connector-curvature="0"
       transform="translate(0,540.36218)"
       sodipodi:nodetypes="caaaccaaaccaaaaaacc" />
    <path
       style="fill:url(#linearGradient3794);fill-opacity:1;stroke:none"
       d="m 415,122.35714 0,-54.532837 c 0,0 -17.10486,10.924786 -26.65651,14.012811 -30.36134,9.815752 -62.92831,11.432064 -94.77045,13.490812 -25.60779,1.655667 -51.36118,0.565007 -76.97799,-0.944767 C 184.39118,89.913935 150.90304,92.323725 123.26047,79.598328 118.65847,77.413553 111,68.024702 111,68.024702 l 0,54.850208 c 0,0 17.10444,7.29876 25.98287,10.00001 13.15335,4.00188 26.62319,7.10895 40.2219,9.13405 31.20051,4.64633 62.84423,7.25633 94.38608,6.84173 34.20195,-0.44956 68.69597,-2.82008 102.11584,-10.10625 8.3774,-1.82643 16.3874,-5.11937 24.32903,-8.35159 C 403.83119,128.03412 415,122.35714 415,122.35714 z"
       id="path3006"
       inkscape:connector-curvature="0"
       sodipodi:nodetypes="ccaaccccaaaaac"
       transform="translate(0,540.36218)" />
    <path
       sodipodi:type="arc"
       style="fill:url(#linearGradient3125);fill-opacity:1;stroke:none"
       id="path3096-7"
       sodipodi:cx="261.07144"
       sodipodi:cy="56.642857"
       sodipodi:rx="152.5"
       sodipodi:ry="31.071428"
       d="m 413.57144,56.642857 a 152.5,31.071428 0 1 1 -305,0 152.5,31.071428 0 1 1 305,0 z"
       transform="matrix(0.99685017,0,0,0.97920801,2.7152253,552.8966)" />
    <path
       sodipodi:nodetypes="caaaaac"
       inkscape:connector-curvature="0"
       id="path4067-2"
       d="m 135.64299,625.93368 c 0,0 21.65632,5.69485 32.68513,7.52979 12.43931,2.06962 25.04016,3.16941 37.62919,3.90141 23.85048,1.38679 47.78546,1.60734 71.66636,0.92087 23.69202,-0.68104 47.41559,-2.01899 70.92965,-4.99628 10.60529,-1.34282 21.25953,-2.87011 31.54269,-5.79102 5.75706,-1.63528 16.72672,-6.52515 16.72672,-6.52515"
       style="fill:none;stroke:url(#linearGradient3346);stroke-width:1px;stroke-linecap:butt;stroke-linejoin:miter;stroke-opacity:1" />
  </g>
</svg>
