<?xml version="1.0" encoding="UTF-8" standalone="no"?>
<!-- Created with Inkscape (http://www.inkscape.org/) -->

<svg
   xmlns:dc="http://purl.org/dc/elements/1.1/"
   xmlns:cc="http://creativecommons.org/ns#"
   xmlns:rdf="http://www.w3.org/1999/02/22-rdf-syntax-ns#"
   xmlns:svg="http://www.w3.org/2000/svg"
   xmlns="http://www.w3.org/2000/svg"
   xmlns:sodipodi="http://sodipodi.sourceforge.net/DTD/sodipodi-0.dtd"
   xmlns:inkscape="http://www.inkscape.org/namespaces/inkscape"
   version="1.0"
   width="48"
   height="48"
   id="svg6396"
   sodipodi:version="0.32"
   inkscape:version="0.48.4 r9939"
   sodipodi:docname="image-loading.svg"
   inkscape:output_extension="org.inkscape.output.svg.inkscape">
  <metadata
     id="metadata8">
    <rdf:RDF>
      <cc:Work
         rdf:about="">
        <dc:format>image/svg+xml</dc:format>
        <dc:type
           rdf:resource="http://purl.org/dc/dcmitype/StillImage" />
      </cc:Work>
    </rdf:RDF>
  </metadata>
  <sodipodi:namedview
     inkscape:window-height="691"
     inkscape:window-width="1278"
     inkscape:pageshadow="2"
     inkscape:pageopacity="1"
     guidetolerance="10.0"
     gridtolerance="10.0"
     objecttolerance="10.0"
     borderopacity="1.0"
     bordercolor="#666666"
     pagecolor="#000000"
     id="base"
     showgrid="false"
     inkscape:zoom="7.3362329"
     inkscape:cx="7.5610986"
     inkscape:cy="19.765572"
     inkscape:window-x="79"
     inkscape:window-y="167"
     inkscape:current-layer="svg6396"
     inkscape:window-maximized="0" />
  <defs
     id="defs6398" />
  <path
     style="opacity:0.3;fill:#ffffff;fill-opacity:1;fill-rule:evenodd;stroke:none"
     id="path2385"
     d="m 24.417613,20.181819 -0.636363,0 -0.636363,4.454546 3.181819,2.545454 10e-7,-0.636366 -1.909094,-2.545455 z M 24,17.318182 c -3.864,0 -7,3.135999 -7,7 0,3.863999 3.136,7 7,7 3.864,0 7,-3.136001 7,-7 0,-3.864001 -3.136,-7 -7,-7 z m 0,1.272728 c 3.161456,0 5.727272,2.565815 5.727272,5.727272 0,3.161456 -2.565816,5.727271 -5.727272,5.727271 -3.161456,0 -5.727272,-2.565815 -5.727272,-5.727271 0,-3.161457 2.565816,-5.727272 5.727272,-5.727272 z"
     inkscape:connector-curvature="0"
     sodipodi:nodetypes="cccccccssssssssss" />
  <path
     style="opacity:0.5;fill:#000000;fill-opacity:1;fill-rule:evenodd;stroke:none"
     id="path3318"
     d="m 24.417613,19.545453 -0.636363,0 -0.636363,4.454545 3.181819,2.545455 10e-7,-0.636361 -1.909094,-2.545455 z M 24,16.681819 c -3.864,0 -7,3.136 -7,7 0,3.864 3.136,6.999999 7,6.999999 3.864,0 7,-3.136 7,-7 0,-3.864 -3.136,-7 -7,-7 z m 0,1.272725 c 3.161456,0 5.727272,2.56582 5.727272,5.727275 0,3.161452 -2.565816,5.727273 -5.727272,5.727273 -3.161456,0 -5.727272,-2.565822 -5.727272,-5.727274 0,-3.161454 2.565816,-5.727274 5.727272,-5.727274 z"
     inkscape:connector-curvature="0"
     sodipodi:nodetypes="cccccccssssssssss" />
  <path
     style="opacity:0.3;fill:none;stroke:#ffffff;stroke-width:1;stroke-linecap:butt;stroke-linejoin:miter;stroke-miterlimit:4;stroke-opacity:1;stroke-dasharray:none"
     id="path2387"
     d="m 33.5,37.5 c 4,0 4,0 4,-4 m 0,-18 c 0,-4 0,-4 -4,-4 m -23,22 c 0,4 0,4 4,4 m 0,-26 c -4,0 -4,0 -4,4"
     inkscape:connector-curvature="0"
     sodipodi:nodetypes="cccccccc" />
  <path
     style="opacity:0.5;fill:none;stroke:#000000;stroke-width:1;stroke-linecap:butt;stroke-linejoin:miter;stroke-miterlimit:4;stroke-opacity:1;stroke-dasharray:none"
     id="path6300"
     d="m 33.349874,36.5 c 4,0 4,0 4,-4 m 0,-18 c 0,-4 0,-4 -4,-4 M 10.5,32.5 c 0,4 0,4 4,4 m 0,-26 c -4,0 -4,0 -4,4"
     inkscape:connector-curvature="0"
     sodipodi:nodetypes="cccccccc" />
</svg>
