<?xml version="1.0" encoding="UTF-8" standalone="no"?>
<!-- Created with Inkscape (http://www.inkscape.org/) -->

<svg
   xmlns:dc="http://purl.org/dc/elements/1.1/"
   xmlns:cc="http://creativecommons.org/ns#"
   xmlns:rdf="http://www.w3.org/1999/02/22-rdf-syntax-ns#"
   xmlns:svg="http://www.w3.org/2000/svg"
   xmlns="http://www.w3.org/2000/svg"
   xmlns:sodipodi="http://sodipodi.sourceforge.net/DTD/sodipodi-0.dtd"
   xmlns:inkscape="http://www.inkscape.org/namespaces/inkscape"
   version="1.0"
   width="48"
   height="48"
   id="svg3196"
   inkscape:version="0.48.4 r9939"
   sodipodi:docname="dropboxstatus-busy.svg">
  <metadata
     id="metadata15">
    <rdf:RDF>
      <cc:Work
         rdf:about="">
        <dc:format>image/svg+xml</dc:format>
        <dc:type
           rdf:resource="http://purl.org/dc/dcmitype/StillImage" />
        <dc:title />
      </cc:Work>
    </rdf:RDF>
  </metadata>
  <sodipodi:namedview
     pagecolor="#ffffff"
     bordercolor="#666666"
     borderopacity="1"
     objecttolerance="10"
     gridtolerance="10"
     guidetolerance="10"
     inkscape:pageopacity="0"
     inkscape:pageshadow="2"
     inkscape:window-width="1326"
     inkscape:window-height="801"
     id="namedview13"
     showgrid="false"
     inkscape:zoom="5.656854"
     inkscape:cx="14.265766"
     inkscape:cy="15.956384"
     inkscape:window-x="112"
     inkscape:window-y="76"
     inkscape:window-maximized="0"
     inkscape:current-layer="svg3196" />
  <defs
     id="defs3198" />
  <rect
     style="fill:#c8c8c8;fill-opacity:1;fill-rule:nonzero;stroke:none"
     id="rect3770"
     width="32"
     height="28"
     x="8"
     y="10" />
  <path
     sodipodi:type="arc"
     style="fill:#e1e1e1;fill-opacity:1;stroke:none"
     id="path3842"
     sodipodi:cx="12.125"
     sodipodi:cy="20.875"
     sodipodi:rx="0.875"
     sodipodi:ry="0.875"
     d="m 13,20.875 a 0.875,0.875 0 1 1 -1.75,0 0.875,0.875 0 1 1 1.75,0 z"
     transform="matrix(3.4285714,0,0,3.428571,-27.571428,-47.571419)" />
  <path
     sodipodi:type="arc"
     style="fill:#e1e1e1;fill-opacity:1;stroke:none"
     id="path3842-8"
     sodipodi:cx="12.125"
     sodipodi:cy="20.875"
     sodipodi:rx="0.875"
     sodipodi:ry="0.875"
     d="m 13,20.875 a 0.875,0.875 0 1 1 -1.75,0 0.875,0.875 0 1 1 1.75,0 z"
     transform="matrix(3.4285714,0,0,3.428571,-17.571428,-47.571419)" />
  <path
     sodipodi:type="arc"
     style="fill:#e1e1e1;fill-opacity:1;stroke:none"
     id="path3842-7"
     sodipodi:cx="12.125"
     sodipodi:cy="20.875"
     sodipodi:rx="0.875"
     sodipodi:ry="0.875"
     d="m 13,20.875 a 0.875,0.875 0 1 1 -1.75,0 0.875,0.875 0 1 1 1.75,0 z"
     transform="matrix(3.4285714,0,0,3.428571,-7.571429,-47.571419)" />
</svg>
