<?xml version="1.0" encoding="UTF-8" standalone="no"?>
<!-- Created with Inkscape (http://www.inkscape.org/) -->

<svg
   xmlns:dc="http://purl.org/dc/elements/1.1/"
   xmlns:cc="http://creativecommons.org/ns#"
   xmlns:rdf="http://www.w3.org/1999/02/22-rdf-syntax-ns#"
   xmlns:svg="http://www.w3.org/2000/svg"
   xmlns="http://www.w3.org/2000/svg"
   xmlns:sodipodi="http://sodipodi.sourceforge.net/DTD/sodipodi-0.dtd"
   xmlns:inkscape="http://www.inkscape.org/namespaces/inkscape"
   width="48"
   height="48"
   id="svg2"
   version="1.1"
   inkscape:version="0.48.4 r9939"
   sodipodi:docname="indicator-messages-new.svg">
  <defs
     id="defs4" />
  <sodipodi:namedview
     id="base"
     pagecolor="#ffffff"
     bordercolor="#666666"
     borderopacity="1.0"
     inkscape:pageopacity="0.0"
     inkscape:pageshadow="2"
     inkscape:zoom="4"
     inkscape:cx="-28.294974"
     inkscape:cy="29.293075"
     inkscape:document-units="px"
     inkscape:current-layer="layer1"
     showgrid="false"
     inkscape:window-width="979"
     inkscape:window-height="588"
     inkscape:window-x="185"
     inkscape:window-y="289"
     inkscape:window-maximized="0" />
  <metadata
     id="metadata7">
    <rdf:RDF>
      <cc:Work
         rdf:about="">
        <dc:format>image/svg+xml</dc:format>
        <dc:type
           rdf:resource="http://purl.org/dc/dcmitype/StillImage" />
        <dc:title />
      </cc:Work>
    </rdf:RDF>
  </metadata>
  <g
     inkscape:label="Livello 1"
     inkscape:groupmode="layer"
     id="layer1"
     transform="translate(0,-1004.3622)">
    <path
       style="fill:#cfffb3;fill-opacity:1;stroke:none"
       d="m 4.1875,1015.3622 0,26 39.625,0 0,-26 -39.625,0 z m 32.6875,4 1.40625,1.4063 -7.6875,7.6875 7.6875,7.6875 -1.40625,1.4062 -7.6875,-7.6875 -3.125,3.125 c -0.809928,0.81 -1.519423,1.407 -2.5,1.375 -0.972469,-0.032 -1.613485,-0.6537 -2.3125,-1.375 l -2.78125,-2.7812 -7.34375,7.3437 -1.40625,-1.4062 7.34375,-7.3438 -7.34375,-7.3437 1.40625,-1.4063 11.53125,11.5313 c 0.62512,0.6457 0.94448,0.7804 0.96875,0.7812 0.02427,8e-4 0.334356,-0.084 1.03125,-0.7812 L 36.875,1019.3622 z"
       id="rect2816"
       inkscape:connector-curvature="0" />
  </g>
</svg>
