<?xml version="1.0" encoding="UTF-8" standalone="no"?>
<!-- Created with Inkscape (http://www.inkscape.org/) -->

<svg
   xmlns:dc="http://purl.org/dc/elements/1.1/"
   xmlns:cc="http://creativecommons.org/ns#"
   xmlns:rdf="http://www.w3.org/1999/02/22-rdf-syntax-ns#"
   xmlns:svg="http://www.w3.org/2000/svg"
   xmlns="http://www.w3.org/2000/svg"
   xmlns:sodipodi="http://sodipodi.sourceforge.net/DTD/sodipodi-0.dtd"
   xmlns:inkscape="http://www.inkscape.org/namespaces/inkscape"
   width="48"
   height="48"
   id="svg2"
   version="1.1"
   inkscape:version="0.48.4 r9939"
   sodipodi:docname="nm-secure-lock.svg">
  <defs
     id="defs4" />
  <sodipodi:namedview
     id="base"
     pagecolor="#ffffff"
     bordercolor="#666666"
     borderopacity="1.0"
     inkscape:pageopacity="0.0"
     inkscape:pageshadow="2"
     inkscape:zoom="7.919596"
     inkscape:cx="28.866872"
     inkscape:cy="22.96418"
     inkscape:document-units="px"
     inkscape:current-layer="layer1"
     showgrid="false"
     inkscape:window-width="719"
     inkscape:window-height="571"
     inkscape:window-x="529"
     inkscape:window-y="146"
     inkscape:window-maximized="0" />
  <metadata
     id="metadata7">
    <rdf:RDF>
      <cc:Work
         rdf:about="">
        <dc:format>image/svg+xml</dc:format>
        <dc:type
           rdf:resource="http://purl.org/dc/dcmitype/StillImage" />
        <dc:title />
      </cc:Work>
    </rdf:RDF>
  </metadata>
  <g
     inkscape:label="Livello 1"
     inkscape:groupmode="layer"
     id="layer1"
     transform="translate(0,-1004.3622)">
    <path
       style="fill:#c8c8c8;fill-opacity:1;stroke:none"
       d="m 6.359262,1034.3622 c -2.720301,0 -4.929206,2.1907 -4.958069,4.9042 -1.9e-4,0.018 0,0.036 0,0.054 l 0,3.6948 -1.401193,0 0,9.347 12.934095,0 0,-9.347 -1.616761,0 0,-3.6948 0,-0.054 c -0.02886,-2.7135 -2.237769,-4.9042 -4.958072,-4.9042 z m 0,2.293 c 1.243614,-10e-5 2.635837,0.6122 2.664738,2.6112 2.6e-4,0.018 0,0.036 0,0.054 l 0,3.6948 -5.329,0 0,-3.6948 0,-0.054 c 0.02891,-1.999 1.42076,-2.6111 2.664262,-2.6112 z"
       id="rect3618"
       sodipodi:nodetypes="csccccccccccasccccca"
       inkscape:connector-curvature="0" />
  </g>
</svg>
