<?xml version="1.0" encoding="UTF-8" standalone="no"?>
<!-- Created with Inkscape (http://www.inkscape.org/) -->

<svg
   xmlns:dc="http://purl.org/dc/elements/1.1/"
   xmlns:cc="http://creativecommons.org/ns#"
   xmlns:rdf="http://www.w3.org/1999/02/22-rdf-syntax-ns#"
   xmlns:svg="http://www.w3.org/2000/svg"
   xmlns="http://www.w3.org/2000/svg"
   xmlns:xlink="http://www.w3.org/1999/xlink"
   xmlns:sodipodi="http://sodipodi.sourceforge.net/DTD/sodipodi-0.dtd"
   xmlns:inkscape="http://www.inkscape.org/namespaces/inkscape"
   width="48"
   height="48"
   id="svg2"
   version="1.1"
   inkscape:version="0.48.4 r9939"
   sodipodi:docname="gmusicbrowser.svg">
  <defs
     id="defs4">
    <linearGradient
       id="linearGradient8106">
      <stop
         style="stop-color:#456b9d;stop-opacity:1;"
         offset="0"
         id="stop8108" />
      <stop
         style="stop-color:#456b9d;stop-opacity:0;"
         offset="1"
         id="stop8110" />
    </linearGradient>
    <linearGradient
       id="linearGradient8098">
      <stop
         style="stop-color:#456b9d;stop-opacity:1;"
         offset="0"
         id="stop8100" />
      <stop
         style="stop-color:#456b9d;stop-opacity:0;"
         offset="1"
         id="stop8102" />
    </linearGradient>
    <linearGradient
       id="linearGradient8088">
      <stop
         id="stop8090"
         offset="0"
         style="stop-color:#80a8cc;stop-opacity:1;" />
      <stop
         id="stop8092"
         offset="1"
         style="stop-color:#e5eff9;stop-opacity:1;" />
    </linearGradient>
    <linearGradient
       id="linearGradient7925">
      <stop
         style="stop-color:#9fd0e9;stop-opacity:1;"
         offset="0"
         id="stop7927" />
      <stop
         style="stop-color:#4b6f98;stop-opacity:1;"
         offset="1"
         id="stop7929" />
    </linearGradient>
    <linearGradient
       id="linearGradient3866">
      <stop
         id="stop3868"
         offset="0"
         style="stop-color:#000000;stop-opacity:1;" />
      <stop
         id="stop3870"
         offset="1"
         style="stop-color:#000000;stop-opacity:0;" />
    </linearGradient>
    <radialGradient
       inkscape:collect="always"
       xlink:href="#linearGradient3866"
       id="radialGradient3860"
       cx="-1.1297575"
       cy="25.504171"
       fx="-1.1297575"
       fy="25.504171"
       r="18.063141"
       gradientTransform="matrix(1,0,0,0.16666667,0,21.253476)"
       gradientUnits="userSpaceOnUse" />
    <linearGradient
       id="linearGradient8098-2">
      <stop
         style="stop-color:#456b9d;stop-opacity:1;"
         offset="0"
         id="stop8100-7" />
      <stop
         style="stop-color:#456b9d;stop-opacity:0;"
         offset="1"
         id="stop8102-1" />
    </linearGradient>
    <linearGradient
       inkscape:collect="always"
       xlink:href="#linearGradient8106"
       id="linearGradient8610"
       gradientUnits="userSpaceOnUse"
       gradientTransform="matrix(0.96246284,0,0,0.96230783,-1.7708455,41.043572)"
       x1="38.320412"
       y1="1016.3228"
       x2="37.110966"
       y2="1020.6159" />
    <linearGradient
       inkscape:collect="always"
       xlink:href="#linearGradient8098-2"
       id="linearGradient8612"
       gradientUnits="userSpaceOnUse"
       x1="30.756041"
       y1="24.785156"
       x2="32.811714"
       y2="21.470184" />
    <linearGradient
       inkscape:collect="always"
       xlink:href="#linearGradient8098"
       id="linearGradient8614"
       gradientUnits="userSpaceOnUse"
       x1="30.756041"
       y1="24.785156"
       x2="32.811714"
       y2="21.470184" />
    <linearGradient
       inkscape:collect="always"
       xlink:href="#linearGradient7925"
       id="linearGradient9209"
       gradientUnits="userSpaceOnUse"
       x1="28.768591"
       y1="4.5451441"
       x2="28.768591"
       y2="35.701744" />
    <linearGradient
       inkscape:collect="always"
       xlink:href="#linearGradient8088"
       id="linearGradient7205"
       gradientUnits="userSpaceOnUse"
       gradientTransform="matrix(0.57541993,0,0,1.0429486,43.103793,-48.535608)"
       x1="-28.606602"
       y1="1056.2073"
       x2="-28.606602"
       y2="1022.3986" />
  </defs>
  <sodipodi:namedview
     id="base"
     pagecolor="#ffffff"
     bordercolor="#666666"
     borderopacity="1.0"
     inkscape:pageopacity="0.0"
     inkscape:pageshadow="2"
     inkscape:zoom="8"
     inkscape:cx="18.475361"
     inkscape:cy="24.006904"
     inkscape:document-units="px"
     inkscape:current-layer="layer1"
     showgrid="false"
     inkscape:object-paths="true"
     inkscape:window-width="1429"
     inkscape:window-height="785"
     inkscape:window-x="9"
     inkscape:window-y="82"
     inkscape:window-maximized="0"
     inkscape:snap-global="true"
     inkscape:snap-bbox="false"
     inkscape:snap-bbox-midpoints="true"
     inkscape:snap-nodes="true" />
  <metadata
     id="metadata7">
    <rdf:RDF>
      <cc:Work
         rdf:about="">
        <dc:format>image/svg+xml</dc:format>
        <dc:type
           rdf:resource="http://purl.org/dc/dcmitype/StillImage" />
        <dc:title />
      </cc:Work>
    </rdf:RDF>
  </metadata>
  <g
     inkscape:label="Layer 1"
     inkscape:groupmode="layer"
     id="layer1"
     transform="translate(0,-1004.3622)">
    <path
       sodipodi:type="arc"
       style="opacity:0.50684934000000004;fill:url(#radialGradient3860);fill-opacity:1.0;stroke:none"
       id="path3852"
       sodipodi:cx="-1.1297575"
       sodipodi:cy="25.504171"
       sodipodi:rx="18.063141"
       sodipodi:ry="3.0105236"
       d="m 16.933383,25.504171 c 0,1.662667 -8.0871433,3.010524 -18.0631405,3.010524 -9.9759975,0 -18.0631405,-1.347857 -18.0631405,-3.010524 0,-1.662666 8.087143,-3.010523 18.0631405,-3.010523 9.9759972,0 18.0631405,1.347857 18.0631405,3.010523 z"
       transform="matrix(1.1072272,0,0,1.1072272,25.250898,1020.7899)" />
    <path
       sodipodi:type="arc"
       style="fill:#f6f6f6;fill-opacity:1;stroke:#456b9d;stroke-width:0.9662329;stroke-miterlimit:4;stroke-opacity:1;stroke-dasharray:none"
       id="path2996"
       sodipodi:cx="26.263966"
       sodipodi:cy="25.524105"
       sodipodi:rx="22.223356"
       sodipodi:ry="22.223356"
       d="m 48.487322,25.524105 a 22.223356,22.223356 0 1 1 -44.4467126,0 22.223356,22.223356 0 1 1 44.4467126,0 z"
       transform="matrix(1.0349472,0,0,1.0349472,-3.1818177,1001.9461)" />
    <path
       sodipodi:type="arc"
       style="fill:url(#linearGradient9209);fill-opacity:1;stroke:none"
       id="path7923"
       sodipodi:cx="25.66041"
       sodipodi:cy="26.49015"
       sodipodi:rx="18.321102"
       sodipodi:ry="18.321102"
       d="m 43.981512,26.49015 a 18.321102,18.321102 0 1 1 -36.6422042,0 18.321102,18.321102 0 1 1 36.6422042,0 z"
       transform="matrix(1.0370555,0,0,1.0370555,-2.6112692,1000.8904)" />
    <path
       id="path6863"
       d="m 22.556428,1013.95 0,2.8355 1.727384,0 0,-2.8355 -1.727384,0 z m 16.10052,2.4119 0,0.4236 0.29333,0 c -0.106349,-0.1365 -0.183323,-0.2902 -0.29333,-0.4236 z m -29.658851,0.717 c -0.083981,0.1122 -0.1792369,0.2116 -0.2607372,0.3259 l 0,2.5095 1.7273842,0 0,-2.8354 -1.466647,0 z m 8.962839,0 0,2.8354 1.727384,0 0,-2.8354 -1.727384,0 z m 4.595492,0 0,2.8354 1.727384,0 0,-2.8354 -1.727384,0 z m 2.314042,0 0,2.8354 1.727384,0 0,-2.8354 -1.727384,0 z m 9.190986,0 0,2.8354 1.727383,0 0,-2.8354 -1.727383,0 z m 4.595492,0 0,2.8354 1.727384,0 0,-1.0429 c -0.365758,-0.6299 -0.771583,-1.2117 -1.20591,-1.7925 l -0.521474,0 z m -30.4736545,1.1733 c -0.3409391,0.5372 -0.6592911,1.0898 -0.9451723,1.6621 l 0.9451723,0 0,-1.6621 z m -1.1081329,1.9555 c -0.2265785,0.4744 -0.4324645,0.9713 -0.6192509,1.4666 l 0,1.369 1.7273838,0 0,-2.8356 -1.1081329,0 z m 1.6621993,0 0,2.8356 1.7273841,0 0,-2.8356 -1.7273841,0 z m 2.3140421,0 0,2.8356 1.727384,0 0,-2.8356 -1.727384,0 z m 4.595492,0 0,2.8356 1.727384,0 0,-2.8356 -1.727384,0 z m 2.314042,0 0,2.8356 1.727384,0 0,-2.8356 -1.727384,0 z m 2.28145,0 0,2.8356 1.727384,0 0,-2.8356 -1.727384,0 z m 2.314042,0 0,2.8356 1.727384,0 0,-2.8356 -1.727384,0 z m 2.314042,0 0,2.8356 1.727384,0 0,-2.8356 -1.727384,0 z m 2.28145,0 0,2.8356 1.727384,0 0,-2.8356 -1.727384,0 z m 4.595493,0 0,2.8356 1.727383,0 0,-2.8356 -1.727383,0 z m 2.314043,0 0,2.8356 1.727383,0 0,-2.8356 -1.727383,0 z m 4.595492,0 0,2.8356 1.727384,0 0,-2.8356 -1.727384,0 z m 2.314043,0 0,2.8356 1.205909,0 c -0.284069,-0.978 -0.643225,-1.9305 -1.075541,-2.8356 l -0.130368,0 z m -34.5150814,3.1289 0,2.8354 1.7273837,0 0,-2.8354 -1.7273837,0 z m 2.2814501,0 0,2.8354 1.7273843,0 0,-2.8354 -1.7273843,0 z m 2.3140423,0 0,2.8354 1.727384,0 0,-2.8354 -1.727384,0 z m 2.314042,0 0,2.8354 1.727384,0 0,-2.8354 -1.727384,0 z m 2.28145,0 0,2.8354 1.727384,0 0,-2.8354 -1.727384,0 z m 2.314042,0 0,2.8354 1.727384,0 0,-2.8354 -1.727384,0 z m 2.28145,0 0,2.8354 1.727384,0 0,-2.8354 -1.727384,0 z m 2.314042,0 0,2.8354 1.727384,0 0,-2.8354 -1.727384,0 z m 2.314042,0 0,2.8354 1.727384,0 0,-2.8354 -1.727384,0 z m 2.28145,0 0,2.8354 1.727384,0 0,-2.8354 -1.727384,0 z m 4.595493,0 0,2.8354 1.727383,0 0,-2.8354 -1.727383,0 z m 2.314043,0 0,2.8354 1.727383,0 0,-2.8354 -1.727383,0 z m 2.314042,0 0,2.8354 1.727383,0 0,-2.8354 -1.727383,0 z m 2.28145,0 0,2.8354 1.727384,0 0,-2.8354 -1.727384,0 z m 2.314043,0 0,2.8354 1.727382,0 0,-0.6518 c -0.109743,-0.7461 -0.261155,-1.4689 -0.456289,-2.1836 l -1.271093,0 z m -35.1017399,0.2281 c -0.2208052,0.8517 -0.3896135,1.7134 -0.4888821,2.6073 l 0.4888821,0 0,-2.6073 z m -0.5214744,2.9007 c -0.056047,0.5897 -0.097777,1.1883 -0.097777,1.7926 0,0.3516 0.046015,0.696 0.065185,1.0429 l 0.5540665,0 0,-2.8355 -0.5214744,0 z m 1.1081329,0 0,2.8355 1.7273837,0 0,-2.8355 -1.7273837,0 z m 2.2814501,0 0,2.8355 1.7273843,0 0,-2.8355 -1.7273843,0 z m 2.3140423,0 0,2.8355 1.727384,0 0,-2.8355 -1.727384,0 z m 4.595492,0 0,2.8355 1.727384,0 0,-2.8355 -1.727384,0 z m 2.314042,0 0,2.8355 1.727384,0 0,-2.8355 -1.727384,0 z m 2.28145,0 0,2.8355 1.727384,0 0,-2.8355 -1.727384,0 z m 2.314042,0 0,2.8355 1.727384,0 0,-2.8355 -1.727384,0 z m 2.314042,0 0,2.8355 1.727384,0 0,-2.8355 -1.727384,0 z m 2.28145,0 0,2.8355 1.727384,0 0,-2.8355 -1.727384,0 z m 4.595493,0 0,2.8355 1.727383,0 0,-2.8355 -1.727383,0 z m 2.314043,0 0,2.8355 1.727383,0 0,-2.8355 -1.727383,0 z m 2.314042,0 0,2.8355 1.727383,0 0,-2.8355 -1.727383,0 z m 2.28145,0 0,2.8355 1.727384,0 0,-2.8355 -1.727384,0 z m 2.314043,0 0,2.8355 1.727382,0 0,-2.8355 -1.727382,0 z m -35.6558063,3.1288 c 0.068631,0.9696 0.2127785,1.9121 0.4236979,2.8355 l 0.1303687,0 0,-2.8355 -0.5540666,0 z m 1.140725,0 0,2.8355 1.7273838,0 0,-2.8355 -1.7273837,0 z m 2.2814502,0 0,2.8355 1.7273841,0 0,-2.8355 -1.7273841,0 z m 2.3140421,0 0,2.8355 1.727384,0 0,-2.8355 -1.727384,0 z m 2.314042,0 0,2.8355 1.694792,0 0,-2.8355 -1.694792,0 z m 2.28145,0 0,2.8355 1.727384,0 0,-2.8355 -1.727384,0 z m 2.314042,0 0,2.8355 1.727384,0 0,-2.8355 -1.727384,0 z m 2.28145,0 0,2.8355 1.727384,0 0,-2.8355 -1.727384,0 z m 2.314042,0 0,2.8355 1.727384,0 0,-2.8355 -1.727384,0 z m 2.314042,0 0,2.8355 1.727384,0 0,-2.8355 -1.727384,0 z m 2.28145,0 0,2.8355 1.727384,0 0,-2.8355 -1.727384,0 z m 2.314042,0 0,2.8355 1.727385,0 0,-2.8355 -1.727385,0 z m 2.281451,0 0,2.8355 1.727383,0 0,-2.8355 -1.727383,0 z m 2.314043,0 0,2.8355 1.727383,0 0,-2.8355 -1.727383,0 z m 2.314042,0 0,2.8355 1.727383,0 0,-2.8355 -1.727383,0 z m 2.28145,0 0,2.8355 1.727384,0 0,-2.8355 -1.727384,0 z m 2.314043,0 0,2.8355 1.466645,0 c 0.107905,-0.4724 0.18936,-0.9488 0.260737,-1.434 l 0,-1.4015 -1.727382,0 z m -35.1669241,3.1289 c 0.018977,0.077 0.04525,0.1512 0.065185,0.2281 l 0,-0.2281 -0.065185,0 z m 0.6518428,0 0,2.1185 c 0.08982,0.2381 0.161593,0.4836 0.2607373,0.7169 l 1.4666464,0 0,-2.8354 -1.7273837,0 z m 2.2814501,0 0,2.8354 1.7273842,0 0,-2.8354 -1.7273842,0 z m 2.3140422,0 0,2.8354 1.727384,0 0,-2.8354 -1.727384,0 z m 2.314042,0 0,2.8354 1.694792,0 0,-2.8354 -1.694792,0 z m 2.28145,0 0,2.8354 1.727384,0 0,-2.8354 -1.727384,0 z m 2.314042,0 0,2.8354 1.727384,0 0,-2.8354 -1.727384,0 z m 2.28145,0 0,2.8354 1.727384,0 0,-2.8354 -1.727384,0 z m 2.314042,0 0,2.8354 1.727384,0 0,-2.8354 -1.727384,0 z m 2.314042,0 0,2.8354 1.727384,0 0,-2.8354 -1.727384,0 z m 2.28145,0 0,2.8354 1.727384,0 0,-2.8354 -1.727384,0 z m 2.314042,0 0,2.8354 1.727385,0 0,-2.8354 -1.727385,0 z m 2.281451,0 0,2.8354 1.727383,0 0,-2.8354 -1.727383,0 z m 2.314043,0 0,2.8354 1.727383,0 0,-2.8354 -1.727383,0 z m 2.314042,0 0,2.8354 1.727383,0 0,-2.8354 -1.727383,0 z m 2.28145,0 0,2.8354 1.727384,0 0,-2.8354 -1.727384,0 z m 2.314043,0 0,2.8354 0.488881,0 c 0.386226,-0.9094 0.672858,-1.8594 0.912581,-2.8354 l -1.401462,0 z m -34.1239757,3.1288 c 0.3739399,0.8405 0.8475564,1.6416 1.3362781,2.4119 l 0,-2.4119 -1.3362781,0 z m 1.8903445,0 0,2.8356 1.7273842,0 0,-2.8356 -1.7273842,0 z m 2.3140422,0 0,2.8356 1.727384,0 0,-2.8356 -1.727384,0 z m 2.314042,0 0,2.8356 1.694792,0 0,-2.8356 -1.694792,0 z m 2.28145,0 0,2.8356 1.727384,0 0,-2.8356 -1.727384,0 z m 2.314042,0 0,2.8356 1.727384,0 0,-2.8356 -1.727384,0 z m 2.28145,0 0,2.8356 1.727384,0 0,-2.8356 -1.727384,0 z m 2.346634,0 0,2.8356 1.727385,0 0,-2.8356 -1.727385,0 z m 2.28145,0 0,2.8356 1.727384,0 0,-2.8356 -1.727384,0 z m 2.28145,0 0,2.8356 1.727384,0 0,-2.8356 -1.727384,0 z m 2.314042,0 0,2.8356 1.727385,0 0,-2.8356 -1.727385,0 z m 2.281451,0 0,2.8356 1.727383,0 0,-2.8356 -1.727383,0 z m 2.314043,0 0,2.8356 1.727383,0 0,-2.8356 -1.727383,0 z m 2.314042,0 0,2.8356 1.727383,0 0,-2.8356 -1.727383,0 z m 2.314042,0 0,2.8356 1.042948,0 c 0.243703,-0.3624 0.465981,-0.7286 0.684436,-1.1082 l 0,-1.7274 -1.727384,0 z m 2.281451,0 0,0.717 c 0.117,-0.2355 0.251272,-0.4759 0.358513,-0.717 l -0.358513,0 z m -32.2336312,3.129 0,0.1303 c 0.5284889,0.7406 1.0992024,1.4302 1.7273842,2.0859 l 0,-2.2162 -1.7273842,0 z m 2.3140422,0 0,2.8027 0,0.033 c 0.0059,0.01 0.02673,-0.01 0.0326,0 l 1.694792,0 0,-2.8354 -1.727384,0 z m 2.314042,0 0,2.8354 1.694792,0 0,-2.8354 -1.694792,0 z m 2.28145,0 0,2.8354 1.727384,0 0,-2.8354 -1.727384,0 z m 2.314042,0 0,2.8354 1.727384,0 0,-2.8354 -1.727384,0 z m 2.28145,0 0,2.8354 1.727384,0 0,-2.8354 -1.727384,0 z m 2.346634,0 0,2.8354 1.727385,0 0,-2.8354 -1.727385,0 z m 2.28145,0 0,2.8354 1.727384,0 0,-2.8354 -1.727384,0 z m 2.28145,0 0,2.8354 1.727384,0 0,-2.8354 -1.727384,0 z m 2.314042,0 0,2.8354 1.727385,0 0,-2.8354 -1.727385,0 z m 2.281451,0 0,2.8354 1.727383,0 0,-2.8354 -1.727383,0 z m 2.314043,0 0,2.8354 1.727383,0 0,-2.8354 -1.727383,0 z m 2.314042,0 0,2.8354 0.717027,0 c 0.352124,-0.3349 0.685049,-0.682 1.010356,-1.0429 l 0,-1.7925 -1.727383,0 z m 2.314042,0 0,1.108 c 0.296624,-0.3627 0.578155,-0.7238 0.847396,-1.108 l -0.847396,0 z m -27.279625,3.1287 c 0.437135,0.3968 0.895641,0.7858 1.368871,1.1408 l 0,-1.1408 -1.368871,0 z m 1.955529,0 0,1.5645 c 0.552806,0.3828 1.133704,0.7196 1.727384,1.0429 l 0,-2.6074 -1.727384,0 z m 2.28145,0 0,2.8356 1.727384,0 0,-2.8356 -1.727384,0 z m 2.314042,0 0,2.8356 1.727384,0 0,-2.8356 -1.727384,0 z m 2.28145,0 0,2.8356 1.727384,0 0,-2.8356 -1.727384,0 z m 2.346634,0 0,2.8356 1.727385,0 0,-2.8356 -1.727385,0 z m 2.28145,0 0,2.8356 1.727384,0 0,-2.8356 -1.727384,0 z m 2.28145,0 0,2.8356 1.727384,0 0,-2.8356 -1.727384,0 z m 2.314042,0 0,2.8356 1.727385,0 0,-2.8356 -1.727385,0 z m 2.314044,0 0,2.8356 0.879987,0 c 0.278512,-0.1425 0.544547,-0.3007 0.814803,-0.4564 l 0,-2.3792 -1.69479,0 z m 2.28145,0 0,2.0533 c 0.591496,-0.3696 1.182372,-0.7752 1.727383,-1.2059 l 0,-0.8474 -1.727383,0 z m 2.314042,0 0,0.3585 c 0.134713,-0.1156 0.259747,-0.2392 0.391105,-0.3585 l -0.391105,0 z m -20.272314,3.1289 c 0.419257,0.1962 0.835675,0.3883 1.271094,0.554 l 0,-0.554 -1.271094,0 z m 1.857752,0 0,0.7496 c 0.560599,0.1924 1.144324,0.3491 1.727384,0.4888 l 0,-1.2384 -1.727384,0 z m 2.28145,0 0,1.4014 c 0.568239,0.118 1.141701,0.1952 1.727384,0.2607 l 0,-1.6621 -1.727384,0 z m 2.346634,0 0,1.7273 c 0.49641,0.039 0.992801,0.065 1.49924,0.065 0.0769,0 0.151464,9e-4 0.228145,0 l 0,-1.7925 -1.727385,0 z m 2.28145,0 0,1.76 c 0.585192,-0.024 1.157091,-0.086 1.727384,-0.163 l 0,-1.597 -1.727384,0 z m 2.28145,0 0,1.4993 c 0.583307,-0.096 1.163384,-0.2107 1.727384,-0.3587 l 0,-1.1406 -1.727384,0 z m 2.314042,0 0,1.0103 c 0.587507,-0.1742 1.165366,-0.3584 1.727385,-0.5867 l 0,-0.4236 -1.727385,0 z m 2.314044,0 0,0.1629 c 0.102532,-0.046 0.191774,-0.1153 0.293329,-0.1629 l -0.293329,0 z"
       style="fill:#203a5c;fill-opacity:1;stroke:none"
       inkscape:connector-curvature="0" />
    <path
       style="fill:url(#linearGradient7205);fill-opacity:1;stroke:none"
       d="m 22.608055,1013.8977 0,2.8356 1.727383,0 0,-2.8356 -1.727383,0 z m 16.100519,2.4119 0,0.4237 0.293329,0 c -0.106349,-0.1365 -0.183323,-0.2903 -0.293329,-0.4237 z m -29.658851,0.7169 c -0.08398,0.1123 -0.1792371,0.2118 -0.2607372,0.326 l 0,2.5095 1.7273832,0 0,-2.8355 -1.466646,0 z m 8.962839,0 0,2.8355 1.727384,0 0,-2.8355 -1.727384,0 z m 4.595493,0 0,2.8355 1.727383,0 0,-2.8355 -1.727383,0 z m 2.314042,0 0,2.8355 1.727383,0 0,-2.8355 -1.727383,0 z m 9.190985,0 0,2.8355 1.727384,0 0,-2.8355 -1.727384,0 z m 4.595492,0 0,2.8355 1.727384,0 0,-1.0429 c -0.365758,-0.6298 -0.771583,-1.2117 -1.20591,-1.7926 l -0.521474,0 z m -30.4736547,1.1734 c -0.3409389,0.5372 -0.6592911,1.0899 -0.9451722,1.6621 l 0.9451722,0 0,-1.6621 z m -1.1081329,1.9556 c -0.2265784,0.4743 -0.4324644,0.9713 -0.6192507,1.4666 l 0,1.3689 1.7273836,0 0,-2.8355 -1.1081329,0 z m 1.6621994,0 0,2.8355 1.7273832,0 0,-2.8355 -1.7273832,0 z m 2.3140422,0 0,2.8355 1.727383,0 0,-2.8355 -1.727383,0 z m 4.595493,0 0,2.8355 1.727382,0 0,-2.8355 -1.727382,0 z m 2.314041,0 0,2.8355 1.727384,0 0,-2.8355 -1.727384,0 z m 2.281451,0 0,2.8355 1.727383,0 0,-2.8355 -1.727383,0 z m 2.314042,0 0,2.8355 1.727383,0 0,-2.8355 -1.727383,0 z m 2.314042,0 0,2.8355 1.727383,0 0,-2.8355 -1.727383,0 z m 2.28145,0 0,2.8355 1.727384,0 0,-2.8355 -1.727384,0 z m 4.595492,0 0,2.8355 1.727384,0 0,-2.8355 -1.727384,0 z m 2.314043,0 0,2.8355 1.727384,0 0,-2.8355 -1.727384,0 z m 4.595492,0 0,2.8355 1.727384,0 0,-2.8355 -1.727384,0 z m 2.314042,0 0,2.8355 1.20591,0 c -0.284068,-0.978 -0.643226,-1.9305 -1.075542,-2.8355 l -0.130368,0 z m -34.5150803,3.1287 0,2.8356 1.7273836,0 0,-2.8356 -1.7273836,0 z m 2.2814501,0 0,2.8356 1.7273832,0 0,-2.8356 -1.7273832,0 z m 2.3140422,0 0,2.8356 1.727383,0 0,-2.8356 -1.727383,0 z m 2.314042,0 0,2.8356 1.727383,0 0,-2.8356 -1.727383,0 z m 2.281451,0 0,2.8356 1.727382,0 0,-2.8356 -1.727382,0 z m 2.314041,0 0,2.8356 1.727384,0 0,-2.8356 -1.727384,0 z m 2.281451,0 0,2.8356 1.727383,0 0,-2.8356 -1.727383,0 z m 2.314042,0 0,2.8356 1.727383,0 0,-2.8356 -1.727383,0 z m 2.314042,0 0,2.8356 1.727383,0 0,-2.8356 -1.727383,0 z m 2.28145,0 0,2.8356 1.727384,0 0,-2.8356 -1.727384,0 z m 4.595492,0 0,2.8356 1.727384,0 0,-2.8356 -1.727384,0 z m 2.314043,0 0,2.8356 1.727384,0 0,-2.8356 -1.727384,0 z m 2.314042,0 0,2.8356 1.727384,0 0,-2.8356 -1.727384,0 z m 2.28145,0 0,2.8356 1.727384,0 0,-2.8356 -1.727384,0 z m 2.314042,0 0,2.8356 1.727384,0 0,-0.6519 c -0.109744,-0.746 -0.261155,-1.4688 -0.45629,-2.1837 l -1.271094,0 z m -35.1017389,0.2282 c -0.2208051,0.8517 -0.3896134,1.7134 -0.4888822,2.6074 l 0.4888822,0 0,-2.6074 z m -0.5214743,2.9007 c -0.056047,0.5896 -0.097777,1.1883 -0.097777,1.7926 0,0.3516 0.046015,0.696 0.065185,1.0429 l 0.5540664,0 0,-2.8355 -0.5214743,0 z m 1.1081329,0 0,2.8355 1.7273836,0 0,-2.8355 -1.7273836,0 z m 2.2814501,0 0,2.8355 1.7273832,0 0,-2.8355 -1.7273832,0 z m 2.3140422,0 0,2.8355 1.727383,0 0,-2.8355 -1.727383,0 z m 4.595493,0 0,2.8355 1.727382,0 0,-2.8355 -1.727382,0 z m 2.314041,0 0,2.8355 1.727384,0 0,-2.8355 -1.727384,0 z m 2.281451,0 0,2.8355 1.727383,0 0,-2.8355 -1.727383,0 z m 2.314042,0 0,2.8355 1.727383,0 0,-2.8355 -1.727383,0 z m 2.314042,0 0,2.8355 1.727383,0 0,-2.8355 -1.727383,0 z m 2.28145,0 0,2.8355 1.727384,0 0,-2.8355 -1.727384,0 z m 4.595492,0 0,2.8355 1.727384,0 0,-2.8355 -1.727384,0 z m 2.314043,0 0,2.8355 1.727384,0 0,-2.8355 -1.727384,0 z m 2.314042,0 0,2.8355 1.727384,0 0,-2.8355 -1.727384,0 z m 2.28145,0 0,2.8355 1.727384,0 0,-2.8355 -1.727384,0 z m 2.314042,0 0,2.8355 1.727384,0 0,-2.8355 -1.727384,0 z m -35.6558053,3.1289 c 0.06863,0.9695 0.2127784,1.9121 0.4236979,2.8354 l 0.1303685,0 0,-2.8354 -0.5540664,0 z m 1.140725,0 0,2.8354 1.7273836,0 0,-2.8354 -1.7273836,0 z m 2.2814501,0 0,2.8354 1.7273832,0 0,-2.8354 -1.7273832,0 z m 2.3140422,0 0,2.8354 1.727383,0 0,-2.8354 -1.727383,0 z m 2.314042,0 0,2.8354 1.694791,0 0,-2.8354 -1.694791,0 z m 2.281451,0 0,2.8354 1.727382,0 0,-2.8354 -1.727382,0 z m 2.314041,0 0,2.8354 1.727384,0 0,-2.8354 -1.727384,0 z m 2.281451,0 0,2.8354 1.727383,0 0,-2.8354 -1.727383,0 z m 2.314042,0 0,2.8354 1.727383,0 0,-2.8354 -1.727383,0 z m 2.314042,0 0,2.8354 1.727383,0 0,-2.8354 -1.727383,0 z m 2.28145,0 0,2.8354 1.727384,0 0,-2.8354 -1.727384,0 z m 2.314042,0 0,2.8354 1.727385,0 0,-2.8354 -1.727385,0 z m 2.28145,0 0,2.8354 1.727384,0 0,-2.8354 -1.727384,0 z m 2.314043,0 0,2.8354 1.727384,0 0,-2.8354 -1.727384,0 z m 2.314042,0 0,2.8354 1.727384,0 0,-2.8354 -1.727384,0 z m 2.28145,0 0,2.8354 1.727384,0 0,-2.8354 -1.727384,0 z m 2.314042,0 0,2.8354 1.466646,0 c 0.107905,-0.4723 0.189359,-0.9487 0.260738,-1.434 l 0,-1.4014 -1.727384,0 z m -35.1669231,3.1288 c 0.018977,0.077 0.04525,0.1512 0.065185,0.2282 l 0,-0.2282 -0.065185,0 z m 0.6518429,0 0,2.1185 c 0.08982,0.2382 0.161593,0.4835 0.2607371,0.717 l 1.4666465,0 0,-2.8355 -1.7273836,0 z m 2.2814501,0 0,2.8355 1.7273831,0 0,-2.8355 -1.7273831,0 z m 2.3140421,0 0,2.8355 1.727383,0 0,-2.8355 -1.727383,0 z m 2.314042,0 0,2.8355 1.694791,0 0,-2.8355 -1.694791,0 z m 2.281451,0 0,2.8355 1.727382,0 0,-2.8355 -1.727382,0 z m 2.314041,0 0,2.8355 1.727384,0 0,-2.8355 -1.727384,0 z m 2.281451,0 0,2.8355 1.727383,0 0,-2.8355 -1.727383,0 z m 2.314042,0 0,2.8355 1.727383,0 0,-2.8355 -1.727383,0 z m 2.314042,0 0,2.8355 1.727383,0 0,-2.8355 -1.727383,0 z m 2.28145,0 0,2.8355 1.727384,0 0,-2.8355 -1.727384,0 z m 2.314042,0 0,2.8355 1.727385,0 0,-2.8355 -1.727385,0 z m 2.28145,0 0,2.8355 1.727384,0 0,-2.8355 -1.727384,0 z m 2.314043,0 0,2.8355 1.727384,0 0,-2.8355 -1.727384,0 z m 2.314042,0 0,2.8355 1.727384,0 0,-2.8355 -1.727384,0 z m 2.28145,0 0,2.8355 1.727384,0 0,-2.8355 -1.727384,0 z m 2.314042,0 0,2.8355 0.488882,0 c 0.386226,-0.9094 0.672857,-1.8595 0.912581,-2.8355 l -1.401463,0 z m -34.1239744,3.1288 c 0.3739398,0.8406 0.8475562,1.6416 1.3362778,2.4119 l 0,-2.4119 -1.3362778,0 z m 1.8903443,0 0,2.8356 1.7273831,0 0,-2.8356 -1.7273831,0 z m 2.3140421,0 0,2.8356 1.727383,0 0,-2.8356 -1.727383,0 z m 2.314042,0 0,2.8356 1.694791,0 0,-2.8356 -1.694791,0 z m 2.281451,0 0,2.8356 1.727382,0 0,-2.8356 -1.727382,0 z m 2.314041,0 0,2.8356 1.727384,0 0,-2.8356 -1.727384,0 z m 2.281451,0 0,2.8356 1.727383,0 0,-2.8356 -1.727383,0 z m 2.346634,0 0,2.8356 1.727384,0 0,-2.8356 -1.727384,0 z m 2.28145,0 0,2.8356 1.727383,0 0,-2.8356 -1.727383,0 z m 2.28145,0 0,2.8356 1.727384,0 0,-2.8356 -1.727384,0 z m 2.314042,0 0,2.8356 1.727385,0 0,-2.8356 -1.727385,0 z m 2.28145,0 0,2.8356 1.727384,0 0,-2.8356 -1.727384,0 z m 2.314043,0 0,2.8356 1.727384,0 0,-2.8356 -1.727384,0 z m 2.314042,0 0,2.8356 1.727384,0 0,-2.8356 -1.727384,0 z m 2.314042,0 0,2.8356 1.042949,0 c 0.243702,-0.3624 0.465981,-0.7286 0.684434,-1.1082 l 0,-1.7274 -1.727383,0 z m 2.28145,0 0,0.7171 c 0.117,-0.2356 0.251273,-0.476 0.358514,-0.7171 l -0.358514,0 z m -32.2336301,3.1289 0,0.1303 c 0.528489,0.7408 1.0992014,1.4303 1.7273831,2.0859 l 0,-2.2162 -1.7273831,0 z m 2.3140421,0 0,2.8029 0,0.033 c 0.0059,0.01 0.02673,-0.01 0.0326,0 l 1.694791,0 0,-2.8355 -1.727383,0 z m 2.314042,0 0,2.8355 1.694791,0 0,-2.8355 -1.694791,0 z m 2.281451,0 0,2.8355 1.727382,0 0,-2.8355 -1.727382,0 z m 2.314041,0 0,2.8355 1.727384,0 0,-2.8355 -1.727384,0 z m 2.281451,0 0,2.8355 1.727383,0 0,-2.8355 -1.727383,0 z m 2.346634,0 0,2.8355 1.727384,0 0,-2.8355 -1.727384,0 z m 2.28145,0 0,2.8355 1.727383,0 0,-2.8355 -1.727383,0 z m 2.28145,0 0,2.8355 1.727384,0 0,-2.8355 -1.727384,0 z m 2.314042,0 0,2.8355 1.727385,0 0,-2.8355 -1.727385,0 z m 2.28145,0 0,2.8355 1.727384,0 0,-2.8355 -1.727384,0 z m 2.314043,0 0,2.8355 1.727384,0 0,-2.8355 -1.727384,0 z m 2.314042,0 0,2.8355 0.717026,0 c 0.352125,-0.3349 0.685049,-0.682 1.010358,-1.0429 l 0,-1.7926 -1.727384,0 z m 2.314042,0 0,1.1081 c 0.296624,-0.3626 0.578155,-0.7237 0.847396,-1.1081 l -0.847396,0 z m -27.279624,3.1289 c 0.437133,0.3967 0.895639,0.7858 1.368869,1.1407 l 0,-1.1407 -1.368869,0 z m 1.955528,0 0,1.5643 c 0.552805,0.3829 1.133704,0.7197 1.727383,1.0429 l 0,-2.6072 -1.727383,0 z m 2.281451,0 0,2.8355 1.727382,0 0,-2.8355 -1.727382,0 z m 2.314041,0 0,2.8355 1.727384,0 0,-2.8355 -1.727384,0 z m 2.281451,0 0,2.8355 1.727383,0 0,-2.8355 -1.727383,0 z m 2.346634,0 0,2.8355 1.727384,0 0,-2.8355 -1.727384,0 z m 2.28145,0 0,2.8355 1.727383,0 0,-2.8355 -1.727383,0 z m 2.28145,0 0,2.8355 1.727384,0 0,-2.8355 -1.727384,0 z m 2.314042,0 0,2.8355 1.727385,0 0,-2.8355 -1.727385,0 z m 2.314043,0 0,2.8355 0.879988,0 c 0.27851,-0.1426 0.544546,-0.3006 0.814803,-0.4563 l 0,-2.3792 -1.694791,0 z m 2.28145,0 0,2.0533 c 0.591497,-0.3697 1.182371,-0.7752 1.727384,-1.2059 l 0,-0.8474 -1.727384,0 z m 2.314042,0 0,0.3585 c 0.134712,-0.1157 0.259747,-0.2393 0.391106,-0.3585 l -0.391106,0 z m -20.272314,3.1287 c 0.419258,0.1964 0.835676,0.3884 1.271093,0.5542 l 0,-0.5542 -1.271093,0 z m 1.857752,0 0,0.7497 c 0.560599,0.1924 1.144323,0.3492 1.727384,0.4889 l 0,-1.2386 -1.727384,0 z m 2.281451,0 0,1.4016 c 0.568237,0.1179 1.141699,0.1951 1.727383,0.2607 l 0,-1.6623 -1.727383,0 z m 2.346634,0 0,1.7275 c 0.496408,0.04 0.992801,0.065 1.499238,0.065 0.0769,0 0.151466,9e-4 0.228146,0 l 0,-1.7926 -1.727384,0 z m 2.28145,0 0,1.7601 c 0.585191,-0.024 1.15709,-0.087 1.727383,-0.163 l 0,-1.5971 -1.727383,0 z m 2.28145,0 0,1.4993 c 0.583305,-0.095 1.163384,-0.2106 1.727384,-0.3585 l 0,-1.1408 -1.727384,0 z m 2.314042,0 0,1.0104 c 0.587505,-0.1741 1.165364,-0.3584 1.727385,-0.5866 l 0,-0.4238 -1.727385,0 z m 2.314043,0 0,0.163 c 0.102532,-0.046 0.191774,-0.1154 0.293329,-0.163 l -0.293329,0 z"
       id="path8463"
       inkscape:connector-curvature="0" />
    <path
       transform="matrix(1.0370555,0,0,1.0370555,-2.6112692,1000.8904)"
       d="m 43.981512,26.49015 a 18.321102,18.321102 0 1 1 -36.6422042,0 18.321102,18.321102 0 1 1 36.6422042,0 z"
       sodipodi:ry="18.321102"
       sodipodi:rx="18.321102"
       sodipodi:cy="26.49015"
       sodipodi:cx="25.66041"
       id="path6865"
       style="fill:none;stroke:#456b9d;stroke-width:0.96426851;stroke-miterlimit:4;stroke-opacity:1;stroke-dasharray:none"
       sodipodi:type="arc" />
    <path
       style="fill:#f6f6f6;fill-opacity:1;stroke:#456b9d;stroke-width:0.99999994;stroke-opacity:1"
       d="m 41.912624,1034.0051 -2.042338,-2.0191 -2.646773,-2.3758 c 0,0 -0.05562,-1.4915 -0.30077,-2.1952 -0.282831,-0.8119 -0.736249,-1.6006 -1.293309,-2.2554 -0.521001,-0.6125 -1.149773,-1.1357 -1.864772,-1.5036 -0.725972,-0.3736 -2.37608,-0.6616 -2.37608,-0.6616 l 1.293309,-0.9022 c 0,0 -1.863048,0.2822 -2.76708,0.5113 -0.408328,0.1034 -0.815709,0.2254 -1.203079,0.3909 -0.359498,0.1535 -0.653402,0.4429 -1.022617,0.5714 -0.549301,0.191 -1.1728,0.088 -1.714387,0.3007 -0.492024,0.1926 -0.879341,0.5556 -1.323386,0.842 -0.400979,0.2585 -0.757944,0.6101 -1.203078,0.7819 -0.948054,0.3658 -1.996355,0.4119 -3.007697,0.5112 -1.796885,0.1764 -3.617704,-0.034 -5.413853,0.1504 -0.665245,0.068 -1.339268,0.1873 -1.98508,0.3609 -0.294791,0.079 -0.626384,0.1198 -0.872232,0.3007 -1.4397,1.0593 -2.4654488,2.6634 -3.2483116,4.2702 -0.1878333,0.3855 -0.276966,0.8075 -0.3308466,1.2329 -0.057575,0.4546 0,1.3833 0,1.3833 0,0 0.4902921,-0.044 0.7218465,0 0.1514733,0.029 0.2923962,0.095 0.4210775,0.1805 0.3655782,0.2416 0.6155392,0.6295 0.9323862,0.9323 0.295522,0.2823 0.499482,0.7426 0.902309,0.8119 0.372126,0.064 0.697498,-0.293 1.052694,-0.4211 0.309522,-0.1116 0.61725,-0.215 0.932385,-0.3007 0.267591,-0.072 0.53628,-0.2092 0.812078,-0.1804 0.361459,0.037 0.660079,0.3044 0.99254,0.4511 0.558789,0.2467 1.136611,0.4513 1.68431,0.7218 0.330053,0.1629 0.606385,0.448 0.962463,0.5413 0.465525,0.1219 0.967649,-0.07 1.443694,0 2.362498,0.3496 4.560509,1.4214 6.857548,2.0749 0.598788,0.1704 1.25702,0.1725 1.804618,0.4811 0.450034,0.2537 0.774071,0.691 1.142925,1.0526 0.216931,0.2127 0.631616,0.6616 0.631616,0.6616 l 3.329768,3.5079 c 0,0 5.226363,-5.4894 6.740855,-7.6602 0.491357,-0.6787 1.957267,-2.5495 1.957267,-2.5495 z"
       inkscape:connector-curvature="0"
       sodipodi:nodetypes="cccsssccsssssssssssscccscsaaaaaaasscccc"
       id="path3159" />
    <path
       style="fill:#eeeeee;fill-opacity:1;stroke:url(#linearGradient8610);stroke-width:0.60000002;stroke-miterlimit:4;stroke-opacity:1;stroke-dasharray:none"
       d="m 30.245076,1028.3023 2.246169,-10.7348 c 0,0 0.15079,-0.2544 0.277819,-0.3107 0.623669,-0.2762 1.379885,-0.1307 2.04647,0.014 0.651874,0.1462 1.384462,0.3211 1.828728,0.8197 0.07589,0.085 0.102876,0.326 0.102876,0.326 L 34.528,1029.0222 c 0,0 -0.576855,0.354 -0.901242,0.4258 -0.488837,0.108 -1.011205,0.092 -1.502032,-0.01 -0.378047,-0.079 -0.741618,-0.2406 -1.070507,-0.4433 -0.303018,-0.1863 -0.809151,-0.6959 -0.809151,-0.6959 z"
       id="path3774"
       inkscape:connector-curvature="0"
       sodipodi:nodetypes="ccaaaccaaacc" />
    <path
       sodipodi:type="arc"
       style="fill:#eeeeee;fill-opacity:1;stroke:url(#linearGradient8614);stroke-width:0.63691396;stroke-miterlimit:4;stroke-opacity:1;stroke-dasharray:none"
       id="path3772"
       sodipodi:cx="33.660713"
       sodipodi:cy="21.973215"
       sodipodi:rx="5.5803571"
       sodipodi:ry="5.5803571"
       d="m 39.24107,21.973215 c 0,3.081946 -2.498411,5.580357 -5.580357,5.580357 -3.081946,0 -5.580357,-2.498411 -5.580357,-5.580357 0,-3.081946 2.498411,-5.580357 5.580357,-5.580357 3.081946,0 5.580357,2.498411 5.580357,5.580357 z"
       transform="matrix(0.94211839,0,0,0.94196665,0.64191114,1006.4269)" />
    <path
       style="fill:#f6f6f6;fill-opacity:1;stroke:none"
       d="m 33.040882,1043.3122 1.718642,1.8167 c 0,0 0.975864,0.1129 1.441545,-0.01 1.006957,-0.2562 1.971638,-0.7839 2.743851,-1.4791 0.779141,-0.7014 1.199181,-1.7203 1.773995,-2.597 0.433591,-0.6614 0.831165,-1.3458 1.262927,-2.0084 0.423191,-0.6493 1.208863,-1.1577 1.300955,-1.9273 0.07497,-0.6265 -0.658995,-1.7746 -0.658995,-1.7746 l -2.37991,-2.2401 -3.147972,5.1658 -3.111392,4.3382 z"
       id="path3848"
       inkscape:connector-curvature="0"
       sodipodi:nodetypes="ccaaaaaccccc" />
    <path
       sodipodi:type="arc"
       style="fill:#eeeeee;fill-opacity:1;stroke:url(#linearGradient8612);stroke-width:1.58139932;stroke-miterlimit:4;stroke-opacity:1;stroke-dasharray:none"
       id="path3772-0"
       sodipodi:cx="33.660713"
       sodipodi:cy="21.973215"
       sodipodi:rx="5.5803571"
       sodipodi:ry="5.5803571"
       d="m 39.24107,21.973215 c 0,3.081946 -2.498411,5.580357 -5.580357,5.580357 -3.081946,0 -5.580357,-2.498411 -5.580357,-5.580357 0,-3.081946 2.498411,-5.580357 5.580357,-5.580357 3.081946,0 5.580357,2.498411 5.580357,5.580357 z"
       transform="matrix(-0.3665122,0.09819083,-0.09820665,-0.36645317,46.849267,1031.8719)" />
  </g>
</svg>
