<?xml version="1.0" encoding="UTF-8" standalone="no"?>
<!-- Created with Inkscape (http://www.inkscape.org/) -->

<svg
   xmlns:osb="http://www.openswatchbook.org/uri/2009/osb"
   xmlns:dc="http://purl.org/dc/elements/1.1/"
   xmlns:cc="http://creativecommons.org/ns#"
   xmlns:rdf="http://www.w3.org/1999/02/22-rdf-syntax-ns#"
   xmlns:svg="http://www.w3.org/2000/svg"
   xmlns="http://www.w3.org/2000/svg"
   xmlns:xlink="http://www.w3.org/1999/xlink"
   xmlns:sodipodi="http://sodipodi.sourceforge.net/DTD/sodipodi-0.dtd"
   xmlns:inkscape="http://www.inkscape.org/namespaces/inkscape"
   version="1.1"
   width="64"
   height="64"
   id="svg4306"
   inkscape:version="0.48.4 r9939"
   sodipodi:docname="utilities-system-monitor.svg"
   inkscape:output_extension="org.inkscape.output.svg.inkscape"
   sodipodi:version="0.32">
  <metadata
     id="metadata58">
    <rdf:RDF>
      <cc:Work
         rdf:about="">
        <dc:format>image/svg+xml</dc:format>
        <dc:type
           rdf:resource="http://purl.org/dc/dcmitype/StillImage" />
        <dc:title />
      </cc:Work>
    </rdf:RDF>
  </metadata>
  <sodipodi:namedview
     pagecolor="#ffffff"
     bordercolor="#666666"
     borderopacity="1"
     objecttolerance="10"
     gridtolerance="10"
     guidetolerance="10"
     inkscape:pageopacity="0"
     inkscape:pageshadow="2"
     inkscape:window-width="1365"
     inkscape:window-height="731"
     id="namedview56"
     showgrid="false"
     inkscape:zoom="4.0000001"
     inkscape:cx="25.43733"
     inkscape:cy="28.577191"
     inkscape:window-x="34"
     inkscape:window-y="27"
     inkscape:window-maximized="0"
     inkscape:current-layer="svg4306"
     inkscape:snap-bbox="true"
     inkscape:object-paths="false"
     inkscape:object-nodes="false"
     inkscape:snap-smooth-nodes="false"
     inkscape:snap-midpoints="false"
     inkscape:snap-global="false" />
  <defs
     id="defs4308">
    <linearGradient
       id="linearGradient6240"
       osb:paint="solid">
      <stop
         style="stop-color:#696969;stop-opacity:1;"
         offset="0"
         id="stop6242" />
    </linearGradient>
    <linearGradient
       id="linearGradient5060-6">
      <stop
         id="stop5062-3"
         style="stop-color:#000000;stop-opacity:1"
         offset="0" />
      <stop
         id="stop5064-1"
         style="stop-color:#000000;stop-opacity:0"
         offset="1" />
    </linearGradient>
    <linearGradient
       id="linearGradient5048-7">
      <stop
         id="stop5050-5"
         style="stop-color:#000000;stop-opacity:0"
         offset="0" />
      <stop
         id="stop5056-9"
         style="stop-color:#000000;stop-opacity:1"
         offset="0.5" />
      <stop
         id="stop5052-6"
         style="stop-color:#000000;stop-opacity:0"
         offset="1" />
    </linearGradient>
    <radialGradient
       inkscape:collect="always"
       xlink:href="#linearGradient5060-6"
       id="radialGradient2450"
       gradientUnits="userSpaceOnUse"
       gradientTransform="matrix(-0.08512646,0,0,0.03212342,62.750395,42.420611)"
       cx="605.71429"
       cy="486.64789"
       fx="605.71429"
       fy="486.64789"
       r="117.14286" />
    <radialGradient
       inkscape:collect="always"
       xlink:href="#linearGradient5060-6"
       id="radialGradient2453"
       gradientUnits="userSpaceOnUse"
       gradientTransform="matrix(0.08512646,0,0,0.03212342,1.2496192,42.420611)"
       cx="605.71429"
       cy="486.64789"
       fx="605.71429"
       fy="486.64789"
       r="117.14286" />
    <linearGradient
       inkscape:collect="always"
       xlink:href="#linearGradient5048-7"
       id="linearGradient2456"
       gradientUnits="userSpaceOnUse"
       gradientTransform="matrix(0.08512646,0,0,0.03212342,1.2328663,42.420611)"
       x1="302.85715"
       y1="366.64789"
       x2="302.85715"
       y2="609.50507" />
  </defs>
  <rect
     width="55"
     height="48"
     x="4.5"
     y="5.4999986"
     id="rect6276"
     style="fill:#333333;fill-opacity:1;fill-rule:evenodd;stroke:#333333;stroke-width:1;stroke-linecap:round;stroke-linejoin:miter;stroke-miterlimit:4;stroke-opacity:1;stroke-dasharray:none;stroke-dashoffset:0" />
  <rect
     style="opacity:0.40206185;fill:url(#linearGradient2456);fill-opacity:1;fill-rule:nonzero;stroke:none;stroke-width:1;marker:none;visibility:visible;display:inline;overflow:visible"
     id="rect2512"
     y="54.198597"
     x="11.448042"
     height="7.8014026"
     width="41.103916" />
  <path
     style="opacity:0.40206185;fill:url(#radialGradient2453);fill-opacity:1;fill-rule:nonzero;stroke:none;stroke-width:1;marker:none;visibility:visible;display:inline;overflow:visible"
     id="path2514"
     d="m 52.55196,54.198865 c 0,0 0,7.800971 0,7.800971 4.383803,0.01468 10.5979,-1.747801 10.597898,-3.900988 0,-2.153186 -4.891992,-3.899983 -10.597898,-3.899983 z"
     inkscape:connector-curvature="0" />
  <path
     style="opacity:0.40206185;fill:url(#radialGradient2450);fill-opacity:1;fill-rule:nonzero;stroke:none;stroke-width:1;marker:none;visibility:visible;display:inline;overflow:visible"
     id="path2516"
     d="m 11.448042,54.198865 c 0,0 0,7.800971 0,7.800971 -4.383803,0.01468 -10.5978996,-1.747801 -10.5978996,-3.900988 0,-2.153186 4.8919926,-3.899983 10.5978996,-3.899983 z"
     inkscape:connector-curvature="0" />
  <rect
     style="fill:#ffffff;fill-opacity:1;fill-rule:evenodd;stroke:#333333;stroke-width:1;stroke-linecap:round;stroke-linejoin:miter;stroke-miterlimit:4;stroke-opacity:1;stroke-dasharray:none;stroke-dashoffset:0"
     id="rect2551"
     y="12.5"
     x="4.5"
     height="45"
     width="55" />
  <path
     inkscape:connector-curvature="0"
     id="path6246"
     d="m 13.499989,38 38.999967,0"
     style="fill:none;stroke:#dbdbdb;stroke-width:1;stroke-linecap:square;stroke-linejoin:miter;stroke-miterlimit:4;stroke-opacity:1;stroke-dasharray:1, 3;stroke-dashoffset:0" />
  <path
     style="fill:none;stroke:#dbdbdb;stroke-width:1;stroke-linecap:square;stroke-linejoin:miter;stroke-miterlimit:4;stroke-opacity:1;stroke-dasharray:1, 3;stroke-dashoffset:0"
     d="m 13.499989,31.5 38.999967,0"
     id="path6248"
     inkscape:connector-curvature="0" />
  <rect
     style="fill:#d1b3f8;fill-opacity:1;stroke:#ffffff;stroke-width:1;stroke-linecap:round;stroke-linejoin:round;stroke-miterlimit:4;stroke-opacity:1;stroke-dasharray:none;stroke-dashoffset:0"
     id="rect3893"
     width="8"
     height="5"
     x="12.5"
     y="48.5" />
  <rect
     y="48.5"
     x="23.5"
     height="5"
     width="8"
     id="rect4663"
     style="fill:#86b7e7;fill-opacity:1;stroke:#ffffff;stroke-width:1;stroke-linecap:round;stroke-linejoin:round;stroke-miterlimit:4;stroke-opacity:1;stroke-dasharray:none;stroke-dashoffset:0" />
  <rect
     style="fill:#8fe9b8;fill-opacity:1;stroke:#ffffff;stroke-width:1;stroke-linecap:round;stroke-linejoin:round;stroke-miterlimit:4;stroke-opacity:1;stroke-dasharray:none;stroke-dashoffset:0"
     id="rect4665"
     width="8"
     height="5"
     x="34.5"
     y="48.5" />
  <rect
     y="48.5"
     x="45.5"
     height="5"
     width="8"
     id="rect4667"
     style="fill:#f59a9a;fill-opacity:1;stroke:#ffffff;stroke-width:1;stroke-linecap:round;stroke-linejoin:round;stroke-miterlimit:4;stroke-opacity:1;stroke-dasharray:none;stroke-dashoffset:0" />
  <path
     style="fill:none;stroke:#dbdbdb;stroke-width:1px;stroke-linecap:square;stroke-linejoin:miter;stroke-opacity:1"
     d="m 9.4998861,18.5 1.0002279,0"
     id="path4669"
     inkscape:connector-curvature="0" />
  <path
     style="fill:none;stroke:#dbdbdb;stroke-width:1px;stroke-linecap:square;stroke-linejoin:miter;stroke-opacity:1"
     d="m 9.4998861,38 1.0002279,0"
     id="path4673"
     inkscape:connector-curvature="0" />
  <path
     inkscape:connector-curvature="0"
     id="path4675"
     d="m 9.4998861,25 1.0002279,0"
     style="fill:none;stroke:#dbdbdb;stroke-width:1px;stroke-linecap:square;stroke-linejoin:miter;stroke-opacity:1" />
  <path
     style="fill:none;stroke:#dbdbdb;stroke-width:1px;stroke-linecap:square;stroke-linejoin:miter;stroke-opacity:1"
     d="m 9.4998861,31.5 1.0002279,0"
     id="path4677"
     inkscape:connector-curvature="0" />
  <path
     inkscape:connector-curvature="0"
     id="path4679"
     d="m 9.4998861,44.5 1.0002279,0"
     style="fill:none;stroke:#dbdbdb;stroke-width:1px;stroke-linecap:square;stroke-linejoin:miter;stroke-opacity:1" />
  <path
     style="fill:none;stroke:#dbdbdb;stroke-width:0.99999952px;stroke-linecap:square;stroke-linejoin:miter;stroke-opacity:1"
     d="m 13.499989,44.5 38.999967,0"
     id="path4681"
     inkscape:connector-curvature="0" />
  <path
     style="fill:none;stroke:#f59a9a;stroke-width:2;stroke-linecap:butt;stroke-linejoin:miter;stroke-miterlimit:4;stroke-opacity:1;stroke-dasharray:none"
     d="m 13.357434,41.636224 c 0,0 2.426601,0.830966 3.675196,0.757013 1.262707,-0.07479 2.335456,-1.199348 3.600376,-1.198955 0.885207,2.75e-4 1.633863,0.838657 2.519068,0.84061 1.102895,0.0024 2.044138,-1.125983 3.143149,-1.033472 0.914933,0.07702 1.51928,1.234874 2.436041,1.285692 1.12848,0.06255 2.025114,-1.260202 3.155172,-1.241496 0.969429,0.01605 1.700582,1.173098 2.669956,1.154029 1.070094,-0.02105 1.826403,-1.44944 2.894988,-1.388864 0.742504,0.04209 1.146148,1.168173 1.889625,1.186199 0.833115,0.0202 1.347001,-1.184593 2.179379,-1.225032 0.811411,-0.03942 1.418588,0.948404 2.230235,0.982612 0.890476,0.03753 1.63761,-0.865335 2.528871,-0.868337 0.92596,-0.0031 1.708188,0.923108 2.633345,0.884424 0.707016,-0.02956 1.263197,-0.667054 1.948985,-0.841529 0.31538,-0.08024 0.972272,-0.08839 0.972272,-0.08839"
     id="path4693"
     inkscape:connector-curvature="0"
     sodipodi:nodetypes="caaaaaaaaaaaaaac" />
  <path
     style="fill:none;stroke:#d1b4f8;stroke-width:2;stroke-linecap:butt;stroke-linejoin:miter;stroke-miterlimit:4;stroke-opacity:1;stroke-dasharray:none"
     d="m 52.099257,35.281147 -2.828428,0.08839 c 0,0 -2.190927,-1.181676 -3.358757,-1.060661 -0.537984,0.05575 -0.873427,0.786291 -1.414214,0.795495 -0.895946,0.01525 -1.491284,-1.277019 -2.386485,-1.237436 -0.383773,0.01697 -0.621906,0.461196 -0.972272,0.618718 -0.78252,0.351814 -1.637191,0.892579 -2.474873,0.707107 -0.570991,-0.126424 -0.741786,-1.118838 -1.325825,-1.149049 -0.359159,-0.01858 -0.583294,0.42127 -0.883884,0.618719 -0.375889,0.24691 -0.718962,0.575643 -1.149049,0.707106 -0.676808,0.206879 -1.417254,0.160218 -2.121319,0.08839 -0.604255,-0.06165 -1.192161,-0.248034 -1.767768,-0.441942 -0.425281,-0.143267 -0.793237,-0.466494 -1.237437,-0.53033 -0.73431,-0.105526 -1.472332,0.346554 -2.209708,0.265165 -0.527942,-0.05827 -0.975804,-0.462489 -1.502602,-0.53033 -0.703746,-0.09063 -1.42129,0.06089 -2.12132,0.176777 -0.719082,0.119042 -1.402311,0.649806 -2.121321,0.53033 -0.588506,-0.09779 -0.907604,-0.928901 -1.502601,-0.972272 -1.130839,-0.08243 -1.970835,1.572348 -3.093593,1.414214 -0.537957,-0.07577 -0.695394,-1.024201 -1.237436,-1.06066 -0.595231,-0.04004 -1.502602,0.972272 -1.502602,0.972272 l -1.149049,-0.06694"
     id="path4695"
     inkscape:connector-curvature="0"
     sodipodi:nodetypes="ccaaaaaaaaaaaaaaaaaacc" />
  <path
     inkscape:connector-curvature="0"
     id="path6250"
     d="m 13.499989,25 38.999967,0"
     style="fill:none;stroke:#dbdbdb;stroke-width:1;stroke-linecap:square;stroke-linejoin:miter;stroke-miterlimit:4;stroke-opacity:1;stroke-dasharray:1, 3;stroke-dashoffset:0" />
  <path
     style="fill:none;stroke:#8fe9b8;stroke-width:2;stroke-linecap:butt;stroke-linejoin:miter;stroke-miterlimit:4;stroke-opacity:1;stroke-dasharray:none"
     d="m 13.5,29.928165 c 0,0 2.330475,-0.0568 3.495952,-0.06983 0.792715,-0.0089 1.594062,0.110363 2.378286,-0.0057 0.766169,-0.113381 1.451208,-0.683648 2.225556,-0.667636 0.456502,0.0094 0.838348,0.464201 1.294642,0.447492 1.090137,-0.03992 1.988602,-0.900379 3.00657,-1.292469 0.755743,-0.291089 1.489396,-0.804706 2.299038,-0.785716 0.705968,0.01656 1.270049,0.687335 1.970323,0.778338 0.706221,0.09178 1.441487,-0.04004 2.121683,-0.251004 0.510519,-0.158337 0.955694,-0.480183 1.419551,-0.74577 0.740347,-0.423895 1.524464,-0.797679 2.173462,-1.351396 0.921368,-0.7861 1.40626,-2.025454 2.380459,-2.745042 0.530767,-0.392049 1.193218,-0.567432 1.810765,-0.799922 0.846525,-0.318694 1.684542,-0.805371 2.589041,-0.812652 0.641111,-0.0052 1.205153,0.598607 1.844155,0.546391 0.785278,-0.06417 1.343865,-0.946137 2.127233,-1.030481 0.688588,-0.07414 1.328978,0.535862 2.01982,0.487008 0.843776,-0.05967 1.588102,-0.587207 2.358694,-0.936071 0.518358,-0.234672 1.520031,-0.776786 1.520031,-0.776786"
     id="path4697"
     inkscape:connector-curvature="0"
     sodipodi:nodetypes="caaaaaaaaaaaaaaaaac" />
  <path
     style="fill:none;stroke:#dbdbdb;stroke-width:1;stroke-linecap:square;stroke-linejoin:miter;stroke-miterlimit:4;stroke-opacity:1;stroke-dasharray:1, 3;stroke-dashoffset:0"
     d="m 13.499989,18.5 38.999967,0"
     id="path6252"
     inkscape:connector-curvature="0" />
  <path
     style="fill:none;stroke:#86b7e7;stroke-width:2;stroke-linecap:butt;stroke-linejoin:miter;stroke-miterlimit:4;stroke-opacity:1;stroke-dasharray:none"
     d="m 14.092268,17.685585 1.414214,2.474874 c 0,0 1.368967,0.730094 2.12132,0.795495 0.477818,0.04154 0.93923,-0.331689 1.414214,-0.265166 0.521952,0.0731 0.94804,0.46122 1.414213,0.707107 0.536605,0.283038 1.000257,0.745719 1.59099,0.883884 0.603142,0.141068 1.237472,-0.05819 1.856155,-0.08839 0.58929,-0.02876 1.198997,-0.245202 1.767768,-0.08839 0.614451,0.169408 0.968913,0.921841 1.59099,1.06066 0.581544,0.129774 1.180656,-0.366828 1.767767,-0.265164 0.922155,0.15968 1.640396,0.902132 2.474873,1.325825 0.711538,0.361272 1.513086,0.566528 2.157932,1.03661 0.677723,0.494049 1.020588,1.380306 1.731155,1.825825 0.576293,0.361331 1.347797,0.292273 1.944544,0.618719 0.604806,0.330855 0.960618,1.042301 1.59099,1.321383 0.81626,0.36138 1.759887,0.334606 2.651651,0.374999 0.589387,0.0267 1.177818,-0.09552 1.767767,-0.08839 0.590835,0.0071 1.176987,0.142072 1.767767,0.13128 0.533505,-0.0097 1.059393,-0.130658 1.59099,-0.176777 0.941114,-0.08165 1.912544,0.05457 2.828427,-0.176777 0.408997,-0.103308 1.149048,-0.53033 1.149048,-0.53033 l 2.121321,-0.08839"
     id="path4699"
     inkscape:connector-curvature="0"
     sodipodi:nodetypes="ccaaaaaaaaaaaaaaaaaacc" />
  <path
     style="fill:none;stroke:#ffffff;stroke-width:1px;stroke-linecap:square;stroke-linejoin:miter;stroke-opacity:1"
     d="m 42.5,9.3125014 3.000174,0"
     id="path6278"
     inkscape:connector-curvature="0" />
  <path
     style="fill:none;stroke:#ffffff;stroke-width:1px;stroke-linecap:square;stroke-linejoin:miter;stroke-opacity:1"
     d="M 54.5,8.0000014 57,10.500001"
     id="path6280"
     inkscape:connector-curvature="0" />
  <path
     inkscape:connector-curvature="0"
     id="path6282"
     d="M 57,8.0000014 54.5,10.500001"
     style="fill:none;stroke:#ffffff;stroke-width:1px;stroke-linecap:square;stroke-linejoin:miter;stroke-opacity:1" />
  <rect
     style="fill:none;stroke:#ffffff;stroke-width:1;stroke-linecap:square;stroke-linejoin:miter;stroke-miterlimit:4;stroke-opacity:1;stroke-dasharray:none;stroke-dashoffset:0"
     id="rect6284"
     width="3"
     height="2.5"
     x="48.5"
     y="7.875001" />
</svg>
