<?xml version="1.0" encoding="UTF-8" standalone="no"?>
<!-- Created with Inkscape (http://www.inkscape.org/) -->

<svg
   xmlns:dc="http://purl.org/dc/elements/1.1/"
   xmlns:cc="http://creativecommons.org/ns#"
   xmlns:rdf="http://www.w3.org/1999/02/22-rdf-syntax-ns#"
   xmlns:svg="http://www.w3.org/2000/svg"
   xmlns="http://www.w3.org/2000/svg"
   xmlns:xlink="http://www.w3.org/1999/xlink"
   xmlns:sodipodi="http://sodipodi.sourceforge.net/DTD/sodipodi-0.dtd"
   xmlns:inkscape="http://www.inkscape.org/namespaces/inkscape"
   version="1.1"
   width="48"
   height="48"
   id="svg3759"
   inkscape:version="0.48.4 r9939"
   sodipodi:docname="applications-webbrowsers.svg">
  <metadata
     id="metadata37">
    <rdf:RDF>
      <cc:Work
         rdf:about="">
        <dc:format>image/svg+xml</dc:format>
        <dc:type
           rdf:resource="http://purl.org/dc/dcmitype/StillImage" />
        <dc:title />
      </cc:Work>
    </rdf:RDF>
  </metadata>
  <sodipodi:namedview
     pagecolor="#ffffff"
     bordercolor="#666666"
     borderopacity="1"
     objecttolerance="10"
     gridtolerance="10"
     guidetolerance="10"
     inkscape:pageopacity="0"
     inkscape:pageshadow="2"
     inkscape:window-width="963"
     inkscape:window-height="506"
     id="namedview35"
     showgrid="false"
     inkscape:zoom="5.2708333"
     inkscape:cx="23.234233"
     inkscape:cy="23.9846"
     inkscape:window-x="187"
     inkscape:window-y="131"
     inkscape:window-maximized="0"
     inkscape:current-layer="layer1-6" />
  <defs
     id="defs3761">
    <radialGradient
       cx="17.81411"
       cy="24.149399"
       r="9.125"
       fx="17.81411"
       fy="24.149399"
       id="radialGradient2418"
       xlink:href="#linearGradient4845"
       gradientUnits="userSpaceOnUse"
       gradientTransform="matrix(-2.643979,0,2.93653e-8,2.534421,78.72514,-37.986139)" />
    <linearGradient
       id="linearGradient4845">
      <stop
         id="stop4847"
         style="stop-color:#ffffff;stop-opacity:1"
         offset="0" />
      <stop
         id="stop4849"
         style="stop-color:#b6b6b6;stop-opacity:1"
         offset="1" />
    </linearGradient>
    <linearGradient
       id="linearGradient8838">
      <stop
         id="stop8840"
         style="stop-color:#000000;stop-opacity:1"
         offset="0" />
      <stop
         id="stop8842"
         style="stop-color:#000000;stop-opacity:0"
         offset="1" />
    </linearGradient>
    <radialGradient
       cx="62.625"
       cy="4.625"
       r="10.625"
       fx="62.625"
       fy="4.625"
       id="radialGradient3757"
       xlink:href="#linearGradient8838"
       gradientUnits="userSpaceOnUse"
       gradientTransform="matrix(1,0,0,0.341176,0,3.047059)" />
    <linearGradient
       inkscape:collect="always"
       xlink:href="#linearGradient5214"
       id="linearGradient5362"
       gradientUnits="userSpaceOnUse"
       x1="2.9802322e-08"
       y1="8"
       x2="16"
       y2="8" />
    <linearGradient
       id="linearGradient5214">
      <stop
         offset="0"
         style="stop-color:#51cfee;stop-opacity:1"
         id="stop5216" />
      <stop
         offset="0.38886222"
         style="stop-color:#49a3d2;stop-opacity:1"
         id="stop5218" />
      <stop
         offset="0.704952"
         style="stop-color:#3470b4;stop-opacity:1"
         id="stop5220" />
      <stop
         offset="1"
         style="stop-color:#273567;stop-opacity:1"
         id="stop5222" />
    </linearGradient>
    <linearGradient
       inkscape:collect="always"
       xlink:href="#linearGradient4873-9"
       id="linearGradient5364"
       gradientUnits="userSpaceOnUse"
       gradientTransform="matrix(0.3769285,0,0,0.3769199,-1.196178,-0.8960149)"
       x1="20"
       y1="43"
       x2="20"
       y2="2.6887112" />
    <linearGradient
       id="linearGradient4873-9">
      <stop
         id="stop4875-7"
         style="stop-color:#ffffff;stop-opacity:0;"
         offset="0" />
      <stop
         id="stop4877-7"
         style="stop-color:#ffffff;stop-opacity:0.43650794;"
         offset="1" />
    </linearGradient>
  </defs>
  <g
     id="layer1">
    <path
       d="m 73.25,4.625 a 10.625,3.625 0 1 1 -21.25,0 10.625,3.625 0 1 1 21.25,0 z"
       transform="matrix(2.1647059,0,0,2.5636643,-111.56471,26.849769)"
       id="path8836"
       style="opacity:0.4;fill:url(#radialGradient3757);fill-opacity:1;fill-rule:evenodd;stroke:none;stroke-width:0.99999988;marker:none;visibility:visible;display:inline;overflow:visible" />
    <g
       id="layer1-6"
       transform="matrix(2.6752878,0,0,2.6613504,2.5028359,2.5969944)">
      <path
         d="M 15.5,7.999735 C 15.5,12.142003 12.141888,15.5 8.000094,15.5 3.857922,15.5 0.5,12.141965 0.5,7.999735 0.5,3.8576552 3.857922,0.4999997 8.000094,0.4999997 12.141888,0.4999997 15.5,3.8576552 15.5,7.999735 l 0,0 z"
         id="path6495-4"
         style="fill:url(#linearGradient5362);fill-opacity:1;fill-rule:nonzero;stroke:url(#linearGradient5364);stroke-width:0.39000124;stroke-miterlimit:4;stroke-dasharray:none"
         inkscape:connector-curvature="0" />
      <path
         d="M 8.1022062,0.95621712 7.236144,1.0568701 6.2834735,1.3210847 C 6.3646244,1.2921995 6.446834,1.2606694 6.5309208,1.2330132 L 6.4195696,1.0317069 6.048401,1.0946151 5.8628152,1.2707582 5.5782512,1.3085031 5.318433,1.4343196 5.1947098,1.4972277 5.157592,1.5475543 4.9720082,1.5852992 4.8606579,1.8243504 4.712189,1.522391 4.662699,1.6482076 4.687446,1.9879118 4.4523726,2.1892181 4.3162764,2.5540857 l 0.2845641,0 0.1113503,-0.2390512 0.037118,-0.088071 C 4.8744282,2.136984 4.9930427,2.0367771 5.1204782,1.9501669 L 5.4174142,2.05082 C 5.6107409,2.1843878 5.8054259,2.3200676 5.9989133,2.4534326 L 6.2834735,2.1892181 5.9617936,2.05082 5.8133266,1.7488605 5.2689442,1.6859524 5.2565714,1.6230443 5.4916438,1.6733709 5.6277409,1.5349726 5.9246759,1.4720643 C 5.9949454,1.4373108 6.06407,1.4122795 6.1350055,1.3839929 l -0.1855848,0.1761431 0.6681055,0.4655208 0,0.2767962 L 6.357707,2.5666673 6.7041325,3.2712399 6.9392071,3.1328408 7.2361431,2.6673207 C 7.6536127,2.5360677 8.0298636,2.383337 8.423888,2.2017997 L 8.3991411,2.3779426 8.5970969,2.5163408 8.9435226,2.2772895 8.7703107,2.0759833 8.5352353,2.2143814 8.4610018,2.1892185 c 0.017052,-0.00792 0.032364,-0.017109 0.04949,-0.025163 L 8.8569181,1.2581766 8.1022062,0.95621712 z M 4.712189,2.3150345 l 0.2845631,0.2013063 0.2350744,0 0,-0.2390513 -0.2845631,-0.1258162 -0.2350744,0.1635612 0,0 z m 6.569706,-0.1635612 -0.507267,0.1258162 -0.321677,0.2138881 0,0.1887243 -0.5072681,0.3271224 0.098978,0.4906852 0.296936,-0.2138887 0.185586,0.2138887 0.210331,0.1258164 0.136094,-0.3648684 -0.07423,-0.2138876 0.07423,-0.1509803 0.296936,-0.2767955 0.136096,0 -0.136096,0.3019602 0,0.2767953 c 0.122388,-0.033878 0.245923,-0.047072 0.371169,-0.062909 l -0.346425,0.2516338 -0.02474,0.1509791 -0.395915,0.3397051 -0.408287,-0.1006539 0,-0.2390512 -0.185585,0.1258166 0.08661,0.2138885 -0.2969424,0 -0.1608399,0.276796 -0.1979568,0.2264696 -0.3587976,0.075489 0.2103296,0.213888 0.049489,0.2138881 -0.2598183,0 -0.3464256,0.1887243 0,0.5535916 0.160839,0 0.14847,0.1635617 0.334054,-0.1635617 0.1237223,-0.3397046 0.2474463,-0.1509795 0.04949,-0.1258161 0.3959184,-0.1006531 0.222701,0.2516328 0.235075,0.1258159 -0.136096,0.2767966 0.21033,-0.062908 0.11135,-0.2767966 -0.272189,-0.3145408 0.11135,0 0.272192,0.2264692 0.04949,0.3019603 0.235072,0.276796 0.06186,-0.4026124 0.123723,-0.062909 c 0.131695,0.1390299 0.235504,0.3090531 0.346424,0.4655215 l 0.408287,0.025165 0.235074,0.1509801 -0.11135,0.1635607 -0.235073,0.2138886 -0.346429,0 L 11.430361,6.1146942 11.195287,6.1398593 11.022074,6.3411657 10.527181,5.8378996 10.180756,5.7372462 9.6734907,5.8001547 9.2280866,5.9259711 C 8.974001,6.2188978 8.7138634,6.5150518 8.4733747,6.8192683 L 8.1888107,7.5238405 8.3249076,7.6748196 8.0774604,8.0396877 8.3496515,8.6813514 C 8.5761437,8.9418962 8.8039678,9.2006825 9.030129,9.461412 l 0.3340537,-0.2893772 0.1360951,0.1761447 0.3587986,-0.2390518 0.1237209,0.1383971 0.3587977,0 0.210332,0.2390509 -0.123724,0.4277763 0.247446,0.289379 -0.01237,0.503264 0.185586,0.364869 -0.136095,0.314541 c -0.01327,0.225592 -0.02475,0.4412 -0.02475,0.666826 0.10916,0.305671 0.218601,0.610592 0.32168,0.918462 l 0.07423,0.490682 0,0.251634 0.197957,0 0.284562,-0.188726 0.346427,0 0.519637,-0.591336 -0.06186,-0.201308 0.346427,-0.314538 -0.259821,-0.289379 0.309308,-0.251633 0.296936,-0.188725 0.136096,-0.15098 -0.08661,-0.339704 c 0,-0.285996 10e-7,-0.569519 0,-0.855553 L 13.348063,9.8136993 13.645,9.4865757 l 0.321679,-0.8052243 0,-0.2138884 C 13.806601,8.487969 13.653165,8.506459 13.496531,8.51779 l 0.321681,-0.3271227 0.445403,-0.30196 0.235075,-0.2767953 0,-0.3019591 C 14.445379,7.2077028 14.391536,7.0976601 14.337854,6.9954116 l -0.210329,0.2516315 -0.16084,-0.1887234 -0.235076,-0.1887233 0,-0.3900316 0.272193,0.3145399 0.309309,-0.037745 c 0.139537,0.1288198 0.273525,0.2433636 0.395913,0.3900326 l 0.197962,-0.2264767 c 0,-0.2438137 -0.270036,-1.4474482 -0.85369,-2.466002 C 13.46964,3.4356954 12.444894,2.5037591 12.444895,2.5037591 l -0.07423,0.1383981 -0.272192,0.3019595 -0.346426,-0.3648677 0.346426,0 L 12.259308,2.4031061 11.615949,2.2772895 11.281895,2.1514733 z M 3.8461259,2.3150345 3.7224027,2.6421572 c 0,0 -0.2166086,0.036366 -0.2721911,0.050327 C 2.7403769,3.3576613 1.3089548,4.8004591 0.97574709,7.5112538 0.98894063,7.5741032 1.2108206,7.9390292 1.2108206,7.9390292 l 0.5443833,0.3271217 0.5443813,0.1509801 0.2350744,0.2893781 0.3587977,0.2767963 0.2103295,-0.037745 0.148469,0.07549 0,0.050326 -0.1979586,0.5661735 -0.1608399,0.2390518 0.049489,0.113235 -0.1237222,0.4529393 0.4577758,0.855551 0.470148,0.415195 0.2103284,0.30196 -0.024746,0.629081 0.1484679,0.352287 -0.1484679,0.67941 c 0,0 -0.019811,-0.0056 0,0.06291 0.019988,0.06853 0.8270507,0.529522 0.8784351,0.490683 0.051209,-0.03956 0.098979,-0.07549 0.098979,-0.07549 l -0.049489,-0.150981 0.2103287,-0.201305 0.074234,-0.213887 0.3340518,-0.113235 0.2598192,-0.654247 -0.074233,-0.176143 0.1732127,-0.276796 0.3959144,-0.08807 0.1979577,-0.478102 -0.049491,-0.591338 0.3093088,-0.440357 0.049489,-0.452939 C 6.3168632,10.102948 5.9004921,9.8830534 5.4792709,9.6627135 L 5.2689423,9.2475198 4.8853999,9.1594491 4.6750703,8.5932746 4.1678047,8.6561827 3.7224017,8.32906 3.2522529,8.7442535 l 0,0.062909 C 3.1114329,8.7658292 2.9446126,8.7597462 2.8192238,8.6813464 l -0.098978,-0.301959 0,-0.3271237 -0.3216799,0.037745 c 0.025887,-0.2083697 0.06054,-0.4207485 0.086605,-0.6290818 l -0.1855858,0 -0.1855847,0.2390518 -0.1732118,0.088072 -0.2598193,-0.1509809 -0.024745,-0.3271236 0.04949,-0.352285 0.3835414,-0.3019601 0.3093088,0 L 2.4604275,6.4795588 2.843969,6.5676298 3.1285316,6.932497 3.1780203,6.3285781 3.672914,5.9133853 3.8461259,5.4730269 4.2172963,5.3220476 4.415253,5.0200879 4.8854018,4.9320161 5.1204763,4.57973 c -0.2326763,0 -0.472546,0 -0.7052233,0 l 0.4454049,-0.2138879 0.309307,0 L 5.5658793,4.2274443 5.6401139,4.6174752 5.8133266,4.3406788 5.615369,4.2022808 5.6648596,4.0387201 5.5040187,3.8877395 5.3308048,3.8374132 5.3802955,3.6486888 5.2441994,3.3844746 4.9348905,3.5102908 4.9843801,3.2712399 4.6255827,3.0573516 4.3410204,3.5606172 4.3657663,3.7367603 4.0812032,3.8625768 3.9079904,4.2526078 3.821384,3.8877395 3.3388631,3.6864335 3.2522568,3.4096375 3.9079904,3.0321885 4.1925535,2.755392 4.2173002,2.4282694 4.0564593,2.3401977 3.8461298,2.315035 l -3.9e-6,-5e-7 z m 5.3077282,0.6039198 0,0.2013049 0.1113521,0.1258168 0,0.3019596 L 9.2033438,3.9506479 9.5250246,3.8877395 9.760098,3.6486888 9.5497694,3.4473819 C 9.4815603,3.2626763 9.4124355,3.0961113 9.3270669,2.9189543 l -0.1732128,0 z M 8.881662,3.3215656 8.6837063,3.3844746 8.7331959,3.7493421 8.9930152,3.6109428 8.881662,3.3215656 l 0,0 z m 3.625092,3.308973 0.296937,0.3522842 0.358798,0.7800638 0.2227,0.2516317 -0.11135,0.2642164 0.197958,0.2390499 c -0.09084,0.00611 -0.17882,0.012584 -0.272192,0.012584 -0.169621,-0.362459 -0.303864,-0.7279946 -0.43303,-1.1071857 l -0.222704,-0.2516326 -0.123722,-0.4529392 0.08661,-0.088071 0,-1.3e-6 z"
         id="path6534"
         style="opacity:0.4;fill:#ffffff;fill-opacity:1;fill-rule:nonzero;stroke:none"
         inkscape:connector-curvature="0" />
      <path
         d="M 8.1021892,0.95649164 7.2361263,1.0571445 6.2834563,1.3213592 c 0.08115,-0.028885 0.16336,-0.060415 0.247447,-0.088071 l -0.111351,-0.2013068 -0.371169,0.062908 -0.185585,0.176143 -0.284564,0.037745 -0.2598186,0.1258165 -0.1237232,0.062908 -0.037118,0.050327 -0.1855838,0.037745 -0.1113503,0.2390512 -0.1484688,-0.3019594 -0.04949,0.1258166 0.024747,0.3397042 -0.2350734,0.2013063 -0.1360962,0.3648676 0.2845641,0 L 4.7121725,2.315309 4.7492905,2.227238 C 4.8744111,2.1372585 4.9930255,2.0370516 5.1204611,1.9504414 l 0.2969362,0.100653 c 0.193326,0.1335679 0.388011,0.2692476 0.581499,0.4026127 L 6.2834563,2.1894926 5.9617763,2.0510944 5.8133093,1.749135 5.2689269,1.686227 5.2565539,1.623319 5.4916261,1.673646 5.6277231,1.5352476 5.9246581,1.4723396 c 0.07027,-0.034753 0.139394,-0.059785 0.21033,-0.088071 l -0.185585,0.1761431 0.668106,0.4655208 0,0.2767962 -0.25982,0.2642143 0.346426,0.7045726 0.235075,-0.1383992 0.296936,-0.46552 C 7.6535951,2.5363434 8.029846,2.3836127 8.42387,2.2020753 L 8.39912,2.3782183 8.597075,2.5166165 8.943501,2.2775652 8.770289,2.076259 8.535214,2.2146571 8.460984,2.1894941 c 0.01705,-0.00792 0.03236,-0.017109 0.04949,-0.025163 L 8.8569012,1.2584511 8.1021892,0.95649164 z M 4.7121719,2.315309 l 0.284563,0.2013063 0.2350744,0 0,-0.2390513 -0.2845631,-0.1258162 -0.2350743,0.1635612 0,0 z m 6.5697071,-0.1635612 -0.507268,0.1258162 -0.321677,0.2138881 0,0.1887243 -0.5072688,0.3271224 0.09898,0.4906852 0.296936,-0.2138887 0.185586,0.2138887 0.210331,0.1258164 0.136095,-0.3648684 -0.07423,-0.2138876 0.07423,-0.1509804 0.296936,-0.2767954 0.136096,0 -0.136096,0.3019602 0,0.2767953 c 0.122387,-0.033878 0.245922,-0.047072 0.371168,-0.062909 l -0.346425,0.2516336 -0.02474,0.1509791 -0.395916,0.339705 -0.408287,-0.1006538 0,-0.2390512 -0.185585,0.1258166 0.08661,0.2138884 -0.2969287,0 -0.160839,0.2767961 -0.197957,0.2264696 -0.358798,0.075489 0.21033,0.213888 0.04949,0.2138881 -0.259818,0 -0.346426,0.1887243 0,0.5535915 0.160839,0 0.148471,0.163562 0.334054,-0.1635618 0.123722,-0.3397045 0.247447,-0.1509795 0.04949,-0.1258161 0.3959057,-0.1006531 0.222702,0.2516328 0.235075,0.1258159 -0.136097,0.2767965 0.210331,-0.062908 0.11135,-0.2767965 -0.272189,-0.3145408 0.11135,0 0.272192,0.2264692 0.04949,0.3019603 0.235072,0.276796 0.06186,-0.4026124 0.123723,-0.062909 c 0.131695,0.1390299 0.235504,0.3090531 0.346423,0.4655215 l 0.408288,0.025165 0.235073,0.1509801 -0.111349,0.1635607 -0.235073,0.2138886 -0.346429,0 L 11.43035,6.1149687 11.195276,6.1401337 11.022063,6.3414402 10.527169,5.8381741 10.180744,5.7375207 9.6734782,5.8004287 9.2280742,5.9262451 c -0.254091,0.2929272 -0.514228,0.5890812 -0.754717,0.8932977 l -0.284564,0.7045722 0.136097,0.1509791 -0.247447,0.3648681 0.272191,0.6416636 c 0.226492,0.2605448 0.454316,0.5193307 0.680478,0.7800607 l 0.334053,-0.289377 0.136095,0.176144 0.358799,-0.239051 0.123721,0.138397 0.3587978,0 0.210333,0.239051 -0.123725,0.427776 0.247446,0.2893795 -0.01237,0.503264 0.185586,0.364869 -0.136095,0.314541 c -0.01327,0.225592 -0.02475,0.4412 -0.02475,0.666826 0.109161,0.30567 0.218602,0.610592 0.321681,0.918462 l 0.07423,0.490682 0,0.251634 0.197956,0 0.284563,-0.188726 0.346427,0 0.519637,-0.591336 -0.06186,-0.201309 0.346427,-0.314538 -0.259821,-0.289379 0.309307,-0.251632 0.296937,-0.188725 0.136096,-0.150981 -0.08661,-0.339703 c 0,-0.285996 10e-7,-0.569519 0,-0.855553 l 0.235073,-0.5284285 0.296937,-0.327123 0.321679,-0.8052247 0,-0.2138883 c -0.160077,0.020506 -0.313513,0.038996 -0.470147,0.050327 l 0.321681,-0.3271227 0.445403,-0.30196 0.235075,-0.2767953 0,-0.3019591 C 14.445362,7.2079773 14.39152,7.0979346 14.337838,6.9956861 l -0.21033,0.2516315 -0.16084,-0.1887234 -0.235075,-0.1887233 0,-0.3900316 0.272193,0.3145399 0.309309,-0.037745 c 0.139536,0.1288198 0.273525,0.2433636 0.395912,0.3900325 l 0.197962,-0.2264766 c 0,-0.2438137 -0.270035,-1.4474482 -0.853689,-2.466002 C 13.469623,3.4359698 12.444878,2.5040336 12.444879,2.5040336 l -0.07423,0.1383981 -0.272193,0.3019595 -0.346425,-0.3648677 0.346425,0 L 12.259293,2.4033806 11.615934,2.277564 11.281881,2.1517478 z M 3.8461087,2.315309 3.7223855,2.6424317 c 0,0 -0.2166086,0.036366 -0.2721911,0.050327 C 2.7403597,3.357936 1.3089377,4.8007337 0.97573001,7.5115285 0.98892351,7.5743775 1.2108035,7.9393039 1.2108035,7.9393039 l 0.5443833,0.3271217 0.5443813,0.1509801 0.2350743,0.2893781 0.3587977,0.2767963 0.2103295,-0.037745 0.148469,0.07549 0,0.050326 -0.1979586,0.566173 -0.1608399,0.239052 0.04949,0.113235 -0.1237223,0.4529389 0.4577758,0.855551 0.4701481,0.415196 0.2103283,0.30196 -0.024746,0.629081 0.1484679,0.352286 -0.1484679,0.67941 c 0,0 -0.019811,-0.0056 0,0.06291 0.019988,0.06853 0.8270507,0.529522 0.8784351,0.490682 0.051209,-0.03956 0.098979,-0.07549 0.098979,-0.07549 l -0.04949,-0.15098 0.2103287,-0.201305 0.074234,-0.213887 0.3340514,-0.113235 0.25982,-0.654247 -0.07423,-0.176143 0.173212,-0.276796 0.395915,-0.08807 0.197957,-0.478102 -0.04949,-0.591338 0.309309,-0.440357 0.04949,-0.452939 C 6.3168512,10.103222 5.9004802,9.8833271 5.4792582,9.6629871 L 5.268925,9.2477945 4.8853827,9.1597235 4.6750532,8.5935491 4.1677876,8.6564572 3.7223845,8.3293345 3.2522357,8.744528 l 0,0.062909 C 3.1114157,8.7661037 2.9445954,8.7600207 2.8192066,8.6816209 l -0.098978,-0.301959 0,-0.3271237 -0.3216798,0.037745 c 0.025887,-0.2083696 0.06054,-0.4207484 0.086605,-0.6290817 l -0.1855858,0 -0.1855847,0.2390518 -0.1732118,0.088072 -0.2598193,-0.1509809 -0.024745,-0.3271236 0.04949,-0.352285 0.3835414,-0.3019601 0.3093087,0 0.061863,-0.1761423 0.3835415,0.088071 0.2845626,0.364867 L 3.1780032,6.3288526 3.6728969,5.9136598 3.8461087,5.4733014 4.2172791,5.3223221 4.4152358,5.0203624 4.8853846,4.9322906 5.1204591,4.5800045 c -0.2326763,0 -0.4725459,0 -0.7052233,0 l 0.4454049,-0.2138879 0.3093071,0 0.3959145,-0.1383978 0.07423,0.3900309 0.173213,-0.2767964 -0.197958,-0.138398 0.04949,-0.1635607 L 5.5040013,3.888014 5.3307873,3.8376877 5.3802783,3.6489633 5.2441821,3.3847491 4.9348733,3.5105653 4.9843629,3.2715144 4.6255655,3.0576261 4.3410032,3.5608917 4.3657491,3.7370348 4.081186,3.8628513 3.9079732,4.2528823 3.8213668,3.888014 3.338846,3.686708 3.2522396,3.409912 3.9079732,3.032463 4.1925363,2.7556665 4.217283,2.4285439 4.0564422,2.3404722 3.8461126,2.3153093 l -3.9e-6,-5e-7 z m 5.3077285,0.6039198 0,0.2013049 0.111352,0.1258168 0,0.3019595 -0.06186,0.4026124 0.321681,-0.062908 0.235073,-0.2390507 -0.210328,-0.2013069 c -0.068212,-0.184706 -0.137337,-0.351271 -0.222706,-0.528428 l -0.173212,0 z m -0.272193,0.4026113 -0.197955,0.062909 0.04949,0.3648675 0.25982,-0.1383993 -0.111354,-0.2893772 0,0 z m 3.6250938,3.308973 0.296937,0.3522842 0.358797,0.7800638 0.2227,0.2516317 -0.111349,0.2642164 0.197958,0.2390499 c -0.09084,0.00611 -0.17882,0.012584 -0.272192,0.012584 -0.169621,-0.362459 -0.303864,-0.7279946 -0.43303,-1.1071856 l -0.222704,-0.2516326 -0.123723,-0.4529392 0.08662,-0.088071 0,-1.3e-6 z"
         id="path6534-4"
         style="opacity:0.4;fill:#ffffff;fill-opacity:1;fill-rule:nonzero;stroke:none"
         inkscape:connector-curvature="0" />
      <path
         d="M 8.1023736,0.95691696 7.2362882,1.0575666 6.2835937,1.3217729 C 6.3647458,1.2928888 6.4469578,1.2613598 6.531047,1.2337047 L 6.4196932,1.0324043 6.0485146,1.0953105 5.8629247,1.2714479 5.5783534,1.3091917 5.318528,1.4350042 5.1948016,1.4979102 5.1576825,1.5482352 4.972094,1.5859789 4.8607408,1.8250225 4.7122682,1.5230728 4.6627762,1.6488853 4.6875232,1.9885786 4.4524437,2.1898785 4.316344,2.5547344 l 0.2845714,0 0.1113531,-0.2390436 0.037119,-0.088068 c 0.1251237,-0.089977 0.2437411,-0.1901805 0.37118,-0.276788 l 0.296944,0.1006498 c 0.193331,0.1335637 0.3880211,0.2692389 0.5815141,0.4025998 L 6.2835937,2.1898785 5.9619054,2.0514847 5.8134345,1.749535 5.2690379,1.6866289 5.2566648,1.6237227 5.4917432,1.6740478 5.6278437,1.5356538 5.9247864,1.4727476 c 0.070272,-0.034752 0.1393975,-0.059783 0.2103354,-0.088068 L 5.949532,1.5608171 6.6176552,2.026323 l 0,0.2767874 L 6.3578286,2.567316 6.7042634,3.271866 6.9393446,3.1334712 7.2362882,2.6679662 C 7.653768,2.5367173 8.0300287,2.3839915 8.4240629,2.2024599 L 8.3993123,2.3785973 8.5972724,2.5169911 8.9437074,2.2779475 8.7704908,2.0766477 8.5354098,2.2150414 8.4611779,2.1898792 c 0.01705,-0.00792 0.03236,-0.017109 0.049492,-0.025162 L 8.8571051,1.2588668 8.1023736,0.95691696 z m -3.3901051,1.35877384 0.2845703,0.2012999 0.2350806,0 0,-0.2390436 -0.2845706,-0.1258122 -0.2350803,0.1635559 0,0 z m 6.5698755,-0.1635559 -0.50728,0.1258122 -0.321686,0.2138812 0,0.1887182 -0.5072805,0.327112 0.099001,0.4906695 0.296943,-0.2138819 0.185591,0.2138819 0.210336,0.1258123 0.136099,-0.3648567 -0.07423,-0.2138808 0.07423,-0.1509755 0.296944,-0.2767866 0.1361,0 -0.1361,0.3019506 0,0.2767864 c 0.12239,-0.033877 0.245928,-0.04707 0.371177,-0.062907 L 11.19554,3.3850963 11.1708,3.5360706 10.774873,3.8757647 10.366576,3.775114 l 0,-0.2390434 -0.185589,0.1258125 0.08661,0.2138816 -0.2969481,0 -0.1608432,0.2767872 -0.1979621,0.2264624 -0.3588072,0.075486 0.2103354,0.2138812 0.049492,0.2138812 -0.2598247,0 -0.3464349,0.1887182 0,0.5535739 0.1608431,0 L 9.2159211,5.7881115 9.5499837,5.624555 9.673709,5.2848613 9.9211631,5.1338866 l 0.049487,-0.125812 0.3959259,-0.1006499 0.222708,0.2516247 0.235081,0.1258119 -0.1361,0.2767877 0.210335,-0.062906 0.111354,-0.2767877 -0.272196,-0.3145307 0.111353,0 0.272199,0.2264619 0.04949,0.3019507 0.235078,0.2767871 0.06186,-0.4025995 0.123726,-0.062907 c 0.131699,0.1390254 0.23551,0.3090432 0.346432,0.4655066 l 0.408299,0.025164 0.235078,0.1509752 -0.111351,0.1635555 -0.23508,0.2138818 -0.346437,0 L 11.43062,6.1152288 11.195539,6.1403929 11.022321,6.341693 10.527415,5.838443 10.180981,5.7377929 9.6737032,5.8006989 9.2282877,5.9265112 C 8.9741901,6.219429 8.7140464,6.5155736 8.4735511,6.8197803 L 8.1889798,7.52433 8.3250804,7.6753042 8.0776269,8.0401607 8.349825,8.6818037 c 0.2264978,0.2605364 0.4543277,0.519314 0.6804955,0.7800357 L 9.3643822,9.1724716 9.5004807,9.34861 9.8592886,9.1095666 l 0.1237241,0.1383927 0.3588063,0 0.210339,0.2390433 -0.123728,0.4277623 0.247452,0.2893701 -0.01237,0.503248 0.185592,0.364857 -0.136099,0.314531 c -0.01327,0.225584 -0.02475,0.441185 -0.02475,0.666804 0.109163,0.30566 0.218606,0.610573 0.321689,0.918433 l 0.07423,0.490666 0,0.251625 0.197961,0 0.284571,-0.188719 0.346436,0 0.51965,-0.591317 -0.06186,-0.201303 0.346437,-0.314528 -0.259828,-0.289369 0.309315,-0.251625 0.296945,-0.188718 0.136099,-0.150977 -0.08662,-0.339692 c 0,-0.285986 1e-6,-0.5695 0,-0.855525 l 0.235079,-0.5284109 0.296945,-0.3271125 0.321687,-0.8051989 0,-0.2138814 c -0.160081,0.020505 -0.313521,0.038994 -0.47016,0.050325 l 0.321691,-0.3271123 0.445414,-0.3019503 0.23508,-0.2767864 0,-0.3019494 C 14.445709,7.2082024 14.391866,7.0981632 14.338183,6.995918 l -0.210336,0.2516234 -0.160844,-0.1887173 -0.235081,-0.1887173 0,-0.3900191 0.2722,0.3145298 0.309317,-0.037744 c 0.139539,0.1288157 0.273532,0.2433557 0.395922,0.3900199 l 0.197967,-0.2264693 c 0,-0.2438059 -0.270042,-1.4474019 -0.853711,-2.465923 -0.583672,-1.0181857 -1.608444,-1.950092 -1.608443,-1.950092 l -0.07423,0.1383937 -0.2722,0.3019498 -0.346434,-0.364856 0.346434,0 L 12.259585,2.4037597 11.616209,2.2779472 11.282147,2.152135 z M 3.8461829,2.3156908 3.7224565,2.6428031 c 0,0 -0.2166142,0.036365 -0.2721982,0.050325 C 2.7404054,3.3582845 1.3089464,4.8010359 0.97573001,7.5117439 0.98892384,7.5745908 1.2108096,7.9395056 1.2108096,7.9395056 l 0.5443974,0.3271112 0.5443953,0.1509753 0.2350804,0.2893687 0.358807,0.2767875 0.210335,-0.037744 0.1484728,0.075487 0,0.050324 -0.1979637,0.5661548 -0.1608441,0.2390444 0.049491,0.1132314 -0.1237255,0.4529241 0.4577877,0.855524 0.4701602,0.415182 0.2103337,0.301951 -0.024746,0.62906 0.1484717,0.352276 -0.1484717,0.679388 c 0,0 -0.019811,-0.0056 0,0.06291 0.019989,0.06853 0.827072,0.529504 0.8784578,0.490666 0.05121,-0.03956 0.098981,-0.07549 0.098981,-0.07549 l -0.049491,-0.150972 0.2103341,-0.201299 0.074236,-0.213879 0.3340603,-0.113232 0.2598267,-0.654226 -0.074232,-0.176138 0.1732164,-0.276787 0.3959253,-0.08807 0.197962,-0.478086 -0.049491,-0.591319 0.3093171,-0.440343 0.049491,-0.452924 C 6.3169894,10.103354 5.9006077,9.8834665 5.4793748,9.6631336 L 5.2690361,9.2479542 4.8854838,9.1598861 4.6751488,8.5937298 4.1678701,8.6566359 3.7224555,8.3295237 l -0.470161,0.4151802 0,0.062907 C 3.111471,8.7662789 2.9446463,8.760196 2.8192543,8.6817988 l -0.098981,-0.3019493 0,-0.3271132 -0.321688,0.037744 c 0.025888,-0.2083628 0.060541,-0.4207348 0.086607,-0.6290614 l -0.1855907,0 L 2.1140127,7.7004626 1.9407964,7.7885318 1.6809705,7.6375557 1.6562248,7.3104426 1.7057161,6.9581689 2.0892674,6.6562184 l 0.3093167,0 L 2.4604486,6.4800819 2.844,6.5681498 3.1285701,6.9330053 3.1780602,6.3291058 3.6729667,5.9139264 3.8461829,5.4735821 4.2173629,5.3226076 4.4153247,5.0206576 4.8854856,4.9325886 5.1205662,4.5803138 c -0.2326823,0 -0.4725581,0 -0.7052415,0 l 0.4454164,-0.2138811 0.3093151,0 L 5.5659811,4.2280394 5.640213,4.6180578 5.8134305,4.3412702 5.6154674,4.2028767 5.6649587,4.0393213 5.5041186,3.8883454 5.3309,3.8380208 5.3803922,3.6493024 5.2442925,3.3850967 4.9349757,3.5109089 4.9844665,3.2718656 4.6256598,3.0579842 4.3410902,3.5612337 4.3658368,3.7373711 4.0812663,3.8631836 3.908049,4.2532021 3.8214404,3.8883454 3.3389071,3.6870459 3.2522984,3.4102588 3.908049,3.0328219 4.1926194,2.7560343 4.2173668,2.4289221 4.0565219,2.3408532 3.8461868,2.3156911 l -3.9e-6,-5e-7 z m 5.3078658,0.6039005 0,0.2012985 0.1113549,0.1258127 0,0.3019498 L 9.203542,3.9512518 9.5252313,3.8883458 9.7603104,3.6493029 9.5499769,3.4480024 C 9.4817632,3.2633023 9.4126364,3.0967426 9.3272652,2.9195913 l -0.1732165,0 z m -0.2722,0.4025983 -0.1979601,0.062907 0.049492,0.3648558 0.2598267,-0.1383949 -0.1113569,-0.2893679 0,0 z M 12.507035,6.6310567 12.80398,6.9833296 13.162786,7.7633684 13.385492,8.014992 13.27414,8.2792 13.472104,8.5182422 c -0.09085,0.00611 -0.178826,0.012583 -0.2722,0.012583 -0.169626,-0.3624473 -0.303872,-0.7279712 -0.433041,-1.10715 l -0.22271,-0.2516245 -0.123726,-0.4529247 0.08663,-0.088068 0,-1.3e-6 z"
         id="path6534-0"
         style="opacity:0.4;fill:#ffffff;fill-opacity:1;fill-rule:nonzero;stroke:none"
         inkscape:connector-curvature="0" />
    </g>
    <g
       transform="matrix(0.9999061,-0.01370139,0.01370139,0.9999061,-0.2886966,0.5358538)"
       id="g2414">
      <path
         d="m 30.5,20.93716 17,16.500001 -7.75,0.25 c 0,0 3.25,6.75 3.25,6.75 1,3 -3.5,4.125 -4.25,1.875 0,0 -3,-6.75 -3,-6.75 l -5.5,5.875 0.25,-24.500001 z"
         id="path3970"
         style="fill:url(#radialGradient2418);fill-opacity:1;fill-rule:evenodd;stroke:#666666;stroke-width:1;stroke-linecap:butt;stroke-linejoin:round;stroke-miterlimit:4;stroke-opacity:1;stroke-dasharray:none;stroke-dashoffset:0;marker:none;visibility:visible;display:inline;overflow:visible" />
      <path
         d="m 31.657235,23.378571 13.475546,13.185793 -6.921861,0.277459 c 0,0 3.872136,7.756567 3.872136,7.756567 0.402731,1.650134 -2.028275,2.412565 -2.5071,1.152867 0,0 -3.683065,-7.844955 -3.683065,-7.844955 l -4.424727,4.708334 0.189071,-19.236065 z"
         id="path4853"
         style="opacity:0.4;fill:none;stroke:#ffffff;stroke-width:1;stroke-linecap:butt;stroke-linejoin:miter;stroke-miterlimit:4;stroke-opacity:1;stroke-dasharray:none;stroke-dashoffset:0;marker:none;visibility:visible;display:inline;overflow:visible" />
    </g>
  </g>
</svg>
