<?xml version="1.0" encoding="utf-8"?>
<!-- Svg Vector Icons : http://www.onlinewebfonts.com/icon -->
<!DOCTYPE svg PUBLIC "-//W3C//DTD SVG 1.1//EN" "http://www.w3.org/Graphics/SVG/1.1/DTD/svg11.dtd">
<svg version="1.1" xmlns="http://www.w3.org/2000/svg" xmlns:xlink="http://www.w3.org/1999/xlink" x="0px" y="0px" viewBox="0 0 1000 1000" enable-background="new 0 0 1000 1000" xml:space="preserve">
<metadata> Svg Vector Icons : http://www.onlinewebfonts.com/icon </metadata>
<g><path d="M485.3,572h29.4c30.4,0,55.2-24.8,55.2-55.2V63.9c0-30.4-24.9-55.2-55.2-55.2h-29.4c-30.4,0-55.2,24.9-55.2,55.2v452.9C430.1,547.1,454.9,572,485.3,572z"/><path d="M763.8,114.4c-23.2-14.3-53,2.8-53,30v74.9c0,17.9,7.7,35,21.2,46.7c75.7,65.9,122.1,140.5,117.4,250.4C841.9,696,696.7,842.1,517.1,850.7c-200.6,9.6-366.9-150.8-366.9-349.3c0-105.2,46.7-175.1,120.4-237.8c13.3-11.3,20.8-28.1,20.8-45.6v-74c0-27.8-30.5-44.8-54.2-30.3C98.5,198.9,7,332.8,10.1,509.9C14.5,768.5,222.2,980.9,480.6,991c279,10.8,509.4-213,509.4-489.6C990,328.2,899.7,198.2,763.8,114.4z"/></g>
</svg>