<?xml version="1.0" encoding="UTF-8" standalone="no"?>
<!-- Created with Inkscape (http://www.inkscape.org/) -->

<svg
   xmlns:dc="http://purl.org/dc/elements/1.1/"
   xmlns:cc="http://creativecommons.org/ns#"
   xmlns:rdf="http://www.w3.org/1999/02/22-rdf-syntax-ns#"
   xmlns:svg="http://www.w3.org/2000/svg"
   xmlns="http://www.w3.org/2000/svg"
   xmlns:xlink="http://www.w3.org/1999/xlink"
   xmlns:sodipodi="http://sodipodi.sourceforge.net/DTD/sodipodi-0.dtd"
   xmlns:inkscape="http://www.inkscape.org/namespaces/inkscape"
   version="1.0"
   width="16"
   height="16"
   id="svg3386"
   inkscape:version="0.48.4 r9939"
   sodipodi:docname="stock_save.svg">
  <metadata
     id="metadata49">
    <rdf:RDF>
      <cc:Work
         rdf:about="">
        <dc:format>image/svg+xml</dc:format>
        <dc:type
           rdf:resource="http://purl.org/dc/dcmitype/StillImage" />
        <dc:title />
      </cc:Work>
    </rdf:RDF>
  </metadata>
  <sodipodi:namedview
     pagecolor="#ffffff"
     bordercolor="#666666"
     borderopacity="1"
     objecttolerance="10"
     gridtolerance="10"
     guidetolerance="10"
     inkscape:pageopacity="0"
     inkscape:pageshadow="2"
     inkscape:window-width="1440"
     inkscape:window-height="830"
     id="namedview47"
     showgrid="false"
     inkscape:zoom="13.906434"
     inkscape:cx="-3.9269281"
     inkscape:cy="9.2635733"
     inkscape:window-x="0"
     inkscape:window-y="24"
     inkscape:window-maximized="1"
     inkscape:current-layer="layer1" />
  <defs
     id="defs3388">
    <linearGradient
       id="linearGradient3600">
      <stop
         id="stop3602"
         style="stop-color:#f4f4f4;stop-opacity:1"
         offset="0" />
      <stop
         id="stop3604"
         style="stop-color:#dbdbdb;stop-opacity:1"
         offset="1" />
    </linearGradient>
    <radialGradient
       cx="102"
       cy="112.3047"
       r="139.55859"
       id="XMLID_8_"
       gradientUnits="userSpaceOnUse">
      <stop
         id="stop41"
         style="stop-color:#b7b8b9;stop-opacity:1"
         offset="0" />
      <stop
         id="stop47"
         style="stop-color:#ececec;stop-opacity:1"
         offset="0.17402567" />
      <stop
         id="stop49"
         style="stop-color:#fafafa;stop-opacity:0"
         offset="0.23907544" />
      <stop
         id="stop51"
         style="stop-color:#ffffff;stop-opacity:0"
         offset="0.30111277" />
      <stop
         id="stop53"
         style="stop-color:#fafafa;stop-opacity:0"
         offset="0.53130001" />
      <stop
         id="stop55"
         style="stop-color:#ebecec;stop-opacity:0"
         offset="0.84490001" />
      <stop
         id="stop57"
         style="stop-color:#e1e2e3;stop-opacity:0"
         offset="1" />
    </radialGradient>
    <linearGradient
       id="linearGradient3211">
      <stop
         id="stop3213"
         style="stop-color:#ffffff;stop-opacity:1"
         offset="0" />
      <stop
         id="stop3215"
         style="stop-color:#ffffff;stop-opacity:0"
         offset="1" />
    </linearGradient>
    <linearGradient
       id="linearGradient8589">
      <stop
         id="stop8591"
         style="stop-color:#fefefe;stop-opacity:1"
         offset="0" />
      <stop
         id="stop8593"
         style="stop-color:#cbcbcb;stop-opacity:1"
         offset="1" />
    </linearGradient>
    <linearGradient
       x1="32.892288"
       y1="8.0590115"
       x2="36.358372"
       y2="5.4565363"
       id="linearGradient2425"
       xlink:href="#linearGradient8589"
       gradientUnits="userSpaceOnUse"
       gradientTransform="matrix(0.31816418,0,0,0.38470653,-0.7420924,-0.06071817)" />
    <linearGradient
       x1="24"
       y1="1.9999999"
       x2="24"
       y2="46.01725"
       id="linearGradient2429"
       xlink:href="#linearGradient3211"
       gradientUnits="userSpaceOnUse"
       gradientTransform="matrix(0.3026489,0,0,0.32387021,-0.2635745,0.22711199)" />
    <linearGradient
       x1="25.132275"
       y1="0.98520643"
       x2="25.132275"
       y2="47.013336"
       id="linearGradient2435"
       xlink:href="#linearGradient3600"
       gradientUnits="userSpaceOnUse"
       gradientTransform="matrix(0.32340345,0,0,0.33285989,-0.76168395,-0.49927719)" />
    <linearGradient
       inkscape:collect="always"
       xlink:href="#XMLID_8_"
       id="linearGradient3817"
       x1="13.168908"
       y1="1.5000001"
       x2="-7.4796419"
       y2="27.483051"
       gradientUnits="userSpaceOnUse"
       gradientTransform="matrix(0.99810593,0,0,1.0682342,-0.15309336,-0.0117569)" />
  </defs>
  <path
     d="m 1.3404259,0.34042579 c 2.5937906,0 5.0632679,0 7.6570601,0 0.455007,0.16523511 3.023747,2.17821501 3.662061,3.48163941 0,3.9893407 2.6e-5,7.8481688 2.6e-5,11.8375098 -3.7730494,0 -7.5460979,0 -11.3191471,0 0,-5.106384 0,-10.2127674 0,-15.31914921 z"
     id="path4160"
     style="fill:url(#linearGradient2435);fill-opacity:1;stroke:#7e7e7e;stroke-width:0.68085176;stroke-linecap:butt;stroke-linejoin:round;stroke-miterlimit:4;stroke-opacity:1;stroke-dasharray:none;stroke-dashoffset:0;display:inline"
     inkscape:connector-curvature="0" />
  <path
     d="m 1.7866988,15.311386 c -0.062447,0 -0.1133328,-0.05963 -0.1133328,-0.132805 l 0,-14.34287216 C 1.673366,0.76240024 1.724253,0.702905 1.7866988,0.702905 4.1313864,0.7396138 6.7297157,0.6479946 9.071553,0.712049 l 3.221873,3.0130829 0.03321,11.4534531 c 0,0.07317 -0.05077,0.132805 -0.113334,0.132805 l -10.4266002,0 z"
     id="path4191"
     style="fill:url(#linearGradient3817);fill-opacity:1"
     inkscape:connector-curvature="0" />
  <path
     d="m 11.993719,3.9453392 c 0,3.6266599 0,7.3912248 0,11.0178868 -3.3291462,0 -6.658292,0 -9.9874384,0 0,-4.642154 0,-9.2843015 0,-13.9264507 2.2886287,0 4.6318396,0 6.9204684,0"
     id="path2435"
     style="opacity:0.6;fill:none;stroke:url(#linearGradient2429);stroke-width:0.68090504;stroke-linecap:butt;stroke-linejoin:miter;stroke-miterlimit:4;stroke-opacity:1;stroke-dasharray:none;stroke-dashoffset:0;display:inline"
     inkscape:connector-curvature="0" />
  <path
     d="M 8.3819103,0.68861417 C 9.15181,0.9175421 8.6076654,3.9017098 8.6076654,3.9017098 c 0,0 3.0064776,-0.2978424 3.7337766,0.8321026 C 13.332964,6.2742565 12.296019,4.2915278 12.225957,4.1616462 11.722638,3.2285425 9.651634,0.99540815 8.8665757,0.72097248 8.8078286,0.7004361 8.6775625,0.68861417 8.3819103,0.68861417 z"
     id="path3370"
     style="opacity:0.2;fill:#000000;fill-opacity:1;fill-rule:evenodd;stroke:none;display:inline"
     inkscape:connector-curvature="0" />
  <path
     d="m 8.3316573,0.68861417 c 1.0161657,0 0.6658287,2.78528983 0.6658287,2.78528983 0,0 3.32387,-0.3156152 3.32387,1.3926449 0,-0.4162211 0.03712,-1.0294666 -0.04266,-1.1530631 C 11.719994,2.847953 9.785987,1.0243671 9.084001,0.72097248 9.026754,0.69623078 8.6273096,0.68861417 8.3316573,0.68861417 z"
     id="path4474"
     style="fill:url(#linearGradient2425);fill-opacity:1;fill-rule:evenodd;stroke:none;display:inline"
     inkscape:connector-curvature="0" />
  <g
     id="layer1"
     transform="matrix(-0.02025681,0,0,0.02100631,15.665398,-5.0819347)">
    <rect
       style="fill:#4b4b4b;fill-opacity:1;stroke:none"
       id="rect3866"
       width="493.66113"
       height="476.04742"
       x="-526.50928"
       y="527.55273"
       transform="scale(-1,1)" />
    <rect
       style="fill:#ffffff;fill-opacity:1;stroke:none"
       id="rect2996"
       width="394.92892"
       height="214.22134"
       x="82.214226"
       y="765.57642" />
    <rect
       style="fill:#f5f5f5;fill-opacity:1;stroke:none"
       id="rect3891"
       width="394.92892"
       height="166.61661"
       x="-477.14316"
       y="551.35504"
       transform="scale(-1,1)" />
    <path
       style="fill:#464646;fill-opacity:1;stroke:none"
       d="m 131.58034,622.76215 98.73223,0 0,47.60474 -98.15655,0 z"
       id="path3768"
       inkscape:connector-curvature="0" />
    <path
       style="fill:none;stroke:#b4b4b4;stroke-width:15.86767864;stroke-linecap:butt;stroke-linejoin:miter;stroke-miterlimit:4;stroke-opacity:1;stroke-dasharray:none"
       d="m 158.6946,829.19248 261.00315,0"
       id="path3798-5"
       inkscape:connector-curvature="0" />
    <rect
       style="fill:#336699;fill-opacity:1;stroke:none"
       id="rect3889"
       width="296.19669"
       height="48.409878"
       x="-427.77704"
       y="931.38782"
       transform="scale(-1,1)" />
  </g>
</svg>
