<?xml version="1.0" encoding="UTF-8" standalone="no"?>
<!-- Created with Inkscape (http://www.inkscape.org/) -->

<svg
   xmlns:dc="http://purl.org/dc/elements/1.1/"
   xmlns:cc="http://creativecommons.org/ns#"
   xmlns:rdf="http://www.w3.org/1999/02/22-rdf-syntax-ns#"
   xmlns:svg="http://www.w3.org/2000/svg"
   xmlns="http://www.w3.org/2000/svg"
   xmlns:sodipodi="http://sodipodi.sourceforge.net/DTD/sodipodi-0.dtd"
   xmlns:inkscape="http://www.inkscape.org/namespaces/inkscape"
   id="svg7384"
   height="16"
   width="16"
   version="1.1"
   inkscape:version="0.48.4 r9939"
   sodipodi:docname="bluetooth-disabled-symbolic.svg">
  <defs
     id="defs313301" />
  <sodipodi:namedview
     pagecolor="#ffffff"
     bordercolor="#666666"
     borderopacity="1"
     objecttolerance="10"
     gridtolerance="10"
     guidetolerance="10"
     inkscape:pageopacity="0"
     inkscape:pageshadow="2"
     inkscape:window-width="640"
     inkscape:window-height="480"
     id="namedview313299" />
  <metadata
     id="metadata90">
    <rdf:RDF>
      <cc:Work
         rdf:about="">
        <dc:format>image/svg+xml</dc:format>
        <dc:type
           rdf:resource="http://purl.org/dc/dcmitype/StillImage" />
        <dc:title>Gnome Symbolic Icon Theme</dc:title>
      </cc:Work>
    </rdf:RDF>
  </metadata>
  <title
     id="title9167">Gnome Symbolic Icon Theme</title>
  <g
     id="layer9"
     transform="translate(-61 -317)">
    <g
       id="g10845"
       style="opacity:.35;fill:#bebebe"
       transform="matrix(.99449 0 0 .99449 41.152 62.433)">
      <path
         id="path10847"
         d="m67.875 317a1.0001 1.0001 0 0 0 -0.875 1v3.5625l-1.2812-1.2812a1.0165 1.0165 0 1 0 -1.4375 1.4375l2.718 2.72v1.125l-2.7188 2.7188a1.0165 1.0165 0 1 0 1.4375 1.4375l1.282-1.28v3.56a1.0001 1.0001 0 0 0 1.7188 0.71875l2.281-2.28v-3.44h1.4375l-2-2 2.2812-2.2812a1.0001 1.0001 0 0 0 0 -1.4375l-4-4a1.0001 1.0001 0 0 0 -0.844 -0.28zm1.125 3.44 1.562 1.56-1.562 1.56v-3.125zm0 6l1.562 1.56-1.562 1.56v-3.125z"
         style="block-progression:tb;text-indent:0;color:#000000;text-transform:none;fill:#bebebe"
         transform="translate(-41 -61)" />
      <rect
         id="rect10849"
         style="opacity:0.98;fill:#bebebe"
         height="1"
         width="1"
         y="259"
         x="23" />
      <rect
         id="rect10851"
         style="opacity:0.98;fill:#bebebe"
         height="1"
         width="1"
         y="268"
         x="23" />
      <rect
         id="rect10853"
         style="opacity:0.98;fill:#bebebe"
         height="1"
         width="1"
         y="270.97"
         x="26" />
      <rect
         id="rect10855"
         style="opacity:0.98;fill:#bebebe"
         height="1"
         width="1"
         y="256.03"
         x="26" />
    </g>
    <path
       id="path3761-2-3-5-4-8-9-8-0-9"
       style="color:#bebebe;fill:#bebebe"
       d="m71.895 327.89h1.375l1.125 1.0938 1.0938-1.0938h1.4062v1.4688l-1.0938 1.0625 1.0938 1.0625v1.4062h-1.4375l-1.0625-1.0625-1.0625 1.0625h-1.4375v-1.4062l1.0625-1.0625-1.0625-1.0625v-1.4688z" />
  </g>
</svg>
