<?xml version="1.0" encoding="UTF-8" standalone="no"?>
<!-- Created with Inkscape (http://www.inkscape.org/) -->

<svg
   xmlns:dc="http://purl.org/dc/elements/1.1/"
   xmlns:cc="http://creativecommons.org/ns#"
   xmlns:rdf="http://www.w3.org/1999/02/22-rdf-syntax-ns#"
   xmlns:svg="http://www.w3.org/2000/svg"
   xmlns="http://www.w3.org/2000/svg"
   xmlns:sodipodi="http://sodipodi.sourceforge.net/DTD/sodipodi-0.dtd"
   xmlns:inkscape="http://www.inkscape.org/namespaces/inkscape"
   width="16"
   height="16"
   id="svg2"
   version="1.1"
   inkscape:version="0.48.4 r9939"
   sodipodi:docname="network-wired-symbolic.svg">
  <defs
     id="defs4" />
  <sodipodi:namedview
     id="base"
     pagecolor="#ffffff"
     bordercolor="#666666"
     borderopacity="1.0"
     inkscape:pageopacity="0.0"
     inkscape:pageshadow="2"
     inkscape:zoom="11.313709"
     inkscape:cx="5.6743971"
     inkscape:cy="11.057874"
     inkscape:document-units="px"
     inkscape:current-layer="layer1"
     showgrid="false"
     inkscape:window-width="944"
     inkscape:window-height="549"
     inkscape:window-x="411"
     inkscape:window-y="154"
     inkscape:window-maximized="0" />
  <metadata
     id="metadata7">
    <rdf:RDF>
      <cc:Work
         rdf:about="">
        <dc:format>image/svg+xml</dc:format>
        <dc:type
           rdf:resource="http://purl.org/dc/dcmitype/StillImage" />
        <dc:title />
      </cc:Work>
    </rdf:RDF>
  </metadata>
  <g
     inkscape:label="Livello 1"
     inkscape:groupmode="layer"
     id="layer1"
     transform="translate(0,-1036.3622)">
    <path
       style="fill:#c8c8c8;fill-opacity:1;fill-rule:nonzero;stroke:none"
       d="m 9.5999996,1048.3622 -3.1999996,0 0,1 -3.9,0 0,1.5 3.9,0 3.1999996,0 3.9000004,0 0,-1.5 -3.9000004,0 z"
       id="rect2823"
       sodipodi:nodetypes="ccccccccccc"
       inkscape:connector-curvature="0" />
    <path
       style="fill:#bebebe;fill-opacity:1;stroke:none"
       d="m 1.1e-7,1041.7638 1.21213379,1.3584 c 3.7488284,-4.2014 9.8269051,-4.2014 13.5757321,0 L 16,1041.7638 c -4.418262,-4.9517 -11.5817379,-4.9517 -16,0 z"
       id="path2871"
       inkscape:connector-curvature="0" />
    <path
       style="fill:#bebebe;fill-opacity:1;stroke:none"
       d="m 2.4242677,1043.8543 1.2121338,1.3584 c 2.4099613,-2.7008 6.3172355,-2.7008 8.7273165,0 l 1.212014,-1.3584 c -3.079394,-3.4511 -8.0720695,-3.4511 -11.1514645,0 z"
       id="path3647"
       inkscape:connector-curvature="0" />
    <path
       style="fill:#bebebe;fill-opacity:1;stroke:none"
       d="m 4.8485357,1046.0038 1.2121336,1.3584 c 1.0710939,-1.2003 2.8076869,-1.2003 3.8787817,0 l 1.212133,-1.3584 c -1.7405275,-1.9506 -4.5625211,-1.9506 -6.3030483,0 z"
       id="path3651"
       inkscape:connector-curvature="0" />
  </g>
</svg>
