<?xml version="1.0" encoding="UTF-8" standalone="no"?>
<!-- Created with Inkscape (http://www.inkscape.org/) -->

<svg
   xmlns:dc="http://purl.org/dc/elements/1.1/"
   xmlns:cc="http://creativecommons.org/ns#"
   xmlns:rdf="http://www.w3.org/1999/02/22-rdf-syntax-ns#"
   xmlns:svg="http://www.w3.org/2000/svg"
   xmlns="http://www.w3.org/2000/svg"
   xmlns:sodipodi="http://sodipodi.sourceforge.net/DTD/sodipodi-0.dtd"
   xmlns:inkscape="http://www.inkscape.org/namespaces/inkscape"
   id="svg7384"
   height="16"
   width="16"
   version="1.1"
   inkscape:version="0.48.4 r9939"
   sodipodi:docname="network-server-symbolic.svg">
  <defs
     id="defs313856" />
  <sodipodi:namedview
     pagecolor="#ffffff"
     bordercolor="#666666"
     borderopacity="1"
     objecttolerance="10"
     gridtolerance="10"
     guidetolerance="10"
     inkscape:pageopacity="0"
     inkscape:pageshadow="2"
     inkscape:window-width="640"
     inkscape:window-height="480"
     id="namedview313854" />
  <metadata
     id="metadata90">
    <rdf:RDF>
      <cc:Work
         rdf:about="">
        <dc:format>image/svg+xml</dc:format>
        <dc:type
           rdf:resource="http://purl.org/dc/dcmitype/StillImage" />
        <dc:title>Gnome Symbolic Icon Theme</dc:title>
      </cc:Work>
    </rdf:RDF>
  </metadata>
  <title
     id="title9167">Gnome Symbolic Icon Theme</title>
  <g
     id="layer13"
     transform="translate(-502,-176)">
    <g
       id="g11104"
       transform="translate(274 -820)">
      <path
         id="path11106"
         style="fill:#bebebe"
         d="m234 1008v2h-5.5312c-0.26299 0-0.46875 0.2057-0.46875 0.4688v1.0624c0 0.263 0.20576 0.4688 0.46875 0.4688h13.062c0.26299 0 0.46875-0.2058 0.46875-0.4688v-1.0624c0-0.263-0.20575-0.4688-0.46875-0.4688h-5.5312v-2z" />
    </g>
    <path
       id="rect11110"
       style="block-progression:tb;text-indent:0;color:#000000;text-transform:none;fill:#bebebe"
       d="m506.12 176.06c-1.1253 0-2.0625 0.93717-2.0625 2.0625v7.8125c0 1.1253 0.93717 2.0625 2.0625 2.0625h5.8125c1.1253 0 2.0625-0.93717 2.0625-2.0625v-7.8125c0-1.1253-0.93717-2.0625-2.0625-2.0625h-5.8125zm0 2h5.8125c0.0519 0 0.0625 0.0106 0.0625 0.0625v7.8125c0 0.0519-0.0106 0.0625-0.0625 0.0625h-5.8125c-0.0519 0-0.0625-0.0106-0.0625-0.0625v-7.8125c0-0.0519 0.0106-0.0625 0.0625-0.0625z" />
    <rect
       id="rect11880"
       style="color:#000000;fill:#bebebe"
       height="1.0625"
       width="4.0625"
       y="178.97"
       x="507" />
    <rect
       id="rect11882"
       style="color:#000000;fill:#bebebe"
       height="1.0625"
       width="1.0625"
       y="181"
       x="510" />
  </g>
</svg>
