<?xml version="1.0" encoding="UTF-8" standalone="no"?>
<!-- Created with Inkscape (http://www.inkscape.org/) -->

<svg
   xmlns:dc="http://purl.org/dc/elements/1.1/"
   xmlns:cc="http://creativecommons.org/ns#"
   xmlns:rdf="http://www.w3.org/1999/02/22-rdf-syntax-ns#"
   xmlns:svg="http://www.w3.org/2000/svg"
   xmlns="http://www.w3.org/2000/svg"
   xmlns:xlink="http://www.w3.org/1999/xlink"
   xmlns:sodipodi="http://sodipodi.sourceforge.net/DTD/sodipodi-0.dtd"
   xmlns:inkscape="http://www.inkscape.org/namespaces/inkscape"
   width="22"
   height="22"
   id="svg2"
   version="1.1"
   inkscape:version="0.48.4 r9939"
   sodipodi:docname="user-trash.svg">
  <metadata
     id="metadata7">
    <rdf:RDF>
      <cc:Work
         rdf:about="">
        <dc:format>image/svg+xml</dc:format>
        <dc:type
           rdf:resource="http://purl.org/dc/dcmitype/StillImage" />
        <dc:title />
      </cc:Work>
    </rdf:RDF>
  </metadata>
  <sodipodi:namedview
     id="base"
     pagecolor="#ffffff"
     bordercolor="#44cc00"
     borderopacity="1"
     inkscape:pageopacity="0.0"
     inkscape:pageshadow="2"
     inkscape:zoom="7.919596"
     inkscape:cx="19.545803"
     inkscape:cy="27.681148"
     inkscape:document-units="px"
     showgrid="false"
     inkscape:showpageshadow="false"
     objecttolerance="5"
     gridtolerance="3"
     guidetolerance="5"
     inkscape:window-width="1440"
     inkscape:window-height="830"
     inkscape:window-x="0"
     inkscape:window-y="24"
     inkscape:window-maximized="1"
     showguides="true"
     inkscape:guide-bbox="true"
     inkscape:current-layer="layer1" />
  <defs
     id="defs4">
    <linearGradient
       id="linearGradient4245">
      <stop
         style="stop-color:#677484;stop-opacity:1;"
         offset="0"
         id="stop4247" />
      <stop
         id="stop4249"
         offset="0.01467601"
         style="stop-color:#4c5762;stop-opacity:1;" />
      <stop
         id="stop4251"
         offset="0.13164333"
         style="stop-color:#8f9cab;stop-opacity:1;" />
      <stop
         id="stop4253"
         offset="0.25156742"
         style="stop-color:#b0bac5;stop-opacity:1;" />
      <stop
         id="stop4255"
         offset="0.47500879"
         style="stop-color:#cbd2d8;stop-opacity:1;" />
      <stop
         id="stop4257"
         offset="0.63242704"
         style="stop-color:#ffffff;stop-opacity:1;" />
      <stop
         style="stop-color:#ffffff;stop-opacity:1;"
         offset="0.7398482"
         id="stop4259" />
      <stop
         style="stop-color:#c2cad2;stop-opacity:1;"
         offset="0.84821433"
         id="stop4261" />
      <stop
         id="stop4263"
         offset="0.89441282"
         style="stop-color:#b7bfc6;stop-opacity:1;" />
      <stop
         style="stop-color:#5d6c7b;stop-opacity:1;"
         offset="1"
         id="stop4265" />
    </linearGradient>
    <linearGradient
       id="linearGradient3853">
      <stop
         style="stop-color:#393f42;stop-opacity:1;"
         offset="0"
         id="stop3855" />
      <stop
         style="stop-color:#404648;stop-opacity:1;"
         offset="1"
         id="stop3857" />
    </linearGradient>
    <linearGradient
       id="linearGradient3829">
      <stop
         style="stop-color:#2e3436;stop-opacity:1;"
         offset="0"
         id="stop3831" />
      <stop
         style="stop-color:#303739;stop-opacity:1;"
         offset="1"
         id="stop3833" />
    </linearGradient>
    <linearGradient
       inkscape:collect="always"
       xlink:href="#linearGradient4245"
       id="linearGradient3794"
       x1="111.10714"
       y1="109.40729"
       x2="420.85715"
       y2="109.40729"
       gradientUnits="userSpaceOnUse"
       gradientTransform="matrix(0.1707477,0,0,0.1707477,4.5532444,961.75324)" />
    <linearGradient
       inkscape:collect="always"
       xlink:href="#linearGradient3829"
       id="linearGradient3835"
       x1="86.907646"
       y1="128.83484"
       x2="417.96683"
       y2="128.83484"
       gradientUnits="userSpaceOnUse"
       gradientTransform="matrix(0.1707477,0,0,0.1707477,4.5532444,961.75324)" />
    <linearGradient
       inkscape:collect="always"
       xlink:href="#linearGradient4245"
       id="linearGradient3843"
       x1="111.64286"
       y1="308.18103"
       x2="415.5"
       y2="308.18103"
       gradientUnits="userSpaceOnUse"
       gradientTransform="matrix(0.1707477,0,0,0.1707477,4.5532444,961.75324)" />
    <linearGradient
       inkscape:collect="always"
       xlink:href="#linearGradient3829"
       id="linearGradient3851"
       x1="367"
       y1="464.23215"
       x2="438"
       y2="464.23215"
       gradientUnits="userSpaceOnUse"
       gradientTransform="matrix(0.1707477,0,0,0.1707477,4.5532444,961.75324)" />
    <linearGradient
       inkscape:collect="always"
       xlink:href="#linearGradient3853"
       id="linearGradient3859"
       x1="380.62653"
       y1="477.55722"
       x2="374.86365"
       y2="485.00708"
       gradientUnits="userSpaceOnUse"
       gradientTransform="matrix(0.1707477,0,0,0.1707477,4.5532444,961.75324)" />
    <linearGradient
       inkscape:collect="always"
       xlink:href="#linearGradient3829"
       id="linearGradient3867"
       x1="113.875"
       y1="466.23593"
       x2="414.96429"
       y2="466.23593"
       gradientUnits="userSpaceOnUse"
       gradientTransform="matrix(0.1707477,0,0,0.1707477,4.5532444,961.75324)" />
    <linearGradient
       id="linearGradient4014">
      <stop
         style="stop-color:#000000;stop-opacity:1;"
         offset="0"
         id="stop4016" />
      <stop
         style="stop-color:#434343;stop-opacity:0;"
         offset="1"
         id="stop4018" />
    </linearGradient>
    <radialGradient
       inkscape:collect="always"
       xlink:href="#linearGradient4014"
       id="radialGradient3928"
       gradientUnits="userSpaceOnUse"
       gradientTransform="matrix(0.92933631,-0.00955121,-0.0359355,0.25912257,35.576681,329.23482)"
       cx="279.30719"
       cy="440.78424"
       fx="279.30719"
       fy="440.78424"
       r="202.02544" />
    <linearGradient
       id="linearGradient3927">
      <stop
         style="stop-color:#c7ced6;stop-opacity:1;"
         offset="0"
         id="stop3929" />
      <stop
         id="stop3931"
         offset="0.39771599"
         style="stop-color:#b7c0ca;stop-opacity:1;" />
      <stop
         style="stop-color:#9faab5;stop-opacity:1;"
         offset="1"
         id="stop3933" />
    </linearGradient>
    <linearGradient
       y2="73.443436"
       x2="263.68088"
       y1="37.433083"
       x1="257.71649"
       gradientUnits="userSpaceOnUse"
       id="linearGradient3125"
       xlink:href="#linearGradient3927"
       inkscape:collect="always" />
    <linearGradient
       id="linearGradient4167-1">
      <stop
         style="stop-color:#ffffff;stop-opacity:0;"
         offset="0"
         id="stop4169-1" />
      <stop
         id="stop4171-0"
         offset="0.51920968"
         style="stop-color:#ffffff;stop-opacity:0.63492066;" />
      <stop
         style="stop-color:#ffffff;stop-opacity:0;"
         offset="1"
         id="stop4173-3" />
    </linearGradient>
    <linearGradient
       gradientTransform="matrix(0.17074771,0,0,0.17074771,4.2829842,961.4157)"
       y2="91.398506"
       x2="397.64285"
       y1="91.398506"
       x1="137.35715"
       gradientUnits="userSpaceOnUse"
       id="linearGradient3346"
       xlink:href="#linearGradient4167-1"
       inkscape:collect="always" />
  </defs>
  <g
     id="layer1"
     transform="matrix(0.25513035,0,0,0.25513035,-1.2540149,-245.50928)">
    <path
       sodipodi:type="arc"
       style="opacity:0.72454541;fill:url(#radialGradient3928);fill-opacity:1;stroke:none"
       id="path4012"
       sodipodi:cx="279.30719"
       sodipodi:cy="440.78424"
       sodipodi:rx="201.52544"
       sodipodi:ry="55.053314"
       d="m 480.83263,440.78424 a 201.52544,55.053314 0 1 1 -403.050876,0 201.52544,55.053314 0 1 1 403.050876,0 z"
       transform="matrix(0.17200109,0,0.21932016,0.15226467,-95.244317,973.02148)" />
    <path
       style="fill:url(#linearGradient3867);fill-opacity:1;stroke:none"
       d="m 75.41354,1036.5225 -1.772054,1.4697 c 0,0 -3.65284,2.447 -5.594884,3.4683 -0.909475,0.4784 -1.850693,0.9061 -2.823068,1.2384 -1.376638,0.4704 -2.801839,0.8031 -4.233865,1.0594 -2.097979,0.3756 -4.225677,0.6296 -6.355961,0.6961 -3.72705,0.1161 -7.467071,-0.1224 -11.17438,-0.5227 -3.044203,-0.3288 -6.121059,-0.6663 -9.055726,-1.5398 -2.130092,-0.634 -4.16113,-1.5984 -6.114314,-2.6587 -1.680172,-0.9121 -4.783048,-3.165 -4.783048,-3.165 l 0.05122,3.455 c 0,0 4.242645,2.2777 6.516464,3.0325 4.360062,1.4473 8.929823,2.2731 13.492123,2.8121 3.569576,0.4217 7.189285,0.5142 10.778448,0.3202 2.735602,-0.1479 5.462548,-0.5526 8.141004,-1.1282 1.48092,-0.3182 3.005989,-0.6014 4.360055,-1.2803 1.732671,-0.8688 3.026437,-2.4328 4.650577,-3.4906 0.98424,-0.6411 3.074085,-1.7225 3.074085,-1.7225 0,0 0.316349,-0.2655 0.469594,-0.4038 0.127387,-0.1151 0.373728,-0.3541 0.373728,-0.3541 z"
       id="path3000"
       inkscape:connector-curvature="0"
       sodipodi:nodetypes="ccaaaaaaaccaaaaaacacc" />
    <path
       style="fill:url(#linearGradient3859);fill-opacity:1;stroke:none"
       d="m 66.78905,1043.8779 0.172483,-2.6842 0.603921,-0.2135 5.96987,3.9271 z"
       id="path2996"
       inkscape:connector-curvature="0"
       sodipodi:nodetypes="ccccc" />
    <path
       style="fill:url(#linearGradient3851);fill-opacity:1;stroke:none"
       d="m 67.01445,1040.9823 6.188077,-3.2953 6.333126,3.7675 -6.000329,3.4528 z"
       id="path2998"
       inkscape:connector-curvature="0"
       sodipodi:nodetypes="ccccc" />
    <path
       style="fill:url(#linearGradient3843);fill-opacity:1;stroke:none"
       d="m 66.845667,1041.9996 c -2.32127,1.0917 -4.209496,1.3301 -6.375162,1.726 -2.166517,0.3961 -4.375088,0.5618 -6.576071,0.6416 -3.332809,0.1206 -6.680462,0.052 -10.001869,-0.2489 -2.717347,-0.246 -5.434393,-0.6276 -8.086389,-1.269 -2.709967,-0.6554 -5.442248,-1.3889 -7.942536,-2.6226 -1.575861,-0.7775 -2.966751,-1.7594 -4.3574,-2.9672 l 0,-53.6744 c 0,0 4.141039,1.93342 6.326222,2.57063 2.926241,0.85327 5.966908,1.29437 8.994136,1.65047 3.937315,0.46318 7.912411,0.62776 11.876878,0.62658 3.448592,-8.9e-4 6.911233,-0.10692 10.331112,-0.55112 2.090667,-0.27154 4.16456,-0.71042 6.192215,-1.28769 1.839866,-0.52381 3.649794,-1.17526 5.391617,-1.96619 0.968167,-0.43963 2.79512,-1.53716 2.79512,-1.53716 l 0,53.40728 c 0,0 -0.620966,0.6661 -0.973941,0.9515 -0.255717,0.2068 -0.821941,0.5455 -0.821941,0.5455 l -0.298404,-0.1 -5.886873,3.085 -0.525733,0.3963 z"
       id="path3002"
       inkscape:connector-curvature="0"
       sodipodi:nodetypes="caaaaaccaaaaaaccaccccc" />
    <path
       style="fill:url(#linearGradient3835);fill-opacity:1;stroke:none"
       d="m 75.41354,982.61495 c 0,0 -1.42738,0.75484 -2.200702,0.96199 -8.95565,2.39878 -18.371547,3.22642 -27.641881,3.08983 -6.204136,-0.0914 -12.416542,-1.08396 -18.430262,-2.612 -1.247238,-0.31691 -3.617381,-1.34867 -3.617381,-1.34867 0,0 -0.01706,-2.42309 -0.01706,-3.62099 -2.035438,0.031 -2.371373,0.46033 -3.10308,1.31231 -0.722306,0.84103 -0.902684,2.11833 -0.818016,3.22371 0.06285,0.82056 0.383416,1.69 0.964605,2.27265 0.75688,0.75878 1.394448,1.15638 2.956491,1.26365 l 0.0054,-3.06133 c 0,0 1.713453,0.79403 2.601955,1.10966 1.814163,0.64445 3.663874,1.21491 5.551486,1.59365 4.069988,0.81664 8.225159,1.20052 12.368919,1.44738 4.096702,0.24405 8.21545,0.28003 12.31185,0.0309 3.345523,-0.20341 6.706603,-0.51375 9.977953,-1.24328 2.600019,-0.5798 5.152067,-1.42141 7.598776,-2.4749 0.519669,-0.22376 1.490965,-0.81126 1.490965,-0.81126 z"
       id="path3004"
       inkscape:connector-curvature="0"
       sodipodi:nodetypes="caaaccaaaccaaaaaacc" />
    <path
       style="fill:url(#linearGradient3794);fill-opacity:1;stroke:none"
       d="m 75.41354,982.64543 0,-9.31136 c 0,0 -2.920615,1.8654 -4.551533,2.39266 -5.184128,1.67603 -10.744868,1.95201 -16.181846,2.30352 -4.372463,0.28271 -8.769798,0.0965 -13.143805,-0.16131 -5.498736,-0.7631 -11.216763,-0.35164 -15.936669,-2.52447 -0.78578,-0.37304 -2.093447,-1.97617 -2.093447,-1.97617 l 0,9.36555 c 0,0 2.920543,1.24623 4.436516,1.70747 2.245906,0.68332 4.545847,1.21384 6.867797,1.55964 5.327412,0.79335 10.730509,1.23899 16.116204,1.16819 5.839912,-0.0767 11.72968,-0.48153 17.436055,-1.72561 1.43042,-0.31187 2.798106,-0.87412 4.154126,-1.42603 0.989556,-0.40275 2.896602,-1.37208 2.896602,-1.37208 z"
       id="path3006"
       inkscape:connector-curvature="0"
       sodipodi:nodetypes="ccaaccccaaaaac" />
    <path
       sodipodi:type="arc"
       style="fill:url(#linearGradient3125);fill-opacity:1;stroke:none"
       id="path3096-7"
       sodipodi:cx="261.07144"
       sodipodi:cy="56.642857"
       sodipodi:rx="152.5"
       sodipodi:ry="31.071428"
       d="m 413.57144,56.642857 a 152.5,31.071428 0 1 1 -305,0 152.5,31.071428 0 1 1 305,0 z"
       transform="matrix(0.17020989,0,0,0.16719751,5.016863,963.89346)" />
    <path
       sodipodi:nodetypes="caaaaac"
       inkscape:connector-curvature="0"
       id="path4067-2"
       d="m 27.713973,976.36437 c 0,0 3.697769,0.97238 5.580912,1.2857 2.123983,0.35338 4.275553,0.54117 6.425095,0.66616 4.072418,0.23678 8.159264,0.27444 12.236869,0.15723 4.045358,-0.11628 8.096107,-0.34475 12.111073,-0.8531 1.810837,-0.22929 3.630022,-0.49007 5.385847,-0.98881 0.983,-0.27921 2.85605,-1.11416 2.85605,-1.11416"
       style="fill:none;stroke:url(#linearGradient3346);stroke-width:0.17074768px;stroke-linecap:butt;stroke-linejoin:miter;stroke-opacity:1" />
  </g>
</svg>
