<?xml version="1.0" encoding="UTF-8" standalone="no"?>
<!-- Created with Inkscape (http://www.inkscape.org/) -->

<svg
   xmlns:dc="http://purl.org/dc/elements/1.1/"
   xmlns:cc="http://creativecommons.org/ns#"
   xmlns:rdf="http://www.w3.org/1999/02/22-rdf-syntax-ns#"
   xmlns:svg="http://www.w3.org/2000/svg"
   xmlns="http://www.w3.org/2000/svg"
   xmlns:xlink="http://www.w3.org/1999/xlink"
   xmlns:sodipodi="http://sodipodi.sourceforge.net/DTD/sodipodi-0.dtd"
   xmlns:inkscape="http://www.inkscape.org/namespaces/inkscape"
   version="1.0"
   width="128"
   height="128"
   id="svg4486"
   sodipodi:version="0.32"
   inkscape:version="0.48.4 r9939"
   sodipodi:docname="audio-x-smart-playlist.svg"
   inkscape:output_extension="org.inkscape.output.svg.inkscape">
  <metadata
     id="metadata51">
    <rdf:RDF>
      <cc:Work
         rdf:about="">
        <dc:format>image/svg+xml</dc:format>
        <dc:type
           rdf:resource="http://purl.org/dc/dcmitype/StillImage" />
        <dc:title />
      </cc:Work>
    </rdf:RDF>
  </metadata>
  <sodipodi:namedview
     inkscape:window-height="781"
     inkscape:window-width="1438"
     inkscape:pageshadow="2"
     inkscape:pageopacity="0.0"
     guidetolerance="10.0"
     gridtolerance="10.0"
     objecttolerance="10.0"
     borderopacity="1.0"
     bordercolor="#666666"
     pagecolor="#ffffff"
     id="base"
     showgrid="false"
     inkscape:zoom="4"
     inkscape:cx="117.56971"
     inkscape:cy="71.426688"
     inkscape:window-x="31"
     inkscape:window-y="65"
     inkscape:current-layer="svg4486"
     inkscape:window-maximized="0" />
  <defs
     id="defs4488">
    <linearGradient
       id="linearGradient5048">
      <stop
         id="stop5050"
         style="stop-color:#000000;stop-opacity:0"
         offset="0" />
      <stop
         id="stop5056"
         style="stop-color:#000000;stop-opacity:1"
         offset="0.5" />
      <stop
         id="stop5052"
         style="stop-color:#000000;stop-opacity:0"
         offset="1" />
    </linearGradient>
    <linearGradient
       id="linearGradient5060">
      <stop
         id="stop5062"
         style="stop-color:#000000;stop-opacity:1"
         offset="0" />
      <stop
         id="stop5064"
         style="stop-color:#000000;stop-opacity:0"
         offset="1" />
    </linearGradient>
    <linearGradient
       id="linearGradient3104">
      <stop
         id="stop3106"
         style="stop-color:#aaaaaa;stop-opacity:1"
         offset="0" />
      <stop
         id="stop3108"
         style="stop-color:#c8c8c8;stop-opacity:1"
         offset="1" />
    </linearGradient>
    <linearGradient
       id="linearGradient3600">
      <stop
         id="stop3602"
         style="stop-color:#f4f4f4;stop-opacity:1"
         offset="0" />
      <stop
         id="stop3604"
         style="stop-color:#dbdbdb;stop-opacity:1"
         offset="1" />
    </linearGradient>
    <radialGradient
       cx="102"
       cy="112.3047"
       r="139.55859"
       id="XMLID_8_"
       gradientUnits="userSpaceOnUse">
      <stop
         id="stop41"
         style="stop-color:#b7b8b9;stop-opacity:1"
         offset="0" />
      <stop
         id="stop47"
         style="stop-color:#ececec;stop-opacity:1"
         offset="0.18851049" />
      <stop
         id="stop49"
         style="stop-color:#fafafa;stop-opacity:0"
         offset="0.25718147" />
      <stop
         id="stop51"
         style="stop-color:#ffffff;stop-opacity:0"
         offset="0.30111277" />
      <stop
         id="stop53"
         style="stop-color:#fafafa;stop-opacity:0"
         offset="0.53130001" />
      <stop
         id="stop55"
         style="stop-color:#ebecec;stop-opacity:0"
         offset="0.84490001" />
      <stop
         id="stop57"
         style="stop-color:#e1e2e3;stop-opacity:0"
         offset="1" />
    </radialGradient>
    <linearGradient
       id="linearGradient3211">
      <stop
         id="stop3213"
         style="stop-color:#ffffff;stop-opacity:1"
         offset="0" />
      <stop
         id="stop3215"
         style="stop-color:#ffffff;stop-opacity:0"
         offset="1" />
    </linearGradient>
    <linearGradient
       id="linearGradient8589">
      <stop
         id="stop8591"
         style="stop-color:#fefefe;stop-opacity:1"
         offset="0" />
      <stop
         id="stop8593"
         style="stop-color:#cbcbcb;stop-opacity:1"
         offset="1" />
    </linearGradient>
    <linearGradient
       x1="32.892288"
       y1="8.0590115"
       x2="36.358372"
       y2="5.4565363"
       id="linearGradient2455"
       xlink:href="#linearGradient8589"
       gradientUnits="userSpaceOnUse"
       gradientTransform="matrix(2.6605294,0,0,2.7751643,-5.2544666,-3.5662351)" />
    <linearGradient
       x1="24"
       y1="1.9999999"
       x2="24"
       y2="46.01725"
       id="linearGradient2459"
       xlink:href="#linearGradient3211"
       gradientUnits="userSpaceOnUse"
       gradientTransform="matrix(2.7575715,0,0,2.6744155,-8.181718,-4.1859717)" />
    <radialGradient
       cx="102"
       cy="112.3047"
       r="139.55859"
       id="radialGradient2462"
       xlink:href="#XMLID_8_"
       gradientUnits="userSpaceOnUse"
       gradientTransform="matrix(0.9787237,0,0,-1.0535153,-4.6382988,127.48164)" />
    <linearGradient
       x1="25.132275"
       y1="0.98520643"
       x2="25.132275"
       y2="47.013336"
       id="linearGradient2465"
       xlink:href="#linearGradient3600"
       gradientUnits="userSpaceOnUse"
       gradientTransform="matrix(2.657139,0,0,2.5422197,-5.7713385,-4.9132741)" />
    <linearGradient
       x1="-51.786404"
       y1="50.786446"
       x2="-51.786404"
       y2="2.9062471"
       id="linearGradient2467"
       xlink:href="#linearGradient3104"
       gradientUnits="userSpaceOnUse"
       gradientTransform="matrix(2.1456312,0,0,2.3791388,152.0899,-7.7465258)" />
    <linearGradient
       x1="302.85715"
       y1="366.64789"
       x2="302.85715"
       y2="609.50507"
       id="linearGradient2483"
       xlink:href="#linearGradient5048"
       gradientUnits="userSpaceOnUse"
       gradientTransform="matrix(0.1725148,0,0,0.03920058,0.6482238,98.773724)" />
    <radialGradient
       cx="605.71429"
       cy="486.64789"
       r="117.14286"
       fx="605.71429"
       fy="486.64789"
       id="radialGradient2485"
       xlink:href="#linearGradient5060"
       gradientUnits="userSpaceOnUse"
       gradientTransform="matrix(-0.05903807,0,0,0.03920058,56.929907,98.773804)" />
    <radialGradient
       cx="605.71429"
       cy="486.64789"
       r="117.14286"
       fx="605.71429"
       fy="486.64789"
       id="radialGradient2487"
       xlink:href="#linearGradient5060"
       gradientUnits="userSpaceOnUse"
       gradientTransform="matrix(0.05903808,0,0,0.03920058,69.07008,98.773804)" />
    <linearGradient
       inkscape:collect="always"
       xlink:href="#linearGradient3104"
       id="linearGradient4903"
       x1="16.39006"
       y1="60.249996"
       x2="100.10994"
       y2="60.249996"
       gradientUnits="userSpaceOnUse"
       gradientTransform="matrix(0.97013851,0,0,0.97013851,3.2394321,-0.9508452)" />
    <linearGradient
       inkscape:collect="always"
       xlink:href="#linearGradient3783"
       id="linearGradient3789"
       x1="7.2591696"
       y1="6.7927251"
       x2="7.2591696"
       y2="19.085949"
       gradientUnits="userSpaceOnUse"
       gradientTransform="matrix(1.0976756,0,0,1.0502174,-1.1551998,-0.75754239)" />
    <linearGradient
       id="linearGradient3783">
      <stop
         style="stop-color:#d7e866;stop-opacity:1;"
         offset="0"
         id="stop3785" />
      <stop
         style="stop-color:#94b62d;stop-opacity:1;"
         offset="1"
         id="stop3787" />
    </linearGradient>
    <radialGradient
       cx="14.270205"
       cy="36.985195"
       r="5.7384715"
       fx="14.270205"
       fy="36.985195"
       id="radialGradient3538-3-9"
       xlink:href="#linearGradient3791"
       gradientUnits="userSpaceOnUse"
       gradientTransform="matrix(0.67744776,-0.14923998,-0.10647048,0.72716988,-4.5237978,-13.444399)" />
    <linearGradient
       id="linearGradient3791">
      <stop
         id="stop3793"
         offset="0"
         style="stop-color:#ffffff;stop-opacity:1;" />
      <stop
         id="stop3795"
         offset="1"
         style="stop-color:#badf4a;stop-opacity:0.10416666;" />
    </linearGradient>
    <linearGradient
       inkscape:collect="always"
       xlink:href="#linearGradient2372-7-3-2"
       id="linearGradient3881"
       gradientUnits="userSpaceOnUse"
       gradientTransform="matrix(0.13863734,0,0,0.13519235,-0.06345227,-15.717599)"
       x1="28.256302"
       y1="129.73555"
       x2="57.507824"
       y2="181.79546" />
    <linearGradient
       id="linearGradient2372-7-3-2">
      <stop
         id="stop2374-5-9-1"
         style="stop-color:#ffffff;stop-opacity:1"
         offset="0" />
      <stop
         id="stop2376-3-7-7"
         style="stop-color:#ffffff;stop-opacity:0.37931034"
         offset="1" />
    </linearGradient>
    <linearGradient
       inkscape:collect="always"
       xlink:href="#linearGradient2372-7-3-2"
       id="linearGradient3976"
       gradientUnits="userSpaceOnUse"
       gradientTransform="matrix(0.23748834,0,0,0.12407777,6.4158579,-14.188467)"
       x1="28.739122"
       y1="144.11652"
       x2="26.256771"
       y2="125.39074" />
    <linearGradient
       id="linearGradient3791-2">
      <stop
         id="stop3793-3"
         offset="0"
         style="stop-color:#ffffff;stop-opacity:1;" />
      <stop
         id="stop3795-6"
         offset="1"
         style="stop-color:#badf4a;stop-opacity:0.10416666;" />
    </linearGradient>
    <radialGradient
       r="5.7384715"
       fy="36.985195"
       fx="14.270205"
       cy="36.985195"
       cx="14.270205"
       gradientTransform="matrix(0.67744776,-0.14923998,-0.10647048,0.72716988,3.5026507,-13.342876)"
       gradientUnits="userSpaceOnUse"
       id="radialGradient3182"
       xlink:href="#linearGradient3791-2"
       inkscape:collect="always" />
  </defs>
  <g
     transform="matrix(1.0408163,0,0,0.6302428,-9.571427,43.690218)"
     id="g2478">
    <rect
       width="83.299995"
       height="9.5201406"
       x="21.349998"
       y="113.14653"
       id="rect2879"
       style="opacity:0.3;fill:url(#linearGradient2483);fill-opacity:1;fill-rule:nonzero;stroke:none;stroke-width:1;marker:none;visibility:visible;display:inline;overflow:visible" />
    <path
       d="m 21.35,113.14694 c 0,0 0,9.51962 0,9.51962 -3.040314,0.0179 -7.35,-2.13287 -7.35,-4.76043 0,-2.62755 3.392762,-4.75919 7.35,-4.75919 z"
       id="path2881"
       style="opacity:0.3;fill:url(#radialGradient2485);fill-opacity:1;fill-rule:nonzero;stroke:none;stroke-width:1;marker:none;visibility:visible;display:inline;overflow:visible"
       inkscape:connector-curvature="0" />
    <path
       d="m 104.64999,113.14694 c 0,0 0,9.51962 0,9.51962 3.04032,0.0179 7.35001,-2.13287 7.35001,-4.76043 0,-2.62755 -3.39277,-4.75919 -7.35001,-4.75919 z"
       id="path2883"
       style="opacity:0.3;fill:url(#radialGradient2487);fill-opacity:1;fill-rule:nonzero;stroke:none;stroke-width:1;marker:none;visibility:visible;display:inline;overflow:visible"
       inkscape:connector-curvature="0" />
  </g>
  <path
     d="m 11.499961,1.499962 c 21.311039,0 42.622077,0 63.933118,0 3.738416,1.2619859 23.822451,15.639336 29.066961,25.594247 0,30.468614 0,60.937223 0,91.405831 -31.000026,0 -62.000051,0 -93.000079,0 0,-39.000023 0,-78.000052 0,-117.000078 z"
     id="path4160"
     style="fill:url(#linearGradient2465);fill-opacity:1;stroke:url(#linearGradient2467);stroke-width:0.99992192;stroke-linecap:butt;stroke-linejoin:round;stroke-miterlimit:4;stroke-opacity:1;stroke-dasharray:none;stroke-dashoffset:0;display:inline"
     inkscape:connector-curvature="0" />
  <path
     d="M 12.978723,118 C 12.439449,118 12,117.52697 12,116.94648 L 12,3.1668773 C 12,2.5853392 12.439449,2.1133645 12.978723,2.1133645 33.22709,2.4045657 55.66587,1.6777678 75.889633,2.1858707 L 103.71323,26.088148 104,116.94648 C 104,117.52697 103.56154,118 103.02128,118 l -90.042557,0 z"
     id="path4191"
     style="fill:url(#radialGradient2462);fill-opacity:1"
     inkscape:connector-curvature="0" />
  <path
     d="m 103.50003,26.517935 c 0,29.94778 0,61.034321 0,90.982105 -30.333353,0 -60.666712,0 -91.00007,0 0,-38.333364 0,-76.666721 0,-115.0000784 20.852737,0 42.202796,0 63.055535,0"
     id="path2435"
     style="opacity:0.6;fill:none;stroke:url(#linearGradient2459);stroke-width:0.99992174;stroke-linecap:butt;stroke-linejoin:round;stroke-miterlimit:4;stroke-opacity:1;stroke-dasharray:none;stroke-dashoffset:0;display:inline"
     inkscape:connector-curvature="0" />
  <path
     d="m 65.923062,1.8392376 c 13.028319,0 6.550632,25.8075654 6.550632,25.8075654 0,0 31.510096,-7.189527 31.510096,5.562422 0,0 0.0719,-6.058359 0.0719,-6.058359 C 97.32475,20.41989 83.06065,7.2507492 73.88133,2.2376883 c 0,0 -7.958268,-0.3984507 -7.958268,-0.3984507 l 0,0 z"
     id="path3232"
     style="opacity:0.05;fill:#000000;fill-opacity:1;fill-rule:evenodd;stroke:none;display:inline"
     sodipodi:nodetypes="cccsscc"
     inkscape:connector-curvature="0" />
  <path
     d="m 76.363409,24.461028 c 0,0 27.620381,-4.806258 27.620381,7.516652 0,-6.959262 -15.550874,-26.4251987 -33.362381,-30.1384424 8.65892,3.314504 7.482419,14.4187274 5.742,22.6217904 z"
     id="path12038"
     style="opacity:0.15;fill:#000000;fill-opacity:1;fill-rule:evenodd;stroke:none;display:inline"
     sodipodi:nodetypes="cscc"
     inkscape:connector-curvature="0" />
  <path
     inkscape:connector-curvature="0"
     d="m 52.895017,16.515062 0,12.52061 c -3.834872,0.785393 -7.317392,2.383556 -10.464989,4.484994 l -8.969989,-8.969989 -8.409365,8.409362 8.969989,8.969989 c -2.101435,3.147607 -3.699608,6.630117 -4.484995,10.464983 l -12.520606,0 0,11.959983 12.520606,0 c 0.785387,3.834865 2.38356,7.317386 4.484995,10.464985 0.03123,0.04664 -0.03188,0.140488 0,0.186867 l -8.969989,8.783109 8.409365,8.409366 8.783112,-8.969989 0.186867,0 c 3.147597,2.101435 6.630117,3.699608 10.464986,4.484994 l 0,12.520604 11.959986,0 0,-12.520604 c 3.834866,-0.785386 7.317386,-2.383559 10.464983,-4.484994 l 8.969989,8.969989 8.409358,-8.409366 -8.969982,-8.783109 c 2.149991,-3.181541 3.687976,-6.760197 4.484995,-10.651862 l 12.520607,0 0,-11.959986 -12.520607,0 c -0.78539,-3.834863 -2.383563,-7.317377 -4.484995,-10.46498 -0.03123,-0.04664 0.03123,-0.140421 0,-0.186867 l 8.969982,-8.783112 -8.409358,-8.409362 -8.783116,8.969989 c -0.04664,-0.03123 -0.140224,0.03123 -0.186867,0 -3.147596,-2.101438 -6.630117,-3.699605 -10.464982,-4.484994 l 0,-12.52061 -11.959983,0 z m 5.979988,29.899961 c 6.601912,0 11.959987,5.358068 11.959987,11.959979 0,6.601911 -5.358075,11.959983 -11.959987,11.959983 -6.601911,0 -11.959982,-5.358072 -11.959982,-11.959983 0,-6.601911 5.358071,-11.959979 11.959982,-11.959979 z"
     id="rect3255"
     style="fill:#9e9e9e;fill-opacity:1;fill-rule:nonzero;stroke:none;stroke-width:1.70000005;marker:none;visibility:visible;display:inline;overflow:visible;enable-background:accumulate" />
  <path
     inkscape:connector-curvature="0"
     d="m 53.948587,16.890066 0,12.146726 c -3.720357,0.76194 -7.098883,2.312379 -10.152488,4.351065 l -8.702132,-8.702131 -8.158249,8.158245 8.702132,8.702132 c -2.038683,3.053615 -3.589132,6.432132 -4.351067,10.152483 l -12.146722,0 0,11.60284 12.146722,0 c 0.761935,3.72035 2.312384,7.098878 4.351067,10.152485 0.0303,0.04525 -0.03093,0.136293 0,0.181287 l -8.702132,8.520832 8.158249,8.15825 8.520835,-8.702132 0.181287,0 c 3.053605,2.038683 6.432132,3.589133 10.152486,4.351066 l 0,12.146716 11.602843,0 0,-12.146716 c 3.720351,-0.761933 7.098878,-2.312383 10.152483,-4.351066 l 8.702132,8.702132 8.158242,-8.15825 -8.702125,-8.520832 c 2.085789,-3.086535 3.577847,-6.558327 4.351066,-10.333781 l 12.146724,0 0,-11.602843 -12.146724,0 c -0.761937,-3.720349 -2.312386,-7.09887 -4.351066,-10.15248 -0.0303,-0.04525 0.0303,-0.136228 0,-0.181287 l 8.702125,-8.520836 -8.158242,-8.158245 -8.520839,8.702131 c -0.04525,-0.0303 -0.136037,0.0303 -0.181287,0 -3.053604,-2.038686 -6.432132,-3.589129 -10.152482,-4.351065 l 0,-12.146726 -11.60284,0 z m 5.801417,29.007104 c 6.404769,0 11.602844,5.198068 11.602844,11.602836 0,6.404768 -5.198075,11.60284 -11.602844,11.60284 -6.404768,0 -11.602839,-5.198072 -11.602839,-11.60284 0,-6.404768 5.198071,-11.602836 11.602839,-11.602836 z"
     id="rect3255-7"
     style="fill:url(#linearGradient4903);fill-opacity:1;fill-rule:nonzero;stroke:none;stroke-width:1.70000005;marker:none;visibility:visible;display:inline;overflow:visible;enable-background:accumulate" />
  <path
     d="m 68.395876,1.8392376 c 12.181867,0 6.125037,24.1308414 6.125037,24.1308414 0,0 29.462877,-5.640524 29.462877,6.140541 C 105.54407,22.058999 77.996871,-1.2887721 68.395876,1.8392376 l 0,0 z"
     id="path3230"
     style="opacity:0.1;fill:#000000;fill-opacity:1;fill-rule:evenodd;stroke:none;display:inline"
     sodipodi:nodetypes="ccccc"
     inkscape:connector-curvature="0" />
  <path
     d="m 70.62141,1.8392376 c 8.497314,0 6.228693,20.4316764 6.228693,20.4316764 0,0 27.133687,-2.616144 27.133687,9.706766 0,-3.002504 0.2291,-5.152653 -0.35674,-6.089581 C 99.41822,19.156956 81.239007,4.052365 74.67425,2.0726634 74.182991,1.9245177 73.093706,1.8392376 70.62141,1.8392376 z"
     id="path4474"
     style="fill:url(#linearGradient2455);fill-opacity:1;fill-rule:evenodd;stroke:none;display:inline"
     inkscape:connector-curvature="0" />
  <g
     transform="matrix(6.5286209,0,0,7.1807586,31.445888,21.115553)"
     id="layer1-8">
    <path
       inkscape:connector-curvature="0"
       d="M 12.9907,11.049673 12.588205,7.9462293"
       id="path2931-3"
       style="fill:none;stroke:none"
       sodipodi:nodetypes="cc" />
    <path
       inkscape:connector-curvature="0"
       d="m 3.4946385,3.7485173 c 0,2.6590902 0,2.7687437 0,5.4278346 -1.4438187,0 -3.60743043,0.3065525 -3.75971327,2.6762531 -0.07235,1.125851 0.73103056,2.602752 2.30780667,2.799172 1.4212769,0.177049 3.5148517,-0.616366 3.5396376,-2.450728 -0.022112,-2.7299467 0.0062,-5.5392811 0,-8.2696442 0.3820013,0 5.5754445,0 6.0610105,0 0,2.0449276 0,3.2000193 0,5.2449471 -1.246486,0 -3.3121953,0.3161727 -3.4234837,2.6986481 -0.060683,1.299105 0.9355147,2.670707 2.6291847,2.769801 1.459621,0.0854 3.371427,-0.805015 3.371427,-2.443332 -0.02905,-3.6402374 0.02155,-5.3979781 -0.0022,-9.0386023 0,-0.9266441 -0.501313,-1.5216104 -1.611616,-1.5216104 -2.159757,0 -5.3553497,0 -7.3280412,0 -1.4414163,0 -1.7840014,1.0772599 -1.7840123,2.107261 z"
       id="path4031-1"
       style="fill:url(#linearGradient3789);fill-opacity:1;stroke:#507f16;stroke-width:0.14605086;stroke-linecap:butt;stroke-linejoin:round;stroke-miterlimit:4;stroke-opacity:1;stroke-dasharray:none"
       sodipodi:nodetypes="ccssccccssccssc" />
    <path
       inkscape:connector-curvature="0"
       d="m 4.7589976,10.955828 c -2.275e-4,1.168399 -1.0466497,3.395508 -2.366316,3.611509 -0.9811907,0.160601 -2.57272057,-0.819241 -2.57271971,-2.65179 7e-7,-1.4675 1.06690306,-2.3106342 2.21516381,-2.5136177 2.2282011,-0.3938898 2.7236456,0.3855746 2.7238719,1.5538987 z"
       id="path2937-4"
       style="fill:url(#radialGradient3538-3-9);fill-opacity:1;stroke:none"
       sodipodi:nodetypes="ccssc" />
    <path
       d="m 3.5772971,9.3373092 c 0,0 0.00549,-3.9104828 0.00549,-5.8738924 0,-0.2641802 0.1460838,-0.9367427 0.4425032,-1.2619099 0.2510258,-0.2753712 0.6410655,-0.480395 1.0772436,-0.480395 0.1966284,0 5.3360891,-0.00848 5.3360891,-0.00848 0,0 2.224161,-0.041253 -4.9256793,0.752609 C 4.7671311,2.6524709 4.0565312,3.1248623 4.0282892,3.4096052 3.8912059,4.7917106 3.9002026,4.3894229 3.9002026,9.4422866 3.6997832,9.3740834 3.795917,9.4031373 3.5772971,9.3373092 z"
       id="path2945-9"
       style="opacity:0.4;fill:url(#linearGradient3881);fill-opacity:1;fill-rule:evenodd;stroke:none"
       inkscape:connector-curvature="0"
       sodipodi:nodetypes="csssccscc" />
    <path
       d="m 11.719641,9.3026748 -1.72e-4,-5.4444283 0.596529,0 c 0,0 2.54e-4,1.282592 2.54e-4,5.741572 0,0.03324 -0.249759,-0.2513059 -0.596611,-0.2971437 z"
       id="path2947-4"
       style="opacity:0.4;fill:url(#linearGradient3976);fill-opacity:1;fill-rule:evenodd;stroke:none"
       inkscape:connector-curvature="0"
       sodipodi:nodetypes="cccsc" />
    <path
       inkscape:connector-curvature="0"
       d="m 13.579519,11.135685 c -2.27e-4,1.168399 -0.340133,3.74603 -2.935432,3.369855 -1.351733,-0.195927 -2.3181664,-1.056147 -2.3181656,-2.613672 7e-7,-1.426968 0.848827,-2.2239835 2.2128616,-2.5218198 2.225336,-0.485901 3.04051,0.5973125 3.040736,1.7656368 z"
       id="path2937-4-0"
       style="fill:url(#radialGradient3182);fill-opacity:1;stroke:none"
       sodipodi:nodetypes="csssc" />
  </g>
</svg>
