<?xml version="1.0" encoding="UTF-8" standalone="no"?>
<!-- Created with Inkscape (http://www.inkscape.org/) -->

<svg
   xmlns:dc="http://purl.org/dc/elements/1.1/"
   xmlns:cc="http://creativecommons.org/ns#"
   xmlns:rdf="http://www.w3.org/1999/02/22-rdf-syntax-ns#"
   xmlns:svg="http://www.w3.org/2000/svg"
   xmlns="http://www.w3.org/2000/svg"
   xmlns:xlink="http://www.w3.org/1999/xlink"
   xmlns:sodipodi="http://sodipodi.sourceforge.net/DTD/sodipodi-0.dtd"
   xmlns:inkscape="http://www.inkscape.org/namespaces/inkscape"
   version="1.0"
   width="48"
   height="48"
   id="svg4486"
   inkscape:version="0.48.4 r9939"
   sodipodi:docname="revert.svg">
  <metadata
     id="metadata142">
    <rdf:RDF>
      <cc:Work
         rdf:about="">
        <dc:format>image/svg+xml</dc:format>
        <dc:type
           rdf:resource="http://purl.org/dc/dcmitype/StillImage" />
      </cc:Work>
    </rdf:RDF>
  </metadata>
  <sodipodi:namedview
     pagecolor="#ffffff"
     bordercolor="#666666"
     borderopacity="1"
     objecttolerance="10"
     gridtolerance="10"
     guidetolerance="10"
     inkscape:pageopacity="0"
     inkscape:pageshadow="2"
     inkscape:window-width="1440"
     inkscape:window-height="830"
     id="namedview140"
     showgrid="false"
     inkscape:zoom="6.6458333"
     inkscape:cx="24"
     inkscape:cy="26.257053"
     inkscape:window-x="0"
     inkscape:window-y="24"
     inkscape:window-maximized="1"
     inkscape:current-layer="svg4486" />
  <defs
     id="defs4488">
    <linearGradient
       id="linearGradient8838">
      <stop
         id="stop8840"
         style="stop-color:#000000;stop-opacity:1"
         offset="0" />
      <stop
         id="stop8842"
         style="stop-color:#000000;stop-opacity:0"
         offset="1" />
    </linearGradient>
    <radialGradient
       cx="62.625"
       cy="4.625"
       r="10.625"
       fx="62.625"
       fy="4.625"
       id="radialGradient2493"
       xlink:href="#linearGradient8838"
       gradientUnits="userSpaceOnUse"
       gradientTransform="matrix(1,0,0,0.341176,0,3.047059)" />
    <linearGradient
       id="linearGradient5048">
      <stop
         id="stop5050"
         style="stop-color:#000000;stop-opacity:0"
         offset="0" />
      <stop
         id="stop5056"
         style="stop-color:#000000;stop-opacity:1"
         offset="0.5" />
      <stop
         id="stop5052"
         style="stop-color:#000000;stop-opacity:0"
         offset="1" />
    </linearGradient>
    <linearGradient
       id="linearGradient5060">
      <stop
         id="stop5062"
         style="stop-color:#000000;stop-opacity:1"
         offset="0" />
      <stop
         id="stop5064"
         style="stop-color:#000000;stop-opacity:0"
         offset="1" />
    </linearGradient>
    <linearGradient
       id="linearGradient3104">
      <stop
         id="stop3106"
         style="stop-color:#aaaaaa;stop-opacity:1"
         offset="0" />
      <stop
         id="stop3108"
         style="stop-color:#c8c8c8;stop-opacity:1"
         offset="1" />
    </linearGradient>
    <linearGradient
       id="linearGradient3600">
      <stop
         id="stop3602"
         style="stop-color:#f4f4f4;stop-opacity:1"
         offset="0" />
      <stop
         id="stop3604"
         style="stop-color:#dbdbdb;stop-opacity:1"
         offset="1" />
    </linearGradient>
    <radialGradient
       cx="102"
       cy="112.3047"
       r="139.55859"
       id="XMLID_8_"
       gradientUnits="userSpaceOnUse">
      <stop
         id="stop41"
         style="stop-color:#b7b8b9;stop-opacity:1"
         offset="0" />
      <stop
         id="stop47"
         style="stop-color:#ececec;stop-opacity:1"
         offset="0.18851049" />
      <stop
         id="stop49"
         style="stop-color:#fafafa;stop-opacity:0"
         offset="0.25718147" />
      <stop
         id="stop51"
         style="stop-color:#ffffff;stop-opacity:0"
         offset="0.30111277" />
      <stop
         id="stop53"
         style="stop-color:#fafafa;stop-opacity:0"
         offset="0.53130001" />
      <stop
         id="stop55"
         style="stop-color:#ebecec;stop-opacity:0"
         offset="0.84490001" />
      <stop
         id="stop57"
         style="stop-color:#e1e2e3;stop-opacity:0"
         offset="1" />
    </radialGradient>
    <linearGradient
       id="linearGradient3211">
      <stop
         id="stop3213"
         style="stop-color:#ffffff;stop-opacity:1"
         offset="0" />
      <stop
         id="stop3215"
         style="stop-color:#ffffff;stop-opacity:0"
         offset="1" />
    </linearGradient>
    <linearGradient
       id="linearGradient8589">
      <stop
         id="stop8591"
         style="stop-color:#fefefe;stop-opacity:1"
         offset="0" />
      <stop
         id="stop8593"
         style="stop-color:#cbcbcb;stop-opacity:1"
         offset="1" />
    </linearGradient>
    <linearGradient
       x1="32.892288"
       y1="8.0590115"
       x2="36.358372"
       y2="5.4565363"
       id="linearGradient3312"
       xlink:href="#linearGradient8589"
       gradientUnits="userSpaceOnUse"
       gradientTransform="matrix(0.9976985,0,0,1.0406866,0.1638029,-1.1057939)" />
    <linearGradient
       x1="24"
       y1="1.9999999"
       x2="24"
       y2="46.01725"
       id="linearGradient3316"
       xlink:href="#linearGradient3211"
       gradientUnits="userSpaceOnUse"
       gradientTransform="matrix(1,0,0,0.9777778,0,-0.9666693)" />
    <radialGradient
       cx="102"
       cy="112.3047"
       r="139.55859"
       id="radialGradient3319"
       xlink:href="#XMLID_8_"
       gradientUnits="userSpaceOnUse"
       gradientTransform="matrix(0.3617022,0,0,-0.3907784,0.8510637,47.517004)" />
    <linearGradient
       x1="25.132275"
       y1="0.98520643"
       x2="25.132275"
       y2="47.013336"
       id="linearGradient3322"
       xlink:href="#linearGradient3600"
       gradientUnits="userSpaceOnUse"
       gradientTransform="matrix(1,0,0,0.9561695,-1.0064697e-7,-1.914922)" />
    <linearGradient
       x1="-51.786404"
       y1="50.786446"
       x2="-51.786404"
       y2="2.9062471"
       id="linearGradient3324"
       xlink:href="#linearGradient3104"
       gradientUnits="userSpaceOnUse"
       gradientTransform="matrix(0.8074968,0,0,0.8948322,59.410232,-2.9805533)" />
    <radialGradient
       cx="605.71429"
       cy="486.64789"
       r="117.14286"
       fx="605.71429"
       fy="486.64789"
       id="radialGradient3327"
       xlink:href="#linearGradient5060"
       gradientUnits="userSpaceOnUse"
       gradientTransform="matrix(2.3039948e-2,0,0,1.4700216e-2,26.360882,37.040176)" />
    <radialGradient
       cx="605.71429"
       cy="486.64789"
       r="117.14286"
       fx="605.71429"
       fy="486.64789"
       id="radialGradient3330"
       xlink:href="#linearGradient5060"
       gradientUnits="userSpaceOnUse"
       gradientTransform="matrix(-2.3039943e-2,0,0,1.4700216e-2,21.62311,37.040176)" />
    <linearGradient
       x1="302.85715"
       y1="366.64789"
       x2="302.85715"
       y2="609.50507"
       id="linearGradient3333"
       xlink:href="#linearGradient5048"
       gradientUnits="userSpaceOnUse"
       gradientTransform="matrix(6.7324884e-2,0,0,1.4700216e-2,-0.3411391,37.040146)" />
    <filter
       height="1.3286875"
       y="-0.16434373"
       width="1.2969251"
       x="-0.14846256"
       id="filter3212">
      <feGaussianBlur
         id="feGaussianBlur3214"
         stdDeviation="0.77391625"
         inkscape:collect="always" />
    </filter>
    <linearGradient
       inkscape:collect="always"
       xlink:href="#linearGradient4873-8"
       id="linearGradient3203"
       gradientUnits="userSpaceOnUse"
       gradientTransform="matrix(-0.55886857,0,0,0.54821189,37.892021,11.423877)"
       x1="21.628975"
       y1="2.1102102"
       x2="22.245434"
       y2="43.366352" />
    <linearGradient
       id="linearGradient4873-8">
      <stop
         id="stop4875-4"
         style="stop-color:#ffffff;stop-opacity:0.78431374;"
         offset="0" />
      <stop
         id="stop4877-7"
         style="stop-color:#ffffff;stop-opacity:0"
         offset="1" />
    </linearGradient>
    <linearGradient
       inkscape:collect="always"
       xlink:href="#linearGradient3533-6"
       id="linearGradient3197"
       gradientUnits="userSpaceOnUse"
       gradientTransform="matrix(-0.55886857,0,0,0.54821189,37.892021,11.423877)"
       x1="15.372947"
       y1="5.0471625"
       x2="15.372947"
       y2="22.599676" />
    <linearGradient
       id="linearGradient3533-6">
      <stop
         id="stop3535-1"
         style="stop-color:#e35d4f;stop-opacity:1;"
         offset="0" />
      <stop
         id="stop3545-0"
         style="stop-color:#cd3d3d;stop-opacity:1;"
         offset="1" />
    </linearGradient>
    <linearGradient
       inkscape:collect="always"
       xlink:href="#linearGradient3992"
       id="linearGradient3205"
       gradientUnits="userSpaceOnUse"
       gradientTransform="matrix(-0.55886857,0,0,0.54821189,37.892021,11.423877)"
       x1="24.722752"
       y1="38.985695"
       x2="42.79306"
       y2="38.32629" />
    <linearGradient
       id="linearGradient3992">
      <stop
         id="stop3994"
         style="stop-color:#ffffff;stop-opacity:0.05882353;"
         offset="0" />
      <stop
         id="stop3996"
         style="stop-color:#d9978e;stop-opacity:0.03921569;"
         offset="0.3638418" />
      <stop
         id="stop3998"
         style="stop-color:#ffffff;stop-opacity:0;"
         offset="1" />
    </linearGradient>
    <linearGradient
       inkscape:collect="always"
       xlink:href="#linearGradient3276-6"
       id="linearGradient3199"
       gradientUnits="userSpaceOnUse"
       gradientTransform="matrix(-0.58559155,0,0,0.57442522,38.059498,9.7611266)"
       x1="31.226292"
       y1="34.600941"
       x2="34.96563"
       y2="26.842505" />
    <linearGradient
       id="linearGradient3276-6">
      <stop
         id="stop3278-2"
         style="stop-color:#cd3d3d;stop-opacity:1;"
         offset="0" />
      <stop
         id="stop3280-5"
         style="stop-color:#cd3d3d;stop-opacity:0;"
         offset="1" />
    </linearGradient>
    <linearGradient
       inkscape:collect="always"
       xlink:href="#linearGradient3266-8"
       id="linearGradient3201"
       gradientUnits="userSpaceOnUse"
       gradientTransform="matrix(-0.58559155,0,0,0.57442522,38.059498,9.7611266)"
       x1="33.686768"
       y1="35.773647"
       x2="37.039948"
       y2="29.856804" />
    <linearGradient
       id="linearGradient3266-8">
      <stop
         id="stop3268-6"
         style="stop-color:#dd3b27;stop-opacity:1;"
         offset="0" />
      <stop
         id="stop3270-2"
         style="stop-color:#dd3b27;stop-opacity:0;"
         offset="1" />
    </linearGradient>
    <linearGradient
       id="linearGradient5105-262-943-861">
      <stop
         id="stop2487"
         style="stop-color:#0d0d0d;stop-opacity:1"
         offset="0" />
      <stop
         id="stop2489"
         style="stop-color:#0d0d0d;stop-opacity:0"
         offset="1" />
    </linearGradient>
    <radialGradient
       r="8.0625"
       fy="19.03125"
       fx="11.25"
       cy="19.03125"
       cx="11.25"
       gradientTransform="matrix(-1.6123961,0,0,0.44335826,42.839404,24.977883)"
       gradientUnits="userSpaceOnUse"
       id="radialGradient4040"
       xlink:href="#linearGradient5105-262-943-861"
       inkscape:collect="always" />
  </defs>
  <rect
     width="32.508301"
     height="3.5700529"
     x="7.7378473"
     y="42.429947"
     id="rect2879"
     style="opacity:0.3;fill:url(#linearGradient3333);fill-opacity:1;fill-rule:nonzero;stroke:none;stroke-width:1;stroke-linecap:round;stroke-linejoin:miter;marker:none;marker-start:none;marker-mid:none;marker-end:none;stroke-miterlimit:4;stroke-dasharray:none;stroke-dashoffset:0;stroke-opacity:1;visibility:visible;display:inline;overflow:visible" />
  <path
     d="M 7.7378475,42.430102 C 7.7378475,42.430102 7.7378475,45.999958 7.7378475,45.999958 C 6.5513473,46.006679 4.869468,45.200135 4.869468,44.2148 C 4.869468,43.229467 6.1935126,42.430103 7.7378475,42.430102 z"
     id="path2881"
     style="opacity:0.3;fill:url(#radialGradient3330);fill-opacity:1;fill-rule:nonzero;stroke:none;stroke-width:1;stroke-linecap:round;stroke-linejoin:miter;marker:none;marker-start:none;marker-mid:none;marker-end:none;stroke-miterlimit:4;stroke-dasharray:none;stroke-dashoffset:0;stroke-opacity:1;visibility:visible;display:inline;overflow:visible" />
  <path
     d="M 40.246148,42.430102 C 40.246148,42.430102 40.246148,45.999958 40.246148,45.999958 C 41.432648,46.006679 43.114528,45.200135 43.114528,44.2148 C 43.114528,43.229467 41.790483,42.430103 40.246148,42.430102 z"
     id="path2883"
     style="opacity:0.3;fill:url(#radialGradient3327);fill-opacity:1;fill-rule:nonzero;stroke:none;stroke-width:1;stroke-linecap:round;stroke-linejoin:miter;marker:none;marker-start:none;marker-mid:none;marker-end:none;stroke-miterlimit:4;stroke-dasharray:none;stroke-dashoffset:0;stroke-opacity:1;visibility:visible;display:inline;overflow:visible" />
  <path
     d="M 6.4999609,0.49719878 C 14.520256,0.49719878 22.540551,0.49719878 30.560847,0.49719878 C 31.96778,0.97185188 39.526301,6.3794034 41.500042,10.123605 C 41.500042,21.583338 41.500042,33.04307 41.500042,44.502803 C 29.833348,44.502803 18.166655,44.502803 6.4999609,44.502803 C 6.4999609,29.834268 6.4999609,15.165733 6.4999609,0.49719878 z"
     id="path4160"
     style="fill:url(#linearGradient3322);fill-opacity:1;stroke:url(#linearGradient3324);stroke-width:0.99992186;stroke-linecap:butt;stroke-linejoin:round;stroke-miterlimit:4;stroke-dasharray:none;stroke-dashoffset:0;stroke-opacity:1;display:inline" />
  <path
     d="M 73.25,4.625 A 10.625,3.625 0 1 1 52,4.625 A 10.625,3.625 0 1 1 73.25,4.625 z"
     transform="matrix(1.2235294,0,0,1.4700949,-53.123528,24.871717)"
     id="path8836"
     style="opacity:0.3;fill:url(#radialGradient2493);fill-opacity:1;fill-rule:evenodd;stroke:none;stroke-width:0.99999988;stroke-linecap:butt;stroke-linejoin:round;marker:none;marker-start:none;marker-mid:none;marker-end:none;stroke-miterlimit:4;stroke-dasharray:none;stroke-dashoffset:0;stroke-opacity:1;visibility:visible;display:inline;overflow:visible" />
  <path
     inkscape:connector-curvature="0"
     style="opacity:0.3;fill:url(#radialGradient4040);fill-opacity:1;fill-rule:nonzero;stroke:none;stroke-width:1;marker:none;visibility:visible;display:inline;overflow:visible"
     id="path2621"
     d="m 11.7,33.415539 c 0,1.974181 5.820273,3.57457 12.999944,3.57457 7.179673,0 12.999944,-1.600389 12.999944,-3.57457 0,-1.974184 -5.820271,-3.574574 -12.999944,-3.574574 -7.179671,0 -12.999944,1.60039 -12.999944,3.574574 l 0,0 z" />
  <path
     d="M 7.3617017,44 C 7.1624047,44 6.9999997,43.824541 6.9999997,43.60922 L 6.9999997,1.4051701 C 6.9999997,1.1894613 7.1624047,1.0143926 7.3617017,1.0143926 C 14.844793,1.1224073 23.137385,0.85281757 30.611384,1.0412872 L 40.894021,9.9073127 L 41,43.60922 C 41,43.824541 40.837957,44 40.638297,44 L 7.3617017,44 z"
     id="path4191"
     style="fill:url(#radialGradient3319);fill-opacity:1" />
  <path
     inkscape:connector-curvature="0"
     sodipodi:nodetypes="cccc"
     style="fill:url(#linearGradient3199);fill-opacity:1;stroke:url(#linearGradient3201);stroke-width:1.00474763;stroke-linecap:butt;stroke-linejoin:miter;stroke-miterlimit:4;stroke-opacity:1;stroke-dasharray:none"
     id="path3453"
     d="m 24.184031,35.266561 c -5.451923,0.05885 -11.652183,-4.0733 -11.642373,-11.216097 l 5.773427,-0.04407 c 0.106286,2.913753 3.280383,5.066702 5.868946,4.958198" />
  <path
     d="M 40.500039,10.258811 C 40.500039,21.207848 40.500039,32.573221 40.500039,43.522258 C 29.500013,43.522258 18.499987,43.522258 7.4999609,43.522258 C 7.4999609,29.507417 7.4999609,15.492577 7.4999609,1.4777367 C 15.061954,1.4777367 22.804295,1.4777367 30.366289,1.4777367"
     id="path2435"
     style="opacity:0.6;fill:none;fill-opacity:1;stroke:url(#linearGradient3316);stroke-width:0.9999218;stroke-linecap:butt;stroke-linejoin:round;stroke-miterlimit:4;stroke-dasharray:none;stroke-dashoffset:0;stroke-opacity:1;display:inline" />
  <path
     inkscape:connector-curvature="0"
     style="fill:none;stroke:url(#linearGradient3205);stroke-width:1.00474763;stroke-linecap:butt;stroke-linejoin:round;stroke-miterlimit:4;stroke-opacity:1;stroke-dasharray:none"
     id="path2557-1"
     d="m 24.126702,34.097847 c -3.680654,0 -10.319739,-3.085114 -10.319739,-10.029404 l 3.308061,-0.118497 c 0,3.685901 4.563758,6.443864 6.993611,6.188249"
     sodipodi:nodetypes="cccc" />
  <path
     d="M 28.617256,0.92125832 C 32.899778,0.92125832 30.770506,9.4044296 30.770506,9.4044296 C 30.770506,9.4044296 41.128148,7.6020829 41.128148,12.223174 C 41.128148,9.6134507 29.825844,1.4945784 28.617256,0.92125832 z"
     id="path12038"
     style="opacity:0.4;fill:#000000;fill-opacity:1;fill-rule:evenodd;stroke:none;stroke-width:1px;stroke-linecap:butt;stroke-linejoin:miter;stroke-opacity:1;display:inline;filter:url(#filter3212)" />
  <path
     inkscape:connector-curvature="0"
     sodipodi:nodetypes="csscccccssc"
     style="fill:url(#linearGradient3197);fill-opacity:1;stroke:#dd3b27;stroke-width:1.005;stroke-linecap:butt;stroke-linejoin:round;stroke-miterlimit:4;stroke-opacity:1;stroke-dasharray:none"
     id="path3372-5"
     d="m 24.126702,28.964578 c 2.866441,-0.03095 5.159868,-2.482613 5.159868,-5.282117 0,-2.409239 -2.704349,-5.03642 -5.326579,-5.03642 -1.384365,0 -2.725517,0.311513 -3.71972,1.252305 l 2.73979,2.760458 -10.319737,0 c 0,0 0,-10.318539 0,-10.318539 l 3.251171,3.228029 c 2.171507,-2.0932 4.681656,-3.189999 7.886527,-3.224603 6.519716,-0.07038 11.719507,5.139374 11.79159,11.506431 0.07208,6.367062 -4.943191,11.347115 -11.46291,11.417507" />
  <path
     d="M 28.617256,0.92125832 C 31.803749,0.92125832 30.953016,8.5831368 30.953016,8.5831368 C 30.953016,8.5831368 41.128148,7.6020829 41.128148,12.223174 C 41.128148,11.097235 41.214061,10.290929 40.994371,9.9395812 C 39.416058,7.4154025 32.598855,1.7511811 30.137071,1.008793 C 29.952849,0.95323837 29.544367,0.92125832 28.617256,0.92125832 z"
     id="path4474"
     style="fill:url(#linearGradient3312);fill-opacity:1;fill-rule:evenodd;stroke:none;stroke-width:1px;stroke-linecap:butt;stroke-linejoin:miter;stroke-opacity:1;display:inline" />
  <g
     transform="matrix(1.1304349,0,0,1.1390111,8.1365577,9.5091297)"
     id="g3919"
     style="display:inline" />
  <g
     transform="matrix(1.1304349,0,0,1.1390111,-69.879239,8.1806957)"
     id="g2630"
     style="display:inline" />
  <g
     transform="matrix(1.1304349,0,0,1.1390111,9.9347841,10.663733)"
     id="g3922" />
  <g
     transform="matrix(1.0454453,0,0,1.0533767,-240.69115,25.537054)"
     id="g3924" />
  <g
     transform="matrix(1.0454453,0,0,1.0533767,-240.69115,25.537054)"
     id="g3926"
     style="display:inline" />
  <g
     transform="matrix(1.0454453,0,0,1.0533767,-296.16044,-1.0236496)"
     id="g3933" />
  <g
     transform="matrix(1.0454453,0,0,1.0533767,-257.40399,25.832551)"
     id="g3938" />
  <g
     transform="matrix(1.0454453,0,0,1.0533767,-257.40399,25.832551)"
     id="g3940"
     style="display:inline" />
  <g
     transform="matrix(1.0454453,0,0,1.0533767,-312.87329,-0.7281526)"
     id="g3942" />
  <g
     transform="matrix(1.0454453,0,0,1.0533767,-239.26708,29.53934)"
     id="g3944" />
  <g
     transform="matrix(1.0454453,0,0,1.0533767,-239.26708,29.53934)"
     id="g3951"
     style="display:inline" />
  <g
     transform="matrix(1.0454453,0,0,1.0533767,-294.73638,2.9786358)"
     id="g3955" />
  <g
     transform="matrix(1.0454453,0,0,1.0533767,-369.88831,36.517792)"
     id="g3968" />
  <g
     transform="matrix(1.0454453,0,0,1.0533767,-369.88831,36.517792)"
     id="g3977"
     style="display:inline" />
  <g
     transform="matrix(1.0454453,0,0,1.0533767,-425.35761,9.9570881)"
     id="g3983" />
  <g
     transform="matrix(1.0454453,0,0,1.0533767,-305.01416,-23.324343)"
     id="g3985" />
  <g
     transform="matrix(1.0454453,0,0,1.0533767,-305.01416,-23.324343)"
     id="g3987"
     style="display:inline" />
  <g
     transform="matrix(1.0454453,0,0,1.0533767,-439.38544,6.7253324)"
     id="g3989" />
  <g
     transform="matrix(1.0454453,0,0,1.0533767,-439.38544,6.7253324)"
     id="g3991" />
  <g
     transform="matrix(1.0454453,0,0,1.0533767,-439.38544,6.7253324)"
     id="g2558" />
  <g
     transform="matrix(1.0454453,0,0,1.0533767,-521.97312,-2.075466)"
     id="g4003"
     style="display:inline" />
  <g
     transform="matrix(1.0454453,0,0,1.0533767,-521.97312,-2.075466)"
     id="g4005" />
  <g
     transform="matrix(1.0454453,0,0,1.0533767,-521.97312,-2.075466)"
     id="g4007"
     style="display:inline" />
  <g
     transform="matrix(1.0454453,0,0,1.0533767,-358.33553,7.307598)"
     id="g4009" />
  <g
     transform="matrix(1.0454453,0,0,1.0533767,-182.35708,12.848643)"
     id="g4011" />
  <g
     transform="matrix(1.0454453,0,0,1.0533767,-552.64292,-29.510792)"
     id="g4013" />
  <g
     transform="matrix(1.0454453,0,0,1.0533767,-552.64292,-29.510792)"
     id="g4015"
     style="display:inline" />
  <g
     transform="matrix(1.0454453,0,0,1.0533767,-552.64292,-29.510792)"
     id="g4017" />
  <g
     transform="matrix(1.0454453,0,0,1.0533767,-519.77714,-14.509552)"
     id="g4019"
     style="display:inline" />
  <g
     transform="matrix(1.0454453,0,0,1.0533767,-519.77714,-14.509552)"
     id="g4026" />
  <g
     transform="matrix(1.0454453,0,0,1.0533767,-519.77714,-14.509552)"
     id="g4028"
     style="display:inline" />
  <g
     transform="matrix(1.0454453,0,0,1.0533767,-356.13955,-5.1264872)"
     id="g4030" />
  <g
     transform="matrix(1.0454453,0,0,1.0533767,-180.16109,0.4145567)"
     id="g4032" />
  <g
     transform="matrix(1.0454453,0,0,1.0533767,-550.44695,-41.944879)"
     id="g4036" />
  <g
     transform="matrix(1.0454453,0,0,1.0533767,-550.44695,-41.944879)"
     id="g4038"
     style="display:inline" />
  <g
     transform="matrix(1.0454453,0,0,1.0533767,-550.44695,-41.944879)"
     id="g4040" />
  <g
     transform="matrix(1.0454453,0,0,1.0533767,-595.80706,14.136266)"
     id="g4042" />
  <g
     transform="matrix(1.0454453,0,0,1.0533767,-595.80706,14.136266)"
     id="g4044"
     style="display:inline" />
  <g
     transform="matrix(1.0454453,0,0,1.0533767,-651.27636,-12.424437)"
     id="g4046" />
  <g
     transform="matrix(1.0454453,0,0,1.0533767,-296.74049,5.1705125)"
     id="g4048" />
  <g
     transform="matrix(1.0454453,0,0,1.0533767,-296.74049,5.1705125)"
     id="g4050"
     style="display:inline" />
  <g
     transform="matrix(1.0454453,0,0,1.0533767,-431.11177,35.220194)"
     id="g4052" />
  <g
     transform="matrix(1.0454453,0,0,1.0533767,-431.11177,35.220194)"
     id="g4054" />
  <g
     transform="matrix(1.0454453,0,0,1.0533767,-431.11177,35.220194)"
     id="g4056" />
  <g
     transform="matrix(1.0454453,0,0,1.0533767,-513.69946,26.41939)"
     id="g4060"
     style="display:inline" />
  <g
     transform="matrix(1.0454453,0,0,1.0533767,-513.69946,26.41939)"
     id="g4062" />
  <g
     transform="matrix(1.0454453,0,0,1.0533767,-513.69946,26.41939)"
     id="g4064"
     style="display:inline" />
  <g
     transform="matrix(1.0454453,0,0,1.0533767,-350.06186,35.802459)"
     id="g4066" />
  <g
     transform="matrix(1.0454453,0,0,1.0533767,-174.08341,41.343504)"
     id="g4068" />
  <g
     transform="matrix(1.0454453,0,0,1.0533767,-544.36926,-1.0159351)"
     id="g4070" />
  <g
     transform="matrix(1.0454453,0,0,1.0533767,-544.36926,-1.0159351)"
     id="g4072"
     style="display:inline" />
  <g
     transform="matrix(1.0454453,0,0,1.0533767,-544.36926,-1.0159351)"
     id="g4074" />
  <g
     transform="matrix(1.0454453,0,0,1.0533767,-511.50348,13.985304)"
     id="g4076"
     style="display:inline" />
  <g
     transform="matrix(1.0454453,0,0,1.0533767,-511.50348,13.985304)"
     id="g4078" />
  <g
     transform="matrix(1.0454453,0,0,1.0533767,-511.50348,13.985304)"
     id="g4080"
     style="display:inline" />
  <g
     transform="matrix(1.0454453,0,0,1.0533767,-347.86588,23.368369)"
     id="g4082" />
  <g
     transform="matrix(1.0454453,0,0,1.0533767,-171.88743,28.909414)"
     id="g4084" />
  <g
     transform="matrix(1.0454453,0,0,1.0533767,-542.17328,-13.450022)"
     id="g4086" />
  <g
     transform="matrix(1.0454453,0,0,1.0533767,-542.17328,-13.450022)"
     id="g4088"
     style="display:inline" />
  <g
     transform="matrix(1.0454453,0,0,1.0533767,-542.17328,-13.450022)"
     id="g4090" />
  <path
     inkscape:connector-curvature="0"
     style="opacity:0.4;fill:none;stroke:url(#linearGradient3203);stroke-width:1.00474763;stroke-linecap:butt;stroke-linejoin:miter;stroke-miterlimit:4;stroke-opacity:1;stroke-dasharray:none"
     id="path3370-9"
     d="m 24.126702,30.111082 c 3.175752,-0.04555 6.303163,-2.768823 6.306503,-6.377097 0.0028,-3.099818 -3.32959,-6.279994 -6.505347,-6.234451 -1.565327,0.02247 -3.287087,0.01114 -5.317789,2.272767 l 1.658253,1.739999 -6.461359,0 c 0,0 0,-6.446178 0,-6.446178 l 2.31592,2.054591 c 2.074179,-2.269497 4.527865,-3.633943 7.772436,-3.633943 5.961886,0 10.551119,4.923564 10.551119,10.424695 0,6.518755 -5.208852,10.212381 -10.319736,10.212381"
     sodipodi:nodetypes="csscccccssc" />
</svg>
