<?xml version="1.0" encoding="UTF-8" standalone="no"?>
<!-- Created with Inkscape (http://www.inkscape.org/) -->

<svg
   xmlns:dc="http://purl.org/dc/elements/1.1/"
   xmlns:cc="http://creativecommons.org/ns#"
   xmlns:rdf="http://www.w3.org/1999/02/22-rdf-syntax-ns#"
   xmlns:svg="http://www.w3.org/2000/svg"
   xmlns="http://www.w3.org/2000/svg"
   xmlns:xlink="http://www.w3.org/1999/xlink"
   xmlns:sodipodi="http://sodipodi.sourceforge.net/DTD/sodipodi-0.dtd"
   xmlns:inkscape="http://www.inkscape.org/namespaces/inkscape"
   version="1.0"
   width="48"
   height="48"
   id="svg3795"
   inkscape:version="0.48.4 r9939"
   sodipodi:docname="media-optical-audio-new.svg">
  <metadata
     id="metadata105">
    <rdf:RDF>
      <cc:Work
         rdf:about="">
        <dc:format>image/svg+xml</dc:format>
        <dc:type
           rdf:resource="http://purl.org/dc/dcmitype/StillImage" />
        <dc:title />
      </cc:Work>
    </rdf:RDF>
  </metadata>
  <sodipodi:namedview
     pagecolor="#ffffff"
     bordercolor="#666666"
     borderopacity="1"
     objecttolerance="10"
     gridtolerance="10"
     guidetolerance="10"
     inkscape:pageopacity="0"
     inkscape:pageshadow="2"
     inkscape:window-width="949"
     inkscape:window-height="822"
     id="namedview103"
     showgrid="false"
     inkscape:zoom="11.313708"
     inkscape:cx="26.674343"
     inkscape:cy="4.5118534"
     inkscape:window-x="86"
     inkscape:window-y="131"
     inkscape:window-maximized="0"
     inkscape:current-layer="svg3795" />
  <defs
     id="defs3797">
    <linearGradient
       id="linearGradient23419">
      <stop
         id="stop23421"
         style="stop-color:#000000;stop-opacity:1"
         offset="0" />
      <stop
         id="stop23423"
         style="stop-color:#000000;stop-opacity:0"
         offset="1" />
    </linearGradient>
    <radialGradient
       cx="23.334524"
       cy="41.63604"
       r="22.627417"
       fx="23.334524"
       fy="41.63604"
       id="radialGradient2464"
       xlink:href="#linearGradient23419"
       gradientUnits="userSpaceOnUse"
       gradientTransform="matrix(0.9722718,0,0,0.2872354,1.3124992,27.540524)" />
    <linearGradient
       x1="12.2744"
       y1="32.4165"
       x2="35.391201"
       y2="14.2033"
       id="linearGradient3263"
       gradientUnits="userSpaceOnUse">
      <stop
         id="stop3265"
         style="stop-color:#dedbde;stop-opacity:1"
         offset="0" />
      <stop
         id="stop3267"
         style="stop-color:#e6e6e6;stop-opacity:1"
         offset="0.5" />
      <stop
         id="stop3269"
         style="stop-color:#d2d2d2;stop-opacity:1"
         offset="1" />
    </linearGradient>
    <linearGradient
       x1="12.2744"
       y1="32.4165"
       x2="35.391201"
       y2="14.2033"
       id="linearGradient3258"
       xlink:href="#linearGradient3263"
       gradientUnits="userSpaceOnUse"
       gradientTransform="matrix(0,1.1714389,-1.1714389,0,51.060244,-4.11454)" />
    <linearGradient
       id="linearGradient3428">
      <stop
         id="stop3430"
         style="stop-color:#aaaaaa;stop-opacity:1"
         offset="0" />
      <stop
         id="stop3432"
         style="stop-color:#d4d4d4;stop-opacity:1"
         offset="1" />
    </linearGradient>
    <linearGradient
       x1="21.448364"
       y1="15.5"
       x2="21.448364"
       y2="32.509201"
       id="linearGradient3434"
       xlink:href="#linearGradient3428"
       gradientUnits="userSpaceOnUse"
       gradientTransform="matrix(0.9375,0,0,0.9375,1.5,1.5)" />
    <linearGradient
       x1="10.609375"
       y1="17.886322"
       x2="9.7297754"
       y2="20.612656"
       id="linearGradient3717"
       xlink:href="#linearGradient3519"
       gradientUnits="userSpaceOnUse"
       spreadMethod="reflect" />
    <linearGradient
       x1="12.371647"
       y1="16.188046"
       x2="14.609327"
       y2="13.461712"
       id="linearGradient3715"
       xlink:href="#linearGradient3511"
       gradientUnits="userSpaceOnUse"
       spreadMethod="reflect" />
    <linearGradient
       x1="14.084608"
       y1="13.045606"
       x2="16.994024"
       y2="10.732353"
       id="linearGradient3713"
       xlink:href="#linearGradient3503"
       gradientUnits="userSpaceOnUse"
       spreadMethod="reflect" />
    <linearGradient
       x1="17.494959"
       y1="11.200086"
       x2="21.047453"
       y2="9.7956104"
       id="linearGradient3711"
       xlink:href="#linearGradient3495"
       gradientUnits="userSpaceOnUse"
       spreadMethod="reflect" />
    <linearGradient
       x1="20.580074"
       y1="10.774516"
       x2="24.27351"
       y2="9.8622112"
       id="linearGradient3709"
       xlink:href="#linearGradient3487"
       gradientUnits="userSpaceOnUse"
       spreadMethod="reflect" />
    <linearGradient
       id="linearGradient3519">
      <stop
         id="stop3521"
         style="stop-color:#fcd9cd;stop-opacity:1"
         offset="0" />
      <stop
         id="stop3523"
         style="stop-color:#fcd9cd;stop-opacity:0"
         offset="1" />
    </linearGradient>
    <linearGradient
       x1="10.609375"
       y1="17.886322"
       x2="9.7297754"
       y2="20.612656"
       id="linearGradient3750"
       xlink:href="#linearGradient3519"
       gradientUnits="userSpaceOnUse"
       spreadMethod="reflect" />
    <linearGradient
       id="linearGradient3511">
      <stop
         id="stop3513"
         style="stop-color:#ebeec7;stop-opacity:1"
         offset="0" />
      <stop
         id="stop3515"
         style="stop-color:#ebeec7;stop-opacity:0"
         offset="1" />
    </linearGradient>
    <linearGradient
       x1="12.371647"
       y1="16.188046"
       x2="14.609327"
       y2="13.461712"
       id="linearGradient3748"
       xlink:href="#linearGradient3511"
       gradientUnits="userSpaceOnUse"
       spreadMethod="reflect" />
    <linearGradient
       id="linearGradient3503">
      <stop
         id="stop3505"
         style="stop-color:#c4ebdd;stop-opacity:1"
         offset="0" />
      <stop
         id="stop3507"
         style="stop-color:#c4ebdd;stop-opacity:0"
         offset="1" />
    </linearGradient>
    <linearGradient
       x1="14.084608"
       y1="13.045606"
       x2="16.994024"
       y2="10.732353"
       id="linearGradient3746"
       xlink:href="#linearGradient3503"
       gradientUnits="userSpaceOnUse"
       spreadMethod="reflect" />
    <linearGradient
       id="linearGradient3495">
      <stop
         id="stop3497"
         style="stop-color:#c1cbe4;stop-opacity:1"
         offset="0" />
      <stop
         id="stop3499"
         style="stop-color:#c1cbe4;stop-opacity:0"
         offset="1" />
    </linearGradient>
    <linearGradient
       x1="17.494959"
       y1="11.200086"
       x2="21.047453"
       y2="9.7956104"
       id="linearGradient3744"
       xlink:href="#linearGradient3495"
       gradientUnits="userSpaceOnUse"
       spreadMethod="reflect" />
    <linearGradient
       id="linearGradient3487">
      <stop
         id="stop3489"
         style="stop-color:#e6cde2;stop-opacity:1"
         offset="0" />
      <stop
         id="stop3491"
         style="stop-color:#e6cde2;stop-opacity:0"
         offset="1" />
    </linearGradient>
    <linearGradient
       x1="20.580074"
       y1="10.774516"
       x2="24.27351"
       y2="9.8622112"
       id="linearGradient3742"
       xlink:href="#linearGradient3487"
       gradientUnits="userSpaceOnUse"
       spreadMethod="reflect" />
    <linearGradient
       x1="10.50172"
       y1="3.6100161"
       x2="48.798885"
       y2="54.698483"
       id="linearGradient3766"
       xlink:href="#linearGradient6036"
       gradientUnits="userSpaceOnUse"
       gradientTransform="matrix(0.9849664,0,0,0.9849663,0.01902206,-0.6241532)" />
    <linearGradient
       id="linearGradient3772">
      <stop
         id="stop3774"
         style="stop-color:#b4b4b4;stop-opacity:1"
         offset="0" />
      <stop
         id="stop3776"
         style="stop-color:#969696;stop-opacity:1"
         offset="1" />
    </linearGradient>
    <linearGradient
       x1="20.018932"
       y1="3"
       x2="20.018932"
       y2="45.17627"
       id="linearGradient3778"
       xlink:href="#linearGradient3772"
       gradientUnits="userSpaceOnUse" />
    <linearGradient
       id="linearGradient6036">
      <stop
         id="stop6038"
         style="stop-color:#ffffff;stop-opacity:1"
         offset="0" />
      <stop
         id="stop6040"
         style="stop-color:#ffffff;stop-opacity:0"
         offset="1" />
    </linearGradient>
    <linearGradient
       x1="18.775953"
       y1="4.0378027"
       x2="18.203465"
       y2="45.962208"
       id="linearGradient3294"
       xlink:href="#linearGradient6036"
       gradientUnits="userSpaceOnUse"
       gradientTransform="matrix(0.4293444,0,0,0.4293442,13.546752,13.266392)" />
    <linearGradient
       inkscape:collect="always"
       xlink:href="#linearGradient3783-9"
       id="linearGradient5651"
       gradientUnits="userSpaceOnUse"
       gradientTransform="matrix(1.0976756,0,0,1.0502174,-1.1551998,-0.75754239)"
       x1="7.2591696"
       y1="6.7927251"
       x2="7.2591696"
       y2="19.085949" />
    <linearGradient
       id="linearGradient3783-9">
      <stop
         style="stop-color:#d7e866;stop-opacity:1;"
         offset="0"
         id="stop3785-9" />
      <stop
         style="stop-color:#94b62d;stop-opacity:1;"
         offset="1"
         id="stop3787-4" />
    </linearGradient>
    <radialGradient
       inkscape:collect="always"
       xlink:href="#linearGradient3791-5"
       id="radialGradient5653"
       gradientUnits="userSpaceOnUse"
       gradientTransform="matrix(0.67057018,-0.14772487,-0.10538957,0.71978751,-4.4295571,-13.182639)"
       cx="14.270205"
       cy="36.985195"
       fx="14.270205"
       fy="36.985195"
       r="5.7384715" />
    <linearGradient
       id="linearGradient3791-5">
      <stop
         id="stop3793-1"
         offset="0"
         style="stop-color:#ffffff;stop-opacity:1;" />
      <stop
         id="stop3795-0"
         offset="1"
         style="stop-color:#badf4a;stop-opacity:0.10416666;" />
    </linearGradient>
    <linearGradient
       inkscape:collect="always"
       xlink:href="#linearGradient2372-7-3-2-3"
       id="linearGradient5655"
       gradientUnits="userSpaceOnUse"
       gradientTransform="matrix(0.13863734,0,0,0.13519235,-0.01056616,-15.701751)"
       x1="28.256302"
       y1="129.73555"
       x2="57.507824"
       y2="181.79546" />
    <linearGradient
       id="linearGradient2372-7-3-2-3">
      <stop
         id="stop2374-5-9-1-7"
         style="stop-color:#ffffff;stop-opacity:1"
         offset="0" />
      <stop
         id="stop2376-3-7-7-8"
         style="stop-color:#ffffff;stop-opacity:0.37931034"
         offset="1" />
    </linearGradient>
    <linearGradient
       inkscape:collect="always"
       xlink:href="#linearGradient2372-7-3-2-3"
       id="linearGradient5657"
       gradientUnits="userSpaceOnUse"
       gradientTransform="matrix(0.23748834,0,0,0.12407777,6.4561387,-14.188467)"
       x1="28.739122"
       y1="144.11652"
       x2="26.256771"
       y2="125.39074" />
    <linearGradient
       id="linearGradient3791-2-8">
      <stop
         id="stop3793-3-6"
         offset="0"
         style="stop-color:#ffffff;stop-opacity:1;" />
      <stop
         id="stop3795-6-0"
         offset="1"
         style="stop-color:#badf4a;stop-opacity:0.10416666;" />
    </linearGradient>
    <radialGradient
       r="5.7384715"
       fy="36.985195"
       fx="14.270205"
       cy="36.985195"
       cx="14.270205"
       gradientTransform="matrix(0.67161152,-0.14795427,-0.10555323,0.72090528,3.5894633,-13.148229)"
       gradientUnits="userSpaceOnUse"
       id="radialGradient3750"
       xlink:href="#linearGradient3791-2-8"
       inkscape:collect="always" />
  </defs>
  <g
     id="layer1">
    <path
       d="m 46,39.499867 c 0.0011,3.589753 -9.848934,6.500001 -22,6.500001 -12.151066,0 -22.001133,-2.910248 -21.9999999,-6.500001 C 1.998867,35.910116 11.848934,32.999868 24,32.999868 c 12.151066,0 22.001133,2.910248 22,6.499999 z"
       id="path23417"
       style="opacity:0.3;fill:url(#radialGradient2464);fill-opacity:1;fill-rule:evenodd;stroke:none;stroke-width:2;marker:none;visibility:visible;display:inline;overflow:visible" />
    <path
       d="M 44.5,24 C 44.5,12.637039 35.362959,3.5 24,3.5 12.637038,3.5 3.5,12.63704 3.5,24 c -2e-6,11.36296 9.137039,20.5 20.5,20.5 11.362958,-2e-6 20.5,-9.137039 20.5,-20.5 z M 32,24 c 0,4.623 -3.377,8 -8,8 -4.623,0 -8,-3.377 -8,-8 0,-4.623 3.377,-8 8,-8 4.623,0 8,3.377 8,8 z"
       id="path2781"
       style="fill:url(#linearGradient3258);fill-rule:nonzero;stroke:none" />
    <path
       d="m 24,16 c -4.416,0 -8,3.584 -8,8 0,4.416 3.584,8 8,8 4.416,0 8,-3.584 8,-8 0,-4.416 -3.584,-8 -8,-8 z m 0,4 c 2.208,0 4,1.792 4,4 0,2.208 -1.792,4 -4,4 -2.208,0 -4,-1.792 -4,-4 0,-2.208 1.792,-4 4,-4 z"
       id="path2474"
       style="opacity:0.5;fill:#ffffff;fill-opacity:1;fill-rule:nonzero;stroke:none;stroke-width:1;marker:none;visibility:visible;display:inline;overflow:visible;enable-background:accumulate" />
    <path
       d="m 24,16.5 c -4.14,0 -7.5,3.36 -7.5,7.5 0,4.14 3.36,7.5 7.5,7.5 4.14,0 7.5,-3.36 7.5,-7.5 0,-4.14 -3.36,-7.5 -7.5,-7.5 z m 0,3.75 c 2.07,0 3.75,1.68 3.75,3.75 0,2.07 -1.68,3.75 -3.75,3.75 -2.07,0 -3.75,-1.68 -3.75,-3.75 0,-2.07 1.68,-3.75 3.75,-3.75 z"
       id="path3418"
       style="fill:none;stroke:url(#linearGradient3434);stroke-width:1;stroke-linecap:butt;stroke-linejoin:round;stroke-miterlimit:4;stroke-opacity:1;stroke-dasharray:none;stroke-dashoffset:0;marker:none;visibility:visible;display:inline;overflow:visible;enable-background:accumulate" />
    <g
       id="g3527">
      <path
         d="m 24,3.5 c -2.975804,0 -5.797406,0.6208152 -8.34375,1.75 L 20.625,16.34375 C 21.660403,15.885186 22.795334,15.625 24,15.625 c 0.03206,0 0.06178,-3.6e-4 0.09375,0 l 0,-12.125 c -0.03127,-1.386e-4 -0.06245,0 -0.09375,0 z"
         transform="matrix(0.9996011,0.02824295,-0.02824295,0.9996011,0.6924114,-0.6708346)"
         id="path3296"
         style="opacity:0.8;fill:url(#linearGradient3709);fill-opacity:1;fill-rule:nonzero;stroke:none" />
      <path
         d="m 19.597283,3.9975155 c -2.9067,0.6375811 -5.529765,1.8485223 -7.775043,3.4970525 l 7.230257,9.771547 c 0.913109,-0.669755 1.965938,-1.167064 3.142629,-1.425169 0.03132,-0.0069 0.06026,-0.01359 0.09157,-0.02009 L 19.688856,3.9774292 c -0.03058,0.00656 -0.061,0.013379 -0.09157,0.020086 z"
         id="path3308"
         style="opacity:0.8;fill:url(#linearGradient3711);fill-opacity:1;fill-rule:nonzero;stroke:none" />
      <path
         d="M 14.558173,5.8448691 C 11.915535,7.2130345 9.6952631,9.061613 7.9531621,11.235092 l 9.5129549,7.567261 c 0.70865,-0.883264 1.596891,-1.636119 2.666685,-2.18998 0.02847,-0.01474 0.05469,-0.02872 0.08325,-0.0431 L 14.641427,5.8017664 c -0.02783,0.014254 -0.05545,0.02871 -0.08325,0.043103 z"
         id="path3310"
         style="opacity:0.8;fill:url(#linearGradient3713);fill-opacity:1;fill-rule:nonzero;stroke:none" />
      <path
         d="M 10.168897,8.9334932 C 7.970412,10.939005 6.3042413,13.299243 5.1840387,15.849551 L 16.331399,20.69683 c 0.455898,-1.036579 1.119019,-1.993675 2.009011,-2.805547 0.02369,-0.02161 0.0454,-0.0419 0.06926,-0.06318 L 10.238158,8.8703115 c -0.0232,0.020972 -0.04613,0.042084 -0.06926,0.063182 z"
         id="path3312"
         style="opacity:0.8;fill:url(#linearGradient3715);fill-opacity:1;fill-rule:nonzero;stroke:none" />
      <path
         d="m 6.78125,12.96875 c -0.016978,0.02626 -0.045621,0.06739 -0.0625,0.09375 -1.1482224,1.793482 -1.9616625,3.681269 -2.5,5.625 l 11.75,3.125 c 0.215514,-0.763003 0.518046,-1.514767 0.96875,-2.21875 0.01729,-0.027 0.04496,-0.06702 0.0625,-0.09375 L 6.78125,12.96875 z"
         id="path3314"
         style="opacity:0.8;fill:url(#linearGradient3717);fill-opacity:1;fill-rule:nonzero;stroke:none" />
    </g>
    <g
       transform="matrix(-1,0,0,-1,48,48)"
       id="g3642"
       style="opacity:0.8">
      <path
         d="m 24,3.5 c -2.975804,0 -5.797406,0.6208152 -8.34375,1.75 L 20.625,16.34375 C 21.660403,15.885186 22.795334,15.625 24,15.625 c 0.03206,0 0.06178,-3.6e-4 0.09375,0 l 0,-12.125 c -0.03127,-1.386e-4 -0.06245,0 -0.09375,0 z"
         transform="matrix(0.9996011,0.02824295,-0.02824295,0.9996011,0.6924114,-0.6708346)"
         id="path3644"
         style="opacity:0.8;fill:url(#linearGradient3742);fill-opacity:1;fill-rule:nonzero;stroke:none" />
      <path
         d="m 19.597283,3.9975155 c -2.9067,0.6375811 -5.529765,1.8485223 -7.775043,3.4970525 l 7.230257,9.771547 c 0.913109,-0.669755 1.965938,-1.167064 3.142629,-1.425169 0.03132,-0.0069 0.06026,-0.01359 0.09157,-0.02009 L 19.688856,3.9774292 c -0.03058,0.00656 -0.061,0.013379 -0.09157,0.020086 z"
         id="path3646"
         style="opacity:0.8;fill:url(#linearGradient3744);fill-opacity:1;fill-rule:nonzero;stroke:none" />
      <path
         d="M 14.558173,5.8448691 C 11.915535,7.2130345 9.6952631,9.061613 7.9531621,11.235092 l 9.5129549,7.567261 c 0.70865,-0.883264 1.596891,-1.636119 2.666685,-2.18998 0.02847,-0.01474 0.05469,-0.02872 0.08325,-0.0431 L 14.641427,5.8017664 c -0.02783,0.014254 -0.05545,0.02871 -0.08325,0.043103 z"
         id="path3648"
         style="opacity:0.8;fill:url(#linearGradient3746);fill-opacity:1;fill-rule:nonzero;stroke:none" />
      <path
         d="M 10.168897,8.9334932 C 7.970412,10.939005 6.3042413,13.299243 5.1840387,15.849551 L 16.331399,20.69683 c 0.455898,-1.036579 1.119019,-1.993675 2.009011,-2.805547 0.02369,-0.02161 0.0454,-0.0419 0.06926,-0.06318 L 10.238158,8.8703115 c -0.0232,0.020972 -0.04613,0.042084 -0.06926,0.063182 z"
         id="path3650"
         style="opacity:0.8;fill:url(#linearGradient3748);fill-opacity:1;fill-rule:nonzero;stroke:none" />
      <path
         d="m 6.78125,12.96875 c -0.016978,0.02626 -0.045621,0.06739 -0.0625,0.09375 -1.1482224,1.793482 -1.9616625,3.681269 -2.5,5.625 l 11.75,3.125 c 0.215514,-0.763003 0.518046,-1.514767 0.96875,-2.21875 0.01729,-0.027 0.04496,-0.06702 0.0625,-0.09375 L 6.78125,12.96875 z"
         id="path3652"
         style="opacity:0.8;fill:url(#linearGradient3750);fill-opacity:1;fill-rule:nonzero;stroke:none" />
    </g>
    <path
       d="m 24.000001,4.5000009 c -10.808572,0 -19.5000015,8.6914301 -19.5000015,19.5000001 0,10.808571 8.6914295,19.499998 19.5000015,19.499998 C 34.808573,43.499999 43.5,34.808572 43.5,24.000001 43.5,13.191431 34.808573,4.5000009 24.000001,4.5000009 l 0,0 0,0 z"
       id="path2787"
       style="opacity:0.5;fill:none;stroke:url(#linearGradient3766);stroke-width:0.99999994;stroke-miterlimit:4;stroke-opacity:1" />
    <path
       d="M 24,3.5 C 12.637039,3.5 3.5,12.637041 3.5,24 3.5,35.362962 12.63704,44.5 24,44.5 35.36296,44.500002 44.5,35.362961 44.5,24 44.499998,12.637042 35.362961,3.5 24,3.5 z"
       id="path3287"
       style="fill:none;stroke:url(#linearGradient3778);stroke-width:1;stroke-miterlimit:4;stroke-opacity:1" />
    <path
       d="m 24,15.499999 c -4.711429,0 -8.5,3.788571 -8.5,8.5 0,4.711429 3.788571,8.500001 8.5,8.500001 4.711431,0 8.5,-3.788572 8.5,-8.500001 0,-4.711429 -3.788569,-8.5 -8.5,-8.5 l 0,0 0,0 z"
       id="path3281"
       style="opacity:0.8;fill:none;stroke:url(#linearGradient3294);stroke-width:0.99999982;stroke-miterlimit:4;stroke-opacity:1" />
  </g>
  <g
     transform="matrix(1.8905681,0,0,2.0794192,18.808274,16.183907)"
     id="layer1-8-9">
    <path
       inkscape:connector-curvature="0"
       d="M 12.9907,11.049673 12.588205,7.9462293"
       id="path2931-3-4"
       style="fill:none;stroke:none"
       sodipodi:nodetypes="cc" />
    <path
       inkscape:connector-curvature="0"
       d="m 3.4946385,4.082901 c 0,2.6590902 0,2.43436 0,5.0934509 -1.4438187,0 -3.60743043,0.3065525 -3.75971327,2.6762531 -0.07235,1.125851 0.78750667,2.759017 2.49481577,2.926691 1.9071817,0.187303 3.9297126,-0.743885 3.9544985,-2.578247 -0.022112,-2.7299467 0.0062,-4.8705917 0,-7.6009548 0.3820013,0 4.9735745,0 5.4591405,0 0,2.0449276 0,2.5313299 0,4.5762577 -1.246486,0 -3.3121953,0.3161727 -3.4234837,2.6986481 -0.060683,1.299105 0.9355147,2.670707 2.6291847,2.769801 1.459621,0.0854 3.371427,-0.805015 3.371427,-2.443332 -0.02905,-3.6402374 0.02155,-5.0635944 -0.0022,-8.7042186 0,-0.9266441 -0.501313,-1.5216104 -1.611616,-1.5216104 -2.159757,0 -5.3553497,0 -7.3280412,0 -1.4414163,0 -1.7840014,1.0772599 -1.7840123,2.107261 z"
       id="path4031-1-6"
       style="fill:url(#linearGradient5651);fill-opacity:1;stroke:#507f16;stroke-width:0.30124199;stroke-linecap:butt;stroke-linejoin:round;stroke-miterlimit:4;stroke-opacity:1;stroke-dasharray:none"
       sodipodi:nodetypes="ccssccccssccssc" />
    <path
       inkscape:connector-curvature="0"
       d="m 4.7589976,10.969872 c -2.252e-4,1.156537 -1.0360239,3.361036 -2.3422927,3.574844 -0.9712295,0.158971 -2.54660182,-0.810924 -2.54660097,-2.624868 6.9e-7,-1.452602 1.05607166,-2.2871766 2.19267507,-2.4880993 2.2055799,-0.389891 2.6959946,0.3816601 2.6962186,1.5381233 z"
       id="path2937-4-7"
       style="fill:url(#radialGradient5653);fill-opacity:1;stroke:none"
       sodipodi:nodetypes="ccssc" />
    <path
       d="m 3.6301832,9.3531575 c 0,0 0.00549,-3.5760991 0.00549,-5.5395087 0,-0.2641802 0.1460838,-0.9367427 0.4425032,-1.2619099 0.2510258,-0.2753712 0.6410655,-0.480395 1.0772436,-0.480395 0.1966284,0 5.336089,-0.00848 5.336089,-0.00848 0,0 2.224161,-0.041253 -4.9256792,0.752609 C 4.8200172,3.0027029 4.1094173,3.4750943 4.0811753,3.7598372 3.944092,5.1419426 3.9530887,4.4052712 3.9530887,9.4581349 3.7526693,9.3899317 3.8488031,9.4189856 3.6301832,9.3531575 z"
       id="path2945-9-6"
       style="opacity:0.4;fill:url(#linearGradient5655);fill-opacity:1;fill-rule:evenodd;stroke:none"
       inkscape:connector-curvature="0"
       sodipodi:nodetypes="csssccscc" />
    <path
       d="m 11.759922,9.3026748 -1.72e-4,-4.7757389 0.596529,0 c 0,0 2.54e-4,0.6139026 2.54e-4,5.0728826 0,0.03324 -0.249759,-0.2513059 -0.596611,-0.2971437 z"
       id="path2947-4"
       style="opacity:0.4;fill:url(#linearGradient5657);fill-opacity:1;fill-rule:evenodd;stroke:none"
       inkscape:connector-curvature="0"
       sodipodi:nodetypes="cccsc" />
    <path
       inkscape:connector-curvature="0"
       d="m 13.579519,11.119448 c -2.25e-4,1.158334 -0.337203,3.713758 -2.910143,3.340824 -1.3400879,-0.194239 -2.2981954,-1.047048 -2.2981946,-2.591155 7e-7,-1.414675 0.8415143,-2.2048242 2.1937976,-2.5000946 2.206165,-0.481715 3.014316,0.5921663 3.01454,1.7504256 z"
       id="path2937-4-0-0"
       style="fill:url(#radialGradient3750);fill-opacity:1;stroke:none"
       sodipodi:nodetypes="csssc" />
  </g>
</svg>
