<?xml version="1.0" encoding="UTF-8" standalone="no"?>
<!-- Created with Inkscape (http://www.inkscape.org/) -->

<svg
   xmlns:dc="http://purl.org/dc/elements/1.1/"
   xmlns:cc="http://creativecommons.org/ns#"
   xmlns:rdf="http://www.w3.org/1999/02/22-rdf-syntax-ns#"
   xmlns:svg="http://www.w3.org/2000/svg"
   xmlns="http://www.w3.org/2000/svg"
   xmlns:xlink="http://www.w3.org/1999/xlink"
   xmlns:sodipodi="http://sodipodi.sourceforge.net/DTD/sodipodi-0.dtd"
   xmlns:inkscape="http://www.inkscape.org/namespaces/inkscape"
   width="24"
   height="24"
   id="svg2"
   version="1.1"
   inkscape:version="0.48.4 r9939"
   sodipodi:docname="folder-music.svg">
  <defs
     id="defs4">
    <linearGradient
       id="linearGradient4075">
      <stop
         style="stop-color:#000000;stop-opacity:0.6825397;"
         offset="0"
         id="stop4077" />
      <stop
         style="stop-color:#787878;stop-opacity:0;"
         offset="1"
         id="stop4079" />
    </linearGradient>
    <linearGradient
       id="linearGradient5163">
      <stop
         style="stop-color:#9f8031;stop-opacity:1;"
         offset="0"
         id="stop5165" />
      <stop
         id="stop5171"
         offset="0.76943779"
         style="stop-color:#dbc793;stop-opacity:1;" />
      <stop
         style="stop-color:#e6cd8a;stop-opacity:1;"
         offset="1"
         id="stop5167" />
    </linearGradient>
    <linearGradient
       id="linearGradient4393">
      <stop
         style="stop-color:#feeed2;stop-opacity:1;"
         offset="0"
         id="stop4395" />
      <stop
         style="stop-color:#feeed2;stop-opacity:0.11904762;"
         offset="1"
         id="stop4397" />
    </linearGradient>
    <linearGradient
       id="linearGradient3982">
      <stop
         style="stop-color:#fde6bc;stop-opacity:1;"
         offset="0"
         id="stop3984" />
      <stop
         id="stop3990"
         offset="0.51083106"
         style="stop-color:#f3d49a;stop-opacity:1;" />
      <stop
         style="stop-color:#bc9e6c;stop-opacity:1;"
         offset="1"
         id="stop3986" />
    </linearGradient>
    <linearGradient
       id="linearGradient3886">
      <stop
         style="stop-color:#f6ddaf;stop-opacity:1;"
         offset="0"
         id="stop3888" />
      <stop
         id="stop3972"
         offset="0.5"
         style="stop-color:#fcdda7;stop-opacity:1;" />
      <stop
         style="stop-color:#ba9e71;stop-opacity:1;"
         offset="1"
         id="stop3890" />
    </linearGradient>
    <linearGradient
       inkscape:collect="always"
       xlink:href="#linearGradient3982"
       id="linearGradient3988"
       x1="322.94888"
       y1="198.02513"
       x2="517.21027"
       y2="286.91855"
       gradientUnits="userSpaceOnUse"
       gradientTransform="matrix(0.05275165,0.01382222,0,0.05242603,-2.588663,1020.9529)" />
    <linearGradient
       inkscape:collect="always"
       xlink:href="#linearGradient3876-2"
       id="linearGradient4014"
       x1="401.60123"
       y1="247.30942"
       x2="429.67322"
       y2="229.09518"
       gradientUnits="userSpaceOnUse"
       gradientTransform="matrix(0.05275165,0.01382222,0,0.05242603,-2.588663,1020.9529)" />
    <linearGradient
       id="linearGradient3876-2">
      <stop
         style="stop-color:#ceb172;stop-opacity:1;"
         offset="0"
         id="stop3878-36" />
      <stop
         style="stop-color:#eec878;stop-opacity:1;"
         offset="1"
         id="stop3880-6" />
    </linearGradient>
    <linearGradient
       inkscape:collect="always"
       xlink:href="#linearGradient4393"
       id="linearGradient4399"
       x1="323.00134"
       y1="217.01071"
       x2="351.78055"
       y2="222.06146"
       gradientUnits="userSpaceOnUse"
       gradientTransform="matrix(0.05275165,0.01913638,0,0.05242603,-2.5886632,1019.427)" />
    <linearGradient
       inkscape:collect="always"
       xlink:href="#linearGradient3886"
       id="linearGradient5181"
       gradientUnits="userSpaceOnUse"
       gradientTransform="matrix(0.05275165,0.00531415,0,0.05242603,-2.3817265,1025.1262)"
       x1="142.92784"
       y1="83.013016"
       x2="429.56165"
       y2="399.19077" />
    <filter
       inkscape:collect="always"
       id="filter3834"
       x="-0.34263548"
       width="1.685271"
       y="-0.063944638"
       height="1.1278893"
       color-interpolation-filters="sRGB">
      <feGaussianBlur
         inkscape:collect="always"
         stdDeviation="10.164553"
         id="feGaussianBlur3836" />
    </filter>
    <filter
       inkscape:collect="always"
       id="filter4071"
       x="-0.060892355"
       width="1.1217847"
       y="-0.32908928"
       height="1.6581786"
       color-interpolation-filters="sRGB">
      <feGaussianBlur
         inkscape:collect="always"
         stdDeviation="2.8724519"
         id="feGaussianBlur4073" />
    </filter>
    <linearGradient
       inkscape:collect="always"
       xlink:href="#linearGradient4075"
       id="linearGradient4081"
       x1="60.844788"
       y1="120.31346"
       x2="60.844788"
       y2="132.19897"
       gradientUnits="userSpaceOnUse" />
    <linearGradient
       id="linearGradient4393-5">
      <stop
         style="stop-color:#feeed2;stop-opacity:1;"
         offset="0"
         id="stop4395-3" />
      <stop
         style="stop-color:#feeed2;stop-opacity:0.11904762;"
         offset="1"
         id="stop4397-8" />
    </linearGradient>
    <linearGradient
       y2="222.06146"
       x2="351.78055"
       y1="217.01071"
       x1="323.00134"
       gradientTransform="matrix(0.16636497,0.01675944,0,0.05242603,-48.447187,1020.1666)"
       gradientUnits="userSpaceOnUse"
       id="linearGradient3946"
       xlink:href="#linearGradient4393-5"
       inkscape:collect="always" />
    <linearGradient
       inkscape:collect="always"
       xlink:href="#linearGradient5163"
       id="linearGradient3838"
       x1="138.19894"
       y1="735.77979"
       x2="389.06802"
       y2="777.73242"
       gradientUnits="userSpaceOnUse"
       gradientTransform="matrix(0.04790383,0.00482579,0,0.04789832,0.56226096,1000.7473)" />
    <linearGradient
       inkscape:collect="always"
       xlink:href="#linearGradient3783-0"
       id="linearGradient13804"
       gradientUnits="userSpaceOnUse"
       gradientTransform="matrix(1.0976756,0,0,1.0502174,-1.1551998,-0.75754239)"
       x1="7.2591696"
       y1="6.7927251"
       x2="7.2591696"
       y2="19.085949" />
    <linearGradient
       id="linearGradient3783-0">
      <stop
         style="stop-color:#d7e866;stop-opacity:1;"
         offset="0"
         id="stop3785-4" />
      <stop
         style="stop-color:#94b62d;stop-opacity:1;"
         offset="1"
         id="stop3787-8" />
    </linearGradient>
    <radialGradient
       cx="14.270205"
       cy="36.985195"
       r="5.7384715"
       fx="14.270205"
       fy="36.985195"
       id="radialGradient3538-3-9-4"
       xlink:href="#linearGradient3791-8"
       gradientUnits="userSpaceOnUse"
       gradientTransform="matrix(0.67744776,-0.14923998,-0.10647048,0.72716988,-4.5237978,-13.444399)" />
    <linearGradient
       id="linearGradient3791-8">
      <stop
         id="stop3793-1"
         offset="0"
         style="stop-color:#ffffff;stop-opacity:1;" />
      <stop
         id="stop3795-68"
         offset="1"
         style="stop-color:#badf4a;stop-opacity:0.10416666;" />
    </linearGradient>
    <linearGradient
       inkscape:collect="always"
       xlink:href="#linearGradient2372-7-3-2-2"
       id="linearGradient3881-5"
       gradientUnits="userSpaceOnUse"
       gradientTransform="matrix(0.13863734,0,0,0.13519235,-0.06345227,-15.717599)"
       x1="28.256302"
       y1="129.73555"
       x2="57.507824"
       y2="181.79546" />
    <linearGradient
       id="linearGradient2372-7-3-2-2">
      <stop
         id="stop2374-5-9-1-1"
         style="stop-color:#ffffff;stop-opacity:1"
         offset="0" />
      <stop
         id="stop2376-3-7-7-9"
         style="stop-color:#ffffff;stop-opacity:0.37931034"
         offset="1" />
    </linearGradient>
    <linearGradient
       inkscape:collect="always"
       xlink:href="#linearGradient2372-7-3-2-2"
       id="linearGradient3976-9"
       gradientUnits="userSpaceOnUse"
       gradientTransform="matrix(0.23748834,0,0,0.12407777,6.4158579,-14.188467)"
       x1="28.739122"
       y1="144.11652"
       x2="26.256771"
       y2="125.39074" />
    <linearGradient
       id="linearGradient3791-2-6">
      <stop
         id="stop3793-3-0"
         offset="0"
         style="stop-color:#ffffff;stop-opacity:0.88235295;" />
      <stop
         id="stop3795-6-6"
         offset="1"
         style="stop-color:#badf4a;stop-opacity:0.10416666;" />
    </linearGradient>
    <radialGradient
       r="5.7384715"
       fy="36.985195"
       fx="14.270205"
       cy="36.985195"
       cx="14.270205"
       gradientTransform="matrix(0.67744776,-0.14923998,-0.10647048,0.72716988,3.5026507,-13.342876)"
       gradientUnits="userSpaceOnUse"
       id="radialGradient9174"
       xlink:href="#linearGradient3791-2-6"
       inkscape:collect="always" />
  </defs>
  <sodipodi:namedview
     id="base"
     pagecolor="#ffffff"
     bordercolor="#27cc00"
     borderopacity="1"
     inkscape:pageopacity="0.0"
     inkscape:pageshadow="2"
     inkscape:zoom="21.516269"
     inkscape:cx="8.8549308"
     inkscape:cy="12.673638"
     inkscape:document-units="px"
     inkscape:current-layer="layer1"
     showgrid="false"
     borderlayer="false"
     inkscape:showpageshadow="false"
     showborder="true"
     inkscape:snap-from-guide="false"
     objecttolerance="1"
     gridtolerance="1"
     guidetolerance="5"
     inkscape:window-width="828"
     inkscape:window-height="736"
     inkscape:window-x="509"
     inkscape:window-y="117"
     inkscape:window-maximized="0">
    <inkscape:grid
       type="xygrid"
       id="grid2985"
       empspacing="5"
       visible="true"
       enabled="true"
       snapvisiblegridlinesonly="true" />
  </sodipodi:namedview>
  <metadata
     id="metadata7">
    <rdf:RDF>
      <cc:Work
         rdf:about="">
        <dc:format>image/svg+xml</dc:format>
        <dc:type
           rdf:resource="http://purl.org/dc/dcmitype/StillImage" />
        <dc:title />
      </cc:Work>
    </rdf:RDF>
  </metadata>
  <g
     inkscape:label="Layer 1"
     inkscape:groupmode="layer"
     id="layer1"
     transform="translate(0,-1028.3622)">
    <path
       sodipodi:type="arc"
       style="opacity:0.3;fill:url(#linearGradient4081);fill-opacity:1;stroke:none;filter:url(#filter4071)"
       id="path3081"
       sodipodi:cx="61.964287"
       sodipodi:cy="115.14286"
       sodipodi:rx="56.607143"
       sodipodi:ry="10"
       d="m 118.57143,115.14286 c 0,5.52285 -25.343881,10 -56.607143,10 -31.263262,0 -56.6071436,-4.47715 -56.6071436,-10 0,-5.52285 25.3438816,-10 56.6071436,-10 31.263262,0 56.607143,4.47715 56.607143,10 z"
       transform="matrix(0.15976054,-0.00852035,0,0.16144836,2.2470758,1031.5021)" />
    <path
       style="fill:url(#linearGradient5181);fill-opacity:1;stroke:url(#linearGradient3838);stroke-width:0.20000000000000001;stroke-linecap:butt;stroke-linejoin:round;stroke-miterlimit:4;stroke-opacity:1;stroke-dasharray:none;marker-start:none"
       d="m 20.414525,1029.9875 -15.302766,-0.103 0.056822,11.8536 -0.885475,0.3681 0.0942,7.8467 0.8666339,0.088 0.3956375,0.714 15.0387076,-1.7424 z"
       inkscape:connector-curvature="0"
       sodipodi:nodetypes="ccccccccc"
       id="path3106" />
    <path
       style="fill:#fdfbf7;fill-opacity:1;stroke:none"
       d="m 4.9004304,1043.1515 c 0.061679,-0.3042 0.3175605,-0.4106 0.5597817,-0.4666 0.2266298,-0.053 0.5126538,-0.065 0.513699,0.1162 0,0.3443 0.2165052,6.0247 0.2165052,6.0247 -0.0018,0.2542 -0.3738983,0.5281 -0.6376588,0.5611 -0.3813457,0.047 -0.5213381,-0.057 -0.5213381,-0.3137 z"
       id="path4403"
       inkscape:connector-curvature="0"
       sodipodi:nodetypes="csccscc" />
    <path
       style="opacity:0.78636367;fill:url(#linearGradient3946);fill-opacity:1;stroke:none"
       d="m 5.2742745,1030.0112 8.9499735,0.3555 c 0,0 -1.11709,4.6075 -2.114242,6.741 -0.610037,1.3051 -1.33598,2.5987 -2.334305,3.6375 -1.2396561,1.2899 -4.3983835,3.0758 -4.3983835,3.0758 z"
       id="path4391-1"
       inkscape:connector-curvature="0"
       sodipodi:nodetypes="ccaacc" />
    <path
       style="fill:#6699cc;fill-opacity:1;stroke:none"
       d="m 5.3274208,1046.3174 c 0.03772,-0.1343 0.2491954,-0.1717 0.3973327,-0.1926 0.1386022,-0.019 0.3135284,-0.019 0.3141674,0.06 0,0.153 0.07946,2.7165 0.07946,2.7165 -0.00107,0.1129 -0.2286681,0.2283 -0.389979,0.2386 -0.233223,0.015 -0.3188387,-0.034 -0.3188387,-0.1483 z"
       id="path4403-6"
       inkscape:connector-curvature="0"
       sodipodi:nodetypes="csccscc" />
    <g
       transform="matrix(1.2903758,0,0,1.4192703,1.6499153,1030.52)"
       id="layer1-8">
      <path
         inkscape:connector-curvature="0"
         d="M 12.9907,10.934183 12.588205,7.9462293"
         id="path2931-3"
         style="fill:none;stroke:none"
         sodipodi:nodetypes="cc" />
      <path
         inkscape:connector-curvature="0"
         d="m 3.5262458,4.1004682 c 0,2.6590902 0,2.4167928 0,5.0758837 -1.4438187,0 -3.63903773,0.3065525 -3.79132057,2.6762531 -0.07235,1.125851 0.48733587,2.490836 2.30780667,2.736492 1.4212769,0.177049 3.706158,-0.553686 3.7309439,-2.388048 -0.022112,-2.7299467 0.00615,-5.0725103 -4.91e-5,-7.8028734 0.3820013,0 4.6827733,0 5.1683393,0 0,2.0449276 0,2.3185081 0,4.3634359 -1.2464863,0 -3.3121952,0.3161727 -3.423484,2.6986485 -0.047226,1.01101 0.4860021,2.010457 1.5695384,2.439461 0.3087624,0.122248 0.6622104,0.198175 1.0596466,0.21485 0.487816,0.02047 3.371427,-0.805015 3.371427,-2.443332 -0.02905,-3.6402373 0.02155,-4.5157972 -0.0022,-8.1564214 0,-0.9266441 -0.501313,-1.9349917 -1.611616,-1.9349917 -2.1597573,0 -4.5763633,0 -6.5490548,0 -1.4414163,0 -1.8299665,1.4906412 -1.8299774,2.5206423 z"
         id="path4031-1"
         style="fill:url(#linearGradient13804);fill-opacity:1;stroke:#1a2907;stroke-width:0.14778805;stroke-linecap:butt;stroke-linejoin:round;stroke-miterlimit:4;stroke-opacity:1;stroke-dasharray:none"
         sodipodi:nodetypes="ccscccccsssccssc" />
      <path
         inkscape:connector-curvature="0"
         d="m 5.1516168,10.992755 c -2.275e-4,1.168399 0.1447466,3.138727 -2.7724738,3.440891 -1.3196556,-0.06096 -2.48183412,-0.5748 -2.48183412,-2.518169 0,-1.4675 0.98955607,-2.2402426 2.13781682,-2.4432261 2.2282011,-0.3938898 3.1162648,0.5121979 3.1164911,1.5205041 z"
         id="path2937-4"
         style="fill:url(#radialGradient3538-3-9-4);fill-opacity:1;stroke:none"
         sodipodi:nodetypes="ccssc" />
      <path
         d="m 3.6934586,9.3881594 c 0,0 0.00549,-3.6093821 0.00549,-5.5727917 0,-0.2641802 0.2515658,-1.2969567 0.5479852,-1.6221239 0.2510258,-0.2753712 0.4969944,-0.4682604 0.9331725,-0.4682604 0.1966284,0 5.2585167,-0.00848 5.2585167,-0.00848 0,0 2.680815,0.2945172 -4.9022613,0.9899069 C 5.2438307,2.7798478 4.7672626,2.9107307 4.5468897,3.1850101 4.2875788,3.5077523 4.3240841,3.9166405 4.3108769,4.3646998 4.295641,5.6975689 4.2788817,4.6831997 4.2755968,9.5760457 4.1377934,9.5109198 3.9273094,9.430908 3.6934586,9.3881594 z"
         id="path2945-9"
         style="opacity:0.4;fill:url(#linearGradient3881-5);fill-opacity:1;fill-rule:evenodd;stroke:none"
         inkscape:connector-curvature="0"
         sodipodi:nodetypes="csssccaccc" />
      <path
         d="m 11.018227,9.4798175 -1.72e-4,-5.621571 0.596529,0 c 0,0 2.54e-4,1.4597347 2.54e-4,5.9187147 0,0.03324 -0.249759,-0.2513059 -0.596611,-0.2971437 z"
         id="path2947-4"
         style="opacity:0.4;fill:url(#linearGradient3976-9);fill-opacity:1;fill-rule:evenodd;stroke:none"
         inkscape:connector-curvature="0"
         sodipodi:nodetypes="cccsc" />
      <path
         inkscape:connector-curvature="0"
         d="m 12.878105,10.605455 c -2.27e-4,1.168399 -1.858029,3.282669 -2.9354323,3.334818 -1.1594182,0.05612 -2.2795809,-1.046212 -2.2795802,-2.463145 7e-7,-1.426968 0.8102416,-2.1535348 2.1742762,-2.4513711 2.2253363,-0.485901 3.0405103,0.4113739 3.0407363,1.5796981 z"
         id="path2937-4-0"
         style="fill:url(#radialGradient9174);fill-opacity:1;stroke:none"
         sodipodi:nodetypes="csssc" />
    </g>
    <path
       style="opacity:0.15;fill:#000000;fill-opacity:1;stroke:none;filter:url(#filter3834)"
       d="m 334.55608,1012.7431 -44.16221,0.9304 0,-101.69681 -21.1979,-24.24366 3.07243,-224.7642 68.12547,-15.11215 z"
       id="path4069"
       inkscape:connector-curvature="0"
       sodipodi:nodetypes="ccccccc"
       transform="matrix(0.07616824,0.01382222,0,0.05354056,-10.796648,991.27668)" />
    <path
       style="fill:url(#linearGradient3988);fill-opacity:1;stroke:url(#linearGradient4014);stroke-width:0.2;stroke-linecap:butt;stroke-linejoin:miter;stroke-miterlimit:4;stroke-opacity:1;stroke-dasharray:none"
       d="m 20.359179,1029.944 -7.399805,-0.085 0,11.7341 1.055034,1.1752 -0.104683,7.2479 0.313,0.4883 0.741012,0.1941 5.674977,-1.726 z"
       id="path3884"
       inkscape:connector-curvature="0"
       sodipodi:nodetypes="ccccccccc" />
    <path
       style="opacity:0.78636367;fill:url(#linearGradient4399);fill-opacity:1;stroke:none"
       d="m 13.111821,1029.9941 7.054362,0.2439 0.365898,18.6505 -5.553454,1.6212 -0.693425,-0.2061 -0.19386,-0.3315 0.03711,-6.8957 -1.109365,-1.3207 z"
       id="path4391"
       inkscape:connector-curvature="0"
       sodipodi:nodetypes="ccccccccc" />
  </g>
</svg>
