<?xml version="1.0" encoding="UTF-8" standalone="no"?>
<!-- Created with Inkscape (http://www.inkscape.org/) -->

<svg
   xmlns:dc="http://purl.org/dc/elements/1.1/"
   xmlns:cc="http://creativecommons.org/ns#"
   xmlns:rdf="http://www.w3.org/1999/02/22-rdf-syntax-ns#"
   xmlns:svg="http://www.w3.org/2000/svg"
   xmlns="http://www.w3.org/2000/svg"
   xmlns:xlink="http://www.w3.org/1999/xlink"
   xmlns:sodipodi="http://sodipodi.sourceforge.net/DTD/sodipodi-0.dtd"
   xmlns:inkscape="http://www.inkscape.org/namespaces/inkscape"
   version="1.0"
   width="24"
   height="24"
   id="svg4569"
   sodipodi:version="0.32"
   inkscape:version="0.48.4 r9939"
   sodipodi:docname="server.svg"
   inkscape:output_extension="org.inkscape.output.svg.inkscape">
  <metadata
     id="metadata46">
    <rdf:RDF>
      <cc:Work
         rdf:about="">
        <dc:format>image/svg+xml</dc:format>
        <dc:type
           rdf:resource="http://purl.org/dc/dcmitype/StillImage" />
        <dc:title />
      </cc:Work>
    </rdf:RDF>
  </metadata>
  <sodipodi:namedview
     inkscape:window-height="789"
     inkscape:window-width="1438"
     inkscape:pageshadow="2"
     inkscape:pageopacity="0.0"
     guidetolerance="10.0"
     gridtolerance="10.0"
     objecttolerance="10.0"
     borderopacity="1.0"
     bordercolor="#666666"
     pagecolor="#ffffff"
     id="base"
     showgrid="false"
     showguides="true"
     inkscape:guide-bbox="true"
     inkscape:zoom="13.047223"
     inkscape:cx="8.081428"
     inkscape:cy="14.845683"
     inkscape:window-x="0"
     inkscape:window-y="60"
     inkscape:current-layer="svg4569"
     inkscape:window-maximized="0">
    <inkscape:grid
       type="xygrid"
       id="grid2421"
       empspacing="5"
       visible="true"
       enabled="true"
       snapvisiblegridlinesonly="true" />
  </sodipodi:namedview>
  <defs
     id="defs4571">
    <linearGradient
       id="linearGradient5044">
      <stop
         style="stop-color:#000000;stop-opacity:1;"
         offset="0"
         id="stop5046" />
      <stop
         style="stop-color:#000000;stop-opacity:0;"
         offset="1"
         id="stop5048" />
    </linearGradient>
    <filter
       color-interpolation-filters="sRGB"
       inkscape:collect="always"
       id="filter5056"
       x="-0.039170168"
       width="1.0783403"
       y="-0.18818712"
       height="1.3763742">
      <feGaussianBlur
         inkscape:collect="always"
         stdDeviation="0.72364534"
         id="feGaussianBlur5058" />
    </filter>
    <linearGradient
       id="linearGradient3912-9">
      <stop
         id="stop3914-3"
         style="stop-color:#c4c4c4;stop-opacity:1;"
         offset="0" />
      <stop
         id="stop3916-9"
         style="stop-color:#f8f8f8;stop-opacity:1;"
         offset="0.35046947" />
      <stop
         id="stop3918-0"
         style="stop-color:#ffffff;stop-opacity:1;"
         offset="0.49417919" />
      <stop
         id="stop3920-8"
         style="stop-color:#ffffff;stop-opacity:1;"
         offset="0.58907253" />
      <stop
         id="stop3922-8"
         style="stop-color:#c7c7c7;stop-opacity:1;"
         offset="1" />
    </linearGradient>
    <linearGradient
       id="linearGradient3924-5">
      <stop
         id="stop3926-0"
         style="stop-color:#464646;stop-opacity:1"
         offset="0" />
      <stop
         id="stop3928-9"
         style="stop-color:#8c8c8c;stop-opacity:1"
         offset="0.35046947" />
      <stop
         id="stop3930-6"
         style="stop-color:#969696;stop-opacity:1"
         offset="0.50989443" />
      <stop
         id="stop3932-3"
         style="stop-color:#aaaaaa;stop-opacity:1"
         offset="0.61998242" />
      <stop
         id="stop3934-8"
         style="stop-color:#646464;stop-opacity:1"
         offset="1" />
    </linearGradient>
    <linearGradient
       id="linearGradient3342-5">
      <stop
         id="stop3344-6"
         style="stop-color:#ffffff;stop-opacity:0"
         offset="0" />
      <stop
         id="stop3346-1"
         style="stop-color:#ffffff;stop-opacity:1"
         offset="1" />
    </linearGradient>
    <linearGradient
       id="linearGradient5016">
      <stop
         style="stop-color:#fafafa;stop-opacity:1;"
         offset="0"
         id="stop5018" />
      <stop
         id="stop5024"
         offset="0.94462717"
         style="stop-color:#f5f5f5;stop-opacity:1;" />
      <stop
         style="stop-color:#b8b8b8;stop-opacity:1;"
         offset="1"
         id="stop5020" />
    </linearGradient>
    <linearGradient
       id="linearGradient4137">
      <stop
         id="stop4139"
         offset="0"
         style="stop-color:#ffffff;stop-opacity:0.86451614;" />
      <stop
         style="stop-color:#e5e5e5;stop-opacity:0.20645161;"
         offset="0.77706319"
         id="stop4141" />
      <stop
         id="stop4143"
         offset="1"
         style="stop-color:#dedede;stop-opacity:0.06451613;" />
    </linearGradient>
    <linearGradient
       id="linearGradient3995">
      <stop
         style="stop-color:#ffffff;stop-opacity:1;"
         offset="0"
         id="stop3997" />
      <stop
         style="stop-color:#8d8d8d;stop-opacity:0;"
         offset="1"
         id="stop3999" />
    </linearGradient>
    <radialGradient
       inkscape:collect="always"
       xlink:href="#linearGradient4137"
       id="radialGradient3304"
       gradientUnits="userSpaceOnUse"
       gradientTransform="matrix(2.1250259,0,0,1.090714,-86.314227,5.658706)"
       cx="75.376205"
       cy="-8.7353783"
       fx="75.376205"
       fy="-8.7353783"
       r="26.126562" />
    <radialGradient
       inkscape:collect="always"
       xlink:href="#linearGradient3995"
       id="radialGradient3306"
       gradientUnits="userSpaceOnUse"
       gradientTransform="matrix(0.25991104,0,1.8824434e-8,0.10918036,29.018869,-74.835751)"
       cx="251.5094"
       cy="938.44238"
       fx="251.5094"
       fy="938.44238"
       r="192.44753" />
    <linearGradient
       inkscape:collect="always"
       xlink:href="#linearGradient5016"
       id="linearGradient3336"
       gradientUnits="userSpaceOnUse"
       gradientTransform="matrix(0.33735629,0,0,0.37564647,1.2214612,0.67101384)"
       x1="31.075314"
       y1="6.0645385"
       x2="31.075314"
       y2="45.38065" />
    <linearGradient
       inkscape:collect="always"
       xlink:href="#linearGradient3342-5"
       id="linearGradient3338"
       gradientUnits="userSpaceOnUse"
       gradientTransform="matrix(0.52354459,0,0,0.46822636,-0.32707467,0.07550491)"
       spreadMethod="reflect"
       x1="15.573899"
       y1="46.971004"
       x2="23.578077"
       y2="46.971004" />
    <linearGradient
       inkscape:collect="always"
       xlink:href="#linearGradient3912-9"
       id="linearGradient3340"
       gradientUnits="userSpaceOnUse"
       gradientTransform="matrix(0.44846244,0,0,0.4683561,-148.6079,-21.839204)"
       x1="361.10583"
       y1="87.050117"
       x2="361.10583"
       y2="94.396416" />
    <linearGradient
       inkscape:collect="always"
       xlink:href="#linearGradient3924-5"
       id="linearGradient3343"
       gradientUnits="userSpaceOnUse"
       gradientTransform="matrix(0.45007871,0,0,0.46828875,-15.887781,2.049478)"
       x1="61.968769"
       y1="35.944077"
       x2="61.968769"
       y2="43.378311" />
    <radialGradient
       inkscape:collect="always"
       xlink:href="#linearGradient5044"
       id="radialGradient3345"
       gradientUnits="userSpaceOnUse"
       gradientTransform="matrix(1,0,0,0.24114963,0,44.455786)"
       cx="32.802509"
       cy="61.712757"
       fx="32.802509"
       fy="61.712757"
       r="23.133492" />
    <linearGradient
       inkscape:collect="always"
       xlink:href="#linearGradient4075-8"
       id="linearGradient3195"
       gradientUnits="userSpaceOnUse"
       x1="60.844788"
       y1="120.31346"
       x2="60.844788"
       y2="132.19897" />
    <linearGradient
       id="linearGradient4075-8">
      <stop
         style="stop-color:#000000;stop-opacity:0.6825397;"
         offset="0"
         id="stop4077-1-6" />
      <stop
         style="stop-color:#787878;stop-opacity:0;"
         offset="1"
         id="stop4079-2" />
    </linearGradient>
    <filter
       inkscape:collect="always"
       id="filter4071-4"
       x="-0.060892355"
       width="1.1217847"
       y="-0.32908928"
       height="1.6581786"
       color-interpolation-filters="sRGB">
      <feGaussianBlur
         inkscape:collect="always"
         stdDeviation="2.8724519"
         id="feGaussianBlur4073-7" />
    </filter>
    <radialGradient
       inkscape:collect="always"
       xlink:href="#linearGradient5214"
       id="radialGradient3809"
       cx="6.4161592"
       cy="7.924839"
       fx="6.4161592"
       fy="7.924839"
       r="7.3255992"
       gradientUnits="userSpaceOnUse"
       gradientTransform="matrix(0.78402478,-1.3579708,1.2685948,0.73242353,-8.6676777,10.833458)" />
    <linearGradient
       id="linearGradient5214">
      <stop
         offset="0"
         style="stop-color:#14a8cc;stop-opacity:1;"
         id="stop5216" />
      <stop
         offset="0.38886222"
         style="stop-color:#3293c5;stop-opacity:1;"
         id="stop5218" />
      <stop
         offset="0.704952"
         style="stop-color:#1f436b;stop-opacity:1;"
         id="stop5220" />
      <stop
         offset="1"
         style="stop-color:#10182b;stop-opacity:1;"
         id="stop5222" />
    </linearGradient>
    <linearGradient
       inkscape:collect="always"
       xlink:href="#linearGradient4873"
       id="linearGradient3778"
       gradientUnits="userSpaceOnUse"
       gradientTransform="matrix(0.36816361,0,0,0.36815521,-1.1056551,-0.76431259)"
       x1="20"
       y1="43"
       x2="20"
       y2="2.6887112" />
    <linearGradient
       id="linearGradient4873">
      <stop
         id="stop4875"
         style="stop-color:#ffffff;stop-opacity:1"
         offset="0" />
      <stop
         id="stop4877"
         style="stop-color:#ffffff;stop-opacity:0"
         offset="1" />
    </linearGradient>
    <radialGradient
       inkscape:collect="always"
       xlink:href="#linearGradient3853"
       id="radialGradient3859"
       cx="7.9413667"
       cy="7.5941944"
       fx="7.9413667"
       fy="7.5941944"
       r="6.9656196"
       gradientTransform="matrix(1.268776,-1.8333479e-8,2.0630349e-8,1.4277319,-2.1344488,-3.2482788)"
       gradientUnits="userSpaceOnUse" />
    <linearGradient
       id="linearGradient3853">
      <stop
         style="stop-color:#ffffff;stop-opacity:1;"
         offset="0"
         id="stop3855" />
      <stop
         id="stop3861"
         offset="0.5"
         style="stop-color:#ffffff;stop-opacity:1;" />
      <stop
         style="stop-color:#ffffff;stop-opacity:0.31612903;"
         offset="1"
         id="stop3857" />
    </linearGradient>
  </defs>
  <path
     sodipodi:type="arc"
     style="opacity:0.4;fill:url(#radialGradient3345);fill-opacity:1;stroke:none;filter:url(#filter5056)"
     id="path5038"
     sodipodi:cx="33.003136"
     sodipodi:cy="58.583073"
     sodipodi:rx="20.363636"
     sodipodi:ry="4.6144199"
     d="m 53.366772,58.583073 a 20.363636,4.6144199 0 1 1 -40.727272,0 20.363636,4.6144199 0 1 1 40.727272,0 z"
     transform="matrix(0.34203628,0,0,0.28005307,0.94550817,5.8149664)" />
  <path
     d="m 9.2533749,17.147483 c 0,0 0.063807,3.578417 -0.2544492,4.043159 -0.3182584,0.46474 -1.6355713,0.526754 -1.6355713,0.526754 -0.4063698,0.04883 -0.4097308,0.702642 0,0.702642 l 9.3074926,0 c 0.409731,0 0.406455,-0.654442 0,-0.702642 0,0 -1.317317,-0.06201 -1.635572,-0.526754 -0.318252,-0.464739 -0.254481,-4.043159 -0.254481,-4.043159 z"
     id="rect1789-1"
     style="fill:url(#linearGradient3340);fill-opacity:1;fill-rule:nonzero;stroke:url(#linearGradient3343);stroke-width:0.4258064;stroke-linecap:round;stroke-linejoin:round;stroke-miterlimit:4;stroke-opacity:1;stroke-dasharray:none;stroke-dashoffset:0.50000001;marker:none;visibility:visible;display:inline;overflow:visible;enable-background:new"
     inkscape:connector-curvature="0"
     sodipodi:nodetypes="cscsscscc" />
  <path
     inkscape:connector-curvature="0"
     d="m 8.0883273,22.068566 7.8575467,0"
     id="path3340-5"
     style="fill:none;stroke:url(#linearGradient3338);stroke-width:0.70967728px;stroke-linecap:square;stroke-linejoin:miter;stroke-opacity:1" />
  <rect
     width="20.713682"
     height="15.213682"
     rx="1.0120692"
     ry="1.1269393"
     x="1.6431586"
     y="2.6431589"
     id="rect2722-9"
     style="fill:url(#linearGradient3336);fill-opacity:1;stroke:#5b5b5b;stroke-width:0.28631702;stroke-linecap:round;stroke-linejoin:round;stroke-miterlimit:4;stroke-opacity:1;stroke-dasharray:none;stroke-dashoffset:0.50000001" />
  <g
     id="g4811"
     transform="matrix(0.34925387,0,0,0.34570188,-21.008804,7.2967413)">
    <rect
       ry="2.0909734"
       rx="1.9503173"
       y="-9.5521727"
       x="68.385796"
       height="34.742329"
       width="52.253124"
       id="rect2996-6"
       style="fill:#0a0a0a;fill-opacity:1;stroke:none" />
    <rect
       ry="2.0909734"
       rx="1.9503173"
       y="-9.5521727"
       x="68.385811"
       height="34.742329"
       width="52.253124"
       id="rect2996-6-4"
       style="opacity:0.5;fill:url(#radialGradient3306);fill-opacity:1;stroke:none" />
    <rect
       ry="2.0909734"
       rx="1.9503173"
       y="-9.5521727"
       x="68.385765"
       height="34.742329"
       width="52.253124"
       id="rect2996-6-4-8"
       style="opacity:0.8;fill:url(#radialGradient3304);fill-opacity:1;stroke:none" />
  </g>
  <rect
     style="fill:#69ff75;fill-opacity:1;stroke:none"
     id="rect3853"
     width="0.62420326"
     height="0.3514767"
     x="11.703503"
     y="16.771601" />
  <g
     transform="matrix(0.12498784,0,0,0.12630724,5.4985714,-117.04169)"
     id="g3053">
    <path
       transform="matrix(0.55129888,-0.00306095,-0.11084015,0.94963385,31.029093,932.03457)"
       d="m 118.57143,115.14286 c 0,5.52285 -25.343881,10 -56.607143,10 -31.263262,0 -56.6071436,-4.47715 -56.6071436,-10 0,-5.52285 25.3438816,-10 56.6071436,-10 31.263262,0 56.607143,4.47715 56.607143,10 z"
       sodipodi:ry="10"
       sodipodi:rx="56.607143"
       sodipodi:cy="115.14286"
       sodipodi:cx="61.964287"
       id="path3081-8"
       style="opacity:0.3;fill:url(#linearGradient3195);fill-opacity:1;stroke:none;filter:url(#filter4071-4)"
       sodipodi:type="arc" />
    <g
       transform="matrix(5.1511165,0.61152858,-0.61152858,5.1511165,16.288918,961.00096)"
       id="layer1-2">
      <path
         inkscape:connector-curvature="0"
         style="fill:url(#radialGradient3809);fill-opacity:1;fill-rule:nonzero;stroke:url(#linearGradient3778);stroke-width:0;stroke-miterlimit:4;stroke-dasharray:none"
         id="path6495"
         d="m 15.202279,7.9245802 c 0,4.0459458 -3.280024,7.3258578 -7.3255073,7.3258578 -4.0458522,0 -7.32569083,-3.279949 -7.32569083,-7.3258578 0,-4.0457621 3.27983863,-7.32534036 7.32569083,-7.32534036 4.0454833,0 7.3255073,3.27957826 7.3255073,7.32534036 l 0,0 z" />
      <path
         inkscape:connector-curvature="0"
         style="opacity:0.9;fill:url(#radialGradient3859);fill-opacity:1;fill-rule:nonzero;stroke:none"
         id="path6534"
         d="M 8.1022062,0.95621712 7.236144,1.0568701 6.2834735,1.3210847 C 6.3646244,1.2921995 6.446834,1.2606694 6.5309208,1.2330132 L 6.4195696,1.0317069 6.048401,1.0946151 5.8628152,1.2707582 5.5782512,1.3085031 5.318433,1.4343196 5.1947098,1.4972277 5.157592,1.5475543 4.9720082,1.5852992 4.8606579,1.8243504 4.712189,1.522391 4.662699,1.6482076 4.687446,1.9879118 4.4523726,2.1892181 4.3162764,2.5540857 l 0.2845641,0 0.1113503,-0.2390512 0.037118,-0.088071 C 4.8744282,2.136984 4.9930427,2.0367771 5.1204782,1.9501669 L 5.4174142,2.05082 C 5.6107409,2.1843878 5.8054259,2.3200676 5.9989133,2.4534326 L 6.2834735,2.1892181 5.9617936,2.05082 5.8133266,1.7488605 5.2689442,1.6859524 5.2565714,1.6230443 5.4916438,1.6733709 5.6277409,1.5349726 5.9246759,1.4720643 C 5.9949454,1.4373108 6.06407,1.4122795 6.1350055,1.3839929 l -0.1855848,0.1761431 0.6681055,0.4655208 0,0.2767962 L 6.357707,2.5666673 6.7041325,3.2712399 6.9392071,3.1328408 7.2361431,2.6673207 C 7.6536127,2.5360677 8.0298636,2.383337 8.423888,2.2017997 L 8.3991411,2.3779426 8.5970969,2.5163408 8.9435226,2.2772895 8.7703107,2.0759833 8.5352353,2.2143814 8.4610018,2.1892185 c 0.017052,-0.00792 0.032364,-0.017109 0.04949,-0.025163 L 8.8569181,1.2581766 8.1022062,0.95621712 z M 4.712189,2.3150345 l 0.2845631,0.2013063 0.2350744,0 0,-0.2390513 -0.2845631,-0.1258162 -0.2350744,0.1635612 0,0 z m 6.569706,-0.1635612 -0.507267,0.1258162 -0.321677,0.2138881 0,0.1887243 -0.5072681,0.3271224 0.098978,0.4906852 0.296936,-0.2138887 0.185586,0.2138887 0.210331,0.1258164 0.136094,-0.3648684 -0.07423,-0.2138876 0.07423,-0.1509803 0.296936,-0.2767955 0.136096,0 -0.136096,0.3019602 0,0.2767953 c 0.122388,-0.033878 0.245923,-0.047072 0.371169,-0.062909 l -0.346425,0.2516338 -0.02474,0.1509791 -0.395915,0.3397051 -0.408287,-0.1006539 0,-0.2390512 -0.185585,0.1258166 0.08661,0.2138885 -0.2969511,0 -0.1608399,0.276796 -0.1979568,0.2264696 -0.3587976,0.075489 0.2103296,0.213888 0.049489,0.2138881 -0.2598183,0 -0.3464256,0.1887243 0,0.5535916 0.160839,0 L 9.21571,5.7875669 9.549771,5.6240052 9.6734937,5.2843006 9.92094,5.1333211 9.97043,5.007505 l 0.395919,-0.1006531 0.222701,0.2516328 0.235075,0.1258159 -0.136096,0.2767966 0.21033,-0.062908 0.11135,-0.2767966 -0.272189,-0.3145408 0.11135,0 0.272192,0.2264692 0.04949,0.3019603 0.235072,0.276796 0.06186,-0.4026124 0.123723,-0.062909 c 0.131695,0.1390299 0.235504,0.3090531 0.346424,0.4655215 l 0.408287,0.025165 0.235074,0.1509801 -0.11135,0.1635607 -0.235073,0.2138886 -0.346429,0 L 11.430361,6.1146942 11.195287,6.1398593 11.022074,6.3411657 10.527181,5.8378996 10.180756,5.7372462 9.6734907,5.8001547 9.2280866,5.9259711 C 8.974001,6.2188978 8.7138634,6.5150518 8.4733747,6.8192683 L 8.1888107,7.5238405 8.3249076,7.6748196 8.0774604,8.0396877 8.3496515,8.6813514 C 8.5761437,8.9418962 8.8039678,9.2006825 9.030129,9.461412 l 0.3340537,-0.2893772 0.1360951,0.1761447 0.3587986,-0.2390518 0.1237209,0.1383971 0.3587977,0 0.210332,0.2390509 -0.123724,0.4277763 0.247446,0.289379 -0.01237,0.503264 0.185586,0.364869 -0.136095,0.314541 c -0.01327,0.225592 -0.02475,0.4412 -0.02475,0.666826 0.10916,0.305671 0.218601,0.610592 0.32168,0.918462 l 0.07423,0.490682 0,0.251634 0.197957,0 0.284562,-0.188726 0.346427,0 0.519637,-0.591336 -0.06186,-0.201308 0.346427,-0.314538 -0.259821,-0.289379 0.309308,-0.251633 0.296936,-0.188725 0.136096,-0.15098 -0.08661,-0.339704 c 0,-0.285996 10e-7,-0.569519 0,-0.855553 L 13.348063,9.8136993 13.645,9.4865757 l 0.321679,-0.8052243 0,-0.2138884 C 13.806601,8.487969 13.653165,8.506459 13.496531,8.51779 l 0.321681,-0.3271227 0.445403,-0.30196 0.235075,-0.2767953 0,-0.3019591 C 14.445379,7.2077028 14.391536,7.0976601 14.337854,6.9954116 l -0.210329,0.2516315 -0.16084,-0.1887234 -0.235076,-0.1887233 0,-0.3900316 0.272193,0.3145399 0.309309,-0.037745 c 0.139537,0.1288198 0.273525,0.2433636 0.395913,0.3900326 l 0.197962,-0.2264767 c 0,-0.2438137 -0.270036,-1.4474482 -0.85369,-2.466002 C 13.46964,3.4356954 12.444894,2.5037591 12.444895,2.5037591 l -0.07423,0.1383981 -0.272192,0.3019595 -0.346426,-0.3648677 0.346426,0 L 12.259308,2.4031061 11.615949,2.2772895 11.281895,2.1514733 z M 3.8461259,2.3150345 3.7224027,2.6421572 c 0,0 -0.2166086,0.036366 -0.2721911,0.050327 C 2.7403769,3.3576613 1.3089548,4.8004591 0.97574709,7.5112538 0.98894063,7.5741032 1.2108206,7.9390292 1.2108206,7.9390292 l 0.5443833,0.3271217 0.5443813,0.1509801 0.2350744,0.2893781 0.3587977,0.2767963 0.2103295,-0.037745 0.148469,0.07549 0,0.050326 -0.1979586,0.5661735 -0.1608399,0.2390518 0.049489,0.113235 -0.1237222,0.4529393 0.4577758,0.855551 0.470148,0.415195 0.2103284,0.30196 -0.024746,0.629081 0.1484679,0.352287 -0.1484679,0.67941 c 0,0 -0.019811,-0.0056 0,0.06291 0.019988,0.06853 0.8270507,0.529522 0.8784351,0.490683 0.051209,-0.03956 0.098979,-0.07549 0.098979,-0.07549 l -0.049489,-0.150981 0.2103287,-0.201305 0.074234,-0.213887 0.3340518,-0.113235 0.2598192,-0.654247 -0.074233,-0.176143 0.1732127,-0.276796 0.3959144,-0.08807 0.1979577,-0.478102 -0.049491,-0.591338 0.3093088,-0.440357 0.049489,-0.452939 C 6.3168632,10.102948 5.9004921,9.8830534 5.4792709,9.6627135 L 5.2689423,9.2475198 4.8853999,9.1594491 4.6750703,8.5932746 4.1678047,8.6561827 3.7224017,8.32906 3.2522529,8.7442535 l 0,0.062909 C 3.1114329,8.7658292 2.9446126,8.7597462 2.8192238,8.6813464 l -0.098978,-0.301959 0,-0.3271237 -0.3216799,0.037745 c 0.025887,-0.2083697 0.06054,-0.4207485 0.086605,-0.6290818 l -0.1855858,0 -0.1855847,0.2390518 -0.1732118,0.088072 -0.2598193,-0.1509809 -0.024745,-0.3271236 0.04949,-0.352285 0.3835414,-0.3019601 0.3093088,0 L 2.4604275,6.4795588 2.843969,6.5676298 3.1285316,6.932497 3.1780203,6.3285781 3.672914,5.9133853 3.8461259,5.4730269 4.2172963,5.3220476 4.415253,5.0200879 4.8854018,4.9320161 5.1204763,4.57973 c -0.2326763,0 -0.472546,0 -0.7052233,0 l 0.4454049,-0.2138879 0.309307,0 L 5.5658793,4.2274443 5.6401139,4.6174752 5.8133266,4.3406788 5.615369,4.2022808 5.6648596,4.0387201 5.5040187,3.8877395 5.3308048,3.8374132 5.3802955,3.6486888 5.2441994,3.3844746 4.9348905,3.5102908 4.9843801,3.2712399 4.6255827,3.0573516 4.3410204,3.5606172 4.3657663,3.7367603 4.0812032,3.8625768 3.9079904,4.2526078 3.821384,3.8877395 3.3388631,3.6864335 3.2522568,3.4096375 3.9079904,3.0321885 4.1925535,2.755392 4.2173002,2.4282694 4.0564593,2.3401977 3.8461298,2.315035 l -3.9e-6,-5e-7 z m 5.3077282,0.6039198 0,0.2013049 0.1113521,0.1258168 0,0.3019596 L 9.2033438,3.9506479 9.5250246,3.8877395 9.760098,3.6486888 9.5497694,3.4473819 C 9.4815603,3.2626763 9.4124355,3.0961113 9.3270669,2.9189543 l -0.1732128,0 z M 8.881662,3.3215656 8.6837063,3.3844746 8.7331959,3.7493421 8.9930152,3.6109428 8.881662,3.3215656 l 0,0 z m 3.625092,3.308973 0.296937,0.3522842 0.358798,0.7800638 0.2227,0.2516317 -0.11135,0.2642164 0.197958,0.2390499 c -0.09084,0.00611 -0.17882,0.012584 -0.272192,0.012584 -0.169621,-0.362459 -0.303864,-0.7279946 -0.43303,-1.1071857 l -0.222704,-0.2516326 -0.123722,-0.4529392 0.08661,-0.088071 0,-1.3e-6 z" />
    </g>
  </g>
</svg>
