<?xml version="1.0" encoding="UTF-8" standalone="no"?>
<!-- Created with Inkscape (http://www.inkscape.org/) -->

<svg
   xmlns:dc="http://purl.org/dc/elements/1.1/"
   xmlns:cc="http://creativecommons.org/ns#"
   xmlns:rdf="http://www.w3.org/1999/02/22-rdf-syntax-ns#"
   xmlns:svg="http://www.w3.org/2000/svg"
   xmlns="http://www.w3.org/2000/svg"
   xmlns:xlink="http://www.w3.org/1999/xlink"
   xmlns:sodipodi="http://sodipodi.sourceforge.net/DTD/sodipodi-0.dtd"
   xmlns:inkscape="http://www.inkscape.org/namespaces/inkscape"
   version="1.0"
   width="128"
   height="128"
   id="svg3675"
   inkscape:version="0.48.4 r9939"
   sodipodi:docname="stock_navigator.svg">
  <metadata
     id="metadata29">
    <rdf:RDF>
      <cc:Work
         rdf:about="">
        <dc:format>image/svg+xml</dc:format>
        <dc:type
           rdf:resource="http://purl.org/dc/dcmitype/StillImage" />
        <dc:title />
      </cc:Work>
    </rdf:RDF>
  </metadata>
  <sodipodi:namedview
     pagecolor="#ffffff"
     bordercolor="#666666"
     borderopacity="1"
     objecttolerance="10"
     gridtolerance="10"
     guidetolerance="10"
     inkscape:pageopacity="0"
     inkscape:pageshadow="2"
     inkscape:window-width="1009"
     inkscape:window-height="623"
     id="namedview27"
     showgrid="false"
     inkscape:zoom="2.296875"
     inkscape:cx="32.72545"
     inkscape:cy="79.525894"
     inkscape:window-x="116"
     inkscape:window-y="96"
     inkscape:window-maximized="0"
     inkscape:current-layer="svg3675" />
  <defs
     id="defs3677">
    <linearGradient
       id="linearGradient8838">
      <stop
         id="stop8840"
         style="stop-color:#000000;stop-opacity:1"
         offset="0" />
      <stop
         id="stop8842"
         style="stop-color:#000000;stop-opacity:0"
         offset="1" />
    </linearGradient>
    <linearGradient
       id="linearGradient2490-182-124">
      <stop
         id="stop2788"
         style="stop-color:#1f4b6a;stop-opacity:1"
         offset="0" />
      <stop
         id="stop2790"
         style="stop-color:#4083c2;stop-opacity:1"
         offset="1" />
    </linearGradient>
    <linearGradient
       id="linearGradient3242-187-536">
      <stop
         id="stop2778"
         style="stop-color:#8badea;stop-opacity:1"
         offset="0" />
      <stop
         id="stop2780"
         style="stop-color:#6396cd;stop-opacity:1"
         offset="0.26238" />
      <stop
         id="stop2782"
         style="stop-color:#3b7caf;stop-opacity:1"
         offset="0.66093999" />
      <stop
         id="stop2784"
         style="stop-color:#194c70;stop-opacity:1"
         offset="1" />
    </linearGradient>
    <linearGradient
       id="linearGradient4873">
      <stop
         id="stop4875"
         style="stop-color:#ffffff;stop-opacity:1"
         offset="0" />
      <stop
         id="stop4877"
         style="stop-color:#ffffff;stop-opacity:0"
         offset="1" />
    </linearGradient>
    <linearGradient
       x1="63.397362"
       y1="-12.489107"
       x2="63.397362"
       y2="5.4675598"
       id="linearGradient2407"
       xlink:href="#linearGradient4873"
       gradientUnits="userSpaceOnUse"
       gradientTransform="matrix(5.64345,0,0,5.6429422,-286.50588,83.30933)" />
    <radialGradient
       cx="23.895569"
       cy="3.9900031"
       r="20.397499"
       fx="23.895569"
       fy="3.9900031"
       id="radialGradient2410"
       xlink:href="#linearGradient3242-187-536"
       gradientUnits="userSpaceOnUse"
       gradientTransform="matrix(0,6.102135,-8.0552513,0,96.659483,-138.25671)" />
    <linearGradient
       x1="18.379412"
       y1="44.980297"
       x2="18.379412"
       y2="3.0816143"
       id="linearGradient2412"
       xlink:href="#linearGradient2490-182-124"
       gradientUnits="userSpaceOnUse"
       gradientTransform="matrix(2.5569423,0,0,2.5567709,3.1523875,2.1353877)" />
    <radialGradient
       cx="62.625"
       cy="4.625"
       r="10.625"
       fx="62.625"
       fy="4.625"
       id="radialGradient2415"
       xlink:href="#linearGradient8838"
       gradientUnits="userSpaceOnUse"
       gradientTransform="matrix(5.7750605,0,0,2.0085789,-297.14415,94.222906)" />
    <linearGradient
       inkscape:collect="always"
       xlink:href="#linearGradient3341-8"
       id="linearGradient3262"
       gradientUnits="userSpaceOnUse"
       gradientTransform="matrix(1.9094669,0,0,1.8837021,7.3483896,16.35016)"
       x1="29.999992"
       y1="3.0410755"
       x2="29.999992"
       y2="27.956825" />
    <linearGradient
       id="linearGradient3341-8">
      <stop
         id="stop3343-1"
         style="stop-color:#ffffff;stop-opacity:1"
         offset="0" />
      <stop
         id="stop3345-3"
         style="stop-color:#ffffff;stop-opacity:0"
         offset="1" />
    </linearGradient>
    <radialGradient
       inkscape:collect="always"
       xlink:href="#linearGradient5060-1"
       id="radialGradient3260"
       gradientUnits="userSpaceOnUse"
       gradientTransform="matrix(2.805291,-1.2918464e-6,3.9121714e-7,0.84273177,-19.183495,44.294983)"
       cx="30"
       cy="33.1875"
       fx="30"
       fy="33.1875"
       r="4.6875" />
    <linearGradient
       id="linearGradient5060-1">
      <stop
         id="stop5062-1"
         style="stop-color:#000000;stop-opacity:1"
         offset="0" />
      <stop
         id="stop5064-0"
         style="stop-color:#000000;stop-opacity:0"
         offset="1" />
    </linearGradient>
    <linearGradient
       inkscape:collect="always"
       xlink:href="#linearGradient5060-1"
       id="linearGradient3258"
       gradientUnits="userSpaceOnUse"
       gradientTransform="matrix(1.8359557,0,0,1.8285819,10.072896,19.080675)"
       x1="38"
       y1="39"
       x2="43"
       y2="38.599998" />
    <linearGradient
       inkscape:collect="always"
       xlink:href="#linearGradient5060-1"
       id="linearGradient3256"
       gradientUnits="userSpaceOnUse"
       gradientTransform="matrix(1.8359557,0,0,1.8285819,9.2794617,18.816196)"
       x1="22"
       y1="39"
       x2="17"
       y2="37.4375" />
    <radialGradient
       inkscape:collect="always"
       xlink:href="#linearGradient6954-3"
       id="radialGradient3252"
       gradientUnits="userSpaceOnUse"
       gradientTransform="matrix(2.9991745,-0.24095037,0.23426653,2.8803097,-23.70785,7.9672404)"
       cx="26.375898"
       cy="12.31301"
       fx="26.375898"
       fy="12.31301"
       r="8" />
    <linearGradient
       id="linearGradient6954-3">
      <stop
         id="stop6960-4"
         style="stop-color:#ffffff;stop-opacity:1;"
         offset="0" />
      <stop
         id="stop6962-0"
         style="stop-color:#dcdcdc;stop-opacity:1;"
         offset="1" />
    </linearGradient>
    <linearGradient
       inkscape:collect="always"
       xlink:href="#linearGradient3785-3"
       id="linearGradient3254"
       gradientUnits="userSpaceOnUse"
       gradientTransform="matrix(1.8285809,0,0,1.8173626,9.931368,17.467367)"
       x1="30"
       y1="5"
       x2="30"
       y2="44.678879" />
    <linearGradient
       id="linearGradient3785-3">
      <stop
         id="stop3787-9"
         style="stop-color:#bdbdbd;stop-opacity:1"
         offset="0" />
      <stop
         id="stop3789-1"
         style="stop-color:#8c8c8c;stop-opacity:1"
         offset="1" />
    </linearGradient>
    <linearGradient
       inkscape:collect="always"
       xlink:href="#linearGradient3341-8"
       id="linearGradient3250"
       gradientUnits="userSpaceOnUse"
       gradientTransform="matrix(1.8359556,0,0,1.8285818,9.896577,17.405649)"
       x1="29.99999"
       y1="44.324059"
       x2="29.99999"
       y2="5.7667112" />
    <radialGradient
       r="16"
       fy="28.659998"
       fx="24.999998"
       cy="28.659998"
       cx="24.999998"
       gradientTransform="matrix(2.4096918,0,0,0.68254925,-4.44682,54.529824)"
       gradientUnits="userSpaceOnUse"
       id="radialGradient4100"
       xlink:href="#linearGradient6954-3"
       inkscape:collect="always" />
    <linearGradient
       y2="45"
       x2="30"
       y1="25.084745"
       x1="30"
       gradientTransform="matrix(1.8359556,0,0,1.8285818,9.896577,17.405649)"
       gradientUnits="userSpaceOnUse"
       id="linearGradient4102"
       xlink:href="#linearGradient3785-3"
       inkscape:collect="always" />
  </defs>
  <path
     d="m 125.87901,103.5126 c 0,11.7864 -27.471807,21.34118 -61.36001,21.34118 -33.888198,0 -61.3600168,-9.55478 -61.3600168,-21.34118 0,-11.786422 27.4718188,-21.341187 61.3600168,-21.341187 33.888203,0 61.36001,9.554765 61.36001,21.341187 l 0,0 z"
     id="path8836"
     style="opacity:0.5;fill:url(#radialGradient2415);fill-opacity:1;fill-rule:evenodd;stroke:none;stroke-width:1;marker:none;visibility:visible;display:inline;overflow:visible" />
  <path
     d="m 64.519014,11.483576 c -28.701626,0 -52.017803,23.314603 -52.017803,52.014306 0,28.699691 23.316177,52.014288 52.017803,52.014288 28.701614,0 52.017826,-23.314597 52.017796,-52.014288 0,-28.699703 -23.316182,-52.014306 -52.017796,-52.014306 z"
     id="path2555"
     style="fill:url(#radialGradient2410);fill-opacity:1;stroke:url(#linearGradient2412);stroke-width:0.99915248;stroke-linecap:round;stroke-linejoin:round;stroke-miterlimit:4;stroke-opacity:1;stroke-dasharray:none;stroke-dashoffset:0" />
  <path
     d="M 115.5,63.496 C 115.5,90.752953 93.199766,114.73741 64.519635,114.5 35.007083,114.25468 13.845569,90.750522 13.5,63.496 13.143881,35.409382 36.786661,12.381294 64.519635,12.5 91.775038,12.616662 115.5,34.45973 115.5,63.496 l 0,0 z"
     id="path8655"
     style="opacity:0.4;fill:none;stroke:url(#linearGradient2407);stroke-width:0.99915248;stroke-miterlimit:4;stroke-opacity:1;stroke-dasharray:none" />
  <path
     inkscape:connector-curvature="0"
     d="m 56.713445,54.891576 c 0.844934,3.98033 1.316549,6.991163 0.631111,10.971492 -5.343904,4.415798 -19.011153,6.400036 -18.990666,10.97149 l -2.179031,10.079904 c 0,4.544539 13.083846,11.862679 28.800386,11.862679 15.716543,0 28.800454,-7.31814 28.800454,-11.862679 L 91.596605,76.834558 c -0.02181,-3.912548 -13.769673,-6.400036 -19.048043,-10.97149 -0.45086,-3.694352 -0.09196,-7.27714 0.688482,-10.971492 z"
     id="path3766-9"
     style="fill:url(#radialGradient4100);fill-opacity:1;stroke:url(#linearGradient4102);stroke-width:0.68571806;stroke-miterlimit:4;stroke-opacity:1;stroke-dasharray:none"
     sodipodi:nodetypes="ccccsccccc" />
  <path
     inkscape:connector-curvature="0"
     d="m 57.53949,55.598681 c 0.730458,3.58178 1.16562,6.610632 0.514288,10.392914 -0.03159,0.169053 -0.122849,0.321139 -0.257145,0.428574 -2.862762,2.365569 -7.645919,3.919804 -11.700064,5.528602 -2.027073,0.8044 -3.867395,1.623121 -5.142886,2.4643 -1.275491,0.841179 -1.889243,1.63626 -1.885725,2.421442 0.0017,0.02855 0.0017,0.05717 0,0.08571 l -2.185943,9.994189 c 0,0.0063 -6.4e-5,0.01542 0,0.02137 0.0086,0.796226 1.013316,2.398625 2.281219,3.391654 3.149861,2.466972 4.350464,3.019837 7.314809,4.203115 4.958109,1.9791 10.695004,3.53933 18.497202,3.53933 7.802197,0 15.665932,-2.01543 19.928682,-4.182728 2.345866,-1.192714 4.854912,-2.566422 6.059718,-3.653231 1.593973,-1.437855 2.096256,-2.501914 2.104896,-3.29814 l 0,-0.02137 -2.186009,-9.994189 c -0.0014,-0.02855 -0.0014,-0.05717 0,-0.08571 -0.0014,-0.279124 -0.13488,-0.576609 -0.450002,-0.942862 -0.315122,-0.366254 -0.807378,-0.774497 -1.457152,-1.178579 -1.299552,-0.808164 -3.165816,-1.605234 -5.207172,-2.44287 C 79.685503,70.59493 74.891743,68.844183 72.068141,66.39874 71.937335,66.282493 71.853512,66.122459 71.832425,65.948738 71.404504,62.442362 71.740455,59.043203 72.411,55.598681 z"
     id="path3381"
     style="opacity:0.4;fill:none;stroke:url(#linearGradient3250);stroke-width:0.68571806;stroke-miterlimit:4;stroke-opacity:1;stroke-dasharray:none"
     sodipodi:nodetypes="cccssccccsssssccccssscccc" />
  <path
     inkscape:connector-curvature="0"
     d="m 64.788795,27.462862 c -7.574232,0 -13.714358,5.695628 -13.714358,12.721539 0.05936,2.600149 0.282646,5.689032 1.828582,12.721538 0.91429,2.726043 9.069325,9.995494 9.142903,10.904174 1.773124,0.908681 4.571457,0.908681 6.400035,0 0,-0.90868 7.314327,-8.178131 8.228617,-10.904174 1.739665,-7.308872 1.73527,-9.995495 1.828576,-12.721538 0,-7.025911 -6.140126,-12.721539 -13.714355,-12.721539 z"
     id="path3764-6"
     style="fill:url(#radialGradient3252);fill-opacity:1;stroke:url(#linearGradient3254);stroke-width:0.68571806;stroke-miterlimit:4;stroke-opacity:1;stroke-dasharray:none"
     sodipodi:nodetypes="sccccccs" />
  <path
     inkscape:connector-curvature="0"
     d="m 47.383039,95.327891 c -4.337168,-3.624607 -1.81751,-9.18854 -1.384463,-14.339911 -1.835957,3.657165 -1.758034,10.916271 -5.429946,10.916271 2.345846,1.446307 4.019955,2.356404 6.814409,3.42364 z"
     id="path3848-9"
     style="opacity:0.3;fill:url(#linearGradient3256);fill-opacity:1;stroke:none"
     sodipodi:nodetypes="cccc" />
  <path
     inkscape:connector-curvature="0"
     d="m 81.961686,95.498861 c 4.314579,-3.188574 1.837172,-9.283479 1.549437,-14.246402 1.835956,3.657163 1.835956,10.994202 5.507867,10.994202 -2.325373,1.23522 -4.519116,2.471297 -7.057304,3.2522 z"
     id="path3850"
     style="opacity:0.3;fill:url(#linearGradient3258);fill-opacity:1;stroke:none"
     sodipodi:nodetypes="cccc" />
  <path
     inkscape:connector-curvature="0"
     d="m 56.369203,66.777358 c 1.260023,3.190432 4.624607,5.485746 8.606042,5.485746 3.981436,0 7.346023,-2.295314 8.606042,-5.485746 z"
     id="path3833-3"
     style="opacity:0.1;fill:url(#radialGradient3260);fill-opacity:1;stroke:none"
     sodipodi:nodetypes="cscc" />
  <path
     inkscape:connector-curvature="0"
     d="m 64.632386,28.127101 c -7.158246,0 -12.841897,5.251535 -12.878643,11.700065 -1.44e-4,0.0071 -1.44e-4,0.01428 0,0.02143 -7.54e-4,-0.03288 -0.0014,0.0076 0,0.06429 0.06132,2.609805 0.30867,5.689547 1.864296,12.75007 0.0034,0.03636 0.01062,0.07226 0.02143,0.107143 0.09653,0.226739 0.246416,0.442349 0.51429,0.835719 0.267873,0.39337 0.632263,0.888288 1.071434,1.414294 0.891922,1.068277 1.984142,2.257459 3.10716,3.42859 1.120497,1.168509 2.260374,2.328412 3.10716,3.235732 0.416286,0.446045 0.755031,0.853818 1.050006,1.221436 -0.05671,-0.07062 -0.06542,-0.05257 0.04286,0.08571 0.0611,0.07799 0.142705,0.137365 0.235716,0.171429 1.300671,0.504334 3.2336,0.496549 4.607169,0 0.103563,-0.03621 0.193386,-0.103576 0.257144,-0.192858 0.273148,-0.391072 0.56063,-0.807028 0.921433,-1.242864 0.752075,-0.90848 1.732337,-1.998625 2.742873,-3.171447 1.009336,-1.171431 2.076149,-2.440034 2.892874,-3.514305 0.781868,-1.028422 1.25666,-1.7786 1.435721,-2.207154 0.0095,-0.02793 0.01666,-0.0566 0.02139,-0.08572 0.0069,-0.02776 -0.0021,-0.03673 0,-0.06429 1.767946,-7.390723 1.768261,-9.946145 1.864296,-12.771499 1.44e-4,-0.0071 1.44e-4,-0.01428 0,-0.02143 0,-0.01797 1.36e-4,-0.03992 0,-0.06428 C 77.474245,33.378635 71.790596,28.127103 64.63235,28.127103 z"
     id="path3369"
     style="opacity:0.7;fill:none;stroke:url(#linearGradient3262);stroke-width:0.690449;stroke-miterlimit:4;stroke-opacity:1;stroke-dasharray:none"
     sodipodi:nodetypes="ccccccsssscccccssscccccccc" />
</svg>
