<?xml version="1.0" encoding="UTF-8" standalone="no"?>
<!-- Created with Inkscape (http://www.inkscape.org/) -->

<svg
   xmlns:dc="http://purl.org/dc/elements/1.1/"
   xmlns:cc="http://creativecommons.org/ns#"
   xmlns:rdf="http://www.w3.org/1999/02/22-rdf-syntax-ns#"
   xmlns:svg="http://www.w3.org/2000/svg"
   xmlns="http://www.w3.org/2000/svg"
   xmlns:sodipodi="http://sodipodi.sourceforge.net/DTD/sodipodi-0.dtd"
   xmlns:inkscape="http://www.inkscape.org/namespaces/inkscape"
   width="24"
   height="24"
   id="svg3777"
   version="1.1"
   inkscape:version="0.48.4 r9939"
   sodipodi:docname="deadbeef.svg"
   inkscape:export-filename="/home/rider/Desktop/deadbeef_24x24.png"
   inkscape:export-xdpi="90"
   inkscape:export-ydpi="90">
  <defs
     id="defs3779" />
  <sodipodi:namedview
     id="base"
     pagecolor="#ffffff"
     bordercolor="#666666"
     borderopacity="1.0"
     inkscape:pageopacity="0.0"
     inkscape:pageshadow="2"
     inkscape:zoom="9.4213327"
     inkscape:cx="22.949306"
     inkscape:cy="9.7068966"
     inkscape:document-units="px"
     inkscape:current-layer="layer1"
     showgrid="false"
     inkscape:window-width="1264"
     inkscape:window-height="716"
     inkscape:window-x="100"
     inkscape:window-y="24"
     inkscape:window-maximized="0"
     inkscape:snap-page="false"
     inkscape:object-paths="false"
     inkscape:snap-global="true"
     inkscape:object-nodes="true"
     inkscape:snap-nodes="false" />
  <metadata
     id="metadata3782">
    <rdf:RDF>
      <cc:Work
         rdf:about="">
        <dc:format>image/svg+xml</dc:format>
        <dc:type
           rdf:resource="http://purl.org/dc/dcmitype/StillImage" />
        <dc:title />
      </cc:Work>
    </rdf:RDF>
  </metadata>
  <g
     inkscape:label="Layer 1"
     inkscape:groupmode="layer"
     id="layer1"
     transform="translate(0,-1028.3622)">
    <path
       style="fill:#3a3935;fill-opacity:1;stroke:none"
       d="m 6.4341327,1031.5302 12.9828873,8.6501 -13.0016839,9.0959 -0.00219,-6.5307 c 0,0 0.6311872,-0.4891 1.0602925,-0.8514 0.4291049,-0.3622 0.7424827,-0.7266 0.7424827,-0.7266 0,0 -0.1166873,0.6732 -0.4214461,1.0837 -0.3997803,0.5386 -0.6631027,0.7707 -0.6631027,0.7707 l 0.4670486,1.7775 6.6088989,-4.5091 c 0,0 -2.135319,-1.3028 -3.190614,-1.9764 -1.0261292,-0.655 -3.0538123,-2.0075 -3.0538123,-2.0075 l -1.5373465,2.5475 0.00388,-7.0693"
       id="path3775-0"
       inkscape:connector-curvature="0"
       sodipodi:nodetypes="ccccscscccaccc"
       inkscape:export-filename="/home/rider/Desktop/deadbeef_24x24.png"
       inkscape:export-xdpi="90"
       inkscape:export-ydpi="90" />
    <path
       style="opacity:0.6;fill:none;stroke:#eae3d0;stroke-width:0.76621372;stroke-linecap:butt;stroke-linejoin:miter;stroke-miterlimit:4;stroke-opacity:1;stroke-dasharray:none"
       d="m 6.0548241,1030.8166 14.0504439,9.3694 -14.0504439,9.8227 0,-7.4804 c 0,0 0.7756085,-0.5918 1.2379899,-0.9824 0.4623813,-0.3901 1.3274845,-1.3599 1.3274845,-1.3599 0,0 0.1065443,1.0471 -0.2983118,1.9268 -0.2058314,0.4474 -0.7756083,1.0201 -0.7756083,1.0201 l 0.2749474,1.0404 5.6721752,-3.8557 c -1.919893,-1.2029 -3.269477,-2.0166 -5.4172719,-3.4614 l -2.021405,3.3298 0,-9.3694"
       id="path3775"
       inkscape:connector-curvature="0"
       sodipodi:nodetypes="ccccscscccccc"
       inkscape:export-filename="/home/rider/Desktop/deadbeef_24x24.png"
       inkscape:export-xdpi="90"
       inkscape:export-ydpi="90" />
  </g>
</svg>
