<?xml version="1.0" encoding="UTF-8" standalone="no"?>
<!-- Created with Inkscape (http://www.inkscape.org/) -->

<svg
   xmlns:dc="http://purl.org/dc/elements/1.1/"
   xmlns:cc="http://creativecommons.org/ns#"
   xmlns:rdf="http://www.w3.org/1999/02/22-rdf-syntax-ns#"
   xmlns:svg="http://www.w3.org/2000/svg"
   xmlns="http://www.w3.org/2000/svg"
   xmlns:xlink="http://www.w3.org/1999/xlink"
   xmlns:sodipodi="http://sodipodi.sourceforge.net/DTD/sodipodi-0.dtd"
   xmlns:inkscape="http://www.inkscape.org/namespaces/inkscape"
   width="72"
   height="72"
   id="svg2"
   version="1.1"
   inkscape:version="0.48.4 r9939"
   sodipodi:docname="folder-templates.svg">
  <defs
     id="defs4">
    <linearGradient
       id="linearGradient4075">
      <stop
         style="stop-color:#000000;stop-opacity:0.6825397;"
         offset="0"
         id="stop4077" />
      <stop
         style="stop-color:#787878;stop-opacity:0;"
         offset="1"
         id="stop4079" />
    </linearGradient>
    <linearGradient
       id="linearGradient5163">
      <stop
         style="stop-color:#dbbc6e;stop-opacity:1;"
         offset="0"
         id="stop5165" />
      <stop
         id="stop5171"
         offset="0.76943779"
         style="stop-color:#e5d6b0;stop-opacity:1;" />
      <stop
         style="stop-color:#e6cd8a;stop-opacity:1;"
         offset="1"
         id="stop5167" />
    </linearGradient>
    <linearGradient
       id="linearGradient4393">
      <stop
         style="stop-color:#feeed2;stop-opacity:1;"
         offset="0"
         id="stop4395" />
      <stop
         style="stop-color:#feeed2;stop-opacity:0.11904762;"
         offset="1"
         id="stop4397" />
    </linearGradient>
    <linearGradient
       id="linearGradient3982">
      <stop
         style="stop-color:#fde6bc;stop-opacity:1;"
         offset="0"
         id="stop3984" />
      <stop
         id="stop3990"
         offset="0.51083106"
         style="stop-color:#f3d49a;stop-opacity:1;" />
      <stop
         style="stop-color:#bc9e6c;stop-opacity:1;"
         offset="1"
         id="stop3986" />
    </linearGradient>
    <linearGradient
       id="linearGradient3886">
      <stop
         style="stop-color:#f6ddaf;stop-opacity:1;"
         offset="0"
         id="stop3888" />
      <stop
         id="stop3972"
         offset="0.5"
         style="stop-color:#fcdda7;stop-opacity:1;" />
      <stop
         style="stop-color:#ba9e71;stop-opacity:1;"
         offset="1"
         id="stop3890" />
    </linearGradient>
    <linearGradient
       inkscape:collect="always"
       xlink:href="#linearGradient3982"
       id="linearGradient3988"
       x1="322.94888"
       y1="198.02513"
       x2="517.21027"
       y2="286.91855"
       gradientUnits="userSpaceOnUse"
       gradientTransform="matrix(0.15825494,0.04146669,0,0.15727806,-7.7659863,958.13445)" />
    <linearGradient
       inkscape:collect="always"
       xlink:href="#linearGradient3876-2"
       id="linearGradient4014"
       x1="401.60123"
       y1="247.30942"
       x2="429.67322"
       y2="229.09518"
       gradientUnits="userSpaceOnUse"
       gradientTransform="matrix(0.15825494,0.04146669,0,0.15727806,-7.7659863,958.13445)" />
    <linearGradient
       id="linearGradient3876-2">
      <stop
         style="stop-color:#d3b980;stop-opacity:1;"
         offset="0"
         id="stop3878-36" />
      <stop
         style="stop-color:#f5dead;stop-opacity:1;"
         offset="1"
         id="stop3880-6" />
    </linearGradient>
    <linearGradient
       inkscape:collect="always"
       xlink:href="#linearGradient4393"
       id="linearGradient4399"
       x1="323.00134"
       y1="217.01071"
       x2="351.78055"
       y2="222.06146"
       gradientUnits="userSpaceOnUse"
       gradientTransform="matrix(0.15825494,0.05740914,0,0.15727805,-7.765987,953.55677)" />
    <linearGradient
       inkscape:collect="always"
       xlink:href="#linearGradient3886"
       id="linearGradient5181"
       gradientUnits="userSpaceOnUse"
       gradientTransform="matrix(0.15825494,0.01594245,0,0.15727806,-7.1451769,970.65407)"
       x1="142.92784"
       y1="83.013016"
       x2="429.56165"
       y2="399.19077" />
    <filter
       inkscape:collect="always"
       id="filter3834"
       x="-0.34263548"
       width="1.685271"
       y="-0.063944638"
       height="1.1278893"
       color-interpolation-filters="sRGB">
      <feGaussianBlur
         inkscape:collect="always"
         stdDeviation="10.164553"
         id="feGaussianBlur3836" />
    </filter>
    <filter
       inkscape:collect="always"
       id="filter4071"
       x="-0.060892355"
       width="1.1217847"
       y="-0.32908928"
       height="1.6581786"
       color-interpolation-filters="sRGB">
      <feGaussianBlur
         inkscape:collect="always"
         stdDeviation="2.8724519"
         id="feGaussianBlur4073" />
    </filter>
    <linearGradient
       inkscape:collect="always"
       xlink:href="#linearGradient4075"
       id="linearGradient4081"
       x1="60.844788"
       y1="120.31346"
       x2="60.844788"
       y2="132.19897"
       gradientUnits="userSpaceOnUse" />
    <linearGradient
       id="linearGradient4393-5">
      <stop
         style="stop-color:#feeed2;stop-opacity:1;"
         offset="0"
         id="stop4395-3" />
      <stop
         style="stop-color:#feeed2;stop-opacity:0.11904762;"
         offset="1"
         id="stop4397-8" />
    </linearGradient>
    <linearGradient
       y2="222.06146"
       x2="351.78055"
       y1="217.01071"
       x1="323.00134"
       gradientTransform="matrix(0.49909482,0.05027831,0,0.15727805,-145.34153,955.7754)"
       gradientUnits="userSpaceOnUse"
       id="linearGradient3946"
       xlink:href="#linearGradient4393-5"
       inkscape:collect="always" />
    <linearGradient
       inkscape:collect="always"
       xlink:href="#linearGradient5163"
       id="linearGradient3838"
       x1="151.77025"
       y1="882.01813"
       x2="389.06802"
       y2="777.73242"
       gradientUnits="userSpaceOnUse"
       gradientTransform="matrix(0.14371147,0.01447735,0,0.14369494,1.6867839,897.51766)" />
    <linearGradient
       inkscape:collect="always"
       xlink:href="#linearGradient5048"
       id="linearGradient2643"
       gradientUnits="userSpaceOnUse"
       gradientTransform="matrix(0.04763599,0,0,0.01470022,2.0215274,37.040146)"
       x1="302.85715"
       y1="366.64789"
       x2="302.85715"
       y2="609.50507" />
    <linearGradient
       id="linearGradient5048">
      <stop
         id="stop5050"
         style="stop-color:#000000;stop-opacity:0"
         offset="0" />
      <stop
         id="stop5056"
         style="stop-color:#000000;stop-opacity:1"
         offset="0.5" />
      <stop
         id="stop5052"
         style="stop-color:#000000;stop-opacity:0"
         offset="1" />
    </linearGradient>
    <radialGradient
       inkscape:collect="always"
       xlink:href="#linearGradient5060"
       id="radialGradient29285"
       gradientUnits="userSpaceOnUse"
       gradientTransform="matrix(-0.02303994,0,0,0.01470022,21.62311,37.040176)"
       cx="605.71429"
       cy="486.64789"
       fx="605.71429"
       fy="486.64789"
       r="117.14286" />
    <linearGradient
       id="linearGradient5060">
      <stop
         id="stop5062"
         style="stop-color:#000000;stop-opacity:1"
         offset="0" />
      <stop
         id="stop5064"
         style="stop-color:#000000;stop-opacity:0"
         offset="1" />
    </linearGradient>
    <radialGradient
       inkscape:collect="always"
       xlink:href="#linearGradient3993"
       id="radialGradient29289"
       gradientUnits="userSpaceOnUse"
       gradientTransform="matrix(-2.2703142e-8,2.1357283,-3.5601359,-3.7844828e-8,54.620625,-24.438287)"
       cx="14.76559"
       cy="10.898237"
       fx="14.76559"
       fy="10.898237"
       r="18.000002" />
    <linearGradient
       id="linearGradient3993">
      <stop
         id="stop3995"
         style="stop-color:#a3c0d0;stop-opacity:1"
         offset="0" />
      <stop
         id="stop4001"
         style="stop-color:#427da1;stop-opacity:1"
         offset="1" />
    </linearGradient>
    <linearGradient
       inkscape:collect="always"
       xlink:href="#linearGradient2490"
       id="linearGradient29291"
       gradientUnits="userSpaceOnUse"
       gradientTransform="matrix(0.8074968,0,0,0.8948322,59.410232,-2.9805533)"
       x1="-51.786404"
       y1="53.623615"
       x2="-51.786404"
       y2="2.9062471" />
    <linearGradient
       id="linearGradient2490">
      <stop
         id="stop2492"
         style="stop-color:#1c5271;stop-opacity:1;"
         offset="0" />
      <stop
         id="stop2494"
         style="stop-color:#4b88ae;stop-opacity:1;"
         offset="1" />
    </linearGradient>
    <radialGradient
       inkscape:collect="always"
       xlink:href="#XMLID_8_"
       id="radialGradient29293"
       gradientUnits="userSpaceOnUse"
       gradientTransform="matrix(0.3617022,0,0,-0.3907784,0.8510637,47.517004)"
       cx="102"
       cy="112.3047"
       r="139.55859" />
    <radialGradient
       cx="102"
       cy="112.3047"
       r="139.55859"
       id="XMLID_8_"
       gradientUnits="userSpaceOnUse">
      <stop
         id="stop41"
         style="stop-color:#000000;stop-opacity:1"
         offset="0" />
      <stop
         id="stop47"
         style="stop-color:#000000;stop-opacity:1"
         offset="0.18851049" />
      <stop
         id="stop49"
         style="stop-color:#000000;stop-opacity:0"
         offset="0.25718147" />
      <stop
         id="stop51"
         style="stop-color:#000000;stop-opacity:0"
         offset="1" />
    </radialGradient>
    <radialGradient
       inkscape:collect="always"
       xlink:href="#linearGradient2867-449-88-871-390-598-476-591-434-148"
       id="radialGradient29295"
       gradientUnits="userSpaceOnUse"
       gradientTransform="matrix(0,1.9051236,-1.5063767,0,36.956302,-19.370137)"
       cx="21.97765"
       cy="8.6009703"
       fx="21.97765"
       fy="8.6009703"
       r="18.000002" />
    <linearGradient
       id="linearGradient2867-449-88-871-390-598-476-591-434-148">
      <stop
         offset="0"
         style="stop-color:#51cfee;stop-opacity:1"
         id="stop4627" />
      <stop
         offset="0.26238"
         style="stop-color:#49a3d2;stop-opacity:1"
         id="stop4629" />
      <stop
         offset="0.704952"
         style="stop-color:#3470b4;stop-opacity:1"
         id="stop4631" />
      <stop
         offset="1"
         style="stop-color:#1b5699;stop-opacity:1"
         id="stop4633" />
    </linearGradient>
    <linearGradient
       inkscape:collect="always"
       xlink:href="#linearGradient3211"
       id="linearGradient29297"
       gradientUnits="userSpaceOnUse"
       gradientTransform="matrix(1,0,0,0.9777778,0,-0.9666693)"
       x1="24"
       y1="1.9999999"
       x2="24"
       y2="46.01725" />
    <linearGradient
       id="linearGradient3211">
      <stop
         id="stop3213"
         style="stop-color:#ffffff;stop-opacity:1"
         offset="0" />
      <stop
         id="stop3215"
         style="stop-color:#ffffff;stop-opacity:0"
         offset="1" />
    </linearGradient>
    <radialGradient
       inkscape:collect="always"
       xlink:href="#linearGradient3827"
       id="radialGradient29301"
       gradientUnits="userSpaceOnUse"
       gradientTransform="matrix(1.1563548,1.7750479e-8,-2.3661307e-8,1.5414157,-2.9825323,-12.69901)"
       cx="21.171581"
       cy="25.536045"
       fx="21.171581"
       fy="25.536045"
       r="16" />
    <linearGradient
       id="linearGradient3827">
      <stop
         style="stop-color:#ffffff;stop-opacity:1;"
         offset="0"
         id="stop3829" />
      <stop
         id="stop3835"
         offset="0.82282937"
         style="stop-color:#ffffff;stop-opacity:1;" />
      <stop
         style="stop-color:#ffffff;stop-opacity:0;"
         offset="1"
         id="stop3831" />
    </linearGradient>
    <linearGradient
       inkscape:collect="always"
       xlink:href="#linearGradient7025"
       id="linearGradient29303"
       gradientUnits="userSpaceOnUse"
       gradientTransform="matrix(0.9230753,0,0,0.8999979,31.822098,20.422351)"
       x1="13.630114"
       y1="28.5"
       x2="25.208096"
       y2="41.180992" />
    <linearGradient
       id="linearGradient7025">
      <stop
         id="stop7027"
         style="stop-color:#e6ce46;stop-opacity:1"
         offset="0" />
      <stop
         id="stop7029"
         style="stop-color:#d6ba1c;stop-opacity:1"
         offset="1" />
    </linearGradient>
    <radialGradient
       inkscape:collect="always"
       xlink:href="#linearGradient6565"
       id="radialGradient29305"
       gradientUnits="userSpaceOnUse"
       gradientTransform="matrix(1.2852003,-1.5925494e-8,0,0.9559277,25.909094,23.990307)"
       cx="9.0261755"
       cy="15.064299"
       fx="9.0261755"
       fy="15.064299"
       r="18.258797" />
    <linearGradient
       id="linearGradient6565">
      <stop
         id="stop6567"
         style="stop-color:white;stop-opacity:1"
         offset="0" />
      <stop
         id="stop6569"
         style="stop-color:white;stop-opacity:0"
         offset="1" />
    </linearGradient>
  </defs>
  <sodipodi:namedview
     id="base"
     pagecolor="#ffffff"
     bordercolor="#27cc00"
     borderopacity="1"
     inkscape:pageopacity="0.0"
     inkscape:pageshadow="2"
     inkscape:zoom="11.2"
     inkscape:cx="22.959945"
     inkscape:cy="20.349689"
     inkscape:document-units="px"
     inkscape:current-layer="layer1"
     showgrid="false"
     borderlayer="false"
     inkscape:showpageshadow="false"
     showborder="true"
     inkscape:snap-from-guide="false"
     objecttolerance="1"
     gridtolerance="1"
     guidetolerance="5"
     inkscape:window-width="1440"
     inkscape:window-height="830"
     inkscape:window-x="0"
     inkscape:window-y="24"
     inkscape:window-maximized="1"
     showguides="true"
     inkscape:guide-bbox="true">
    <inkscape:grid
       type="xygrid"
       id="grid2985"
       empspacing="5"
       visible="true"
       enabled="true"
       snapvisiblegridlinesonly="true" />
  </sodipodi:namedview>
  <metadata
     id="metadata7">
    <rdf:RDF>
      <cc:Work
         rdf:about="">
        <dc:format>image/svg+xml</dc:format>
        <dc:type
           rdf:resource="http://purl.org/dc/dcmitype/StillImage" />
        <dc:title />
      </cc:Work>
    </rdf:RDF>
  </metadata>
  <g
     inkscape:label="Layer 1"
     inkscape:groupmode="layer"
     id="layer1"
     transform="translate(0,-980.36218)">
    <path
       sodipodi:type="arc"
       style="opacity:0.3;fill:url(#linearGradient4081);fill-opacity:1;stroke:none;filter:url(#filter4071)"
       id="path3081"
       sodipodi:cx="61.964287"
       sodipodi:cy="115.14286"
       sodipodi:rx="56.607143"
       sodipodi:ry="10"
       d="m 118.57143,115.14286 c 0,5.52285 -25.343881,10 -56.607143,10 -31.263262,0 -56.6071436,-4.47715 -56.6071436,-10 0,-5.52285 25.3438816,-10 56.6071436,-10 31.263262,0 56.607143,4.47715 56.607143,10 z"
       transform="matrix(0.47928156,-0.02556105,0,0.48434499,6.7412272,989.78187)" />
    <path
       style="fill:url(#linearGradient5181);fill-opacity:1;stroke:url(#linearGradient3838);stroke-width:0.51587933;stroke-linecap:butt;stroke-linejoin:round;stroke-miterlimit:4;stroke-opacity:1;stroke-dasharray:none;marker-start:none"
       d="m 61.243566,985.23795 -45.908291,-0.31014 0.170467,35.56049 -2.656424,1.1044 0.282602,23.5401 2.599901,0.262 1.186913,0.3739 45.116116,-3.4593 z"
       inkscape:connector-curvature="0"
       sodipodi:nodetypes="ccccccccc"
       id="path3106" />
    <path
       style="opacity:0.78636367;fill:url(#linearGradient3946);fill-opacity:1;stroke:none"
       d="m 15.822822,985.30943 26.849918,1.06651 c 0,0 -3.351273,13.82246 -6.342728,20.22266 -1.830112,3.9154 -4.007937,7.7962 -7.002912,10.9126 -3.718969,3.8697 -13.195149,9.2274 -13.195149,9.2274 z"
       id="path4391-1"
       inkscape:connector-curvature="0"
       sodipodi:nodetypes="ccaacc" />
    <path
       style="fill:#fdfbf7;fill-opacity:1;stroke:none"
       d="m 14.70129,1024.7301 c 0.185038,-0.9125 0.952681,-1.2317 1.679344,-1.4 0.679889,-0.1574 1.537962,-0.1914 1.541097,0.3489 0,1.0327 0.649515,18.0743 0.649515,18.0743 -0.0053,0.7624 -1.121694,1.5841 -1.912976,1.683 -1.144037,0.143 -1.564014,-0.1711 -1.564014,-0.941 z"
       id="path4403"
       inkscape:connector-curvature="0"
       sodipodi:nodetypes="csccscc" />
    <path
       style="fill:#6699cc;fill-opacity:1;stroke:none"
       d="m 15.98226,1034.2277 c 0.113161,-0.4026 0.747587,-0.5149 1.191999,-0.5775 0.415806,-0.059 0.940585,-0.059 0.942501,0.181 0,0.459 0.238378,8.1495 0.238378,8.1495 -0.0033,0.3387 -0.686003,0.6851 -1.169935,0.7158 -0.69967,0.044 -0.956517,-0.1025 -0.956517,-0.4446 z"
       id="path4403-6"
       inkscape:connector-curvature="0"
       sodipodi:nodetypes="csccscc" />
    <g
       transform="matrix(1.1955804,0,0,1.1955804,8.546635,992.66748)"
       id="g4227">
      <path
         inkscape:connector-curvature="0"
         style="fill:url(#radialGradient29289);fill-opacity:1;stroke:url(#linearGradient29291);stroke-width:0.99992186;stroke-linecap:butt;stroke-linejoin:round;stroke-miterlimit:4;stroke-opacity:1;stroke-dasharray:none;stroke-dashoffset:0;display:inline"
         id="path4160"
         d="m 6.4999609,0.49719878 c 8.0202951,0 26.1706691,0 26.1706691,0 l 1.49e-4,43.65132322 c 0,0 -14.504124,0 -26.1708181,0 0,-14.668535 0,-28.982789 0,-43.65132322 z"
         sodipodi:nodetypes="ccccc" />
      <path
         inkscape:connector-curvature="0"
         style="opacity:0.05;fill:url(#radialGradient29293);fill-opacity:1"
         id="path4191"
         d="m 7.3617017,44 c -0.199297,0 -0.361702,-0.175459 -0.361702,-0.39078 l 0,-42.2040499 c 0,-0.2157088 0.162405,-0.3907775 0.361702,-0.3907775 7.4830913,0.1080147 15.7756833,-0.16157503 23.2496823,0.026895 l -5e-6,8.8660255 1.385096,33.7019073 C 31.996475,43.824541 31.834432,44 31.634772,44 z"
         sodipodi:nodetypes="sssccccss" />
      <path
         inkscape:connector-curvature="0"
         style="opacity:0.4;fill:url(#radialGradient29295);fill-opacity:1;stroke:none;display:inline"
         id="path4160-1"
         d="m 7,1 c 7.791126,0 25.170455,0 25.170455,0 0,0 -0.0072,28.432022 2.82e-4,42.645719 -11.333334,0 -13.837403,0 -25.170737,0 C 7,29.312385 7,15.333333 7,1 z"
         sodipodi:nodetypes="ccccc" />
      <path
         inkscape:connector-curvature="0"
         style="opacity:0.4;fill:none;stroke:url(#linearGradient29297);stroke-width:1;stroke-linecap:butt;stroke-linejoin:miter;stroke-miterlimit:4;stroke-opacity:1;stroke-dasharray:none;stroke-dashoffset:0;display:inline"
         id="path2435"
         d="m 31.74472,2.0255434 c 0,10.9490366 -0.169069,30.5476776 -0.169069,41.4967146 -11.000026,0 -13.075664,0 -24.0756901,0 0,-14.014841 0,-28.029681 0,-42.0445213 7.5619931,0 24.6629661,0 24.6629661,0"
         sodipodi:nodetypes="ccccc" />
      <rect
         style="opacity:0.3;fill:url(#linearGradient2643);fill-opacity:1;fill-rule:nonzero;stroke:none;stroke-width:1;marker:none;visibility:visible;display:inline;overflow:visible"
         id="rect2879"
         y="42.429947"
         x="7.7378473"
         height="3.5700529"
         width="23.001381" />
      <path
         inkscape:connector-curvature="0"
         id="path3318"
         style="opacity:0.2;fill:none;stroke:url(#radialGradient29301);stroke-width:0.96299994;stroke-linecap:square;stroke-linejoin:round;stroke-miterlimit:4;stroke-opacity:1;stroke-dasharray:none"
         d="m 30.87817,6.5184992 -22.39667,-0.037 m 3.037,-3.9999994 -0.037,40.6827172 M 16.5185,2.4814998 16.4815,43.164217 M 21.5185,2.4814998 21.4815,43.164217 M 26.5185,2.4814998 26.4815,43.164217 M 31.143375,11.5185 8.4815006,11.4815 m 22.1572354,5.037 -22.1572354,-0.037 m 22.2191024,5.037 -22.2191024,-0.037 m 22.3324874,5.037 -22.3324874,-0.037 m 22.2077374,5.037 -22.2077374,-0.037 m 22.2077374,5.037 -22.2077374,-0.037 m 22.2077374,5.037 -22.2077374,-0.037"
         sodipodi:nodetypes="cccccccccccccccccccccccc" />
      <path
         inkscape:connector-curvature="0"
         id="path3554"
         style="opacity:0.5;fill:none;stroke:#ffffff;stroke-width:0.96299994;stroke-linecap:square;stroke-linejoin:round;stroke-miterlimit:4;stroke-opacity:1;stroke-dasharray:none"
         d="m 23.5185,6.5185013 -13.037,-0.037 m 1.037,-1.9999994 -0.037,19.0369991"
         sodipodi:nodetypes="cccc" />
      <path
         inkscape:connector-curvature="0"
         style="font-size:18.4205246px;font-style:normal;font-weight:normal;opacity:0.6;fill:#ffffff;fill-opacity:1;stroke:none;font-family:Bitstream Vera Sans"
         id="text34519"
         d="m 15.418139,14.488215 c -0.984178,0.655811 -0.867847,2.37835 0.205592,2.888211 2.446567,0.889629 4.03338,-0.373088 4.611805,-2.716069 0.01594,-0.345284 0.145762,-0.852771 -0.366912,-0.694374 -1.53566,-0.0742 -2.998979,0.03158 -4.450485,0.522232 z m 6.581859,-1.16849 c 10e-7,1.811225 10e-7,3.622449 10e-7,5.433674 -0.583509,0 -1.167019,0 -1.750528,0 -0.03443,-0.401185 0.06962,-1.254643 -0.05338,-1.366595 -0.685348,0.999506 -1.880735,1.541418 -3.071008,1.593509 -3.191549,0.153979 -4.589253,-1.776793 -3.656989,-4.706193 1.789679,-1.856738 4.352084,-1.533176 6.735433,-1.533988 -0.102484,-3.0989613 -4.019309,-2.394731 -6.105457,-1.780758 -0.553096,0.370674 -0.235482,-0.534077 -0.317946,-0.852318 -0.191423,-0.6987361 0.743586,-0.5876142 1.18473,-0.7923279 1.606758,-0.3878425 3.363654,-0.5006931 4.927038,0.1208233 1.637293,0.8020096 1.980037,2.2409526 2.108106,3.8841736 z"
         sodipodi:nodetypes="ccccccccccccccccc" />
      <path
         inkscape:connector-curvature="0"
         id="path3406"
         style="opacity:0.6;fill:#ffffff;fill-opacity:1;stroke:none;display:inline"
         d="m 13.000001,22.000001 2.345838,0 0,1 -2.345838,0 z m 2.665379,0 2.213403,0 0,1 -2.213403,0 z m 2.532944,0 1.948514,0 0,1 -1.948514,0 z m 2.268056,0 0.855871,0 0,1 -0.855871,0 z m 1.175422,0 1.915398,0 0,1 -1.915398,0 z m 2.234949,0 4.961553,0 0,1 -4.961553,0 z m 5.281094,0 2.798744,0 0,1 -2.798744,0 z m -16.157844,6 3.691817,0 0,1 -3.691817,0 z m 3.965761,0 1.776154,0 0,1 -1.776154,0 z m 2.15092,0 0.835125,0 0,1 -0.835125,0 z m 1.041852,0 1.608114,0 0,1 -1.608114,0 z m 1.882048,0 1.608115,0 0,1 -1.608115,0 z m 2.117317,0 2.582748,0 0,1 -2.582748,0 z m 2.890296,0 3.389342,0 0,1 -3.389342,0 z m 3.864929,0 1.085406,0 0,1 -1.085406,0 z m -17.913123,-4 3.928045,0 0,1 -3.928045,0 z m 4.235965,0 4.208949,0 0,1 -4.208949,0 z m 4.516869,0 1.680758,0 0,1 -1.680758,0 z m 1.988678,0 3.959254,0 0,1 -3.959254,0 z m 7.285852,0 0.981825,0 0,1 -0.981825,0 z m -3.018678,0 2.710758,0 0,1 -2.710758,0 z m -15.008686,2 4.28514,0 0,1 -4.28514,0 z m 4.621053,0 4.59158,0 0,1 -4.59158,0 z m 4.927493,0 1.833555,0 0,1 -1.833555,0 z m 2.169468,0 4.319185,0 0,1 -4.319185,0 z m 4.655098,0 2.285072,0 0,1 -2.285072,0 z M 13.000001,34 l 3.691817,0 0,1 -3.691817,0 z m 3.965761,0 1.776154,0 0,1 -1.776154,0 z m 2.15092,0 0.835125,0 0,1 -0.835125,0 z m 1.041852,0 1.608114,0 0,1 -1.608114,0 z m 1.882048,0 1.608115,0 0,1 -1.608115,0 z m 2.117317,0 2.582748,0 0,1 -2.582748,0 z m 2.890296,0 3.389342,0 0,1 -3.389342,0 z m 3.864929,0 1.085406,0 0,1 -1.085406,0 z m -17.913123,-2 3.061572,0 0,1 -3.061572,0 z m 3.38681,0 5.083544,0 0,1 -5.083544,0 z m 5.408782,0 2.454976,0 0,1 -2.454976,0 z m 5.39193,0 1.949485,0 0,1 -1.949485,0 z m 2.274723,0 1.934096,0 0,1 -1.934096,0 z m -4.886439,0 2.286488,0 0,1 -2.286488,0 z m -11.575806,3.99828 3.868703,0 0,1 -3.868703,0 z m 4.188155,0 1.218185,0 0,1 -1.218185,0 z m 1.537637,0 2.781317,0 0,1 -2.781317,0 z m 3.100769,0 1.89781,0 0,1 -1.89781,0 z m 2.217262,0 1.8978,0 0,1 -1.8978,0 z m 2.217263,0 2.747329,0 0,1 -2.747329,0 z m 3.066771,0 0.572556,0 0,1 -0.572556,0 z m 0.892008,0 1.695878,0 0,1 -1.695878,0 z m -17.219865,2 3.796419,0 0,1 -3.796419,0 z m 6.256706,0 2.438723,0 0,1 -2.438723,0 z m 2.788936,0 2.235065,0 0,1 -2.235065,0 z m 5.990819,0 1.963539,0 0,1 -1.963539,0 z m -1.125747,0 0.775544,0 0,1 -0.775544,0 z m -2.279794,0 1.929581,0 0,1 -1.929581,0 z m -7.484298,0 1.759881,0 0,1 -1.759881,0 z"
         sodipodi:nodetypes="ccccccccccccccccccccccccccccccccccccccccccccccccccccccccccccccccccccccccccccccccccccccccccccccccccccccccccccccccccccccccccccccccccccccccccccccccccccccccccccccccccccccccccccccccccccccccccccccccccccccccccccccccccccccccccccccccccccccccccccccccccccccccccccccccccccccccccccccccccc" />
      <path
         inkscape:connector-curvature="0"
         id="path3342"
         style="opacity:0.5;fill:none;stroke:#ffffff;stroke-width:0.96299988;stroke-linecap:square;stroke-linejoin:round;stroke-miterlimit:4;stroke-opacity:1;stroke-dasharray:none"
         d="m 20.4815,41.481504 10.995925,0.037 M 24.5,10.5 l 2.000693,0 M 28,10.5 l 1.9997,0 m -5.4997,2 2.000693,0 M 28,12.5 l 1.9997,0 m -5.4997,2 3,0 m 1.5,0 1.5,0 m -6,2 2.000693,0 M 28,16.5 l 1.9997,0 m -5.4997,2 3,0 m 1.5,0 1.5,0"
         sodipodi:nodetypes="cccccccccccccccccccccc" />
      <path
         inkscape:connector-curvature="0"
         style="opacity:0.3;fill:url(#radialGradient29285);fill-opacity:1;fill-rule:nonzero;stroke:none;stroke-width:1;marker:none;visibility:visible;display:inline;overflow:visible"
         id="path2881"
         d="m 7.7378475,42.430102 c 0,0 0,3.569856 0,3.569856 -1.1865002,0.0067 -2.8683795,-0.799823 -2.8683795,-1.785158 0,-0.985333 1.3240446,-1.784697 2.8683795,-1.784698 z" />
      <g
         id="g4091"
         transform="translate(-30.356041,-15.079352)">
        <path
           style="fill:url(#linearGradient29303);fill-opacity:1;fill-rule:evenodd;stroke:#a38503;stroke-width:1.00006592;stroke-linecap:butt;stroke-linejoin:round;stroke-miterlimit:4;stroke-opacity:1;stroke-dasharray:none"
           id="path4319"
           d="m 35.975937,32.572322 0,26.999934 23.917784,0 -0.05185,-9.100491 z m 4.999967,10.999967 15,11 -15,0 z"
           inkscape:connector-curvature="0"
           sodipodi:nodetypes="ccccccccc" />
        <path
           style="opacity:0.5;fill:none;stroke:url(#radialGradient29305);stroke-width:1.00037134;stroke-linecap:butt;stroke-linejoin:round;stroke-miterlimit:4;stroke-opacity:1;stroke-dasharray:none;display:inline"
           id="path14994"
           d="m 36.976089,34.572474 0,23.999629 c 3.422501,0 33.731193,0 19.917479,0 l 2.720073,-7.02153 z m 4.999815,8.499815 14.5,10.5 c 0.546005,0.395383 0.374065,2 -0.300063,2 l -14.612195,0 c -0.722209,0 -1.587742,-0.752017 -1.587742,-1.474226 l 0,-9.707535 c 0,-0.333792 -0.16826,-1.920531 0.260444,-2.215201 0.433725,-0.298121 1.466037,0.698897 1.739556,0.896962 z"
           inkscape:connector-curvature="0"
           sodipodi:nodetypes="cccccssssssss" />
        <path
           style="fill:none;stroke:#a38503;stroke-width:0.99969125;stroke-linecap:round;stroke-linejoin:round;stroke-miterlimit:4;stroke-opacity:1;stroke-dasharray:none"
           id="path4330"
           d="m 50.97575,59.572443 0,-1.976496"
           inkscape:connector-curvature="0" />
        <path
           style="fill:none;stroke:#a38503;stroke-width:0.99969125;stroke-linecap:round;stroke-linejoin:round;stroke-miterlimit:4;stroke-opacity:1;stroke-dasharray:none"
           id="path4332"
           d="m 55.97575,59.572443 0,-2.000308"
           inkscape:connector-curvature="0" />
        <path
           style="fill:none;stroke:#a38503;stroke-width:0.99969125;stroke-linecap:round;stroke-linejoin:round;stroke-miterlimit:4;stroke-opacity:1;stroke-dasharray:none"
           id="path4328"
           d="m 45.97575,59.572443 0,-2.000308"
           inkscape:connector-curvature="0" />
        <path
           style="fill:none;stroke:#a38503;stroke-width:0.99969125;stroke-linecap:round;stroke-linejoin:round;stroke-miterlimit:4;stroke-opacity:1;stroke-dasharray:none"
           id="path4326"
           d="m 40.97575,59.572443 0,-2.000308"
           inkscape:connector-curvature="0" />
      </g>
    </g>
    <path
       style="opacity:0.15;fill:#000000;fill-opacity:1;stroke:none;filter:url(#filter3834)"
       d="m 334.55608,1012.7431 -44.16221,-31.60163 0,-69.16478 -21.1979,-24.24366 3.07243,-210.64653 68.12547,-29.22982 z"
       id="path4069"
       inkscape:connector-curvature="0"
       sodipodi:nodetypes="ccccccc"
       transform="matrix(0.15825494,0.04146669,0,0.16062164,-8.4773496,869.10572)" />
    <path
       style="fill:url(#linearGradient3988);fill-opacity:1;stroke:url(#linearGradient4014);stroke-width:0.51587933;stroke-linecap:butt;stroke-linejoin:miter;stroke-miterlimit:4;stroke-opacity:1;stroke-dasharray:none"
       d="m 61.077523,985.1074 -22.199405,-0.25457 0,35.20207 3.165101,3.5255 -0.314061,21.7437 0.938999,1.4647 2.223037,0.5825 17.024928,-5.1779 z"
       id="path3884"
       inkscape:connector-curvature="0"
       sodipodi:nodetypes="ccccccccc" />
    <path
       style="opacity:0.78636367;fill:url(#linearGradient4399);fill-opacity:1;stroke:none"
       d="m 39.335453,985.25813 21.163086,0.73154 1.097691,55.95133 -16.660355,4.8639 -2.080279,-0.6185 -0.581578,-0.9945 0.111322,-20.6868 -3.328094,-3.9623 z"
       id="path4391"
       inkscape:connector-curvature="0"
       sodipodi:nodetypes="ccccccccc" />
  </g>
</svg>
