<?xml version="1.0" encoding="UTF-8" standalone="no"?>
<!-- Created with Inkscape (http://www.inkscape.org/) -->

<svg
   xmlns:dc="http://purl.org/dc/elements/1.1/"
   xmlns:cc="http://creativecommons.org/ns#"
   xmlns:rdf="http://www.w3.org/1999/02/22-rdf-syntax-ns#"
   xmlns:svg="http://www.w3.org/2000/svg"
   xmlns="http://www.w3.org/2000/svg"
   xmlns:xlink="http://www.w3.org/1999/xlink"
   xmlns:sodipodi="http://sodipodi.sourceforge.net/DTD/sodipodi-0.dtd"
   xmlns:inkscape="http://www.inkscape.org/namespaces/inkscape"
   version="1.0"
   width="48"
   height="48"
   id="svg40231"
   sodipodi:version="0.32"
   inkscape:version="0.48.4 r9939"
   sodipodi:docname="text-x-source.svg"
   inkscape:output_extension="org.inkscape.output.svg.inkscape">
  <metadata
     id="metadata139">
    <rdf:RDF>
      <cc:Work
         rdf:about="">
        <dc:format>image/svg+xml</dc:format>
        <dc:type
           rdf:resource="http://purl.org/dc/dcmitype/StillImage" />
      </cc:Work>
    </rdf:RDF>
  </metadata>
  <sodipodi:namedview
     inkscape:window-height="793"
     inkscape:window-width="1438"
     inkscape:pageshadow="2"
     inkscape:pageopacity="0.0"
     guidetolerance="10.0"
     gridtolerance="10.0"
     objecttolerance="10.0"
     borderopacity="1.0"
     bordercolor="#666666"
     pagecolor="#ffffff"
     id="base"
     showgrid="false"
     inkscape:zoom="5.1875"
     inkscape:cx="78.978814"
     inkscape:cy="50.765465"
     inkscape:window-x="0"
     inkscape:window-y="24"
     inkscape:current-layer="svg40231"
     inkscape:window-maximized="0" />
  <defs
     id="defs40233">
    <linearGradient
       inkscape:collect="always"
       id="linearGradient4906">
      <stop
         style="stop-color:#b9b9b9;stop-opacity:1;"
         offset="0"
         id="stop4908" />
      <stop
         style="stop-color:#b9b9b9;stop-opacity:0;"
         offset="1"
         id="stop4910" />
    </linearGradient>
    <linearGradient
       id="linearGradient5048">
      <stop
         id="stop5050"
         style="stop-color:#000000;stop-opacity:0"
         offset="0" />
      <stop
         id="stop5056"
         style="stop-color:#000000;stop-opacity:1"
         offset="0.5" />
      <stop
         id="stop5052"
         style="stop-color:#000000;stop-opacity:0"
         offset="1" />
    </linearGradient>
    <linearGradient
       id="linearGradient5060">
      <stop
         id="stop5062"
         style="stop-color:#000000;stop-opacity:1"
         offset="0" />
      <stop
         id="stop5064"
         style="stop-color:#000000;stop-opacity:0"
         offset="1" />
    </linearGradient>
    <linearGradient
       id="linearGradient3600">
      <stop
         id="stop3602"
         style="stop-color:#f4f4f4;stop-opacity:1"
         offset="0" />
      <stop
         id="stop3604"
         style="stop-color:#dbdbdb;stop-opacity:1"
         offset="1" />
    </linearGradient>
    <radialGradient
       cx="102"
       cy="112.3047"
       r="139.55859"
       id="XMLID_8_"
       gradientUnits="userSpaceOnUse">
      <stop
         id="stop41"
         style="stop-color:#b7b8b9;stop-opacity:1"
         offset="0" />
      <stop
         id="stop47"
         style="stop-color:#ececec;stop-opacity:1"
         offset="0.18851049" />
      <stop
         id="stop49"
         style="stop-color:#fafafa;stop-opacity:0"
         offset="0.25718147" />
      <stop
         id="stop51"
         style="stop-color:#ffffff;stop-opacity:0"
         offset="0.30111277" />
      <stop
         id="stop53"
         style="stop-color:#fafafa;stop-opacity:0"
         offset="0.53130001" />
      <stop
         id="stop55"
         style="stop-color:#ebecec;stop-opacity:0"
         offset="0.84490001" />
      <stop
         id="stop57"
         style="stop-color:#e1e2e3;stop-opacity:0"
         offset="1" />
    </radialGradient>
    <linearGradient
       id="linearGradient3211">
      <stop
         id="stop3213"
         style="stop-color:#ffffff;stop-opacity:1"
         offset="0" />
      <stop
         id="stop3215"
         style="stop-color:#ffffff;stop-opacity:0"
         offset="1" />
    </linearGradient>
    <filter
       height="1.3286875"
       y="-0.16434373"
       width="1.2969251"
       x="-0.14846256"
       id="filter3212">
      <feGaussianBlur
         id="feGaussianBlur3214"
         stdDeviation="0.77391625"
         inkscape:collect="always" />
    </filter>
    <linearGradient
       id="linearGradient8589">
      <stop
         id="stop8591"
         style="stop-color:#fefefe;stop-opacity:1"
         offset="0" />
      <stop
         id="stop8593"
         style="stop-color:#cbcbcb;stop-opacity:1"
         offset="1" />
    </linearGradient>
    <linearGradient
       id="linearGradient5031">
      <stop
         id="stop5033"
         style="stop-color:#a3a3a3;stop-opacity:1"
         offset="0" />
      <stop
         id="stop5035"
         style="stop-color:#bababa;stop-opacity:1"
         offset="1" />
    </linearGradient>
    <linearGradient
       inkscape:collect="always"
       xlink:href="#linearGradient5031"
       id="linearGradient2580"
       gradientUnits="userSpaceOnUse"
       gradientTransform="matrix(0.6655579,0,0,1.4407893,4.5202523,-11.848874)"
       x1="22.104254"
       y1="40.124432"
       x2="22.104254"
       y2="10.035408" />
    <linearGradient
       inkscape:collect="always"
       xlink:href="#linearGradient8589"
       id="linearGradient2610"
       gradientUnits="userSpaceOnUse"
       gradientTransform="matrix(0.9976985,0,0,1.0406866,0.1638029,-1.1057939)"
       x1="32.892288"
       y1="8.0590115"
       x2="36.358372"
       y2="5.4565363" />
    <linearGradient
       inkscape:collect="always"
       xlink:href="#linearGradient3211"
       id="linearGradient2614"
       gradientUnits="userSpaceOnUse"
       gradientTransform="matrix(1,0,0,0.9777778,0,-0.9666693)"
       x1="24"
       y1="1.9999999"
       x2="24"
       y2="46.01725" />
    <radialGradient
       inkscape:collect="always"
       xlink:href="#XMLID_8_"
       id="radialGradient2617"
       gradientUnits="userSpaceOnUse"
       gradientTransform="matrix(0.3617022,0,0,-0.3907784,0.8510637,47.517004)"
       cx="102"
       cy="112.3047"
       r="139.55859" />
    <linearGradient
       inkscape:collect="always"
       xlink:href="#linearGradient3600"
       id="linearGradient2620"
       gradientUnits="userSpaceOnUse"
       gradientTransform="matrix(1,0,0,0.9561695,-1.0064697e-7,-1.914922)"
       x1="25.132275"
       y1="0.98520643"
       x2="25.132275"
       y2="47.013336" />
    <radialGradient
       inkscape:collect="always"
       xlink:href="#linearGradient5060"
       id="radialGradient2625"
       gradientUnits="userSpaceOnUse"
       gradientTransform="matrix(2.3039948e-2,0,0,1.4700216e-2,26.360882,37.040176)"
       cx="605.71429"
       cy="486.64789"
       fx="605.71429"
       fy="486.64789"
       r="117.14286" />
    <radialGradient
       inkscape:collect="always"
       xlink:href="#linearGradient5060"
       id="radialGradient2628"
       gradientUnits="userSpaceOnUse"
       gradientTransform="matrix(-2.3039943e-2,0,0,1.4700216e-2,21.62311,37.040176)"
       cx="605.71429"
       cy="486.64789"
       fx="605.71429"
       fy="486.64789"
       r="117.14286" />
    <linearGradient
       inkscape:collect="always"
       xlink:href="#linearGradient5048"
       id="linearGradient2631"
       gradientUnits="userSpaceOnUse"
       gradientTransform="matrix(6.7324884e-2,0,0,1.4700216e-2,-0.3411391,37.040146)"
       x1="302.85715"
       y1="366.64789"
       x2="302.85715"
       y2="609.50507" />
    <linearGradient
       id="linearGradient3104-8">
      <stop
         id="stop3106-0"
         style="stop-color:#aaaaaa;stop-opacity:1"
         offset="0" />
      <stop
         id="stop3108-4"
         style="stop-color:#c8c8c8;stop-opacity:1"
         offset="1" />
    </linearGradient>
    <linearGradient
       y2="2.9062471"
       x2="-51.786404"
       y1="50.786446"
       x1="-51.786404"
       gradientTransform="matrix(0.8074968,0,0,0.8948322,59.410232,-2.9803172)"
       gradientUnits="userSpaceOnUse"
       id="linearGradient4877"
       xlink:href="#linearGradient3104-8"
       inkscape:collect="always" />
    <linearGradient
       inkscape:collect="always"
       xlink:href="#linearGradient4906"
       id="linearGradient4912"
       x1="28.687773"
       y1="27.51449"
       x2="9.8930731"
       y2="35.80365"
       gradientUnits="userSpaceOnUse" />
  </defs>
  <rect
     style="opacity:0.3;fill:url(#linearGradient2631);fill-opacity:1;fill-rule:nonzero;stroke:none;stroke-width:1;stroke-linecap:round;stroke-linejoin:miter;marker:none;marker-start:none;marker-mid:none;marker-end:none;stroke-miterlimit:4;stroke-dasharray:none;stroke-dashoffset:0;stroke-opacity:1;visibility:visible;display:inline;overflow:visible"
     id="rect2879"
     y="42.429947"
     x="7.7378473"
     height="3.5700529"
     width="32.508301" />
  <path
     style="opacity:0.3;fill:url(#radialGradient2628);fill-opacity:1;fill-rule:nonzero;stroke:none;stroke-width:1;stroke-linecap:round;stroke-linejoin:miter;marker:none;marker-start:none;marker-mid:none;marker-end:none;stroke-miterlimit:4;stroke-dasharray:none;stroke-dashoffset:0;stroke-opacity:1;visibility:visible;display:inline;overflow:visible"
     id="path2881"
     d="M 7.7378475,42.430102 C 7.7378475,42.430102 7.7378475,45.999958 7.7378475,45.999958 C 6.5513473,46.006679 4.869468,45.200135 4.869468,44.2148 C 4.869468,43.229467 6.1935126,42.430103 7.7378475,42.430102 z" />
  <path
     style="opacity:0.3;fill:url(#radialGradient2625);fill-opacity:1;fill-rule:nonzero;stroke:none;stroke-width:1;stroke-linecap:round;stroke-linejoin:miter;marker:none;marker-start:none;marker-mid:none;marker-end:none;stroke-miterlimit:4;stroke-dasharray:none;stroke-dashoffset:0;stroke-opacity:1;visibility:visible;display:inline;overflow:visible"
     id="path2883"
     d="M 40.246148,42.430102 C 40.246148,42.430102 40.246148,45.999958 40.246148,45.999958 C 41.432648,46.006679 43.114528,45.200135 43.114528,44.2148 C 43.114528,43.229467 41.790483,42.430103 40.246148,42.430102 z" />
  <path
     style="fill:url(#linearGradient2620);fill-opacity:1;stroke:none;stroke-width:0.99992186000000005;stroke-linecap:butt;stroke-linejoin:round;stroke-miterlimit:4;stroke-dasharray:none;stroke-dashoffset:0;stroke-opacity:1;display:inline"
     id="path4160"
     d="M 6.4999609,0.49719878 C 14.520256,0.49719878 22.540551,0.49719878 30.560847,0.49719878 C 31.96778,0.97185188 39.526301,6.3794034 41.500042,10.123605 C 41.500042,21.583338 41.500042,33.04307 41.500042,44.502803 C 29.833348,44.502803 18.166655,44.502803 6.4999609,44.502803 C 6.4999609,29.834268 6.4999609,15.165733 6.4999609,0.49719878 z" />
  <path
     style="fill:url(#radialGradient2617);fill-opacity:1"
     id="path4191"
     d="M 7.3617017,44 C 7.1624047,44 6.9999997,43.824541 6.9999997,43.60922 L 6.9999997,1.4051701 C 6.9999997,1.1894613 7.1624047,1.0143926 7.3617017,1.0143926 C 14.844793,1.1224073 23.137385,0.85281757 30.611384,1.0412872 L 40.894021,9.9073127 L 41,43.60922 C 41,43.824541 40.837957,44 40.638297,44 L 7.3617017,44 z" />
  <path
     style="opacity:0.6;fill:none;fill-opacity:1;stroke:url(#linearGradient2614);stroke-width:0.9999218;stroke-linecap:butt;stroke-linejoin:round;stroke-miterlimit:4;stroke-dasharray:none;stroke-dashoffset:0;stroke-opacity:1;display:inline"
     id="path2435"
     d="M 40.500039,10.258811 C 40.500039,21.207848 40.500039,32.573221 40.500039,43.522258 C 29.500013,43.522258 18.499987,43.522258 7.4999609,43.522258 C 7.4999609,29.507417 7.4999609,15.492577 7.4999609,1.4777367 C 15.061954,1.4777367 22.804295,1.4777367 30.366289,1.4777367" />
  <path
     style="opacity:0.4;fill:#000000;fill-opacity:1;fill-rule:evenodd;stroke:none;stroke-width:1px;stroke-linecap:butt;stroke-linejoin:miter;stroke-opacity:1;display:inline;filter:url(#filter3212)"
     id="path12038"
     d="M 28.617256,0.92125832 C 32.899778,0.92125832 30.770506,9.4044296 30.770506,9.4044296 C 30.770506,9.4044296 41.128148,7.6020829 41.128148,12.223174 C 41.128148,9.6134507 29.825844,1.4945784 28.617256,0.92125832 z" />
  <path
     style="fill:url(#linearGradient2610);fill-opacity:1;fill-rule:evenodd;stroke:none;stroke-width:1px;stroke-linecap:butt;stroke-linejoin:miter;stroke-opacity:1;display:inline"
     id="path4474"
     d="M 28.617256,0.92125832 C 31.803749,0.92125832 30.953016,8.5831368 30.953016,8.5831368 C 30.953016,8.5831368 41.128148,7.6020829 41.128148,12.223174 C 41.128148,11.097235 41.214061,10.290929 40.994371,9.9395812 C 39.416058,7.4154025 32.598855,1.7511811 30.137071,1.008793 C 29.952849,0.95323837 29.544367,0.92125832 28.617256,0.92125832 z" />
  <path
     style="fill:#b78ed4;fill-opacity:1;stroke:none;stroke-width:0.45541501;stroke-linecap:square;stroke-linejoin:miter;stroke-miterlimit:4;stroke-dashoffset:0;stroke-opacity:1;display:inline"
     d="M 11 15 L 11 16 L 14.0625 16 L 14.0625 15 L 11 15 z M 11 17 L 11 18 L 14.09375 18 L 14.09375 17 L 11 17 z "
     id="path4063" />
  <path
     inkscape:connector-curvature="0"
     d="m 30.078165,19.071965 c -0.569063,-0.152479 -1.15633,0.196123 -1.311416,0.774913 l -0.546258,2.038661 c -1.090169,-0.0016 -2.172144,0.147452 -3.200343,0.426457 l -1.061607,-1.838755 c -0.149803,-0.259465 -0.365898,-0.433529 -0.630109,-0.50673 -0.26422,-0.07316 -0.559336,-0.05016 -0.814442,0.09714 l -3.597567,2.077057 c -0.510207,0.294567 -0.667161,0.936883 -0.367565,1.455811 l 1.061608,1.838756 c -0.755727,0.750943 -1.425742,1.613466 -1.969495,2.55835 l -2.038663,-0.546254 c -0.578789,-0.155086 -1.174319,0.1792 -1.326799,0.748264 l -1.069989,3.993253 c -0.152479,0.569064 0.196122,1.156328 0.774911,1.311413 l 2.038661,0.546259 c -0.0016,1.090171 0.147452,2.172146 0.426458,3.200343 l -1.838756,1.061607 c -0.518929,0.299605 -0.704161,0.934342 -0.409585,1.444553 l 2.077054,3.597568 c 0.294571,0.510207 0.936886,0.66716 1.455816,0.367552 l 1.838757,-1.061606 c 0.750942,0.755728 2.076422,1.487566 2.076422,1.487566 L 21.842985,44.89416 26.299516,44.556041 27.2,43.692771 30.932439,43.5 l 1.049528,1.167535 5.869771,-0.0435 -1.061602,-1.925755 c 0.755728,-0.750942 1.425742,-1.613467 1.969495,-2.558351 l 1.310196,0.400565 c 0.250239,0.07651 1.09379,0.235797 1.09379,0.235797 l 0.284038,-6.403618 -1.066148,-0.285672 c 0.0016,-1.090172 -0.14745,-2.172146 -0.426457,-3.200346 l 1.577756,-0.931106 c 0.07762,-0.10015 0.07097,-0.41088 0.07097,-0.41088 l -0.0086,-1.916195 -1.46888,-2.845548 c -0.270177,-0.523505 -0.936828,-0.667164 -1.455759,-0.367555 l -1.838756,1.061602 c -0.750942,-0.755728 -1.613466,-1.425742 -2.558349,-1.969495 l 0.546258,-2.038663 c 0.155086,-0.578789 -0.179199,-1.174319 -0.748263,-1.326801 z M 29.371662,29.69518 c 2.413102,0.646589 3.846792,3.129818 3.200204,5.542922 -0.646589,2.4131 -3.129816,3.846794 -5.542919,3.200205 -2.413102,-0.646589 -3.846795,-3.129817 -3.200206,-5.54292 0.646589,-2.413102 3.129817,-3.846795 5.542921,-3.200207 z"
     id="rect3267"
     style="fill:url(#linearGradient4912);fill-opacity:1;fill-rule:nonzero;stroke:none;stroke-width:0.65142906000000000;marker:none;visibility:visible;display:block;overflow:visible;enable-background:accumulate"
     sodipodi:nodetypes="ssccsccssccssssccssssccccccccccscccccccssccssssssss" />
  <path
     style="fill:#94d48e;fill-opacity:1;stroke:none;stroke-width:0.45541501;stroke-linecap:square;stroke-linejoin:miter;stroke-miterlimit:4;stroke-dashoffset:0;stroke-opacity:1;display:inline"
     d="M 11 20 L 11 21 L 13.34375 21 L 13.34375 20 L 11 20 z M 11 24 L 11 25 L 13.75 25 L 13.75 24 L 11 24 z M 11 26 L 11 27 L 13.9375 27 L 13.9375 26 L 11 26 z M 11 28 L 11 29 L 13.53125 29 L 13.53125 28 L 11 28 z M 11 30.15625 L 11 31.125 L 13.21875 31.125 L 13.21875 30.15625 L 11 30.15625 z "
     id="path5302" />
  <path
     inkscape:connector-curvature="0"
     style="fill:none;fill-opacity:1;stroke:url(#linearGradient4877);stroke-width:0.99992186000000005;stroke-linecap:butt;stroke-linejoin:round;stroke-miterlimit:4;stroke-opacity:1;stroke-dasharray:none;stroke-dashoffset:0;display:inline"
     id="path4160-9"
     d="m 6.4999609,0.49743487 c 8.0202951,0 16.0405901,0 24.0608861,0 1.406933,0.4746531 8.965454,5.88220423 10.939195,9.62640613 0,11.459733 0,22.919465 0,34.379198 -11.666694,0 -23.333387,0 -35.0000811,0 0,-14.668535 0,-29.33707 0,-44.00560413 z" />
  <path
     id="path4922"
     style="fill:#89adc2;fill-opacity:1;stroke:none;display:inline"
     d="m 16.09375,12 0,1 L 18,13 18,12 z m -2.46875,0 0,1 2.15625,0 0,-1 z M 11,12 l 0,1 2.3125,0 0,-1 z m 4.5,-2 0,1 4.5,0 0,-1 z m -4.5,0 0,1 4.1875,0 0,-1 z m 14.53125,-2 0,1 L 29,9 29,8 z M 22.5,8 l 0,1 2.65625,0 0,-1 z m -1.96875,0 0,1 1.625,0 0,-1 z m -2,0 0,1 1.625,0 0,-1 z m -1.21875,0 0,1 0.84375,0 0,-1 z m -2.15625,0 0,1 1.8125,0 0,-1 z M 11,8 l 0,1 3.78125,0 0,-1 z m 11,-2 0,1 5,0 0,-1 z m -2.28125,0 0,1 1.9375,0 0,-1 z m -1.1875,0 0,1 0.875,0 0,-1 z M 16.25,6 l 0,1 1.96875,0 0,-1 z m -2.5625,0 0,1 2.25,0 0,-1 z M 11,6 l 0,1 2.375,0 0,-1 z" />
  <g
     id="g4962"
     style="fill:#ea9f9f;fill-opacity:1">
    <path
       id="path4061"
       style="fill:#efb5b5;fill-opacity:1;stroke:none;display:inline"
       d="m 14.4375,17 0,1 5.09375,0 0,-1 z m -0.03125,-2 0,1 L 20,16 20,15 z m 13.03125,2 0,1 4.5625,0 0,-1 z m -3.09375,0 0,1 2.75,0 0,-1 z m -2.21875,0 0,1 1.90625,0 0,-1 z m -2.21875,0 0,1 1.90625,0 0,-1 z"
       inkscape:connector-curvature="0"
       sodipodi:nodetypes="cccccccccccccccccccccccccccccc" />
  </g>
  <path
     style="fill:url(#linearGradient2580);fill-opacity:1;stroke:none;display:inline"
     d="m 13.75,20 0,1 2.25,0 0,-1 z m -2.75,2 0,1 1,0 0,-1 z m 3.15625,2 0,1 L 16,25 16,24 z m 0.125,2 0,1 L 17,27 17,26 z m -0.34375,2 0,1 2.0625,0 0,-1 z m -0.375,2.15625 0,0.96875 2.125,0 0,-0.96875 z M 11,33 l 0,1 4.28125,0 0,-1 z m 0,2 0,1 3.6875,0 0,-1 z m 3.96875,0 0,1 1.78125,0 0,-1 z M 11,37 l 0,1 6.6875,0 0,-1 z"
     id="path4007"
     inkscape:connector-curvature="0"
     sodipodi:nodetypes="cccccccccccccccccccccccccccccccccccccccccccccccccc" />
</svg>
