<?xml version="1.0" encoding="UTF-8" standalone="no"?>
<!-- Created with Inkscape (http://www.inkscape.org/) -->

<svg
   xmlns:dc="http://purl.org/dc/elements/1.1/"
   xmlns:cc="http://creativecommons.org/ns#"
   xmlns:rdf="http://www.w3.org/1999/02/22-rdf-syntax-ns#"
   xmlns:svg="http://www.w3.org/2000/svg"
   xmlns="http://www.w3.org/2000/svg"
   xmlns:xlink="http://www.w3.org/1999/xlink"
   xmlns:sodipodi="http://sodipodi.sourceforge.net/DTD/sodipodi-0.dtd"
   xmlns:inkscape="http://www.inkscape.org/namespaces/inkscape"
   version="1.0"
   width="64"
   height="64"
   id="svg4569"
   inkscape:version="0.48.4 r9939"
   sodipodi:docname="applets-screenshooter.svg">
  <metadata
     id="metadata54">
    <rdf:RDF>
      <cc:Work
         rdf:about="">
        <dc:format>image/svg+xml</dc:format>
        <dc:type
           rdf:resource="http://purl.org/dc/dcmitype/StillImage" />
        <dc:title />
      </cc:Work>
    </rdf:RDF>
  </metadata>
  <sodipodi:namedview
     pagecolor="#ffffff"
     bordercolor="#666666"
     borderopacity="1"
     objecttolerance="10"
     gridtolerance="10"
     guidetolerance="10"
     inkscape:pageopacity="0"
     inkscape:pageshadow="2"
     inkscape:window-width="1181"
     inkscape:window-height="726"
     id="namedview52"
     showgrid="false"
     inkscape:zoom="3.5244855"
     inkscape:cx="38.091173"
     inkscape:cy="20.513529"
     inkscape:window-x="257"
     inkscape:window-y="47"
     inkscape:window-maximized="0"
     inkscape:current-layer="layer1" />
  <defs
     id="defs4571">
    <linearGradient
       inkscape:collect="always"
       id="linearGradient6841">
      <stop
         style="stop-color:#9d9e9b;stop-opacity:1"
         offset="0"
         id="stop6843" />
      <stop
         style="stop-color:#80817d;stop-opacity:1"
         offset="1"
         id="stop6845" />
    </linearGradient>
    <linearGradient
       inkscape:collect="always"
       id="linearGradient6833">
      <stop
         style="stop-color:#e3e3e3;stop-opacity:1;"
         offset="0"
         id="stop6835" />
      <stop
         style="stop-color:#e3e3e3;stop-opacity:0;"
         offset="1"
         id="stop6837" />
    </linearGradient>
    <linearGradient
       id="linearGradient6827">
      <stop
         style="stop-color:#7b7b7b;stop-opacity:1"
         offset="0"
         id="stop6829" />
      <stop
         style="stop-color:#4e4e4e;stop-opacity:1"
         offset="1"
         id="stop6831" />
    </linearGradient>
    <linearGradient
       id="linearGradient5044">
      <stop
         style="stop-color:#000000;stop-opacity:1;"
         offset="0"
         id="stop5046" />
      <stop
         style="stop-color:#000000;stop-opacity:0;"
         offset="1"
         id="stop5048" />
    </linearGradient>
    <linearGradient
       id="linearGradient5016">
      <stop
         style="stop-color:#fafafa;stop-opacity:1;"
         offset="0"
         id="stop5018" />
      <stop
         id="stop5024"
         offset="0.94462717"
         style="stop-color:#f5f5f5;stop-opacity:1;" />
      <stop
         style="stop-color:#b8b8b8;stop-opacity:1;"
         offset="1"
         id="stop5020" />
    </linearGradient>
    <linearGradient
       id="linearGradient3924">
      <stop
         id="stop3926"
         style="stop-color:#5a5a5a;stop-opacity:1;"
         offset="0" />
      <stop
         id="stop3928"
         style="stop-color:#8c8c8c;stop-opacity:1"
         offset="0.35046947" />
      <stop
         id="stop3930"
         style="stop-color:#969696;stop-opacity:1"
         offset="0.50989443" />
      <stop
         id="stop3932"
         style="stop-color:#aaaaaa;stop-opacity:1"
         offset="0.61998242" />
      <stop
         id="stop3934"
         style="stop-color:#6e6e6e;stop-opacity:1;"
         offset="1" />
    </linearGradient>
    <linearGradient
       id="linearGradient3912">
      <stop
         id="stop3914"
         style="stop-color:#c4c4c4;stop-opacity:1;"
         offset="0" />
      <stop
         id="stop3916"
         style="stop-color:#f8f8f8;stop-opacity:1;"
         offset="0.35046947" />
      <stop
         id="stop3918"
         style="stop-color:#ffffff;stop-opacity:1;"
         offset="0.49417919" />
      <stop
         id="stop3920"
         style="stop-color:#ffffff;stop-opacity:1;"
         offset="0.58907253" />
      <stop
         id="stop3922"
         style="stop-color:#c7c7c7;stop-opacity:1;"
         offset="1" />
    </linearGradient>
    <linearGradient
       id="linearGradient3342">
      <stop
         id="stop3344"
         style="stop-color:#ffffff;stop-opacity:0"
         offset="0" />
      <stop
         id="stop3346"
         style="stop-color:#ffffff;stop-opacity:1"
         offset="1" />
    </linearGradient>
    <linearGradient
       x1="15.573899"
       y1="46.971004"
       x2="23.578077"
       y2="46.971004"
       id="linearGradient2448"
       xlink:href="#linearGradient3342"
       gradientUnits="userSpaceOnUse"
       gradientTransform="matrix(1.53067,0,0,1.3333333,-4.0902539,-4.1280028)"
       spreadMethod="reflect" />
    <linearGradient
       x1="361.10583"
       y1="87.050117"
       x2="361.10583"
       y2="94.396416"
       id="linearGradient2451"
       xlink:href="#linearGradient3912"
       gradientUnits="userSpaceOnUse"
       gradientTransform="matrix(1.3111548,0,0,1.3337028,-437.61398,-66.532889)" />
    <linearGradient
       x1="61.968769"
       y1="35.944077"
       x2="61.968769"
       y2="43.378311"
       id="linearGradient2453"
       xlink:href="#linearGradient3924"
       gradientUnits="userSpaceOnUse"
       gradientTransform="matrix(1.3158802,0,0,1.333511,-49.584575,1.4931321)" />
    <linearGradient
       inkscape:collect="always"
       xlink:href="#linearGradient5016"
       id="linearGradient5022"
       x1="31.075314"
       y1="6.0645385"
       x2="31.075314"
       y2="45.38065"
       gradientUnits="userSpaceOnUse"
       gradientTransform="matrix(0.87456902,0,0,1.0049021,4.0575207,-0.12500423)" />
    <radialGradient
       inkscape:collect="always"
       xlink:href="#linearGradient5044"
       id="radialGradient5050"
       cx="32.802509"
       cy="61.712757"
       fx="32.802509"
       fy="61.712757"
       r="23.133492"
       gradientTransform="matrix(1,0,0,0.24114963,0,44.455786)"
       gradientUnits="userSpaceOnUse" />
    <filter
       inkscape:collect="always"
       id="filter5056"
       x="-0.039170169"
       width="1.0783403"
       y="-0.18818712"
       height="1.3763742">
      <feGaussianBlur
         inkscape:collect="always"
         stdDeviation="0.72364534"
         id="feGaussianBlur5058" />
    </filter>
    <radialGradient
       cx="605.71429"
       cy="486.64789"
       r="117.14286"
       fx="605.71429"
       fy="486.64789"
       id="radialGradient5934"
       xlink:href="#linearGradient5060"
       gradientUnits="userSpaceOnUse"
       gradientTransform="matrix(-0.0628545,0,0,0.02058823,46.705044,34.451367)" />
    <linearGradient
       id="linearGradient5060">
      <stop
         id="stop5062"
         style="stop-color:#000000;stop-opacity:1"
         offset="0" />
      <stop
         id="stop5064"
         style="stop-color:#000000;stop-opacity:0"
         offset="1" />
    </linearGradient>
    <linearGradient
       x1="302.85715"
       y1="366.64789"
       x2="302.85715"
       y2="609.50507"
       id="linearGradient5931"
       xlink:href="#linearGradient5048"
       gradientUnits="userSpaceOnUse"
       gradientTransform="matrix(0.0628545,0,0,0.02058823,1.2825853,34.451367)" />
    <linearGradient
       id="linearGradient5048">
      <stop
         id="stop5050"
         style="stop-color:#000000;stop-opacity:0"
         offset="0" />
      <stop
         id="stop5056"
         style="stop-color:#000000;stop-opacity:1"
         offset="0.5" />
      <stop
         id="stop5052"
         style="stop-color:#000000;stop-opacity:0"
         offset="1" />
    </linearGradient>
    <radialGradient
       cx="605.71429"
       cy="486.64789"
       r="117.14286"
       fx="605.71429"
       fy="486.64789"
       id="radialGradient5928"
       xlink:href="#linearGradient5060"
       gradientUnits="userSpaceOnUse"
       gradientTransform="matrix(0.0628545,0,0,0.02058823,1.294955,34.451367)" />
    <radialGradient
       cx="76.16552"
       cy="14.781876"
       r="20.999798"
       fx="76.16552"
       fy="14.781876"
       id="radialGradient5807"
       xlink:href="#linearGradient5428"
       gradientUnits="userSpaceOnUse"
       gradientTransform="matrix(4.381919,1.8591403e-8,0,0.1344975,-308.75746,18.220369)" />
    <linearGradient
       id="linearGradient5428">
      <stop
         id="stop5430"
         style="stop-color:#7a7c7c;stop-opacity:1"
         offset="0" />
      <stop
         id="stop5432"
         style="stop-color:#33393a;stop-opacity:1"
         offset="1" />
    </linearGradient>
    <linearGradient
       x1="8.5625"
       y1="4.646832"
       x2="8.5625"
       y2="45.818478"
       id="linearGradient5809"
       xlink:href="#linearGradient18344"
       gradientUnits="userSpaceOnUse"
       gradientTransform="matrix(1.0416669,0,0,0.95936016,-54.345434,8.5158456)" />
    <linearGradient
       id="linearGradient18344">
      <stop
         id="stop18346"
         style="stop-color:#2f3537;stop-opacity:1"
         offset="0" />
      <stop
         id="stop18354"
         style="stop-color:#8a8e8e;stop-opacity:1"
         offset="0.30000001" />
      <stop
         id="stop18348"
         style="stop-color:#2f3537;stop-opacity:1"
         offset="1" />
    </linearGradient>
    <radialGradient
       cx="400.29608"
       cy="127.65469"
       r="2.0221689"
       fx="400.29608"
       fy="127.65469"
       id="radialGradient5813"
       xlink:href="#linearGradient26816"
       gradientUnits="userSpaceOnUse"
       gradientTransform="matrix(1.1319576,3.2812648e-5,-1.5076793e-5,0.52549546,-422.54164,-44.818828)" />
    <linearGradient
       id="linearGradient26816">
      <stop
         id="stop26818"
         style="stop-color:#ffffff;stop-opacity:1"
         offset="0" />
      <stop
         id="stop26820"
         style="stop-color:#eeeeec;stop-opacity:0"
         offset="1" />
    </linearGradient>
    <radialGradient
       cx="399.8783"
       cy="127.24747"
       r="2.0221689"
       fx="399.8783"
       fy="127.24747"
       id="radialGradient5815"
       xlink:href="#linearGradient26830"
       gradientUnits="userSpaceOnUse"
       gradientTransform="matrix(0.98125026,-0.09576627,0.12702286,0.45005388,-377.77002,3.77606)" />
    <linearGradient
       id="linearGradient26830">
      <stop
         id="stop26832"
         style="stop-color:#ffffff;stop-opacity:1"
         offset="0" />
      <stop
         id="stop26834"
         style="stop-color:#ffffff;stop-opacity:0"
         offset="1" />
    </linearGradient>
    <radialGradient
       cx="427.79684"
       cy="33.604549"
       r="74.907745"
       fx="427.79684"
       fy="33.604549"
       id="radialGradient5821"
       xlink:href="#linearGradient18403"
       gradientUnits="userSpaceOnUse"
       gradientTransform="matrix(-0.46694469,0.10516175,-0.08511231,-0.36837849,241.0054,-9.3861439)" />
    <linearGradient
       id="linearGradient18403">
      <stop
         id="stop18405"
         style="stop-color:#eeeeec;stop-opacity:1"
         offset="0" />
      <stop
         id="stop18407"
         style="stop-color:#eeeeec;stop-opacity:0"
         offset="1" />
    </linearGradient>
    <radialGradient
       cx="502.53064"
       cy="217.46133"
       r="74.907745"
       fx="502.53064"
       fy="217.46133"
       id="radialGradient5823"
       xlink:href="#linearGradient26168"
       gradientUnits="userSpaceOnUse"
       gradientTransform="matrix(0.10928693,-0.07490162,0.03736552,0.05863008,-25.358018,62.087456)" />
    <linearGradient
       id="linearGradient26168">
      <stop
         id="stop26170"
         style="stop-color:#eeeeec;stop-opacity:1"
         offset="0" />
      <stop
         id="stop26172"
         style="stop-color:#eeeeec;stop-opacity:0"
         offset="1" />
    </linearGradient>
    <linearGradient
       x1="469.35895"
       y1="126.83501"
       x2="280.0184"
       y2="225.83026"
       id="linearGradient5831"
       xlink:href="#linearGradient26075"
       gradientUnits="userSpaceOnUse"
       gradientTransform="matrix(0.09734197,0,0,0.13408556,-13.433067,7.5958642)" />
    <linearGradient
       id="linearGradient26075">
      <stop
         id="stop26077"
         style="stop-color:#555753;stop-opacity:0"
         offset="0" />
      <stop
         id="stop26079"
         style="stop-color:#eeeeec;stop-opacity:1"
         offset="1" />
    </linearGradient>
    <radialGradient
       cx="344.26065"
       cy="218.66101"
       r="74.907745"
       fx="344.26065"
       fy="218.66101"
       id="radialGradient5833"
       xlink:href="#linearGradient26075"
       gradientUnits="userSpaceOnUse"
       gradientTransform="matrix(-0.01429552,-0.25450725,0.09754373,-0.00570759,14.663628,121.58708)" />
    <radialGradient
       cx="469.91165"
       cy="131.83463"
       r="74.907745"
       fx="469.91165"
       fy="131.83463"
       id="radialGradient5835"
       xlink:href="#linearGradient8660"
       gradientUnits="userSpaceOnUse"
       gradientTransform="matrix(-0.14636256,-0.14137134,0.12818745,-0.13413412,86.714279,107.26912)" />
    <linearGradient
       id="linearGradient8660">
      <stop
         id="stop8662"
         style="stop-color:#2e3436;stop-opacity:1"
         offset="0" />
      <stop
         id="stop8664"
         style="stop-color:#555753;stop-opacity:0"
         offset="1" />
    </linearGradient>
    <radialGradient
       cx="434.12521"
       cy="98.974625"
       r="74.907745"
       fx="434.12521"
       fy="98.974625"
       id="radialGradient5837"
       xlink:href="#linearGradient8660"
       gradientUnits="userSpaceOnUse"
       gradientTransform="matrix(-0.15648201,0.15855446,-0.20698361,-0.20972559,119.49017,-21.000658)" />
    <radialGradient
       cx="441.3573"
       cy="130.89047"
       r="75.756241"
       fx="441.3573"
       fy="130.89047"
       id="radialGradient5839"
       xlink:href="#linearGradient8690"
       gradientUnits="userSpaceOnUse"
       gradientTransform="matrix(-0.01340277,-0.09148157,0.30383165,-0.04570091,-2.7820027,72.920513)" />
    <linearGradient
       id="linearGradient8690">
      <stop
         id="stop8692"
         style="stop-color:#3a3a3a;stop-opacity:1"
         offset="0" />
      <stop
         id="stop8694"
         style="stop-color:#3a3a3a;stop-opacity:0"
         offset="1" />
    </linearGradient>
    <linearGradient
       id="linearGradient26099">
      <stop
         id="stop26101"
         style="stop-color:#eeeeec;stop-opacity:1"
         offset="0" />
      <stop
         id="stop26103"
         style="stop-color:#babdb6;stop-opacity:1"
         offset="1" />
    </linearGradient>
    <linearGradient
       x1="236.75015"
       y1="171.61981"
       x2="222.73204"
       y2="179.03932"
       id="linearGradient5898"
       xlink:href="#linearGradient9688"
       gradientUnits="userSpaceOnUse"
       gradientTransform="matrix(0.14461095,0,0,0.13747375,-3.8127044,7.0370233)" />
    <linearGradient
       id="linearGradient9688">
      <stop
         id="stop9690"
         style="stop-color:#eeeeec;stop-opacity:1"
         offset="0" />
      <stop
         id="stop9692"
         style="stop-color:#ffffff;stop-opacity:0"
         offset="1" />
    </linearGradient>
    <linearGradient
       id="linearGradient9785">
      <stop
         id="stop9787"
         style="stop-color:#eeeeec;stop-opacity:1"
         offset="0" />
      <stop
         id="stop9789"
         style="stop-color:#090908;stop-opacity:0.96621621"
         offset="1" />
    </linearGradient>
    <radialGradient
       cx="258.76035"
       cy="183.6442"
       r="18.578125"
       fx="258.76035"
       fy="183.6442"
       id="radialGradient5891"
       xlink:href="#linearGradient9688"
       gradientUnits="userSpaceOnUse"
       gradientTransform="matrix(0.23174686,-0.00309241,0.00238092,0.17398348,-25.960839,0.90887859)" />
    <radialGradient
       cx="442.29459"
       cy="62.526134"
       r="77.922958"
       fx="442.29459"
       fy="62.526134"
       id="radialGradient5851"
       xlink:href="#linearGradient26371"
       gradientUnits="userSpaceOnUse"
       gradientTransform="matrix(-1.3559279e-5,-1.4290812,0.26939733,0,14.232858,662.75229)" />
    <linearGradient
       id="linearGradient26371">
      <stop
         id="stop26373"
         style="stop-color:#777777;stop-opacity:0"
         offset="0" />
      <stop
         id="stop26375"
         style="stop-color:#2b2b2b;stop-opacity:1"
         offset="1" />
    </linearGradient>
    <linearGradient
       x1="21.568329"
       y1="21.015778"
       x2="24.082361"
       y2="26.86837"
       id="linearGradient5853"
       xlink:href="#linearGradient5895"
       gradientUnits="userSpaceOnUse"
       gradientTransform="matrix(1.1178865,0,0,1.1063374,4.1473123,-4.613241)" />
    <linearGradient
       id="linearGradient5895">
      <stop
         id="stop5897"
         style="stop-color:#888a85;stop-opacity:1"
         offset="0" />
      <stop
         id="stop5899"
         style="stop-color:#ffffff;stop-opacity:1"
         offset="1" />
    </linearGradient>
    <filter
       x="-0.34117648"
       y="-0.34117648"
       width="1.6823529"
       height="1.6823529"
       color-interpolation-filters="sRGB"
       id="filter9094">
      <feGaussianBlur
         stdDeviation="0.28648224"
         id="feGaussianBlur9096" />
    </filter>
    <linearGradient
       x1="22.0625"
       y1="22.125"
       x2="24"
       y2="24.9375"
       id="linearGradient5855"
       xlink:href="#linearGradient5895"
       gradientUnits="userSpaceOnUse"
       gradientTransform="matrix(0.70175454,0,0,0.69284183,8.2925572,6.0427102)" />
    <linearGradient
       x1="6.5595827"
       y1="28.780806"
       x2="6.5595827"
       y2="30.191154"
       id="linearGradient5880"
       xlink:href="#linearGradient3301"
       gradientUnits="userSpaceOnUse"
       gradientTransform="matrix(1.3598079,0,0,0.99638678,30.194316,-8.5172952)" />
    <linearGradient
       id="linearGradient3301">
      <stop
         id="stop3303"
         style="stop-color:#ffffff;stop-opacity:1"
         offset="0" />
      <stop
         id="stop3305"
         style="stop-color:#d7dbc7;stop-opacity:1"
         offset="1" />
    </linearGradient>
    <linearGradient
       x1="5.334765"
       y1="29.179651"
       x2="8.5602255"
       y2="22.712967"
       id="linearGradient5882"
       xlink:href="#linearGradient2230"
       gradientUnits="userSpaceOnUse"
       gradientTransform="matrix(1.2131684,0,0,0.38866149,30.323039,10.276327)" />
    <linearGradient
       id="linearGradient2230">
      <stop
         id="stop2232"
         style="stop-color:#eeeeee;stop-opacity:1"
         offset="0" />
      <stop
         id="stop2234"
         style="stop-color:#a2a2a2;stop-opacity:1"
         offset="1" />
    </linearGradient>
    <radialGradient
       cx="9.1189642"
       cy="20.823402"
       r="3.1769876"
       fx="9.1189642"
       fy="20.823402"
       id="radialGradient5861"
       xlink:href="#linearGradient17963"
       gradientUnits="userSpaceOnUse"
       gradientTransform="matrix(0,-0.38054974,2.8688574,0,-44.450162,22.452523)" />
    <linearGradient
       id="linearGradient17963">
      <stop
         id="stop17965"
         style="stop-color:#dee3e0;stop-opacity:1"
         offset="0" />
      <stop
         id="stop17967"
         style="stop-color:#dee3e0;stop-opacity:0"
         offset="1" />
    </linearGradient>
    <radialGradient
       cx="9.2365828"
       cy="17.108955"
       r="2.9610097"
       fx="9.2365828"
       fy="17.108955"
       id="radialGradient5863"
       xlink:href="#linearGradient17941"
       gradientUnits="userSpaceOnUse"
       gradientTransform="matrix(1.3203386,-2.9379319e-7,1.9686949e-7,0.28006368,3.2508295,12.670843)" />
    <linearGradient
       id="linearGradient17941">
      <stop
         id="stop17943"
         style="stop-color:#e9e9e9;stop-opacity:1"
         offset="0" />
      <stop
         id="stop17945"
         style="stop-color:#a7a7a7;stop-opacity:1"
         offset="0" />
      <stop
         id="stop17947"
         style="stop-color:#bebebe;stop-opacity:1"
         offset="0.52899867" />
      <stop
         id="stop17949"
         style="stop-color:#e7e7e7;stop-opacity:1"
         offset="1" />
    </linearGradient>
    <radialGradient
       cx="14.738829"
       cy="12.007012"
       r="0.546875"
       fx="14.738829"
       fy="12.007012"
       id="radialGradient5874"
       xlink:href="#linearGradient17963"
       gradientUnits="userSpaceOnUse"
       gradientTransform="matrix(-3.5391202e-6,-0.76409322,3.5241476,-1.8302787e-6,-27.074804,28.901001)" />
    <linearGradient
       x1="10.666382"
       y1="20.521324"
       x2="11.692044"
       y2="53.913837"
       id="linearGradient5870"
       xlink:href="#linearGradient5404"
       gradientUnits="userSpaceOnUse"
       gradientTransform="matrix(1.0156035,0,0,0.98554983,0.44676689,-0.86020882)" />
    <linearGradient
       id="linearGradient5404">
      <stop
         id="stop5406"
         style="stop-color:#ffffff;stop-opacity:1"
         offset="0" />
      <stop
         id="stop5408"
         style="stop-color:#ffffff;stop-opacity:0"
         offset="1" />
    </linearGradient>
    <linearGradient
       id="linearGradient10695">
      <stop
         id="stop10697"
         style="stop-color:#b100cb;stop-opacity:1"
         offset="0" />
      <stop
         id="stop10699"
         style="stop-color:#204a87;stop-opacity:0"
         offset="1" />
    </linearGradient>
    <radialGradient
       inkscape:collect="always"
       xlink:href="#linearGradient26099"
       id="radialGradient6885"
       gradientUnits="userSpaceOnUse"
       gradientTransform="matrix(0.09477602,-0.0746932,0.15409133,0.20236917,-31.106323,37.917391)"
       cx="439.04871"
       cy="111.3"
       fx="439.04871"
       fy="111.3"
       r="75.752426" />
    <radialGradient
       inkscape:collect="always"
       xlink:href="#linearGradient9785"
       id="radialGradient6889"
       gradientUnits="userSpaceOnUse"
       gradientTransform="matrix(0.05422709,-0.21653782,0.33693828,0.08425473,-35.832748,73.927025)"
       cx="251.69016"
       cy="171.7894"
       fx="251.69016"
       fy="171.7894"
       r="21.53125" />
    <radialGradient
       inkscape:collect="always"
       xlink:href="#linearGradient10695"
       id="radialGradient6891"
       gradientUnits="userSpaceOnUse"
       gradientTransform="matrix(0.31052436,0,0,0.30658052,-24.545296,-29.318726)"
       cx="171.25"
       cy="188.5"
       fx="171.25"
       fy="188.5"
       r="19" />
    <linearGradient
       inkscape:collect="always"
       xlink:href="#linearGradient6827"
       id="linearGradient6825"
       x1="93.272125"
       y1="-16.756083"
       x2="110.54162"
       y2="23.322037"
       gradientUnits="userSpaceOnUse" />
    <linearGradient
       inkscape:collect="always"
       xlink:href="#linearGradient6833"
       id="linearGradient6839"
       x1="15.276761"
       y1="12.219707"
       x2="39.30975"
       y2="58.034302"
       gradientUnits="userSpaceOnUse" />
    <radialGradient
       inkscape:collect="always"
       xlink:href="#linearGradient6841"
       id="radialGradient6847"
       cx="31.071251"
       cy="30.675046"
       fx="31.071251"
       fy="30.675046"
       r="9.3750023"
       gradientTransform="matrix(1,0,0,0.98729956,0,0.38958674)"
       gradientUnits="userSpaceOnUse" />
  </defs>
  <path
     sodipodi:type="arc"
     style="opacity:0.4;fill:url(#radialGradient5050);fill-opacity:1;stroke:none;filter:url(#filter5056)"
     id="path5038"
     sodipodi:cx="33.003136"
     sodipodi:cy="58.583073"
     sodipodi:rx="20.363636"
     sodipodi:ry="4.6144199"
     d="m 53.366772,58.583073 a 20.363636,4.6144199 0 1 1 -40.727272,0 20.363636,4.6144199 0 1 1 40.727272,0 z"
     transform="matrix(1,0,0,0.79748627,-0.36964343,12.215834)" />
  <path
     d="m 23.919786,44.486598 c 0,0 0.186555,10.189994 -0.743925,11.513402 -0.93048,1.323409 -4.781861,1.5 -4.781861,1.5 -1.188092,0.139034 -1.19792,2.000862 0,2.000862 l 27.212,0 c 1.197921,0 1.188341,-1.863602 0,-2.000862 0,0 -3.851396,-0.176594 -4.781863,-1.5 C 39.893671,54.676595 40.08012,44.486598 40.08012,44.486598 z"
     id="rect1789"
     style="fill:url(#linearGradient2451);fill-opacity:1;fill-rule:nonzero;stroke:url(#linearGradient2453);stroke-width:0.5;stroke-linecap:round;stroke-linejoin:round;stroke-miterlimit:4;stroke-opacity:1;stroke-dasharray:none;stroke-dashoffset:0.50000001000000005;marker:none;visibility:visible;display:inline;overflow:visible;enable-background:new"
     inkscape:connector-curvature="0"
     sodipodi:nodetypes="cscsscscc" />
  <path
     d="M 20.51358,58.5 L 43.486421,58.5"
     id="path3340"
     style="fill:none;stroke:url(#linearGradient2448);stroke-width:1px;stroke-linecap:square;stroke-linejoin:miter;stroke-opacity:1" />
  <rect
     width="53.698536"
     height="40.698536"
     rx="3.0145864"
     ry="3.0147061"
     x="5.1507325"
     y="5.1507325"
     id="rect2722"
     style="fill:url(#linearGradient5022);fill-opacity:1;stroke:#5b5b5b;stroke-width:0.30146465;stroke-linecap:round;stroke-linejoin:round;stroke-miterlimit:4;stroke-opacity:1;stroke-dasharray:none;stroke-dashoffset:0.50000001" />
  <rect
     style="fill:#69ff75;fill-opacity:1;stroke:none"
     id="rect3853"
     width="2"
     height="1"
     x="31"
     y="43.400002" />
  <g
     id="g4811"
     transform="matrix(1.0717053,0,0,0.97614998,-69.289387,17.324353)">
    <rect
       ry="2.0909734"
       rx="1.9503173"
       y="-9.5521727"
       x="72.118164"
       height="34.742329"
       width="44.788403"
       id="rect2996-6"
       style="fill:#838383;fill-opacity:1;stroke:none" />
    <rect
       ry="2.0909734"
       rx="1.9503173"
       y="-9.463788"
       x="72.118134"
       height="34.742329"
       width="44.788403"
       id="rect2996-6-5"
       style="fill:url(#linearGradient6825);fill-opacity:1;stroke:none" />
    <path
       style="font-size:medium;font-style:normal;font-variant:normal;font-weight:normal;font-stretch:normal;text-indent:0;text-align:start;text-decoration:none;line-height:normal;letter-spacing:normal;word-spacing:normal;text-transform:none;direction:ltr;block-progression:tb;writing-mode:lr-tb;text-anchor:start;baseline-shift:baseline;color:#000000;fill:#ffffff;fill-opacity:1;stroke:none;stroke-width:0.97769648;marker:none;visibility:visible;display:inline;overflow:visible;enable-background:accumulate;font-family:Sans;-inkscape-font-specification:Sans"
       d="m 12,12 0,0.5 0,3.5 1,0 0,-3 3,0 0,-1 -3.46875,0 z m 36,0 0,1 3,0 0,3 1,0 0,-3.5 0,-0.5 -0.53125,0 z m -36,22 0,3.5 0,0.5 0.53125,0 3.46875,0 0,-0.999999 -3,0 L 13,34 z m 39,0 0,3.000001 -3,0 L 48,38 51.46875,38 52,38 52,37.5 52,34 z"
       transform="matrix(0.93309233,0,0,1.0244327,64.653396,-17.747634)"
       id="rect4729"
       inkscape:connector-curvature="0"
       sodipodi:nodetypes="cccccccccccccccccccccccccccccccccccc" />
  </g>
  <g
     transform="matrix(0.60869568,0,0,0.60869568,2.3913043,33.999999)"
     id="layer1">
    <g
       transform="translate(0,-0.99999952)"
       id="g5936"
       style="opacity:0.3">
      <path
         inkscape:connector-curvature="0"
         d="m 8.8251297,42.000171 c 0,0 0,4.999724 0,4.999724 C 5.5882785,47.009307 0.99999808,45.879711 1,44.499712 c 0,-1.38 3.6120828,-2.49954 7.8251297,-2.499541 l 0,0 z"
         id="path5387"
         style="fill:url(#radialGradient5934);fill-opacity:1;fill-rule:nonzero;stroke:none;stroke-width:1;marker:none;visibility:visible;display:inline;overflow:visible" />
      <rect
         width="30.349743"
         height="4.9999995"
         x="8.8251247"
         y="42"
         id="rect5373"
         style="fill:url(#linearGradient5931);fill-opacity:1;fill-rule:nonzero;stroke:none;stroke-width:1;marker:none;visibility:visible;display:inline;overflow:visible" />
      <path
         inkscape:connector-curvature="0"
         d="m 39.174869,42.000171 c 0,0 0,4.999724 0,4.999724 3.236851,0.0094 7.825131,-1.120184 7.825129,-2.500183 0,-1.38 -3.612082,-2.49954 -7.825129,-2.499541 l 0,0 z"
         id="path5375"
         style="fill:url(#radialGradient5928);fill-opacity:1;fill-rule:nonzero;stroke:none;stroke-width:1;marker:none;visibility:visible;display:inline;overflow:visible" />
    </g>
    <rect
       width="42.697502"
       height="25.892742"
       rx="4.0658641"
       ry="3.4507141"
       x="3.4725001"
       y="17.634758"
       id="rect5438"
       style="fill:url(#radialGradient5807);fill-opacity:1;fill-rule:nonzero;stroke:url(#linearGradient5809);stroke-width:1.65928602;stroke-linecap:round;stroke-linejoin:round;stroke-miterlimit:4;stroke-opacity:1;stroke-dasharray:none" />
    <rect
       width="41.666668"
       height="24.682489"
       rx="2.7227123"
       ry="2.7227123"
       x="3.9879134"
       y="18.336142"
       id="rect5445"
       style="fill:url(#linearGradient6839);fill-opacity:1;fill-rule:nonzero;stroke:none" />
    <path
       inkscape:connector-curvature="0"
       d="m 33.40436,20.787208 a 2.8296977,2.7121984 0 0 1 -5.659394,0 2.8296977,2.7121984 0 1 1 5.659394,0 z"
       id="path5451"
       style="opacity:0.27227723;fill:url(#radialGradient5813);fill-opacity:1;fill-rule:nonzero;stroke:none" />
    <path
       inkscape:connector-curvature="0"
       d="m 33.391462,22.100782 a 2.8167991,1.8608446 0 0 1 -5.633598,0 2.8167991,1.8608446 0 1 1 5.633598,0 z"
       id="path5453"
       style="fill:url(#radialGradient5815);fill-opacity:1;fill-rule:nonzero;stroke:none" />
    <path
       inkscape:connector-curvature="0"
       d="m 41.487915,30.677388 a 10.416666,10.284371 0 0 1 -20.83333,0 10.416666,10.284371 0 1 1 20.83333,0 z"
       id="path5463"
       style="fill:url(#radialGradient5821);fill-opacity:1;fill-rule:nonzero;stroke:none" />
    <path
       inkscape:connector-curvature="0"
       d="m 40.446253,30.677388 a 9.3750023,9.2559356 0 0 1 -18.750004,0 9.3750023,9.2559356 0 1 1 18.750004,0 z"
       id="path5465"
       style="fill:url(#radialGradient6847);fill-opacity:1;fill-rule:nonzero;stroke:none" />
    <path
       inkscape:connector-curvature="0"
       d="m 42.529585,30.677388 a 11.458335,11.312808 0 0 1 -22.916669,0 11.458335,11.312808 0 1 1 22.916669,0 z"
       id="path5467"
       style="fill:url(#radialGradient5823);fill-opacity:1;fill-rule:nonzero;stroke:none" />
    <path
       inkscape:connector-curvature="0"
       d="m 38.362918,30.677385 a 7.291668,7.1990594 0 0 1 -14.583336,0 7.291668,7.1990594 0 1 1 14.583336,0 z"
       id="path5475"
       style="fill:url(#linearGradient5831);fill-opacity:1;fill-rule:nonzero;stroke:none" />
    <path
       inkscape:connector-curvature="0"
       d="m 38.362918,31.705823 a 7.291668,7.1990594 0 0 1 -14.583336,0 7.291668,7.1990594 0 1 1 14.583336,0 z"
       id="path5477"
       style="fill:url(#radialGradient5833);fill-opacity:1;fill-rule:nonzero;stroke:none" />
    <path
       inkscape:connector-curvature="0"
       d="m 37.043968,31.651948 a 6.0065211,6.1706235 0 0 1 -12.013041,0 6.0065211,6.1706235 0 1 1 12.013041,0 z"
       id="path5479"
       style="opacity:0.53960422;fill:url(#radialGradient5835);fill-opacity:1;fill-rule:nonzero;stroke:none" />
    <path
       inkscape:connector-curvature="0"
       d="m 36.983497,32.22004 a 5.9122435,5.580047 0 0 1 -11.824487,0 5.9122435,5.580047 0 1 1 11.824487,0 z"
       id="path5481"
       style="fill:url(#radialGradient5837);fill-opacity:1;fill-rule:nonzero;stroke:url(#radialGradient5839);stroke-width:0.24395645;stroke-linecap:round;stroke-linejoin:round;stroke-miterlimit:4;stroke-opacity:1;stroke-dasharray:none" />
    <path
       inkscape:connector-curvature="0"
       d="m 38.270124,31.112438 c 0,3.946696 -3.244321,7.149813 -7.241786,7.149813 -3.997468,0 -7.241787,-3.203117 -7.241787,-7.149813 0,-3.946695 3.244319,-7.149811 7.241787,-7.149811 3.997465,0 7.241786,3.203116 7.241786,7.149811 z"
       id="path5483"
       style="fill:url(#radialGradient6885);fill-opacity:1;fill-rule:nonzero;stroke:none;stroke-width:0.16428571000000000;stroke-linecap:round;stroke-linejoin:round;stroke-miterlimit:4;stroke-opacity:1;stroke-dasharray:none" />
    <path
       inkscape:connector-curvature="0"
       d="m 37.032353,31.112436 a 6.0040162,5.9277611 0 0 1 -12.008032,0 6.0040162,5.9277611 0 1 1 12.008032,0 z"
       id="path5485"
       style="fill:#2e3436;fill-opacity:1;fill-rule:nonzero;stroke:none" />
    <path
       inkscape:connector-curvature="0"
       d="m 30.263156,28.851016 c -0.08849,0.02729 -0.173327,0.05915 -0.257588,0.09451 0.08416,-0.0356 0.169169,-0.06703 0.257588,-0.09451 z m 1.843788,0.05155 c 0.03645,0.01358 0.07279,0.02796 0.108457,0.04296 -0.0358,-0.01502 -0.07185,-0.02938 -0.108457,-0.04296 z m -2.404157,0.193324 c -0.05898,0.03361 -0.115775,0.06979 -0.171725,0.1074 0.05553,-0.03761 0.11322,-0.07371 0.171725,-0.1074 z m -0.171725,0.1074 c -0.0673,0.04523 -0.131753,0.09111 -0.19432,0.141771 0.06175,-0.05018 0.12799,-0.09685 0.19432,-0.141771 z m 3.411912,0.193321 c 0.03867,0.03332 0.07639,0.06776 0.11298,0.103107 -0.03658,-0.03521 -0.07433,-0.06993 -0.11298,-0.103107 z m -3.674019,0.0086 c -0.0496,0.04299 -0.0985,0.08686 -0.14461,0.133176 0.04622,-0.04642 0.09493,-0.09002 0.14461,-0.133176 z m -0.14461,0.133176 c -0.351428,0.352935 -0.600243,0.797188 -0.695941,1.293113 -2.66e-4,0.0014 2.67e-4,0.0029 0,0.0043 l 0,0.915057 c 0.144976,0.758473 0.6432,1.399383 1.328611,1.769974 l 2.706936,0 c 0.656713,-0.355073 1.139016,-0.95827 1.306017,-1.675459 l 0,-0.0086 0,-1.086903 c -0.07431,-0.324205 -0.211416,-0.627514 -0.402197,-0.893578 -0.148407,-0.188725 -0.320102,-0.32554 -0.506139,-0.399531 l -3.633349,0 c -0.03658,0.02689 -0.07027,0.05386 -0.103938,0.08163 z m -0.695941,2.212465 c -0.01408,-0.07362 -0.02409,-0.147295 -0.03164,-0.223393 0.0073,0.07585 0.01753,0.149584 0.03164,0.223393 z m 0,-0.915057 c -0.01414,0.07397 -0.02437,0.147381 -0.03164,0.223395 0.0075,-0.07505 0.01755,-0.149811 0.03164,-0.223395 z m 4.749563,-1.215783 c 0.02648,0.0291 0.05173,0.06002 0.07682,0.09021 -0.02546,-0.03059 -0.04996,-0.06076 -0.07682,-0.09021 z m -2.946446,4.102728 c 0.05503,0.0177 0.110656,0.03284 0.167207,0.04726 -0.05658,-0.01447 -0.112139,-0.02948 -0.167207,-0.04726 z m 1.757925,0 c -0.05533,0.01778 -0.110336,0.03279 -0.167206,0.04726 0.05655,-0.01442 0.112174,-0.02956 0.167206,-0.04726 z"
       id="path5487"
       style="opacity:0.23267326;fill:url(#linearGradient5898);fill-opacity:1;fill-rule:nonzero;stroke:none" />
    <path
       inkscape:connector-curvature="0"
       d="m 28.005507,27.160596 c -0.714262,0.506794 -1.287696,1.190179 -1.646963,1.977615 l 0,3.880726 c 0.376181,0.825063 0.986339,1.531654 1.748628,2.045341 l 5.910098,0 c 0.719485,-0.485466 1.301881,-1.143206 1.680851,-1.909886 l 0,-4.144862 C 35.336,28.276476 34.788218,27.639227 34.112156,27.160596 l -6.106649,0 z"
       id="path5489"
       style="opacity:0.37556559;fill:url(#radialGradient6889);fill-opacity:1;fill-rule:nonzero;stroke:none" />
    <path
       inkscape:connector-curvature="0"
       d="m 30.273094,28.786739 c -0.08742,0.02765 -0.171228,0.05992 -0.254468,0.09575 0.08313,-0.03606 0.16712,-0.0679 0.254468,-0.09575 z m 1.821448,0.05222 c 0.03601,0.01376 0.07191,0.02833 0.107143,0.04352 -0.03537,-0.01522 -0.07099,-0.02976 -0.107143,-0.04352 z m -2.375026,0.195851 c -0.05826,0.03405 -0.114374,0.07071 -0.169645,0.108803 0.05485,-0.0381 0.111847,-0.07468 0.169645,-0.108803 z m -0.169645,0.108803 c -0.06649,0.04582 -0.130156,0.09229 -0.191967,0.143623 0.06101,-0.05083 0.126439,-0.09811 0.191967,-0.143623 z m 3.370571,0.195847 c 0.0382,0.03376 0.07546,0.06864 0.111611,0.104454 -0.03613,-0.03567 -0.07342,-0.07083 -0.111611,-0.104454 z m -3.629502,0.0087 c -0.04901,0.04356 -0.0973,0.088 -0.142859,0.134916 0.04567,-0.04703 0.09378,-0.09119 0.142859,-0.134916 z m -0.142859,0.134916 c -0.347169,0.357547 -0.592971,0.807607 -0.687508,1.310009 -2.64e-4,0.0014 2.64e-4,0.003 0,0.0043 l 0,0.927016 c 0.143218,0.768385 0.635404,1.417667 1.312513,1.793102 l 2.674137,0 c 0.648756,-0.359712 1.125216,-0.970792 1.290193,-1.697354 l 0,-0.0087 0,-1.101106 C 33.664016,30.3819 33.528562,30.074629 33.34009,29.805088 33.193483,29.613896 33.023869,29.475295 32.840086,29.400336 l -3.589326,0 c -0.03614,0.02724 -0.06943,0.05457 -0.102669,0.08269 z m -0.687508,2.241377 c -0.01391,-0.07458 -0.0238,-0.14922 -0.03125,-0.226314 0.0072,0.07685 0.01732,0.15154 0.03125,0.226314 z m 0,-0.927016 c -0.01397,0.07493 -0.02408,0.149309 -0.03125,0.226315 0.0074,-0.07602 0.01735,-0.151769 0.03125,-0.226315 z m 4.692014,-1.231669 c 0.02616,0.02948 0.0511,0.0608 0.07589,0.0914 -0.02514,-0.03099 -0.04935,-0.06155 -0.07589,-0.0914 z m -2.910745,4.156337 c 0.05436,0.01793 0.109317,0.03327 0.165181,0.04787 -0.0559,-0.01465 -0.11078,-0.02987 -0.165181,-0.04787 z m 1.736627,0 c -0.05466,0.01801 -0.109002,0.03322 -0.165182,0.04787 0.05586,-0.0146 0.110815,-0.02994 0.165182,-0.04787 z"
       id="path5491"
       style="fill:#2e3436;fill-opacity:1;fill-rule:nonzero;stroke:none" />
    <path
       inkscape:connector-curvature="0"
       d="m 30.00601,27.609484 c -0.111983,0.03587 -0.219318,0.07776 -0.325936,0.12422 0.106483,-0.04677 0.214055,-0.0881 0.325936,-0.12422 z m 2.333014,0.06776 c 0.04613,0.01784 0.0921,0.03674 0.137234,0.05646 -0.04532,-0.01974 -0.09093,-0.0386 -0.137234,-0.05646 z m -3.042068,0.254091 c -0.07462,0.04417 -0.146497,0.09175 -0.217291,0.141159 0.07026,-0.04943 0.14326,-0.09687 0.217291,-0.141159 z m -0.217291,0.141159 c -0.08517,0.05945 -0.166713,0.119742 -0.245882,0.186336 0.07815,-0.06594 0.16195,-0.127289 0.245882,-0.186336 z m 4.317218,0.25409 c 0.04892,0.0438 0.09667,0.08906 0.142956,0.135515 -0.04627,-0.04626 -0.09404,-0.09191 -0.142956,-0.135515 z m -4.648872,0.01133 c -0.06277,0.05651 -0.124631,0.114171 -0.182982,0.17504 0.05849,-0.06101 0.120133,-0.118318 0.182982,-0.17504 z m -0.182982,0.17504 c -0.444675,0.463873 -0.759509,1.047768 -0.8806,1.699576 -3.36e-4,0.0019 3.4e-4,0.0038 0,0.0057 l 0,1.202691 c 0.183443,0.996884 0.813864,1.839252 1.681143,2.326331 l 3.425184,0 c 0.830963,-0.466683 1.44124,-1.259483 1.652553,-2.202107 l 0,-0.01133 0,-1.42855 c -0.09402,-0.426157 -0.267514,-0.824806 -0.508916,-1.1745 -0.187786,-0.248047 -0.405035,-0.427866 -0.640435,-0.525117 l -4.597411,0 c -0.04628,0.03533 -0.08893,0.07079 -0.131515,0.107279 z m -0.8806,2.907873 c -0.01782,-0.09676 -0.0305,-0.193595 -0.04003,-0.293614 0.0091,0.09969 0.02217,0.196603 0.04003,0.293614 z m 0,-1.20269 c -0.0179,0.09722 -0.03085,0.19371 -0.04003,0.293616 0.0095,-0.09864 0.02221,-0.1969 0.04003,-0.293616 z m 6.009798,-1.59794 c 0.0335,0.03824 0.06545,0.07888 0.09721,0.118581 -0.03221,-0.0402 -0.06322,-0.07987 -0.09721,-0.118581 z m -3.728246,5.392342 c 0.06964,0.02327 0.140018,0.04316 0.211572,0.0621 -0.0716,-0.01902 -0.141891,-0.03874 -0.211572,-0.0621 z m 2.224366,0 c -0.07002,0.02336 -0.139611,0.04309 -0.211572,0.0621 0.07155,-0.01894 0.141939,-0.03884 0.211572,-0.0621 z"
       id="path5493"
       style="opacity:0.23267326;fill:url(#radialGradient5891);fill-opacity:1;fill-rule:nonzero;stroke:none" />
    <path
       inkscape:connector-curvature="0"
       d="m 31.043875,28.469478 c -1.374046,-2e-6 -2.501974,1.01819 -2.648567,2.322662 -0.0061,0.05498 -0.01069,0.109952 -0.01321,0.165906 -0.0019,0.04005 -0.0067,0.07895 -0.0067,0.11945 0,0.0088 -8.9e-5,0.01776 0,0.02654 -8.9e-5,0.0088 0,0.01773 0,0.02655 8.07e-4,0.03953 0.0039,0.08038 0.0067,0.119451 0.0027,0.05595 0.0071,0.110928 0.01321,0.165907 0.146588,1.304472 1.274521,2.32266 2.648567,2.32266 1.374044,0 2.501976,-1.018188 2.648565,-2.32266 0.0061,-0.05498 0.01068,-0.109953 0.01321,-0.165907 0.0032,-0.04774 0.0061,-0.09757 0.0067,-0.145995 -4.93e-4,-0.04841 -0.0034,-0.09826 -0.0067,-0.145992 -0.0027,-0.05594 -0.0071,-0.110929 -0.01321,-0.165906 -0.146588,-1.304476 -1.274522,-2.322662 -2.648565,-2.322662 z"
       id="path5495"
       style="fill:#000000;fill-opacity:0.50543482;fill-rule:nonzero;stroke:none" />
    <path
       inkscape:connector-curvature="0"
       d="m 42.02571,30.677389 a 10.954457,10.815327 0 0 1 -21.908914,0 10.954457,10.815327 0 1 1 21.908914,0 z"
       id="path5497"
       style="fill:none;stroke:url(#radialGradient5851);stroke-width:1.64285731;stroke-linecap:round;stroke-linejoin:round;stroke-miterlimit:4;stroke-opacity:1;stroke-dasharray:none" />
    <path
       inkscape:connector-curvature="0"
       d="m 31.605399,20.901665 a 2.0960374,2.0743827 0 0 1 -4.192074,0 2.0960374,2.0743827 0 1 1 4.192074,0 z"
       id="path5499"
       style="fill:#2e3436;fill-opacity:1;fill-rule:evenodd;stroke:url(#linearGradient5853);stroke-width:1.60470963;stroke-linecap:butt;stroke-linejoin:miter;stroke-miterlimit:10;stroke-opacity:1;stroke-dasharray:none;stroke-dashoffset:0;marker:none;visibility:visible;display:inline;overflow:visible;enable-background:accumulate" />
    <path
       inkscape:connector-curvature="0"
       d="m 30.377603,20.90957 a 0.85334334,0.84452735 0 0 1 -1.706685,0 0.85334334,0.84452735 0 1 1 1.706685,0 z"
       id="path5501"
       style="opacity:0.34705882;fill:#000000;fill-opacity:1;fill-rule:evenodd;stroke:none;stroke-width:0.1;marker:none;visibility:visible;display:inline;overflow:visible;enable-background:accumulate" />
    <path
       inkscape:connector-curvature="0"
       d="m 28.416853,16.44536 a 0.8396895,0.8396895 0 1 1 -1.679379,0 0.8396895,0.8396895 0 1 1 1.679379,0 z"
       transform="matrix(0.72207967,0,0,0.71461977,9.9931098,9.8755424)"
       id="path5503"
       style="opacity:0.30588235;fill:#ffffff;fill-opacity:1;fill-rule:evenodd;stroke:none;stroke-width:0.1;marker:none;visibility:visible;display:inline;overflow:visible;filter:url(#filter9094);enable-background:accumulate" />
    <path
       inkscape:connector-curvature="0"
       d="m 25.529403,22.021375 a 1.3157898,1.2990785 0 0 1 -2.631579,0 1.3157898,1.2990785 0 1 1 2.631579,0 z"
       id="path5505"
       style="fill:#2e3436;fill-opacity:1;fill-rule:evenodd;stroke:url(#linearGradient5855);stroke-width:0.7781955;stroke-linecap:butt;stroke-linejoin:miter;stroke-miterlimit:10;stroke-opacity:1;stroke-dasharray:none;stroke-dashoffset:0;marker:none;visibility:visible;display:inline;overflow:visible;enable-background:accumulate" />
    <rect
       width="8.5837851"
       height="2.3041441"
       rx="1.5285513"
       ry="1.3068849"
       x="35.633526"
       y="19.755163"
       id="rect5507"
       style="fill:url(#linearGradient5880);fill-opacity:1;fill-rule:nonzero;stroke:url(#linearGradient5882);stroke-width:1.24786043;stroke-linecap:butt;stroke-linejoin:miter;stroke-miterlimit:4;stroke-opacity:1;stroke-dashoffset:0;marker:none;visibility:visible;display:inline;overflow:visible;font-family:Bitstream Vera Sans" />
    <path
       inkscape:connector-curvature="0"
       d="m 19.329722,17.852962 a 3.8861438,1.0167629 0 1 1 -7.772287,0 3.8861438,1.0167629 0 1 1 7.772287,0 z"
       id="path5511"
       style="fill:#2e3436;fill-opacity:1;fill-rule:evenodd;stroke:url(#radialGradient5861);stroke-width:0.81436872;stroke-linecap:butt;stroke-linejoin:miter;stroke-miterlimit:10;stroke-opacity:0.99607843;stroke-dasharray:none;stroke-dashoffset:0;marker:none;visibility:visible;display:inline;overflow:visible;enable-background:accumulate" />
    <path
       inkscape:connector-curvature="0"
       d="m 18.571249,17.462436 a 3.1250006,0.78610868 0 0 1 -6.250001,0 3.1250006,0.78610868 0 1 1 6.250001,0 z"
       id="path5513"
       style="fill:url(#radialGradient5863);fill-opacity:1;fill-rule:evenodd;stroke:none;stroke-width:0.37656182;marker:none;visibility:visible;display:inline;overflow:visible;enable-background:accumulate" />
    <rect
       width="1.5030577"
       height="0.4949207"
       rx="0.84115821"
       ry="0.91424775"
       x="14.572948"
       y="17.622915"
       id="rect5515"
       style="fill:#2e3436;fill-opacity:1;fill-rule:nonzero;stroke:url(#radialGradient5874);stroke-width:0.49643052;stroke-linecap:butt;stroke-linejoin:round;stroke-miterlimit:0;stroke-opacity:1;stroke-dasharray:none" />
    <rect
       width="40.624146"
       height="23.653196"
       rx="2.1615233"
       ry="2.1615233"
       x="4.509181"
       y="18.850786"
       id="rect5519"
       style="opacity:0.4;fill:none;stroke:url(#linearGradient5870);stroke-width:1.64422536;stroke-linecap:round;stroke-linejoin:round;stroke-miterlimit:4;stroke-opacity:1;stroke-dasharray:none" />
    <path
       inkscape:connector-curvature="0"
       d="m 35.698121,31.504904 c 0,2.5463 -2.090735,4.610482 -4.669789,4.610482 -2.579051,0 -4.669788,-2.064182 -4.669788,-4.610482 0,-2.546297 2.090737,-4.61048 4.669788,-4.61048 2.579054,0 4.669789,2.064183 4.669789,4.61048 z"
       id="path10013"
       style="opacity:0.8;fill:url(#radialGradient6891);fill-opacity:1;fill-rule:evenodd;stroke:none;stroke-width:0.94462639;marker:none;visibility:visible;display:inline;overflow:visible;enable-background:accumulate" />
    <rect
       width="2.0833335"
       height="10.28437"
       rx="1.6428571"
       ry="1.6428571"
       x="11.27958"
       y="26.563637"
       id="rect5950"
       style="opacity:0.5;fill:#eeeeec;fill-opacity:1;fill-rule:nonzero;stroke:none;stroke-width:1;marker:none;visibility:visible;display:inline;overflow:visible;enable-background:accumulate" />
    <rect
       width="2.0833335"
       height="8.2274961"
       rx="1.6428571"
       ry="1.6428571"
       x="15.446249"
       y="27.592073"
       id="rect5952"
       style="opacity:0.20000000000000001;fill:#606060;fill-opacity:1;fill-rule:nonzero;stroke:none;stroke-width:1;marker:none;visibility:visible;display:inline;overflow:visible;enable-background:accumulate" />
  </g>
</svg>
