<?xml version="1.0" encoding="UTF-8" standalone="no"?>
<!-- Created with Inkscape (http://www.inkscape.org/) -->

<svg
   xmlns:dc="http://purl.org/dc/elements/1.1/"
   xmlns:cc="http://creativecommons.org/ns#"
   xmlns:rdf="http://www.w3.org/1999/02/22-rdf-syntax-ns#"
   xmlns:svg="http://www.w3.org/2000/svg"
   xmlns="http://www.w3.org/2000/svg"
   xmlns:xlink="http://www.w3.org/1999/xlink"
   xmlns:sodipodi="http://sodipodi.sourceforge.net/DTD/sodipodi-0.dtd"
   xmlns:inkscape="http://www.inkscape.org/namespaces/inkscape"
   width="64"
   height="64"
   id="svg2"
   version="1.1"
   inkscape:version="0.48.4 r9939"
   sodipodi:docname="audacity.svg">
  <defs
     id="defs4">
    <linearGradient
       id="linearGradient4011">
      <stop
         id="stop4013"
         offset="0"
         style="stop-color:#4781d1;stop-opacity:1" />
      <stop
         id="stop4015"
         offset="1"
         style="stop-color:#99bcea;stop-opacity:1" />
    </linearGradient>
    <linearGradient
       id="linearGradient4005">
      <stop
         style="stop-color:#5291e7;stop-opacity:1"
         offset="0"
         id="stop4007" />
      <stop
         style="stop-color:#a6c2ea;stop-opacity:1"
         offset="1"
         id="stop4009" />
    </linearGradient>
    <linearGradient
       inkscape:collect="always"
       xlink:href="#linearGradient4011"
       id="linearGradient3252"
       gradientUnits="userSpaceOnUse"
       x1="58.241989"
       y1="51.761791"
       x2="58.241989"
       y2="2.5917079" />
    <linearGradient
       inkscape:collect="always"
       xlink:href="#linearGradient4005"
       id="linearGradient3254"
       gradientUnits="userSpaceOnUse"
       x1="43.732574"
       y1="55.035198"
       x2="43.732574"
       y2="-0.76828581" />
  </defs>
  <sodipodi:namedview
     id="base"
     pagecolor="#ffffff"
     bordercolor="#666666"
     borderopacity="1.0"
     inkscape:pageopacity="0.0"
     inkscape:pageshadow="2"
     inkscape:zoom="1.4142136"
     inkscape:cx="21.397472"
     inkscape:cy="30.540474"
     inkscape:document-units="px"
     inkscape:current-layer="layer1"
     showgrid="false"
     inkscape:window-width="946"
     inkscape:window-height="663"
     inkscape:window-x="253"
     inkscape:window-y="27"
     inkscape:window-maximized="0"
     showguides="true"
     inkscape:guide-bbox="true" />
  <metadata
     id="metadata7">
    <rdf:RDF>
      <cc:Work
         rdf:about="">
        <dc:format>image/svg+xml</dc:format>
        <dc:type
           rdf:resource="http://purl.org/dc/dcmitype/StillImage" />
        <dc:title />
      </cc:Work>
    </rdf:RDF>
  </metadata>
  <g
     inkscape:label="Layer 1"
     inkscape:groupmode="layer"
     id="layer1"
     transform="translate(0,-988.36218)">
    <path
       transform="matrix(0.99408283,0,0,0.99408283,-14.331361,993.48644)"
       d="m 76.785715,27.035715 c 0,16.667165 -13.511407,30.178572 -30.178572,30.178572 -16.667165,0 -30.178571,-13.511407 -30.178571,-30.178572 0,-16.667165 13.511406,-30.1785716 30.178571,-30.1785716 16.667165,0 30.178572,13.5114066 30.178572,30.1785716 z"
       sodipodi:ry="30.178572"
       sodipodi:rx="30.178572"
       sodipodi:cy="27.035715"
       sodipodi:cx="46.607143"
       id="path3232"
       style="fill:url(#linearGradient3252);fill-opacity:1;stroke:none"
       sodipodi:type="arc" />
    <path
       sodipodi:type="arc"
       style="fill:url(#linearGradient3254);fill-opacity:1;stroke:#ffffff;stroke-width:1.16071439;stroke-miterlimit:4;stroke-opacity:1;stroke-dasharray:none"
       id="path3234"
       sodipodi:cx="46.607143"
       sodipodi:cy="27.035715"
       sodipodi:rx="30.178572"
       sodipodi:ry="30.178572"
       d="m 76.785715,27.035715 c 0,16.667165 -13.511407,30.178572 -30.178572,30.178572 -16.667165,0 -30.178571,-13.511407 -30.178571,-30.178572 0,-16.667165 13.511406,-30.1785716 30.178571,-30.1785716 16.667165,0 30.178572,13.5114066 30.178572,30.1785716 z"
       transform="matrix(0.86153845,0,0,0.86153845,-8.1538461,997.06987)" />
    <path
       style="fill:#ffffff;fill-opacity:1;stroke:none"
       d="m 32,1001.1092 c -9.03018,0 -16.565696,6.4134 -16.794643,14.1756 l -1.014881,0 -1.047619,0 c -1.741143,0 -3.142857,1.4017 -3.142857,3.1429 l 0,7.3333 c 0,1.7411 1.401714,3.1428 3.142857,3.1428 l 1.047619,0 3.142857,0 0,-3.1428 0,-7.3333 0,-2.7828 c 3e-6,-6.8926 6.690156,-12.6696 14.666667,-12.6696 7.976512,0 14.666669,5.7769 14.666667,12.6696 l 0,2.7828 0,7.3333 0,3.1428 3.142857,0 1.047619,0 c 1.741143,0 3.142857,-1.4017 3.142857,-3.1428 l 0,-7.3333 c 0,-1.7412 -1.401714,-3.1429 -3.142857,-3.1429 l -1.047619,0 -1.014881,0 C 48.565701,1007.5226 41.03018,1001.1092 32,1001.1092 z m -4.877976,9.9196 -1.604167,11 -0.916667,-5.5654 -1.178571,5.5654 -1.440476,-8.2827 -1.538691,9.9524 1.538691,8.9702 1.440476,-7.3006 1.178571,4.9435 0.916667,-4.9435 1.604167,9.4941 1.505952,-9.4941 1.964286,8.3155 0.752976,-8.3155 1.178572,4.4197 1.047619,-4.4197 1.53869,4.8125 1.047619,-4.8125 1.669643,6.6131 1.440476,-6.6131 2.520833,8.6102 1.767858,-10.2798 -1.767858,-11.8185 -2.520833,10.1488 -1.440476,-7.5952 -1.669643,7.5952 -1.047619,-7.5952 -1.53869,7.5952 -1.047619,-7.9553 -1.178572,7.9553 -0.752976,-10.3125 -1.964286,10.3125 -1.505952,-11 z m -9.264881,4.256 0,13.619 1.047619,0 0,-13.619 -1.047619,0 z m 27.238095,0 0,13.619 1.047619,0 0,-13.619 -1.047619,0 z"
       id="path3236"
       inkscape:connector-curvature="0" />
  </g>
</svg>
