<?xml version="1.0" encoding="UTF-8" standalone="no"?>
<!-- Created with Inkscape (http://www.inkscape.org/) -->

<svg
   xmlns:dc="http://purl.org/dc/elements/1.1/"
   xmlns:cc="http://creativecommons.org/ns#"
   xmlns:rdf="http://www.w3.org/1999/02/22-rdf-syntax-ns#"
   xmlns:svg="http://www.w3.org/2000/svg"
   xmlns="http://www.w3.org/2000/svg"
   xmlns:xlink="http://www.w3.org/1999/xlink"
   xmlns:sodipodi="http://sodipodi.sourceforge.net/DTD/sodipodi-0.dtd"
   xmlns:inkscape="http://www.inkscape.org/namespaces/inkscape"
   version="1.0"
   width="64.000084"
   height="64.000084"
   id="svg3506"
   sodipodi:version="0.32"
   inkscape:version="0.48.4 r9939"
   sodipodi:docname="calibre.svg"
   inkscape:output_extension="org.inkscape.output.svg.inkscape">
  <metadata
     id="metadata61">
    <rdf:RDF>
      <cc:Work
         rdf:about="">
        <dc:format>image/svg+xml</dc:format>
        <dc:type
           rdf:resource="http://purl.org/dc/dcmitype/StillImage" />
        <dc:title />
      </cc:Work>
    </rdf:RDF>
  </metadata>
  <sodipodi:namedview
     inkscape:window-height="706"
     inkscape:window-width="718"
     inkscape:pageshadow="2"
     inkscape:pageopacity="0.0"
     guidetolerance="10.0"
     gridtolerance="10.0"
     objecttolerance="10.0"
     borderopacity="1.0"
     bordercolor="#666666"
     pagecolor="#ffffff"
     id="base"
     showgrid="false"
     inkscape:zoom="1.4142136"
     inkscape:cx="56.343484"
     inkscape:cy="90.72537"
     inkscape:window-x="0"
     inkscape:window-y="27"
     inkscape:current-layer="svg3506"
     inkscape:window-maximized="0" />
  <defs
     id="defs3508">
    <linearGradient
       id="linearGradient3205">
      <stop
         id="stop3207"
         style="stop-color:#4d4d4d;stop-opacity:1"
         offset="0" />
      <stop
         id="stop3209"
         style="stop-color:#4d4d4d;stop-opacity:0.51694918"
         offset="1" />
    </linearGradient>
    <linearGradient
       id="linearGradient3198">
      <stop
         id="stop3200"
         style="stop-color:#ffffff;stop-opacity:1"
         offset="0" />
      <stop
         id="stop3202"
         style="stop-color:#ffffff;stop-opacity:0"
         offset="1" />
    </linearGradient>
    <linearGradient
       id="linearGradient5060">
      <stop
         id="stop5062"
         style="stop-color:#000000;stop-opacity:1"
         offset="0" />
      <stop
         id="stop5064"
         style="stop-color:#000000;stop-opacity:0"
         offset="1" />
    </linearGradient>
    <linearGradient
       id="linearGradient5048">
      <stop
         id="stop5050"
         style="stop-color:#000000;stop-opacity:0"
         offset="0" />
      <stop
         id="stop5056"
         style="stop-color:#000000;stop-opacity:1"
         offset="0.5" />
      <stop
         id="stop5052"
         style="stop-color:#000000;stop-opacity:0"
         offset="1" />
    </linearGradient>
    <linearGradient
       id="linearGradient3319">
      <stop
         id="stop3321"
         style="stop-color:#df9375;stop-opacity:1;"
         offset="0" />
      <stop
         id="stop3323"
         style="stop-color:#51160c;stop-opacity:1;"
         offset="1" />
    </linearGradient>
    <linearGradient
       id="linearGradient8967">
      <stop
         id="stop8969"
         style="stop-color:#a9512d;stop-opacity:1;"
         offset="0" />
      <stop
         id="stop8971"
         style="stop-color:#821900;stop-opacity:1;"
         offset="1" />
    </linearGradient>
    <linearGradient
       id="linearGradient8978">
      <stop
         id="stop8980"
         style="stop-color:#483632;stop-opacity:0.99607843;"
         offset="0" />
      <stop
         id="stop8982"
         style="stop-color:#1f0d09;stop-opacity:1;"
         offset="1" />
    </linearGradient>
    <linearGradient
       id="linearGradient3913">
      <stop
         id="stop3915"
         style="stop-color:#4e555a;stop-opacity:1"
         offset="0" />
      <stop
         id="stop3917"
         style="stop-color:#151c20;stop-opacity:1"
         offset="0.15977758" />
      <stop
         id="stop3919"
         style="stop-color:#9b876c;stop-opacity:1"
         offset="0.1672256" />
      <stop
         id="stop3921"
         style="stop-color:#9b876c;stop-opacity:1"
         offset="0.75216067" />
      <stop
         id="stop3923"
         style="stop-color:#9b876c;stop-opacity:1"
         offset="0.93860334" />
      <stop
         id="stop3925"
         style="stop-color:#c2c2c2;stop-opacity:1"
         offset="0.94891226" />
      <stop
         id="stop3927"
         style="stop-color:#c2c2c2;stop-opacity:1"
         offset="1" />
    </linearGradient>
    <linearGradient
       id="linearGradient2346">
      <stop
         id="stop2348"
         style="stop-color:#eeeeee;stop-opacity:1"
         offset="0" />
      <stop
         id="stop2350"
         style="stop-color:#d9d9da;stop-opacity:1"
         offset="1" />
    </linearGradient>
    <linearGradient
       inkscape:collect="always"
       xlink:href="#linearGradient2346"
       id="linearGradient2440"
       gradientUnits="userSpaceOnUse"
       gradientTransform="matrix(1.3499326,0,0,2.006728,1.228225,-5.425993)"
       x1="24.62738"
       y1="3.1234391"
       x2="24.640038"
       y2="4.882647" />
    <linearGradient
       inkscape:collect="always"
       xlink:href="#linearGradient3913"
       id="linearGradient2442"
       gradientUnits="userSpaceOnUse"
       gradientTransform="matrix(0.9630315,0,0,0.9748253,2.4797764,-0.222335)"
       x1="5.7542129"
       y1="5.2438145"
       x2="55.495323"
       y2="0.065301567" />
    <linearGradient
       inkscape:collect="always"
       xlink:href="#linearGradient3198"
       id="linearGradient2445"
       gradientUnits="userSpaceOnUse"
       gradientTransform="matrix(1.3560131,0,0,1.3439274,-0.3941857,-0.587648)"
       x1="28.25223"
       y1="4.0340509"
       x2="40.977692"
       y2="24.620178" />
    <linearGradient
       inkscape:collect="always"
       xlink:href="#linearGradient3205"
       id="linearGradient2448"
       gradientUnits="userSpaceOnUse"
       x1="13.832294"
       y1="-9.8322983"
       x2="13.832294"
       y2="44.167702"
       gradientTransform="translate(0.1677057,15.832383)" />
    <linearGradient
       inkscape:collect="always"
       xlink:href="#linearGradient8978"
       id="linearGradient2451"
       gradientUnits="userSpaceOnUse"
       gradientTransform="matrix(1.1428572,0,0,1.3809523,2.2857143,-2.523725)"
       x1="5.4800777"
       y1="25.019028"
       x2="8.5000601"
       y2="25.019028" />
    <linearGradient
       inkscape:collect="always"
       xlink:href="#linearGradient8967"
       id="linearGradient2454"
       gradientUnits="userSpaceOnUse"
       gradientTransform="matrix(1.3179628,0,0,1.3995242,2.1129806,-3.187778)"
       x1="16.1015"
       y1="9.8888979"
       x2="38.491451"
       y2="45.999996" />
    <linearGradient
       inkscape:collect="always"
       xlink:href="#linearGradient3319"
       id="linearGradient2456"
       gradientUnits="userSpaceOnUse"
       gradientTransform="matrix(0.9482529,0,0,1.0069351,2.1559052,-0.454453)"
       x1="22.333973"
       y1="11.029935"
       x2="53.453438"
       y2="61.220222" />
    <linearGradient
       inkscape:collect="always"
       xlink:href="#linearGradient5048"
       id="linearGradient2462"
       gradientUnits="userSpaceOnUse"
       gradientTransform="matrix(7.04142e-2,0,0,1.537476e-2,-1.4497047,38.629007)"
       x1="302.85715"
       y1="366.64789"
       x2="302.85715"
       y2="609.50507" />
    <radialGradient
       inkscape:collect="always"
       xlink:href="#linearGradient5060"
       id="radialGradient2464"
       gradientUnits="userSpaceOnUse"
       gradientTransform="matrix(-2.409717e-2,0,0,1.537476e-2,21.522412,38.629039)"
       cx="605.71429"
       cy="486.64789"
       fx="605.71429"
       fy="486.64789"
       r="117.14286" />
    <radialGradient
       inkscape:collect="always"
       xlink:href="#linearGradient5060"
       id="radialGradient2466"
       gradientUnits="userSpaceOnUse"
       gradientTransform="matrix(2.409717e-2,0,0,1.537476e-2,26.477584,38.629039)"
       cx="605.71429"
       cy="486.64789"
       fx="605.71429"
       fy="486.64789"
       r="117.14286" />
    <filter
       color-interpolation-filters="sRGB"
       inkscape:collect="always"
       id="filter4103"
       x="-0.18308771"
       width="1.3661754"
       y="-0.029915912"
       height="1.0598319">
      <feGaussianBlur
         inkscape:collect="always"
         stdDeviation="0.69238979"
         id="feGaussianBlur4105" />
    </filter>
  </defs>
  <g
     style="display:inline"
     id="g2877"
     transform="matrix(1.274837,0,0,1.274837,1.3932846,1.8079088)">
    <rect
       style="opacity:0.40206185;fill:url(#linearGradient2462);fill-opacity:1;fill-rule:nonzero;stroke:none;stroke-width:1;marker:none;visibility:visible;display:inline;overflow:visible"
       id="rect2879"
       y="44.266129"
       x="7"
       height="3.7338707"
       width="34" />
    <path
       style="opacity:0.40206185;fill:url(#radialGradient2464);fill-opacity:1;fill-rule:nonzero;stroke:none;stroke-width:1;marker:none;visibility:visible;display:inline;overflow:visible"
       id="path2881"
       d="M 7,44.266291 C 7,44.266291 7,47.999956 7,47.999956 C 5.7590552,48.006956 4,47.163431 4,46.132883 C 4,45.102336 5.3848007,44.266292 7,44.266291 L 7,44.266291 z" />
    <path
       style="opacity:0.40206185;fill:url(#radialGradient2466);fill-opacity:1;fill-rule:nonzero;stroke:none;stroke-width:1;marker:none;visibility:visible;display:inline;overflow:visible"
       id="path2883"
       d="M 41,44.266291 C 41,44.266291 41,47.999956 41,47.999956 C 42.240944,48.006956 44,47.163431 44,46.132883 C 44,45.102336 42.615199,44.266292 41,44.266291 L 41,44.266291 z" />
  </g>
  <rect
     style="fill:url(#linearGradient2454);fill-opacity:1;stroke:url(#linearGradient2456);stroke-width:1.01904118;stroke-linecap:round;stroke-linejoin:round;stroke-miterlimit:0;stroke-dasharray:none;stroke-dashoffset:0;stroke-opacity:1;display:inline"
     id="rect2719"
     y="4.5096054"
     x="9.5095205"
     ry="0.33013448"
     rx="0.30968896"
     height="55.980957"
     width="45.980957" />
  <path
     style="fill:url(#linearGradient2451);fill-opacity:1;stroke:none;display:inline"
     id="path2721"
     d="M 8,3.000084 C 11.301817,5.026624 14.257556,4.186185 16,4.395293 L 16,61.000084 C 16,61.000084 10.938478,61.000084 9.6331615,61.000084 C 9.6331615,61.000084 8,61.000084 8,59.376644 L 8,3.000084 L 8,3.000084 z" />
  <rect
     style="fill:url(#linearGradient2448);fill-opacity:1;stroke:none;display:inline"
     id="rect2725"
     y="6.0000849"
     x="13"
     ry="0.79861647"
     rx="0.64036405"
     height="54"
     width="2" />
  <path
     style="opacity:0.4;fill:none;fill-rule:evenodd;stroke:url(#linearGradient2445);stroke-width:0.96682507;stroke-linecap:square;stroke-linejoin:round;stroke-miterlimit:4;stroke-dasharray:none;stroke-opacity:1;display:inline"
     id="path4743"
     d="M 16.483412,5.527866 L 54.516586,5.483496 L 54.516586,59.51667" />
  <path
     style="fill:url(#linearGradient2440);fill-opacity:1;stroke:url(#linearGradient2442);stroke-width:1.01739752;stroke-linecap:butt;stroke-linejoin:round;stroke-miterlimit:0;stroke-dasharray:none;stroke-dashoffset:0;stroke-opacity:1;display:inline"
     id="path2723"
     d="M 54.491303,4.042504 C 54.094135,2.749252 54.34168,1.742184 54.122319,0.508782 C 54.122319,0.508782 15.682646,0.508782 13.465146,0.508782 C 11.353891,0.508782 9.2678911,0.809273 8.6792888,2.031947 C 8.6461295,2.10083 8.6094867,2.170247 8.5890047,2.245191 C 8.0489746,3.505607 10.285509,4.491385 13.705109,4.491385 C 16.048103,4.491385 14.895254,4.491385 15.741887,4.491385" />
  <path
     style="fill:#a18d72;fill-opacity:1;fill-rule:evenodd;stroke:#a18d72;stroke-width:0.99999988px;stroke-linecap:butt;stroke-linejoin:miter;stroke-opacity:1;display:inline"
     id="path4494"
     d="M 54.750029,4.500084 L 15.749971,4.500084" />
  <g
     transform="matrix(0.51483214,0,0,0.51480362,74.038878,31.303558)"
     style="font-size:12px;font-style:normal;font-variant:normal;font-weight:normal;font-stretch:normal;line-height:125%;letter-spacing:0px;word-spacing:0px;fill:#000000;fill-opacity:1;stroke:none;filter:url(#filter4103);font-family:Serif;-inkscape-font-specification:Serif"
     id="text4095">
    <path
       d="m -97.986336,-18.446289 c -0.25782,0.816408 -0.691414,1.435548 -1.300781,1.857422 -0.605475,0.417969 -1.373053,0.626953 -2.302733,0.626953 -0.57032,0 -1.09961,-0.09766 -1.58789,-0.292969 -0.48829,-0.195312 -0.92188,-0.482421 -1.30078,-0.861328 -0.4375,-0.437499 -0.76368,-0.933592 -0.97852,-1.488281 -0.21094,-0.558591 -0.31641,-1.18945 -0.31641,-1.892578 0,-1.35937 0.39258,-2.455072 1.17774,-3.28711 0.78515,-0.835929 1.82031,-1.253897 3.10547,-1.253906 0.47656,9e-6 0.98437,0.06251 1.523435,0.1875 0.539056,0.125009 1.119134,0.314462 1.740235,0.568359 l 0,2.015625 -0.66211,0 c -0.144538,-0.734368 -0.435554,-1.275383 -0.873046,-1.623046 -0.433604,-0.347649 -1.042974,-0.521477 -1.828124,-0.521485 -0.9336,8e-6 -1.64063,0.332039 -2.1211,0.996094 -0.48047,0.660163 -0.7207,1.632818 -0.7207,2.917969 0,1.281253 0.24023,2.253908 0.7207,2.917968 0.48047,0.660157 1.1875,0.990235 2.1211,0.990235 0.65234,0 1.18945,-0.154296 1.611327,-0.462891 0.421868,-0.312499 0.726555,-0.777342 0.914062,-1.394531 l 1.078125,0"
       id="path3093"
       inkscape:connector-curvature="0" />
    <path
       d="m -94.85743,-19.301758 3.210938,0 -1.605469,-4.160156 -1.605469,4.160156 m -2.472656,3.169922 0,-0.621094 0.767578,0 3.117188,-8.126953 0.984375,0 3.123047,8.126953 0.861328,0 0,0.621094 -3.181641,0 0,-0.621094 0.972656,0 -0.732421,-1.921875 -3.679688,0 -0.732422,1.921875 0.960938,0 0,0.621094 -2.460938,0"
       id="path3095"
       inkscape:connector-curvature="0" />
    <path
       d="m -87.925789,-16.131836 0,-0.621094 1.113281,0 0,-7.5 -1.113281,0 0,-0.626953 3.416016,0 0,0.626953 -1.113282,0 0,7.400391 3.996094,0 0,-1.464844 0.720703,0 0,2.185547 -7.019531,0"
       id="path3097"
       inkscape:connector-curvature="0" />
    <path
       d="m -77.654305,-16.75293 1.113282,0 0,0.621094 -3.416016,0 0,-0.621094 1.113281,0 0,-7.5 -1.113281,0 0,-0.626953 3.416016,0 0,0.626953 -1.113282,0 0,7.5"
       id="path3099"
       inkscape:connector-curvature="0" />
    <path
       d="m -72.91993,-16.75293 1.751954,0 c 0.703119,10e-7 1.216791,-0.152343 1.541015,-0.457031 0.324212,-0.304686 0.486322,-0.789061 0.486328,-1.453125 -6e-6,-0.660153 -0.162116,-1.140621 -0.486328,-1.441406 -0.320318,-0.304683 -0.83399,-0.457027 -1.541015,-0.457031 l -1.751954,0 0,3.808593 m 0,-4.429687 1.488282,0 c 0.64062,5e-6 1.107416,-0.123042 1.40039,-0.369141 0.296869,-0.246088 0.445307,-0.634759 0.445313,-1.166015 -6e-6,-0.53515 -0.148444,-0.923821 -0.445313,-1.166016 -0.292974,-0.246086 -0.75977,-0.369133 -1.40039,-0.369141 l -1.488282,0 0,3.070313 m -2.302734,5.050781 0,-0.621094 1.113281,0 0,-7.5 -1.113281,0 0,-0.626953 4.318359,0 c 0.882807,9e-6 1.546869,0.181649 1.992188,0.544922 0.449211,0.359383 0.67382,0.898445 0.673828,1.617188 -8e-6,0.519537 -0.156257,0.933599 -0.46875,1.242187 -0.3086,0.308599 -0.761725,0.498052 -1.359375,0.568359 0.742181,0.09375 1.30468,0.332036 1.6875,0.714844 0.386711,0.37891 0.58007,0.888675 0.580078,1.529297 -8e-6,0.867189 -0.273445,1.50586 -0.820312,1.916016 -0.546882,0.410156 -1.400397,0.615234 -2.560547,0.615234 l -4.042969,0"
       id="path3101"
       inkscape:connector-curvature="0" />
    <path
       d="m -61.324226,-20.473633 c 0.273431,0.07422 0.507806,0.201176 0.703125,0.38086 0.199212,0.175785 0.376946,0.423831 0.533203,0.74414 l 1.271484,2.595703 1.066406,0 0,0.621094 -2.0625,0 -1.365234,-2.783203 c -0.261724,-0.539059 -0.501959,-0.886715 -0.720703,-1.042969 -0.218755,-0.160152 -0.519536,-0.24023 -0.902344,-0.240234 l -1.306641,0 0,3.445312 1.236329,0 0,0.621094 -3.539063,0 0,-0.621094 1.113281,0 0,-7.5 -1.113281,0 0,-0.626953 4.435547,0 c 0.851557,9e-6 1.507806,0.203134 1.96875,0.609375 0.464836,0.406258 0.697258,0.982429 0.697266,1.728516 -8e-6,0.601568 -0.16993,1.076177 -0.509766,1.423828 -0.335944,0.343755 -0.837897,0.558598 -1.505859,0.644531 m -2.783204,-0.351562 1.728516,0 c 0.589839,4e-6 1.025385,-0.138667 1.306641,-0.416016 0.281243,-0.281245 0.421868,-0.714838 0.421875,-1.300781 -7e-6,-0.585931 -0.140632,-1.017571 -0.421875,-1.294922 -0.281256,-0.277336 -0.716802,-0.416008 -1.306641,-0.416016 l -1.728516,0 0,3.427735"
       id="path3103"
       inkscape:connector-curvature="0" />
    <path
       d="m -57.363289,-16.131836 0,-0.621094 1.113281,0 0,-7.5 -1.113281,0 0,-0.626953 7.042969,0 0,1.945313 -0.720703,0 0,-1.22461 -4.019532,0 0,2.929688 2.865235,0 0,-1.095703 0.720703,0 0,2.90625 -0.720703,0 0,-1.095703 -2.865235,0 0,3.662109 4.113282,0 0,-1.224609 0.720703,0 0,1.945312 -7.136719,0"
       id="path3105"
       inkscape:connector-curvature="0" />
  </g>
  <g
     transform="matrix(0.51483214,0,0,0.51480362,64.257068,10.19661)"
     style="font-size:12px;font-style:normal;font-variant:normal;font-weight:normal;font-stretch:normal;line-height:125%;letter-spacing:0px;word-spacing:0px;fill:#ffcd44;fill-opacity:1;stroke:none;font-family:Serif;-inkscape-font-specification:Serif"
     id="text4079">
    <path
       d="m -78.986336,22.553711 c -0.25782,0.816408 -0.691414,1.435548 -1.300781,1.857422 -0.605475,0.417969 -1.373053,0.626953 -2.302734,0.626953 -0.570317,0 -1.099614,-0.09766 -1.587891,-0.292969 -0.488284,-0.195312 -0.921877,-0.482421 -1.300781,-0.861328 -0.437502,-0.437499 -0.763673,-0.933592 -0.978516,-1.488281 -0.210938,-0.558591 -0.316407,-1.18945 -0.316406,-1.892578 -1e-6,-1.35937 0.392577,-2.455072 1.177734,-3.28711 0.785154,-0.835929 1.820309,-1.253897 3.105469,-1.253906 0.476557,9e-6 0.984369,0.06251 1.523437,0.1875 0.539056,0.125009 1.119134,0.314462 1.740235,0.568359 l 0,2.015625 -0.66211,0 c -0.144538,-0.734368 -0.435554,-1.275383 -0.873046,-1.623046 -0.4336,-0.347649 -1.042975,-0.521477 -1.828125,-0.521485 -0.933598,8e-6 -1.640629,0.332039 -2.121094,0.996094 -0.480471,0.660163 -0.720705,1.632818 -0.720703,2.917969 -2e-6,1.281253 0.240232,2.253908 0.720703,2.917968 0.480465,0.660157 1.187496,0.990235 2.121094,0.990235 0.652338,0 1.189447,-0.154296 1.611328,-0.462891 0.421868,-0.312499 0.726555,-0.777342 0.914062,-1.394531 l 1.078125,0"
       id="path3108"
       inkscape:connector-curvature="0" />
    <path
       d="m -75.85743,21.698242 3.210938,0 -1.605469,-4.160156 -1.605469,4.160156 m -2.472656,3.169922 0,-0.621094 0.767578,0 3.117188,-8.126953 0.984375,0 3.123047,8.126953 0.861328,0 0,0.621094 -3.181641,0 0,-0.621094 0.972656,0 -0.732421,-1.921875 -3.679688,0 -0.732422,1.921875 0.960938,0 0,0.621094 -2.460938,0"
       id="path3110"
       inkscape:connector-curvature="0" />
    <path
       d="m -68.925789,24.868164 0,-0.621094 1.113281,0 0,-7.5 -1.113281,0 0,-0.626953 3.416016,0 0,0.626953 -1.113282,0 0,7.400391 3.996094,0 0,-1.464844 0.720703,0 0,2.185547 -7.019531,0"
       id="path3112"
       inkscape:connector-curvature="0" />
    <path
       d="m -58.654305,24.24707 1.113282,0 0,0.621094 -3.416016,0 0,-0.621094 1.113281,0 0,-7.5 -1.113281,0 0,-0.626953 3.416016,0 0,0.626953 -1.113282,0 0,7.5"
       id="path3114"
       inkscape:connector-curvature="0" />
    <path
       d="m -53.91993,24.24707 1.751954,0 c 0.703119,10e-7 1.216791,-0.152343 1.541015,-0.457031 0.324212,-0.304686 0.486322,-0.789061 0.486328,-1.453125 -6e-6,-0.660153 -0.162116,-1.140621 -0.486328,-1.441406 -0.320318,-0.304683 -0.83399,-0.457027 -1.541015,-0.457031 l -1.751954,0 0,3.808593 m 0,-4.429687 1.488282,0 c 0.64062,5e-6 1.107416,-0.123042 1.40039,-0.369141 0.296869,-0.246088 0.445307,-0.634759 0.445313,-1.166015 -6e-6,-0.53515 -0.148444,-0.923821 -0.445313,-1.166016 -0.292974,-0.246086 -0.75977,-0.369133 -1.40039,-0.369141 l -1.488282,0 0,3.070313 m -2.302734,5.050781 0,-0.621094 1.113281,0 0,-7.5 -1.113281,0 0,-0.626953 4.318359,0 c 0.882807,9e-6 1.546869,0.181649 1.992188,0.544922 0.449211,0.359383 0.67382,0.898445 0.673828,1.617188 -8e-6,0.519537 -0.156257,0.933599 -0.46875,1.242187 -0.3086,0.308599 -0.761725,0.498052 -1.359375,0.568359 0.742181,0.09375 1.30468,0.332036 1.6875,0.714844 0.386711,0.37891 0.58007,0.888675 0.580078,1.529297 -8e-6,0.867189 -0.273445,1.50586 -0.820312,1.916016 -0.546882,0.410156 -1.400397,0.615234 -2.560547,0.615234 l -4.042969,0"
       id="path3116"
       inkscape:connector-curvature="0" />
    <path
       d="m -42.324226,20.526367 c 0.273431,0.07422 0.507806,0.201176 0.703125,0.38086 0.199212,0.175785 0.376946,0.423831 0.533203,0.74414 l 1.271484,2.595703 1.066406,0 0,0.621094 -2.0625,0 -1.365234,-2.783203 c -0.261724,-0.539059 -0.501959,-0.886715 -0.720703,-1.042969 -0.218755,-0.160152 -0.519536,-0.24023 -0.902344,-0.240234 l -1.306641,0 0,3.445312 1.236329,0 0,0.621094 -3.539063,0 0,-0.621094 1.113281,0 0,-7.5 -1.113281,0 0,-0.626953 4.435547,0 c 0.851557,9e-6 1.507806,0.203134 1.96875,0.609375 0.464836,0.406258 0.697258,0.982429 0.697266,1.728516 -8e-6,0.601568 -0.16993,1.076177 -0.509766,1.423828 -0.335944,0.343755 -0.837897,0.558598 -1.505859,0.644531 m -2.783204,-0.351562 1.728516,0 c 0.589839,4e-6 1.025385,-0.138667 1.306641,-0.416016 0.281243,-0.281245 0.421868,-0.714838 0.421875,-1.300781 -7e-6,-0.585931 -0.140632,-1.017571 -0.421875,-1.294922 -0.281256,-0.277336 -0.716802,-0.416008 -1.306641,-0.416016 l -1.728516,0 0,3.427735"
       id="path3118"
       inkscape:connector-curvature="0" />
    <path
       d="m -38.363289,24.868164 0,-0.621094 1.113281,0 0,-7.5 -1.113281,0 0,-0.626953 7.042969,0 0,1.945313 -0.720703,0 0,-1.22461 -4.019532,0 0,2.929688 2.865235,0 0,-1.095703 0.720703,0 0,2.90625 -0.720703,0 0,-1.095703 -2.865235,0 0,3.662109 4.113282,0 0,-1.224609 0.720703,0 0,1.945312 -7.136719,0"
       id="path3120"
       inkscape:connector-curvature="0" />
  </g>
</svg>
