<?xml version="1.0" encoding="UTF-8" standalone="no"?>
<!-- Created with Inkscape (http://www.inkscape.org/) -->

<svg
   xmlns:dc="http://purl.org/dc/elements/1.1/"
   xmlns:cc="http://creativecommons.org/ns#"
   xmlns:rdf="http://www.w3.org/1999/02/22-rdf-syntax-ns#"
   xmlns:svg="http://www.w3.org/2000/svg"
   xmlns="http://www.w3.org/2000/svg"
   xmlns:xlink="http://www.w3.org/1999/xlink"
   xmlns:sodipodi="http://sodipodi.sourceforge.net/DTD/sodipodi-0.dtd"
   xmlns:inkscape="http://www.inkscape.org/namespaces/inkscape"
   width="64"
   height="64"
   id="svg2"
   version="1.1"
   inkscape:version="0.48.4 r9939"
   sodipodi:docname="ccc_large.svg">
  <defs
     id="defs4">
    <linearGradient
       inkscape:collect="always"
       id="linearGradient3839">
      <stop
         style="stop-color:#b6b6b6;stop-opacity:1;"
         offset="0"
         id="stop3841" />
      <stop
         style="stop-color:#b6b6b6;stop-opacity:0;"
         offset="1"
         id="stop3843" />
    </linearGradient>
    <linearGradient
       inkscape:collect="always"
       id="linearGradient3812">
      <stop
         style="stop-color:#f5f5f5;stop-opacity:1"
         offset="0"
         id="stop3814" />
      <stop
         style="stop-color:#c3c3c3;stop-opacity:1"
         offset="1"
         id="stop3816" />
    </linearGradient>
    <linearGradient
       inkscape:collect="always"
       id="linearGradient3784">
      <stop
         style="stop-color:#979797;stop-opacity:1"
         offset="0"
         id="stop3786" />
      <stop
         style="stop-color:#d1d1d1;stop-opacity:1"
         offset="1"
         id="stop3788" />
    </linearGradient>
    <linearGradient
       inkscape:collect="always"
       id="linearGradient3776">
      <stop
         style="stop-color:#8e0000;stop-opacity:1"
         offset="0"
         id="stop3778" />
      <stop
         style="stop-color:#ff5c5c;stop-opacity:1"
         offset="1"
         id="stop3780" />
    </linearGradient>
    <linearGradient
       inkscape:collect="always"
       xlink:href="#linearGradient3784"
       id="linearGradient3790"
       x1="17.892857"
       y1="28.107141"
       x2="14.607142"
       y2="18.107141"
       gradientUnits="userSpaceOnUse" />
    <linearGradient
       inkscape:collect="always"
       xlink:href="#linearGradient3784"
       id="linearGradient3794"
       gradientUnits="userSpaceOnUse"
       x1="17.892857"
       y1="28.107141"
       x2="14.607142"
       y2="18.107141" />
    <linearGradient
       inkscape:collect="always"
       xlink:href="#linearGradient3784"
       id="linearGradient3806"
       gradientUnits="userSpaceOnUse"
       x1="17.892857"
       y1="28.107141"
       x2="14.607142"
       y2="18.107141" />
    <linearGradient
       inkscape:collect="always"
       xlink:href="#linearGradient3839"
       id="linearGradient3845"
       x1="51.039703"
       y1="995.63672"
       x2="45.371338"
       y2="1008.6425"
       gradientUnits="userSpaceOnUse"
       gradientTransform="matrix(0.66791039,-0.03667806,0.03472852,1.0642881,-17.395767,-64.258096)" />
    <linearGradient
       inkscape:collect="always"
       xlink:href="#linearGradient3812"
       id="linearGradient3883"
       gradientUnits="userSpaceOnUse"
       gradientTransform="matrix(1.1435968,0,0,1.1439128,-3.8077927,984.98904)"
       x1="22.714287"
       y1="29.892859"
       x2="43.892857"
       y2="10.428573" />
    <linearGradient
       inkscape:collect="always"
       xlink:href="#linearGradient3776"
       id="linearGradient3885"
       gradientUnits="userSpaceOnUse"
       x1="17.643974"
       y1="29.188486"
       x2="13.721519"
       y2="18.167263" />
    <linearGradient
       inkscape:collect="always"
       xlink:href="#linearGradient3784"
       id="linearGradient3887"
       gradientUnits="userSpaceOnUse"
       x1="17.892857"
       y1="28.107141"
       x2="14.607142"
       y2="18.107141" />
  </defs>
  <sodipodi:namedview
     id="base"
     pagecolor="#ffffff"
     bordercolor="#666666"
     borderopacity="1.0"
     inkscape:pageopacity="0.0"
     inkscape:pageshadow="2"
     inkscape:zoom="1.4"
     inkscape:cx="126.11396"
     inkscape:cy="-34.796657"
     inkscape:document-units="px"
     inkscape:current-layer="layer1"
     showgrid="false"
     inkscape:window-width="1239"
     inkscape:window-height="739"
     inkscape:window-x="191"
     inkscape:window-y="27"
     inkscape:window-maximized="0" />
  <metadata
     id="metadata7">
    <rdf:RDF>
      <cc:Work
         rdf:about="">
        <dc:format>image/svg+xml</dc:format>
        <dc:type
           rdf:resource="http://purl.org/dc/dcmitype/StillImage" />
      </cc:Work>
    </rdf:RDF>
  </metadata>
  <g
     inkscape:label="Layer 1"
     inkscape:groupmode="layer"
     id="layer1"
     transform="translate(0,-988.36218)">
    <path
       sodipodi:type="arc"
       style="fill:#585858;fill-opacity:1;stroke:none"
       id="path3861"
       sodipodi:cx="16.964285"
       sodipodi:cy="23.464285"
       sodipodi:rx="6.4285712"
       sodipodi:ry="6.4285712"
       d="m 23.392856,23.464285 a 6.4285712,6.4285712 0 1 1 -12.857142,0 6.4285712,6.4285712 0 1 1 12.857142,0 z"
       transform="matrix(1.5386601,0,0,1.5386819,26.909607,986.25522)" />
    <path
       transform="matrix(1.2131744,0,0,1.2131915,15.317435,1011.5373)"
       d="m 23.392856,23.464285 a 6.4285712,6.4285712 0 1 1 -12.857142,0 6.4285712,6.4285712 0 1 1 12.857142,0 z"
       sodipodi:ry="6.4285712"
       sodipodi:rx="6.4285712"
       sodipodi:cy="23.464285"
       sodipodi:cx="16.964285"
       id="path3859"
       style="fill:#585858;fill-opacity:1;stroke:none"
       sodipodi:type="arc" />
    <path
       sodipodi:type="arc"
       style="fill:#585858;fill-opacity:1;stroke:none"
       id="path3855"
       sodipodi:cx="16.964285"
       sodipodi:cy="23.464285"
       sodipodi:rx="6.4285712"
       sodipodi:ry="6.4285712"
       d="m 23.392856,23.464285 a 6.4285712,6.4285712 0 1 1 -12.857142,0 6.4285712,6.4285712 0 1 1 12.857142,0 z"
       transform="matrix(1.5707882,0,0,1.5708102,-15.547745,996.23638)" />
    <path
       sodipodi:type="arc"
       style="fill:url(#linearGradient3887);fill-opacity:1;stroke:none"
       id="path3796"
       sodipodi:cx="16.964285"
       sodipodi:cy="23.464285"
       sodipodi:rx="6.4285712"
       sodipodi:ry="6.4285712"
       d="m 23.392856,23.464285 a 6.4285712,6.4285712 0 1 1 -12.857142,0 6.4285712,6.4285712 0 1 1 12.857142,0 z"
       transform="matrix(1.2131744,0,0,1.2131915,15.384687,1011.3114)" />
    <path
       style="fill:url(#linearGradient3845);fill-opacity:1;stroke:none"
       d="m 47.782509,996.07019 -0.122659,9.74431 4.122193,-8.57765 z"
       id="path3810"
       inkscape:connector-curvature="0"
       sodipodi:nodetypes="cccc" />
    <path
       transform="matrix(1.1698413,0,0,1.1698577,-5.9119727,984.23636)"
       d="m 23.392856,23.464285 a 6.4285712,6.4285712 0 1 1 -12.857142,0 6.4285712,6.4285712 0 1 1 12.857142,0 z"
       sodipodi:ry="6.4285712"
       sodipodi:rx="6.4285712"
       sodipodi:cy="23.464285"
       sodipodi:cx="16.964285"
       id="path3857"
       style="fill:#585858;fill-opacity:1;stroke:none"
       sodipodi:type="arc" />
    <path
       sodipodi:type="arc"
       style="fill:url(#linearGradient3790);fill-opacity:1;stroke:none"
       id="path2996"
       sodipodi:cx="16.964285"
       sodipodi:cy="23.464285"
       sodipodi:rx="6.4285712"
       sodipodi:ry="6.4285712"
       d="m 23.392856,23.464285 a 6.4285712,6.4285712 0 1 1 -12.857142,0 6.4285712,6.4285712 0 1 1 12.857142,0 z"
       transform="matrix(1.1698413,0,0,1.1698577,-5.811094,984.13309)" />
    <path
       sodipodi:type="arc"
       style="fill:url(#linearGradient3885);fill-opacity:1;stroke:none"
       id="path3772"
       sodipodi:cx="16.964285"
       sodipodi:cy="23.464285"
       sodipodi:rx="6.4285712"
       sodipodi:ry="6.4285712"
       d="m 23.392856,23.464285 a 6.4285712,6.4285712 0 1 1 -12.857142,0 6.4285712,6.4285712 0 1 1 12.857142,0 z"
       transform="matrix(2.331069,0,0,2.3311018,-12.261735,967.57871)" />
    <path
       sodipodi:nodetypes="ccaaccaac"
       inkscape:connector-curvature="0"
       id="path3847"
       d="m 15.887662,1020.1224 9.359447,3.4431 c 0,0 11.071454,-17.5369 19.200902,-23.5998 1.538899,-1.1478 3.476078,-1.67023 5.318418,-2.20985 0.570631,-0.16714 1.756234,-0.31244 1.756234,-0.31244 l 2.043032,-4.48315 c 0,0 -2.939873,0.37707 -4.342608,0.82874 -3.690026,1.18818 -7.338326,2.72332 -10.549404,4.8952 -8.638191,5.8426 -22.786021,21.4382 -22.786021,21.4382 z"
       style="fill:#979797;fill-opacity:1;stroke:none" />
    <path
       transform="matrix(1.5707882,0,0,1.5708102,-15.41324,995.83287)"
       d="m 23.392856,23.464285 a 6.4285712,6.4285712 0 1 1 -12.857142,0 6.4285712,6.4285712 0 1 1 12.857142,0 z"
       sodipodi:ry="6.4285712"
       sodipodi:rx="6.4285712"
       sodipodi:cy="23.464285"
       sodipodi:cx="16.964285"
       id="path3792"
       style="fill:url(#linearGradient3794);fill-opacity:1;stroke:none"
       sodipodi:type="arc" />
    <path
       transform="matrix(1.5386601,0,0,1.5386819,27.004715,985.9699)"
       d="m 23.392856,23.464285 a 6.4285712,6.4285712 0 1 1 -12.857142,0 6.4285712,6.4285712 0 1 1 12.857142,0 z"
       sodipodi:ry="6.4285712"
       sodipodi:rx="6.4285712"
       sodipodi:cy="23.464285"
       sodipodi:cx="16.964285"
       id="path3802"
       style="fill:url(#linearGradient3806);fill-opacity:1;stroke:none"
       sodipodi:type="arc" />
    <path
       style="fill:url(#linearGradient3883);fill-opacity:1;stroke:none"
       d="m 15.602334,1019.2285 9.359446,3.443 c 0,0 11.076072,-16.9508 19.105792,-22.7438 1.574045,-1.1355 3.54681,-1.61129 5.412043,-2.14795 0.716802,-0.20625 2.200487,-0.40609 2.200487,-0.40609 l 1.933147,-4.40386 c 0,0 -3.544714,-0.19944 -5.246148,0.2105 -3.562094,0.85827 -6.942013,2.55966 -9.978747,4.6099 -8.643145,5.8354 -22.78602,21.4383 -22.78602,21.4383 z"
       id="path3808"
       inkscape:connector-curvature="0"
       sodipodi:nodetypes="ccaaccaac" />
    <path
       style="fill:none;stroke:#979797;stroke-width:0.2;stroke-linecap:butt;stroke-linejoin:miter;stroke-miterlimit:4;stroke-opacity:1;stroke-dasharray:none"
       d="m 47.821371,1005.7792 5.650855,-12.66407"
       id="path3881"
       inkscape:connector-curvature="0"
       sodipodi:nodetypes="cc" />
  </g>
</svg>
