<?xml version="1.0" encoding="UTF-8" standalone="no"?>
<!-- Created with Inkscape (http://www.inkscape.org/) -->

<svg
   xmlns:dc="http://purl.org/dc/elements/1.1/"
   xmlns:cc="http://creativecommons.org/ns#"
   xmlns:rdf="http://www.w3.org/1999/02/22-rdf-syntax-ns#"
   xmlns:svg="http://www.w3.org/2000/svg"
   xmlns="http://www.w3.org/2000/svg"
   xmlns:xlink="http://www.w3.org/1999/xlink"
   xmlns:sodipodi="http://sodipodi.sourceforge.net/DTD/sodipodi-0.dtd"
   xmlns:inkscape="http://www.inkscape.org/namespaces/inkscape"
   width="64"
   height="64"
   id="svg8779"
   version="1.1"
   inkscape:version="0.48.4 r9939"
   sodipodi:docname="mtpaint.svg">
  <defs
     id="defs8781">
    <linearGradient
       id="linearGradient3923">
      <stop
         style="stop-color:#000000;stop-opacity:0.30158731;"
         offset="0"
         id="stop3925" />
      <stop
         style="stop-color:#000000;stop-opacity:0;"
         offset="1"
         id="stop3927" />
    </linearGradient>
    <linearGradient
       id="linearGradient3895">
      <stop
         style="stop-color:#8abce8;stop-opacity:1"
         offset="0"
         id="stop3897" />
      <stop
         id="stop3899"
         offset="0.2112069"
         style="stop-color:#75aee1;stop-opacity:1" />
      <stop
         id="stop3901"
         offset="0.56034482"
         style="stop-color:#4187c8;stop-opacity:1" />
      <stop
         style="stop-color:#357dc0;stop-opacity:1"
         offset="0.74137932"
         id="stop3903" />
      <stop
         style="stop-color:#0d5396;stop-opacity:1"
         offset="1"
         id="stop3905" />
    </linearGradient>
    <linearGradient
       id="linearGradient3877">
      <stop
         id="stop3879"
         offset="0"
         style="stop-color:#f7f4a3;stop-opacity:1" />
      <stop
         style="stop-color:#f5f07b;stop-opacity:1"
         offset="0.34531337"
         id="stop3881" />
      <stop
         style="stop-color:#eee954;stop-opacity:1"
         offset="0.51785403"
         id="stop3883" />
      <stop
         id="stop3885"
         offset="0.75"
         style="stop-color:#ddd50b;stop-opacity:1" />
      <stop
         id="stop3887"
         offset="1"
         style="stop-color:#beb700;stop-opacity:1" />
    </linearGradient>
    <linearGradient
       id="linearGradient3856">
      <stop
         style="stop-color:#ec7765;stop-opacity:1"
         offset="0"
         id="stop3858" />
      <stop
         id="stop3866"
         offset="0.2112069"
         style="stop-color:#e36958;stop-opacity:1" />
      <stop
         id="stop3864"
         offset="0.56034482"
         style="stop-color:#de3f3f;stop-opacity:1" />
      <stop
         style="stop-color:#e53838;stop-opacity:1"
         offset="0.75"
         id="stop3869" />
      <stop
         style="stop-color:#e33535;stop-opacity:1"
         offset="1"
         id="stop3860" />
    </linearGradient>
    <linearGradient
       inkscape:collect="always"
       xlink:href="#linearGradient3856"
       id="linearGradient3862"
       x1="-42.75"
       y1="1019.0345"
       x2="-28.25"
       y2="1019.0345"
       gradientUnits="userSpaceOnUse"
       gradientTransform="matrix(0.76831048,0.4436002,0.44358426,-0.76833808,-407.75131,1810.6937)" />
    <linearGradient
       inkscape:collect="always"
       xlink:href="#linearGradient3877"
       id="linearGradient3875"
       gradientUnits="userSpaceOnUse"
       x1="-42.75"
       y1="1019.0345"
       x2="-28.25"
       y2="1019.0345"
       gradientTransform="matrix(0.76831048,0.4436002,0.44358426,-0.76833808,-393.92172,1818.6784)" />
    <linearGradient
       inkscape:collect="always"
       xlink:href="#linearGradient3895"
       id="linearGradient3893"
       gradientUnits="userSpaceOnUse"
       gradientTransform="matrix(0.76831048,0.4436002,0.44358426,-0.76833808,-380.09215,1826.6633)"
       x1="-42.75"
       y1="1019.0345"
       x2="-28.25"
       y2="1019.0345" />
    <radialGradient
       inkscape:collect="always"
       xlink:href="#linearGradient3923"
       id="radialGradient3931"
       cx="19.125"
       cy="58.625"
       fx="19.125"
       fy="58.625"
       r="12.375"
       gradientTransform="matrix(1,0,0,0.33333333,0,39.083333)"
       gradientUnits="userSpaceOnUse" />
    <radialGradient
       inkscape:collect="always"
       xlink:href="#linearGradient3923"
       id="radialGradient3935"
       gradientUnits="userSpaceOnUse"
       gradientTransform="matrix(1,0,0,0.33333333,0,39.083333)"
       cx="19.125"
       cy="58.625"
       fx="19.125"
       fy="58.625"
       r="12.375" />
    <radialGradient
       inkscape:collect="always"
       xlink:href="#linearGradient3923"
       id="radialGradient3939"
       gradientUnits="userSpaceOnUse"
       gradientTransform="matrix(1,0,0,0.33333333,0,39.083333)"
       cx="19.125"
       cy="58.625"
       fx="19.125"
       fy="58.625"
       r="12.375" />
  </defs>
  <sodipodi:namedview
     id="base"
     pagecolor="#ffffff"
     bordercolor="#666666"
     borderopacity="1.0"
     inkscape:pageopacity="0.0"
     inkscape:pageshadow="2"
     inkscape:zoom="8"
     inkscape:cx="27.501977"
     inkscape:cy="25.572188"
     inkscape:document-units="px"
     inkscape:current-layer="layer1"
     showgrid="false"
     inkscape:window-width="1211"
     inkscape:window-height="765"
     inkscape:window-x="206"
     inkscape:window-y="27"
     inkscape:window-maximized="0"
     showguides="true"
     inkscape:guide-bbox="true" />
  <metadata
     id="metadata8784">
    <rdf:RDF>
      <cc:Work
         rdf:about="">
        <dc:format>image/svg+xml</dc:format>
        <dc:type
           rdf:resource="http://purl.org/dc/dcmitype/StillImage" />
        <dc:title />
      </cc:Work>
    </rdf:RDF>
  </metadata>
  <g
     inkscape:label="Layer 1"
     inkscape:groupmode="layer"
     id="layer1"
     transform="translate(0,-988.36218)">
    <path
       sodipodi:type="arc"
       style="fill:url(#radialGradient3939);fill-opacity:1;stroke:none"
       id="path3937"
       sodipodi:cx="19.125"
       sodipodi:cy="58.625"
       sodipodi:rx="12.375"
       sodipodi:ry="4.125"
       d="m 31.5,58.625 a 12.375,4.125 0 1 1 -24.75,0 12.375,4.125 0 1 1 24.75,0 z"
       transform="matrix(1.010101,0,0,0.96969697,20.931818,991.0137)" />
    <path
       transform="matrix(1.010101,0,0,0.96969697,6.181818,983.5137)"
       d="m 31.5,58.625 a 12.375,4.125 0 1 1 -24.75,0 12.375,4.125 0 1 1 24.75,0 z"
       sodipodi:ry="4.125"
       sodipodi:rx="12.375"
       sodipodi:cy="58.625"
       sodipodi:cx="19.125"
       id="path3933"
       style="fill:url(#radialGradient3935);fill-opacity:1;stroke:none"
       sodipodi:type="arc" />
    <path
       sodipodi:type="arc"
       style="fill:url(#radialGradient3931);fill-opacity:1;stroke:none"
       id="path3913"
       sodipodi:cx="19.125"
       sodipodi:cy="58.625"
       sodipodi:rx="12.375"
       sodipodi:ry="4.125"
       d="m 31.5,58.625 a 12.375,4.125 0 1 1 -24.75,0 12.375,4.125 0 1 1 24.75,0 z"
       transform="matrix(1.010101,0,0,0.96969697,-6.3181815,975.2637)" />
    <path
       style="fill:url(#linearGradient3862);fill-opacity:1;stroke:none"
       d="m 5.5583792,1019.3825 -0.3884664,13.0937 11.1448132,-6.8833 16.856184,-29.19673 c 0,0 -1.444062,-2.11012 -2.407865,-2.9269 -1.353693,-1.1471 -2.939628,-2.06277 -4.609863,-2.6616 -1.189232,-0.42632 -3.738618,-0.62189 -3.738618,-0.62189 z"
       id="path3850"
       inkscape:connector-curvature="0"
       sodipodi:nodetypes="ccccaacc" />
    <path
       style="fill:#f8f0c0;fill-opacity:1;stroke:none"
       d="m 5.3641239,1025.9295 c 0,0 2.0054165,0.6456 2.9108783,1.1684 0.9054624,0.5227 2.4672948,1.9367 2.4672948,1.9367 l 5.572429,-3.4417 c 0,0 -1.914672,-1.9581 -3.013813,-2.7645 -1.192183,-0.8747 -2.487993,-1.6229 -3.841552,-2.218 -1.2479197,-0.5487 -3.9009818,-1.2279 -3.9009818,-1.2279 z"
       id="path3852"
       inkscape:connector-curvature="0"
       sodipodi:nodetypes="caccaacc" />
    <path
       sodipodi:nodetypes="ccccaacc"
       inkscape:connector-curvature="0"
       id="path3871"
       d="m 19.387968,1027.3673 -0.388467,13.0937 11.144814,-6.8833 16.856184,-29.1967 c 0,0 -1.444063,-2.1101 -2.407866,-2.927 -1.353693,-1.1471 -2.939627,-2.06278 -4.609863,-2.66159 -1.189232,-0.42632 -3.738618,-0.62181 -3.738618,-0.62181 z"
       style="fill:url(#linearGradient3875);fill-opacity:1;stroke:none" />
    <path
       sodipodi:nodetypes="caccaacc"
       inkscape:connector-curvature="0"
       id="path3873"
       d="m 19.193712,1033.9142 c 0,0 2.005417,0.6457 2.91088,1.1685 0.905461,0.5228 2.467294,1.9368 2.467294,1.9368 l 5.572429,-3.4418 c 0,0 -1.914672,-1.9581 -3.013813,-2.7645 -1.192184,-0.8747 -2.487993,-1.6229 -3.841554,-2.2179 -1.247918,-0.5488 -3.90098,-1.228 -3.90098,-1.228 z"
       style="fill:#f8f0c0;fill-opacity:1;stroke:none" />
    <path
       style="fill:url(#linearGradient3893);fill-opacity:1;stroke:none"
       d="m 33.217556,1035.3522 -0.388466,13.0936 11.144813,-6.8833 16.856184,-29.1967 c 0,0 -1.444063,-2.1101 -2.407865,-2.927 -1.353694,-1.1471 -2.939628,-2.0628 -4.609863,-2.6615 -1.189232,-0.4264 -3.738619,-0.6219 -3.738619,-0.6219 z"
       id="path3889"
       inkscape:connector-curvature="0"
       sodipodi:nodetypes="ccccaacc" />
    <path
       style="fill:#f8f0c0;fill-opacity:1;stroke:none"
       d="m 33.0233,1041.899 c 0,0 2.005418,0.6456 2.91088,1.1685 0.905462,0.5228 2.467295,1.9368 2.467295,1.9368 l 5.572428,-3.4418 c 0,0 -1.914672,-1.9581 -3.013812,-2.7645 -1.192184,-0.8747 -2.487994,-1.6229 -3.841553,-2.2179 -1.247919,-0.5488 -3.900982,-1.2279 -3.900982,-1.2279 z"
       id="path3891"
       inkscape:connector-curvature="0"
       sodipodi:nodetypes="caccaacc" />
    <path
       sodipodi:nodetypes="ccccaacc"
       inkscape:connector-curvature="0"
       id="path3907"
       d="m 5.5583793,1019.3825 -0.3884664,13.0937 11.1448131,-6.8833 16.856185,-29.19671 c 0,0 -1.444063,-2.11012 -2.407866,-2.9269 -1.353693,-1.1471 -2.939627,-2.06277 -4.609863,-2.6616 -1.189232,-0.42632 -3.738618,-0.62189 -3.738618,-0.62189 z"
       style="fill:none;stroke:#c13939;stroke-width:1;stroke-linecap:butt;stroke-linejoin:miter;stroke-miterlimit:4;stroke-opacity:1;stroke-dasharray:none" />
    <path
       style="fill:none;stroke:#dcb20a;stroke-width:1;stroke-linecap:butt;stroke-linejoin:miter;stroke-miterlimit:4;stroke-opacity:1;stroke-dasharray:none"
       d="m 19.387968,1027.3674 -0.388466,13.0936 11.144813,-6.8833 16.856184,-29.1967 c 0,0 -1.444062,-2.1101 -2.407865,-2.927 -1.353694,-1.1471 -2.939628,-2.06276 -4.609863,-2.66157 -1.189232,-0.42632 -3.738619,-0.62181 -3.738619,-0.62181 z"
       id="path3909"
       inkscape:connector-curvature="0"
       sodipodi:nodetypes="ccccaacc" />
    <path
       sodipodi:nodetypes="ccccaacc"
       inkscape:connector-curvature="0"
       id="path3911"
       d="m 33.217557,1035.3522 -0.388467,13.0936 11.144813,-6.8832 16.856185,-29.1968 c 0,0 -1.444063,-2.1101 -2.407866,-2.9269 -1.353693,-1.1472 -2.939627,-2.0628 -4.609863,-2.6617 -1.189232,-0.4263 -3.738618,-0.6218 -3.738618,-0.6218 z"
       style="fill:none;stroke:#346194;stroke-width:1;stroke-linecap:butt;stroke-linejoin:miter;stroke-miterlimit:4;stroke-opacity:1;stroke-dasharray:none" />
  </g>
</svg>
