<?xml version="1.0" encoding="UTF-8" standalone="no"?>
<!-- Created with Inkscape (http://www.inkscape.org/) -->

<svg
   xmlns:dc="http://purl.org/dc/elements/1.1/"
   xmlns:cc="http://creativecommons.org/ns#"
   xmlns:rdf="http://www.w3.org/1999/02/22-rdf-syntax-ns#"
   xmlns:svg="http://www.w3.org/2000/svg"
   xmlns="http://www.w3.org/2000/svg"
   xmlns:sodipodi="http://sodipodi.sourceforge.net/DTD/sodipodi-0.dtd"
   xmlns:inkscape="http://www.inkscape.org/namespaces/inkscape"
   width="64"
   height="64"
   id="svg2"
   version="1.1"
   inkscape:version="0.48.4 r9939"
   sodipodi:docname="pithos.svg">
  <defs
     id="defs4" />
  <sodipodi:namedview
     id="base"
     pagecolor="#ffffff"
     bordercolor="#666666"
     borderopacity="1.0"
     inkscape:pageopacity="0.0"
     inkscape:pageshadow="2"
     inkscape:zoom="1.4"
     inkscape:cx="-45.067591"
     inkscape:cy="44.424224"
     inkscape:document-units="px"
     inkscape:current-layer="text2996"
     showgrid="false"
     inkscape:window-width="992"
     inkscape:window-height="590"
     inkscape:window-x="303"
     inkscape:window-y="95"
     inkscape:window-maximized="0" />
  <metadata
     id="metadata7">
    <rdf:RDF>
      <cc:Work
         rdf:about="">
        <dc:format>image/svg+xml</dc:format>
        <dc:type
           rdf:resource="http://purl.org/dc/dcmitype/StillImage" />
        <dc:title />
      </cc:Work>
    </rdf:RDF>
  </metadata>
  <g
     inkscape:label="Layer 1"
     inkscape:groupmode="layer"
     id="layer1"
     transform="translate(0,-988.3622)">
    <g
       style="font-size:40px;font-style:normal;font-variant:normal;font-weight:bold;font-stretch:normal;line-height:125%;letter-spacing:0px;word-spacing:0px;fill:#c8c8c8;fill-opacity:1;stroke:none;font-family:FreeSerif;-inkscape-font-specification:FreeSerif Bold"
       id="text2996"
       transform="matrix(1.153705,0,0,1.153705,-5.3427055,-157.74934)">
      <path
         style="fill:#c8c8c8;fill-opacity:1;stroke:#000000;stroke-opacity:1"
         sodipodi:nodetypes="ccccccscsscccsacaascccacazcc"
         inkscape:connector-curvature="0"
         id="path3254"
         d="m 28.149647,1036.1989 c -1.8e-5,2.3507 1.145112,3.8466 1.811796,4.4877 0.714264,0.5984 2.282736,1.0686 5.092273,1.4105 l 0,0.8481 -19.412558,0 0,-1.1217 c 1.06489,-0.068 2.830151,-0.2473 2.924942,-0.2566 1.667576,-0.1625 2.370392,-0.6411 2.941825,-1.4103 0.619039,-0.8122 0.819122,-1.9489 0.819122,-3.9577 l 0,-28.3369 c 0,-2.2651 -0.271511,-4.1167 -1.033408,-4.8433 -0.761906,-0.7694 -3.1763,-1.2394 -5.652481,-1.4105 l 0,-1.247 17.679926,0 c 5.952336,0 9.128304,0.4806 12.392701,3.2317 2.284096,1.9249 3.697629,4.4443 3.697672,8.1627 -4.3e-5,2.4789 -0.579869,4.6168 -1.818653,6.4917 -1.170201,1.7712 -3.01696,3.1469 -4.967028,3.9857 -2.502686,1.0765 -5.918299,1.1098 -8.097468,1.1098 -2.184546,0 -1.521554,4e-4 -6.378661,0.043 z m 0,-16.3731 c 4.666633,0 8.090399,0.6968 11.160909,-1.4594 1.981317,-1.3913 3.330531,-2.565 3.330562,-6.4545 -3.1e-5,-3.462 -0.392996,-5.0942 -2.103529,-6.6853 -1.644229,-1.5294 -3.888792,-1.5524 -6.555449,-1.5524 -2.666657,0 -5.831943,-6e-4 -5.831943,-6e-4 z" />
      <path
         d="m 28.109717,1035.3233 c -1.8e-5,2.3507 0.643309,3.8466 1.309993,4.4877 0.714264,0.5984 2.940555,1.0686 5.750092,1.4105 l 0,1.6027 -20.070377,0 0,-1.6027 c 1.06489,-0.068 2.830151,-0.2473 2.924942,-0.2566 1.667576,-0.1625 2.370392,-0.6411 2.941825,-1.4103 0.619039,-0.8122 0.928569,-2.2225 0.928569,-4.2313 l 0,-28.3369 c 0,-2.2651 -0.380958,-3.761 -1.142855,-4.4876 -0.761906,-0.7694 -3.1763,-1.2394 -5.652481,-1.4105 l 0,-1.6027 17.679926,0 c 5.952336,0 9.045494,0.582 12.392701,3.2317 2.494469,1.9747 4.463755,4.7179 4.463798,8.4363 -4.3e-5,2.4789 -0.688433,5.2655 -2.201716,7.3126 -1.419432,1.92 -3.714596,3.1518 -5.952047,3.9857 -1.618533,0.6031 -2.963272,0.4849 -5.142411,0.6377 -2.179139,0.1536 -3.372852,-0.043 -8.229959,0 m 0,-3.4827 c 4.666633,0 8.333659,0.817 11.425232,-1.4594 1.969147,-1.4502 3.047526,-2.7839 3.047557,-6.6734 -3.1e-5,-3.462 -0.512107,-5.0376 -2.238393,-6.5852 -1.755269,-1.5735 -4.237049,-1.5335 -6.903706,-1.5335 -2.666657,0 -5.33014,-6e-4 -5.33014,-6e-4"
         id="path3791"
         inkscape:connector-curvature="0"
         sodipodi:nodetypes="ccccccscsscccsacaasccacazc"
         style="fill:#c8c8c8;fill-opacity:1" />
    </g>
  </g>
</svg>
