<?xml version="1.0" encoding="UTF-8" standalone="no"?>
<!-- Created with Inkscape (http://www.inkscape.org/) -->

<svg
   xmlns:dc="http://purl.org/dc/elements/1.1/"
   xmlns:cc="http://creativecommons.org/ns#"
   xmlns:rdf="http://www.w3.org/1999/02/22-rdf-syntax-ns#"
   xmlns:svg="http://www.w3.org/2000/svg"
   xmlns="http://www.w3.org/2000/svg"
   xmlns:xlink="http://www.w3.org/1999/xlink"
   xmlns:sodipodi="http://sodipodi.sourceforge.net/DTD/sodipodi-0.dtd"
   xmlns:inkscape="http://www.inkscape.org/namespaces/inkscape"
   version="1.0"
   width="64"
   height="64"
   id="svg2817"
   inkscape:version="0.48.4 r9939"
   sodipodi:docname="software-properties.svg">
  <metadata
     id="metadata65">
    <rdf:RDF>
      <cc:Work
         rdf:about="">
        <dc:format>image/svg+xml</dc:format>
        <dc:type
           rdf:resource="http://purl.org/dc/dcmitype/StillImage" />
        <dc:title />
      </cc:Work>
    </rdf:RDF>
  </metadata>
  <sodipodi:namedview
     pagecolor="#ffffff"
     bordercolor="#666666"
     borderopacity="1"
     objecttolerance="10"
     gridtolerance="10"
     guidetolerance="10"
     inkscape:pageopacity="0"
     inkscape:pageshadow="2"
     inkscape:window-width="1048"
     inkscape:window-height="720"
     id="namedview63"
     showgrid="false"
     inkscape:zoom="5.2149125"
     inkscape:cx="28.597209"
     inkscape:cy="38.422404"
     inkscape:window-x="120"
     inkscape:window-y="73"
     inkscape:window-maximized="0"
     inkscape:current-layer="svg2817" />
  <defs
     id="defs2819">
    <linearGradient
       inkscape:collect="always"
       id="linearGradient3812">
      <stop
         style="stop-color:#ffffff;stop-opacity:1;"
         offset="0"
         id="stop3814" />
      <stop
         style="stop-color:#ebebeb;stop-opacity:1"
         offset="1"
         id="stop3816" />
    </linearGradient>
    <linearGradient
       id="linearGradient3275">
      <stop
         id="stop3277"
         style="stop-color:white;stop-opacity:0"
         offset="0" />
      <stop
         id="stop3283"
         style="stop-color:white;stop-opacity:1"
         offset="0.245" />
      <stop
         id="stop3285"
         style="stop-color:white;stop-opacity:1"
         offset="0.77350003" />
      <stop
         id="stop3279"
         style="stop-color:white;stop-opacity:0"
         offset="1" />
    </linearGradient>
    <linearGradient
       x1="44.994774"
       y1="17.5"
       x2="3.0052247"
       y2="17.5"
       id="linearGradient2815"
       xlink:href="#linearGradient3275"
       gradientUnits="userSpaceOnUse"
       spreadMethod="reflect" />
    <linearGradient
       id="linearGradient3827">
      <stop
         id="stop3829"
         style="stop-color:white;stop-opacity:1"
         offset="0" />
      <stop
         id="stop4295"
         style="stop-color:white;stop-opacity:1"
         offset="0.3021296" />
      <stop
         id="stop4293"
         style="stop-color:white;stop-opacity:0.6901961"
         offset="0.34361121" />
      <stop
         id="stop3832"
         style="stop-color:white;stop-opacity:0"
         offset="1" />
    </linearGradient>
    <linearGradient
       x1="26"
       y1="22"
       x2="26"
       y2="8"
       id="linearGradient2813"
       xlink:href="#linearGradient3827"
       gradientUnits="userSpaceOnUse"
       gradientTransform="matrix(1.130689,0,0,1.010721,-3.1738759,0.06432601)" />
    <linearGradient
       id="linearGradient4559">
      <stop
         id="stop4561"
         style="stop-color:white;stop-opacity:0"
         offset="0" />
      <stop
         id="stop4563"
         style="stop-color:white;stop-opacity:0"
         offset="1" />
    </linearGradient>
    <linearGradient
       x1="23.451576"
       y1="30.554907"
       x2="43.00663"
       y2="45.934479"
       id="linearGradient2811"
       xlink:href="#linearGradient4559"
       gradientUnits="userSpaceOnUse"
       gradientTransform="matrix(1.2822251,0,0,1.1746872,-6.0701918,-5.3031677)" />
    <linearGradient
       id="linearGradient3295">
      <stop
         id="stop3297"
         style="stop-color:#c9af8b;stop-opacity:1"
         offset="0" />
      <stop
         id="stop3299"
         style="stop-color:#ad8757;stop-opacity:1"
         offset="0.23942046" />
      <stop
         id="stop3301"
         style="stop-color:#c2a57f;stop-opacity:1"
         offset="0.27582464" />
      <stop
         id="stop3303"
         style="stop-color:#9d7d53;stop-opacity:1"
         offset="1" />
    </linearGradient>
    <linearGradient
       x1="15.464298"
       y1="7.9756851"
       x2="15.464298"
       y2="45.04248"
       id="linearGradient2809"
       xlink:href="#linearGradient3295"
       gradientUnits="userSpaceOnUse" />
    <linearGradient
       id="linearGradient3199">
      <stop
         id="stop3201"
         style="stop-color:#dac197;stop-opacity:1"
         offset="0" />
      <stop
         id="stop3203"
         style="stop-color:#c1a581;stop-opacity:1"
         offset="0.23942046" />
      <stop
         id="stop3205"
         style="stop-color:#dbc298;stop-opacity:1"
         offset="0.27582464" />
      <stop
         id="stop3207"
         style="stop-color:#a68b60;stop-opacity:1"
         offset="1" />
    </linearGradient>
    <linearGradient
       x1="24.822832"
       y1="15.377745"
       x2="24.996943"
       y2="37.27668"
       id="linearGradient2807"
       xlink:href="#linearGradient3199"
       gradientUnits="userSpaceOnUse"
       gradientTransform="matrix(1.2822251,0,0,1.5572619,-6.0701918,-15.290756)" />
    <radialGradient
       cx="5"
       cy="41.5"
       r="5"
       fx="5"
       fy="41.5"
       id="radialGradient2805"
       xlink:href="#linearGradient3681"
       gradientUnits="userSpaceOnUse"
       gradientTransform="matrix(0.5938225,0,0,1.5366531,41.140892,-103.93618)" />
    <linearGradient
       id="linearGradient3703">
      <stop
         id="stop3705"
         style="stop-color:black;stop-opacity:0"
         offset="0" />
      <stop
         id="stop3711"
         style="stop-color:black;stop-opacity:1"
         offset="0.5" />
      <stop
         id="stop3707"
         style="stop-color:black;stop-opacity:0"
         offset="1" />
    </linearGradient>
    <linearGradient
       x1="17.554192"
       y1="46.000275"
       x2="17.554192"
       y2="34.999718"
       id="linearGradient2803"
       xlink:href="#linearGradient3703"
       gradientUnits="userSpaceOnUse"
       gradientTransform="matrix(1.7570316,0,0,1.3969574,-17.394014,-16.411698)" />
    <linearGradient
       id="linearGradient3681">
      <stop
         id="stop3683"
         style="stop-color:black;stop-opacity:1"
         offset="0" />
      <stop
         id="stop3685"
         style="stop-color:black;stop-opacity:0"
         offset="1" />
    </linearGradient>
    <radialGradient
       cx="5"
       cy="41.5"
       r="5"
       fx="5"
       fy="41.5"
       id="radialGradient2801"
       xlink:href="#linearGradient3681"
       gradientUnits="userSpaceOnUse"
       gradientTransform="matrix(0.5938225,0,0,1.5366531,-6.6594735,-103.93618)" />
    <radialGradient
       cx="62.625"
       cy="4.625"
       r="10.625"
       fx="62.625"
       fy="4.625"
       id="radialGradient2436"
       xlink:href="#linearGradient8838"
       gradientUnits="userSpaceOnUse"
       gradientTransform="matrix(2.1647059,0,0,0.7529402,-111.56471,36.517647)" />
    <linearGradient
       id="linearGradient8838">
      <stop
         id="stop8840"
         style="stop-color:#000000;stop-opacity:1"
         offset="0" />
      <stop
         id="stop8842"
         style="stop-color:#000000;stop-opacity:0"
         offset="1" />
    </linearGradient>
    <linearGradient
       x1="20.758585"
       y1="1"
       x2="20.758585"
       y2="45.017357"
       id="linearGradient2515"
       xlink:href="#linearGradient3309"
       gradientUnits="userSpaceOnUse" />
    <linearGradient
       x1="63.9995"
       y1="3.1001"
       x2="63.9995"
       y2="122.8994"
       id="linearGradient3309"
       gradientUnits="userSpaceOnUse">
      <stop
         id="stop3311"
         style="stop-color:#f6f6f6;stop-opacity:1"
         offset="0" />
      <stop
         id="stop3313"
         style="stop-color:#d2d2d2;stop-opacity:1"
         offset="1" />
    </linearGradient>
    <linearGradient
       x1="37.201294"
       y1="1"
       x2="37.201294"
       y2="45"
       id="linearGradient2517"
       xlink:href="#linearGradient3397"
       gradientUnits="userSpaceOnUse" />
    <linearGradient
       id="linearGradient3397">
      <stop
         id="stop3399"
         style="stop-color:#aaaaaa;stop-opacity:1"
         offset="0" />
      <stop
         id="stop3401"
         style="stop-color:#8c8c8c;stop-opacity:1"
         offset="1" />
    </linearGradient>
    <linearGradient
       x1="86.132919"
       y1="105.105"
       x2="84.63858"
       y2="20.895"
       id="linearGradient2512"
       xlink:href="#linearGradient5128"
       gradientUnits="userSpaceOnUse"
       gradientTransform="matrix(0.3244803,0,0,0.3244803,3.2332655,2.5577454)" />
    <linearGradient
       id="linearGradient5128">
      <stop
         id="stop5130"
         style="stop-color:#e5e5e5;stop-opacity:1"
         offset="0" />
      <stop
         id="stop5132"
         style="stop-color:#ababab;stop-opacity:1"
         offset="1" />
    </linearGradient>
    <linearGradient
       inkscape:collect="always"
       xlink:href="#linearGradient3812"
       id="linearGradient4675"
       gradientUnits="userSpaceOnUse"
       gradientTransform="matrix(0.64414519,0,0,0.64527846,46.242588,21.217113)"
       x1="49.35424"
       y1="24.956068"
       x2="49.35424"
       y2="57.35593" />
  </defs>
  <g
     transform="translate(0,16)"
     id="layer1">
    <g
       transform="matrix(1.3385643,0,0,1.3325,-0.11956424,-19.745001)"
       id="g2791">
      <g
         transform="matrix(0.9926623,0,0,0.9761474,0.2751901,1.2929634)"
         id="g3305"
         style="opacity:0.4;display:inline">
        <rect
           width="2.9601951"
           height="15.366531"
           x="-3.6903627"
           y="-47.848343"
           transform="scale(-1,-1)"
           id="rect2484"
           style="fill:url(#radialGradient2801);fill-opacity:1;stroke:none" />
        <rect
           width="40.41172"
           height="15.366531"
           x="3.6903627"
           y="32.481812"
           id="rect2486"
           style="fill:url(#linearGradient2803);fill-opacity:1;stroke:none" />
        <rect
           width="2.9601951"
           height="15.366531"
           x="44.110001"
           y="-47.848343"
           transform="scale(1,-1)"
           id="rect3444"
           style="fill:url(#radialGradient2805);fill-opacity:1;stroke:none;display:inline" />
      </g>
      <path
         d="m 9.010725,8.5 29.497723,0 c 1.721985,0 2.496922,-0.2865505 2.991552,1 l 3.001734,8 0,25.673912 c 0,1.553304 0.10293,1.315976 -1.619063,1.315976 l -37.7653422,0 c -1.7219924,0 -1.6190635,0.237328 -1.6190635,-1.315976 L 3.4982653,17.5 6.5,9.5 c 0.4808316,-1.2605622 0.7887325,-1 2.510725,-1 z"
         id="path2488"
         style="fill:url(#linearGradient2807);fill-opacity:1;fill-rule:nonzero;stroke:url(#linearGradient2809);stroke-width:0.75187969;stroke-linecap:round;stroke-linejoin:miter;stroke-miterlimit:4;stroke-opacity:1;stroke-dasharray:none;stroke-dashoffset:0;marker:none;visibility:visible;display:block;overflow:visible" />
      <path
         d="m 9.948194,9.5129459 27.652872,0 c 1.614293,0 2.61338,0.5565361 3.289521,2.0860281 l 2.32894,6.419721 0,23.144557 c 0,1.460676 -0.818759,2.196085 -2.433056,2.196085 l -33.7332031,0 c -1.6142934,0 -2.2727761,-0.808827 -2.2727761,-2.269504 l 0,-23.071138 2.2538109,-6.55736 C 7.4850649,10.275943 8.3338968,9.5129459 9.948194,9.5129459 z"
         id="path2490"
         style="opacity:0.50549454;fill:none;stroke:url(#linearGradient2811);stroke-width:0.74211526;stroke-linecap:butt;stroke-linejoin:miter;stroke-miterlimit:4;stroke-opacity:1;stroke-dasharray:none;stroke-dashoffset:0;marker:none;visibility:visible;display:block;overflow:visible" />
      <path
         d="m 21.701284,8.1500942 c 1.507583,0 3.015171,0 4.522756,0 0,4.7166988 0,9.4333948 0,14.1500938 -0.445184,0 -0.890371,0 -1.335555,0 -0.45581,0 -0.911619,0 -1.367427,0 -0.366941,0 -0.73388,0 -1.10082,0 -0.239653,0 -0.479301,0 -0.718954,0 0,-4.716699 0,-9.433395 0,-14.1500938 z"
         id="rect3326"
         style="opacity:0.4;fill:url(#linearGradient2813);fill-opacity:1;fill-rule:nonzero;stroke:none;stroke-width:1;marker:none;visibility:visible;display:inline;overflow:visible;enable-background:accumulate" />
      <path
         d="m 3.5052248,17.5 40.9895502,0"
         id="path3273"
         style="opacity:0.4;fill:none;stroke:url(#linearGradient2815);stroke-width:0.75187969;stroke-linecap:square;stroke-linejoin:miter;stroke-miterlimit:4;stroke-opacity:1;stroke-dasharray:none;display:inline" />
    </g>
  </g>
  <g
     transform="matrix(0.82608695,0,0,0.82608695,24.173916,24.347826)"
     id="layer1-0">
    <path
       inkscape:connector-curvature="0"
       d="m 46.999997,40 c 0,4.418278 -10.297452,8 -23,8 -12.702548,0 -23.0000002,-3.581722 -23.0000002,-8 0,-4.418278 10.2974522,-8 23.0000002,-8 12.702548,0 23,3.581722 23,8 l 0,0 z"
       id="path8836"
       style="opacity:0.3;fill:url(#radialGradient2436);fill-opacity:1;fill-rule:evenodd;stroke:none;stroke-width:0.99999988;marker:none;visibility:visible;display:inline;overflow:visible" />
    <path
       inkscape:connector-curvature="0"
       d="M 21.03125,1.5 C 20.18512,1.5 19.5,2.2019069 19.5,3.0625 l 0,3.03125 C 17.987058,6.4968555 16.541437,7.105736 15.21875,7.875 L 13.0625,5.71875 C 12.758234,5.4144843 12.393747,5.2533367 12,5.25 11.606253,5.2466633 11.205402,5.3883479 10.90625,5.6875 L 6.6875,9.90625 C 6.0891956,10.504554 6.1102186,11.453968 6.71875,12.0625 L 8.875,14.21875 C 8.105736,15.541437 7.4968555,16.987058 7.09375,18.5 l -3.03125,0 C 3.2019067,18.5 2.5,19.185119 2.5,20.03125 l 0,5.9375 C 2.5,26.81488 3.201907,27.5 4.0625,27.5 l 3.03125,0 c 0.4031055,1.512942 1.011986,2.958563 1.78125,4.28125 L 6.71875,33.9375 C 6.1102187,34.546031 6.0891959,35.495445 6.6875,36.09375 l 4.21875,4.21875 c 0.598304,0.598304 1.547718,0.577279 2.15625,-0.03125 L 15.21875,38.125 c 1.322687,0.769264 2.768308,1.378144 4.28125,1.78125 l 0,3.03125 c 0,0.860593 0.685119,1.5625 1.53125,1.5625 l 5.9375,0 C 27.81488,44.5 28.5,43.798093 28.5,42.9375 l 0,-3.03125 c 1.512942,-0.403106 2.958563,-1.011986 4.28125,-1.78125 l 2.15625,2.15625 c 0.608531,0.608531 1.557946,0.629555 2.15625,0.03125 l 4.21875,-4.21875 c 0.598304,-0.598304 0.577281,-1.547719 -0.03125,-2.15625 L 39.125,31.78125 C 39.894264,30.458563 40.503144,29.012942 40.90625,27.5 l 3.03125,0 c 0.860593,0 1.5625,-0.685119 1.5625,-1.53125 l 0,-5.9375 C 45.5,19.18512 44.798093,18.5 43.9375,18.5 l -3.03125,0 C 40.503144,16.987058 39.894264,15.541437 39.125,14.21875 l 2.15625,-2.15625 c 0.608531,-0.608531 0.629555,-1.557946 0.03125,-2.15625 L 37.09375,5.6875 C 36.495446,5.0891956 35.54603,5.1102187 34.9375,5.71875 L 32.78125,7.875 C 31.458563,7.105736 30.012942,6.4968555 28.5,6.09375 l 0,-3.03125 C 28.5,2.2019067 27.814881,1.5 26.96875,1.5 l -5.9375,0 z M 24,16.5 c 3.588,0 6.5,2.912 6.5,6.5 0,3.588 -2.912,6.5 -6.5,6.5 -3.588,0 -6.5,-2.912 -6.5,-6.5 0,-3.588 2.912,-6.5 6.5,-6.5 z"
       id="rect3267"
       style="fill:url(#linearGradient2515);fill-opacity:1;fill-rule:nonzero;stroke:url(#linearGradient2517);stroke-width:1;stroke-linecap:butt;stroke-linejoin:round;stroke-miterlimit:4;stroke-opacity:1;stroke-dasharray:none;stroke-dashoffset:0;marker:none;visibility:visible;display:block;overflow:visible;enable-background:accumulate" />
    <path
       inkscape:connector-curvature="0"
       d="m 24,9.5 c -7.443901,0 -13.5,6.056099 -13.5,13.5 0,7.4439 6.056099,13.5 13.5,13.5 7.443901,0 13.5,-6.0561 13.5,-13.5 C 37.5,15.556099 31.443901,9.5 24,9.5 z"
       id="path28"
       style="fill:none;stroke:url(#linearGradient2512);stroke-width:1;stroke-miterlimit:4;stroke-dasharray:none" />
    <path
       inkscape:connector-curvature="0"
       d="m 24,10 c -7.168321,-5e-7 -13,5.83168 -13,13 0,7.16832 5.831679,13 13,13 7.168319,-10e-7 13,-5.83168 13,-13 0,-7.16832 -5.831681,-13 -13,-13 z m 0,6 c 3.864,0 7,3.136 7,7 0,3.864 -3.136,7 -7,7 -3.864,0 -7,-3.136 -7,-7 0,-3.864 3.136,-7 7,-7 z"
       id="path3315"
       style="opacity:0.05;fill:#000000;fill-opacity:1;stroke:none" />
  </g>
  <rect
     style="fill:url(#linearGradient4675);fill-opacity:1;fill-rule:nonzero;stroke:#c4c4c4;stroke-width:0.64858758;stroke-linecap:square;stroke-linejoin:miter;stroke-miterlimit:4;stroke-opacity:1;stroke-dasharray:none;stroke-dashoffset:0"
     id="rect3042"
     width="18.80904"
     height="25.294916"
     x="67.112892"
     y="34.380791" />
  <rect
     y="35.029381"
     x="67.761482"
     height="23.99774"
     width="17.511864"
     id="rect3822"
     style="fill:none;stroke:#ffffff;stroke-width:0.64858752;stroke-linecap:square;stroke-linejoin:miter;stroke-miterlimit:4;stroke-opacity:0.51612902;stroke-dasharray:none;stroke-dashoffset:0" />
  <path
     style="fill:none;stroke:#c4c4c4;stroke-width:0.64858758px;stroke-linecap:square;stroke-linejoin:miter;stroke-opacity:1"
     d="m 69.707242,38.920904 11.344786,0"
     id="path3824"
     inkscape:connector-curvature="0" />
  <path
     inkscape:connector-curvature="0"
     id="path3826"
     d="m 69.707229,41.515255 6.485901,0"
     style="fill:none;stroke:#c4c4c4;stroke-width:0.64858752px;stroke-linecap:square;stroke-linejoin:miter;stroke-opacity:1" />
  <path
     style="fill:none;stroke:#c4c4c4;stroke-width:0.64858752px;stroke-linecap:square;stroke-linejoin:miter;stroke-opacity:1"
     d="m 69.707242,44.109605 9.080279,0"
     id="path3828"
     inkscape:connector-curvature="0" />
  <path
     inkscape:connector-curvature="0"
     id="path3830"
     d="m 69.707242,46.703955 3.891667,0"
     style="fill:none;stroke:#c4c4c4;stroke-width:0.64858758px;stroke-linecap:square;stroke-linejoin:miter;stroke-opacity:1" />
  <path
     style="fill:none;stroke:#c4c4c4;stroke-width:0.64858752px;stroke-linecap:square;stroke-linejoin:miter;stroke-opacity:1"
     d="m 69.707242,49.298305 10.37736,0"
     id="path3832"
     inkscape:connector-curvature="0" />
  <path
     inkscape:connector-curvature="0"
     id="path3834"
     d="m 69.707242,51.892655 1.945482,0"
     style="fill:none;stroke:#c4c4c4;stroke-width:0.64858752px;stroke-linecap:square;stroke-linejoin:miter;stroke-opacity:1" />
  <path
     style="fill:none;stroke:#c4c4c4;stroke-width:0.64858741px;stroke-linecap:square;stroke-linejoin:miter;stroke-opacity:1"
     d="m 77.490292,41.515255 5.188774,0"
     id="path3836"
     inkscape:connector-curvature="0" />
  <path
     inkscape:connector-curvature="0"
     id="path3838"
     d="m 80.084642,44.109605 2.594237,0"
     style="fill:none;stroke:#c4c4c4;stroke-width:0.64858758px;stroke-linecap:square;stroke-linejoin:miter;stroke-opacity:1" />
  <path
     style="fill:none;stroke:#c4c4c4;stroke-width:0.64858758px;stroke-linecap:square;stroke-linejoin:miter;stroke-opacity:1"
     d="m 74.895943,46.703955 3.891667,0"
     id="path3840"
     inkscape:connector-curvature="0" />
  <path
     inkscape:connector-curvature="0"
     id="path3842"
     d="m 80.084642,46.703955 2.59428,0"
     style="fill:none;stroke:#c4c4c4;stroke-width:0.64858752px;stroke-linecap:square;stroke-linejoin:miter;stroke-opacity:1" />
  <path
     style="fill:none;stroke:#c4c4c4;stroke-width:0.64858741px;stroke-linecap:square;stroke-linejoin:miter;stroke-opacity:1"
     d="m 72.95018,51.892656 5.837342,0"
     id="path3844"
     inkscape:connector-curvature="0" />
  <path
     style="fill:none;stroke:#c4c4c4;stroke-width:0.64858752px;stroke-linecap:square;stroke-linejoin:miter;stroke-opacity:1"
     d="m 80.73323,51.892655 1.945482,0"
     id="path3846"
     inkscape:connector-curvature="0" />
  <path
     inkscape:connector-curvature="0"
     id="path3848"
     d="m 69.707242,54.487006 11.025832,0"
     style="fill:none;stroke:#c4c4c4;stroke-width:0.64858752px;stroke-linecap:square;stroke-linejoin:miter;stroke-opacity:1" />
</svg>
