<?xml version="1.0" encoding="UTF-8" standalone="no"?>
<!-- Created with Inkscape (http://www.inkscape.org/) -->

<svg
   xmlns:dc="http://purl.org/dc/elements/1.1/"
   xmlns:cc="http://creativecommons.org/ns#"
   xmlns:rdf="http://www.w3.org/1999/02/22-rdf-syntax-ns#"
   xmlns:svg="http://www.w3.org/2000/svg"
   xmlns="http://www.w3.org/2000/svg"
   xmlns:xlink="http://www.w3.org/1999/xlink"
   xmlns:sodipodi="http://sodipodi.sourceforge.net/DTD/sodipodi-0.dtd"
   xmlns:inkscape="http://www.inkscape.org/namespaces/inkscape"
   width="64"
   height="64"
   id="svg2"
   version="1.1"
   inkscape:version="0.48.4 r9939"
   sodipodi:docname="truecrypt.svg">
  <defs
     id="defs4">
    <linearGradient
       inkscape:collect="always"
       id="linearGradient3815">
      <stop
         style="stop-color:#67a5df;stop-opacity:1;"
         offset="0"
         id="stop3817" />
      <stop
         style="stop-color:#8dbce7;stop-opacity:1"
         offset="1"
         id="stop3819" />
    </linearGradient>
    <linearGradient
       inkscape:collect="always"
       xlink:href="#linearGradient3815"
       id="linearGradient3821"
       x1="37.785713"
       y1="1045.2866"
       x2="37.785713"
       y2="990.89349"
       gradientUnits="userSpaceOnUse" />
    <linearGradient
       inkscape:collect="always"
       xlink:href="#linearGradient3815"
       id="linearGradient3946"
       x1="30.973677"
       y1="1045.2567"
       x2="30.973677"
       y2="992.53833"
       gradientUnits="userSpaceOnUse" />
  </defs>
  <sodipodi:namedview
     id="base"
     pagecolor="#ffffff"
     bordercolor="#666666"
     borderopacity="1.0"
     inkscape:pageopacity="0.0"
     inkscape:pageshadow="2"
     inkscape:zoom="7.919596"
     inkscape:cx="31.244234"
     inkscape:cy="38.442889"
     inkscape:document-units="px"
     inkscape:current-layer="layer1"
     showgrid="false"
     inkscape:window-width="1110"
     inkscape:window-height="752"
     inkscape:window-x="0"
     inkscape:window-y="27"
     inkscape:window-maximized="0" />
  <metadata
     id="metadata7">
    <rdf:RDF>
      <cc:Work
         rdf:about="">
        <dc:format>image/svg+xml</dc:format>
        <dc:type
           rdf:resource="http://purl.org/dc/dcmitype/StillImage" />
        <dc:title />
      </cc:Work>
    </rdf:RDF>
  </metadata>
  <g
     inkscape:label="Layer 1"
     inkscape:groupmode="layer"
     id="layer1"
     transform="translate(0,-988.36218)">
    <rect
       style="fill:#324aa4;fill-opacity:1;stroke:none"
       id="rect3857"
       width="45"
       height="58"
       x="9.5"
       y="991.36218" />
    <rect
       y="992.36218"
       x="10.5"
       height="56"
       width="43"
       id="rect3836"
       style="fill:url(#linearGradient3821);fill-opacity:1;stroke:none" />
    <rect
       style="fill:#29498c;fill-opacity:1;stroke:none"
       id="rect2996"
       width="37"
       height="50"
       x="13.5"
       y="995.36218" />
    <rect
       style="fill:#ffffff;fill-opacity:1;stroke:none"
       id="rect3766"
       width="6"
       height="6"
       x="21.700001"
       y="996.36218" />
    <rect
       style="fill:#ffffff;fill-opacity:1;stroke:none"
       id="rect3770"
       width="6"
       height="6"
       x="28.9"
       y="996.36218" />
    <rect
       y="996.36218"
       x="36.099998"
       height="6"
       width="6"
       id="rect3772"
       style="fill:#ffffff;fill-opacity:1;stroke:none" />
    <rect
       style="fill:#ffffff;fill-opacity:1;stroke:none"
       id="rect3778"
       width="6"
       height="6"
       x="14.5"
       y="1003.3622" />
    <rect
       y="1003.3622"
       x="43.299999"
       height="6"
       width="6"
       id="rect3784"
       style="fill:#ffffff;fill-opacity:1;stroke:none" />
    <rect
       style="fill:#ffffff;fill-opacity:1;stroke:none"
       id="rect3786"
       width="6"
       height="6"
       x="21.700001"
       y="1010.3622" />
    <rect
       style="fill:#ffffff;fill-opacity:1;stroke:none"
       id="rect3790"
       width="6"
       height="6"
       x="28.9"
       y="1010.3622" />
    <rect
       y="1010.3622"
       x="36.099998"
       height="6"
       width="6"
       id="rect3792"
       style="fill:#ffffff;fill-opacity:1;stroke:none" />
    <rect
       y="1017.3622"
       x="28.9"
       height="6"
       width="6"
       id="rect3800"
       style="fill:#ffffff;fill-opacity:1;stroke:none" />
    <rect
       style="fill:#ffffff;fill-opacity:1;stroke:none"
       id="rect3810"
       width="6"
       height="6"
       x="28.9"
       y="1024.3622" />
    <rect
       y="1031.3622"
       x="28.9"
       height="6"
       width="6"
       id="rect3820"
       style="fill:#ffffff;fill-opacity:1;stroke:none" />
    <rect
       style="fill:#ffffff;fill-opacity:1;stroke:none"
       id="rect3826"
       width="6"
       height="6"
       x="21.700001"
       y="1038.3622" />
    <rect
       style="fill:#ffffff;fill-opacity:1;stroke:none"
       id="rect3830"
       width="6"
       height="6"
       x="28.9"
       y="1038.3622" />
    <path
       id="rect3834"
       style="fill:url(#linearGradient3946);fill-opacity:1;stroke:none"
       d="m 43.299999,1038.3622 6,0 0,6 -6,0 z m -7.200001,0 6,0 0,6 -6,0 z m -21.599998,0 6,0 0,6 -6,0 z m 28.799999,-7 6,0 0,6 -6,0 z m -7.200001,0 6,0 0,6 -6,0 z m -21.599998,0 6,0 0,6 -6,0 z m 7.200001,0 6,0 0,6 -6,0 z m 21.599998,-7 6,0 0,6 -6,0 z m -7.200001,0 6,0 0,6 -6,0 z m -21.599998,0 6,0 0,6 -6,0 z m 7.200001,0 6,0 0,6 -6,0 z m 21.599998,-7 6,0 0,6 -6,0 z m -7.200001,0 6,0 0,6 -6,0 z m -21.599998,0 6,0 0,6 -6,0 z m 7.200001,0 6,0 0,6 -6,0 z m 21.599998,-7 6,0 0,6 -6,0 z m -28.799999,0 6,0 0,6 -6,0 z m 21.599998,-7 6,0 0,6 -6,0 z m -7.199998,0 6,0 0,6 -6,0 z m -7.199999,0 6,0 0,6 -6,0 z m 21.599998,-7.00002 6,0 0,6.00002 -6,0 z m -28.799999,0 6,0 0,6.00002 -6,0 z" />
  </g>
</svg>
