<?xml version="1.0" encoding="UTF-8" standalone="no"?>
<!-- Created with Inkscape (http://www.inkscape.org/) -->

<svg
   xmlns:dc="http://purl.org/dc/elements/1.1/"
   xmlns:cc="http://creativecommons.org/ns#"
   xmlns:rdf="http://www.w3.org/1999/02/22-rdf-syntax-ns#"
   xmlns:svg="http://www.w3.org/2000/svg"
   xmlns="http://www.w3.org/2000/svg"
   xmlns:xlink="http://www.w3.org/1999/xlink"
   xmlns:sodipodi="http://sodipodi.sourceforge.net/DTD/sodipodi-0.dtd"
   xmlns:inkscape="http://www.inkscape.org/namespaces/inkscape"
   width="48"
   height="48"
   id="svg2"
   version="1.1"
   inkscape:version="0.48.4 r9939"
   sodipodi:docname="view-fullscreen.svg">
  <defs
     id="defs4">
    <linearGradient
       id="linearGradient3606">
      <stop
         style="stop-color:#c8c8c8;stop-opacity:1;"
         offset="0"
         id="stop3608" />
      <stop
         style="stop-color:#787878;stop-opacity:1;"
         offset="1"
         id="stop3610" />
    </linearGradient>
    <linearGradient
       id="linearGradient3596">
      <stop
         style="stop-color:#ffffff;stop-opacity:1;"
         offset="0"
         id="stop3598" />
      <stop
         style="stop-color:#c8c8c8;stop-opacity:1;"
         offset="1"
         id="stop3600" />
    </linearGradient>
    <linearGradient
       inkscape:collect="always"
       xlink:href="#linearGradient3596"
       id="linearGradient3697"
       gradientUnits="userSpaceOnUse"
       gradientTransform="translate(0,1002.6747)"
       x1="18.793785"
       y1="15.026335"
       x2="24"
       y2="51.500954" />
    <linearGradient
       inkscape:collect="always"
       xlink:href="#linearGradient3606"
       id="linearGradient3699"
       gradientUnits="userSpaceOnUse"
       gradientTransform="translate(0,1002.6747)"
       x1="24"
       y1="6.1875"
       x2="24"
       y2="12.1875" />
    <linearGradient
       y2="12.916146"
       x2="21.542574"
       y1="-4.6617665"
       x1="21.542574"
       gradientUnits="userSpaceOnUse"
       id="linearGradient3942"
       xlink:href="#linearGradient3675-2"
       inkscape:collect="always" />
    <linearGradient
       id="linearGradient3675-2">
      <stop
         style="stop-color:#d7e866;stop-opacity:1;"
         offset="0"
         id="stop3677-0" />
      <stop
         style="stop-color:#8cab2a;stop-opacity:1;"
         offset="1"
         id="stop3679-0" />
    </linearGradient>
    <linearGradient
       id="linearGradient3675-0">
      <stop
         style="stop-color:#d7e866;stop-opacity:1;"
         offset="0"
         id="stop3677-8" />
      <stop
         style="stop-color:#8cab2a;stop-opacity:1;"
         offset="1"
         id="stop3679-1" />
    </linearGradient>
    <linearGradient
       y2="12.916146"
       x2="21.542574"
       y1="-4.6617665"
       x1="21.542574"
       gradientUnits="userSpaceOnUse"
       id="linearGradient3104"
       xlink:href="#linearGradient3675-0"
       inkscape:collect="always" />
    <linearGradient
       id="linearGradient3675-2-5">
      <stop
         style="stop-color:#d7e866;stop-opacity:1;"
         offset="0"
         id="stop3677-0-0" />
      <stop
         style="stop-color:#8cab2a;stop-opacity:1;"
         offset="1"
         id="stop3679-0-3" />
    </linearGradient>
    <linearGradient
       y2="12.916146"
       x2="21.542574"
       y1="-4.6617665"
       x1="21.542574"
       gradientUnits="userSpaceOnUse"
       id="linearGradient3886"
       xlink:href="#linearGradient3675-2-5"
       inkscape:collect="always" />
    <linearGradient
       inkscape:collect="always"
       id="linearGradient3867">
      <stop
         style="stop-color:#ffffff;stop-opacity:0.5"
         offset="0"
         id="stop3869" />
      <stop
         style="stop-color:#ffffff;stop-opacity:0;"
         offset="1"
         id="stop3871" />
    </linearGradient>
    <linearGradient
       gradientTransform="matrix(0.83333333,0,0,0.82608696,3.9999994,182.27004)"
       y2="1052.7228"
       x2="26.526712"
       y1="1029.4478"
       x1="26.526712"
       gradientUnits="userSpaceOnUse"
       id="linearGradient3890"
       xlink:href="#linearGradient3867"
       inkscape:collect="always" />
    <linearGradient
       inkscape:collect="always"
       id="linearGradient3867-5">
      <stop
         style="stop-color:#ffffff;stop-opacity:0.5"
         offset="0"
         id="stop3869-9" />
      <stop
         style="stop-color:#ffffff;stop-opacity:0;"
         offset="1"
         id="stop3871-7" />
    </linearGradient>
    <linearGradient
       y2="1052.7228"
       x2="26.526712"
       y1="1029.4478"
       x1="26.526712"
       gradientTransform="matrix(0,0.83554445,-0.83478259,0,876.29502,1008.2539)"
       gradientUnits="userSpaceOnUse"
       id="linearGradient3118"
       xlink:href="#linearGradient3867-5"
       inkscape:collect="always" />
    <linearGradient
       inkscape:collect="always"
       id="linearGradient3867-5-3">
      <stop
         style="stop-color:#ffffff;stop-opacity:0.5"
         offset="0"
         id="stop3869-9-0" />
      <stop
         style="stop-color:#ffffff;stop-opacity:0;"
         offset="1"
         id="stop3871-7-3" />
    </linearGradient>
    <linearGradient
       y2="1052.7228"
       x2="26.526712"
       y1="1029.4478"
       x1="26.526712"
       gradientTransform="matrix(0,0.8355389,0.83913043,0,-832.80178,1008.2539)"
       gradientUnits="userSpaceOnUse"
       id="linearGradient3152"
       xlink:href="#linearGradient3867-5-3"
       inkscape:collect="always" />
  </defs>
  <sodipodi:namedview
     id="base"
     pagecolor="#ffffff"
     bordercolor="#666666"
     borderopacity="1.0"
     inkscape:pageopacity="0.0"
     inkscape:pageshadow="2"
     inkscape:zoom="32"
     inkscape:cx="8.3338294"
     inkscape:cy="24.070307"
     inkscape:document-units="px"
     inkscape:current-layer="g3682"
     showgrid="false"
     inkscape:window-width="941"
     inkscape:window-height="707"
     inkscape:window-x="334"
     inkscape:window-y="115"
     inkscape:window-maximized="0" />
  <metadata
     id="metadata7">
    <rdf:RDF>
      <cc:Work
         rdf:about="">
        <dc:format>image/svg+xml</dc:format>
        <dc:type
           rdf:resource="http://purl.org/dc/dcmitype/StillImage" />
        <dc:title />
      </cc:Work>
    </rdf:RDF>
  </metadata>
  <g
     inkscape:label="Livello 1"
     inkscape:groupmode="layer"
     id="layer1"
     transform="translate(0,-1004.3622)">
    <g
       id="g3682"
       transform="translate(1e-7,-0.18945)">
      <g
         transform="matrix(0.66666667,0,0,0.66666667,7.9999991,342.7239)"
         id="g2885">
        <path
           id="path3594"
           d="M 5.5909091,1008.3622 C 3.3245455,1008.3622 1.5,1010.1919 1.5,1012.4648 l 0,2.0512 0,25.6411 0,6.1538 c 0,1.1364 0.9122727,2.0513 2.0454545,2.0513 l 40.9090905,0 c 1.133182,0 2.045455,-0.9149 2.045455,-2.0513 l 0,-6.1538 0,-25.6411 0,-2.0512 c 0,-2.2729 -1.824545,-4.1026 -4.090909,-4.1026 l -36.8181819,0 z"
           style="fill:#646464;fill-opacity:0.58823529;fill-rule:nonzero;stroke:none" />
        <path
           style="fill:url(#linearGradient3697);fill-opacity:1;fill-rule:nonzero;stroke:none"
           d="m 6,1008.8622 c -2.216,0 -4,1.784 -4,4 l 0,2 0,25 0,6 c 0,1.108 0.892,2 2,2 l 40,0 c 1.108,0 2,-0.892 2,-2 l 0,-6 0,-25 0,-2 c 0,-2.216 -1.784,-4 -4,-4 l -36,0 z"
           id="rect2816" />
        <path
           sodipodi:nodetypes="ccccccc"
           style="fill:#505050;fill-opacity:1;fill-rule:nonzero;stroke:none"
           d="m 6,1009.2411 c -2.216,0 -4,1.784 -4,4 l 0,2 44,0 0,-2 c 0,-2.216 -1.784,-4 -4,-4 l -36,0 z"
           id="path3614" />
        <path
           id="path3604"
           d="m 6,1008.8622 c -2.216,0 -4,1.784 -4,4 l 0,2 44,0 0,-2 c 0,-2.216 -1.784,-4 -4,-4 l -36,0 z"
           style="fill:url(#linearGradient3699);fill-opacity:1;fill-rule:nonzero;stroke:none"
           sodipodi:nodetypes="ccccccc" />
      </g>
      <path
         transform="matrix(0,1.2441864,0.92477476,0,6.0653572,1003.3217)"
         d="m 26.944241,5.8767195 -6.867459,9e-7 -6.867458,-1e-6 3.433728,-5.94739397 3.43373,-5.94739323 3.43373,5.94739305 z"
         inkscape:randomized="0"
         inkscape:rounded="0"
         inkscape:flatsided="false"
         sodipodi:arg2="1.5707963"
         sodipodi:arg1="0.52359878"
         sodipodi:r2="3.9649301"
         sodipodi:r1="7.9298582"
         sodipodi:cy="1.9117904"
         sodipodi:cx="20.076782"
         sodipodi:sides="3"
         id="path3671-31"
         style="fill:url(#linearGradient3104);fill-opacity:1;fill-rule:nonzero;stroke:#689536;stroke-width:0.9322648;stroke-miterlimit:4;stroke-opacity:1;stroke-dasharray:none"
         sodipodi:type="star" />
      <path
         transform="matrix(0,1.2441864,-0.92477476,0,41.934643,1003.3217)"
         d="m 26.944241,5.8767195 -6.867459,9e-7 -6.867458,-1e-6 3.433728,-5.94739397 3.43373,-5.94739323 3.43373,5.94739305 z"
         inkscape:randomized="0"
         inkscape:rounded="0"
         inkscape:flatsided="false"
         sodipodi:arg2="1.5707963"
         sodipodi:arg1="0.52359878"
         sodipodi:r2="3.9649301"
         sodipodi:r1="7.9298582"
         sodipodi:cy="1.9117904"
         sodipodi:cx="20.076782"
         sodipodi:sides="3"
         id="path3671-3"
         style="fill:url(#linearGradient3942);fill-opacity:1;fill-rule:nonzero;stroke:#689536;stroke-width:0.9322648;stroke-miterlimit:4;stroke-opacity:1;stroke-dasharray:none"
         sodipodi:type="star" />
      <path
         transform="matrix(-1.2441864,0,0,-0.92477476,48.978658,1043.4863)"
         d="m 26.944241,5.8767195 -6.867459,9e-7 -6.867458,-1e-6 3.433728,-5.94739397 3.43373,-5.94739323 3.43373,5.94739305 z"
         inkscape:randomized="0"
         inkscape:rounded="0"
         inkscape:flatsided="false"
         sodipodi:arg2="1.5707963"
         sodipodi:arg1="0.52359878"
         sodipodi:r2="3.9649301"
         sodipodi:r1="7.9298582"
         sodipodi:cy="1.9117904"
         sodipodi:cx="20.076782"
         sodipodi:sides="3"
         id="path3671-3-1"
         style="fill:url(#linearGradient3886);fill-opacity:1;fill-rule:nonzero;stroke:#689536;stroke-width:0.9322648;stroke-miterlimit:4;stroke-opacity:1;stroke-dasharray:none"
         sodipodi:type="star" />
      <path
         style="font-size:medium;font-style:normal;font-variant:normal;font-weight:normal;font-stretch:normal;text-indent:0;text-align:start;text-decoration:none;line-height:normal;letter-spacing:normal;word-spacing:normal;text-transform:none;direction:ltr;block-progression:tb;writing-mode:lr-tb;text-anchor:start;baseline-shift:baseline;color:#000000;fill:url(#linearGradient3890);fill-opacity:1;fill-rule:nonzero;stroke:none;stroke-width:0.79269242;marker:none;visibility:visible;display:inline;overflow:visible;enable-background:accumulate;font-family:Sans;-inkscape-font-specification:Sans"
         d="m 24.015528,1048.0516 0.341614,-0.4307 3.385093,-4.3079 3.41615,-4.3303 0.341615,-0.4311 -0.683231,0 -6.801241,0 -6.832298,0 -0.68323,0 0.341615,0.4311 3.416149,4.3303 3.416148,4.3079 0.341616,0.4307 z m 0,-1.1562 -3.074534,-3.8771 -3.074535,-3.8771 6.149069,0 6.118012,0 -3.074534,3.8771 -3.043478,3.8771 z"
         id="path3671-3-1-1"
         inkscape:connector-curvature="0" />
      <path
         style="font-size:medium;font-style:normal;font-variant:normal;font-weight:normal;font-stretch:normal;text-indent:0;text-align:start;text-decoration:none;line-height:normal;letter-spacing:normal;word-spacing:normal;text-transform:none;direction:ltr;block-progression:tb;writing-mode:lr-tb;text-anchor:start;baseline-shift:baseline;color:#000000;fill:url(#linearGradient3118);fill-opacity:1;fill-rule:nonzero;stroke:none;stroke-width:0.79269242;marker:none;visibility:visible;display:inline;overflow:visible;enable-background:accumulate;font-family:Sans;-inkscape-font-specification:Sans"
         d="m 1.3999999,1028.3226 0.4352337,0.3425 4.3532461,3.3942 4.3758823,3.4249 0.435638,0.3425 0,-0.6849 0,-6.8194 0,-6.8506 0,-0.6851 -0.435638,0.3425 -4.3758823,3.4253 -4.3532461,3.4253 -0.4352337,0.3425 z m 1.1683705,0 3.9179115,-3.0827 3.9179111,-3.0827 0,6.1654 0,6.1342 -3.9179111,-3.0827 -3.9179115,-3.0515 z"
         id="path3671-3-1-1-5"
         inkscape:connector-curvature="0" />
      <path
         style="font-size:medium;font-style:normal;font-variant:normal;font-weight:normal;font-stretch:normal;text-indent:0;text-align:start;text-decoration:none;line-height:normal;letter-spacing:normal;word-spacing:normal;text-transform:none;direction:ltr;block-progression:tb;writing-mode:lr-tb;text-anchor:start;baseline-shift:baseline;color:#000000;fill:url(#linearGradient3152);fill-opacity:1;fill-rule:nonzero;stroke:none;stroke-width:0.79269242;marker:none;visibility:visible;display:inline;overflow:visible;enable-background:accumulate;font-family:Sans;-inkscape-font-specification:Sans"
         d="m 46.65,1028.3223 -0.4375,0.3427 -4.37592,3.3941 -4.398673,3.4249 -0.437907,0.3427 0,-0.6845 0,-6.8199 0,-6.8507 0,-0.6849 0.437907,0.3426 4.398673,3.4258 4.37592,3.4251 0.4375,0.3423 z m -1.174456,0 -3.938317,-3.0825 -3.938317,-3.0826 0,6.1651 0,6.1342 3.938317,-3.0825 3.938317,-3.0516 z"
         id="path3671-3-1-1-5-0"
         inkscape:connector-curvature="0" />
    </g>
  </g>
</svg>
