<?xml version="1.0" encoding="UTF-8" standalone="no"?>
<!-- Created with Inkscape (http://www.inkscape.org/) -->

<svg
   xmlns:dc="http://purl.org/dc/elements/1.1/"
   xmlns:cc="http://creativecommons.org/ns#"
   xmlns:rdf="http://www.w3.org/1999/02/22-rdf-syntax-ns#"
   xmlns:svg="http://www.w3.org/2000/svg"
   xmlns="http://www.w3.org/2000/svg"
   xmlns:xlink="http://www.w3.org/1999/xlink"
   xmlns:sodipodi="http://sodipodi.sourceforge.net/DTD/sodipodi-0.dtd"
   xmlns:inkscape="http://www.inkscape.org/namespaces/inkscape"
   version="1.0"
   width="128"
   height="128"
   id="svg4486"
   sodipodi:version="0.32"
   inkscape:version="0.48.4 r9939"
   sodipodi:docname="sound.svg"
   inkscape:output_extension="org.inkscape.output.svg.inkscape">
  <metadata
     id="metadata51">
    <rdf:RDF>
      <cc:Work
         rdf:about="">
        <dc:format>image/svg+xml</dc:format>
        <dc:type
           rdf:resource="http://purl.org/dc/dcmitype/StillImage" />
        <dc:title />
      </cc:Work>
    </rdf:RDF>
  </metadata>
  <sodipodi:namedview
     inkscape:window-height="781"
     inkscape:window-width="1438"
     inkscape:pageshadow="2"
     inkscape:pageopacity="0.0"
     guidetolerance="10.0"
     gridtolerance="10.0"
     objecttolerance="10.0"
     borderopacity="1.0"
     bordercolor="#666666"
     pagecolor="#ffffff"
     id="base"
     showgrid="false"
     inkscape:zoom="2.8284271"
     inkscape:cx="31.162811"
     inkscape:cy="95.900791"
     inkscape:window-x="0"
     inkscape:window-y="160"
     inkscape:current-layer="svg4486"
     inkscape:window-maximized="0" />
  <defs
     id="defs4488">
    <linearGradient
       id="linearGradient4018">
      <stop
         style="stop-color:#000000;stop-opacity:0.88235295;"
         offset="0"
         id="stop4020" />
      <stop
         style="stop-color:#000000;stop-opacity:0;"
         offset="1"
         id="stop4022" />
    </linearGradient>
    <linearGradient
       inkscape:collect="always"
       xlink:href="#linearGradient3783"
       id="linearGradient3789"
       x1="7.2591696"
       y1="6.7927251"
       x2="7.2591696"
       y2="19.085949"
       gradientUnits="userSpaceOnUse"
       gradientTransform="matrix(1.0976756,0,0,1.0502174,-1.1551998,-0.75754239)" />
    <linearGradient
       id="linearGradient3783">
      <stop
         style="stop-color:#d7e866;stop-opacity:1;"
         offset="0"
         id="stop3785" />
      <stop
         style="stop-color:#94b62d;stop-opacity:1;"
         offset="1"
         id="stop3787" />
    </linearGradient>
    <radialGradient
       cx="14.270205"
       cy="36.985195"
       r="5.7384715"
       fx="14.270205"
       fy="36.985195"
       id="radialGradient3538-3-9"
       xlink:href="#linearGradient3791"
       gradientUnits="userSpaceOnUse"
       gradientTransform="matrix(0.67744776,-0.14923998,-0.10647048,0.72716988,-4.5237978,-13.444399)" />
    <linearGradient
       id="linearGradient3791">
      <stop
         id="stop3793"
         offset="0"
         style="stop-color:#ffffff;stop-opacity:1;" />
      <stop
         id="stop3795"
         offset="1"
         style="stop-color:#badf4a;stop-opacity:0.10416666;" />
    </linearGradient>
    <linearGradient
       id="linearGradient2372-7-3-2">
      <stop
         id="stop2374-5-9-1"
         style="stop-color:#ffffff;stop-opacity:1"
         offset="0" />
      <stop
         id="stop2376-3-7-7"
         style="stop-color:#ffffff;stop-opacity:0.37931034"
         offset="1" />
    </linearGradient>
    <linearGradient
       inkscape:collect="always"
       xlink:href="#linearGradient2372-7-3-2"
       id="linearGradient3976"
       gradientUnits="userSpaceOnUse"
       gradientTransform="matrix(0.23748834,0,0,0.12407777,6.4158579,-14.188467)"
       x1="28.739122"
       y1="144.11652"
       x2="26.256771"
       y2="125.39074" />
    <linearGradient
       id="linearGradient3791-2">
      <stop
         id="stop3793-3"
         offset="0"
         style="stop-color:#ffffff;stop-opacity:1;" />
      <stop
         id="stop3795-6"
         offset="1"
         style="stop-color:#badf4a;stop-opacity:0.10416666;" />
    </linearGradient>
    <radialGradient
       r="5.7384715"
       fy="36.985195"
       fx="14.270205"
       cy="36.985195"
       cx="14.270205"
       gradientTransform="matrix(0.67744776,-0.14923998,-0.10647048,0.72716988,3.5026507,-13.342876)"
       gradientUnits="userSpaceOnUse"
       id="radialGradient3183"
       xlink:href="#linearGradient3791-2"
       inkscape:collect="always" />
    <linearGradient
       inkscape:collect="always"
       xlink:href="#linearGradient2372-7-3-2"
       id="linearGradient3881"
       gradientUnits="userSpaceOnUse"
       gradientTransform="matrix(0.13863734,0,0,0.13519235,-0.06345227,-15.717599)"
       x1="28.256302"
       y1="129.73555"
       x2="57.507824"
       y2="181.79546" />
    <filter
       inkscape:collect="always"
       id="filter3876"
       x="-0.12"
       width="1.24"
       y="-0.35999999"
       height="1.72">
      <feGaussianBlur
         inkscape:collect="always"
         stdDeviation="3.0759146"
         id="feGaussianBlur3878" />
    </filter>
    <radialGradient
       inkscape:collect="always"
       xlink:href="#linearGradient4018"
       id="radialGradient4024"
       cx="35.355339"
       cy="109.96878"
       fx="35.355339"
       fy="109.96878"
       r="36.565597"
       gradientTransform="matrix(1,0,0,0.27141213,0,80.121919)"
       gradientUnits="userSpaceOnUse" />
    <linearGradient
       id="linearGradient4018-3">
      <stop
         style="stop-color:#000000;stop-opacity:0.88235295;"
         offset="0"
         id="stop4020-5" />
      <stop
         style="stop-color:#000000;stop-opacity:0;"
         offset="1"
         id="stop4022-7" />
    </linearGradient>
    <filter
       color-interpolation-filters="sRGB"
       inkscape:collect="always"
       id="filter3876-5"
       x="-0.12"
       width="1.24"
       y="-0.35999998"
       height="1.72">
      <feGaussianBlur
         inkscape:collect="always"
         stdDeviation="3.0759146"
         id="feGaussianBlur3878-6" />
    </filter>
    <radialGradient
       r="36.565598"
       fy="109.96878"
       fx="35.355339"
       cy="109.96878"
       cx="35.355339"
       gradientTransform="matrix(1,0,0,0.27141213,0,80.121919)"
       gradientUnits="userSpaceOnUse"
       id="radialGradient4043"
       xlink:href="#linearGradient4018-3"
       inkscape:collect="always" />
  </defs>
  <path
     sodipodi:type="arc"
     style="opacity:0.35;fill:url(#radialGradient4043);fill-opacity:1;stroke:none;filter:url(#filter3876-5)"
     id="path3102-5"
     sodipodi:cx="35.355339"
     sodipodi:cy="109.96878"
     sodipodi:rx="30.759146"
     sodipodi:ry="10.253049"
     d="m 66.114485,109.96878 a 30.759146,10.253049 0 1 1 -61.5182917,0 30.759146,10.253049 0 1 1 61.5182917,0 z"
     transform="matrix(0.78654812,0,0,0.76551252,62.191324,20.817522)" />
  <path
     sodipodi:type="arc"
     style="opacity:0.35;fill:url(#radialGradient4024);fill-opacity:1;stroke:none;filter:url(#filter3876)"
     id="path3102"
     sodipodi:cx="35.355339"
     sodipodi:cy="109.96878"
     sodipodi:rx="30.759146"
     sodipodi:ry="10.253049"
     d="m 66.114485,109.96878 a 30.759146,10.253049 0 1 1 -61.5182917,0 30.759146,10.253049 0 1 1 61.5182917,0 z"
     transform="matrix(0.78654812,0,0,0.76551252,6.1913245,20.817522)" />
  <g
     transform="matrix(6.5286209,0,0,7.1807586,16.09269,4.5392181)"
     id="layer1-8">
    <path
       inkscape:connector-curvature="0"
       d="M 12.9907,11.049673 12.588205,7.9462293"
       id="path2931-3"
       style="fill:none;stroke:none"
       sodipodi:nodetypes="cc" />
    <path
       inkscape:connector-curvature="0"
       d="m 3.4946385,3.7485173 c 0,2.6590902 0,2.7687437 0,5.4278346 -1.4438187,0 -3.60743043,0.3065525 -3.75971327,2.6762531 -0.07235,1.125851 0.73103056,2.602752 2.30780667,2.799172 1.4212769,0.177049 3.5148517,-0.616366 3.5396376,-2.450728 -0.022112,-2.7299467 0.0062,-5.5392811 0,-8.2696442 0.3820013,0 5.5754445,0 6.0610105,0 0,2.0449276 0,3.2000193 0,5.2449471 -1.246486,0 -3.3121953,0.3161727 -3.4234837,2.6986481 -0.060683,1.299105 0.9355147,2.670707 2.6291847,2.769801 1.459621,0.0854 3.371427,-0.805015 3.371427,-2.443332 -0.02905,-3.6402374 0.02155,-5.3979781 -0.0022,-9.0386023 0,-0.9266441 -0.501313,-1.5216104 -1.611616,-1.5216104 -2.159757,0 -5.3553497,0 -7.3280412,0 -1.4414163,0 -1.7840014,1.0772599 -1.7840123,2.107261 z"
       id="path4031-1"
       style="fill:url(#linearGradient3789);fill-opacity:1;stroke:#507f16;stroke-width:0.14605086;stroke-linecap:butt;stroke-linejoin:round;stroke-miterlimit:4;stroke-opacity:1;stroke-dasharray:none"
       sodipodi:nodetypes="ccssccccssccssc" />
    <path
       inkscape:connector-curvature="0"
       d="m 5.3546957,11.398954 c -2.275e-4,1.168399 -1.6423478,2.952382 -2.9620141,3.168383 -0.9811907,0.160601 -2.57272057,-0.819241 -2.57271971,-2.65179 7e-7,-1.4675 1.06666998,-2.3117271 2.21516381,-2.5136177 2.6783594,-0.4708214 3.319296,0.5825175 3.31957,1.9970247 z"
       id="path2937-4"
       style="fill:url(#radialGradient3538-3-9);fill-opacity:1;stroke:none"
       sodipodi:nodetypes="ccssc" />
    <path
       d="m 3.5772971,9.3373092 c 0,0 0.00549,-3.9104828 0.00549,-5.8738924 0,-0.2641802 0.1460838,-0.9367427 0.4425032,-1.2619099 0.2510258,-0.2753712 0.6410655,-0.480395 1.0772436,-0.480395 0.1966284,0 5.3360891,-0.00848 5.3360891,-0.00848 0,0 2.224161,-0.041253 -4.9256793,0.752609 C 4.7671311,2.6524709 4.0565312,3.1248623 4.0282892,3.4096052 3.8912059,4.7917106 3.9002026,4.3894229 3.9002026,9.4422866 3.6997832,9.3740834 3.795917,9.4031373 3.5772971,9.3373092 z"
       id="path2945-9"
       style="opacity:0.4;fill:url(#linearGradient3881);fill-opacity:1;fill-rule:evenodd;stroke:none"
       inkscape:connector-curvature="0"
       sodipodi:nodetypes="csssccscc" />
    <path
       d="m 11.719641,9.2504519 -1.72e-4,-5.3922054 0.596529,0 c 0,0 2.54e-4,1.282592 2.54e-4,5.741572 0,0.03324 -0.249759,-0.3035288 -0.596611,-0.3493666 z"
       id="path2947-4"
       style="opacity:0.4;fill:url(#linearGradient3976);fill-opacity:1;fill-rule:evenodd;stroke:none"
       inkscape:connector-curvature="0"
       sodipodi:nodetypes="cccsc" />
    <path
       inkscape:connector-curvature="0"
       d="m 14.039831,11.258776 c -2.27e-4,1.168399 -0.807625,3.651227 -3.402924,3.275051 -1.29098,-0.187121 -2.3253462,-1.14119 -2.3253454,-2.594088 7e-7,-1.396505 0.7866009,-2.293614 2.2200414,-2.5827465 2.234288,-0.4506675 3.508002,0.7334585 3.508228,1.9017835 z"
       id="path2937-4-0"
       style="fill:url(#radialGradient3183);fill-opacity:1;stroke:none"
       sodipodi:nodetypes="csssc" />
  </g>
</svg>
