<?xml version="1.0" encoding="UTF-8" standalone="no"?>
<!-- Created with Inkscape (http://www.inkscape.org/) -->

<svg
   xmlns:dc="http://purl.org/dc/elements/1.1/"
   xmlns:cc="http://creativecommons.org/ns#"
   xmlns:rdf="http://www.w3.org/1999/02/22-rdf-syntax-ns#"
   xmlns:svg="http://www.w3.org/2000/svg"
   xmlns="http://www.w3.org/2000/svg"
   xmlns:xlink="http://www.w3.org/1999/xlink"
   xmlns:sodipodi="http://sodipodi.sourceforge.net/DTD/sodipodi-0.dtd"
   xmlns:inkscape="http://www.inkscape.org/namespaces/inkscape"
   version="1.0"
   width="128"
   height="128"
   id="svg4486"
   sodipodi:version="0.32"
   inkscape:version="0.48.4 r9939"
   sodipodi:docname="text-x-authors.svg"
   inkscape:output_extension="org.inkscape.output.svg.inkscape">
  <metadata
     id="metadata51">
    <rdf:RDF>
      <cc:Work
         rdf:about="">
        <dc:format>image/svg+xml</dc:format>
        <dc:type
           rdf:resource="http://purl.org/dc/dcmitype/StillImage" />
        <dc:title />
      </cc:Work>
    </rdf:RDF>
  </metadata>
  <sodipodi:namedview
     inkscape:window-height="781"
     inkscape:window-width="1438"
     inkscape:pageshadow="2"
     inkscape:pageopacity="0.0"
     guidetolerance="10.0"
     gridtolerance="10.0"
     objecttolerance="10.0"
     borderopacity="1.0"
     bordercolor="#666666"
     pagecolor="#ffffff"
     id="base"
     showgrid="false"
     inkscape:zoom="4"
     inkscape:cx="31.946691"
     inkscape:cy="81.449852"
     inkscape:window-x="0"
     inkscape:window-y="24"
     inkscape:current-layer="svg4486"
     inkscape:window-maximized="0" />
  <defs
     id="defs4488">
    <linearGradient
       id="linearGradient5048">
      <stop
         id="stop5050"
         style="stop-color:#000000;stop-opacity:0"
         offset="0" />
      <stop
         id="stop5056"
         style="stop-color:#000000;stop-opacity:1"
         offset="0.5" />
      <stop
         id="stop5052"
         style="stop-color:#000000;stop-opacity:0"
         offset="1" />
    </linearGradient>
    <linearGradient
       id="linearGradient5060">
      <stop
         id="stop5062"
         style="stop-color:#000000;stop-opacity:1"
         offset="0" />
      <stop
         id="stop5064"
         style="stop-color:#000000;stop-opacity:0"
         offset="1" />
    </linearGradient>
    <linearGradient
       id="linearGradient3104">
      <stop
         id="stop3106"
         style="stop-color:#aaaaaa;stop-opacity:1"
         offset="0" />
      <stop
         id="stop3108"
         style="stop-color:#c8c8c8;stop-opacity:1"
         offset="1" />
    </linearGradient>
    <linearGradient
       id="linearGradient3600">
      <stop
         id="stop3602"
         style="stop-color:#f4f4f4;stop-opacity:1"
         offset="0" />
      <stop
         id="stop3604"
         style="stop-color:#dbdbdb;stop-opacity:1"
         offset="1" />
    </linearGradient>
    <radialGradient
       cx="102"
       cy="112.3047"
       r="139.55859"
       id="XMLID_8_"
       gradientUnits="userSpaceOnUse">
      <stop
         id="stop41"
         style="stop-color:#b7b8b9;stop-opacity:1"
         offset="0" />
      <stop
         id="stop47"
         style="stop-color:#ececec;stop-opacity:1"
         offset="0.18851049" />
      <stop
         id="stop49"
         style="stop-color:#fafafa;stop-opacity:0"
         offset="0.25718147" />
      <stop
         id="stop51"
         style="stop-color:#ffffff;stop-opacity:0"
         offset="0.30111277" />
      <stop
         id="stop53"
         style="stop-color:#fafafa;stop-opacity:0"
         offset="0.53130001" />
      <stop
         id="stop55"
         style="stop-color:#ebecec;stop-opacity:0"
         offset="0.84490001" />
      <stop
         id="stop57"
         style="stop-color:#e1e2e3;stop-opacity:0"
         offset="1" />
    </radialGradient>
    <linearGradient
       id="linearGradient3211">
      <stop
         id="stop3213"
         style="stop-color:#ffffff;stop-opacity:1"
         offset="0" />
      <stop
         id="stop3215"
         style="stop-color:#ffffff;stop-opacity:0"
         offset="1" />
    </linearGradient>
    <linearGradient
       id="linearGradient8589">
      <stop
         id="stop8591"
         style="stop-color:#fefefe;stop-opacity:1"
         offset="0" />
      <stop
         id="stop8593"
         style="stop-color:#cbcbcb;stop-opacity:1"
         offset="1" />
    </linearGradient>
    <linearGradient
       x1="32.892288"
       y1="8.0590115"
       x2="36.358372"
       y2="5.4565363"
       id="linearGradient2455"
       xlink:href="#linearGradient8589"
       gradientUnits="userSpaceOnUse"
       gradientTransform="matrix(2.6605294,0,0,2.7751643,0.7455334,-3.5662351)" />
    <linearGradient
       x1="24"
       y1="1.9999999"
       x2="24"
       y2="46.01725"
       id="linearGradient2459"
       xlink:href="#linearGradient3211"
       gradientUnits="userSpaceOnUse"
       gradientTransform="matrix(2.7575715,0,0,2.6744155,-2.1817183,-4.1859717)" />
    <radialGradient
       cx="102"
       cy="112.3047"
       r="139.55859"
       id="radialGradient2462"
       xlink:href="#XMLID_8_"
       gradientUnits="userSpaceOnUse"
       gradientTransform="matrix(0.9787237,0,0,-1.0535153,1.3617012,127.48164)" />
    <linearGradient
       x1="25.132275"
       y1="0.98520643"
       x2="25.132275"
       y2="47.013336"
       id="linearGradient2465"
       xlink:href="#linearGradient3600"
       gradientUnits="userSpaceOnUse"
       gradientTransform="matrix(2.657139,0,0,2.5422197,0.2286615,-4.9132741)" />
    <linearGradient
       x1="-51.786404"
       y1="50.786446"
       x2="-51.786404"
       y2="2.9062471"
       id="linearGradient2467"
       xlink:href="#linearGradient3104"
       gradientUnits="userSpaceOnUse"
       gradientTransform="matrix(2.1456312,0,0,2.3791388,158.0899,-7.7465258)" />
    <linearGradient
       x1="302.85715"
       y1="366.64789"
       x2="302.85715"
       y2="609.50507"
       id="linearGradient2483"
       xlink:href="#linearGradient5048"
       gradientUnits="userSpaceOnUse"
       gradientTransform="matrix(0.1725148,0,0,0.03920058,0.6482238,98.773724)" />
    <radialGradient
       cx="605.71429"
       cy="486.64789"
       r="117.14286"
       fx="605.71429"
       fy="486.64789"
       id="radialGradient2485"
       xlink:href="#linearGradient5060"
       gradientUnits="userSpaceOnUse"
       gradientTransform="matrix(-0.05903807,0,0,0.03920058,56.929907,98.773804)" />
    <radialGradient
       cx="605.71429"
       cy="486.64789"
       r="117.14286"
       fx="605.71429"
       fy="486.64789"
       id="radialGradient2487"
       xlink:href="#linearGradient5060"
       gradientUnits="userSpaceOnUse"
       gradientTransform="matrix(0.05903808,0,0,0.03920058,69.07008,98.773804)" />
    <linearGradient
       x1="-125.5994"
       y1="77.089539"
       x2="-125.5994"
       y2="87.611153"
       id="linearGradient4018-819-428-410"
       xlink:href="#linearGradient3878-807-456-317"
       gradientUnits="userSpaceOnUse"
       gradientTransform="matrix(0.71846714,0,0,0.89808387,19.065773,-141.65626)" />
    <linearGradient
       id="linearGradient3878-807-456-317">
      <stop
         id="stop5529"
         style="stop-color:#a3b7e6;stop-opacity:1"
         offset="0" />
      <stop
         id="stop5531"
         style="stop-color:#a6bef8;stop-opacity:1"
         offset="0.12062506" />
      <stop
         id="stop5533"
         style="stop-color:#6588dd;stop-opacity:1"
         offset="1" />
    </linearGradient>
    <linearGradient
       x1="-122.15204"
       y1="75.476608"
       x2="-122.15204"
       y2="87.611115"
       id="linearGradient4020-670-947-281"
       xlink:href="#linearGradient4022-710-393-153"
       gradientUnits="userSpaceOnUse"
       gradientTransform="matrix(0.71846714,0,0,0.89808387,19.065773,-141.65626)" />
    <linearGradient
       id="linearGradient4022-710-393-153">
      <stop
         id="stop5537"
         style="stop-color:#93a1c1;stop-opacity:1"
         offset="0" />
      <stop
         id="stop5539"
         style="stop-color:#9dadd7;stop-opacity:1"
         offset="0.08361457" />
      <stop
         id="stop5541"
         style="stop-color:#9fb2e3;stop-opacity:1"
         offset="0.14855438" />
      <stop
         id="stop5543"
         style="stop-color:#607fcb;stop-opacity:1"
         offset="0.8635664" />
      <stop
         id="stop5545"
         style="stop-color:#f2f2f2;stop-opacity:0.56896549"
         offset="0.87115383" />
      <stop
         id="stop5547"
         style="stop-color:#f2f2f2;stop-opacity:0.50862068"
         offset="1" />
    </linearGradient>
    <linearGradient
       x1="-125.5994"
       y1="76.397659"
       x2="-125.5994"
       y2="87.611153"
       id="linearGradient3965-293-767-619"
       xlink:href="#linearGradient3922-140-682-296"
       gradientUnits="userSpaceOnUse"
       gradientTransform="matrix(0.71846714,0,0,0.89808387,-4.9335477,-141.65599)" />
    <linearGradient
       id="linearGradient3922-140-682-296">
      <stop
         id="stop5507"
         style="stop-color:#c9b1d6;stop-opacity:1"
         offset="0" />
      <stop
         id="stop5509"
         style="stop-color:#d4b5e7;stop-opacity:1"
         offset="0.12062506" />
      <stop
         id="stop5511"
         style="stop-color:#a97cc4;stop-opacity:1"
         offset="1" />
    </linearGradient>
    <linearGradient
       x1="-122.15204"
       y1="75.476608"
       x2="-122.15204"
       y2="87.611115"
       id="linearGradient3967-559-364-412"
       xlink:href="#linearGradient3908-425-486-280"
       gradientUnits="userSpaceOnUse"
       gradientTransform="matrix(0.71846714,0,0,0.89808387,-4.9335477,-141.65599)" />
    <linearGradient
       id="linearGradient3908-425-486-280">
      <stop
         id="stop5515"
         style="stop-color:#ad9eb6;stop-opacity:1"
         offset="0" />
      <stop
         id="stop5517"
         style="stop-color:#bdaaca;stop-opacity:1"
         offset="0.08361457" />
      <stop
         id="stop5519"
         style="stop-color:#c6add4;stop-opacity:1"
         offset="0.14855438" />
      <stop
         id="stop5521"
         style="stop-color:#9e75b5;stop-opacity:1"
         offset="0.86632949" />
      <stop
         id="stop5523"
         style="stop-color:#f2f2f2;stop-opacity:0.5"
         offset="0.87625819" />
      <stop
         id="stop5525"
         style="stop-color:#f2f2f2;stop-opacity:0.5"
         offset="1" />
    </linearGradient>
    <linearGradient
       x1="-125.5994"
       y1="76.397659"
       x2="-125.5994"
       y2="87.611153"
       id="linearGradient3970-548-241-367"
       xlink:href="#linearGradient3886-233-361-669"
       gradientUnits="userSpaceOnUse"
       gradientTransform="matrix(0.71846714,0,0,0.89808387,7.0661106,-141.65598)" />
    <linearGradient
       id="linearGradient3886-233-361-669">
      <stop
         id="stop5463"
         style="stop-color:#b4a9e1;stop-opacity:1"
         offset="0" />
      <stop
         id="stop5465"
         style="stop-color:#b8aaf4;stop-opacity:1"
         offset="0.12062506" />
      <stop
         id="stop5467"
         style="stop-color:#806cd5;stop-opacity:1"
         offset="1" />
    </linearGradient>
    <linearGradient
       x1="-122.15204"
       y1="75.476608"
       x2="-122.15204"
       y2="87.611115"
       id="linearGradient3972-393-404-624"
       xlink:href="#linearGradient3894-484-185-212"
       gradientUnits="userSpaceOnUse"
       gradientTransform="matrix(0.71846714,0,0,0.89808387,7.0661106,-141.65598)" />
    <linearGradient
       id="linearGradient3894-484-185-212">
      <stop
         id="stop5471"
         style="stop-color:#9e98be;stop-opacity:1"
         offset="0" />
      <stop
         id="stop5473"
         style="stop-color:#aba1d3;stop-opacity:1"
         offset="0.08361457" />
      <stop
         id="stop5475"
         style="stop-color:#afa3df;stop-opacity:1"
         offset="0.14855438" />
      <stop
         id="stop5477"
         style="stop-color:#7966c3;stop-opacity:1"
         offset="0.86632949" />
      <stop
         id="stop5479"
         style="stop-color:#f2f2f2;stop-opacity:0.56896549"
         offset="0.87625819" />
      <stop
         id="stop5481"
         style="stop-color:#f2f2f2;stop-opacity:0.56034482"
         offset="1" />
    </linearGradient>
    <linearGradient
       x1="-125.5994"
       y1="76.397659"
       x2="-125.5994"
       y2="87.611153"
       id="linearGradient3980-918-232-953"
       xlink:href="#linearGradient3824-983-564-189"
       gradientUnits="userSpaceOnUse"
       gradientTransform="matrix(0.71846714,0,0,0.89808387,31.065416,-141.65597)" />
    <linearGradient
       id="linearGradient3824-983-564-189">
      <stop
         id="stop5441"
         style="stop-color:#a7d3e1;stop-opacity:1"
         offset="0" />
      <stop
         id="stop5443"
         style="stop-color:#a9dff4;stop-opacity:1"
         offset="0.12062506" />
      <stop
         id="stop5445"
         style="stop-color:#6cbad5;stop-opacity:1"
         offset="1" />
    </linearGradient>
    <linearGradient
       x1="-122.15204"
       y1="75.476608"
       x2="-122.15204"
       y2="87.611115"
       id="linearGradient3982-549-177-866"
       xlink:href="#linearGradient3832-377-24-877"
       gradientUnits="userSpaceOnUse"
       gradientTransform="matrix(0.71846714,0,0,0.89808387,31.065416,-141.65597)" />
    <linearGradient
       id="linearGradient3832-377-24-877">
      <stop
         id="stop5449"
         style="stop-color:#97b3be;stop-opacity:1"
         offset="0" />
      <stop
         id="stop5451"
         style="stop-color:#a0c7d4;stop-opacity:1"
         offset="0.08361457" />
      <stop
         id="stop5453"
         style="stop-color:#a1d0df;stop-opacity:1"
         offset="0.14855438" />
      <stop
         id="stop5455"
         style="stop-color:#66adc3;stop-opacity:1"
         offset="0.86495483" />
      <stop
         id="stop5457"
         style="stop-color:#f2f2f2;stop-opacity:0.51724136"
         offset="0.87397081" />
      <stop
         id="stop5459"
         style="stop-color:#f2f2f2;stop-opacity:0.54310346"
         offset="1" />
    </linearGradient>
    <linearGradient
       x1="-125.5994"
       y1="77.089539"
       x2="-125.5994"
       y2="87.611153"
       id="linearGradient3985-791-953-465"
       xlink:href="#linearGradient4008-600-60-367"
       gradientUnits="userSpaceOnUse"
       gradientTransform="matrix(0.71846714,0,0,0.89808387,55.064761,-141.65628)" />
    <linearGradient
       id="linearGradient4008-600-60-367">
      <stop
         id="stop5485"
         style="stop-color:#e4d7a4;stop-opacity:1"
         offset="0" />
      <stop
         id="stop5487"
         style="stop-color:#f6e7a6;stop-opacity:1"
         offset="0.20396857" />
      <stop
         id="stop5489"
         style="stop-color:#dbc465;stop-opacity:1"
         offset="1" />
    </linearGradient>
    <linearGradient
       x1="-122.15204"
       y1="75.476608"
       x2="-122.15204"
       y2="87.611115"
       id="linearGradient3987-577-169-971"
       xlink:href="#linearGradient3994-831-135-992"
       gradientUnits="userSpaceOnUse"
       gradientTransform="matrix(0.71846714,0,0,0.89808387,55.064761,-141.65628)" />
    <linearGradient
       id="linearGradient3994-831-135-992">
      <stop
         id="stop5493"
         style="stop-color:#b5ac86;stop-opacity:1"
         offset="0" />
      <stop
         id="stop5495"
         style="stop-color:#d6ca9e;stop-opacity:1"
         offset="0.13853648" />
      <stop
         id="stop5497"
         style="stop-color:#e2d49f;stop-opacity:1"
         offset="0.3133201" />
      <stop
         id="stop5499"
         style="stop-color:#cab560;stop-opacity:1"
         offset="0.86330098" />
      <stop
         id="stop5501"
         style="stop-color:#f2f2f2;stop-opacity:0.48275861"
         offset="0.87486351" />
      <stop
         id="stop5503"
         style="stop-color:#f2f2f2;stop-opacity:0.57758623"
         offset="1" />
    </linearGradient>
    <linearGradient
       id="linearGradient3810-275-851-777">
      <stop
         id="stop5419"
         style="stop-color:#c5cfb9;stop-opacity:1"
         offset="0" />
      <stop
         id="stop5421"
         style="stop-color:#cfddc0;stop-opacity:1"
         offset="0.12062506" />
      <stop
         id="stop5423"
         style="stop-color:#a3b68a;stop-opacity:1"
         offset="1" />
    </linearGradient>
    <linearGradient
       id="linearGradient3796-12-137-419">
      <stop
         id="stop5427"
         style="stop-color:#abb1a5;stop-opacity:1"
         offset="0" />
      <stop
         id="stop5429"
         style="stop-color:#bac4b0;stop-opacity:1"
         offset="0.08361457" />
      <stop
         id="stop5431"
         style="stop-color:#c2cbb6;stop-opacity:1"
         offset="0.14855438" />
      <stop
         id="stop5433"
         style="stop-color:#97a884;stop-opacity:1"
         offset="0.8619926" />
      <stop
         id="stop5435"
         style="stop-color:#f2f2f2;stop-opacity:0.5258621"
         offset="0.88253927" />
      <stop
         id="stop5437"
         style="stop-color:#f2f2f2;stop-opacity:0.50862068"
         offset="1" />
    </linearGradient>
    <linearGradient
       y2="87.611153"
       x2="-125.5994"
       y1="76.397659"
       x1="-125.5994"
       gradientTransform="matrix(0.71846714,0,0,0.89808387,43.06508,-141.65599)"
       gradientUnits="userSpaceOnUse"
       id="linearGradient3321"
       xlink:href="#linearGradient3810-275-851-777"
       inkscape:collect="always" />
    <linearGradient
       y2="87.611115"
       x2="-122.15204"
       y1="75.476608"
       x1="-122.15204"
       gradientTransform="matrix(0.71846714,0,0,0.89808387,43.06508,-141.65599)"
       gradientUnits="userSpaceOnUse"
       id="linearGradient3323"
       xlink:href="#linearGradient3796-12-137-419"
       inkscape:collect="always" />
    <radialGradient
       cx="32"
       cy="41.5"
       r="21"
       fx="32"
       fy="41.5"
       id="radialGradient2876"
       xlink:href="#linearGradient5060-4"
       gradientUnits="userSpaceOnUse"
       gradientTransform="matrix(1,0,0,0.35714286,0,26.678571)" />
    <linearGradient
       id="linearGradient5060-4">
      <stop
         id="stop5062-3"
         style="stop-color:#000000;stop-opacity:1"
         offset="0" />
      <stop
         id="stop5064-9"
         style="stop-color:#000000;stop-opacity:0"
         offset="1" />
    </linearGradient>
    <radialGradient
       cx="24.999998"
       cy="28.659998"
       r="16"
       fx="24.999998"
       fy="28.659998"
       id="radialGradient2878"
       xlink:href="#linearGradient6954"
       gradientUnits="userSpaceOnUse"
       gradientTransform="matrix(1.3125,0,0,0.37326701,-7.812498,20.302168)" />
    <linearGradient
       id="linearGradient6954">
      <stop
         id="stop6960"
         style="stop-color:#f5f5f5;stop-opacity:1"
         offset="0" />
      <stop
         id="stop6962"
         style="stop-color:#d2d2d2;stop-opacity:1"
         offset="1" />
    </linearGradient>
    <linearGradient
       x1="30"
       y1="25.084745"
       x2="30"
       y2="45"
       id="linearGradient2880"
       xlink:href="#linearGradient3785"
       gradientUnits="userSpaceOnUse" />
    <linearGradient
       id="linearGradient3785">
      <stop
         id="stop3787"
         style="stop-color:#bdbdbd;stop-opacity:1"
         offset="0" />
      <stop
         id="stop3789"
         style="stop-color:#8c8c8c;stop-opacity:1"
         offset="1" />
    </linearGradient>
    <linearGradient
       x1="24.786562"
       y1="53.869164"
       x2="24.87495"
       y2="83.5"
       id="linearGradient2882"
       xlink:href="#linearGradient3341"
       gradientUnits="userSpaceOnUse" />
    <linearGradient
       id="linearGradient3341">
      <stop
         id="stop3343"
         style="stop-color:#ffffff;stop-opacity:1"
         offset="0" />
      <stop
         id="stop3345"
         style="stop-color:#ffffff;stop-opacity:0"
         offset="1" />
    </linearGradient>
    <radialGradient
       cx="26.375898"
       cy="12.31301"
       r="8"
       fx="26.375898"
       fy="12.31301"
       id="radialGradient2884"
       xlink:href="#linearGradient6954"
       gradientUnits="userSpaceOnUse"
       gradientTransform="matrix(1.640165,-0.1325824,0.12811381,1.5848844,-18.396351,-5.2274259)" />
    <linearGradient
       x1="30"
       y1="5"
       x2="30"
       y2="44.678879"
       id="linearGradient2887"
       xlink:href="#linearGradient3785"
       gradientUnits="userSpaceOnUse" />
    <linearGradient
       x1="22"
       y1="39"
       x2="17"
       y2="37.4375"
       id="linearGradient2889"
       xlink:href="#linearGradient5060-4"
       gradientUnits="userSpaceOnUse" />
    <linearGradient
       x1="38"
       y1="39"
       x2="43"
       y2="38.599998"
       id="linearGradient2891"
       xlink:href="#linearGradient5060-4"
       gradientUnits="userSpaceOnUse" />
    <radialGradient
       cx="30"
       cy="33.1875"
       r="4.6875"
       fx="30"
       fy="33.1875"
       id="radialGradient2893"
       xlink:href="#linearGradient5060-4"
       gradientUnits="userSpaceOnUse"
       gradientTransform="matrix(1.5279732,-7.0647448e-7,2.1308638e-7,0.46086628,-15.839202,14.705021)" />
    <linearGradient
       y2="27.956825"
       x2="29.999992"
       y1="3.0410755"
       x1="29.999992"
       gradientUnits="userSpaceOnUse"
       id="linearGradient3104-4"
       xlink:href="#linearGradient3341"
       inkscape:collect="always" />
  </defs>
  <g
     transform="matrix(1.0408163,0,0,0.6302428,-1.5714269,43.690218)"
     id="g2478">
    <rect
       width="83.299995"
       height="9.5201406"
       x="21.349998"
       y="113.14653"
       id="rect2879"
       style="opacity:0.3;fill:url(#linearGradient2483);fill-opacity:1;fill-rule:nonzero;stroke:none;stroke-width:1;marker:none;visibility:visible;display:inline;overflow:visible" />
    <path
       d="m 21.35,113.14694 c 0,0 0,9.51962 0,9.51962 -3.040314,0.0179 -7.35,-2.13287 -7.35,-4.76043 0,-2.62755 3.392762,-4.75919 7.35,-4.75919 z"
       id="path2881"
       style="opacity:0.3;fill:url(#radialGradient2485);fill-opacity:1;fill-rule:nonzero;stroke:none;stroke-width:1;marker:none;visibility:visible;display:inline;overflow:visible" />
    <path
       d="m 104.64999,113.14694 c 0,0 0,9.51962 0,9.51962 3.04032,0.0179 7.35001,-2.13287 7.35001,-4.76043 0,-2.62755 -3.39277,-4.75919 -7.35001,-4.75919 z"
       id="path2883"
       style="opacity:0.3;fill:url(#radialGradient2487);fill-opacity:1;fill-rule:nonzero;stroke:none;stroke-width:1;marker:none;visibility:visible;display:inline;overflow:visible" />
  </g>
  <path
     d="m 17.499961,1.499962 c 21.311039,0 42.622077,0 63.933118,0 3.738416,1.2619859 23.822451,15.639336 29.066961,25.594247 0,30.468614 0,60.937223 0,91.405831 -31.000026,0 -62.000051,0 -93.000079,0 0,-39.000023 0,-78.000052 0,-117.000078 z"
     id="path4160"
     style="fill:url(#linearGradient2465);fill-opacity:1;stroke:url(#linearGradient2467);stroke-width:0.99992192;stroke-linecap:butt;stroke-linejoin:round;stroke-miterlimit:4;stroke-opacity:1;stroke-dasharray:none;stroke-dashoffset:0;display:inline" />
  <path
     d="M 18.978723,118 C 18.439449,118 18,117.52697 18,116.94648 L 18,3.1668773 C 18,2.5853392 18.439449,2.1133645 18.978723,2.1133645 39.22709,2.4045657 61.66587,1.6777678 81.889633,2.1858707 L 109.71323,26.088148 110,116.94648 C 110,117.52697 109.56154,118 109.02128,118 l -90.042557,0 z"
     id="path4191"
     style="fill:url(#radialGradient2462);fill-opacity:1" />
  <path
     d="m 109.50003,26.517935 c 0,29.94778 0,61.034321 0,90.982105 -30.333353,0 -60.666712,0 -91.00007,0 0,-38.333364 0,-76.666721 0,-115.0000784 20.852737,0 42.202796,0 63.055535,0"
     id="path2435"
     style="opacity:0.6;fill:none;stroke:url(#linearGradient2459);stroke-width:0.99992174;stroke-linecap:butt;stroke-linejoin:round;stroke-miterlimit:4;stroke-opacity:1;stroke-dasharray:none;stroke-dashoffset:0;display:inline" />
  <path
     d="M 71.923062,1.8392376 C 84.951381,1.8392376 78.473694,27.646803 78.473694,27.646803 C 78.473694,27.646803 109.98379,20.457276 109.98379,33.209225 C 109.98379,33.209225 110.05573,27.150866 110.05573,27.150866 C 103.32475,20.41989 89.06065,7.2507492 79.88133,2.2376883 C 79.88133,2.2376883 71.923062,1.8392376 71.923062,1.8392376 L 71.923062,1.8392376 z"
     id="path3232"
     style="opacity:0.05;fill:#000000;fill-opacity:1;fill-rule:evenodd;stroke:none;display:inline"
     sodipodi:nodetypes="cccsscc" />
  <path
     d="M 74.395876,1.8392376 C 86.577743,1.8392376 80.520913,25.970079 80.520913,25.970079 C 80.520913,25.970079 109.98379,20.329555 109.98379,32.11062 C 111.54407,22.058999 83.996871,-1.2887721 74.395876,1.8392376 L 74.395876,1.8392376 z"
     id="path3230"
     style="opacity:0.1;fill:#000000;fill-opacity:1;fill-rule:evenodd;stroke:none;display:inline"
     sodipodi:nodetypes="ccccc" />
  <path
     d="M 30.770506,9.4044296 C 30.770506,9.4044296 41.128148,7.6020829 41.128148,12.223174 C 41.128148,9.6134507 35.296571,2.3137247 28.617256,0.92125832 C 31.864351,2.1641973 31.423163,6.3282809 30.770506,9.4044296 z"
     id="path12038"
     style="opacity:0.15;fill:#000000;fill-opacity:1;fill-rule:evenodd;stroke:none;display:inline"
     sodipodi:nodetypes="cscc"
     transform="matrix(2.6666667,0,0,2.6666667,0.3087257,-0.6174513)" />
  <path
     d="m 76.62141,1.8392376 c 8.497314,0 6.228693,20.4316764 6.228693,20.4316764 0,0 27.133687,-2.616144 27.133687,9.706766 0,-3.002504 0.2291,-5.152653 -0.35674,-6.089581 C 105.41822,19.156956 87.239007,4.052365 80.67425,2.0726634 80.182991,1.9245177 79.093706,1.8392376 76.62141,1.8392376 z"
     id="path4474"
     style="fill:url(#linearGradient2455);fill-opacity:1;fill-rule:evenodd;stroke:none;display:inline" />
  <path
     inkscape:connector-curvature="0"
     d="m 23.509635,81.05254 9.385578,0 z m 10.333616,0 15.358219,0 z m 16.306257,0 7.489502,0 z m 8.437542,0 7.015481,0 z m 7.96352,0 5.97264,0 z m 6.920679,0 9.385582,0.0948 z m 10.238817,0.0948 15.263414,0 z m -60.200431,5.95259 7.110287,0 z m 8.153128,0 6.541465,0 z m 7.679111,0 5.877835,0 z m 6.825874,0 2.559703,0 z m 3.602545,0 5.688229,0 z m 6.825875,0 14.884201,0 z m 15.927042,0 11.376457,0 z m 12.324498,0 3.602539,0 z m 4.550579,0 8.532343,0 z m -65.888652,6.00006 11.945281,0 z m 12.89332,0 12.798515,0 z m 13.746553,0 4.929799,0 z m 5.877837,0 12.040085,0 z m 12.988125,0 15.168603,0 z m 16.211451,0 5.593428,0 z m -61.717286,6 12.988124,0 z m 14.030965,0 14.030966,0 z m 14.979004,0 5.593425,0 z m 6.541464,0 13.17773,0 z m 14.030965,0 9.006358,0 z m 10.049205,0 3.60254,0 z m 4.55058,0 1.99089,0 z m 3.033725,0 5.593427,0 z M 23.509635,105.1 l 11.092046,0 z m 12.324497,0 5.309013,0 z m 6.257052,0 2.654507,0 z m 3.697349,0 4.834994,0 z m 5.877836,0 4.929799,0 z m 5.877838,0 7.868716,0 z m 8.911559,0 10.238812,0 z m 11.186851,0 6.825878,0 z m 7.773918,0 1.706469,0 z"
     id="path3475"
     style="fill:none;stroke:#aaaaaa;stroke-width:1;stroke-linecap:butt;stroke-linejoin:miter;stroke-miterlimit:4;stroke-opacity:1;stroke-dasharray:none;stroke-dashoffset:0.2;marker-start:none"
     sodipodi:nodetypes="ccccccccccccccccccccccccccccccccccccccccccccccccccccccccccccccccccccccccccccccccccccccccccccccccccccccccccccccccccccc" />
  <rect
     width="7.9997745"
     height="9.9997177"
     rx="0"
     ry="0"
     x="-48.697014"
     y="-73.422615"
     id="rect2987"
     style="fill:url(#linearGradient3321);fill-opacity:1;stroke:url(#linearGradient3323);stroke-width:1.99994338;stroke-linecap:butt;stroke-linejoin:miter;stroke-miterlimit:4;stroke-opacity:1;stroke-dasharray:none;stroke-dashoffset:0;display:inline"
     transform="scale(-1,-1)" />
  <rect
     width="7.9997745"
     height="9.9997177"
     rx="0"
     ry="0"
     x="-36.69735"
     y="-73.422897"
     id="rect3790"
     style="fill:url(#linearGradient3985-791-953-465);fill-opacity:1;stroke:url(#linearGradient3987-577-169-971);stroke-width:1.99994338;stroke-linecap:butt;stroke-linejoin:miter;stroke-miterlimit:4;stroke-opacity:1;stroke-dasharray:none;stroke-dashoffset:0;display:inline"
     transform="scale(-1,-1)" />
  <rect
     width="7.9997745"
     height="9.9997177"
     rx="0"
     ry="0"
     x="-60.696671"
     y="-73.422615"
     id="rect3818"
     style="fill:url(#linearGradient3980-918-232-953);fill-opacity:1;stroke:url(#linearGradient3982-549-177-866);stroke-width:1.99994338;stroke-linecap:butt;stroke-linejoin:miter;stroke-miterlimit:4;stroke-opacity:1;stroke-dasharray:none;stroke-dashoffset:0;display:inline"
     transform="scale(-1,-1)" />
  <rect
     width="7.9997745"
     height="9.9997177"
     rx="0"
     ry="0"
     x="-84.695999"
     y="-73.422615"
     id="rect3852"
     style="fill:url(#linearGradient3970-548-241-367);fill-opacity:1;stroke:url(#linearGradient3972-393-404-624);stroke-width:1.99994338;stroke-linecap:butt;stroke-linejoin:miter;stroke-miterlimit:4;stroke-opacity:1;stroke-dasharray:none;stroke-dashoffset:0;display:inline"
     transform="scale(-1,-1)" />
  <rect
     width="7.9997745"
     height="9.9997177"
     rx="0"
     ry="0"
     x="-96.695663"
     y="-73.422615"
     id="rect3858"
     style="fill:url(#linearGradient3965-293-767-619);fill-opacity:1;stroke:url(#linearGradient3967-559-364-412);stroke-width:1.99994338;stroke-linecap:butt;stroke-linejoin:miter;stroke-miterlimit:4;stroke-opacity:1;stroke-dasharray:none;stroke-dashoffset:0;display:inline"
     transform="scale(-1,-1)" />
  <rect
     width="7.9997745"
     height="9.9997177"
     rx="0"
     ry="0"
     x="-72.696327"
     y="-73.422897"
     id="rect4016"
     style="fill:url(#linearGradient4018-819-428-410);fill-opacity:1;stroke:url(#linearGradient4020-670-947-281);stroke-width:1.99994338;stroke-linecap:butt;stroke-linejoin:miter;stroke-miterlimit:4;stroke-opacity:1;stroke-dasharray:none;stroke-dashoffset:0;display:inline"
     transform="scale(-1,-1)" />
  <g
     transform="translate(31.946691,10.050148)"
     id="g3912">
    <path
       inkscape:connector-curvature="0"
       d="m 53,41.5 a 21,7.5 0 1 1 -42,0 21,7.5 0 1 1 42,0 z"
       transform="matrix(0.85714286,0,0,0.8,2.5714285,7.8)"
       id="path3823"
       style="opacity:0.7;fill:url(#radialGradient2876);fill-opacity:1;stroke:none" />
    <path
       inkscape:connector-curvature="0"
       d="m 25.5,20.5 c 0.460215,2.17673 0.717092,3.82327 0.34375,6 C 22.933057,28.914876 15.488842,30 15.5,32.5 l -1,7.5 c 0,2.485281 6.939586,4.5 15.5,4.5 8.560414,0 15.5,-2.014719 15.5,-4.5 l -1,-7.5 C 44.48813,30.360337 37,29 34.125,26.5 33.879426,24.479663 34.07491,22.520337 34.5,20.5 l -9,0 z"
       id="path3766"
       style="fill:url(#radialGradient2878);fill-opacity:1;stroke:url(#linearGradient2880);stroke-width:1;stroke-miterlimit:4;stroke-opacity:1;stroke-dasharray:none" />
    <path
       inkscape:connector-curvature="0"
       d="m 22.53125,61 c 0.30464,1.690349 0.51076,3.271519 0.1875,5.15625 a 1.0027361,1.0027361 0 0 1 -0.375,0.625 c -1.721814,1.428515 -4.345384,2.254348 -6.53125,3.125 -1.092933,0.435326 -2.065851,0.86976 -2.6875,1.28125 -0.621649,0.41149 -0.750567,0.685398 -0.75,0.8125 a 1.0027361,1.0027361 0 0 1 0,0.125 l -1,7.375 c 0,0.003 -1.1e-4,0.02807 0,0.03125 0.0055,0.158344 0.150083,0.473017 0.78125,0.90625 0.643832,0.441926 1.694345,0.893116 3.03125,1.28125 C 17.861311,82.495018 21.673451,83 25.875,83 c 4.201549,0 8.013689,-0.504982 10.6875,-1.28125 1.336905,-0.388134 2.387418,-0.839324 3.03125,-1.28125 0.631167,-0.433233 0.77575,-0.747906 0.78125,-0.90625 l 0,-0.03125 -1,-7.375 a 1.0027361,1.0027361 0 0 1 0,-0.125 c 1.37e-4,0.02464 0.01573,0.0028 -0.09375,-0.125 -0.109475,-0.12777 -0.334408,-0.299018 -0.65625,-0.5 -0.643684,-0.401965 -1.645672,-0.857472 -2.75,-1.3125 C 33.666343,69.152443 31.038552,68.22374 29.34375,66.75 A 1.0027361,1.0027361 0 0 1 29,66.125 C 28.788112,64.3818 28.942542,62.684293 29.21875,61 l -6.6875,0 z"
       transform="translate(4.1250489,-39.5)"
       id="path3894"
       style="fill:none;stroke:url(#linearGradient2882);stroke-width:1;stroke-miterlimit:4;stroke-opacity:1;stroke-dasharray:none" />
    <path
       inkscape:connector-curvature="0"
       d="m 30,5.5 c -4.142136,0 -7.5,3.134007 -7.5,7 0.03246,1.430727 0.154571,3.130379 1,7 0.5,1.5 4.95976,5.5 5,6 0.96967,0.5 2.5,0.5 3.5,0 0,-0.5 4,-4.5 4.5,-6 0.951375,-4.021691 0.948972,-5.5 1,-7 0,-3.865993 -3.357864,-7 -7.5,-7 z"
       id="path3764"
       style="fill:url(#radialGradient2884);fill-opacity:1;stroke:url(#linearGradient2887);stroke-width:1;stroke-miterlimit:4;stroke-opacity:1;stroke-dasharray:none" />
    <path
       inkscape:connector-curvature="0"
       d="m 21,43.2 c -2.362349,-1.982195 -1.235869,-6.38286 -1,-9.2 -1,2 -1,8 -3,8 1.36261,0.458554 2.749561,0.965789 4,1.2 z"
       id="path3848"
       style="opacity:0.3;fill:url(#linearGradient2889);fill-opacity:1;stroke:none" />
    <path
       inkscape:connector-curvature="0"
       d="m 39,43.2 c 2.350047,-1.743746 1.156723,-6.485917 1,-9.2 1,2 1,8 3,8 -1.36261,0.458554 -2.749561,0.965789 -4,1.2 z"
       id="path3850"
       style="opacity:0.3;fill:url(#linearGradient2891);fill-opacity:1;stroke:none" />
    <path
       inkscape:connector-curvature="0"
       d="m 25.3125,27 c 0.686303,1.744757 2.518909,3 4.6875,3 2.168591,0 4.001197,-1.255243 4.6875,-3 l -9.375,0 z"
       id="path3833"
       style="opacity:0.2;fill:url(#radialGradient2893);fill-opacity:1;stroke:none" />
    <path
       inkscape:connector-curvature="0"
       d="m 30,6.53125 c -3.613647,0 -6.450433,2.6790117 -6.46875,5.9375 1.42e-4,0.0063 -1.45e-4,0.02499 0,0.03125 0.03183,1.373874 0.156427,2.981433 0.96875,6.71875 0.04059,0.09664 0.334757,0.582911 0.78125,1.125 0.460685,0.55932 1.039787,1.193866 1.625,1.8125 0.585213,0.618634 1.177291,1.232474 1.625,1.71875 0.223855,0.243138 0.405333,0.457698 0.5625,0.65625 0.01424,0.01799 0.01751,0.04473 0.03125,0.0625 0.579909,0.227936 1.589912,0.230436 2.21875,0 0.140288,-0.203603 0.300098,-0.442723 0.5,-0.6875 0.399803,-0.489555 0.910744,-1.067787 1.4375,-1.6875 0.526756,-0.619713 1.078845,-1.28221 1.5,-1.84375 0.400306,-0.533741 0.657608,-0.976665 0.71875,-1.125 0.0033,-0.01388 -0.0033,-0.01744 0,-0.03125 0.922531,-3.909312 0.918236,-5.212314 0.96875,-6.71875 0,-0.01056 5.9e-5,-0.0207 0,-0.03125 C 36.450433,9.2102617 33.613647,6.53125 30,6.53125 z"
       transform="matrix(1.0045203,0,0,1.0033814,-0.1356006,-0.05135866)"
       id="path3906"
       style="opacity:0.7;fill:none;stroke:url(#linearGradient3104-4);stroke-width:1;stroke-miterlimit:4;stroke-opacity:1;stroke-dasharray:none" />
  </g>
</svg>
