<?xml version="1.0" encoding="UTF-8" standalone="no"?>
<!-- Created with Inkscape (http://www.inkscape.org/) -->

<svg
   xmlns:dc="http://purl.org/dc/elements/1.1/"
   xmlns:cc="http://creativecommons.org/ns#"
   xmlns:rdf="http://www.w3.org/1999/02/22-rdf-syntax-ns#"
   xmlns:svg="http://www.w3.org/2000/svg"
   xmlns="http://www.w3.org/2000/svg"
   xmlns:sodipodi="http://sodipodi.sourceforge.net/DTD/sodipodi-0.dtd"
   xmlns:inkscape="http://www.inkscape.org/namespaces/inkscape"
   width="128"
   height="128"
   id="svg2"
   version="1.1"
   inkscape:version="0.48.4 r9939"
   sodipodi:docname="fontforge.svg">
  <defs
     id="defs4" />
  <sodipodi:namedview
     id="base"
     pagecolor="#ffffff"
     bordercolor="#27cc00"
     borderopacity="1"
     inkscape:pageopacity="0.0"
     inkscape:pageshadow="2"
     inkscape:zoom="1"
     inkscape:cx="-32.131842"
     inkscape:cy="146.08356"
     inkscape:document-units="px"
     inkscape:current-layer="layer1-2"
     showgrid="false"
     borderlayer="false"
     inkscape:showpageshadow="false"
     showborder="true"
     inkscape:snap-from-guide="false"
     objecttolerance="1"
     gridtolerance="1"
     guidetolerance="5"
     inkscape:window-width="952"
     inkscape:window-height="755"
     inkscape:window-x="285"
     inkscape:window-y="23"
     inkscape:window-maximized="0"
     inkscape:object-nodes="true"
     inkscape:snap-smooth-nodes="true"
     inkscape:snap-object-midpoints="false"
     inkscape:snap-center="true"
     inkscape:snap-nodes="true"
     showguides="true"
     inkscape:guide-bbox="true">
    <inkscape:grid
       type="xygrid"
       id="grid2985"
       empspacing="5"
       visible="true"
       enabled="true"
       snapvisiblegridlinesonly="true" />
    <sodipodi:guide
       orientation="1,0"
       position="-109.5,-1"
       id="guide7478" />
  </sodipodi:namedview>
  <metadata
     id="metadata7">
    <rdf:RDF>
      <cc:Work
         rdf:about="">
        <dc:format>image/svg+xml</dc:format>
        <dc:type
           rdf:resource="http://purl.org/dc/dcmitype/StillImage" />
        <dc:title />
      </cc:Work>
    </rdf:RDF>
  </metadata>
  <g
     inkscape:label="Layer 1"
     inkscape:groupmode="layer"
     id="layer1"
     transform="translate(0,-924.36218)">
    <g
       transform="matrix(1.8188509,0,0,1.8188509,56.252584,967.22209)"
       style="display:inline"
       id="g10559">
      <g
         id="layer1-2"
         transform="matrix(3.7260479,0.44234774,-0.44234774,3.7260479,-21.583942,-21.389804)">
        <rect
           style="fill:#9c9c9c;fill-opacity:1;fill-rule:nonzero;stroke:none"
           id="rect7165"
           width="16.117886"
           height="16.117886"
           x="-1.1714202"
           y="0.73921812"
           transform="matrix(0.99302668,-0.11788981,0.11788981,0.99302668,0,0)"
           rx="1"
           ry="1" />
        <path
           style="font-size:medium;font-style:normal;font-variant:normal;font-weight:normal;font-stretch:normal;text-indent:0;text-align:start;text-decoration:none;line-height:normal;letter-spacing:normal;word-spacing:normal;text-transform:none;direction:ltr;block-progression:tb;writing-mode:lr-tb;text-anchor:start;baseline-shift:baseline;opacity:0.47058824;color:#000000;fill:#afafaf;fill-opacity:1;stroke:none;stroke-width:0.14652623px;marker:none;visibility:visible;display:inline;overflow:visible;enable-background:accumulate;font-family:Sans;-inkscape-font-specification:Sans"
           d="M 15.8125 9 C 14.525297 9 13.335949 9.3560488 12.3125 9.96875 L 115.59375 9.90625 C 114.83364 9.4681457 113.97487 9.1796387 113.0625 9.0625 L 74.78125 9 L 15.8125 9 z M 117.875 12.03125 L 117.84375 15.71875 L 112.25 15.6875 L 112.125 14.8125 L 112.1875 14.40625 L 111.09375 14.46875 L 111.25 14.9375 L 111.15625 15.78125 L 105.375 15.75 L 105.46875 14.875 L 105.3125 14.4375 L 104.46875 14.34375 L 104.375 14.96875 L 104.28125 15.8125 L 98.5 15.78125 L 98.59375 14.9375 L 98.65625 14.5 L 97.59375 14.375 L 97.5 15.03125 L 97.4375 15.65625 L 91.625 15.8125 L 91.71875 14.96875 L 91.78125 14.34375 L 90.71875 14.4375 L 90.65625 14.84375 L 90.78125 15.71875 L 84.75 15.65625 L 84.84375 15.03125 L 84.90625 14.375 L 83.84375 14.46875 L 84 14.90625 L 83.875 15.75 L 78.09375 15.71875 L 78.1875 14.875 L 78.03125 14.4375 L 77.15625 14.53125 L 77.125 14.96875 L 77 15.8125 L 71.21875 15.75 L 71.3125 14.90625 L 71.375 14.5 L 70.3125 14.375 L 70.25 15 L 70.125 15.84375 L 64.34375 15.8125 L 64.4375 14.96875 L 64.53125 14.3125 L 63.4375 14.40625 L 63.59375 14.84375 L 63.5 15.71875 L 57.6875 15.65625 L 57.78125 15.03125 L 57.625 14.375 L 56.78125 14.46875 L 56.71875 14.90625 L 56.625 15.75 L 51.03125 15.71875 L 50.9375 14.84375 L 50.96875 14.4375 L 49.875 14.53125 L 49.84375 14.9375 L 49.75 15.78125 L 43.9375 15.75 L 44.03125 14.90625 L 44.09375 14.46875 L 43.03125 14.34375 L 42.96875 14.96875 L 42.875 15.84375 L 37.0625 15.78125 L 37.15625 14.9375 L 37.21875 14.53125 L 36.15625 14.40625 L 36.3125 14.84375 L 36.4375 15.71875 L 30.40625 15.84375 L 30.5 15 L 30.375 14.34375 L 29.5 14.46875 L 29.4375 14.875 L 29.5625 15.75 L 23.75 15.71875 L 23.65625 14.84375 L 23.6875 14.40625 L 22.625 14.5 L 22.5625 14.9375 L 22.46875 15.78125 L 16.875 15.75 L 16.78125 14.875 L 16.8125 14.46875 L 15.75 14.34375 L 15.90625 15 L 15.8125 15.84375 L 10 15.78125 L 9.78125 15.78125 L 9.8125 12.5625 C 9.3945321 13.334927 9.1237589 14.205421 9.03125 15.125 L 9.03125 15.1875 L 9 64 L 9 112.1875 C 9 113.58038 9.4162264 114.86212 10.125 115.9375 L 10.15625 112.25 L 15.71875 112.25 L 15.90625 112.5 L 16.78125 112.59375 L 16.8125 112.1875 L 22.625 112.21875 L 22.5625 112.65625 L 23.65625 112.5625 L 23.6875 112.125 L 29.5 112.1875 L 29.4375 112.59375 L 30.53125 112.53125 L 30.34375 112.28125 L 36.15625 112.125 L 36.3125 112.5625 L 37.15625 112.65625 L 37.21875 112.25 L 43 112.28125 L 42.96875 112.5 L 44.03125 112.625 L 44.09375 112.1875 L 49.875 112.25 L 49.84375 112.65625 L 50.90625 112.5625 L 50.96875 112.15625 L 56.75 112.1875 L 56.71875 112.625 L 57.8125 112.53125 L 57.625 112.09375 L 63.4375 112.125 L 63.59375 112.5625 L 64.46875 112.46875 L 64.5 112.25 L 70.3125 112.09375 L 70.25 112.5 L 71.3125 112.625 L 71.375 112.21875 L 77.15625 112.25 L 77.09375 112.6875 L 78.1875 112.59375 L 78.03125 112.15625 L 83.8125 112.1875 L 84 112.625 L 84.84375 112.53125 L 84.90625 112.09375 L 90.6875 112.15625 L 90.65625 112.5625 L 91.75 112.46875 L 91.75 112.28125 L 91.78125 112.0625 L 97.59375 112.09375 L 97.53125 112.53125 L 98.59375 112.65625 L 98.625 112.21875 L 104.4375 112.28125 L 104.40625 112.46875 L 105.46875 112.59375 L 105.3125 112.15625 L 111.09375 112.1875 L 111.25 112.65625 L 112.125 112.53125 L 112.1875 112.125 L 117.96875 112.15625 L 118.09375 115.625 C 118.53427 114.86758 118.81652 114.00386 118.9375 113.09375 L 119 15.8125 L 119 15.71875 C 118.98137 14.353151 118.57628 13.086265 117.875 12.03125 z M 57.78125 16.75 L 63.59375 16.78125 L 63.53125 22.59375 L 57.75 22.53125 L 57.78125 16.75 z M 84.84375 16.75 L 90.65625 16.78125 L 90.59375 22.5625 L 84.8125 22.53125 L 84.84375 16.75 z M 97.53125 16.75 L 97.46875 22.53125 L 91.65625 22.6875 L 91.6875 16.90625 L 97.53125 16.75 z M 112.125 16.75 L 117.90625 16.78125 L 117.875 22.59375 L 112.09375 22.53125 L 112.125 16.75 z M 23.625 16.78125 L 29.4375 16.8125 L 29.375 22.59375 L 23.59375 22.5625 L 23.625 16.78125 z M 36.3125 16.78125 L 36.25 22.5625 L 30.4375 22.71875 L 30.5 16.9375 L 36.3125 16.78125 z M 50.90625 16.78125 L 56.6875 16.84375 L 56.65625 22.625 L 50.875 22.59375 L 50.90625 16.78125 z M 16.75 16.8125 L 22.5625 16.84375 L 22.5 22.65625 L 16.71875 22.59375 L 16.75 16.8125 z M 78.1875 16.8125 L 83.96875 16.84375 L 83.9375 22.625 L 78.125 22.59375 L 78.1875 16.8125 z M 105.46875 16.8125 L 111.25 16.875 L 111.21875 22.65625 L 105.40625 22.625 L 105.46875 16.8125 z M 9.875 16.84375 L 15.875 16.9375 L 15.84375 22.71875 L 9.84375 22.65625 L 9.875 16.84375 z M 44.03125 16.84375 L 49.8125 16.875 L 49.78125 22.65625 L 44 22.625 L 44.03125 16.84375 z M 71.3125 16.84375 L 77.09375 16.875 L 77.0625 22.6875 L 71.25 22.625 L 71.3125 16.84375 z M 37.15625 16.875 L 42.9375 16.90625 L 42.90625 22.71875 L 37.125 22.65625 L 37.15625 16.875 z M 64.4375 16.875 L 70.21875 16.9375 L 70.1875 22.71875 L 64.375 22.6875 L 64.4375 16.875 z M 98.59375 16.875 L 104.375 16.90625 L 104.34375 22.6875 L 98.53125 22.65625 L 98.59375 16.875 z M 16.8125 23.46875 L 22.625 23.53125 L 22.5625 29.53125 L 16.75 29.46875 L 16.8125 23.46875 z M 29.5 23.46875 L 29.4375 29.5 L 23.625 29.4375 L 23.6875 23.65625 L 29.5 23.46875 z M 44.09375 23.5 L 49.90625 23.53125 L 49.8125 29.53125 L 44.03125 29.5 L 44.09375 23.5 z M 56.78125 23.5 L 56.6875 29.5 L 50.90625 29.46875 L 50.9375 23.65625 L 56.78125 23.5 z M 9.9375 23.53125 L 15.9375 23.59375 L 15.875 29.59375 L 9.875 29.53125 L 9.9375 23.53125 z M 37.21875 23.53125 L 43 23.59375 L 42.9375 29.59375 L 37.15625 29.53125 L 37.21875 23.53125 z M 64.5 23.5625 L 70.28125 23.59375 L 70.21875 29.59375 L 64.4375 29.5625 L 64.5 23.5625 z M 77.15625 23.5625 L 77.09375 29.5625 L 71.3125 29.53125 L 71.34375 23.71875 L 77.15625 23.5625 z M 91.78125 23.5625 L 97.5625 23.625 L 97.53125 29.40625 L 91.6875 29.5625 L 91.78125 23.5625 z M 30.5625 23.59375 L 36.34375 23.65625 L 36.3125 29.4375 L 30.5 29.625 L 30.5625 23.59375 z M 57.84375 23.625 L 63.625 23.65625 L 63.59375 29.46875 L 57.78125 29.40625 L 57.84375 23.625 z M 84.90625 23.625 L 90.6875 23.65625 L 90.65625 29.4375 L 84.84375 29.40625 L 84.90625 23.625 z M 112.15625 23.625 L 117.96875 23.6875 L 117.90625 29.46875 L 112.125 29.4375 L 112.15625 23.625 z M 78.21875 23.6875 L 84.03125 23.71875 L 83.96875 29.53125 L 78.1875 29.46875 L 78.21875 23.6875 z M 105.5 23.6875 L 111.28125 23.75 L 111.25 29.53125 L 105.46875 29.5 L 105.5 23.6875 z M 98.625 23.75 L 104.40625 23.78125 L 104.375 29.5625 L 98.5625 29.53125 L 98.625 23.75 z M 57.6875 30.25 L 63.46875 30.3125 L 63.65625 36.125 L 57.84375 36.09375 L 57.6875 30.25 z M 36.21875 30.28125 L 36.375 36.09375 L 30.5625 36.28125 L 30.375 30.46875 L 36.21875 30.28125 z M 84.96875 30.28125 L 90.75 30.3125 L 90.71875 36.125 L 84.90625 36.0625 L 84.96875 30.28125 z M 97.625 30.28125 L 97.59375 36.0625 L 91.78125 36.25 L 91.8125 30.4375 L 97.625 30.28125 z M 112.21875 30.28125 L 118.03125 30.34375 L 117.96875 36.125 L 112.1875 36.09375 L 112.21875 30.28125 z M 23.75 30.3125 L 29.53125 30.34375 L 29.5 36.15625 L 23.6875 36.09375 L 23.75 30.3125 z M 78.09375 30.3125 L 83.875 30.375 L 84.03125 36.1875 L 78.25 36.125 L 78.09375 30.3125 z M 16.875 30.34375 L 22.65625 30.40625 L 22.625 36.1875 L 16.8125 36.15625 L 16.875 30.34375 z M 51.03125 30.34375 L 56.8125 30.375 L 56.78125 36.15625 L 50.96875 36.125 L 51.03125 30.34375 z M 105.34375 30.34375 L 111.15625 30.375 L 111.3125 36.1875 L 105.53125 36.15625 L 105.34375 30.34375 z M 44.15625 30.375 L 49.9375 30.40625 L 49.90625 36.21875 L 44.09375 36.15625 L 44.15625 30.375 z M 71.40625 30.375 L 77.21875 30.4375 L 77.15625 36.21875 L 71.375 36.1875 L 71.40625 30.375 z M 10 30.40625 L 15.78125 30.4375 L 15.9375 36.25 L 9.9375 36.1875 L 10 30.40625 z M 37.25 30.40625 L 43.0625 30.46875 L 43 36.25 L 37.21875 36.21875 L 37.25 30.40625 z M 98.6875 30.40625 L 104.46875 30.4375 L 104.4375 36.25 L 98.65625 36.1875 L 98.6875 30.40625 z M 64.53125 30.4375 L 70.34375 30.46875 L 70.28125 36.28125 L 64.5 36.21875 L 64.53125 30.4375 z M 57.71875 37.125 L 63.53125 37.1875 L 63.46875 42.96875 L 57.6875 42.9375 L 57.71875 37.125 z M 84.78125 37.125 L 90.59375 37.1875 L 90.75 43 L 84.96875 42.9375 L 84.78125 37.125 z M 97.46875 37.125 L 97.625 42.9375 L 91.8125 43.125 L 91.65625 37.3125 L 97.46875 37.125 z M 23.5625 37.15625 L 29.375 37.21875 L 29.53125 43.03125 L 23.75 43 L 23.5625 37.15625 z M 36.25 37.15625 L 36.21875 42.96875 L 30.375 43.125 L 30.4375 37.34375 L 36.25 37.15625 z M 112.0625 37.15625 L 117.84375 37.1875 L 118.0625 37.21875 L 118.03125 43 L 112.21875 42.96875 L 112.0625 37.15625 z M 50.84375 37.1875 L 56.65625 37.21875 L 56.8125 43.03125 L 51.03125 43 L 50.84375 37.1875 z M 78.125 37.1875 L 83.90625 37.25 L 83.875 43.03125 L 78.09375 43 L 78.125 37.1875 z M 16.6875 37.21875 L 22.5 37.25 L 22.65625 43.0625 L 16.875 43.03125 L 16.6875 37.21875 z M 43.96875 37.21875 L 49.75 37.28125 L 49.9375 43.09375 L 44.125 43.03125 L 43.96875 37.21875 z M 105.40625 37.21875 L 111.1875 37.25 L 111.15625 43.0625 L 105.34375 43 L 105.40625 37.21875 z M 71.25 37.25 L 77.03125 37.28125 L 77.21875 43.09375 L 71.40625 43.0625 L 71.25 37.25 z M 98.53125 37.25 L 104.3125 37.3125 L 104.46875 43.125 L 98.6875 43.0625 L 98.53125 37.25 z M 10.03125 37.28125 L 15.8125 37.3125 L 15.78125 43.125 L 10 43.0625 L 10.03125 37.28125 z M 37.09375 37.28125 L 42.875 37.3125 L 43.0625 43.125 L 37.25 43.09375 L 37.09375 37.28125 z M 64.375 37.28125 L 70.15625 37.3125 L 70.34375 43.15625 L 64.53125 43.09375 L 64.375 37.28125 z M 84.84375 44 L 90.625 44.0625 L 90.59375 49.84375 L 84.78125 49.8125 L 84.84375 44 z M 97.5 44 L 97.46875 49.8125 L 91.65625 49.96875 L 91.6875 44.1875 L 97.5 44 z M 23.625 44.03125 L 29.40625 44.09375 L 29.375 49.875 L 23.5625 49.84375 L 23.625 44.03125 z M 36.28125 44.03125 L 36.25 49.84375 L 30.4375 50 L 30.46875 44.21875 L 36.28125 44.03125 z M 57.78125 44.03125 L 63.5625 44.0625 L 63.53125 49.84375 L 57.71875 49.8125 L 57.78125 44.03125 z M 112.09375 44.03125 L 117.90625 44.0625 L 118.0625 49.875 L 112.0625 49.8125 L 112.09375 44.03125 z M 50.90625 44.0625 L 56.6875 44.09375 L 56.65625 49.90625 L 50.84375 49.84375 L 50.90625 44.0625 z M 78.15625 44.0625 L 83.96875 44.125 L 83.90625 49.90625 L 78.125 49.875 L 78.15625 44.0625 z M 16.75 44.09375 L 22.53125 44.125 L 22.5 49.9375 L 16.6875 49.875 L 16.75 44.09375 z M 44 44.09375 L 49.8125 44.15625 L 49.75 49.9375 L 43.96875 49.90625 L 44 44.09375 z M 105.4375 44.09375 L 111.21875 44.125 L 111.1875 49.9375 L 105.40625 49.875 L 105.4375 44.09375 z M 9.875 44.125 L 15.875 44.1875 L 15.8125 50 L 10.03125 49.9375 L 9.875 44.125 z M 71.28125 44.125 L 77.09375 44.15625 L 77.03125 49.96875 L 71.25 49.90625 L 71.28125 44.125 z M 98.5625 44.125 L 104.34375 44.1875 L 104.3125 49.96875 L 98.53125 49.9375 L 98.5625 44.125 z M 37.125 44.15625 L 42.9375 44.1875 L 42.875 49.96875 L 37.09375 49.9375 L 37.125 44.15625 z M 64.40625 44.15625 L 70.21875 44.21875 L 70.1875 49.78125 L 64.375 49.96875 L 64.40625 44.15625 z M 16.8125 50.75 L 22.59375 50.78125 L 22.5625 56.59375 L 16.75 56.53125 L 16.8125 50.75 z M 29.46875 50.75 L 29.4375 56.5625 L 23.65625 56.5 L 23.65625 50.9375 L 29.46875 50.75 z M 9.9375 50.78125 L 15.9375 50.875 L 15.90625 56.65625 L 9.875 56.59375 L 9.9375 50.78125 z M 44.09375 50.78125 L 49.875 50.8125 L 49.84375 56.59375 L 44.03125 56.5625 L 44.09375 50.78125 z M 56.75 50.78125 L 56.71875 56.5625 L 50.90625 56.71875 L 50.9375 50.9375 L 56.75 50.78125 z M 37.21875 50.8125 L 43 50.84375 L 42.96875 56.65625 L 37.15625 56.59375 L 37.21875 50.8125 z M 64.46875 50.8125 L 70.28125 50.875 L 70.21875 56.65625 L 64.4375 56.625 L 64.46875 50.8125 z M 77.15625 50.84375 L 77.09375 56.625 L 71.3125 56.59375 L 71.34375 51 L 77.15625 50.84375 z M 91.75 50.84375 L 97.53125 50.875 L 97.5 56.6875 L 91.71875 56.625 L 91.75 50.84375 z M 104.4375 50.84375 L 104.375 56.625 L 98.5625 56.8125 L 98.59375 51 L 104.4375 50.84375 z M 30.53125 50.875 L 36.34375 50.9375 L 36.28125 56.71875 L 30.5 56.6875 L 30.53125 50.875 z M 84.875 50.875 L 90.65625 50.9375 L 90.625 56.71875 L 84.84375 56.6875 L 84.875 50.875 z M 57.8125 50.90625 L 63.59375 50.9375 L 63.5625 56.71875 L 57.78125 56.6875 L 57.8125 50.90625 z M 112.15625 50.90625 L 117.9375 50.9375 L 117.90625 56.75 L 112.09375 56.6875 L 112.15625 50.90625 z M 78.21875 50.96875 L 84 51 L 83.96875 56.78125 L 78.15625 56.75 L 78.21875 50.96875 z M 105.46875 50.96875 L 111.28125 51 L 111.21875 56.8125 L 105.4375 56.75 L 105.46875 50.96875 z M 57.65625 57.53125 L 63.46875 57.59375 L 63.40625 63.375 L 57.59375 63.53125 L 57.65625 57.53125 z M 36.1875 57.5625 L 36.15625 63.34375 L 30.3125 63.53125 L 30.375 57.71875 L 36.1875 57.5625 z M 84.9375 57.5625 L 90.75 57.59375 L 90.6875 63.375 L 84.90625 63.34375 L 84.9375 57.5625 z M 97.625 57.5625 L 97.5625 63.34375 L 91.75 63.53125 L 91.78125 57.71875 L 97.625 57.5625 z M 112.21875 57.5625 L 118 57.625 L 117.96875 63.40625 L 112.1875 63.375 L 112.21875 57.5625 z M 23.71875 57.59375 L 29.53125 57.625 L 29.46875 63.4375 L 23.6875 63.375 L 23.71875 57.59375 z M 51 57.59375 L 56.78125 57.65625 L 56.75 63.4375 L 50.96875 63.40625 L 51 57.59375 z M 78.0625 57.59375 L 83.84375 57.625 L 83.8125 63.4375 L 78.03125 63.375 L 78.0625 57.59375 z M 16.84375 57.625 L 22.65625 57.6875 L 22.59375 63.46875 L 16.8125 63.4375 L 16.84375 57.625 z M 105.34375 57.625 L 111.125 57.65625 L 111.09375 63.4375 L 105.28125 63.40625 L 105.34375 57.625 z M 44.125 57.65625 L 49.90625 57.6875 L 49.875 63.46875 L 44.09375 63.4375 L 44.125 57.65625 z M 71.40625 57.65625 L 77.1875 57.71875 L 77.15625 63.5 L 71.34375 63.46875 L 71.40625 57.65625 z M 9.96875 57.6875 L 15.78125 57.71875 L 15.71875 63.5 L 9.9375 63.46875 L 9.96875 57.6875 z M 37.25 57.6875 L 43.03125 57.71875 L 43 63.53125 L 37.21875 63.46875 L 37.25 57.6875 z M 98.6875 57.6875 L 104.46875 57.71875 L 104.4375 63.53125 L 98.625 63.46875 L 98.6875 57.6875 z M 64.53125 57.71875 L 70.3125 57.75 L 70.28125 63.53125 L 64.46875 63.5 L 64.53125 57.71875 z M 36.21875 64.4375 L 36.1875 70.25 L 30.375 70.40625 L 30.40625 64.625 L 36.21875 64.4375 z M 85 64.4375 L 90.78125 64.46875 L 90.75 70.28125 L 84.9375 70.21875 L 85 64.4375 z M 97.65625 64.4375 L 97.625 70.21875 L 91.78125 70.40625 L 91.84375 64.59375 L 97.65625 64.4375 z M 112.25 64.4375 L 118.0625 64.5 L 118 70.28125 L 112.21875 70.25 L 112.25 64.4375 z M 23.78125 64.46875 L 29.5625 64.5 L 29.53125 70.3125 L 23.71875 70.25 L 23.78125 64.46875 z M 51.03125 64.46875 L 56.84375 64.53125 L 56.78125 70.3125 L 51 70.28125 L 51.03125 64.46875 z M 63.5 64.46875 L 63.46875 70.25 L 57.65625 70.21875 L 57.6875 64.625 L 63.5 64.46875 z M 78.09375 64.46875 L 83.90625 64.53125 L 83.84375 70.3125 L 78.0625 70.28125 L 78.09375 64.46875 z M 16.90625 64.5 L 22.6875 64.5625 L 22.65625 70.34375 L 16.84375 70.3125 L 16.90625 64.5 z M 105.375 64.5 L 111.1875 64.53125 L 111.125 70.3125 L 105.34375 70.28125 L 105.375 64.5 z M 44.15625 64.53125 L 49.96875 64.5625 L 49.90625 70.375 L 44.125 70.3125 L 44.15625 64.53125 z M 71.4375 64.53125 L 77.25 64.59375 L 77.1875 70.375 L 71.40625 70.34375 L 71.4375 64.53125 z M 10 64.5625 L 15.8125 64.59375 L 15.78125 70.375 L 9.96875 70.34375 L 10 64.5625 z M 37.28125 64.5625 L 43.09375 64.625 L 43.03125 70.40625 L 37.25 70.375 L 37.28125 64.5625 z M 98.71875 64.5625 L 104.5 64.59375 L 104.46875 70.40625 L 98.65625 70.34375 L 98.71875 64.5625 z M 64.5625 64.59375 L 70.34375 64.625 L 70.3125 70.40625 L 64.53125 70.375 L 64.5625 64.59375 z M 57.75 71.28125 L 63.5625 71.34375 L 63.5 77.125 L 57.6875 77.3125 L 57.75 71.28125 z M 84.8125 71.28125 L 90.59375 71.3125 L 90.78125 77.15625 L 84.96875 77.09375 L 84.8125 71.28125 z M 97.5 71.28125 L 97.65625 77.09375 L 91.84375 77.28125 L 91.65625 71.4375 L 97.5 71.28125 z M 23.59375 71.3125 L 29.40625 71.375 L 29.5625 77.1875 L 23.78125 77.125 L 23.59375 71.3125 z M 36.28125 71.3125 L 36.21875 77.125 L 30.40625 77.28125 L 30.46875 71.5 L 36.28125 71.3125 z M 112.09375 71.3125 L 118.09375 71.375 L 118.0625 77.15625 L 112.25 77.125 L 112.09375 71.3125 z M 50.875 71.34375 L 56.65625 71.375 L 56.84375 77.1875 L 51.03125 77.15625 L 50.875 71.34375 z M 78.15625 71.34375 L 83.9375 71.40625 L 83.90625 77.1875 L 78.09375 77.15625 L 78.15625 71.34375 z M 16.71875 71.375 L 22.53125 71.40625 L 22.6875 77.21875 L 16.90625 77.1875 L 16.71875 71.375 z M 44 71.375 L 49.78125 71.40625 L 49.96875 77.25 L 44.15625 77.1875 L 44 71.375 z M 105.4375 71.375 L 111.21875 71.40625 L 111.1875 77.21875 L 105.375 77.15625 L 105.4375 71.375 z M 37.125 71.40625 L 42.90625 71.46875 L 43.09375 77.28125 L 37.28125 77.25 L 37.125 71.40625 z M 71.28125 71.40625 L 77.0625 71.4375 L 77.21875 77.25 L 71.4375 77.21875 L 71.28125 71.40625 z M 98.53125 71.40625 L 104.34375 71.46875 L 104.5 77.28125 L 98.71875 77.21875 L 98.53125 71.40625 z M 10.0625 71.4375 L 15.84375 71.46875 L 15.8125 77.25 L 10 77.21875 L 10.0625 71.4375 z M 64.40625 71.4375 L 70.1875 71.46875 L 70.34375 77.3125 L 64.5625 77.25 L 64.40625 71.4375 z M 84.875 77.9375 L 90.6875 78 L 90.59375 84 L 84.8125 83.96875 L 84.875 77.9375 z M 97.5625 77.9375 L 97.5 83.96875 L 91.6875 83.90625 L 91.75 78.125 L 97.5625 77.9375 z M 23.65625 77.96875 L 29.46875 78.03125 L 29.40625 83.8125 L 23.625 83.78125 L 23.65625 77.96875 z M 36.125 77.96875 L 36.28125 84 L 30.46875 83.9375 L 30.3125 78.125 L 36.125 77.96875 z M 63.40625 77.96875 L 63.53125 84 L 57.75 83.96875 L 57.59375 78.15625 L 63.40625 77.96875 z M 112.15625 77.96875 L 117.9375 78 L 118.09375 84.03125 L 112.09375 83.96875 L 112.15625 77.96875 z M 50.9375 78 L 56.75 78.03125 L 56.6875 83.84375 L 50.875 84 L 50.9375 78 z M 78 78 L 83.8125 78.03125 L 83.9375 84.0625 L 78.15625 84.03125 L 78 78 z M 105.28125 78 L 111.0625 78.0625 L 111.21875 84.09375 L 105.4375 84.03125 L 105.28125 78 z M 16.78125 78.03125 L 22.59375 78.0625 L 22.53125 83.875 L 16.75 83.8125 L 16.78125 78.03125 z M 44.0625 78.03125 L 49.84375 78.09375 L 49.8125 83.875 L 44.03125 83.84375 L 44.0625 78.03125 z M 9.90625 78.0625 L 15.71875 78.125 L 15.875 83.9375 L 10.09375 83.875 L 9.90625 78.0625 z M 71.34375 78.0625 L 77.125 78.09375 L 77.09375 83.90625 L 71.28125 83.84375 L 71.34375 78.0625 z M 98.625 78.0625 L 104.40625 78.125 L 104.375 83.90625 L 98.53125 84.09375 L 98.625 78.0625 z M 37.1875 78.09375 L 42.96875 78.125 L 42.9375 83.9375 L 37.15625 83.875 L 37.1875 78.09375 z M 64.46875 78.09375 L 70.25 78.15625 L 70.21875 83.9375 L 64.40625 83.90625 L 64.46875 78.09375 z M 57.65625 84.8125 L 63.4375 84.84375 L 63.40625 90.65625 L 57.59375 90.8125 L 57.65625 84.8125 z M 70.3125 84.8125 L 70.25 90.8125 L 64.46875 90.78125 L 64.5 84.96875 L 70.3125 84.8125 z M 84.9375 84.8125 L 90.71875 84.875 L 90.6875 90.65625 L 84.875 90.625 L 84.9375 84.8125 z M 97.59375 84.8125 L 97.5625 90.625 L 91.75 90.78125 L 91.78125 85 L 97.59375 84.8125 z M 36.15625 84.84375 L 36.125 90.625 L 30.3125 90.8125 L 30.34375 85 L 36.15625 84.84375 z M 112.1875 84.84375 L 118 84.875 L 117.9375 90.6875 L 112.15625 90.625 L 112.1875 84.84375 z M 23.71875 84.875 L 29.5 84.90625 L 29.46875 90.6875 L 23.65625 90.65625 L 23.71875 84.875 z M 51 84.875 L 56.78125 84.90625 L 56.75 90.71875 L 50.9375 90.65625 L 51 84.875 z M 78.0625 84.875 L 83.84375 84.90625 L 83.8125 90.71875 L 78 90.65625 L 78.0625 84.875 z M 105.3125 84.875 L 111.125 84.9375 L 111.0625 90.71875 L 105.28125 90.6875 L 105.3125 84.875 z M 16.84375 84.90625 L 22.625 84.9375 L 22.59375 90.75 L 16.78125 90.6875 L 16.84375 84.90625 z M 44.09375 84.90625 L 49.90625 84.96875 L 49.84375 90.75 L 44.0625 90.71875 L 44.09375 84.90625 z M 9.96875 84.9375 L 15.75 85 L 15.71875 90.78125 L 9.90625 90.75 L 9.96875 84.9375 z M 71.375 84.9375 L 77.1875 84.96875 L 77.125 90.78125 L 71.34375 90.71875 L 71.375 84.9375 z M 37.21875 84.96875 L 43.03125 85 L 42.96875 90.8125 L 37.1875 90.75 L 37.21875 84.96875 z M 98.65625 84.96875 L 104.4375 85 L 104.40625 90.78125 L 98.625 90.75 L 98.65625 84.96875 z M 36.21875 91.71875 L 36.15625 97.5 L 30.34375 97.6875 L 30.40625 91.875 L 36.21875 91.71875 z M 63.5 91.71875 L 63.4375 97.53125 L 57.625 97.6875 L 57.65625 91.90625 L 63.5 91.71875 z M 84.96875 91.71875 L 90.75 91.75 L 90.71875 97.53125 L 84.9375 97.5 L 84.96875 91.71875 z M 97.625 91.71875 L 97.59375 97.5 L 91.78125 97.65625 L 91.8125 91.875 L 97.625 91.71875 z M 112.25 91.71875 L 118.03125 91.75 L 118 97.5625 L 112.1875 97.5 L 112.25 91.71875 z M 23.75 91.75 L 29.5625 91.78125 L 29.5 97.5625 L 23.71875 97.53125 L 23.75 91.75 z M 51.03125 91.75 L 56.8125 91.8125 L 56.78125 97.59375 L 51 97.5625 L 51.03125 91.75 z M 78.09375 91.75 L 83.875 91.78125 L 83.84375 97.59375 L 78.0625 97.53125 L 78.09375 91.75 z M 105.375 91.75 L 111.15625 91.8125 L 111.125 97.59375 L 105.3125 97.5625 L 105.375 91.75 z M 16.875 91.78125 L 22.65625 91.8125 L 22.625 97.625 L 16.84375 97.5625 L 16.875 91.78125 z M 10 91.8125 L 15.78125 91.875 L 15.75 97.65625 L 9.96875 97.625 L 10 91.8125 z M 44.15625 91.8125 L 49.9375 91.84375 L 49.90625 97.625 L 44.09375 97.59375 L 44.15625 91.8125 z M 71.4375 91.8125 L 77.21875 91.84375 L 77.1875 97.65625 L 71.375 97.59375 L 71.4375 91.8125 z M 37.28125 91.84375 L 43.0625 91.875 L 43.03125 97.6875 L 37.21875 97.625 L 37.28125 91.84375 z M 64.5625 91.84375 L 70.34375 91.90625 L 70.3125 97.46875 L 64.5 97.65625 L 64.5625 91.84375 z M 98.6875 91.84375 L 104.5 91.875 L 104.4375 97.65625 L 98.65625 97.625 L 98.6875 91.84375 z M 23.625 98.375 L 29.40625 98.4375 L 29.5625 104.25 L 23.75 104.40625 L 23.625 98.375 z M 16.71875 98.4375 L 22.53125 98.46875 L 22.6875 104.28125 L 16.90625 104.25 L 16.71875 98.4375 z M 37.125 98.46875 L 42.9375 98.53125 L 43.09375 104.34375 L 37.3125 104.3125 L 37.125 98.46875 z M 44.21875 98.46875 L 49.8125 98.46875 L 49.96875 104.3125 L 44.1875 104.25 L 44.21875 98.46875 z M 56.875 98.46875 L 56.84375 104.25 L 51.03125 104.4375 L 50.84375 98.59375 L 56.875 98.46875 z M 71.5 98.46875 L 77.28125 98.53125 L 77.25 104.3125 L 71.4375 104.28125 L 71.5 98.46875 z M 10.0625 98.5 L 15.875 98.53125 L 15.8125 104.3125 L 10.03125 104.28125 L 10.0625 98.5 z M 64.40625 98.5 L 70.1875 98.53125 L 70.375 104.375 L 64.5625 104.3125 L 64.40625 98.5 z M 91.875 98.53125 L 97.46875 98.5625 L 97.625 104.375 L 91.84375 104.34375 L 91.875 98.53125 z M 104.5625 98.53125 L 104.53125 104.34375 L 98.6875 104.5 L 98.75 98.71875 L 104.5625 98.53125 z M 30.46875 98.5625 L 36.25 98.59375 L 36.21875 104.375 L 30.40625 104.34375 L 30.46875 98.5625 z M 57.75 98.5625 L 63.53125 98.59375 L 63.5 104.40625 L 57.6875 104.375 L 57.75 98.5625 z M 84.8125 98.5625 L 90.59375 98.59375 L 90.75 104.40625 L 84.96875 104.375 L 84.8125 98.5625 z M 112.28125 98.59375 L 118.09375 98.65625 L 118.03125 104.4375 L 112.25 104.40625 L 112.28125 98.59375 z M 78.125 98.625 L 83.9375 98.65625 L 83.875 104.46875 L 78.09375 104.40625 L 78.125 98.625 z M 105.40625 98.65625 L 111.1875 98.6875 L 111.15625 104.46875 L 105.375 104.4375 L 105.40625 98.65625 z M 36.125 105.21875 L 36.0625 111.03125 L 30.25 111.1875 L 30.28125 105.40625 L 36.125 105.21875 z M 84.875 105.21875 L 90.65625 105.28125 L 90.625 111.0625 L 84.8125 111.03125 L 84.875 105.21875 z M 97.53125 105.21875 L 97.5 111.03125 L 91.6875 111.1875 L 91.71875 105.40625 L 97.53125 105.21875 z M 23.65625 105.25 L 29.4375 105.3125 L 29.40625 111.09375 L 23.625 111.0625 L 23.65625 105.25 z M 63.375 105.25 L 63.34375 111.03125 L 57.53125 111.21875 L 57.5625 105.40625 L 63.375 105.25 z M 78 105.25 L 83.78125 105.3125 L 83.9375 111.125 L 77.9375 111.0625 L 78 105.25 z M 112.15625 105.25 L 118.15625 105.3125 L 118.09375 111.09375 L 112.09375 111.03125 L 112.15625 105.25 z M 50.9375 105.28125 L 56.71875 105.3125 L 56.875 111.125 L 50.875 111.0625 L 50.9375 105.28125 z M 105.25 105.28125 L 111.0625 105.3125 L 111.21875 111.15625 L 105.21875 111.0625 L 105.25 105.28125 z M 16.78125 105.3125 L 22.5625 105.34375 L 22.75 111.15625 L 16.71875 111.09375 L 16.78125 105.3125 z M 44.0625 105.3125 L 49.84375 105.375 L 49.8125 111.15625 L 44.21875 111.125 L 44.0625 105.3125 z M 71.3125 105.34375 L 77.125 105.375 L 77.0625 111.15625 L 71.5 111.15625 L 71.3125 105.34375 z M 98.59375 105.34375 L 104.40625 105.40625 L 104.34375 111.1875 L 98.5625 111.15625 L 98.59375 105.34375 z M 10.125 105.375 L 15.6875 105.375 L 15.65625 111.1875 L 10.0625 111.15625 L 10.125 105.375 z M 37.15625 105.375 L 42.96875 105.40625 L 42.90625 111.1875 L 37.34375 111.1875 L 37.15625 105.375 z M 64.4375 105.375 L 70.25 105.40625 L 70.21875 111 L 64.40625 111.15625 L 64.4375 105.375 z M 115.78125 117.96875 L 12.3125 118.03125 C 13.335949 118.64395 14.525297 119 15.8125 119 L 112.1875 119 C 113.51506 119 114.73724 118.61747 115.78125 117.96875 z "
           transform="matrix(0.14550446,-0.01727395,0.01727395,0.14550446,-2.541111,-0.2819127)"
           id="path5658" />
        <text
           transform="matrix(0.99262832,-0.11784251,0.11793712,0.99342521,0,0)"
           sodipodi:linespacing="125%"
           id="text7161"
           y="13.280995"
           x="1.1232548"
           style="font-size:12.3082037px;font-style:normal;font-weight:normal;line-height:125%;letter-spacing:0px;word-spacing:0px;fill:#ffffff;fill-opacity:1;stroke:#6c6c6c;stroke-width:0.14652623;stroke-miterlimit:4;stroke-opacity:1;stroke-dasharray:none;font-family:Sans"
           xml:space="preserve"><tspan
             y="13.280995"
             x="1.1232548"
             id="tspan7163"
             sodipodi:role="line"
             style="font-size:12.3082037px;stroke:#6c6c6c;stroke-width:0.14652623;stroke-opacity:1">F</tspan></text>
        <path
           style="font-size:medium;font-style:normal;font-variant:normal;font-weight:normal;font-stretch:normal;text-indent:0;text-align:start;text-decoration:none;line-height:normal;letter-spacing:normal;word-spacing:normal;text-transform:none;direction:ltr;block-progression:tb;writing-mode:lr-tb;text-anchor:start;baseline-shift:baseline;color:#000000;fill:#ffffff;fill-opacity:1;stroke:#6b6b6b;stroke-width:0.14652623;stroke-miterlimit:4;stroke-opacity:1;stroke-dasharray:none;marker:none;visibility:visible;display:inline;overflow:visible;enable-background:accumulate;font-family:Sans;-inkscape-font-specification:Sans"
           d="m 15.007264,10.42671 c -1.011627,0.280508 -1.886009,1.01209 -2.304692,2.058235 -0.165133,0.412609 -0.245097,0.838471 -0.248275,1.258084 l 2.755576,-0.564432 0.252919,-0.430666 z m -2.141504,3.260905 c 0.0081,-0.349846 0.07817,-0.704884 0.216796,-1.051253 0.362593,-0.905997 1.106482,-1.543546 1.973251,-1.801874 l 0.08324,1.823986 0.204303,0.754361 z"
           id="path7472"
           inkscape:connector-curvature="0"
           sodipodi:nodetypes="cscccccscccc" />
        <path
           style="font-size:medium;font-style:normal;font-variant:normal;font-weight:normal;font-stretch:normal;text-indent:0;text-align:start;text-decoration:none;line-height:normal;letter-spacing:normal;word-spacing:normal;text-transform:none;direction:ltr;block-progression:tb;writing-mode:lr-tb;text-anchor:start;baseline-shift:baseline;color:#000000;fill:#ffffff;fill-opacity:1;stroke:#6b6b6b;stroke-width:1;stroke-miterlimit:4;stroke-opacity:1;stroke-dasharray:none;marker:none;visibility:visible;display:inline;overflow:visible;enable-background:accumulate;font-family:Sans;-inkscape-font-specification:Sans"
           d="M 111.90625 20.5625 L 108.90625 20.625 L 108.71875 22.09375 L 108.78125 105 L 26.6875 104.96875 L 25.1875 105 L 25.25 108.03125 L 26.75 108 L 108.8125 107.96875 L 108.8125 108.03125 L 111.84375 107.96875 L 111.8125 106.4375 L 111.71875 22.03125 L 111.90625 20.5625 z "
           transform="matrix(0.14550446,-0.01727395,0.01727395,0.14550446,-2.541111,-0.2819127)"
           id="path7466" />
        <text
           xml:space="preserve"
           style="font-size:32px;font-style:normal;font-weight:normal;line-height:125%;letter-spacing:0px;word-spacing:0px;fill:#000000;fill-opacity:1;stroke:none;font-family:Sans"
           x="79.195961"
           y="55.875111"
           id="text7490"
           sodipodi:linespacing="125%"
           transform="matrix(0.14550446,-0.01727395,0.01727395,0.14550446,-2.541111,-0.2819127)"><tspan
             sodipodi:role="line"
             id="tspan7492"
             x="79.195961"
             y="55.875111" /></text>
        <text
           xml:space="preserve"
           style="font-size:9.67073154px;font-style:normal;font-weight:normal;line-height:125%;letter-spacing:0px;word-spacing:0px;fill:#ffffff;fill-opacity:1;stroke:#6c6c6c;stroke-width:0.14652623;stroke-miterlimit:4;stroke-opacity:1;stroke-dasharray:none;font-family:Sans"
           x="7.8605876"
           y="13.280995"
           id="text7494"
           sodipodi:linespacing="125%"
           transform="matrix(0.99262832,-0.11784251,0.11793712,0.99342521,0,0)"><tspan
             style="font-size:9.67073154px;stroke:#6c6c6c;stroke-width:0.14652623;stroke-opacity:1"
             sodipodi:role="line"
             id="tspan7496"
             x="7.8605876"
             y="13.280995">f</tspan></text>
      </g>
    </g>
  </g>
</svg>
