<?xml version="1.0" encoding="UTF-8" standalone="no"?>
<!-- Created with Inkscape (http://www.inkscape.org/) -->

<svg
   xmlns:osb="http://www.openswatchbook.org/uri/2009/osb"
   xmlns:dc="http://purl.org/dc/elements/1.1/"
   xmlns:cc="http://creativecommons.org/ns#"
   xmlns:rdf="http://www.w3.org/1999/02/22-rdf-syntax-ns#"
   xmlns:svg="http://www.w3.org/2000/svg"
   xmlns="http://www.w3.org/2000/svg"
   xmlns:xlink="http://www.w3.org/1999/xlink"
   xmlns:sodipodi="http://sodipodi.sourceforge.net/DTD/sodipodi-0.dtd"
   xmlns:inkscape="http://www.inkscape.org/namespaces/inkscape"
   version="1.0"
   width="24"
   height="24"
   id="svg11300"
   inkscape:version="0.48.4 r9939"
   sodipodi:docname="applications-graphics.svg">
  <metadata
     id="metadata40">
    <rdf:RDF>
      <cc:Work
         rdf:about="">
        <dc:format>image/svg+xml</dc:format>
        <dc:type
           rdf:resource="http://purl.org/dc/dcmitype/StillImage" />
        <dc:title />
        <dc:title />
      </cc:Work>
    </rdf:RDF>
  </metadata>
  <sodipodi:namedview
     pagecolor="#ffffff"
     bordercolor="#666666"
     borderopacity="1"
     objecttolerance="10"
     gridtolerance="10"
     guidetolerance="10"
     inkscape:pageopacity="0"
     inkscape:pageshadow="2"
     inkscape:window-width="1440"
     inkscape:window-height="854"
     id="namedview38"
     showgrid="false"
     inkscape:zoom="15.8125"
     inkscape:cx="25.474319"
     inkscape:cy="16.831059"
     inkscape:window-x="0"
     inkscape:window-y="0"
     inkscape:window-maximized="1"
     inkscape:current-layer="svg11300" />
  <defs
     id="defs3">
    <linearGradient
       id="linearGradient4124"
       osb:paint="solid">
      <stop
         style="stop-color:#ffffff;stop-opacity:1;"
         offset="0"
         id="stop4126" />
    </linearGradient>
    <radialGradient
       cx="76.16552"
       cy="14.781876"
       r="20.999798"
       fx="76.16552"
       fy="14.781876"
       id="radialGradient2647"
       xlink:href="#linearGradient5428"
       gradientUnits="userSpaceOnUse"
       gradientTransform="matrix(2.154094,0,0,0.07244973,-151.98292,5.8628123)" />
    <linearGradient
       id="linearGradient5428">
      <stop
         id="stop5430"
         style="stop-color:#7a7c7c;stop-opacity:1"
         offset="0" />
      <stop
         id="stop5432"
         style="stop-color:#33393a;stop-opacity:1"
         offset="1" />
    </linearGradient>
    <linearGradient
       x1="8.5625"
       y1="4.646832"
       x2="8.5625"
       y2="45.818478"
       id="linearGradient2649"
       xlink:href="#linearGradient18344"
       gradientUnits="userSpaceOnUse"
       gradientTransform="matrix(0.5120698,0,0,0.5167783,-26.917304,0.63527938)" />
    <linearGradient
       id="linearGradient18344">
      <stop
         id="stop18346"
         style="stop-color:#2f3537;stop-opacity:1"
         offset="0" />
      <stop
         id="stop18354"
         style="stop-color:#8a8e8e;stop-opacity:1"
         offset="0.30000001" />
      <stop
         id="stop18348"
         style="stop-color:#2f3537;stop-opacity:1"
         offset="1" />
    </linearGradient>
    <linearGradient
       x1="697.91443"
       y1="327.78354"
       x2="700.41443"
       y2="496.33771"
       id="linearGradient2651"
       xlink:href="#linearGradient25793"
       gradientUnits="userSpaceOnUse"
       gradientTransform="matrix(0.0769585,0,0,0.08303838,-43.376795,-21.218605)" />
    <linearGradient
       id="linearGradient25793">
      <stop
         id="stop25795"
         style="stop-color:#f0f0f4;stop-opacity:1"
         offset="0" />
      <stop
         id="stop25819"
         style="stop-color:#eeeeec;stop-opacity:1"
         offset="0.03744119" />
      <stop
         id="stop25817"
         style="stop-color:#eeeeec;stop-opacity:0.69594592"
         offset="0.39254159" />
      <stop
         id="stop25803"
         style="stop-color:#a1a29f;stop-opacity:1"
         offset="0.90799886" />
      <stop
         id="stop25799"
         style="stop-color:#555753;stop-opacity:1"
         offset="1" />
    </linearGradient>
    <radialGradient
       cx="400.29608"
       cy="127.65469"
       r="2.0221689"
       fx="400.29608"
       fy="127.65469"
       id="radialGradient2653"
       xlink:href="#linearGradient26816"
       gradientUnits="userSpaceOnUse"
       gradientTransform="matrix(0.5294073,1.6054926e-5,-7.0512917e-6,0.25712,-196.27452,-24.105538)" />
    <linearGradient
       id="linearGradient26816">
      <stop
         id="stop26818"
         style="stop-color:#ffffff;stop-opacity:1"
         offset="0" />
      <stop
         id="stop26820"
         style="stop-color:#eeeeec;stop-opacity:0"
         offset="1" />
    </linearGradient>
    <radialGradient
       cx="399.8783"
       cy="127.24747"
       r="2.0221689"
       fx="399.8783"
       fy="127.24747"
       id="radialGradient2655"
       xlink:href="#linearGradient26830"
       gradientUnits="userSpaceOnUse"
       gradientTransform="matrix(0.4708328,-0.04895889,0.06094931,0.2300824,-180.22176,-0.94374288)" />
    <linearGradient
       id="linearGradient26830">
      <stop
         id="stop26832"
         style="stop-color:#ffffff;stop-opacity:1"
         offset="0" />
      <stop
         id="stop26834"
         style="stop-color:#ffffff;stop-opacity:0"
         offset="1" />
    </linearGradient>
    <radialGradient
       cx="427.79684"
       cy="33.604549"
       r="74.907745"
       fx="427.79684"
       fy="33.604549"
       id="radialGradient2657"
       xlink:href="#linearGradient18403"
       gradientUnits="userSpaceOnUse"
       gradientTransform="matrix(-0.2240538,0.05376216,-0.04083939,-0.1883273,116.68493,-7.6727013)" />
    <linearGradient
       id="linearGradient18403">
      <stop
         id="stop18405"
         style="stop-color:#eeeeec;stop-opacity:1"
         offset="0" />
      <stop
         id="stop18407"
         style="stop-color:#eeeeec;stop-opacity:0"
         offset="1" />
    </linearGradient>
    <radialGradient
       cx="502.53064"
       cy="217.46133"
       r="74.907745"
       fx="502.53064"
       fy="217.46133"
       id="radialGradient2659"
       xlink:href="#linearGradient26168"
       gradientUnits="userSpaceOnUse"
       gradientTransform="matrix(0.05243909,-0.03829218,0.01792908,0.02997364,-11.124089,28.866964)" />
    <linearGradient
       id="linearGradient26168">
      <stop
         id="stop26170"
         style="stop-color:#f5f5f4;stop-opacity:0.99206346;"
         offset="0" />
      <stop
         id="stop26172"
         style="stop-color:#fdfdfd;stop-opacity:0.52380955;"
         offset="1" />
    </linearGradient>
    <radialGradient
       cx="529.39941"
       cy="95.381569"
       r="74.907745"
       fx="529.39941"
       fy="95.381569"
       id="radialGradient2665"
       xlink:href="#linearGradient26120"
       gradientUnits="userSpaceOnUse"
       gradientTransform="matrix(0,0.05277248,-0.05046163,0,20.765445,-14.86076)" />
    <linearGradient
       id="linearGradient26120">
      <stop
         id="stop26122"
         style="stop-color:#2e3436;stop-opacity:0"
         offset="0" />
      <stop
         id="stop26124"
         style="stop-color:#2e3436;stop-opacity:0"
         offset="0.47336468" />
      <stop
         id="stop26126"
         style="stop-color:#0f1112;stop-opacity:1"
         offset="1" />
    </linearGradient>
    <linearGradient
       x1="469.35895"
       y1="126.83501"
       x2="280.0184"
       y2="225.83026"
       id="linearGradient2667"
       xlink:href="#linearGradient26075"
       gradientUnits="userSpaceOnUse"
       gradientTransform="matrix(0.04670754,0,0,0.06854897,-5.402144,1.0090622)" />
    <linearGradient
       id="linearGradient26075">
      <stop
         id="stop26077"
         style="stop-color:#555753;stop-opacity:0"
         offset="0" />
      <stop
         id="stop26079"
         style="stop-color:#eeeeec;stop-opacity:1"
         offset="1" />
    </linearGradient>
    <radialGradient
       cx="469.91165"
       cy="131.83463"
       r="74.907745"
       fx="469.91165"
       fy="131.83463"
       id="radialGradient2671"
       xlink:href="#linearGradient8660"
       gradientUnits="userSpaceOnUse"
       gradientTransform="matrix(-0.07022907,-0.0722737,0.06150812,-0.0685738,42.651501,51.965322)" />
    <linearGradient
       id="linearGradient8660">
      <stop
         id="stop8662"
         style="stop-color:#2e3436;stop-opacity:1"
         offset="0" />
      <stop
         id="stop8664"
         style="stop-color:#555753;stop-opacity:0"
         offset="1" />
    </linearGradient>
    <linearGradient
       id="linearGradient8690">
      <stop
         id="stop8692"
         style="stop-color:#3a3a3a;stop-opacity:1"
         offset="0" />
      <stop
         id="stop8694"
         style="stop-color:#3a3a3a;stop-opacity:0"
         offset="1" />
    </linearGradient>
    <radialGradient
       cx="439.04871"
       cy="111.3"
       r="75.752426"
       fx="439.04871"
       fy="111.3"
       id="radialGradient2677"
       xlink:href="#linearGradient26099"
       gradientUnits="userSpaceOnUse"
       gradientTransform="matrix(0.03550462,-0.02981257,0.05772509,0.08077235,-7.3692462,15.844069)" />
    <linearGradient
       id="linearGradient26099">
      <stop
         id="stop26101"
         style="stop-color:#eeeeec;stop-opacity:1"
         offset="0" />
      <stop
         id="stop26103"
         style="stop-color:#babdb6;stop-opacity:1"
         offset="1" />
    </linearGradient>
    <linearGradient
       x1="457.19556"
       y1="289.77823"
       x2="457.19556"
       y2="114.22821"
       id="linearGradient2679"
       xlink:href="#linearGradient26091"
       gradientUnits="userSpaceOnUse"
       gradientTransform="matrix(0.0362164,0,0,0.05315197,-0.6505857,3.9783937)" />
    <linearGradient
       id="linearGradient26091">
      <stop
         id="stop26093"
         style="stop-color:#2e3436;stop-opacity:1"
         offset="0" />
      <stop
         id="stop26095"
         style="stop-color:#ffffff;stop-opacity:1"
         offset="1" />
    </linearGradient>
    <linearGradient
       id="linearGradient9785">
      <stop
         id="stop9787"
         style="stop-color:#eeeeec;stop-opacity:1"
         offset="0" />
      <stop
         id="stop9789"
         style="stop-color:#090908;stop-opacity:0.96621621"
         offset="1" />
    </linearGradient>
    <radialGradient
       cx="442.29459"
       cy="62.526134"
       r="77.922958"
       fx="442.29459"
       fy="62.526134"
       id="radialGradient2687"
       xlink:href="#linearGradient26371"
       gradientUnits="userSpaceOnUse"
       gradientTransform="matrix(-6.8078266e-6,-0.7928091,0.1352587,0,7.4992013,363.28221)" />
    <linearGradient
       id="linearGradient26371">
      <stop
         id="stop26373"
         style="stop-color:#777777;stop-opacity:0"
         offset="0" />
      <stop
         id="stop26375"
         style="stop-color:#2b2b2b;stop-opacity:1"
         offset="1" />
    </linearGradient>
    <linearGradient
       x1="15.578756"
       y1="19.011086"
       x2="15.578756"
       y2="50.618919"
       id="linearGradient2695"
       xlink:href="#linearGradient5404"
       gradientUnits="userSpaceOnUse"
       gradientTransform="matrix(0.4749893,0,0,0.4999652,0.6002573,-3.5048813)" />
    <linearGradient
       id="linearGradient5404">
      <stop
         id="stop5406"
         style="stop-color:#ffffff;stop-opacity:1"
         offset="0" />
      <stop
         id="stop5408"
         style="stop-color:#ffffff;stop-opacity:0"
         offset="1" />
    </linearGradient>
    <radialGradient
       inkscape:collect="always"
       xlink:href="#linearGradient9785"
       id="radialGradient3320"
       gradientUnits="userSpaceOnUse"
       gradientTransform="matrix(0.02892572,-0.12306476,0.17972905,0.04788442,-19.645172,36.926959)"
       cx="251.69016"
       cy="171.7894"
       fx="251.69016"
       fy="171.7894"
       r="21.53125" />
    <radialGradient
       inkscape:collect="always"
       xlink:href="#linearGradient8660"
       id="radialGradient4352"
       gradientUnits="userSpaceOnUse"
       gradientTransform="matrix(-0.07508467,0.08105827,-0.09931679,-0.1072186,58.378327,-14.014917)"
       cx="434.12521"
       cy="98.974625"
       fx="434.12521"
       fy="98.974625"
       r="74.907745" />
    <radialGradient
       inkscape:collect="always"
       xlink:href="#linearGradient8690"
       id="radialGradient4354"
       gradientUnits="userSpaceOnUse"
       gradientTransform="matrix(-0.00643105,-0.0467684,0.1457874,-0.02336381,-0.2914498,34.000684)"
       cx="441.3573"
       cy="130.89047"
       fx="441.3573"
       fy="130.89047"
       r="75.756241" />
  </defs>
  <g
     transform="matrix(1.093562,0,0,1.055393,-1.1227436,-1.0041387)"
     id="g2616">
    <rect
       width="20.989532"
       height="13.947638"
       rx="1.2673081"
       ry="1.085459"
       x="1.5052338"
       y="5.5473623"
       id="rect5438"
       style="fill:url(#radialGradient2647);fill-opacity:1;fill-rule:nonzero;stroke:url(#linearGradient2649);stroke-width:0.97425103;stroke-linecap:round;stroke-linejoin:round;stroke-miterlimit:4;stroke-opacity:1;stroke-dasharray:none" />
    <rect
       width="20"
       height="13"
       rx="0.82865161"
       ry="0.89770615"
       x="2"
       y="6"
       id="rect5445"
       style="fill:url(#linearGradient2651);fill-opacity:1;fill-rule:nonzero;stroke:none" />
    <path
       inkscape:connector-curvature="0"
       d="m 16.967661,7.9948905 c 0,0.732909 -0.592521,1.3270536 -1.323426,1.3270536 -0.730906,0 -1.323426,-0.5941446 -1.323426,-1.3270536 0,-0.732909 0.59252,-1.3270536 1.323426,-1.3270536 0.730905,0 1.323426,0.5941446 1.323426,1.3270536 l 0,0 0,0 z"
       id="path5451"
       style="opacity:0.27227723;fill:url(#radialGradient2653);fill-opacity:1;fill-rule:nonzero;stroke:none" />
    <path
       inkscape:connector-curvature="0"
       d="m 17.06564,8.4244617 c 0,0.5254007 -0.605125,0.9513253 -1.351582,0.9513253 -0.746457,0 -1.351584,-0.4259246 -1.351584,-0.9513253 0,-0.5254006 0.605127,-0.9513251 1.351584,-0.9513251 0.746457,0 1.351582,0.4259245 1.351582,0.9513251 l 0,0 z"
       id="path5453"
       style="fill:url(#radialGradient2655);fill-opacity:1;fill-rule:nonzero;stroke:none" />
    <path
       inkscape:connector-curvature="0"
       d="m 20.95056,12.809099 c 0,2.903754 -2.237782,5.25771 -4.998223,5.25771 -2.760442,0 -4.998222,-2.353956 -4.998222,-5.25771 0,-2.9037534 2.23778,-5.2577102 4.998222,-5.2577102 2.760441,0 4.998223,2.3539568 4.998223,5.2577102 l 0,0 z"
       id="path5463"
       style="fill:url(#radialGradient2657);fill-opacity:1;fill-rule:nonzero;stroke:none" />
    <path
       inkscape:connector-curvature="0"
       d="m 20.450739,12.809099 c 0,2.61338 -2.014002,4.73194 -4.498402,4.73194 -2.484398,0 -4.498401,-2.11856 -4.498401,-4.73194 0,-2.613379 2.014003,-4.7319399 4.498401,-4.7319399 2.4844,0 4.498402,2.1185609 4.498402,4.7319399 l 0,0 z"
       id="path5465"
       style="fill:#888a85;fill-opacity:1;fill-rule:nonzero;stroke:none" />
    <path
       inkscape:connector-curvature="0"
       d="m 21.450385,12.809099 c 0,3.194128 -2.46156,5.783481 -5.498047,5.783481 -3.036487,0 -5.498046,-2.589353 -5.498046,-5.783481 0,-3.1941277 2.461559,-5.7834802 5.498046,-5.7834802 3.036487,0 5.498047,2.5893525 5.498047,5.7834802 l 0,0 z"
       id="path5467"
       style="fill:url(#radialGradient2659);fill-opacity:1;fill-rule:nonzero;stroke:none" />
    <path
       inkscape:connector-curvature="0"
       d="m 19.451094,12.809099 c 0,2.032626 -1.566448,3.680397 -3.498757,3.680397 -1.93231,0 -3.498757,-1.647771 -3.498757,-3.680397 0,-2.032626 1.566447,-3.6803972 3.498757,-3.6803972 1.932309,0 3.498757,1.6477712 3.498757,3.6803972 z"
       id="path5473"
       style="opacity:0.85148513;fill:url(#radialGradient2665);fill-opacity:1;fill-rule:nonzero;stroke:none" />
    <path
       inkscape:connector-curvature="0"
       d="m 19.451094,12.809098 c 0,2.032627 -1.566448,3.680398 -3.498757,3.680398 -1.93231,0 -3.498757,-1.647771 -3.498757,-3.680398 0,-2.032626 1.566447,-3.680397 3.498757,-3.680397 1.932309,0 3.498757,1.647771 3.498757,3.680397 z"
       id="path5475"
       style="fill:url(#linearGradient2667);fill-opacity:1;fill-rule:nonzero;stroke:none" />
    <path
       inkscape:connector-curvature="0"
       d="m 18.818223,13.307326 c 0,1.742251 -1.290363,3.154629 -2.882105,3.154629 -1.591745,0 -2.882106,-1.412378 -2.882106,-3.154629 0,-1.742251 1.290361,-3.154626 2.882106,-3.154626 1.591742,0 2.882105,1.412375 2.882105,3.154626 l 0,0 z"
       id="path5479"
       style="opacity:0.53960422;fill:url(#radialGradient2671);fill-opacity:1;fill-rule:nonzero;stroke:none" />
    <path
       inkscape:connector-curvature="0"
       d="m 18.789204,13.193262 c 0,1.575503 -1.270107,2.8527 -2.836868,2.8527 -1.566759,0 -2.836867,-1.277197 -2.836867,-2.8527 0,-1.575507 1.270108,-2.852707 2.836867,-2.852707 1.566761,0 2.836868,1.2772 2.836868,2.852707 z"
       id="path5481"
       style="fill:url(#radialGradient4352);fill-opacity:1;fill-rule:nonzero;stroke:url(#radialGradient4354);stroke-width:0.14849523;stroke-linecap:round;stroke-linejoin:round;stroke-miterlimit:4;stroke-opacity:1;stroke-dasharray:none" />
    <path
       inkscape:connector-curvature="0"
       d="m 18.620282,13.127984 c 0,1.575257 -1.215374,2.853729 -2.71289,2.853729 -1.497515,0 -2.712888,-1.278472 -2.712888,-2.853729 0,-1.575259 1.215373,-2.853731 2.712888,-2.853731 1.497516,0 2.71289,1.278472 2.71289,2.853731 z"
       id="path5483"
       style="fill:url(#radialGradient2677);fill-opacity:1;fill-rule:nonzero;stroke:url(#linearGradient2679);stroke-width:0.14458711;stroke-linecap:round;stroke-linejoin:round;stroke-miterlimit:4;stroke-opacity:1" />
    <path
       inkscape:connector-curvature="0"
       d="m 19.170339,12.755599 c 0,1.884681 -1.452429,3.412512 -3.244091,3.412512 -1.791663,0 -3.244091,-1.527831 -3.244091,-3.412512 0,-1.884678 1.452428,-3.4125063 3.244091,-3.4125063 1.791662,0 3.244091,1.5278283 3.244091,3.4125063 l 0,0 z"
       id="path5485"
       style="fill:#2e3436;fill-opacity:1;fill-rule:nonzero;stroke:none" />
    <path
       inkscape:connector-curvature="0"
       d="m 14.407323,10.348237 c -0.381002,0.288024 -0.68688,0.676415 -0.878522,1.123937 l 0,2.205529 c 0.200663,0.468908 0.526133,0.870482 0.932752,1.162427 l 3.152555,0 c 0.383786,-0.275906 0.694447,-0.649719 0.896596,-1.085446 l 0,-2.355641 c -0.193161,-0.416618 -0.485358,-0.778786 -0.845981,-1.050806 l -3.2574,0 z"
       id="path5489"
       style="opacity:0.37556559;fill:url(#radialGradient3320);fill-opacity:1;fill-rule:nonzero;stroke:none" />
    <path
       inkscape:connector-curvature="0"
       d="m 16.116895,10.392137 c -1.03616,-10e-7 -1.886728,0.818061 -1.997271,1.86614 -0.0046,0.04417 -0.008,0.08835 -0.01005,0.133304 -0.0014,0.03218 -0.005,0.06342 -0.005,0.09598 0,0.007 -7e-5,0.01432 0,0.02132 -7e-5,0.007 0,0.01432 0,0.02132 6.1e-4,0.03177 0.003,0.06458 0.005,0.09598 0.002,0.04495 0.0053,0.08912 0.01005,0.133302 0.110521,1.04808 0.961111,1.866142 1.997271,1.866142 1.03616,0 1.886727,-0.818062 1.99727,-1.866142 0.0046,-0.04417 0.008,-0.08835 0.01005,-0.133302 0.0024,-0.03837 0.0046,-0.07841 0.005,-0.117297 -3.71e-4,-0.0389 -0.0025,-0.07894 -0.005,-0.117297 -0.002,-0.04495 -0.0053,-0.08913 -0.01005,-0.133303 -0.11052,-1.048086 -0.96111,-1.86614 -1.99727,-1.86614 z"
       id="path5495"
       style="fill:#000000;fill-opacity:0.50543482;fill-rule:nonzero;stroke:none" />
    <path
       inkscape:connector-curvature="0"
       d="m 21.453402,12.627121 c 0,3.313709 -2.462435,6 -5.5,6 -3.037567,0 -5.5,-2.686291 -5.5,-6 0,-3.3137095 2.462433,-6.0000005 5.5,-6.0000005 3.037565,0 5.5,2.686291 5.5,6.0000005 l 0,0 z"
       id="path5497"
       style="fill:none;stroke:url(#radialGradient2687);stroke-width:0.99999988;stroke-linecap:round;stroke-linejoin:round;stroke-miterlimit:4;stroke-opacity:1;stroke-dasharray:none" />
    <rect
       width="18.999571"
       height="11.999166"
       rx="0.37241617"
       ry="0.38612038"
       x="2.5002143"
       y="6.4944215"
       id="rect5519"
       style="opacity:0.4;fill:none;stroke:url(#linearGradient2695);stroke-width:1.00083303;stroke-linecap:round;stroke-linejoin:round;stroke-miterlimit:4;stroke-opacity:1;stroke-dasharray:none" />
    <rect
       width="0.99964482"
       height="6"
       rx="0.49982241"
       ry="0.60000002"
       x="5"
       y="9.999999"
       id="rect5950"
       style="opacity:0.5;fill:#ffffff;fill-opacity:1;fill-rule:nonzero;stroke:none;stroke-width:1;marker:none;visibility:visible;display:inline;overflow:visible;enable-background:accumulate" />
    <rect
       width="0.99964482"
       height="4"
       rx="0.49982241"
       ry="0.5"
       x="7"
       y="11.000001"
       id="rect5952"
       style="opacity:0.2;fill:#000000;fill-opacity:1;fill-rule:nonzero;stroke:none;stroke-width:1;marker:none;visibility:visible;display:inline;overflow:visible;enable-background:accumulate" />
    <rect
       style="fill:#595959;fill-opacity:1;stroke:none"
       id="rect4130"
       width="4.7865167"
       height="2.5393257"
       x="4.1405458"
       y="6.0224719"
       rx="0.71042174"
       ry="0.71067417" />
  </g>
</svg>
