<?xml version="1.0" encoding="UTF-8" standalone="no"?>
<!-- Created with Inkscape (http://www.inkscape.org/) -->

<svg
   xmlns:dc="http://purl.org/dc/elements/1.1/"
   xmlns:cc="http://creativecommons.org/ns#"
   xmlns:rdf="http://www.w3.org/1999/02/22-rdf-syntax-ns#"
   xmlns:svg="http://www.w3.org/2000/svg"
   xmlns="http://www.w3.org/2000/svg"
   xmlns:sodipodi="http://sodipodi.sourceforge.net/DTD/sodipodi-0.dtd"
   xmlns:inkscape="http://www.inkscape.org/namespaces/inkscape"
   version="1.1"
   width="24"
   height="24"
   id="svg3299"
   inkscape:version="0.48.4 r9939"
   sodipodi:docname="stock_shuffle.svg">
  <metadata
     id="metadata26">
    <rdf:RDF>
      <cc:Work
         rdf:about="">
        <dc:format>image/svg+xml</dc:format>
        <dc:type
           rdf:resource="http://purl.org/dc/dcmitype/StillImage" />
      </cc:Work>
    </rdf:RDF>
  </metadata>
  <sodipodi:namedview
     pagecolor="#ffffff"
     bordercolor="#666666"
     borderopacity="1"
     objecttolerance="10"
     gridtolerance="10"
     guidetolerance="10"
     inkscape:pageopacity="0"
     inkscape:pageshadow="2"
     inkscape:window-width="1029"
     inkscape:window-height="603"
     id="namedview24"
     showgrid="false"
     inkscape:zoom="12.125"
     inkscape:cx="-3.4172011"
     inkscape:cy="11.843102"
     inkscape:window-x="403"
     inkscape:window-y="23"
     inkscape:window-maximized="0"
     inkscape:current-layer="svg3299" />
  <defs
     id="defs3301" />
  <g
     transform="translate(0,-8)"
     id="layer1">
    <path
       d="m 18.500093,28.49986 0,-1.99986 -2.000046,0 c -1.485535,0 -3.97294,-0.765121 -5.178163,-1.851647 C 10.116661,23.56184 9.2000369,21.937201 9.2000369,20 c 0,-2.362985 -2.2024814,-3.5 -3.9250673,-3.5 -2.3298355,0 -3.1499578,0 -3.1499578,0 l -1.3999814,0 0,-3 1.3999814,0 c 0,0 0.8201223,0 3.1499578,0 C 8.4523181,13.5 12,16.310669 12,20 c 0,1.03775 0.483358,1.896661 1.203109,2.545528 C 13.92286,23.194392 15.885609,23.5 16.500047,23.5 l 2.000046,0 0,-2 4.99986,3.458243 z"
       id="path6793"
       style="fill:#575757;fill-opacity:1;fill-rule:evenodd;stroke:#373737;stroke-width:0.75000000000000000;stroke-linecap:square;stroke-linejoin:round;stroke-miterlimit:4;stroke-opacity:1;stroke-dasharray:none;display:inline"
       inkscape:connector-curvature="0"
       sodipodi:nodetypes="ccssssccccsssscccc" />
    <path
       d="m 18.500093,11.50014 0,1.99986 -2.000046,0 c -1.485535,0 -3.97294,0.76511 -5.178163,1.851635 C 10.116661,16.438159 9.2000369,18.062798 9.2000369,20 c 0,2.362985 -2.2024814,3.5 -3.9250673,3.5 -2.3298355,0 -3.1499578,0 -3.1499578,0 l -1.3999814,0 0,3 1.3999814,0 c 0,0 0.8201223,0 3.1499578,0 C 8.4523181,26.5 12,23.68933 12,20 12,18.96225 12.483358,18.103337 13.203109,17.454471 13.92286,16.805607 15.885609,16.5 16.500047,16.5 l 2.000046,0 0,2 4.99986,-3.5 z"
       id="path6784"
       style="fill:#575757;fill-opacity:1;fill-rule:evenodd;stroke:#373737;stroke-width:0.75000000000000000;stroke-linecap:square;stroke-linejoin:round;stroke-miterlimit:4;stroke-opacity:1;stroke-dasharray:none;display:inline"
       inkscape:connector-curvature="0"
       sodipodi:nodetypes="ccssssccccsssscccc" />
  </g>
</svg>
