<?xml version="1.0" encoding="UTF-8" standalone="no"?>
<!-- Created with Inkscape (http://www.inkscape.org/) -->

<svg
   xmlns:dc="http://purl.org/dc/elements/1.1/"
   xmlns:cc="http://creativecommons.org/ns#"
   xmlns:rdf="http://www.w3.org/1999/02/22-rdf-syntax-ns#"
   xmlns:svg="http://www.w3.org/2000/svg"
   xmlns="http://www.w3.org/2000/svg"
   xmlns:sodipodi="http://sodipodi.sourceforge.net/DTD/sodipodi-0.dtd"
   xmlns:inkscape="http://www.inkscape.org/namespaces/inkscape"
   id="svg2"
   version="1.1"
   inkscape:version="0.48.5 r10040"
   width="1024"
   height="1024"
   sodipodi:docname="braindump.svg">
  <metadata
     id="metadata8">
    <rdf:RDF>
      <cc:Work
         rdf:about="">
        <dc:format>image/svg+xml</dc:format>
        <dc:type
           rdf:resource="http://purl.org/dc/dcmitype/StillImage" />
        <dc:title />
      </cc:Work>
    </rdf:RDF>
  </metadata>
  <defs
     id="defs6" />
  <sodipodi:namedview
     pagecolor="#ffffff"
     bordercolor="#666666"
     borderopacity="1"
     objecttolerance="10"
     gridtolerance="10"
     guidetolerance="10"
     inkscape:pageopacity="0"
     inkscape:pageshadow="2"
     inkscape:window-width="1108"
     inkscape:window-height="642"
     id="namedview4"
     showgrid="false"
     inkscape:zoom="0.32593203"
     inkscape:cx="-74.167481"
     inkscape:cy="435.36562"
     inkscape:window-x="106"
     inkscape:window-y="39"
     inkscape:window-maximized="0"
     inkscape:current-layer="svg2" />
  <rect
     style="fill:#ffffff;fill-rule:evenodd;stroke:#edd400;stroke-width:66;stroke-linecap:butt;stroke-linejoin:miter;stroke-opacity:1;fill-opacity:1;stroke-miterlimit:4;stroke-dasharray:none"
     id="rect2998"
     width="923.50543"
     height="917.3692"
     x="53.226265"
     y="55.540836"
     ry="126.214" />
  <path
     inkscape:connector-curvature="0"
     id="path2993"
     d="m 371.2077,807.00706 c -27.7789,1.46206 -61.4384,-17.96141 -75.72632,-43.69848 -3.65751,-6.5883 -6.72931,-19.95904 -5.98697,-26.06023 0.69124,-5.682 3.9487,-14.35014 5.52397,-14.69928 1.61442,-0.35783 105.71837,66.08395 106.07676,67.70094 0.37078,1.67287 -5.35235,7.57081 -10.32027,10.63556 -5.44854,3.36128 -13.20044,5.7864 -19.56717,6.12149 z"
     style="fill:#f0c310" />
  <path
     inkscape:connector-curvature="0"
     id="path2991"
     d="m 429.41369,788.69999 c -2.264,-0.64032 -35.70864,-21.35791 -74.32132,-46.03912 -60.07034,-38.39687 -70.52923,-45.46404 -72.45166,-48.95577 -6.52131,-11.84515 1.82881,-22.482 15.37958,-19.59138 4.29954,0.91718 130.95055,80.3204 141.13973,88.4869 9.08353,7.28035 11.55589,16.08928 6.31265,22.49198 -2.85655,3.48827 -10.44937,5.19387 -16.05897,3.60741 z"
     style="fill:#f0c310" />
  <path
     inkscape:connector-curvature="0"
     id="path2989"
     d="m 452.6003,751.57907 c -2.99166,-0.73696 -29.85653,-17.25168 -74.79869,-45.98116 -64.56742,-41.27506 -70.32067,-45.19684 -72.52942,-49.44108 -6.52934,-12.54639 3.1996,-22.63949 17.44415,-18.09706 8.33198,2.65704 140.37845,87.07029 143.78742,91.91889 8.9515,12.73203 0.89651,25.24618 -13.90346,21.60041 z"
     style="fill:#f0c310" />
  <path
     inkscape:connector-curvature="0"
     id="path2987"
     d="m 480.24506,717.83412 c -1.90121,0.0168 -5.26475,-0.61049 -7.47456,-1.39403 -2.20981,-0.78354 -34.76294,-21.05017 -72.34041,-45.03693 -47.07821,-30.05129 -69.09567,-44.71538 -70.80862,-47.15986 -9.38733,-13.39659 1.22416,-25.93744 17.16361,-20.28428 2.17851,0.7726 34.70609,21.03028 72.28357,45.01704 47.07811,30.05132 69.09557,44.71541 70.80852,47.15988 7.3603,10.50368 2.43827,21.59139 -9.63211,21.69818 z"
     style="fill:#f0c310" />
  <path
     inkscape:connector-curvature="0"
     id="path2986"
     d="m 480.98058,665.73649 c -3.25636,-0.93397 -98.50071,-61.3285 -103.38422,-65.55601 -2.98318,-2.58238 -4.21049,-4.57933 -4.99792,-8.13202 -0.91841,-4.14364 -0.44399,-6.11518 3.9507,-16.41932 13.34824,-31.29747 19.12741,-58.912 18.52202,-88.50436 -0.3993,-19.52496 -1.94187,-30.91364 -9.57553,-70.69977 -3.79398,-19.77379 -7.14166,-39.3709 -7.43945,-43.54911 -2.13587,-29.97602 2.88202,-51.0036 17.64407,-73.93845 45.39889,-70.53345 144.47618,-92.03973 235.19233,-51.0522 14.69707,6.64048 36.33048,19.73127 50.06447,30.29491 29.1426,22.41539 53.25041,52.78076 68.65268,86.47257 5.3929,11.79677 6.24502,14.60709 11.19914,36.9348 5.07231,22.83878 5.35276,24.89482 5.19297,37.43268 -0.40531,31.808 -8.38987,59.53281 -24.16011,83.89142 -12.71214,19.63501 -26.99213,32.63618 -46.7081,42.52507 -14.01586,7.02991 -22.89306,10.16927 -55.12902,19.49598 -46.872,13.56131 -66.79844,21.47188 -91.92339,36.49254 -14.57355,8.71265 -33.53447,23.0539 -47.91694,36.24247 -7.65466,7.0192 -13.81269,9.60932 -19.1837,8.0688 z"
     style="fill:#edd400" />
  <path
     inkscape:connector-curvature="0"
     id="path2984"
     d="m 371.2077,807.00706 c -27.7789,1.46206 -61.4384,-17.96141 -75.72632,-43.69848 -3.65751,-6.5883 -6.72931,-19.95904 -5.98697,-26.06023 0.69124,-5.682 3.9487,-14.35014 5.52397,-14.69928 1.61442,-0.35783 105.71837,66.08395 106.07676,67.70094 0.37078,1.67287 -5.35235,7.57081 -10.32027,10.63556 -5.44854,3.36128 -13.20044,5.7864 -19.56717,6.12149 z m 58.20599,-18.30707 c -2.264,-0.64032 -35.70864,-21.35791 -74.32132,-46.03912 -60.07034,-38.39687 -70.52923,-45.46404 -72.45166,-48.95577 -6.52131,-11.84515 1.82881,-22.482 15.37958,-19.59138 4.29954,0.91718 130.95055,80.3204 141.13973,88.4869 9.08353,7.28035 11.55589,16.08928 6.31265,22.49198 -2.85655,3.48827 -10.44937,5.19387 -16.05897,3.60741 z m 23.18661,-37.12092 c -2.99166,-0.73696 -29.85653,-17.25168 -74.79869,-45.98116 -64.56742,-41.27506 -70.32067,-45.19684 -72.52942,-49.44108 -6.52934,-12.54639 3.1996,-22.63949 17.44415,-18.09706 8.33198,2.65704 140.37845,87.07029 143.78742,91.91889 8.9515,12.73203 0.89651,25.24618 -13.90346,21.60041 z m 27.64476,-33.74495 c -1.90121,0.0168 -5.26475,-0.61049 -7.47456,-1.39403 -2.20981,-0.78354 -34.76294,-21.05017 -72.34041,-45.03693 -47.07821,-30.05129 -69.09567,-44.71538 -70.80862,-47.15986 -9.38733,-13.39659 1.22416,-25.93744 17.16361,-20.28428 2.17851,0.7726 34.70609,21.03028 72.28357,45.01704 47.07811,30.05132 69.09557,44.71541 70.80852,47.15988 7.3603,10.50368 2.43827,21.59139 -9.63211,21.69818 z"
     style="fill:#354a5e" />
</svg>
