<?xml version="1.0" encoding="UTF-8" standalone="no"?>
<!-- Created with Inkscape (http://www.inkscape.org/) -->

<svg
   xmlns:dc="http://purl.org/dc/elements/1.1/"
   xmlns:cc="http://creativecommons.org/ns#"
   xmlns:rdf="http://www.w3.org/1999/02/22-rdf-syntax-ns#"
   xmlns:svg="http://www.w3.org/2000/svg"
   xmlns="http://www.w3.org/2000/svg"
   xmlns:sodipodi="http://sodipodi.sourceforge.net/DTD/sodipodi-0.dtd"
   xmlns:inkscape="http://www.inkscape.org/namespaces/inkscape"
   id="svg2"
   version="1.1"
   inkscape:version="0.48.5 r10040"
   width="512"
   height="512"
   sodipodi:docname="cairo-dock.svg">
  <metadata
     id="metadata8">
    <rdf:RDF>
      <cc:Work
         rdf:about="">
        <dc:format>image/svg+xml</dc:format>
        <dc:type
           rdf:resource="http://purl.org/dc/dcmitype/StillImage" />
        <dc:title />
      </cc:Work>
    </rdf:RDF>
  </metadata>
  <defs
     id="defs6" />
  <sodipodi:namedview
     pagecolor="#ffffff"
     bordercolor="#666666"
     borderopacity="1"
     objecttolerance="10"
     gridtolerance="10"
     guidetolerance="10"
     inkscape:pageopacity="0"
     inkscape:pageshadow="2"
     inkscape:window-width="1085"
     inkscape:window-height="682"
     id="namedview4"
     showgrid="false"
     inkscape:zoom="2.6074562"
     inkscape:cx="99.339079"
     inkscape:cy="291.26859"
     inkscape:window-x="15"
     inkscape:window-y="39"
     inkscape:window-maximized="0"
     inkscape:current-layer="g2982" />
  <g
     id="g2982"
     transform="translate(2.7446683e-6,-6.136249)">
    <path
       style="fill:#ffffff"
       d="M 229.74623,468.30236 C 194.08767,464.91523 157.34197,452.08147 125.77637,431.98998 113.56565,424.21784 82.707431,396.14797 74.163251,385.0406 46.625176,349.24123 33.121008,310.52736 33.121008,267.38031 c 0,-43.14704 13.504168,-81.86091 41.042243,-117.66027 8.54418,-11.10739 39.402399,-39.17724 51.613119,-46.94938 39.35548,-25.049763 81.91498,-37.333708 129.34802,-37.333708 47.43305,0 89.99255,12.283945 129.34803,37.333708 12.21075,7.77214 43.06892,35.84199 51.6131,46.94938 27.53806,35.79936 41.04223,74.51323 41.04223,117.66027 0,43.14705 -13.50417,81.86092 -41.04223,117.66029 -8.54418,11.10737 -39.40235,39.17724 -51.6131,46.94938 -32.29183,20.55376 -68.37598,32.97751 -105.73541,36.40463 -11.80577,1.08299 -37.12001,1.03532 -48.99078,-0.0922 z"
       id="path3772"
       inkscape:connector-curvature="0" />
    <path
       style="fill:#ffc022;fill-opacity:1"
       d="M 227.3117,495.25702 C 197.48794,492.19714 168.10248,482.592 139.26718,466.47818 119.60259,455.48916 109.50052,447.68482 89.48567,428.01959 69.470816,408.35436 61.527709,398.42875 50.34331,379.10764 28.564281,341.48425 19.850216,308.24853 19.850216,262.80588 c 0,-45.44264 8.714065,-78.67838 30.493094,-116.30177 11.184399,-19.32107 19.127506,-29.2467 39.14236,-48.91192 20.01485,-19.66521 30.11692,-27.469554 49.78151,-38.458593 38.2923,-21.398604 72.11892,-29.960442 118.36947,-29.960442 46.25055,0 80.07714,8.561838 118.36944,29.960442 19.66459,10.989039 29.76665,18.793383 49.78149,38.458593 20.01484,19.66522 27.95798,29.59085 39.14238,48.91192 21.77905,37.62339 30.49311,70.85913 30.49311,116.30177 0,45.44265 -8.71406,78.67837 -30.49311,116.30176 -11.1844,19.32111 -19.12754,29.24672 -39.14238,48.91195 -20.01484,19.66523 -30.1169,27.46957 -49.78149,38.45859 -29.63816,16.56247 -58.22285,25.74334 -89.93558,28.88559 -12.69656,1.25802 -46.04733,1.19744 -58.75881,-0.10684 z m -46.66757,-129.1641 c 30.0772,-5.59214 53.58347,-26.14514 63.86257,-55.839 2.74282,-7.92337 5.25113,-22.03707 4.33387,-24.3857 -0.48728,-1.24763 -4.11733,-1.44527 -22.26664,-1.21239 l -21.68445,0.27828 -1.92748,7.70714 c -4.17238,16.68345 -11.81713,27.43793 -23.53213,33.10445 -6.21677,3.00706 -7.97627,3.36253 -18.62543,3.76303 -17.09488,0.64291 -27.2932,-2.58848 -37.35572,-11.83639 -12.95146,-11.90294 -19.81229,-31.05117 -19.78335,-55.2143 0.0318,-26.60232 8.49665,-47.7227 23.56478,-58.79634 9.01174,-6.62276 15.16401,-8.26967 30.89236,-8.26967 12.12581,0 13.55327,0.21133 19.30589,2.85829 11.54113,5.31042 19.8715,13.94507 23.34362,24.19622 0.90371,2.6682 2.10543,5.43022 2.67045,6.13781 0.75684,0.94778 6.21135,1.28652 20.71622,1.28652 10.8289,0 20.43452,-0.28112 21.34583,-0.62473 2.26404,-0.85359 2.11566,-5.50944 -0.46749,-14.66816 -7.97703,-28.28327 -32.65469,-50.56209 -62.95556,-56.83585 -12.16192,-2.51811 -34.40516,-2.80018 -45.95684,-0.58279 -28.54147,5.47867 -53.018672,23.6689 -65.988639,49.03949 -14.284073,27.94109 -16.825115,67.12282 -6.333645,97.66173 12.573458,36.59919 44.103574,60.78148 83.287434,63.87801 11.69697,0.92435 22.61045,0.3891 33.55435,-1.64565 z m 191.69565,0.63863 c 25.31439,-2.05835 39.02089,-8.01308 55.63928,-24.17221 9.56059,-9.29645 11.30366,-11.19764 16.10845,-20.93844 8.50598,-17.24413 11.96837,-34.20162 11.86238,-58.09638 -0.10066,-22.68571 -3.71065,-39.17262 -11.84091,-54.07747 -11.85972,-21.74167 -29.6324,-36.85931 -56.01657,-41.88119 l -6.85539,-1.30483 -2.41826,-0.35823 -2.49669,-0.20107 -3.45257,-0.11041 -7.65779,-0.13915 -39.82296,-0.72368 -51.32834,-0.0525 -0.27006,100.34889 c -0.14854,55.19186 -0.23278,100.76723 0.0417,101.47483 0.62676,1.61571 79.21354,1.80068 98.50767,0.23183 z m -51.59846,-100.5807 0.27012,-61.49584 21.21728,-0.27864 c 23.67841,-0.31095 30.45261,0.65347 40.86515,5.8179 17.13082,8.49656 26.39639,28.93931 26.41169,58.27231 0.0134,24.95863 -7.35041,42.32977 -22.15968,52.27757 -8.92067,5.99222 -14.52165,6.90255 -42.46988,6.90255 l -24.40481,0 z"
       id="path2988"
       inkscape:connector-curvature="0"
       sodipodi:nodetypes="cssssssssssssssssccsssscssssssssscscssssssscssssscccccccscsccsscssccc" />
    <path
       sodipodi:type="arc"
       style="fill:none;stroke:#ff6600;stroke-width:47.44723835;stroke-linecap:round;stroke-linejoin:miter;stroke-miterlimit:4;stroke-opacity:1;stroke-dasharray:none"
       id="path2991"
       sodipodi:cx="299.90915"
       sodipodi:cy="337.11691"
       sodipodi:rx="233.94449"
       sodipodi:ry="225.50714"
       d="m 533.85364,337.11691 c 0,124.54416 -104.74052,225.50714 -233.94449,225.50714 -129.20397,0 -233.944489,-100.96298 -233.944489,-225.50714 0,-124.54415 104.740519,-225.50714 233.944489,-225.50714 129.20397,0 233.94449,100.96299 233.94449,225.50714 z"
       transform="matrix(0.94639033,0,0,0.94623827,-27.570927,-55.520317)" />
  </g>
</svg>
