<?xml version="1.0" encoding="UTF-8" standalone="no"?>
<!-- Created with Inkscape (http://www.inkscape.org/) -->

<svg
   xmlns:dc="http://purl.org/dc/elements/1.1/"
   xmlns:cc="http://creativecommons.org/ns#"
   xmlns:rdf="http://www.w3.org/1999/02/22-rdf-syntax-ns#"
   xmlns:svg="http://www.w3.org/2000/svg"
   xmlns="http://www.w3.org/2000/svg"
   xmlns:sodipodi="http://sodipodi.sourceforge.net/DTD/sodipodi-0.dtd"
   xmlns:inkscape="http://www.inkscape.org/namespaces/inkscape"
   id="svg2"
   version="1.1"
   inkscape:version="0.48.5 r10040"
   width="512"
   height="512"
   sodipodi:docname="cs-session-properties.svg">
  <metadata
     id="metadata8">
    <rdf:RDF>
      <cc:Work
         rdf:about="">
        <dc:format>image/svg+xml</dc:format>
        <dc:type
           rdf:resource="http://purl.org/dc/dcmitype/StillImage" />
        <dc:title />
      </cc:Work>
    </rdf:RDF>
  </metadata>
  <defs
     id="defs6" />
  <sodipodi:namedview
     pagecolor="#ffffff"
     bordercolor="#666666"
     borderopacity="1"
     objecttolerance="10"
     gridtolerance="10"
     guidetolerance="10"
     inkscape:pageopacity="0"
     inkscape:pageshadow="2"
     inkscape:window-width="1214"
     inkscape:window-height="657"
     id="namedview4"
     showgrid="false"
     inkscape:zoom="0.92187499"
     inkscape:cx="302.27027"
     inkscape:cy="213.28695"
     inkscape:window-x="15"
     inkscape:window-y="39"
     inkscape:window-maximized="0"
     inkscape:current-layer="svg2" />
  <path
     style="fill:#ececec;fill-opacity:1;fill-rule:nonzero;stroke:none"
     d="m 144.17751,408.88784 c -2.5943,-24.22534 1.95205,-31.9935 8.93845,-15.2727 4.849,11.60526 9.71419,13.19974 23.86269,7.82049 14.30559,-5.43897 10.8519,-0.76722 -6.68446,9.04197 -9.43254,5.27623 -18.69472,11.49229 -20.58264,13.81347 -2.72117,3.34574 -3.86805,0.15353 -5.53404,-15.40323 z"
     id="path3009"
     inkscape:connector-curvature="0" />
  <path
     sodipodi:type="arc"
     style="fill:#004455;fill-opacity:1;fill-rule:nonzero;stroke:none"
     id="path2998"
     sodipodi:cx="-248.40678"
     sodipodi:cy="670.37286"
     sodipodi:rx="146.44067"
     sodipodi:ry="145.35593"
     d="m -101.96611,670.37286 a 146.44067,145.35593 0 1 1 -292.88135,0 146.44067,145.35593 0 1 1 292.88135,0 z"
     transform="matrix(1.6010172,0,0,1.6120271,653.85241,-822.47715)" />
  <path
     style="fill:#d23a33"
     d="m 208.17748,426.84279 c -4.21753,-2.95407 -3.77874,-5.60372 1.73656,-10.48661 9.45069,-8.367 13.01371,-27.01085 7.3844,-38.63946 -1.55511,-3.21241 -2.6267,-6.67978 -2.38133,-7.70529 0.5678,-2.37311 32.57957,-32.46631 40.22322,-37.81244 5.47598,-3.83012 5.95197,-3.92696 9.72101,-1.97788 10.80758,5.58879 17.78217,17.2178 17.8298,29.72802 0.0368,9.60289 -2.11341,15.01519 -9.99344,25.15911 -12.11243,15.59208 -28.35889,28.80873 -45.89362,37.3348 -13.34532,6.48902 -15.06411,6.89501 -18.6266,4.39975 z"
     id="path3023"
     inkscape:connector-curvature="0" />
  <path
     style="fill:#d23a33"
     d="m 123.7358,375.02454 c -4.66445,-4.66445 -2.01541,-33.30676 4.78355,-51.72112 3.37441,-9.1393 11.78925,-24.19604 16.9508,-30.33019 4.50016,-5.34815 15.98657,-10.91667 24.62976,-11.94032 9.21732,-1.09165 21.02183,2.42936 27.23546,8.12375 l 4.79824,4.39724 -2.34208,8.12562 c -1.28813,4.46908 -5.33801,16.69842 -8.99969,27.17629 l -6.65763,19.05068 -12.5579,0 c -11.37824,0 -13.24288,0.3794 -19.84994,4.03895 -8.3559,4.62818 -15.97881,12.84596 -17.2392,18.58452 -1.3274,6.04358 -6.8808,8.36516 -10.75137,4.49458 z"
     id="path3019"
     inkscape:connector-curvature="0" />
  <path
     style="fill:#d23a33"
     d="m 302.83285,228.58992 c -24.20944,-4.13934 -41.88033,-23.29497 -41.88302,-46.1584 -0.001,-18.54491 12.7304,-36.25913 31.14141,-43.32537 13.03984,-5.0047 28.56759,-4.52867 40.92627,1.25468 18.29826,8.56278 28.43096,23.60477 28.43096,42.20552 0,21.74289 -17.17801,42.00194 -38.60442,45.52838 -11.25189,1.85191 -13.13494,1.67092 -20.0112,0.49519 z"
     id="path3017"
     inkscape:connector-curvature="0"
     sodipodi:nodetypes="scsssss" />
  <path
     style="fill:#d23a33"
     d="m 367.15264,135.36548 c -9.79558,-2.12817 -22.3014,-8.42337 -30.25055,-15.22748 -5.02312,-4.29959 -13.65132,-15.29837 -13.65132,-17.40196 0,-1.62755 17.75496,-8.90885 26.88894,-11.027174 22.32331,-5.17713 32.06787,3.974604 33.97157,31.905224 1.01962,14.96002 0.25352,15.49087 -16.95864,11.75139 z"
     id="path2986"
     inkscape:connector-curvature="0" />
  <path
     inkscape:connector-curvature="0"
     id="path2984"
     d="m 304.39546,217.35727 c -29.83975,-5.69248 -41.56476,-39.1014 -20.9556,-59.71047 19.0723,-19.07227 52.27927,-13.77106 63.60939,10.15469 12.41424,26.2149 -12.60911,55.28735 -42.65379,49.55578 z"
     style="fill:#3a3f5f" />
  <path
     sodipodi:type="arc"
     style="fill:#ffcc00;fill-opacity:1;fill-rule:nonzero;stroke:none"
     id="path3005"
     sodipodi:cx="190.22371"
     sodipodi:cy="337.50043"
     sodipodi:rx="28.38015"
     sodipodi:ry="26.846088"
     d="m 218.60386,337.50043 a 28.38015,26.846088 0 1 1 -56.7603,0 28.38015,26.846088 0 1 1 56.7603,0 z"
     transform="matrix(1.0888746,-1.737308,0.8235797,0.5161865,-306.71362,537.99299)" />
  <path
     style="fill:#f2f2f2;fill-opacity:1;fill-rule:nonzero;stroke:none"
     d="m 194.80248,359.73546 c -5.08647,-3.71931 -2.0013,-1.57126 13.77426,-24.73639 16.32329,-23.96944 22.10994,-28.31908 12.80182,-28.31908 -4.26737,0 -6.27565,7.97881 -26.14571,36.93438 -9.44705,13.76667 -6.41374,13.31861 -18.09665,5.26913 -5.89176,-4.05941 -7.19468,-2.10629 1.86875,-31.27951 11.05535,-35.58481 35.4463,-96.00921 46.47323,-115.12949 20.91555,-36.26674 50.40087,-69.75579 78.24874,-88.87387 9.24706,-6.34833 17.98275,-11.54242 19.4125,-11.54242 1.42975,0 5.79754,3.40408 9.70618,7.56464 10.60851,11.29229 24.47387,18.97772 38.74894,21.47806 l 12.74082,2.23163 -0.3825,14.62249 c -0.53778,20.55971 -15.69685,56.90074 -31.52347,82.36968 -7.38908,11.89077 -23.72296,34.91764 -38.55254,49.81775 -27.87427,28.00682 -75.65136,75.48196 -98.80765,89.45551 -1.27591,0.76993 -17.2895,-7.68551 -20.26672,-9.86251 z M 325.22547,226.2303 c 15.18135,-4.21469 30.72809,-23.07731 32.43211,-34.42959 5.05619,-33.68455 -13.952,-54.31654 -45.65028,-54.31654 -43.69532,0 -65.61455,47.26512 -35.22212,75.95074 8.34365,7.87497 22.86563,13.85175 31.48727,14.54243 2.4355,0.11444 10.49498,0.0458 16.95302,-1.74704 z"
     id="path3007"
     inkscape:connector-curvature="0"
     sodipodi:nodetypes="ssssssssssscssssssssscs" />
  <path
     style="fill:#d23a33"
     d="m 167.95564,385.81535 c 0,-1.71055 8.62681,-16.2537 19.1707,-32.31811 33.1573,-50.51777 31.47284,-48.21443 35.60774,-48.69005 4.50066,-0.51769 6.14245,2.49336 3.9651,7.2721 -0.81828,1.79592 -8.71151,13.2383 -17.54055,25.42752 -8.82902,12.1892 -18.25668,25.53009 -20.95035,29.6464 -12.26835,18.74779 -20.25264,26.10503 -20.25264,18.66214 z"
     id="path3021"
     inkscape:connector-curvature="0" />
</svg>
