<?xml version="1.0" encoding="UTF-8" standalone="no"?>
<!-- Created with Inkscape (http://www.inkscape.org/) -->

<svg
   xmlns:dc="http://purl.org/dc/elements/1.1/"
   xmlns:cc="http://creativecommons.org/ns#"
   xmlns:rdf="http://www.w3.org/1999/02/22-rdf-syntax-ns#"
   xmlns:svg="http://www.w3.org/2000/svg"
   xmlns="http://www.w3.org/2000/svg"
   xmlns:sodipodi="http://sodipodi.sourceforge.net/DTD/sodipodi-0.dtd"
   xmlns:inkscape="http://www.inkscape.org/namespaces/inkscape"
   id="svg2"
   version="1.1"
   inkscape:version="0.48.5 r10040"
   width="1024"
   height="1024"
   sodipodi:docname="gimp.svg">
  <metadata
     id="metadata8">
    <rdf:RDF>
      <cc:Work
         rdf:about="">
        <dc:format>image/svg+xml</dc:format>
        <dc:type
           rdf:resource="http://purl.org/dc/dcmitype/StillImage" />
        <dc:title />
      </cc:Work>
    </rdf:RDF>
  </metadata>
  <defs
     id="defs6" />
  <sodipodi:namedview
     pagecolor="#ffffff"
     bordercolor="#666666"
     borderopacity="1"
     objecttolerance="10"
     gridtolerance="10"
     guidetolerance="10"
     inkscape:pageopacity="0"
     inkscape:pageshadow="2"
     inkscape:window-width="1182"
     inkscape:window-height="638"
     id="namedview4"
     showgrid="false"
     inkscape:zoom="0.4609375"
     inkscape:cx="799.76116"
     inkscape:cy="209.47628"
     inkscape:window-x="15"
     inkscape:window-y="39"
     inkscape:window-maximized="0"
     inkscape:current-layer="svg2" />
  <path
     style="fill:#fd8925"
     d="M 568.38645,800.9833 C 516.39071,799.5404 452.72793,785.74223 395.35256,763.48019 315.604,732.53721 235.56178,682.59816 173.92068,625.32686 c -9.9149,-9.21203 -11.1298,-9.90227 -14.4191,-8.19256 -0.9955,0.51743 -3.9208,1.48735 -6.5007,2.15538 -2.5799,0.66803 -6.1827,1.6705 -8.0062,2.22771 -4.4558,1.36152 -34.6374,1.42514 -39.0423,0.0824 -26.737697,-8.15101 -35.860497,-12.58918 -50.698397,-24.66427 -19.7016,-16.03327 -34.6181,-39.85008 -40.1658,-64.13183 -1.4668,-6.42008 -1.407,-40.12281 0.081,-45.34322 0.6534,-2.29322 1.5001,-5.57669 1.8816,-7.29661 1.2157,-5.48186 8.3723,-19.86188 13.007,-26.13567 11.9488,-16.1745 31.5924,-30.07621 47.8927,-33.89347 2.0066,-0.4699 5.7592,-1.42827 8.339,-2.12971 5.572,-1.51494 30.109497,-1.60746 39.088997,-0.14737 23.9761,3.89857 50.2188,19.57805 67.6446,40.41639 15.3153,18.31443 23.1238,36.91338 26.4763,63.06356 l 0.735,5.73305 9.4937,-0.13613 c 27.57193,-0.39537 56.90432,-12.88812 72.40052,-30.83559 12.07832,-13.98892 18.898,-27.6413 23.7795,-47.60435 4.95804,-20.27607 6.77638,-49.38293 4.34398,-69.53574 -0.54728,-4.53427 -1.52839,-12.9348 -2.18026,-18.66785 -1.69237,-14.88417 -7.56695,-44.01333 -13.00387,-64.4799 -5.05313,-19.02185 -5.13142,-19.43112 -3.71711,-19.43112 0.52315,0 26.19859,14.07204 57.05656,31.27119 30.85796,17.19915 56.70539,31.27118 57.43871,31.27118 0.73333,0 7.06797,-2.39595 14.077,-5.32433 52.9619,-22.1276 113.92519,-35.25517 163.90452,-35.29449 12.96202,-0.0104 38.96518,2.25009 53.50786,4.65109 51.26205,8.46339 99.7371,30.11551 142.81668,63.79121 5.35935,4.18946 10.21643,7.6172 10.7935,7.6172 0.57708,0 6.51265,-2.40972 13.19016,-5.35493 22.60437,-9.96995 52.63025,-29.27971 81.45874,-52.38642 17.47144,-14.00377 72.05529,-62.21361 105.00343,-92.74173 1.8547,-1.71843 3.6817,-2.81484 4.0601,-2.43649 0.3783,0.37836 0.1587,4.80244 -0.488,9.83129 -0.6468,5.02885 -2.1644,17.58659 -3.3727,27.90608 -2.0056,17.13038 -8.4736,58.72668 -13.37181,85.99576 -4.11245,22.89472 -14.95817,68.35227 -23.00471,96.4195 -53.13514,185.34095 -149.44011,302.87188 -281.47037,343.50743 -38.35636,11.8051 -80.01584,17.116 -124.56356,15.8798 z"
     id="path3013" />
  <path
     style="fill:#ffffff"
     d="m 424.47231,557.94026 c 11.44476,-2.8569 20.48846,-8.16814 29.83297,-17.52047 15.44625,-15.4592 22.4819,-35.33227 19.70049,-55.6465 -3.71933,-27.16446 -21.36746,-48.24556 -47.38202,-56.59892 -6.98195,-2.24193 -10.28972,-2.67556 -20.32627,-2.66465 -10.57022,0.0115 -12.99347,0.37145 -20.49877,3.04492 -11.25579,4.00941 -18.97608,8.78487 -26.7735,16.56097 -21.31985,21.26158 -25.93192,54.12764 -11.31697,80.64571 7.62618,13.83728 24.50822,27.53083 39.09522,31.71132 13.99467,4.01074 23.02596,4.12286 37.66885,0.46762 z"
     id="path3007"
     inkscape:connector-curvature="0" />
  <path
     style="fill:#6c6c6c"
     d="M 110.85708,626.25713 C 62.834867,621.8662 18.266952,582.63919 7.038975,534.88002 6.2822603,531.66127 4.7617538,521.72541 4.7663071,511.81471 c 0.00472,-10.27087 1.5622137,-20.51472 2.3577659,-23.22712 0.6864218,-2.34123 1.5759124,-5.69343 1.9766934,-7.44936 1.2771396,-5.59661 8.7954246,-20.27766 13.6643546,-26.68278 12.552676,-16.5131 33.189037,-30.70582 50.313131,-34.60298 2.108011,-0.47974 6.050262,-1.45817 8.760441,-2.17429 5.853601,-1.54666 31.631187,-1.64112 41.064497,-0.15046 39.9771,6.31716 79.28972,39.43149 92.65351,78.04513 3.2696,9.44693 4.14281,13.26367 6.3148,27.60104 0.48765,3.21918 1.23501,6.62071 1.66079,7.55894 0.89307,1.96817 -2.98815,25.31191 -4.73635,28.48633 -0.64388,1.16917 -1.17103,2.99532 -1.17156,4.05808 -0.001,3.02865 -6.00488,14.6016 -11.64795,22.45368 -10.22931,14.23352 -22.48836,24.5187 -37.1502,31.16837 -10.2853,4.6648 -9.99745,4.56964 -25.39079,8.39292 -5.36709,1.33304 -22.87904,1.85172 -32.57783,0.96492 z"
     id="path3021"
     inkscape:connector-curvature="0"
     sodipodi:nodetypes="cssccsssscscscssscc" />
  <path
     sodipodi:type="arc"
     style="fill:#ffffff;fill-opacity:1;fill-rule:evenodd;stroke:none"
     id="path3015"
     sodipodi:cx="-320"
     sodipodi:cy="134.50847"
     sodipodi:rx="98.711861"
     sodipodi:ry="97.627121"
     d="m -221.28814,134.50847 a 98.711861,97.627121 0 1 1 -197.42372,0 98.711861,97.627121 0 1 1 197.42372,0 z"
     transform="translate(913.35593,401.35593)" />
  <path
     inkscape:connector-curvature="0"
     id="path2984"
     d="m 559.50064,588.57616 c -13.66365,-4.87887 -21.87294,-17.28619 -21.74106,-32.85886 0.0836,-9.87533 3.65945,-18.59936 10.12958,-24.71342 6.81743,-6.44226 12.40988,-8.54169 22.60239,-8.48505 7.47599,0.0415 9.67438,0.49476 14.07203,2.90107 20.34104,11.13021 24.49423,38.40669 8.3683,54.95968 -9.26749,9.51291 -21.40836,12.48957 -33.43124,8.19658 z M 382.26002,536.73414 c -9.93585,-3.25381 -15.42207,-11.06944 -15.42207,-21.97016 0,-8.30212 3.41641,-15.02877 9.919,-19.52979 3.70301,-2.56317 5.57897,-3.0828 11.32863,-3.13785 5.69607,-0.0545 7.73355,0.45063 11.75201,2.91385 16.36205,10.02956 13.35404,35.99125 -4.82431,41.63779 -6.16231,1.91412 -7.151,1.9208 -12.75326,0.0862 z"
     style="fill:#1b1b1b" />
</svg>
