<?xml version="1.0" encoding="UTF-8" standalone="no"?>
<!-- Created with Inkscape (http://www.inkscape.org/) -->

<svg
   xmlns:dc="http://purl.org/dc/elements/1.1/"
   xmlns:cc="http://creativecommons.org/ns#"
   xmlns:rdf="http://www.w3.org/1999/02/22-rdf-syntax-ns#"
   xmlns:svg="http://www.w3.org/2000/svg"
   xmlns="http://www.w3.org/2000/svg"
   xmlns:sodipodi="http://sodipodi.sourceforge.net/DTD/sodipodi-0.dtd"
   xmlns:inkscape="http://www.inkscape.org/namespaces/inkscape"
   id="svg2"
   version="1.1"
   inkscape:version="0.48.5 r10040"
   width="512"
   height="512"
   sodipodi:docname="gtranslator.svg">
  <metadata
     id="metadata8">
    <rdf:RDF>
      <cc:Work
         rdf:about="">
        <dc:format>image/svg+xml</dc:format>
        <dc:type
           rdf:resource="http://purl.org/dc/dcmitype/StillImage" />
        <dc:title />
      </cc:Work>
    </rdf:RDF>
  </metadata>
  <defs
     id="defs6" />
  <sodipodi:namedview
     pagecolor="#ffffff"
     bordercolor="#666666"
     borderopacity="1"
     objecttolerance="10"
     gridtolerance="10"
     guidetolerance="10"
     inkscape:pageopacity="0"
     inkscape:pageshadow="2"
     inkscape:window-width="1132"
     inkscape:window-height="631"
     id="namedview4"
     showgrid="false"
     inkscape:zoom="14.75"
     inkscape:cx="452.97517"
     inkscape:cy="50.91872"
     inkscape:window-x="107"
     inkscape:window-y="41"
     inkscape:window-maximized="0"
     inkscape:current-layer="svg2" />
  <rect
     style="fill:#ffffff;fill-rule:evenodd;stroke:none;stroke-width:1px;stroke-linecap:butt;stroke-linejoin:miter;stroke-opacity:1;fill-opacity:1"
     id="rect3781"
     width="172.582"
     height="203.26324"
     x="255.42136"
     y="245.84021" />
  <path
     inkscape:connector-curvature="0"
     id="path2996"
     d="m 219.30511,478.95324 c -9.30225,-2.91522 -18.38024,-12.437 -20.8204,-21.80973 -0.74339,-2.85532 -0.88608,-8.50167 -0.42285,-16.99748 0.52971,-9.71528 0.66521,-13.93569 -0.28869,-15.08161 -1.07021,-1.28565 -5.61154,0.33448 -28.56481,-0.76675 l -25.97989,-1.24643 -27.85534,-27.21194 -29.763287,-28.39057 -0.786351,-25.62104 -0.498715,-27.34685 -9.475569,-0.65591 c -22.082905,-1.52861 -30.155981,-4.3819 -37.073974,-13.10318 -7.527702,-9.4899 -7.180028,-2.20052 -6.195227,-129.89215 L 32.458502,56.923193 34.709468,52.723272 C 37.579877,47.367585 42.82266,42.140562 48.19449,39.278779 L 52.407069,37.034572 166.6568,36.15872 c 128.07651,-0.981848 120.76515,-1.328472 130.28366,6.176606 2.76298,2.17853 6.0772,6.1017 7.75787,9.18329 3.66923,6.727705 3.52526,3.932933 4.37658,84.959064 l 0.66868,63.64359 72.31355,0.49721 72.31356,0.49722 4.79647,2.37448 c 6.12897,3.03414 12.80795,9.69305 15.80159,15.75411 l 2.34279,4.74332 0,116.84565 0,116.84565 -2.4413,4.94622 c -3.11382,6.30876 -9.45804,11.45242 -15.53842,15.01714 l -4.96113,2.50177 -115.63389,0.25621 c -92.73833,0.20547 -116.11594,-0.40789 -119.4317,-1.44701 z m 74.72898,-82.18323 5.90145,-17.65115 37.32044,0 37.32045,0 5.97994,17.65115 5.97994,17.65115 11.67972,0 11.67971,0 -2.37033,-6.21519 c -1.30368,-3.41836 -13.44414,-34.18357 -26.97878,-68.36714 -13.53466,-34.18357 -25.49658,-64.50128 -26.58206,-67.3727 l -1.97361,-5.22077 -14.81809,0 -14.8181,0 -1.98226,5.22077 c -1.44071,3.79449 -50.90976,131.03826 -54.77591,140.64419 -0.38362,0.95316 1.34724,1.31084 10.5433,1.31084 l 11.99273,0 z m 14.89353,-34.70704 c -1.47554,-1.4711 -0.21431,-5.28236 12.66303,-38.266 12.02692,-30.80541 13.56408,-34.17691 15.58222,-34.17691 2.01826,0 3.55849,3.3797 15.62255,34.28021 7.36094,18.85411 13.25318,35.18764 13.09385,36.29673 -0.28211,1.96374 -1.02247,2.02343 -28.28558,2.28031 -15.39775,0.14509 -28.30198,-0.0414 -28.67607,-0.41434 z m -111.59925,5.24261 c 0.76229,-0.91575 2.14384,-9.22059 1.11725,-27.66325 l -1.45972,-26.22372 -25.3703,0.21308 c -13.95367,0.1172 -25.96022,0.43878 -26.68121,0.71461 -1.03705,0.39676 -1.31091,5.97852 -1.31091,26.71943 0,14.41984 0.29923,26.51623 0.66496,26.88084 0.36571,0.36463 12.20509,0.66296 26.30971,0.66296 19.93786,0 25.88632,-0.29017 26.73022,-1.30395 z"
     style="fill:#e8e6dc"
     sodipodi:nodetypes="ssssscccccssscsscsssscccsscccsscssccccccccssscccssscccssssscsscscscss" />
  <path
     inkscape:connector-curvature="0"
     id="path2994"
     d="m 219.03546,479.11438 c -9.4757,-3.28834 -17.89868,-11.97655 -20.67525,-21.32628 -1.20874,-4.07027 -1.38767,-8.07027 -0.87033,-19.45587 l 0.65123,-14.33222 -27.82167,0 -27.82168,0 -28.70562,-28.25 -29.856164,-28.25 0.06375,-27.44176 -0.12801,-25.48729 -7.982191,-0.4862 c -5.477708,-0.33365 -10.291436,-0.56551 -10.713696,-1.24875 -0.83827,-1.35635 46.469021,-48.836 48.654671,-48.836 2.18565,0 50.03532,48.29321 49.19705,49.64956 -0.42226,0.68324 -6.44712,0.87584 -11.93404,0.97756 l -6.35507,-0.0562 -0.75739,25.54553 -0.38352,27.69176 26.4886,0.19176 27.25563,0 -0.30113,-67.75 -0.30112,-67.75 -3.20451,-2.72304 c -6.73326,-5.72162 -22.80833,-17.77696 -23.7045,-17.77696 -0.51593,0 -5.12122,3.2625 -10.23398,7.25 -18.43183,14.37519 -55.79192,36.75 -61.362895,36.75 -1.88239,0 -15.59345,-14.74197 -16.20038,-17.41847 -0.17831,-0.7863 2.02262,-2.23292 5.5,-3.615 8.89447,-3.53512 24.744145,-11.60232 33.716185,-17.16092 9.23241,-5.71993 27.61002,-18.93064 29.49608,-21.20321 1.06696,-1.2856 0.19411,-2.74077 -5.5862,-9.31304 -13.66318,-15.53517 -24.3171,-31.44131 -29.32683,-43.78448 -3.39443,-8.36335 -3.19847,-8.50488 11.77551,-8.50488 8.80014,0 13.3154,0.3933 14.35036,1.25 0.83055,0.6875 2.36467,3.275 3.40914,5.75 4.54179,10.76233 20.27292,33.60095 24.97507,36.25907 0.91347,0.51639 3.20431,-1.34662 7.16535,-5.82718 15.62733,-17.67693 25.94752,-38.41665 26.58799,-53.43189 l 0.2346,-5.5 -62.40673,-0.25763 c -44.070695,-0.18193 -62.801395,-0.58518 -63.749995,-1.37244 -1.7843,-1.48084 -1.90793,-21.905273 -0.14327,-23.669933 0.8921,-0.8921 11.15556,-1.2 39.999995,-1.2 l 38.8,0 0,-10.8 c 0,-7.06667 0.41481,-11.214818 1.2,-12.000003 1.64564,-1.645642 21.95436,-1.645642 23.6,0 0.78519,0.785185 1.2,4.933333 1.2,12.000003 l 0,10.8 38.8,0 c 28.84444,0 39.1079,0.3079 40,1.2 1.64564,1.64564 1.64564,21.954363 0,23.600003 -0.82427,0.82427 -5.79352,1.2 -15.87083,1.2 l -14.67084,0 -0.66912,5.9143 c -2.36573,20.91027 -14.75847,44.586 -35.70859,68.21954 -3.23434,3.64861 -5.88062,7.11337 -5.88062,7.69947 0,0.93955 7.70954,6.83526 15.06312,11.5192 2.4595,1.56661 2.72226,1.51568 6.5,-1.25985 8.81126,-6.4737 2.13522,-6.16991 128.93687,-5.8672 l 115,0.27454 4.6757,2.16089 c 6.6224,3.06057 13.3215,9.61551 16.5538,16.1976 l 2.7705,5.64151 0,116.5 -0.47457,116.09322 -2.29593,6.04829 c -3.0967,5.56514 -9.9314,13.13703 -16.5538,16.1976 l -4.6757,2.16089 -115,0.22595 c -109.35397,0.21486 -115.25995,0.13574 -120.29503,-1.61158 z m 75.31658,-80.16348 c 2.85619,-8.552 5.72311,-16.5395 6.37094,-17.75 l 1.17789,-2.20089 35.92962,0 35.9296,0 1.1779,2.20089 c 0.6479,1.2105 3.5148,9.198 6.371,17.75 l 5.193,15.54911 12.789,0.28081 c 11.8614,0.26044 12.7518,0.15166 12.2772,-1.5 -0.392,-1.36438 -41.1613,-104.8452 -55.8587,-141.78081 l -2.3875,-6 -15.1968,-0.27578 c -13.70735,-0.24876 -15.28781,-0.10175 -16.12606,1.5 -1.14409,2.18614 -57.21617,144.07777 -57.91556,146.55659 -0.4659,1.65126 0.42789,1.76038 12.28648,1.5 l 12.78893,-0.28081 z m 15.82541,-39.48915 c -0.59961,-1.56256 24.05301,-66.35076 26.38254,-69.3344 1.1735,-1.50312 1.3675,-1.50312 2.5411,0 2.3295,2.98364 26.9821,67.77184 26.3825,69.3344 -0.5111,1.33191 -4.2207,1.53826 -27.6531,1.53826 -23.43242,0 -27.14194,-0.20635 -27.65304,-1.53826 z"
     style="fill:#2a7fff"
     sodipodi:nodetypes="ssscccccccssssscccccccsssssssssssssssscsssscsssscsssscsssssscscccccscssssccccscscscsssscssssssss" />
  <path
     style="fill:#a3a29b;stroke:#a3a29b;stroke-width:1.70000005;stroke-miterlimit:4;stroke-opacity:1;stroke-dasharray:none"
     d="m 143.11313,369.62179 c 0.91789,-1.59941 3.33176,-1.75 28.05165,-1.75 l 27.04733,0 0.0151,-7.75 c 0.008,-4.2625 0.3584,-8.29835 0.77798,-8.96855 0.51167,-0.81726 8.21048,6.34534 23.37823,21.75 l 22.61534,22.96855 -22.61533,22.96855 c -15.16775,15.40466 -22.86656,22.56726 -23.37823,21.75 -0.41958,-0.6702 -0.76969,-4.70605 -0.77798,-8.96855 l -0.0151,-7.75 -26.89923,0 c -19.60786,0 -27.21973,-0.32527 -28.08161,-1.2 -1.51997,-1.54261 -1.62881,-50.4177 -0.11814,-53.05 z"
     id="path2992"
     inkscape:connector-curvature="0" />
  <path
     inkscape:connector-curvature="0"
     id="path2984"
     d="m 91.158887,247.80353 c -3.74782,-4.13806 -7.627779,-8.53545 -7.627779,-9.10909 0,-0.57364 4.863559,-3.12117 9.813559,-5.164 16.133083,-6.65801 31.919823,-16.22787 51.072033,-30.66005 4.8125,-3.62647 8.47882,-6.20784 8.47882,-6.73073 0,-0.52289 -1.95428,-4.33037 -5.50292,-8.29536 -10.82853,-12.09898 -21.11245,-26.01584 -26.87473,-37.3472 -3.01772,-5.93425 -5.75795,-12.26071 -5.75795,-13.06444 0,-1.20553 3.62282,-1.85224 14.13342,-1.05455 l 12.50628,0.94915 3.51643,5.97313 c 7.03729,11.9538 22.26129,36.07772 26.03075,36.07772 2.43412,0 12.38314,-11.62858 19.27467,-22.07112 8.36545,-12.67596 12.88427,-26.3178 14.81465,-40.01389 1.09877,-7.79587 6.646,-3.0869 -63.62729,-4.60991 l -63.242129,-1.22034 0,-11.00001 0,-11.949147 39.477969,-0.135594 c 28.84427,-0.09907 39.1079,0.641253 40,-0.250847 0.78519,-0.78518 0.0793,-4.947213 0.52203,-12 l 0.27119,-11.477966 11.54237,-0.271187 11.1356,0.40678 0.54237,11.20678 c 0.3416,7.058408 -0.39875,11.350413 0.38644,12.135593 0.8921,0.8921 11.83809,0.0091 40.67797,0.522034 l 38.93559,-0.135593 0,11.949147 -0.13559,10.86442 -15.55553,0 c -10.70834,0 -15.15448,0.35029 -15.86574,1.25 -0.5435,0.6875 -1.28509,4.27729 -1.64797,7.9773 -1.86565,19.02269 -13.31222,40.83671 -33.97208,64.74147 -4.61154,5.33585 -7.61473,9.64596 -7.29737,10.47301 0.29663,0.773 3.28973,2.89827 6.48561,5.22 3.19589,2.32173 7.68925,4.49426 9.70207,5.37902 l 2.94223,1.29329 -4.11288,6.73053 c -1.5489,2.53471 -2.78152,7.3156 -3.47448,10.0194 -0.69296,2.70379 -1.67248,7.22106 -2.17671,7.22106 -1.05965,0 -23.99653,-18.32823 -24.89902,-19.78848 -1.23733,-2.00205 -2.99363,-1.32158 -12.38545,6.01997 -10.71759,8.37791 -27.72832,19.73903 -39.92065,26.66218 -8.25493,4.68739 -20.089133,10.80125 -20.907263,10.80125 -0.25537,0 -3.5307,-3.38568 -7.27852,-7.52373 z"
     style="fill:#575753;stroke:#575753;stroke-width:3.29999995;stroke-miterlimit:4;stroke-opacity:1;stroke-dasharray:none"
     sodipodi:nodetypes="ssssssssscssssscccssscccssscccsssscsscssssssss" />
</svg>
