<?xml version="1.0" encoding="UTF-8" standalone="no"?>
<!-- Created with Inkscape (http://www.inkscape.org/) -->

<svg
   xmlns:dc="http://purl.org/dc/elements/1.1/"
   xmlns:cc="http://creativecommons.org/ns#"
   xmlns:rdf="http://www.w3.org/1999/02/22-rdf-syntax-ns#"
   xmlns:svg="http://www.w3.org/2000/svg"
   xmlns="http://www.w3.org/2000/svg"
   xmlns:sodipodi="http://sodipodi.sourceforge.net/DTD/sodipodi-0.dtd"
   xmlns:inkscape="http://www.inkscape.org/namespaces/inkscape"
   id="svg2"
   version="1.1"
   inkscape:version="0.48.5 r10040"
   width="256"
   height="256"
   sodipodi:docname="orca.svg">
  <metadata
     id="metadata8">
    <rdf:RDF>
      <cc:Work
         rdf:about="">
        <dc:format>image/svg+xml</dc:format>
        <dc:type
           rdf:resource="http://purl.org/dc/dcmitype/StillImage" />
        <dc:title />
      </cc:Work>
    </rdf:RDF>
  </metadata>
  <defs
     id="defs6" />
  <sodipodi:namedview
     pagecolor="#ffffff"
     bordercolor="#666666"
     borderopacity="1"
     objecttolerance="10"
     gridtolerance="10"
     guidetolerance="10"
     inkscape:pageopacity="0"
     inkscape:pageshadow="2"
     inkscape:window-width="1194"
     inkscape:window-height="677"
     id="namedview4"
     showgrid="false"
     inkscape:zoom="3.6875"
     inkscape:cx="145.62698"
     inkscape:cy="111.47411"
     inkscape:window-x="15"
     inkscape:window-y="39"
     inkscape:window-maximized="0"
     inkscape:current-layer="svg2" />
  <rect
     style="fill:#4682b4;fill-rule:evenodd;stroke:#000000;stroke-width:0;stroke-linecap:butt;stroke-linejoin:miter;stroke-opacity:1;stroke-miterlimit:4;stroke-dasharray:none;fill-opacity:1"
     id="rect3031"
     width="238.22034"
     height="238.22034"
     x="8.677968"
     y="9.644062"
     rx="15.727992" />
  <path
     style="fill:#f5f5f5"
     d="m 64.830513,240.96016 c 0,-3.53784 6.31209,-12.15287 11.29764,-15.41952 1.45727,-0.95484 3.81072,-4.19054 5.2299,-7.19044 1.41918,-2.9999 3.23106,-5.70407 4.0264,-6.00927 1.9318,-0.7413 1.82233,-2.00378 -0.45054,-5.19573 -1.04314,-1.46494 -2.4274,-4.68441 -3.07614,-7.15437 -0.64874,-2.46996 -1.82026,-6.41906 -2.60339,-8.77578 -1.71997,-5.17604 11.947638,10.02506 13.547828,10.02506 0.62765,0 -11.68439,-13.52218 -7.39266,-9.10761 5.83987,6.00702 10.411247,8.94985 15.504609,11.36234 6.49447,3.0761 -3.42815,2.65105 8.06295,2.65105 6.26933,0 18.19102,-2.74586 20.43297,-2.90132 1.80011,-0.12482 5.28714,-2.02449 8.86934,-3.79256 2.71813,-1.34159 10.46885,-8.03958 12.36663,-9.36252 2.05237,-1.43071 3.39602,-2.5995 5.53131,-4.95907 3.74882,-4.14258 5.85521,-6.88912 8.96622,-12.57115 2.92515,-5.34259 4.08436,-10.95143 4.40757,-14.55927 0.97354,-10.86731 -3.33101,-25.04406 -10.07754,-33.18959 -4.53733,-5.47824 -14.61969,-11.42644 -16.05668,-9.88534 -0.51483,0.55213 -0.13274,2.72808 0.77334,7.81376 C 145.98762,132.827 148.57932,140 144.50199,140 c -5.20051,0 -18.11296,-12.50591 -19.26767,-18.66103 -0.35432,-1.88872 5.05551,-1.63468 5.39283,-3.74432 1.19771,-7.49005 -8.38154,-11.13656 -23.29667,-4.04626 -10.667447,5.07107 -29.541906,17.92662 -38.423726,26.41597 -18.89964,18.06451 -21.042387,1.14174 -26.576287,-10.09108 -2.0873,-4.23683 -4.994334,10.3102 -4.935624,-3.37328 0.0521,-12.14225 0.47887,-16.52413 2.2401,-23 5.88088,-21.623305 21.58611,-43.302813 39.05899,-53.917031 9.97763,-6.061085 19.67759,-8.601673 36.636577,-9.59574 30.66835,-1.797654 47.10736,-6.323317 64.12189,-17.652763 10.0963,-6.722813 14.66545,-7.88442 17.72312,-4.505725 3.43698,3.797822 -2.9179,6.990423 -12.09978,20.848574 -9.8187,14.819294 -4.99913,20.112296 6.80919,34.971822 11.78937,14.835688 17.32399,28.529923 18.86156,46.668903 3.59288,42.38594 -14.0242,72.72331 -50.41598,86.81852 -4.4,1.7042 -12.5,4.17162 -18,5.48315 -5.5,1.31154 -14.05,3.34708 -19,4.52342 -18.76914,4.46041 -39.048117,12.80369 -51.974057,21.38344 -5.60111,3.7178 -6.52594,4.06268 -6.52594,2.43359 z"
     id="path2990"
     inkscape:connector-curvature="0"
     sodipodi:nodetypes="sssssssssssssssssssssscsssssssssssssssss" />
  <path
     style="fill:#454545;fill-opacity:1"
     d="m 66.310031,236.11726 c 1.82178,-1.85812 10.448042,-8.59569 8.094932,-5.80985 -7.78578,9.21757 -10.11483,11.65945 -9.81106,9.21556 0.37553,-3.0212 6.919642,-9.62329 12.243381,-15.99093 0.616114,-0.73693 2.505545,-3.11574 4.674744,-6.26381 3.811514,-5.5315 9.62114,-12.57937 3.887165,-1.2269 0.43743,-1.87454 2.68379,-2.54042 -0.35875,-6.55354 -3.18973,-4.20725 -9.0143,-24.62401 -7.46643,-26.17188 0.35536,-0.35537 4.19519,2.961 8.53296,7.3697 9.13731,9.28675 16.431837,13.2255 27.990987,15.11402 20.69176,3.38059 36.99103,-9.74214 52.28497,-27.39553 1.5847,-1.82918 -11.63747,16.10473 -9.98315,12.91322 2.00987,-3.87744 10.24187,-12.54769 15.88601,-22.92501 5.43728,-9.99699 8.32115,-21.64029 8.76548,-28.90239 1.15652,-18.90201 -2.48695,-30.3981 -13.05808,-41.20149 -4.975,-5.084319 -6.54583,-6.093138 -9.4876,-6.093138 -4.12276,0 -7.9928,3.520827 -10.4564,9.512888 -2.21774,5.39407 -3.23841,17.31334 -1.84734,21.57312 1.58243,4.84576 2.2945,14.81943 0.82733,16.2866 -1.85978,1.85977 -9.35788,-1.02152 -15.91638,-8.10548 -5.76571,-6.22766 -6.65908,-7.4537 -6.21632,-15.70685 0.35528,-6.62269 -1.82151,-16.28674 -6.53819,-19.162161 -8.60094,-5.243371 -21.929937,-5.151655 -38.565947,0.265369 -16.44718,5.355542 -22.53169,11.586132 -22.52117,23.061902 0.007,8.27525 3.75704,13.0859 11.54061,17.92644 2.22402,1.38312 1.95726,1.26475 -8.40268,9.1109 -15.18916,11.50361 -23.61441,6.66076 -25.15605,-13.36073 -1.21684,-15.80338 2.83524,-34.83612 10.51537,-49.391076 10.4565,-19.816539 26.16019,-34.773753 42.79378,-40.759557 9.08531,-3.269466 13.103087,-3.93289 29.920687,-4.940593 27.97454,-1.67622 44.0357,-6.119727 61.30219,-16.959963 11.38334,-7.146679 15.32616,-8.641053 17.66894,-6.69672 1.31067,1.087758 1.61373,2.599557 1.25971,6.283998 -0.37063,3.857121 -1.87654,6.943264 -7.34637,15.055309 -3.7841,5.612015 -7.34448,11.80395 -7.91196,13.759857 -1.85783,6.403305 0.23396,11.851913 8.4257,21.946998 7.7299,9.525949 13.09656,19.128063 16.66218,29.812277 3.10362,9.29986 5.30587,10.41054 5.34542,28.94978 0.0366,17.18663 -1.54199,20.72081 -3.71563,27.68836 -4.7547,15.24111 -10.90679,25.34905 -21.11797,34.69705 -12.79046,11.70927 -27.14355,16.78751 -52.45161,22.54526 -30.53213,6.94626 -46.137587,12.4443 -61.347477,21.61364 -5.13511,3.09572 -10.83128,5.22181 -11.16665,5.22181 -0.33536,0 -0.0034,-4.03798 2.220668,-6.30646 z"
     id="path2984"
     inkscape:connector-curvature="0"
     sodipodi:nodetypes="ssssscssssssssssssssssscssssssssssssssssssss" />
</svg>
