<?xml version="1.0" encoding="UTF-8" standalone="no"?>
<!-- Created with Inkscape (http://www.inkscape.org/) -->

<svg
   xmlns:dc="http://purl.org/dc/elements/1.1/"
   xmlns:cc="http://creativecommons.org/ns#"
   xmlns:rdf="http://www.w3.org/1999/02/22-rdf-syntax-ns#"
   xmlns:svg="http://www.w3.org/2000/svg"
   xmlns="http://www.w3.org/2000/svg"
   xmlns:sodipodi="http://sodipodi.sourceforge.net/DTD/sodipodi-0.dtd"
   xmlns:inkscape="http://www.inkscape.org/namespaces/inkscape"
   width="48"
   height="48"
   id="svg2"
   version="1.1"
   inkscape:version="0.48.4 r9939"
   viewBox="0 0 13.546666 13.546668"
   sodipodi:docname="plasma.svg">
  <defs
     id="defs4">
    <style
       id="style2464"
       type="text/css" />
    <style
       type="text/css"
       id="style2464-7" />
  </defs>
  <sodipodi:namedview
     id="base"
     pagecolor="#ffffff"
     bordercolor="#666666"
     borderopacity="1.0"
     inkscape:pageopacity="0"
     inkscape:pageshadow="2"
     inkscape:zoom="8.9002328"
     inkscape:cx="16.291945"
     inkscape:cy="29.828206"
     inkscape:document-units="px"
     inkscape:current-layer="layer1"
     showgrid="false"
     inkscape:showpageshadow="false"
     borderlayer="true"
     units="px"
     fit-margin-top="0"
     fit-margin-left="0"
     fit-margin-right="0"
     fit-margin-bottom="0"
     showguides="true"
     inkscape:window-width="1366"
     inkscape:window-height="744"
     inkscape:window-x="0"
     inkscape:window-y="24"
     inkscape:window-maximized="1">
    <sodipodi:guide
       position="-6.6748425e-06,47.999999"
       orientation="47.999977,0"
       id="guide4120" />
    <sodipodi:guide
       position="-6.6748425e-06,2.2810037e-05"
       orientation="0,48.000004"
       id="guide4122" />
    <sodipodi:guide
       position="47.999997,2.2810037e-05"
       orientation="-47.999977,0"
       id="guide4124" />
    <sodipodi:guide
       position="47.999997,47.999999"
       orientation="0,-48.000004"
       id="guide4126" />
    <sodipodi:guide
       position="3.9999733,44.000154"
       orientation="39.999962,0"
       id="guide4138" />
    <sodipodi:guide
       position="3.9999733,4.0001921"
       orientation="0,40.000003"
       id="guide4140" />
    <sodipodi:guide
       position="43.999976,4.0001921"
       orientation="-39.999962,0"
       id="guide4142" />
    <sodipodi:guide
       position="43.999976,44.000154"
       orientation="0,-40.000003"
       id="guide4144" />
    <sodipodi:guide
       position="6.9999922,47.999999"
       orientation="39.999962,0"
       id="guide4148" />
    <sodipodi:guide
       position="6.9999922,8.0000369"
       orientation="0,34.000006"
       id="guide4150" />
    <sodipodi:guide
       position="40.999998,8.0000369"
       orientation="-39.999962,0"
       id="guide4152" />
    <sodipodi:guide
       position="40.999998,47.999999"
       orientation="0,-34.000006"
       id="guide4154" />
    <sodipodi:guide
       position="14.999993,32.999986"
       orientation="17.999951,0"
       id="guide4158" />
    <sodipodi:guide
       position="14.999993,15.000036"
       orientation="0,17.999998"
       id="guide4160" />
    <sodipodi:guide
       position="32.999991,15.000036"
       orientation="-17.999951,0"
       id="guide4162" />
    <sodipodi:guide
       position="32.999991,32.999986"
       orientation="0,-17.999998"
       id="guide4164" />
    <sodipodi:guide
       position="1.9999969,44.000046"
       orientation="39.999962,0"
       id="guide3279" />
    <sodipodi:guide
       position="1.9999969,4.0000839"
       orientation="0,44.000003"
       id="guide3281" />
    <sodipodi:guide
       position="46,4.0000839"
       orientation="-39.999962,0"
       id="guide3283" />
    <sodipodi:guide
       position="46,44.000046"
       orientation="0,-44.000003"
       id="guide3285" />
  </sodipodi:namedview>
  <metadata
     id="metadata7">
    <rdf:RDF>
      <cc:Work
         rdf:about="">
        <dc:format>image/svg+xml</dc:format>
        <dc:type
           rdf:resource="http://purl.org/dc/dcmitype/StillImage" />
        <dc:title />
      </cc:Work>
    </rdf:RDF>
  </metadata>
  <g
     inkscape:label="Capa 1"
     inkscape:groupmode="layer"
     id="layer1"
     transform="translate(38.119153,-397.84494)">
    <rect
       style="fill:#2c3e50;fill-opacity:1;stroke:none"
       id="rect4125"
       width="12.113338"
       height="12.113357"
       x="-37.275658"
       y="398.52985"
       ry="6.0566688" />
    <rect
       ry="0.34068757"
       y="401.86108"
       x="-30.026951"
       height="0.68137515"
       width="0.68137515"
       id="rect4266"
       style="fill:#e74c3c;fill-opacity:1;stroke:none" />
    <rect
       style="fill:#2ecc71;fill-opacity:1;stroke:none"
       id="rect4268"
       width="0.68137515"
       height="0.68137515"
       x="-29.174862"
       y="402.26346"
       ry="0.34068757" />
    <path
       style="fill:#f39c12;fill-opacity:1;fill-rule:evenodd;stroke:none"
       d="m -32.897278,402.8402 c -0.852821,0.74614 -1.611287,2.23316 -0.466053,3.51048 1.103948,1.2312 2.714135,0.98697 3.259283,0.68932 0.731457,-0.39941 0.720845,-1.20523 0.66913,-1.39953 -0.187156,-0.70308 -0.694842,-0.90054 -1.018736,-0.86017 -0.391952,0.0488 -1.149425,0.30954 -1.594996,-0.32169 -0.377417,-0.53467 -0.03733,-1.30667 0.344728,-1.57822 0.159057,-0.11296 0.15342,-0.35348 -0.04584,-0.47298 -0.397687,-0.12596 -0.922757,0.24065 -1.147508,0.43279 z"
       id="path6657-2"
       inkscape:connector-curvature="0"
       sodipodi:nodetypes="cccccsccc" />
    <path
       style="fill:#000000;fill-opacity:0;stroke:none"
       d="m -31.866293,402.36544 c -0.994112,0 -2.05343,1.54063 -2.078194,2.45961 0,1.37353 1.113476,2.48701 2.487019,2.48701 0.594673,-9.7e-4 1.169265,-0.21527 1.619598,-0.60366 0.0073,-0.005 0.01445,-0.0123 0.02156,-0.0187 0.250584,-0.20815 0.395698,-0.51691 0.396048,-0.84267 5.9e-5,-0.60583 -0.49101,-1.09703 -1.096854,-1.09712 -0.11485,4.6e-4 -0.228915,0.019 -0.338026,0.0548 l -0.0016,-0.003 c -0.1078,0.0372 -0.221023,0.0566 -0.335098,0.057 -0.571952,-3e-5 -1.035606,-0.46368 -1.035636,-1.03564 0.294241,-1.09812 0.657778,-0.75589 0.667801,-1.15141 0,-0.16935 -0.137278,-0.30662 -0.306619,-0.30662 z m 0.252055,3.48166 c -4e-6,0.0626 0.0054,0.12496 0.01598,0.18658 -0.01062,-0.0616 -0.01598,-0.12404 -0.01598,-0.18658 z m 0.31008,0.76442 c 0.05104,0.0526 0.107217,0.0998 0.167682,0.14107 0.09069,0.0621 0.190192,0.11016 0.295174,0.14266 0.06538,0.02 0.132473,0.0338 0.20042,0.0412 -0.06794,-0.008 -0.135045,-0.0212 -0.20042,-0.0412 -0.104985,-0.0325 -0.204484,-0.0807 -0.295174,-0.14266 -0.06047,-0.0413 -0.116637,-0.0885 -0.167682,-0.14107 z m 1.015941,0.30715 c -0.008,0.002 -0.01613,0.004 -0.02422,0.005 0.0082,-0.002 0.01617,-0.004 0.02422,-0.005 z m -0.09608,0.016 c -0.01415,0.002 -0.02835,0.004 -0.04259,0.005 0.01423,-9.7e-4 0.02842,-0.003 0.04259,-0.005 z"
       id="circle4229"
       inkscape:connector-curvature="0"
       sodipodi:nodetypes="ccccccccccccccccccccccccccccc" />
    <rect
       style="fill:#2980b9;fill-opacity:1;stroke:none"
       id="rect4270"
       width="0.68137515"
       height="0.68137515"
       x="-31.034166"
       y="401.91367"
       ry="0.34068757" />
  </g>
</svg>
