<?xml version="1.0" encoding="UTF-8" standalone="no"?>
<!-- Created with Inkscape (http://www.inkscape.org/) -->

<svg
   xmlns:dc="http://purl.org/dc/elements/1.1/"
   xmlns:cc="http://creativecommons.org/ns#"
   xmlns:rdf="http://www.w3.org/1999/02/22-rdf-syntax-ns#"
   xmlns:svg="http://www.w3.org/2000/svg"
   xmlns="http://www.w3.org/2000/svg"
   xmlns:xlink="http://www.w3.org/1999/xlink"
   xmlns:sodipodi="http://sodipodi.sourceforge.net/DTD/sodipodi-0.dtd"
   xmlns:inkscape="http://www.inkscape.org/namespaces/inkscape"
   version="1.0"
   width="22"
   height="22"
   id="svg3721"
   inkscape:version="0.48.4 r9939"
   sodipodi:docname="kcalc.svg">
  <metadata
     id="metadata57">
    <rdf:RDF>
      <cc:Work
         rdf:about="">
        <dc:format>image/svg+xml</dc:format>
        <dc:type
           rdf:resource="http://purl.org/dc/dcmitype/StillImage" />
        <dc:title />
      </cc:Work>
    </rdf:RDF>
  </metadata>
  <sodipodi:namedview
     pagecolor="#ffffff"
     bordercolor="#666666"
     borderopacity="1"
     objecttolerance="10"
     gridtolerance="10"
     guidetolerance="10"
     inkscape:pageopacity="0"
     inkscape:pageshadow="2"
     inkscape:window-width="1263"
     inkscape:window-height="803"
     id="namedview55"
     showgrid="false"
     inkscape:zoom="9.17058"
     inkscape:cx="18.498175"
     inkscape:cy="4.2786544"
     inkscape:window-x="25"
     inkscape:window-y="0"
     inkscape:window-maximized="0"
     inkscape:current-layer="layer1" />
  <defs
     id="defs3723">
    <linearGradient
       inkscape:collect="always"
       id="linearGradient3889">
      <stop
         style="stop-color:#0fde21;stop-opacity:1;"
         offset="0"
         id="stop3891" />
      <stop
         style="stop-color:#0fde21;stop-opacity:0;"
         offset="1"
         id="stop3893" />
    </linearGradient>
    <linearGradient
       inkscape:collect="always"
       id="linearGradient3881">
      <stop
         style="stop-color:#626262;stop-opacity:1;"
         offset="0"
         id="stop3883" />
      <stop
         style="stop-color:#626262;stop-opacity:0;"
         offset="1"
         id="stop3885" />
    </linearGradient>
    <linearGradient
       id="linearGradient3848">
      <stop
         style="stop-color:#ff6c6c;stop-opacity:0;"
         offset="0"
         id="stop3850" />
      <stop
         id="stop3879"
         offset="0.27694091"
         style="stop-color:#ff6c6c;stop-opacity:1;" />
      <stop
         id="stop3877"
         offset="0.73185498"
         style="stop-color:#ff6c6c;stop-opacity:1;" />
      <stop
         style="stop-color:#ff6c6c;stop-opacity:0;"
         offset="1"
         id="stop3852" />
    </linearGradient>
    <linearGradient
       inkscape:collect="always"
       id="linearGradient3818">
      <stop
         style="stop-color:#a46ffb;stop-opacity:1;"
         offset="0"
         id="stop3820" />
      <stop
         style="stop-color:#a46ffb;stop-opacity:0;"
         offset="1"
         id="stop3822" />
    </linearGradient>
    <linearGradient
       inkscape:collect="always"
       id="linearGradient3805">
      <stop
         style="stop-color:#a46ffb;stop-opacity:1;"
         offset="0"
         id="stop3807" />
      <stop
         style="stop-color:#a46ffb;stop-opacity:0;"
         offset="1"
         id="stop3809" />
    </linearGradient>
    <linearGradient
       id="linearGradient3817">
      <stop
         style="stop-color:#333333;stop-opacity:1;"
         offset="0"
         id="stop3819" />
      <stop
         style="stop-color:#434343;stop-opacity:1;"
         offset="1"
         id="stop3821" />
    </linearGradient>
    <linearGradient
       id="linearGradient2556">
      <stop
         id="stop2558"
         style="stop-color:#f5f5f5;stop-opacity:1;"
         offset="0" />
      <stop
         offset="0.5"
         style="stop-color:#d7d7d7;stop-opacity:1;"
         id="stop3815" />
      <stop
         id="stop2564"
         style="stop-color:#828282;stop-opacity:1;"
         offset="1" />
    </linearGradient>
    <linearGradient
       x1="22.505953"
       y1="7.5892501"
       x2="22.505953"
       y2="62.539955"
       id="linearGradient3527"
       xlink:href="#linearGradient2556"
       gradientUnits="userSpaceOnUse"
       gradientTransform="matrix(0.4816902,0,0,0.48239874,-1.4865439,-0.09064765)" />
    <linearGradient
       inkscape:collect="always"
       xlink:href="#linearGradient3817"
       id="linearGradient3823"
       x1="12.02167"
       y1="21.005844"
       x2="12.02167"
       y2="1.7039149"
       gradientUnits="userSpaceOnUse"
       gradientTransform="matrix(0.89619332,0,0,0.91320422,0.48044691,2.4115107)" />
    <linearGradient
       inkscape:collect="always"
       xlink:href="#linearGradient3805"
       id="linearGradient3812"
       x1="8.5044107"
       y1="12.186817"
       x2="8.5044107"
       y2="9.5035038"
       gradientUnits="userSpaceOnUse"
       gradientTransform="matrix(0.90562118,0,0,0.90562118,0.32963472,2.4219011)" />
    <linearGradient
       inkscape:collect="always"
       xlink:href="#linearGradient3818"
       id="linearGradient3824"
       x1="8.570857"
       y1="15.945212"
       x2="8.570857"
       y2="18.720003"
       gradientUnits="userSpaceOnUse"
       gradientTransform="matrix(0.90562118,0,0,0.90562118,0.32963472,2.4219011)" />
    <linearGradient
       inkscape:collect="always"
       xlink:href="#linearGradient3848"
       id="linearGradient3840"
       x1="14.246271"
       y1="18.632824"
       x2="14.246271"
       y2="9.5258675"
       gradientUnits="userSpaceOnUse"
       gradientTransform="matrix(0.90562118,0,0,0.90562118,0.32963473,2.4219011)" />
    <linearGradient
       inkscape:collect="always"
       xlink:href="#linearGradient3881"
       id="linearGradient3887"
       x1="17.72191"
       y1="12.023978"
       x2="17.72191"
       y2="9.7544746"
       gradientUnits="userSpaceOnUse"
       gradientTransform="matrix(0.90562118,0,0,0.90562118,0.32963472,2.4219011)" />
    <linearGradient
       inkscape:collect="always"
       xlink:href="#linearGradient3889"
       id="linearGradient3895"
       x1="17.702984"
       y1="16.144165"
       x2="17.702984"
       y2="18.518414"
       gradientUnits="userSpaceOnUse"
       gradientTransform="matrix(0.90562118,0,0,0.90562118,0.32963472,2.4219011)" />
  </defs>
  <g
     id="layer1"
     transform="matrix(1.2631577,0,0,1,-3.1578943,-2)">
    <rect
       width="15.413472"
       height="17.587948"
       rx="0.93973756"
       ry="0.86300367"
       x="3.5718155"
       y="3.788193"
       id="rect2157"
       style="fill:url(#linearGradient3527);fill-opacity:1;fill-rule:nonzero;stroke:url(#linearGradient3823);stroke-width:0.17788868;stroke-linecap:round;stroke-linejoin:miter;stroke-miterlimit:6;stroke-opacity:1;stroke-dasharray:none;stroke-dashoffset:1.4;marker:none;visibility:visible;display:inline;overflow:visible" />
    <rect
       width="13.43824"
       height="3.6671181"
       rx="0.4799071"
       ry="0.31823915"
       x="4.4705915"
       y="5.2710795"
       id="rect2662"
       style="fill:#ffffff;fill-opacity:1;fill-rule:nonzero;stroke:#3a3a3a;stroke-width:0.1629802;stroke-miterlimit:4;stroke-opacity:1;stroke-dasharray:none;marker:none;visibility:visible;display:inline;overflow:visible" />
    <path
       d="m 9.841997,11.296346 1.033115,0 c 0.218357,0 0.394147,0.255803 0.394147,0.573549 l 0,0.985514 c 0,0.317746 -0.17579,0.573549 -0.394147,0.573549 l -1.033115,0 c -0.2183842,0 -0.3941734,-0.255803 -0.3941734,-0.573549 l 0,-0.985514 c 0,-0.317746 0.1757892,-0.573549 0.3941462,-0.573549 z m -2.2968606,0 1.0285356,0 c 0.2196251,0 0.3964354,0.255677 0.3964354,0.573266 l 0,0.98608 c 0,0.317588 -0.1768103,0.573265 -0.3964354,0.573265 l -1.0285356,0 c -0.219625,0 -0.3964354,-0.255677 -0.3964354,-0.573265 l 0,-0.98608 c 0,-0.317589 0.1768104,-0.573266 0.3964354,-0.573266 z m -2.315159,0 1.0585642,0 c 0.2113071,0 0.3814209,0.252963 0.3814209,0.567182 l 0,0.998248 c 0,0.314219 -0.1701138,0.567181 -0.3814209,0.567181 l -1.0585642,0 c -0.2113072,0 -0.3814211,-0.252962 -0.3814211,-0.567181 l 0,-0.998248 c 0,-0.314219 0.1701139,-0.567182 0.3814211,-0.567182 z"
       id="rect4008-6-8"
       style="fill:url(#linearGradient3812);fill-opacity:1;fill-rule:nonzero;stroke:#ffffff;stroke-width:0;stroke-miterlimit:5.14285707;stroke-opacity:1;stroke-dasharray:none;marker:none;visibility:visible;display:inline;overflow:visible;enable-background:accumulate"
       inkscape:connector-curvature="0"
       sodipodi:nodetypes="csssssssscssssssssssssssssss" />
    <path
       d="m 9.900098,14.180523 1.045352,0 c 0.220942,0 0.398813,0.241361 0.398813,0.541169 l 0,0.929876 c 0,0.299808 -0.177871,0.541168 -0.398813,0.541168 l -1.045352,0 c -0.2209688,0 -0.3988401,-0.24136 -0.3988401,-0.541168 l 0,-0.929876 c 0,-0.299808 0.1778713,-0.541169 0.3988139,-0.541169 z m -2.324107,0 1.0407161,0 c 0.222226,0 0.4011302,0.241242 0.4011302,0.540901 l 0,0.930409 c 0,0.29966 -0.1789042,0.540902 -0.4011302,0.540902 l -1.0407161,0 c -0.222226,0 -0.4011302,-0.241242 -0.4011302,-0.540902 l 0,-0.930409 c 0,-0.299659 0.1789042,-0.540901 0.4011302,-0.540901 z m -2.3425765,0 1.0711003,0 c 0.2138096,0 0.385938,0.238682 0.385938,0.53516 l 0,0.941892 c 0,0.296479 -0.1721284,0.53516 -0.385938,0.53516 l -1.0711003,0 c -0.2138097,0 -0.3859381,-0.238681 -0.3859381,-0.53516 l 0,-0.941892 c 0,-0.296478 0.1721284,-0.53516 0.3859381,-0.53516 z"
       id="rect4008-6-8-0"
       style="fill:#a46ffb;fill-opacity:0.7323232;fill-rule:nonzero;stroke:#ffffff;stroke-width:0;stroke-miterlimit:5.14285707;stroke-opacity:1;stroke-dasharray:none;marker:none;visibility:visible;display:inline;overflow:visible;enable-background:accumulate"
       inkscape:connector-curvature="0"
       sodipodi:nodetypes="csssssssscssssssssssssssssss" />
    <path
       d="m 9.9033356,16.917082 1.0458254,0 c 0.221042,0 0.398994,0.251258 0.398994,0.563361 l 0,0.968009 c 0,0.312103 -0.177952,0.563361 -0.398994,0.563361 l -1.0458254,0 c -0.2210703,0 -0.3990221,-0.251258 -0.3990221,-0.563361 l 0,-0.968009 c 0,-0.312103 0.1779518,-0.563361 0.398995,-0.563361 z m -2.3251622,0 1.0411878,0 c 0.2223268,0 0.4013119,0.251135 0.4013119,0.563084 l 0,0.968562 c 0,0.311949 -0.1789851,0.563085 -0.4013119,0.563085 l -1.0411878,0 c -0.2223267,0 -0.4013121,-0.251136 -0.4013121,-0.563085 l 0,-0.968562 c 0,-0.311949 0.1789854,-0.563084 0.4013121,-0.563084 z m -2.3436381,0 1.0715857,0 c 0.2139064,0 0.3861129,0.248469 0.3861129,0.557106 l 0,0.980517 c 0,0.308637 -0.1722065,0.557108 -0.3861129,0.557108 l -1.0715857,0 c -0.2139066,0 -0.386113,-0.248471 -0.386113,-0.557108 l 0,-0.980517 c 0,-0.308637 0.1722064,-0.557106 0.386113,-0.557106 z"
       id="rect4008-6-8-00"
       style="fill:url(#linearGradient3824);fill-opacity:1;fill-rule:nonzero;stroke:#ffffff;stroke-width:0;stroke-miterlimit:5.14285707;stroke-opacity:1;stroke-dasharray:none;marker:none;visibility:visible;display:inline;overflow:visible;enable-background:accumulate"
       inkscape:connector-curvature="0"
       sodipodi:nodetypes="csssssssscssssssssssssssssss" />
    <path
       d="m 12.818565,16.991697 1.039824,0 c 0.219691,0 0.396551,0.243509 0.396551,0.545987 l 0,0.928444 c 0,0.302477 -0.17686,0.545989 -0.396551,0.545989 l -1.039824,0 c -0.21969,0 -0.396551,-0.243512 -0.396551,-0.545989 l 0,-0.928444 c 0,-0.302478 0.176861,-0.545987 0.396551,-0.545987 z m 8.8e-5,-2.830843 1.03965,0 c 0.219735,0 0.396637,0.242347 0.396637,0.543377 l 0,0.933666 c 0,0.301031 -0.176902,0.543377 -0.396637,0.543377 l -1.03965,0 c -0.219739,0 -0.396639,-0.242346 -0.396639,-0.543377 l 0,-0.933666 c 0,-0.30103 0.1769,-0.543377 0.396639,-0.543377 z m 0,-2.851906 1.039652,0 c 0.219738,0 0.396638,0.242347 0.396638,0.543378 l 0,0.933669 c 0,0.301029 -0.1769,0.543376 -0.396638,0.543376 l -1.039652,0 c -0.219739,0 -0.396639,-0.242347 -0.396639,-0.543376 l 0,-0.933669 c 0,-0.301031 0.1769,-0.543378 0.396639,-0.543378 z"
       id="rect4008"
       style="fill:url(#linearGradient3840);fill-opacity:1;fill-rule:nonzero;stroke:none;stroke-width:0;marker:none;visibility:visible;display:inline;overflow:visible;enable-background:accumulate"
       inkscape:connector-curvature="0"
       sodipodi:nodetypes="sssssssssssssssssssssssssss" />
    <path
       d="m 15.699954,11.306459 1.238702,0 c 0.176043,0 0.317768,0.247179 0.317768,0.554217 l 0,0.925728 c 0,0.30704 -0.141725,0.554221 -0.317768,0.554221 l -1.238702,0 c -0.176043,0 -0.317768,-0.247181 -0.317768,-0.554221 l 0,-0.925728 c 0,-0.307038 0.141725,-0.554217 0.317768,-0.554217 z"
       id="rect4008-6"
       style="fill:url(#linearGradient3887);fill-opacity:1;fill-rule:nonzero;stroke:#ffffff;stroke-width:0;stroke-miterlimit:5.14285707;stroke-opacity:1;stroke-dasharray:none;marker:none;visibility:visible;display:inline;overflow:visible;enable-background:accumulate"
       inkscape:connector-curvature="0"
       sodipodi:nodetypes="sssssssss" />
    <path
       d="m 15.788729,14.187035 1.084189,0 c 0.216424,0 0.390656,0.226799 0.390656,0.508518 l 0,0.894998 c 0,0.281718 -0.174232,0.508519 -0.390656,0.508519 l -1.084189,0 c -0.216423,0 -0.390656,-0.226801 -0.390656,-0.508519 l 0,-0.894998 c 0,-0.281719 0.174233,-0.508518 0.390656,-0.508518 z"
       id="rect4008-9"
       style="fill:#6472ff;fill-opacity:0.67171715;fill-rule:nonzero;stroke:#ffffff;stroke-width:0;stroke-miterlimit:5.14285707;stroke-opacity:1;stroke-dasharray:none;marker:none;visibility:visible;display:inline;overflow:visible;enable-background:accumulate"
       inkscape:connector-curvature="0"
       sodipodi:nodetypes="sssssssss" />
    <path
       d="m 15.777683,16.966983 1.124533,0 c 0.206944,0 0.373546,0.234595 0.373546,0.525997 l 0,0.925765 c 0,0.291403 -0.166602,0.525998 -0.373546,0.525998 l -1.124533,0 c -0.206947,0 -0.373547,-0.234595 -0.373547,-0.525998 l 0,-0.925765 c 0,-0.291402 0.1666,-0.525997 0.373547,-0.525997 z"
       id="rect4008-7"
       style="fill:url(#linearGradient3895);fill-opacity:1;fill-rule:nonzero;stroke:#ffffff;stroke-width:0;stroke-miterlimit:5.14285707;stroke-opacity:1;stroke-dasharray:none;marker:none;visibility:visible;display:inline;overflow:visible;enable-background:accumulate"
       inkscape:connector-curvature="0"
       sodipodi:nodetypes="sssssssss" />
  </g>
</svg>
