<?xml version="1.0" encoding="UTF-8" standalone="no"?>
<!-- Created with Inkscape (http://www.inkscape.org/) -->

<svg
   xmlns:dc="http://purl.org/dc/elements/1.1/"
   xmlns:cc="http://creativecommons.org/ns#"
   xmlns:rdf="http://www.w3.org/1999/02/22-rdf-syntax-ns#"
   xmlns:svg="http://www.w3.org/2000/svg"
   xmlns="http://www.w3.org/2000/svg"
   xmlns:xlink="http://www.w3.org/1999/xlink"
   xmlns:sodipodi="http://sodipodi.sourceforge.net/DTD/sodipodi-0.dtd"
   xmlns:inkscape="http://www.inkscape.org/namespaces/inkscape"
   version="1.0"
   width="128"
   height="128"
   id="svg3518"
   inkscape:version="0.48.4 r9939"
   sodipodi:docname="applications-office.svg">
  <metadata
     id="metadata60">
    <rdf:RDF>
      <cc:Work
         rdf:about="">
        <dc:format>image/svg+xml</dc:format>
        <dc:type
           rdf:resource="http://purl.org/dc/dcmitype/StillImage" />
        <dc:title />
      </cc:Work>
    </rdf:RDF>
  </metadata>
  <sodipodi:namedview
     pagecolor="#ffffff"
     bordercolor="#666666"
     borderopacity="1"
     objecttolerance="10"
     gridtolerance="10"
     guidetolerance="10"
     inkscape:pageopacity="0"
     inkscape:pageshadow="2"
     inkscape:window-width="1440"
     inkscape:window-height="854"
     id="namedview58"
     showgrid="false"
     inkscape:zoom="1.3976408"
     inkscape:cx="32.024914"
     inkscape:cy="126.24678"
     inkscape:window-x="0"
     inkscape:window-y="0"
     inkscape:window-maximized="1"
     inkscape:current-layer="svg3518" />
  <defs
     id="defs3520">
    <linearGradient
       id="linearGradient3600">
      <stop
         id="stop3602"
         style="stop-color:#f4f4f4;stop-opacity:1"
         offset="0" />
      <stop
         id="stop3604"
         style="stop-color:#dbdbdb;stop-opacity:1"
         offset="1" />
    </linearGradient>
    <linearGradient
       id="linearGradient3104">
      <stop
         id="stop3106"
         style="stop-color:#aaaaaa;stop-opacity:1"
         offset="0" />
      <stop
         id="stop3108"
         style="stop-color:#c8c8c8;stop-opacity:1"
         offset="1" />
    </linearGradient>
    <linearGradient
       id="linearGradient3522">
      <stop
         id="stop3524"
         style="stop-color:#a3c0d0;stop-opacity:1"
         offset="0" />
      <stop
         id="stop3526"
         style="stop-color:#5a8caa;stop-opacity:1"
         offset="1" />
    </linearGradient>
    <linearGradient
       id="linearGradient6691">
      <stop
         id="stop6693"
         style="stop-color:#517492;stop-opacity:1"
         offset="0" />
      <stop
         id="stop6695"
         style="stop-color:#85a2bb;stop-opacity:1"
         offset="1" />
    </linearGradient>
    <linearGradient
       id="linearGradient8589-4">
      <stop
         id="stop8591-4"
         style="stop-color:#fefefe;stop-opacity:1"
         offset="0" />
      <stop
         id="stop8593-4"
         style="stop-color:#cbcbcb;stop-opacity:1"
         offset="1" />
    </linearGradient>
    <linearGradient
       inkscape:collect="always"
       xlink:href="#linearGradient8589-4"
       id="linearGradient4738"
       gradientUnits="userSpaceOnUse"
       gradientTransform="matrix(1.4491304,0,0,1.6754757,-7.6028516,-43.675998)"
       x1="32.892288"
       y1="8.0590115"
       x2="36.358372"
       y2="5.4565363" />
    <linearGradient
       x1="23.575972"
       y1="25.356892"
       x2="23.575972"
       y2="31.210939"
       id="linearGradient2888"
       xlink:href="#linearGradient3155"
       gradientUnits="userSpaceOnUse"
       gradientTransform="matrix(1.1539441,-1.1591317,1.184149,1.1777273,-33.697633,16.0896)"
       spreadMethod="pad" />
    <linearGradient
       id="linearGradient3155">
      <stop
         id="stop3157"
         style="stop-color:#000000;stop-opacity:1"
         offset="0" />
      <stop
         id="stop3171"
         style="stop-color:#c3c3c3;stop-opacity:1"
         offset="0.13482948" />
      <stop
         id="stop3173"
         style="stop-color:#8c8c8c;stop-opacity:1"
         offset="0.20224422" />
      <stop
         id="stop3163"
         style="stop-color:#ffffff;stop-opacity:1"
         offset="0.26965895" />
      <stop
         id="stop3165"
         style="stop-color:#757575;stop-opacity:1"
         offset="0.44650277" />
      <stop
         id="stop3167"
         style="stop-color:#7d7d7d;stop-opacity:1"
         offset="0.57114136" />
      <stop
         id="stop3169"
         style="stop-color:#b6b6b6;stop-opacity:1"
         offset="0.72038066" />
      <stop
         id="stop3159"
         style="stop-color:#000000;stop-opacity:1"
         offset="1" />
    </linearGradient>
    <linearGradient
       x1="30.037716"
       y1="24.989594"
       x2="30.037716"
       y2="30.000141"
       id="linearGradient2883"
       xlink:href="#linearGradient3240"
       gradientUnits="userSpaceOnUse"
       gradientTransform="matrix(1.1213238,-1.1263648,1.3858308,1.3783152,-37.505121,10.577602)" />
    <linearGradient
       id="linearGradient3240">
      <stop
         id="stop3242"
         style="stop-color:#3e3e3e;stop-opacity:1"
         offset="0" />
      <stop
         id="stop3244"
         style="stop-color:#828282;stop-opacity:1"
         offset="0.5" />
      <stop
         id="stop3246"
         style="stop-color:#3c3c3c;stop-opacity:1"
         offset="1" />
    </linearGradient>
    <linearGradient
       x1="30.037716"
       y1="24.989594"
       x2="30.037716"
       y2="30.000141"
       id="linearGradient2880"
       xlink:href="#linearGradient3223"
       gradientUnits="userSpaceOnUse"
       gradientTransform="matrix(1.1213238,-1.1263648,1.3858308,1.3783152,-37.826253,10.900177)" />
    <linearGradient
       id="linearGradient3223">
      <stop
         id="stop3225"
         style="stop-color:#999999;stop-opacity:1"
         offset="0" />
      <stop
         id="stop3231"
         style="stop-color:#ffffff;stop-opacity:1"
         offset="0.5" />
      <stop
         id="stop3227"
         style="stop-color:#777777;stop-opacity:1"
         offset="1" />
    </linearGradient>
    <linearGradient
       x1="30.037716"
       y1="24.989594"
       x2="30.037716"
       y2="30.000141"
       id="linearGradient2877-0"
       xlink:href="#linearGradient3240"
       gradientUnits="userSpaceOnUse"
       gradientTransform="matrix(1.1213238,-1.1263648,1.3858308,1.3783152,-36.389192,9.4566539)" />
    <linearGradient
       x1="30.037716"
       y1="24.989594"
       x2="30.037716"
       y2="30.000141"
       id="linearGradient2874-3"
       xlink:href="#linearGradient3223"
       gradientUnits="userSpaceOnUse"
       gradientTransform="matrix(1.1213238,-1.1263648,1.3858308,1.3783152,-36.710324,9.7792299)" />
    <linearGradient
       x1="30.037716"
       y1="24.989594"
       x2="30.037716"
       y2="30.000141"
       id="linearGradient2871-0"
       xlink:href="#linearGradient3240"
       gradientUnits="userSpaceOnUse"
       gradientTransform="matrix(1.1213238,-1.1263648,1.3858308,1.3783152,-35.267868,8.3302899)" />
    <linearGradient
       x1="30.037716"
       y1="24.989594"
       x2="30.037716"
       y2="30.000141"
       id="linearGradient2868"
       xlink:href="#linearGradient3223"
       gradientUnits="userSpaceOnUse"
       gradientTransform="matrix(1.1213238,-1.1263648,1.3858308,1.3783152,-35.589001,8.6528649)" />
    <linearGradient
       x1="9"
       y1="29.056757"
       x2="9"
       y2="26.02973"
       id="linearGradient2863"
       xlink:href="#linearGradient3290"
       gradientUnits="userSpaceOnUse"
       gradientTransform="matrix(1.1213238,-1.1263648,1.3858308,1.3783152,-37.931012,11.005406)" />
    <linearGradient
       id="linearGradient3290">
      <stop
         id="stop3292"
         style="stop-color:#e4db7b;stop-opacity:1"
         offset="0" />
      <stop
         id="stop3294"
         style="stop-color:#f4f0c8;stop-opacity:1"
         offset="1" />
    </linearGradient>
    <linearGradient
       x1="5.5178981"
       y1="37.371799"
       x2="9.5220556"
       y2="41.391716"
       id="linearGradient2865"
       xlink:href="#linearGradient3191"
       gradientUnits="userSpaceOnUse"
       gradientTransform="matrix(0.9421616,0,0,0.9409994,1.4257538,3.2093269)" />
    <linearGradient
       id="linearGradient3191">
      <stop
         id="stop3193"
         style="stop-color:#cbbd27;stop-opacity:1"
         offset="0" />
      <stop
         id="stop3195"
         style="stop-color:#9b901d;stop-opacity:1"
         offset="1" />
    </linearGradient>
    <linearGradient
       id="linearGradient3522-4-0-5-2">
      <stop
         id="stop3524-2-7-3-9"
         style="stop-color:#a3c0d0;stop-opacity:1"
         offset="0" />
      <stop
         id="stop3526-2-4-9-5"
         style="stop-color:#5a8caa;stop-opacity:1"
         offset="1" />
    </linearGradient>
    <linearGradient
       inkscape:collect="always"
       xlink:href="#linearGradient3522"
       id="linearGradient4345"
       gradientUnits="userSpaceOnUse"
       gradientTransform="matrix(0.3595065,0,0,0.5017146,17.959088,1.4722935)"
       x1="-22.539846"
       y1="11.109024"
       x2="-22.539846"
       y2="46.263954" />
    <linearGradient
       inkscape:collect="always"
       xlink:href="#linearGradient6691"
       id="linearGradient4347"
       gradientUnits="userSpaceOnUse"
       gradientTransform="matrix(0.40973748,0,0,0.4883909,-0.14529594,1.7786185)"
       x1="9.4919996"
       y1="46.314064"
       x2="9.4919996"
       y2="1.7164899" />
    <linearGradient
       inkscape:collect="always"
       xlink:href="#linearGradient3600"
       id="linearGradient4349"
       gradientUnits="userSpaceOnUse"
       gradientTransform="matrix(0.4857154,0,0,0.4780255,-0.65717039,1.2940499)"
       x1="25.132275"
       y1="0.98520643"
       x2="25.132275"
       y2="47.013336" />
    <linearGradient
       inkscape:collect="always"
       xlink:href="#linearGradient3104"
       id="linearGradient4351"
       gradientUnits="userSpaceOnUse"
       gradientTransform="matrix(0.3922135,0,0,0.4473607,28.199292,0.7613003)"
       x1="-51.786404"
       y1="50.786446"
       x2="-51.786404"
       y2="2.9062471" />
    <linearGradient
       inkscape:collect="always"
       xlink:href="#linearGradient8589-4"
       id="linearGradient4353"
       gradientUnits="userSpaceOnUse"
       gradientTransform="matrix(0.4778466,0,0,0.5524833,-0.62774609,1.9238717)"
       x1="32.892288"
       y1="8.0590115"
       x2="36.358372"
       y2="5.4565363" />
    <linearGradient
       inkscape:collect="always"
       xlink:href="#linearGradient3522-4-0-5-2"
       id="linearGradient4408"
       gradientUnits="userSpaceOnUse"
       gradientTransform="matrix(0.5348003,0,0,0.49799126,-0.78495489,1.4351905)"
       x1="19.51465"
       y1="12.442631"
       x2="19.51465"
       y2="46.562195" />
    <linearGradient
       inkscape:collect="always"
       xlink:href="#linearGradient3522-4-0-5-2"
       id="linearGradient4410"
       gradientUnits="userSpaceOnUse"
       gradientTransform="matrix(0.4957313,0,0,0.77067019,-0.84724189,-1.0527909)"
       x1="19.51465"
       y1="12.442631"
       x2="19.51465"
       y2="46.562195" />
  </defs>
  <g
     transform="matrix(5.7845812,0,0,5.7846064,-11.569157,-10.830323)"
     id="layer1-7">
    <path
       inkscape:connector-curvature="0"
       d="m 2.4999608,2.499961 c 3.8955799,0 7.6044552,0 11.5000382,0 0.683368,0.2372969 4.541325,3.12817 5.5,5.000039 0,5.729157 3.9e-5,10.270842 3.9e-5,16 l -17.0000772,0 c 0,-7.33336 0,-13.6666811 0,-21.000039 z"
       id="path4160-6"
       style="fill:url(#linearGradient4349);fill-opacity:1;stroke:url(#linearGradient4351);stroke-width:0.51861896;stroke-linecap:butt;stroke-linejoin:round;stroke-miterlimit:4;stroke-opacity:1;stroke-dasharray:none;stroke-dashoffset:0;display:inline" />
    <path
       inkscape:connector-curvature="0"
       d="m 4.2745472,23.505 c -0.7890498,0 -0.8740416,0 -1.6630951,0 -0.1917855,-0.260377 -0.045949,-0.787387 -0.091517,-1.156 0,-6.906001 0,-12.8117945 0,-19.7177935 l 0.026747,-0.089429 0.06477,-0.036927 0,0 c 0.8212406,0 0.8418589,0 1.6630958,0"
       id="path4530"
       style="fill:url(#linearGradient4345);fill-opacity:1;fill-rule:nonzero;stroke:url(#linearGradient4347);stroke-width:0.51861896;stroke-linecap:butt;stroke-linejoin:round;stroke-miterlimit:4;stroke-opacity:1;stroke-dasharray:none;stroke-dashoffset:0;marker:none;visibility:visible;display:block;overflow:visible" />
    <path
       inkscape:connector-curvature="0"
       d="m 13.228531,2.8141449 c 1.156303,0.3287671 0.339059,4.6143789 0.339059,4.6143789 0,0 4.515388,-0.4277362 5.60771,1.1949961 1.489153,2.2122571 -0.06822,-0.6351721 -0.173447,-0.8216972 -0.755928,-1.3400455 -3.86634,-4.547086 -5.045409,-4.9412075 -0.08823,-0.029492 -0.283876,-0.04647 -0.727913,-0.04647 z"
       id="path3370"
       style="opacity:0.2;fill:#000000;fill-opacity:1;fill-rule:evenodd;stroke:none;display:inline" />
    <path
       inkscape:connector-curvature="0"
       d="m 12.999999,3 c 1.526166,0 1,4 1,4 0,0 4.992074,-0.45326 4.992074,2 0,-0.5977419 0.05575,-1.4784338 -0.06407,-1.6559326 C 18.088896,6.1010616 15.184238,3.4821803 14.129934,3.0464703 14.043956,3.0109384 13.444036,3 12.999999,3 z"
       id="path4474-1"
       style="fill:url(#linearGradient4353);fill-opacity:1;fill-rule:evenodd;stroke:none;display:inline" />
  </g>
  <g
     id="g4393">
    <g
       style="display:inline"
       id="layer1-6"
       transform="matrix(9.3281753,0,0,11.344488,-31.30277,-44.120684)">
      <path
         sodipodi:nodetypes="ccccc"
         style="fill:url(#linearGradient4408);fill-opacity:1;stroke:none;display:inline"
         id="path6928"
         d="m 5.5599991,7.7355727 3.082803,0 0,6.4249263 -3.082803,-0.05305 z"
         inkscape:connector-curvature="0" />
      <path
         sodipodi:nodetypes="ccccc"
         style="fill:url(#linearGradient4410);fill-opacity:1;stroke:none;display:inline"
         id="rect3664"
         d="m 7.9999991,5.5845937 4.5568609,0 0,2.879312 -4.5568609,0 z"
         inkscape:connector-curvature="0" />
      <rect
         style="fill:#c0d4df;fill-opacity:1;stroke:none;display:inline"
         id="rect3775"
         y="5.5794039"
         x="5.5050626"
         height="4.3885822"
         width="2.9174068" />
      <path
         sodipodi:nodetypes="cc"
         style="fill:none;stroke:#6c6c6c;stroke-width:0.18925697;stroke-linecap:butt;stroke-linejoin:miter;stroke-miterlimit:4;stroke-opacity:1;stroke-dasharray:none;display:inline"
         id="path3605"
         d="m 12.585235,8.5226168 -7.1132315,0"
         inkscape:connector-curvature="0" />
      <path
         sodipodi:nodetypes="cc"
         style="fill:none;stroke:#2c465d;stroke-width:1.771016;stroke-linecap:butt;stroke-linejoin:miter;stroke-miterlimit:4;stroke-opacity:0.32417585;stroke-dasharray:none;display:inline"
         id="path3597"
         d="m 12.350964,10.860233 -6.8036578,0"
         inkscape:connector-curvature="0" />
      <path
         sodipodi:nodetypes="cc"
         style="opacity:0.2;fill:#ffffff;fill-rule:evenodd;stroke:#ffffff;stroke-width:1.65558887;stroke-linecap:square;stroke-linejoin:round;stroke-miterlimit:4;stroke-opacity:1;stroke-dasharray:none;display:inline"
         id="path4743"
         d="M 6.5855474,6.2828154 11.475042,6.2098726"
         inkscape:connector-curvature="0" />
      <path
         sodipodi:nodetypes="cc"
         style="fill:none;stroke:#6c6c6c;stroke-width:0.1749773;stroke-linecap:butt;stroke-linejoin:miter;stroke-miterlimit:4;stroke-opacity:1;stroke-dasharray:none;display:inline"
         id="path3593"
         d="m 7.0898466,5.5693946 0,8.5854754"
         inkscape:connector-curvature="0" />
      <rect
         style="fill:none;stroke:#6c6c6c;stroke-width:0.18925697;stroke-linecap:square;stroke-linejoin:miter;stroke-miterlimit:4;stroke-opacity:1;stroke-dasharray:none;stroke-dashoffset:0;display:inline"
         id="rect3580"
         y="5.50108"
         x="5.5010796"
         height="8.6077347"
         width="6.924962" />
    </g>
    <path
       sodipodi:nodetypes="cc"
       style="fill:none;stroke:#6c6c6c;stroke-width:1.79999995;stroke-linecap:butt;stroke-linejoin:miter;stroke-miterlimit:4;stroke-opacity:1;stroke-dasharray:none;display:inline"
       id="path3605-0"
       d="m 82.241915,69.26949 -61.347028,0"
       inkscape:connector-curvature="0" />
    <path
       sodipodi:nodetypes="cc"
       style="fill:none;stroke:#6c6c6c;stroke-width:1.79999995;stroke-linecap:butt;stroke-linejoin:miter;stroke-miterlimit:4;stroke-opacity:1;stroke-dasharray:none;display:inline"
       id="path3605-0-0"
       d="m 84.581549,35.528762 -63.87667,0"
       inkscape:connector-curvature="0" />
    <path
       sodipodi:nodetypes="cc"
       style="fill:none;stroke:#6c6c6c;stroke-width:1.79999995;stroke-linecap:butt;stroke-linejoin:miter;stroke-miterlimit:4;stroke-opacity:1;stroke-dasharray:none;display:inline"
       id="path3605-0-1"
       d="m 84.645077,88.223463 -63.75019,0"
       inkscape:connector-curvature="0" />
    <path
       sodipodi:nodetypes="cc"
       style="fill:none;stroke:#6c6c6c;stroke-width:1.79999995;stroke-linecap:butt;stroke-linejoin:miter;stroke-miterlimit:4;stroke-opacity:1;stroke-dasharray:none;display:inline"
       id="path3605-0-0-7"
       d="m 84.028403,102.30699 -63.117779,0"
       inkscape:connector-curvature="0" />
    <path
       sodipodi:nodetypes="cc"
       style="fill:none;stroke:#6c6c6c;stroke-width:1.80000007;stroke-linecap:butt;stroke-linejoin:miter;stroke-miterlimit:4;stroke-opacity:1;stroke-dasharray:none;display:inline"
       id="path3593-0"
       d="m 48.56917,18.84259 0,97.39782"
       inkscape:connector-curvature="0" />
    <path
       style="fill:#6c6c6c;fill-opacity:1;stroke:#6c6c6c;stroke-width:1.8;stroke-linecap:butt;stroke-linejoin:miter;stroke-opacity:1;stroke-miterlimit:4;stroke-dasharray:none"
       d="m 67.288537,52.616601 c 0,15.43083 0,-17.70751 0,-17.70751 z"
       id="path4430"
       inkscape:connector-curvature="0"
       sodipodi:nodetypes="ccc" />
  </g>
  <g
     id="g3209"
     transform="matrix(1.9074491,0,0,1.9074574,0.61792826,82.193083)">
    <path
       style="opacity:0.2;fill:#000000;fill-opacity:1;fill-rule:evenodd;stroke:none;display:inline"
       id="path3217"
       d="m 33.661687,-40.303613 c 3.506634,0.997028 1.028238,13.993689 1.028238,13.993689 0,0 13.693488,-1.297165 17.006091,3.623977 4.516046,6.70895 -0.206876,-1.92624 -0.525999,-2.491901 -2.292449,-4.063858 -11.725167,-13.789616 -15.300843,-14.984838 -0.267569,-0.08944 -0.860889,-0.140925 -2.207487,-0.140925 z"
       inkscape:connector-curvature="0" />
    <path
       style="fill:url(#linearGradient4738);fill-opacity:1;fill-rule:evenodd;stroke:none;display:inline"
       id="path3219"
       d="m 33.725019,-40.412502 c 4.628292,0 3.032625,12.130507 3.032625,12.130507 0,0 15.139098,-1.374569 15.139098,6.065253 0,-1.812728 0.169066,-4.483538 -0.194301,-5.021825 C 49.15774,-31.00814 40.348998,-38.95023 37.151688,-40.271575 36.890943,-40.379335 35.071615,-40.4125 33.725017,-40.4125 z"
       inkscape:connector-curvature="0" />
    <g
       transform="matrix(1.3815492,-0.15819021,0.15819021,1.3815492,2.8593989,-39.53072)"
       id="g2989">
      <path
         inkscape:connector-curvature="0"
         d="m 9.1977519,33.010751 c 0.7754721,-0.596074 2.8374231,0.370275 4.6910251,2.213826 1.84917,1.839138 2.778451,3.852407 2.194822,4.634678 -0.0022,0.003 0.04557,0.04013 0.04331,0.04308 L 44.265129,11.637611 C 44.979533,10.919994 44.009525,8.7915379 42.097079,6.8894633 40.184633,4.987388 38.050381,4.0284123 37.33597,4.7460346 L 9.1977519,33.010751 z"
         id="rect2383-7"
         style="fill:url(#linearGradient2888);fill-opacity:1;stroke:#000000;stroke-width:1.00000012;stroke-linecap:butt;stroke-linejoin:round;stroke-miterlimit:4;stroke-opacity:1;stroke-dasharray:none;stroke-dashoffset:0" />
      <path
         inkscape:connector-curvature="0"
         d="m 33.901918,8.1955269 c 0.77547,-0.596074 2.837424,0.370277 4.691024,2.2138271 1.849169,1.839138 2.778453,3.852404 2.194822,4.634677 -0.0022,0.003 0.04557,0.04013 0.04331,0.04308 l 3.434054,-3.449493 0.07008,-0.0704 c 0.0023,-0.003 -0.04553,-0.04009 -0.04331,-0.04307 C 44.875531,10.74187 43.946247,8.7286019 42.097079,6.8894633 40.243477,5.0459144 38.181525,4.0795622 37.406054,4.6756362 l -0.07008,0.070398 -3.434053,3.4494927 z"
         id="rect3175-6"
         style="opacity:0.8;fill:#ff9de8;fill-opacity:1;stroke:#dd78c5;stroke-width:1.00000012;stroke-linecap:butt;stroke-linejoin:round;stroke-miterlimit:4;stroke-opacity:1;stroke-dasharray:none;stroke-dashoffset:0" />
      <path
         inkscape:connector-curvature="0"
         d="m 9.197752,33.010751 c 0.775472,-0.596074 2.837423,0.370276 4.691025,2.213826 1.84917,1.839139 2.778451,3.852407 2.194822,4.634678 -0.0022,0.003 0.04557,0.04013 0.04331,0.04308 l 19.377876,-19.464989 0.07008,-0.0704 c 0.0023,-0.003 -0.04552,-0.0401 -0.04331,-0.04308 0.58363,-0.782273 -0.345653,-2.79554 -2.194821,-4.634679 -1.853602,-1.843548 -3.915555,-2.8099 -4.691026,-2.213826 l -0.07008,0.0704 -19.3778771,19.464991 z"
         id="path3208-8"
         style="opacity:0.6;fill:#000000;fill-opacity:1;stroke:none" />
      <path
         inkscape:connector-curvature="0"
         d="m 30.052759,12.061989 c 0.775473,-0.596076 2.837425,0.370275 4.691026,2.213825 1.84917,1.839139 2.778453,3.852407 2.194821,4.634678 -0.0022,0.003 0.04557,0.04013 0.04332,0.04308 l 0.350412,-0.351991 c 0.0023,-0.003 -0.04552,-0.04009 -0.04331,-0.04308 0.583631,-0.782272 -0.345651,-2.795541 -2.194822,-4.634677 -1.85361,-1.843549 -3.915561,-2.809901 -4.691034,-2.213826 l -0.350413,0.35199 z"
         id="path3233-2"
         style="fill:url(#linearGradient2883);fill-opacity:1;stroke:none" />
      <path
         inkscape:connector-curvature="0"
         d="m 29.731628,12.384564 c 0.775472,-0.596075 2.837425,0.370276 4.691025,2.213827 1.84917,1.839138 2.778454,3.852403 2.194822,4.634675 -0.0022,0.003 0.04557,0.04013 0.04331,0.04308 l 0.350413,-0.351989 c 0.0023,-0.003 -0.04554,-0.04009 -0.04331,-0.04308 0.58363,-0.782272 -0.345652,-2.79554 -2.194822,-4.634678 -1.853601,-1.843549 -3.915553,-2.809902 -4.691027,-2.213826 l -0.350411,0.351992 z"
         id="path3216-0"
         style="fill:url(#linearGradient2880);fill-opacity:1;stroke:none" />
      <path
         inkscape:connector-curvature="0"
         d="m 31.168691,10.941041 c 0.77547,-0.596074 2.837425,0.370276 4.691024,2.213826 1.849168,1.839138 2.778452,3.852405 2.194823,4.634678 -0.0022,0.003 0.04557,0.04013 0.04331,0.04308 l 0.350413,-0.351989 c 0.0023,-0.003 -0.04552,-0.04009 -0.04331,-0.04308 0.583631,-0.782272 -0.345651,-2.79554 -2.194823,-4.634677 -1.853599,-1.843551 -3.91555,-2.8099021 -4.691025,-2.213828 l -0.350412,0.35199 z"
         id="path3248-6"
         style="fill:url(#linearGradient2877-0);fill-opacity:1;stroke:none" />
      <path
         inkscape:connector-curvature="0"
         d="m 30.847559,11.263617 c 0.775471,-0.596076 2.837425,0.370275 4.691025,2.213825 1.84917,1.83914 2.778453,3.852405 2.194823,4.634678 -0.0022,0.003 0.04557,0.04012 0.04331,0.04308 l 0.350413,-0.351992 c 0.0023,-0.003 -0.04552,-0.04009 -0.04331,-0.04308 0.583633,-0.782272 -0.34565,-2.79554 -2.19482,-4.634677 -1.8536,-1.84355 -3.915553,-2.809902 -4.691026,-2.213826 l -0.350413,0.351989 z"
         id="path3250-4"
         style="fill:url(#linearGradient2874-3);fill-opacity:1;stroke:none" />
      <path
         inkscape:connector-curvature="0"
         d="m 32.290016,9.8146759 c 0.775469,-0.596074 2.837422,0.3702761 4.691022,2.2138261 1.84917,1.83914 2.778454,3.852406 2.194822,4.634678 -0.0022,0.003 0.04557,0.04013 0.04331,0.04308 l 0.350413,-0.35199 c 0.0023,-0.003 -0.04552,-0.0401 -0.04331,-0.04308 0.58363,-0.782273 -0.345652,-2.795541 -2.194822,-4.634679 C 35.477853,9.8329619 33.4159,8.8666109 32.640428,9.4626849 l -0.350413,0.351989 z"
         id="path3256-3"
         style="fill:url(#linearGradient2871-0);fill-opacity:1;stroke:none" />
      <path
         inkscape:connector-curvature="0"
         d="m 31.968882,10.137251 c 0.775471,-0.5960751 2.837425,0.370277 4.691026,2.213827 1.849168,1.839138 2.778452,3.852405 2.194821,4.634677 -0.0022,0.003 0.04557,0.04013 0.04331,0.04308 l 0.350412,-0.351988 c 0.0023,-0.003 -0.04553,-0.0401 -0.04331,-0.04308 0.583631,-0.782273 -0.345652,-2.795541 -2.194822,-4.634678 -1.8536,-1.84355 -3.915552,-2.8099021 -4.691024,-2.2138261 L 31.96888,10.137251 z"
         id="path3258-3"
         style="fill:url(#linearGradient2868);fill-opacity:1;stroke:none" />
      <path
         inkscape:connector-curvature="0"
         d="M 3.5001858,45.5 16.094487,40.057 C 16.678116,39.27473 15.735563,37.061972 13.886395,35.222832 12.032793,33.379282 9.873472,32.418667 9.098,33.01474 L 3.5001858,45.5 z"
         id="path3270-6"
         style="fill:url(#linearGradient2863);fill-opacity:1;fill-rule:evenodd;stroke:url(#linearGradient2865);stroke-width:1.00000012;stroke-linecap:butt;stroke-linejoin:miter;stroke-miterlimit:4;stroke-opacity:1;stroke-dasharray:none" />
      <path
         inkscape:connector-curvature="0"
         d="M 5.0434447,42.118467 3.5000001,45.486908 6.905655,43.970577 C 6.6513102,43.660887 6.4177887,43.345257 6.1095939,43.038734 5.7547791,42.685842 5.4030426,42.402266 5.0434447,42.118467 z"
         id="path3281-9"
         style="fill:#000000;fill-opacity:1;fill-rule:evenodd;stroke:#000000;stroke-width:1.00000012;stroke-linecap:butt;stroke-linejoin:miter;stroke-miterlimit:4;stroke-opacity:1;stroke-dasharray:none" />
    </g>
  </g>
</svg>
