<?xml version="1.0" encoding="UTF-8" standalone="no"?>
<!-- Created with Inkscape (http://www.inkscape.org/) -->

<svg
   xmlns:dc="http://purl.org/dc/elements/1.1/"
   xmlns:cc="http://creativecommons.org/ns#"
   xmlns:rdf="http://www.w3.org/1999/02/22-rdf-syntax-ns#"
   xmlns:svg="http://www.w3.org/2000/svg"
   xmlns="http://www.w3.org/2000/svg"
   xmlns:xlink="http://www.w3.org/1999/xlink"
   xmlns:sodipodi="http://sodipodi.sourceforge.net/DTD/sodipodi-0.dtd"
   xmlns:inkscape="http://www.inkscape.org/namespaces/inkscape"
   width="48"
   height="48"
   id="svg2"
   version="1.1"
   inkscape:version="0.48.4 r9939"
   sodipodi:docname="folder-music.svg">
  <defs
     id="defs4">
    <linearGradient
       id="linearGradient4075">
      <stop
         style="stop-color:#000000;stop-opacity:0.6825397;"
         offset="0"
         id="stop4077" />
      <stop
         style="stop-color:#787878;stop-opacity:0;"
         offset="1"
         id="stop4079" />
    </linearGradient>
    <linearGradient
       id="linearGradient5163">
      <stop
         style="stop-color:#cfab51;stop-opacity:1;"
         offset="0"
         id="stop5165" />
      <stop
         id="stop5171"
         offset="0.76943779"
         style="stop-color:#e5d6b0;stop-opacity:1;" />
      <stop
         style="stop-color:#e6cd8a;stop-opacity:1;"
         offset="1"
         id="stop5167" />
    </linearGradient>
    <linearGradient
       id="linearGradient4393">
      <stop
         style="stop-color:#feeed2;stop-opacity:1;"
         offset="0"
         id="stop4395" />
      <stop
         style="stop-color:#feeed2;stop-opacity:0.11904762;"
         offset="1"
         id="stop4397" />
    </linearGradient>
    <linearGradient
       id="linearGradient3982">
      <stop
         style="stop-color:#fde6bc;stop-opacity:1;"
         offset="0"
         id="stop3984" />
      <stop
         id="stop3990"
         offset="0.51083106"
         style="stop-color:#f3d49a;stop-opacity:1;" />
      <stop
         style="stop-color:#bc9e6c;stop-opacity:1;"
         offset="1"
         id="stop3986" />
    </linearGradient>
    <linearGradient
       id="linearGradient3886">
      <stop
         style="stop-color:#f6ddaf;stop-opacity:1;"
         offset="0"
         id="stop3888" />
      <stop
         id="stop3972"
         offset="0.5"
         style="stop-color:#fcdda7;stop-opacity:1;" />
      <stop
         style="stop-color:#ba9e71;stop-opacity:1;"
         offset="1"
         id="stop3890" />
    </linearGradient>
    <linearGradient
       inkscape:collect="always"
       xlink:href="#linearGradient3982"
       id="linearGradient3988"
       x1="322.94888"
       y1="198.02513"
       x2="517.21027"
       y2="286.91855"
       gradientUnits="userSpaceOnUse"
       gradientTransform="matrix(0.10779696,0.02824545,0,0.10713154,-6.3768408,988.17807)" />
    <linearGradient
       inkscape:collect="always"
       xlink:href="#linearGradient3876-2"
       id="linearGradient4014"
       x1="401.60123"
       y1="247.30942"
       x2="429.67322"
       y2="229.09518"
       gradientUnits="userSpaceOnUse"
       gradientTransform="matrix(0.10779696,0.02824545,0,0.10713154,-6.3768408,988.17807)" />
    <linearGradient
       id="linearGradient3876-2">
      <stop
         style="stop-color:#ceb172;stop-opacity:1;"
         offset="0"
         id="stop3878-36" />
      <stop
         style="stop-color:#eecf8c;stop-opacity:1;"
         offset="1"
         id="stop3880-6" />
    </linearGradient>
    <linearGradient
       inkscape:collect="always"
       xlink:href="#linearGradient4393"
       id="linearGradient4399"
       x1="323.00134"
       y1="217.01071"
       x2="351.78055"
       y2="222.06146"
       gradientUnits="userSpaceOnUse"
       gradientTransform="matrix(0.10779696,0.03910481,0,0.10713153,-6.3768411,985.05988)" />
    <linearGradient
       inkscape:collect="always"
       xlink:href="#linearGradient3886"
       id="linearGradient5181"
       gradientUnits="userSpaceOnUse"
       gradientTransform="matrix(0.10779696,0.01085936,0,0.10713154,-5.9539701,996.70593)"
       x1="142.92784"
       y1="83.013016"
       x2="429.56165"
       y2="399.19077" />
    <filter
       inkscape:collect="always"
       id="filter3834"
       x="-0.34263548"
       width="1.685271"
       y="-0.063944638"
       height="1.1278893"
       color-interpolation-filters="sRGB">
      <feGaussianBlur
         inkscape:collect="always"
         stdDeviation="10.164553"
         id="feGaussianBlur3836" />
    </filter>
    <filter
       inkscape:collect="always"
       id="filter4071"
       x="-0.060892355"
       width="1.1217847"
       y="-0.32908928"
       height="1.6581786"
       color-interpolation-filters="sRGB">
      <feGaussianBlur
         inkscape:collect="always"
         stdDeviation="2.8724519"
         id="feGaussianBlur4073" />
    </filter>
    <linearGradient
       inkscape:collect="always"
       xlink:href="#linearGradient4075"
       id="linearGradient4081"
       x1="60.844788"
       y1="120.31346"
       x2="60.844788"
       y2="132.19897"
       gradientUnits="userSpaceOnUse" />
    <linearGradient
       id="linearGradient4393-5">
      <stop
         style="stop-color:#feeed2;stop-opacity:1;"
         offset="0"
         id="stop4395-3" />
      <stop
         style="stop-color:#feeed2;stop-opacity:0.11904762;"
         offset="1"
         id="stop4397-8" />
    </linearGradient>
    <linearGradient
       y2="222.06146"
       x2="351.78055"
       y1="217.01071"
       x1="323.00134"
       gradientTransform="matrix(0.33996347,0.03424757,0,0.10713153,-100.08781,986.57112)"
       gradientUnits="userSpaceOnUse"
       id="linearGradient3946"
       xlink:href="#linearGradient4393-5"
       inkscape:collect="always" />
    <linearGradient
       inkscape:collect="always"
       xlink:href="#linearGradient5163"
       id="linearGradient3838"
       x1="156.93446"
       y1="738.9129"
       x2="389.06802"
       y2="777.73242"
       gradientUnits="userSpaceOnUse"
       gradientTransform="matrix(0.09789052,0.0098614,0,0.09787926,0.06200936,946.88832)" />
    <linearGradient
       id="linearGradient3783-0">
      <stop
         style="stop-color:#d7e866;stop-opacity:1;"
         offset="0"
         id="stop3785-4" />
      <stop
         style="stop-color:#94b62d;stop-opacity:1;"
         offset="1"
         id="stop3787-8" />
    </linearGradient>
    <radialGradient
       cx="14.270205"
       cy="36.985195"
       r="5.7384715"
       fx="14.270205"
       fy="36.985195"
       id="radialGradient3538-3-9-4"
       xlink:href="#linearGradient3791-8"
       gradientUnits="userSpaceOnUse"
       gradientTransform="matrix(0.67744776,-0.14923998,-0.10647048,0.72716988,-4.5237978,-13.444399)" />
    <linearGradient
       id="linearGradient3791-8">
      <stop
         id="stop3793-1"
         offset="0"
         style="stop-color:#ffffff;stop-opacity:1;" />
      <stop
         id="stop3795-68"
         offset="1"
         style="stop-color:#badf4a;stop-opacity:0.10416666;" />
    </linearGradient>
    <linearGradient
       inkscape:collect="always"
       xlink:href="#linearGradient2372-7-3-2-2"
       id="linearGradient3881-5"
       gradientUnits="userSpaceOnUse"
       gradientTransform="matrix(0.13863734,0,0,0.13519235,-0.06345227,-15.717599)"
       x1="28.256302"
       y1="129.73555"
       x2="57.507824"
       y2="181.79546" />
    <linearGradient
       id="linearGradient2372-7-3-2-2">
      <stop
         id="stop2374-5-9-1-1"
         style="stop-color:#ffffff;stop-opacity:1"
         offset="0" />
      <stop
         id="stop2376-3-7-7-9"
         style="stop-color:#ffffff;stop-opacity:0.37931034"
         offset="1" />
    </linearGradient>
    <linearGradient
       inkscape:collect="always"
       xlink:href="#linearGradient2372-7-3-2-2"
       id="linearGradient3976-9"
       gradientUnits="userSpaceOnUse"
       gradientTransform="matrix(0.23748834,0,0,0.12407777,6.4158579,-14.188467)"
       x1="28.739122"
       y1="144.11652"
       x2="26.256771"
       y2="125.39074" />
    <linearGradient
       id="linearGradient3791-2-6">
      <stop
         id="stop3793-3-0"
         offset="0"
         style="stop-color:#ffffff;stop-opacity:0.88235295;" />
      <stop
         id="stop3795-6-6"
         offset="1"
         style="stop-color:#badf4a;stop-opacity:0.10416666;" />
    </linearGradient>
    <radialGradient
       r="5.7384715"
       fy="36.985195"
       fx="14.270205"
       cy="36.985195"
       cx="14.270205"
       gradientTransform="matrix(0.67744776,-0.14923998,-0.10647048,0.72716988,3.5026507,-13.342876)"
       gradientUnits="userSpaceOnUse"
       id="radialGradient3138"
       xlink:href="#linearGradient3791-2-6"
       inkscape:collect="always" />
    <linearGradient
       inkscape:collect="always"
       xlink:href="#linearGradient3783-0"
       id="linearGradient13804"
       gradientUnits="userSpaceOnUse"
       gradientTransform="matrix(1.0976756,0,0,1.0502174,-1.1551998,-0.75754239)"
       x1="7.2591696"
       y1="6.7927251"
       x2="7.2591696"
       y2="19.085949" />
  </defs>
  <sodipodi:namedview
     id="base"
     pagecolor="#ffffff"
     bordercolor="#27cc00"
     borderopacity="1"
     inkscape:pageopacity="0.0"
     inkscape:pageshadow="2"
     inkscape:zoom="14.156867"
     inkscape:cx="12.971195"
     inkscape:cy="24.891374"
     inkscape:document-units="px"
     inkscape:current-layer="layer1"
     showgrid="false"
     borderlayer="false"
     inkscape:showpageshadow="false"
     showborder="true"
     inkscape:snap-from-guide="false"
     objecttolerance="1"
     gridtolerance="1"
     guidetolerance="5"
     inkscape:window-width="985"
     inkscape:window-height="763"
     inkscape:window-x="352"
     inkscape:window-y="24"
     inkscape:window-maximized="0">
    <inkscape:grid
       type="xygrid"
       id="grid2985"
       empspacing="5"
       visible="true"
       enabled="true"
       snapvisiblegridlinesonly="true" />
  </sodipodi:namedview>
  <metadata
     id="metadata7">
    <rdf:RDF>
      <cc:Work
         rdf:about="">
        <dc:format>image/svg+xml</dc:format>
        <dc:type
           rdf:resource="http://purl.org/dc/dcmitype/StillImage" />
        <dc:title />
      </cc:Work>
    </rdf:RDF>
  </metadata>
  <g
     inkscape:label="Layer 1"
     inkscape:groupmode="layer"
     id="layer1"
     transform="translate(0,-1004.3622)">
    <path
       sodipodi:type="arc"
       style="opacity:0.3;fill:url(#linearGradient4081);fill-opacity:1;stroke:none;filter:url(#filter4071)"
       id="path3081"
       sodipodi:cx="61.964287"
       sodipodi:cy="115.14286"
       sodipodi:rx="56.607143"
       sodipodi:ry="10"
       d="m 118.57143,115.14286 c 0,5.52285 -25.343881,10 -56.607143,10 -31.263262,0 -56.6071436,-4.47715 -56.6071436,-10 0,-5.52285 25.3438816,-10 56.6071436,-10 31.263262,0 56.607143,4.47715 56.607143,10 z"
       transform="matrix(0.32646747,-0.01741117,0,0.32991648,3.5048944,1009.7349)" />
    <path
       style="fill:url(#linearGradient5181);fill-opacity:1;stroke:url(#linearGradient3838);stroke-width:0.35139643999999998;stroke-linecap:butt;stroke-linejoin:round;stroke-miterlimit:4;stroke-opacity:1;stroke-dasharray:none;marker-start:none"
       d="m 40.629713,1006.6398 -31.2708956,-0.2113 0.1161145,24.2225 -1.8094501,0.7522 0.1924975,16.0346 1.7709492,0.1784 0.8084765,1.459 30.731299,-3.5606 z"
       inkscape:connector-curvature="0"
       sodipodi:nodetypes="ccccccccc"
       id="path3106" />
    <path
       style="fill:#fdfbf7;fill-opacity:1;stroke:none"
       d="m 8.9269712,1033.5402 c 0.1260405,-0.6215 0.648929,-0.8388 1.1439028,-0.9536 0.463113,-0.1071 1.047598,-0.1302 1.049733,0.2378 0,0.7035 0.442425,12.3113 0.442425,12.3113 -0.0037,0.5194 -0.764054,1.0792 -1.303044,1.1465 -0.779272,0.097 -1.0653436,-0.1164 -1.0653436,-0.6409 z"
       id="path4403"
       inkscape:connector-curvature="0"
       sodipodi:nodetypes="csccscc" />
    <path
       style="opacity:0.78636367;fill:url(#linearGradient3946);fill-opacity:1;stroke:none"
       d="m 9.6909143,1006.6885 18.2890917,0.7265 c 0,0 -2.282752,9.4153 -4.320412,13.7749 -1.246599,2.667 -2.730047,5.3103 -4.770105,7.4332 -2.533213,2.6359 -8.9880085,6.2852 -8.9880085,6.2852 z"
       id="path4391-1"
       inkscape:connector-curvature="0"
       sodipodi:nodetypes="ccaacc" />
    <path
       style="fill:#6699cc;fill-opacity:1;stroke:none"
       d="m 9.799518,1040.0097 c 0.07708,-0.2743 0.509226,-0.3508 0.811941,-0.3934 0.283231,-0.04 0.640689,-0.04 0.641995,0.1232 0,0.3128 0.162374,5.5511 0.162374,5.5511 -0.0021,0.2309 -0.467279,0.4668 -0.796915,0.4877 -0.476586,0.031 -0.6515406,-0.071 -0.6515406,-0.3028 z"
       id="path4403-6"
       inkscape:connector-curvature="0"
       sodipodi:nodetypes="csccscc" />
    <g
       transform="matrix(2.5840277,0,0,2.8421439,1.4373567,1008.5877)"
       id="layer1-8">
      <path
         inkscape:connector-curvature="0"
         d="M 12.9907,11.049673 12.588205,7.9462293"
         id="path2931-3"
         style="fill:none;stroke:none"
         sodipodi:nodetypes="cc" />
      <path
         inkscape:connector-curvature="0"
         d="m 3.5071773,4.1004682 c 0,2.6590902 0,2.4167928 0,5.0758837 -1.4438187,0 -3.61996923,0.3065525 -3.77225207,2.6762531 -0.07235,1.125851 0.48733587,2.490836 2.30780667,2.736492 1.4212769,0.177049 3.761616,-0.553686 3.7864019,-2.388048 -0.022112,-2.7299467 0.0062,-5.1518352 0,-7.8821983 0.3820013,0 4.6272662,0 5.1128322,0 0,2.0449276 0,2.397833 0,4.4427608 -1.2464863,0 -3.3121956,0.3161727 -3.423484,2.6986485 -0.060683,1.299105 0.9355147,2.670707 2.629185,2.769801 1.459621,0.0854 3.371427,-0.805015 3.371427,-2.443332 -0.02905,-3.6402378 0.02155,-4.6312872 -0.0022,-8.2719114 0,-0.9266441 -0.501313,-1.6588964 -1.611616,-1.6588964 -2.1597573,0 -4.6539357,0 -6.6266272,0 -1.4414163,0 -1.7714626,1.2145459 -1.7714735,2.244547 z"
         id="path4031-1"
         style="fill:url(#linearGradient13804);fill-opacity:1;stroke:#507f16;stroke-width:0.14760069;stroke-linecap:butt;stroke-linejoin:round;stroke-miterlimit:4;stroke-opacity:1;stroke-dasharray:none"
         sodipodi:nodetypes="ccscccccssccssc" />
      <path
         inkscape:connector-curvature="0"
         d="m 5.1516168,10.992755 c -2.275e-4,1.168399 0.1447466,3.138727 -2.7724738,3.440891 -1.3196556,-0.06096 -2.48183412,-0.5748 -2.48183412,-2.518169 0,-1.4675 0.98955607,-2.2402426 2.13781682,-2.4432261 2.2282011,-0.3938898 3.1162648,0.5121979 3.1164911,1.5205041 z"
         id="path2937-4"
         style="fill:url(#radialGradient3538-3-9-4);fill-opacity:1;stroke:none"
         sodipodi:nodetypes="ccssc" />
      <path
         d="m 3.6158862,9.3881594 c 0,0 0.00549,-3.6093821 0.00549,-5.5727917 0,-0.2641802 0.1074947,-0.9367427 0.4039141,-1.2619099 0.2510258,-0.2753712 0.6410655,-0.5859832 1.0772436,-0.5859832 0.1966284,0 5.3360891,-0.00848 5.3360891,-0.00848 0,0 2.603242,0.052026 -4.9798337,0.7474157 C 5.1662583,2.7798478 4.6896902,2.9107307 4.4693173,3.1850101 4.2100064,3.5077523 4.2465117,3.9166405 4.2333045,4.3646998 4.2180686,5.6975689 4.2013093,4.6831997 4.1980244,9.5760457 4.060221,9.5109198 3.849737,9.430908 3.6158862,9.3881594 z"
         id="path2945-9"
         style="opacity:0.4;fill:url(#linearGradient3881-5);fill-opacity:1;fill-rule:evenodd;stroke:none"
         inkscape:connector-curvature="0"
         sodipodi:nodetypes="csssccaccc" />
      <path
         d="m 11.018227,9.4798175 -1.72e-4,-5.621571 0.596529,0 c 0,0 2.54e-4,1.4597347 2.54e-4,5.9187147 0,0.03324 -0.249759,-0.2513059 -0.596611,-0.2971437 z"
         id="path2947-4"
         style="opacity:0.4;fill:url(#linearGradient3976-9);fill-opacity:1;fill-rule:evenodd;stroke:none"
         inkscape:connector-curvature="0"
         sodipodi:nodetypes="cccsc" />
      <path
         inkscape:connector-curvature="0"
         d="m 12.878105,10.720945 c -2.27e-4,1.168399 -0.340133,3.710993 -2.9354323,3.334818 -1.210355,-0.175435 -2.2795809,-1.161702 -2.2795802,-2.578635 7e-7,-1.426968 0.8102416,-2.1535348 2.1742762,-2.4513711 2.2253363,-0.485901 3.0405103,0.5268634 3.0407363,1.6951881 z"
         id="path2937-4-0"
         style="fill:url(#radialGradient3138);fill-opacity:1;stroke:none"
         sodipodi:nodetypes="csssc" />
    </g>
    <path
       style="opacity:0.15;fill:#000000;fill-opacity:1;stroke:none;filter:url(#filter3834)"
       d="m 334.55608,1012.7431 -44.16221,-31.60163 0,-69.16478 -21.1979,-24.24366 3.07243,-210.64653 68.12547,-29.22982 z"
       id="path4069"
       inkscape:connector-curvature="0"
       sodipodi:nodetypes="ccccccc"
       transform="matrix(0.10779696,0.02824545,0,0.10940906,-6.8613928,927.5352)" />
    <path
       style="fill:url(#linearGradient3988);fill-opacity:1;stroke:url(#linearGradient4014);stroke-width:0.35139644;stroke-linecap:butt;stroke-linejoin:miter;stroke-miterlimit:4;stroke-opacity:1;stroke-dasharray:none"
       d="m 40.516611,1006.551 -15.121349,-0.1735 0,23.9783 2.15594,2.4014 -0.213925,14.8109 0.639609,0.9977 1.514243,0.3969 11.596702,-3.5271 z"
       id="path3884"
       inkscape:connector-curvature="0"
       sodipodi:nodetypes="ccccccccc" />
    <path
       style="opacity:0.78636367;fill:url(#linearGradient4399);fill-opacity:1;stroke:none"
       d="m 25.706781,1006.6536 14.415449,0.4983 0.747703,38.1119 -11.348369,3.3131 -1.417002,-0.4214 -0.396148,-0.6774 0.07582,-14.091 -2.266965,-2.6991 z"
       id="path4391"
       inkscape:connector-curvature="0"
       sodipodi:nodetypes="ccccccccc" />
  </g>
</svg>
